<svg width="24" height="24" viewBox="0 0 24 24" fill="none" xmlns="http://www.w3.org/2000/svg">
<path fill-rule="evenodd" clip-rule="evenodd" d="M19.8324 14.1463C19.4487 14.3889 18.9969 14.4189 18.6535 14.2252C18.2173 13.9789 17.9774 13.4021 17.9774 12.5999V10.1998C17.9774 9.04073 17.5192 8.216 16.7529 7.99332C15.4544 7.61502 14.4778 9.20385 14.1108 9.80054L11.8206 13.5137V8.97527C11.7949 7.93107 11.4557 7.30649 10.8118 7.11815C10.3858 6.99366 9.74833 7.04356 9.12911 7.99117L3.99828 16.2299C3.31138 14.9259 2.9533 13.4739 2.95516 12C2.95516 7.03712 6.93233 2.99985 11.8206 2.99985C16.7089 2.99985 20.6855 7.03712 20.6855 12C20.6855 12.0086 20.6877 12.0161 20.6882 12.0241C20.6882 12.0327 20.6866 12.0402 20.6872 12.0488C20.7333 13.0099 20.4221 13.774 19.8324 14.1463ZM22.6553 12.0005V11.9753L22.6548 11.9506C22.6274 5.90654 17.7783 1 11.8201 1C5.84628 1 0.985352 5.93444 0.985352 12C0.985352 18.065 5.84628 23 11.8206 23C14.562 23 17.1784 21.958 19.1869 20.0665C19.5861 19.6909 19.6097 19.0582 19.2394 18.6537C19.1523 18.5576 19.0469 18.4798 18.9293 18.425C18.8117 18.3702 18.6844 18.3394 18.5548 18.3344C18.4251 18.3294 18.2958 18.3503 18.1744 18.3959C18.0529 18.4415 17.9418 18.5109 17.8475 18.6C16.2196 20.1416 14.0627 21.0006 11.8206 21.0001C9.20316 21.0001 6.84808 19.8417 5.22384 18.0044L9.85081 10.5748V13.9999C9.85081 15.645 10.4888 16.1768 11.0238 16.3324C11.5593 16.488 12.3776 16.3818 13.2367 14.9866L15.7817 10.8608C15.8633 10.7278 15.9384 10.6129 16.0071 10.5137V12.5999C16.0071 14.1378 16.6231 15.3676 17.6968 15.9734C18.6648 16.5197 19.8817 16.4703 20.8734 15.8446C22.0753 15.0854 22.723 13.6865 22.6553 12.0005Z" fill="#4D596A"/>
</svg>
