<svg width="44" height="44" viewBox="0 0 44 44" fill="none" xmlns="http://www.w3.org/2000/svg">
<path fill-rule="evenodd" clip-rule="evenodd" d="M31.5513 25.1139C31.0834 25.4097 30.5324 25.4464 30.1136 25.2101C29.5816 24.9098 29.2891 24.2063 29.2891 23.2279V20.3008C29.2891 18.8873 28.7302 17.8815 27.7957 17.6099C26.212 17.1485 25.021 19.0862 24.5734 19.8139L21.7804 24.3424V18.8074C21.749 17.534 21.3354 16.7723 20.5502 16.5426C20.0306 16.3907 19.2531 16.4516 18.4979 17.6073L12.2405 27.655C11.4028 26.0646 10.9661 24.2938 10.9684 22.4963C10.9684 16.4437 15.8188 11.52 21.7804 11.52C27.742 11.52 32.5918 16.4437 32.5918 22.4963C32.5918 22.5068 32.5944 22.516 32.5951 22.5258C32.5951 22.5362 32.5931 22.5454 32.5938 22.5559C32.6501 23.7279 32.2705 24.6598 31.5513 25.1139ZM34.9941 22.497V22.4662L34.9935 22.4361C34.9601 15.0649 29.0463 9.08105 21.7798 9.08105C14.4943 9.08105 8.56607 15.0989 8.56607 22.4963C8.56607 29.893 14.4943 35.9116 21.7804 35.9116C25.1238 35.9116 28.3146 34.6407 30.7641 32.334C31.251 31.8759 31.2797 31.1043 30.8282 30.6109C30.7219 30.4937 30.5933 30.3989 30.45 30.332C30.3066 30.2652 30.1513 30.2276 29.9932 30.2215C29.8351 30.2154 29.6774 30.2409 29.5293 30.2966C29.3812 30.3522 29.2457 30.4368 29.1307 30.5455C27.1453 32.4256 24.5148 33.4731 21.7804 33.4726C18.5883 33.4726 15.7161 32.0598 13.7352 29.8191L19.3781 20.7582V24.9353C19.3781 26.9417 20.1562 27.5902 20.8086 27.78C21.4617 27.9697 22.4597 27.8402 23.5074 26.1387L26.6112 21.107C26.7107 20.9447 26.8023 20.8047 26.8861 20.6836V23.2279C26.8861 25.1035 27.6373 26.6034 28.9468 27.3422C30.1273 28.0084 31.6115 27.9482 32.8209 27.1851C34.2867 26.2591 35.0766 24.5531 34.9941 22.497Z" fill="#282828"/>
</svg>
