<svg width="40" height="40" viewBox="0 0 40 40" fill="none" xmlns="http://www.w3.org/2000/svg">
<path fill-rule="evenodd" clip-rule="evenodd" d="M28.1298 22.1463C27.7404 22.3889 27.2818 22.4189 26.9332 22.2252C26.4904 21.9789 26.247 21.4021 26.247 20.5999V18.1998C26.247 17.0407 25.7819 16.216 25.0041 15.9933C23.6861 15.615 22.6949 17.2039 22.3223 17.8005L19.9978 21.5137V16.9753C19.9717 15.9311 19.6275 15.3065 18.9739 15.1181C18.5415 14.9937 17.8944 15.0436 17.2659 15.9912L12.0581 24.2299C11.3609 22.9259 10.9975 21.4739 10.9994 20C10.9994 15.0371 15.0362 10.9999 19.9978 10.9999C24.9595 10.9999 28.9958 15.0371 28.9958 20C28.9958 20.0086 28.9979 20.0161 28.9985 20.0241C28.9985 20.0327 28.9968 20.0402 28.9974 20.0488C29.0442 21.0099 28.7283 21.774 28.1298 22.1463ZM30.9951 20.0005V19.9753L30.9946 19.9506C30.9668 13.9065 26.0449 9 19.9973 9C13.9339 9 9 13.9344 9 20C9 26.065 13.9339 31 19.9978 31C22.7804 31 25.436 29.958 27.4746 28.0665C27.8798 27.6909 27.9038 27.0582 27.528 26.6537C27.4395 26.5576 27.3325 26.4798 27.2132 26.425C27.0938 26.3702 26.9646 26.3394 26.833 26.3344C26.7014 26.3294 26.5702 26.3503 26.4469 26.3959C26.3237 26.4415 26.2109 26.5109 26.1152 26.6C24.4628 28.1416 22.2735 29.0006 19.9978 29.0001C17.3411 29.0001 14.9507 27.8417 13.3021 26.0044L17.9985 18.5748V21.9999C17.9985 23.645 18.646 24.1768 19.189 24.3324C19.7326 24.488 20.5632 24.3818 21.4351 22.9866L24.0183 18.8608C24.1011 18.7278 24.1774 18.6129 24.2471 18.5137V20.5999C24.2471 22.1378 24.8723 23.3676 25.9621 23.9734C26.9447 24.5197 28.1799 24.4703 29.1864 23.8446C30.4064 23.0854 31.0637 21.6865 30.9951 20.0005Z" fill="#4D596A"/>
</svg>
