<svg width="40" height="40" viewBox="0 0 40 40" fill="none" xmlns="http://www.w3.org/2000/svg">
<g clip-path="url(#clip0_1197_344)">
<path d="M18.4044 18.7733C19.2377 18.7733 19.9133 18.0977 19.9133 17.2644C19.9133 16.431 19.2377 15.7555 18.4044 15.7555C17.5711 15.7555 16.8955 16.431 16.8955 17.2644C16.8955 18.0977 17.5711 18.7733 18.4044 18.7733Z" fill="#4D596A"/>
<path fill-rule="evenodd" clip-rule="evenodd" d="M7.97766 20.031C7.94877 13.4043 13.2954 8.00877 19.9243 7.97766C26.551 7.94877 31.9465 13.2954 31.9777 19.9243C32.0065 26.551 26.6577 31.9465 20.031 31.9777C13.4043 32.0065 8.00877 26.6577 7.97766 20.031ZM16.2577 17.2443C16.2577 18.4288 17.2199 19.3888 18.4043 19.3888C19.5888 19.3888 20.5488 18.4288 20.5488 17.2443C20.5488 16.0599 19.5888 15.0999 18.4043 15.0999C17.2177 15.0999 16.2577 16.0599 16.2577 17.2443ZM20.1377 21.6821L20.1154 21.7088C20.611 22.2688 21.3888 22.5265 22.1265 22.5954C22.8754 22.6643 23.6154 22.5243 24.3243 22.3421C25.0354 22.1577 25.7243 21.9021 26.3843 21.591C27.0377 21.2688 27.6799 20.9043 28.2199 20.4132L28.2021 20.391L28.1977 20.3843C28.1554 20.4199 28.111 20.4532 28.0643 20.4865C27.8532 20.631 27.6377 20.7688 27.4177 20.9021C27.4165 20.9032 27.4154 20.9038 27.4143 20.9043C27.4132 20.9049 27.4121 20.9054 27.411 20.9065C27.0577 21.1043 26.6865 21.2732 26.3132 21.4265C25.6488 21.7021 24.9599 21.9177 24.2599 22.0621C23.5577 22.2043 22.8465 22.2554 22.1465 22.2377C21.4488 22.2154 20.751 22.0777 20.1377 21.6821ZM26.0843 18.9221C25.8288 18.9243 25.6221 19.131 25.6221 19.3888C25.6221 19.6465 25.8332 19.8532 26.0888 19.851C26.3443 19.851 26.551 19.6399 26.551 19.3843C26.5488 19.1288 26.3421 18.9221 26.0843 18.9221ZM25.9177 22.8443C24.3177 24.471 21.4821 27.651 21.9465 30.8999C27.1554 29.9688 31.0977 25.4021 31.0754 19.9288C31.0465 13.7999 26.0577 8.85543 19.9288 8.8821C13.7999 8.90877 8.85543 13.8999 8.8821 20.0265C8.89099 22.3554 9.61766 24.511 10.851 26.291C11.7992 24.1602 11.9547 22.2849 12.1578 19.8343L12.1843 19.5154C12.3443 17.0999 13.0043 15.0954 17.1132 13.9643C18.0532 13.7399 19.0288 13.8221 20.0199 14.0554C20.9154 13.8443 21.951 13.831 22.5043 14.311C22.7621 14.5288 22.931 14.7221 23.0288 14.8888C23.0621 14.9577 23.0932 15.031 23.1199 15.1088L23.1574 15.1236C23.9891 15.4519 24.8118 15.7767 25.6043 16.0065C29.8532 17.1665 29.4399 19.4865 27.3643 21.4265C27.0647 21.7364 26.7518 22.036 26.4712 22.3048C26.2628 22.5044 26.072 22.6871 25.9177 22.8443Z" fill="#4D596A"/>
</g>
<defs>
<clipPath id="clip0_1197_344">
<rect width="24" height="24" fill="white" transform="translate(8 8)"/>
</clipPath>
</defs>
</svg>
