<svg width="44" height="44" viewBox="0 0 44 44" fill="none" xmlns="http://www.w3.org/2000/svg">
<path d="M20.1309 21.0582C21.1051 21.0582 21.895 20.2684 21.895 19.2941C21.895 18.3198 21.1051 17.53 20.1309 17.53C19.1566 17.53 18.3668 18.3198 18.3668 19.2941C18.3668 20.2684 19.1566 21.0582 20.1309 21.0582Z" fill="#282828"/>
<path fill-rule="evenodd" clip-rule="evenodd" d="M7.94055 22.5287C7.90678 14.7812 14.1578 8.47303 21.9079 8.43666C29.6553 8.40288 35.9635 14.6539 35.9999 22.404C36.0336 30.1515 29.7801 36.4596 22.0326 36.496C14.2851 36.5297 7.97692 30.2762 7.94055 22.5287ZM17.621 19.2707C17.621 20.6555 18.746 21.7778 20.1308 21.7778C21.5155 21.7778 22.6379 20.6555 22.6379 19.2707C22.6379 17.8859 21.5155 16.7635 20.1308 16.7635C18.7434 16.7635 17.621 17.8859 17.621 19.2707ZM22.1573 24.459L22.1313 24.4902C22.7107 25.1449 23.62 25.4463 24.4826 25.5269C25.3581 25.6074 26.2233 25.4437 27.0521 25.2307C27.8834 25.015 28.6889 24.7163 29.4605 24.3525C30.2243 23.9758 30.9752 23.5497 31.6065 22.9755L31.5857 22.9496L31.5805 22.9418C31.5312 22.9833 31.4792 23.0223 31.4246 23.0613C31.1778 23.2302 30.9258 23.3912 30.6686 23.5471C30.6673 23.5484 30.666 23.5491 30.6647 23.5497C30.6634 23.5504 30.6621 23.551 30.6608 23.5523C30.2477 23.7835 29.8138 23.981 29.3773 24.1603C28.6005 24.4824 27.7951 24.7344 26.9767 24.9033C26.1557 25.0696 25.3243 25.1294 24.5059 25.1086C23.6901 25.0826 22.8743 24.9215 22.1573 24.459ZM29.1097 21.2322C28.811 21.2348 28.5693 21.4764 28.5693 21.7778C28.5693 22.0792 28.8162 22.3208 29.1149 22.3182C29.4137 22.3182 29.6553 22.0714 29.6553 21.7726C29.6527 21.4738 29.4111 21.2322 29.1097 21.2322ZM28.9149 25.8178C27.0443 27.7196 23.7291 31.4375 24.2721 35.2359C30.362 34.1473 34.971 28.8082 34.945 22.4092C34.9113 15.2436 29.0786 9.4629 21.9131 9.49408C14.7475 9.52526 8.96679 15.3606 8.99797 22.5235C9.00836 25.2463 9.85794 27.7664 11.2999 29.8475C12.4084 27.3563 12.5902 25.1638 12.8278 22.2987L12.8587 21.9259C13.0458 19.1018 13.8174 16.7583 18.6213 15.4359C19.7203 15.1735 20.8608 15.2696 22.0196 15.5424C23.0666 15.2956 24.2773 15.28 24.9242 15.8412C25.2256 16.0958 25.4231 16.3218 25.5374 16.5167C25.5763 16.5972 25.6127 16.683 25.6439 16.7739L25.6878 16.7912C26.6601 17.1751 27.622 17.5548 28.5486 17.8235C33.5161 19.1797 33.0329 21.8921 30.6062 24.1603C30.2559 24.5225 29.8902 24.8728 29.5621 25.1871C29.3184 25.4205 29.0954 25.6341 28.9149 25.8178Z" fill="#282828"/>
</svg>
