<svg width="40" height="40" viewBox="0 0 40 40" fill="none" xmlns="http://www.w3.org/2000/svg">
<path d="M27.6361 13.1542C26.1907 12.4925 24.6648 12.023 23.0973 11.7578C22.8828 12.1412 22.6888 12.5357 22.5159 12.9397C20.8463 12.6881 19.1484 12.6881 17.4788 12.9397C17.3059 12.5358 17.1118 12.1413 16.8974 11.7578C15.329 12.0252 13.8021 12.4958 12.3552 13.1577C9.48276 17.4075 8.70409 21.5517 9.09342 25.6371C10.7756 26.88 12.6584 27.8252 14.66 28.4317C15.1107 27.8255 15.5096 27.1824 15.8523 26.5092C15.2014 26.2661 14.5731 25.9662 13.9748 25.6129C14.1323 25.4987 14.2863 25.381 14.4351 25.2668C16.176 26.0855 18.0761 26.51 20 26.51C21.9238 26.51 23.8239 26.0855 25.5648 25.2668C25.7154 25.3897 25.8694 25.5074 26.0251 25.6129C25.4257 25.9668 24.7963 26.2673 24.1442 26.511C24.4865 27.1838 24.8853 27.8264 25.3364 28.4317C27.3398 27.8276 29.224 26.8829 30.9065 25.6389C31.3633 20.9011 30.1261 16.7949 27.6361 13.1542ZM16.3454 23.1246C15.2605 23.1246 14.3641 22.14 14.3641 20.9288C14.3641 19.7175 15.2293 18.7243 16.342 18.7243C17.4546 18.7243 18.344 19.7175 18.325 20.9288C18.3059 22.14 17.4511 23.1246 16.3454 23.1246ZM23.6545 23.1246C22.5678 23.1246 21.675 22.14 21.675 20.9288C21.675 19.7175 22.5401 18.7243 23.6545 18.7243C24.7689 18.7243 25.6514 19.7175 25.6323 20.9288C25.6133 22.14 24.7602 23.1246 23.6545 23.1246Z" fill="#4D596A"/>
</svg>
