<svg width="44" height="44" viewBox="0 0 44 44" fill="none" xmlns="http://www.w3.org/2000/svg">
<path d="M31.7187 13.789C29.879 12.9467 27.937 12.3492 25.9421 12.0117C25.6691 12.4997 25.4221 13.0018 25.2021 13.5159C23.0771 13.1957 20.9162 13.1957 18.7912 13.5159C18.5711 13.0019 18.3241 12.4998 18.0513 12.0117C16.0551 12.3521 14.1117 12.951 12.2703 13.7934C8.61448 19.2022 7.62345 24.4767 8.11896 29.6763C10.2599 31.2581 12.6562 32.4611 15.2037 33.233C15.7773 32.4615 16.2849 31.643 16.7211 30.7862C15.8927 30.4768 15.0931 30.0951 14.3316 29.6454C14.532 29.5001 14.728 29.3503 14.9174 29.205C17.1331 30.247 19.5515 30.7872 22 30.7872C24.4485 30.7872 26.8668 30.247 29.0825 29.205C29.2741 29.3613 29.4701 29.5111 29.6683 29.6454C28.9054 30.0958 28.1044 30.4783 27.2745 30.7884C27.7101 31.6448 28.2177 32.4626 28.7918 33.233C31.3415 32.4642 33.7397 31.2617 35.881 29.6785C36.4624 23.6486 34.8878 18.4226 31.7187 13.789ZM17.3487 26.4785C15.9679 26.4785 14.8271 25.2254 14.8271 23.6838C14.8271 22.1422 15.9283 20.8781 17.3443 20.8781C18.7604 20.8781 19.8924 22.1422 19.8682 23.6838C19.8439 25.2254 18.756 26.4785 17.3487 26.4785ZM26.6512 26.4785C25.2682 26.4785 24.1318 25.2254 24.1318 23.6838C24.1318 22.1422 25.2329 20.8781 26.6512 20.8781C28.0695 20.8781 29.1926 22.1422 29.1684 23.6838C29.1442 25.2254 28.0585 26.4785 26.6512 26.4785Z" fill="#282828"/>
</svg>
