<svg width="44" height="44" viewBox="0 0 44 44" fill="none" xmlns="http://www.w3.org/2000/svg">
<path d="M35.6 15.6187C35.2742 14.3896 34.3113 13.4219 33.0903 13.0929C30.8774 12.4961 22 12.4961 22 12.4961C22 12.4961 13.1226 12.4961 10.9097 13.0929C9.68871 13.4219 8.7258 14.3896 8.4 15.6187C7.80645 17.8477 7.80645 22.4961 7.80645 22.4961C7.80645 22.4961 7.80645 27.1445 8.4 29.3735C8.7258 30.6025 9.68871 31.5703 10.9097 31.8993C13.1242 32.4961 22 32.4961 22 32.4961C22 32.4961 30.8774 32.4961 33.0903 31.8993C34.3113 31.5703 35.2742 30.6025 35.6 29.3735C36.1935 27.1461 36.1935 22.4961 36.1935 22.4961C36.1935 22.4961 36.1935 17.8477 35.6 15.6187ZM19.0968 26.7171V18.2751L26.5161 22.4961L19.0968 26.7171Z" fill="#282828"/>
</svg>
