<svg width="44" height="44" viewBox="0 0 44 44" fill="none" xmlns="http://www.w3.org/2000/svg">
<path d="M35.6002 15.1226C35.2744 13.8935 34.3115 12.9258 33.0905 12.5968C30.8776 12 22.0002 12 22.0002 12C22.0002 12 13.1228 12 10.9099 12.5968C9.6889 12.9258 8.726 13.8935 8.40019 15.1226C7.80664 17.3516 7.80664 22 7.80664 22C7.80664 22 7.80664 26.6484 8.40019 28.8774C8.726 30.1065 9.6889 31.0742 10.9099 31.4032C13.1244 32 22.0002 32 22.0002 32C22.0002 32 30.8776 32 33.0905 31.4032C34.3115 31.0742 35.2744 30.1065 35.6002 28.8774C36.1937 26.65 36.1937 22 36.1937 22C36.1937 22 36.1937 17.3516 35.6002 15.1226ZM19.097 26.221V17.779L26.5163 22L19.097 26.221Z" fill="#4D596A"/>
</svg>
