<svg width="400" height="200" viewBox="0 0 400 200" fill="none" xmlns="http://www.w3.org/2000/svg">
<g clip-path="url(#clip0_443_111)">
<path d="M200.374 158.097C231.008 158.097 255.842 133.263 255.842 102.629C255.842 71.9952 231.008 47.1615 200.374 47.1615C169.74 47.1615 144.906 71.9952 144.906 102.629C144.906 133.263 169.74 158.097 200.374 158.097Z" fill="white" stroke="#7200D5" stroke-width="1.07204" stroke-miterlimit="10"/>
<path d="M200.374 153.369C231.008 153.369 255.842 128.535 255.842 97.9013C255.842 67.2674 231.008 42.4337 200.374 42.4337C169.74 42.4337 144.906 67.2674 144.906 97.9013C144.906 128.535 169.74 153.369 200.374 153.369Z" fill="#7200D5"/>
<g clip-path="url(#clip1_443_111)">
<mask id="mask0_443_111" style="mask-type:luminance" maskUnits="userSpaceOnUse" x="183" y="85" width="33" height="26">
<path d="M215.661 85.3948H183.5V110.687H215.661V85.3948Z" fill="white"/>
</mask>
<g mask="url(#mask0_443_111)">
<path d="M184.822 91.1209V86.7173H214.338V91.1209H184.822ZM184.822 100.166V95.7627H214.338V100.166H184.822ZM184.822 109.212V104.808H196.565V109.212H184.822ZM202.595 109.212V104.808H214.338V109.212H202.595Z" fill="white"/>
<path fill-rule="evenodd" clip-rule="evenodd" d="M183.5 92.4433V85.3948H215.661V92.4433H183.5ZM183.5 101.489V94.4402H215.661V101.489H183.5ZM183.5 110.534V103.486H197.888V110.534H183.5ZM201.273 110.534V103.486H215.661V110.534H201.273ZM184.823 91.1209H214.339V86.7172H184.823V91.1209ZM184.823 100.166H214.339V95.7626H184.823V100.166ZM184.823 109.212H196.566V104.808H184.823V109.212ZM202.596 109.212H214.339V104.808H202.596V109.212Z" fill="white"/>
</g>
</g>
<path d="M200.438 136.452C221.729 136.452 238.989 119.192 238.989 97.9013C238.989 76.6104 221.729 59.3506 200.438 59.3506C179.147 59.3506 161.888 76.6104 161.888 97.9013C161.888 119.192 179.147 136.452 200.438 136.452Z" stroke="white" stroke-width="3.21613" stroke-miterlimit="10"/>
</g>
<defs>
<clipPath id="clip0_443_111">
<rect width="400" height="200" fill="white"/>
</clipPath>
<clipPath id="clip1_443_111">
<rect width="32.1613" height="25.2919" fill="white" transform="translate(183.5 85.3948)"/>
</clipPath>
</defs>
</svg>
