<svg width="21" height="23" viewBox="0 0 21 23" fill="none" xmlns="http://www.w3.org/2000/svg">
<path d="M12.1747 12.8586L11.1242 15.7423C11.0796 15.828 11.0796 15.9172 11.1242 16.0029L12.9608 20.9817L15.0582 19.7575L12.5214 12.8586C12.4802 12.6837 12.2605 12.6837 12.1747 12.8586Z" fill="black"/>
<path d="M14.2719 7.9688C14.2273 7.79393 14.0111 7.79393 13.9218 7.9688L12.8714 10.8525C12.8267 10.9382 12.8267 11.0274 12.8714 11.1131L15.8442 19.2808L17.9416 18.0566L14.2719 7.9688Z" fill="black"/>
<path d="M10.5096 1.6353C10.5542 1.6353 10.5954 1.6353 10.64 1.67988L18.6831 6.30891C18.7689 6.35348 18.8136 6.4392 18.8136 6.5695V15.8276C18.8136 15.9133 18.7689 16.047 18.6831 16.0882L10.64 20.7172C10.5954 20.7618 10.5542 20.7618 10.5096 20.7618C10.4649 20.7618 10.4238 20.7618 10.3791 20.7172L2.33603 16.0882C2.25021 16.0436 2.20558 15.9579 2.20558 15.8276V6.5695C2.20558 6.48378 2.25021 6.35005 2.33603 6.30891L10.3791 1.67988C10.4203 1.6353 10.4649 1.6353 10.5096 1.6353ZM10.5096 0.280884C10.2041 0.280884 9.93972 0.366607 9.67883 0.500334L1.63573 5.12936C1.11051 5.43453 0.804993 5.95916 0.804993 6.5695V15.8276C0.804993 16.3968 1.11051 16.9625 1.63573 17.2677L9.67883 21.8967C9.93972 22.027 10.2041 22.1162 10.5096 22.1162C10.8151 22.1162 11.0794 22.0305 11.3403 21.8967L19.3834 17.2677C19.9086 16.9625 20.2141 16.4379 20.2141 15.8276V6.5695C20.2141 6.0003 19.9086 5.43453 19.3834 5.12936L11.3815 0.500334C11.1206 0.370035 10.8563 0.280884 10.5508 0.280884H10.5096Z" fill="black"/>
<path d="M9.85469 5.91467H7.79843C7.66799 5.91467 7.49291 6.0004 7.44829 6.13412L3.07831 18.0976L5.17576 19.3217L9.98514 6.17527C10.0298 6.04497 9.94051 5.91467 9.81007 5.91467H9.85469Z" fill="black"/>
<path d="M13.3943 5.91432H11.3381C11.2076 5.91432 11.0325 6.00004 10.9879 6.13377L6.0069 19.7568L8.10435 20.9809L13.5248 6.13377C13.5694 6.00347 13.4801 5.87317 13.3497 5.87317L13.3943 5.91432Z" fill="black"/>
</svg>
