<svg width="106" height="17" viewBox="0 0 106 17" fill="none" xmlns="http://www.w3.org/2000/svg">
<path fill-rule="evenodd" clip-rule="evenodd" d="M16.1032 0.0953402C15.998 0.0733382 15.8928 0.0366707 15.7875 0H15.1786C14.5832 0.148772 14.114 0.502846 13.6355 0.863903L13.5849 0.902068C12.7881 1.5108 11.6981 1.5108 10.9463 0.894735C10.4727 0.50604 9.99162 0.168679 9.39026 0H8.78884C8.14986 0.146677 7.65376 0.520709 7.15008 0.902068C6.34571 1.5108 5.24819 1.5108 4.48896 0.872735C4.01534 0.476705 3.52672 0.154013 2.92533 0H2.32395C2.18112 0.0513367 2.03078 0.102674 1.88043 0.154007C1.15125 0.418026 0.700199 0.931408 0.474679 1.64279C0.459644 1.68679 0.44273 1.73081 0.425816 1.77482C0.408902 1.81881 0.391988 1.86281 0.376953 1.90681V2.49354C0.5273 3.10226 0.873094 3.57896 1.30159 4.03366C1.97815 4.78905 1.98567 5.91114 1.31662 6.65184C0.895651 7.11388 0.549852 7.59796 0.384471 8.19932V8.78599C0.542335 9.38741 0.895651 9.86409 1.31662 10.3335C1.97063 11.0669 1.97815 12.189 1.32414 12.9223C0.903168 13.399 0.534817 13.8831 0.384471 14.5065V15.0932C0.444605 15.2325 0.497223 15.3792 0.54984 15.5259C0.820462 16.2372 1.33917 16.6846 2.06836 16.9047C2.11346 16.9193 2.15857 16.9358 2.20367 16.9523C2.24877 16.9688 2.29388 16.9853 2.33898 17H2.94037C3.55678 16.846 4.04543 16.5013 4.52652 16.0906C5.2933 15.4379 6.45097 15.4379 7.2102 16.098C7.69131 16.5086 8.18747 16.846 8.80388 17H9.4053C9.46703 16.9799 9.52869 16.9568 9.59113 16.9335C9.66559 16.9056 9.74105 16.8773 9.81877 16.8533C10.8186 16.516 11.4801 15.4966 11.3222 14.5284C11.1418 13.399 10.2924 12.6363 9.17227 12.5923C8.51825 12.5703 7.96949 12.783 7.49589 13.2084C6.85692 13.7878 6.12019 14.0591 5.2557 13.8171C3.57935 13.355 2.99299 11.3603 4.18073 10.1208C4.71446 9.5634 4.95503 8.93272 4.87231 8.18463C4.80855 7.62455 4.47078 7.2144 4.12996 6.80058C4.10934 6.77552 4.08856 6.75035 4.06797 6.72517C2.82009 5.20709 3.99279 3.44694 5.33839 3.12426C6.16534 2.92624 6.85692 3.17559 7.45828 3.74762C8.37543 4.61303 9.75859 4.67902 10.6006 3.81364C11.5478 2.84555 13.0286 2.81621 13.9834 3.82098C14.6148 4.48103 15.6673 4.59103 16.4941 4.19499C17.3586 3.77695 17.8247 2.92624 17.727 1.92147C17.6518 1.09275 16.9677 0.330025 16.1032 0.0953402ZM15.5169 14.0884C15.0734 14.0811 14.7351 14.3965 14.7351 14.8365C14.7351 15.2765 15.0658 15.6065 15.5018 15.5992C15.9303 15.5992 16.2911 15.2398 16.2836 14.8291C16.2761 14.4331 15.9303 14.0957 15.5169 14.0884ZM14.7351 8.66876C14.7426 8.2287 15.0658 7.92067 15.5244 7.92802C15.9454 7.9353 16.2836 8.27271 16.2836 8.67611C16.2836 9.08673 15.9153 9.44612 15.4943 9.44612C15.0658 9.43877 14.7351 9.09408 14.7351 8.66876ZM9.06695 9.49019C9.50293 9.49753 9.84122 9.16753 9.84122 8.73481C9.84875 8.29475 9.51797 7.97203 9.06695 7.97938C8.64596 7.98678 8.30766 8.30944 8.29262 8.71278C8.27763 9.12346 8.63844 9.48284 9.06695 9.49019Z" fill="#7D8A9E"/>
<path d="M26.3579 16.3473C28.3268 16.3473 29.7498 15.8129 30.8218 14.8013C31.777 13.9042 32.4008 12.6636 32.4983 11.3085H29.048C28.8921 12.6254 27.8784 13.5798 26.3384 13.5798C24.2721 13.5798 22.9855 11.7666 22.9855 9.26622C22.9855 6.78501 24.0576 4.93362 26.3189 4.93362C27.8004 4.93362 28.7751 5.86886 28.9505 7.09037H32.4008C32.2254 5.56347 31.5236 4.22743 30.315 3.33037C29.3209 2.586 27.9564 2.12793 26.3384 2.12793C22.1862 2.12793 19.4766 5.20083 19.4766 9.26622C19.4766 13.3507 22.2642 16.3473 26.3579 16.3473ZM38.5983 14.1333C37.2143 14.1333 36.493 12.9499 36.493 11.1749C36.493 9.39986 37.2143 8.19737 38.5983 8.19737C39.9824 8.19737 40.7231 9.39986 40.7231 11.1749C40.7231 12.9499 39.9824 14.1333 38.5983 14.1333ZM38.6178 16.3473C41.8343 16.3473 43.9396 14.1141 43.9396 11.1749C43.9396 8.23557 41.8343 6.00244 38.6178 6.00244C35.4209 6.00244 33.2765 8.23557 33.2765 11.1749C33.2765 14.1141 35.4209 16.3473 38.6178 16.3473ZM64.3764 13.1969V5.21879H66.4426C68.6065 5.21879 69.8344 6.82203 69.8344 9.3033C69.8344 11.8036 68.6645 13.1969 66.4035 13.1969H64.3764ZM60.926 16.0408H66.657C68.4116 16.0408 69.8149 15.6018 70.9066 14.8002C72.4663 13.6359 73.324 11.7082 73.324 9.3033C73.324 5.12336 70.7313 2.39401 66.8715 2.39401H60.926V16.0408ZM79.3489 16.3271C80.616 16.3271 81.6301 16.0026 82.4683 15.43C83.3456 14.8383 83.9302 13.9985 84.1447 13.1206H81.0448C80.7724 13.7313 80.2262 14.0939 79.388 14.0939C78.0819 14.0939 77.3414 13.2732 77.1465 11.9563H84.32C84.3395 9.97131 83.7549 8.2726 82.5654 7.2038C81.7077 6.44031 80.5775 5.98224 79.154 5.98224C76.1135 5.98224 74.0272 8.21537 74.0272 11.1356C74.0272 14.0939 76.0548 16.3271 79.3489 16.3271ZM77.1661 10.1049C77.3805 8.94066 78.0043 8.19624 79.2127 8.19624C80.2458 8.19624 80.9868 8.94066 81.1035 10.1049H77.1661ZM89.6335 16.3462C92.2458 16.3462 94.1757 15.2392 94.1757 13.1014C94.1757 10.6012 92.1089 10.1622 90.355 9.87588C89.0879 9.64681 87.9571 9.55138 87.9571 8.8643C87.9571 8.25352 88.5613 7.96724 89.3408 7.96724C90.2181 7.96724 90.8223 8.23445 90.9396 9.11244H93.8635C93.7077 7.18467 92.1871 5.98224 89.3604 5.98224C87.0016 5.98224 85.0522 7.05109 85.0522 9.11244C85.0522 11.4028 86.9045 11.8609 88.6395 12.1472C89.9646 12.3762 91.1736 12.4716 91.1736 13.3496C91.1736 13.9794 90.5694 14.323 89.6139 14.323C88.5613 14.323 87.8984 13.8458 87.7817 12.8724H84.7797C84.8768 15.0292 86.7096 16.3462 89.6335 16.3462ZM95.207 16.0408H98.3453V13.0442L99.3008 12.0517L101.698 16.0408H105.383L101.464 9.93316L104.973 6.26853H101.308L98.3453 9.57052V2.39401H95.207V16.0408Z" fill="#7D8A9E"/>
<path d="M53.0779 16.0407H49.9004V6.26847H52.9609V7.60453H53.0194C53.7601 6.55475 54.7153 5.98218 56.0994 5.98218C58.2827 5.98218 59.5695 7.5091 59.5695 9.68496V16.0407H56.3918V10.3148C56.3918 9.28411 55.8655 8.57796 54.8323 8.57796C53.7796 8.57796 53.0779 9.43682 53.0779 10.6392V16.0407Z" fill="#7D8A9E"/>
<path d="M44.6323 8.27663L44.6324 6.29004H48.5534V16.065H45.5301V8.27663H44.6323Z" fill="#7D8A9E"/>
<path d="M46.8168 5.44028C47.7758 5.44028 48.5531 4.67917 48.5531 3.74028C48.5531 2.8014 47.7758 2.04028 46.8168 2.04028C45.8579 2.04028 45.0806 2.8014 45.0806 3.74028C45.0806 4.67917 45.8579 5.44028 46.8168 5.44028Z" fill="#7D8A9E"/>
</svg>
