<svg width="64" height="18" viewBox="0 0 64 18" fill="none" xmlns="http://www.w3.org/2000/svg">
<g clip-path="url(#clip0_12875_168555)">
<path d="M36.3612 6.29374C36.3612 4.44736 36.393 2.72831 36.4885 1.1366L31.6179 2.05979V2.50547L32.0954 2.56914C32.4455 2.60097 32.6684 2.72831 32.7957 2.91931C32.9231 3.14215 33.0186 3.46049 33.0822 3.93801C33.1459 4.8612 33.2096 6.96226 33.1777 10.273C33.1777 13.5519 33.1459 15.6212 33.0822 16.417C34.8331 16.799 36.202 16.9582 37.2207 16.9582C39.1307 16.9582 40.6269 16.417 41.7093 15.3028C42.7917 14.2205 43.3647 12.6924 43.3647 10.8142C43.3647 9.31799 42.9508 8.07646 42.1231 7.0896C41.2955 6.10273 40.2449 5.62522 39.0034 5.62522C38.1757 5.62522 37.3162 5.84806 36.3612 6.29374ZM36.4567 16.0987C36.393 15.08 36.3293 12.0239 36.3293 7.02593C36.6158 6.93042 36.9978 6.86676 37.4754 6.86676C38.2394 6.86676 38.8442 7.24877 39.2899 8.04462C39.7356 8.84048 39.9584 9.7955 39.9584 11.0052C39.9584 12.5014 39.7037 13.7111 39.1944 14.7298C38.6851 15.7167 38.0484 16.226 37.2525 16.226C36.9978 16.1623 36.7432 16.1305 36.4567 16.0987ZM13.345 1.45494H0.611328V2.09162L1.27985 2.15529C1.78919 2.25079 2.13937 2.4418 2.36221 2.72831C2.58505 3.04665 2.71239 3.556 2.74422 4.25635C2.99889 7.69445 2.99889 10.9097 2.74422 13.8703C2.68055 14.5706 2.55322 15.08 2.36221 15.3983C2.13937 15.7167 1.78919 15.9077 1.27985 15.9713L0.611328 16.0668V16.7035H8.82456V16.0668L7.96503 16.0032C7.75529 15.9856 7.55128 15.9258 7.36526 15.8273C7.17925 15.7289 7.01509 15.5938 6.88267 15.4302C6.65983 15.1118 6.53249 14.6025 6.50066 13.9021C6.40516 12.6287 6.34149 11.1644 6.34149 9.54083L8.06053 9.57266C8.98373 9.6045 9.62041 10.3049 9.93875 11.7056H10.5754V6.51658H9.93875C9.62041 7.88545 9.01556 8.5858 8.06053 8.61764L6.34149 8.64947C6.34149 5.78439 6.40516 3.747 6.50066 2.50547H9.01556C10.7983 2.50547 12.008 3.6515 12.7083 5.94356L13.4724 5.72072L13.345 1.45494ZM11.8488 11.2599C11.8488 12.9153 12.3263 14.2841 13.2495 15.3665C14.1727 16.4489 15.5416 16.9582 17.2606 16.9582C18.9797 16.9582 20.3804 16.417 21.3991 15.3028C22.4178 14.2205 22.8953 12.8516 22.8953 11.1962C22.8953 9.54083 22.4178 8.17196 21.4946 7.0896C20.5714 6.00723 19.2025 5.49788 17.4835 5.49788C15.7644 5.49788 14.3637 6.03907 13.345 7.15326C12.3263 8.23563 11.8488 9.6045 11.8488 11.2599ZM18.9478 7.63078C19.3298 8.55397 19.489 9.76367 19.489 11.228C19.489 14.6025 18.7887 16.2578 17.4198 16.2578C16.7194 16.2578 16.1783 15.7803 15.7963 14.8253C15.4142 13.8703 15.2551 12.6606 15.2551 11.228C15.2551 7.88545 15.9554 6.23007 17.3243 6.23007C18.0246 6.19824 18.5658 6.67575 18.9478 7.63078ZM45.8478 15.3665C46.8983 16.417 48.2353 16.9582 49.827 16.9582C50.8139 16.9582 51.6734 16.7672 52.4374 16.3534C53.2015 15.9713 53.8063 15.4938 54.2201 14.9208L53.9018 14.5388C53.2015 15.08 52.4056 15.3347 51.4824 15.3347C50.209 15.3347 49.2222 14.9208 48.5537 14.0613C47.8533 13.2018 47.535 12.1194 47.5986 10.7187H54.4112C54.4112 9.19065 54.0291 7.94912 53.2333 6.96226C52.4374 6.00723 51.3232 5.52972 49.8907 5.52972C48.108 5.52972 46.7391 6.10273 45.7523 7.21693C44.7654 8.33113 44.2879 9.7 44.2879 11.3235C44.2879 12.9789 44.7972 14.316 45.8478 15.3665ZM48.2035 7.3761C48.5537 6.61208 48.9993 6.23007 49.6042 6.23007C50.5592 6.23007 51.0367 7.43977 51.0367 9.89101L47.6623 9.95467C47.6941 8.99965 47.8533 8.14012 48.2035 7.3761ZM62.9746 6.10273C62.115 5.72072 61.0327 5.49788 59.7275 5.49788C58.3904 5.49788 57.3399 5.84806 56.544 6.51658C55.7482 7.1851 55.3343 8.01279 55.3343 8.99965C55.3343 9.85917 55.589 10.5277 56.0665 11.0052C56.544 11.4827 57.3081 11.8966 58.2949 12.2467C59.1863 12.5651 59.823 12.8834 60.1413 13.1699C60.4597 13.4883 60.6507 13.8384 60.6507 14.316C60.6507 14.7616 60.4915 15.1755 60.1413 15.4938C59.823 15.844 59.3773 16.0032 58.8043 16.0032C57.4036 16.0032 56.353 14.9845 55.6209 12.9471L55.0797 13.1063L55.207 16.2897C56.353 16.7354 57.6264 16.9582 59.0271 16.9582C60.4915 16.9582 61.6057 16.6399 62.4334 15.9713C63.2611 15.3347 63.6749 14.4115 63.6749 13.2654C63.6749 12.5014 63.4839 11.8647 63.0701 11.3872C62.6562 10.9097 61.9877 10.4959 61.0327 10.1138C59.9821 9.73184 59.25 9.38166 58.8679 9.06332C58.4859 8.74497 58.2949 8.36296 58.2949 7.88545C58.2949 7.40794 58.4223 7.02593 58.7088 6.70758C58.9953 6.38924 59.3455 6.26191 59.7911 6.26191C61.0645 6.26191 61.9877 7.1851 62.5607 8.99965L63.1019 8.84048L62.9746 6.10273ZM32.35 5.81623C31.9044 5.59339 31.4269 5.49788 30.8857 5.49788C30.3445 5.49788 29.8033 5.72072 29.1985 6.1664C28.5936 6.61208 28.1479 7.21693 27.7978 8.04462L27.8296 5.49788L22.9908 6.45291V6.89859L23.4683 6.93042C24.0731 6.99409 24.4233 7.47161 24.487 8.33113C24.678 10.3049 24.678 12.4059 24.487 14.6343C24.4233 15.4938 24.0731 15.9395 23.4683 16.035L22.9908 16.0987V16.7035H29.7396V16.0987L28.8801 16.035C28.2753 15.9713 27.9251 15.4938 27.8614 14.6343C27.6704 12.7879 27.6386 10.8142 27.7978 8.77681C27.9888 8.45847 28.4026 8.26746 29.0393 8.20379C29.676 8.14012 30.4082 8.33113 31.1722 8.77681L32.35 5.81623Z" fill="#7D8A9E"/>
</g>
<defs>
<clipPath id="clip0_12875_168555">
<rect width="63.6684" height="17.1905" fill="white" transform="translate(0.293945 0.5)"/>
</clipPath>
</defs>
</svg>
