<svg width="367" height="365" viewBox="0 0 367 365" fill="none" xmlns="http://www.w3.org/2000/svg">
<g filter="url(#filter0_b_955_469)">
<path d="M182.653 91.7798C186.987 89.2861 192.327 89.2861 196.661 91.7798L262.593 129.714C266.927 132.208 269.597 136.816 269.597 141.803V217.672C269.597 222.659 266.927 227.267 262.593 229.761L196.661 267.695C192.327 270.189 186.987 270.189 182.653 267.695L116.721 229.761C112.386 227.267 109.717 222.659 109.717 217.672V141.803C109.717 136.816 112.386 132.208 116.721 129.714L182.653 91.7798Z" stroke="black" stroke-width="0.113003"/>
</g>
<path d="M181.809 173.522H197.63V176.978H181.809V173.522Z" fill="black" fill-opacity="0.3"/>
<path d="M181.809 177.977H197.63V181.433H181.809V177.977Z" fill="black" fill-opacity="0.3"/>
<path d="M181.809 182.431H188.875V185.887H181.809V182.431Z" fill="black" fill-opacity="0.3"/>
<path d="M190.564 182.431H197.63V185.887H190.564V182.431Z" fill="black" fill-opacity="0.3"/>
<path d="M317.639 111.932V100.243H322.114C322.958 100.243 323.66 100.376 324.22 100.643C324.783 100.905 325.203 101.265 325.481 101.721C325.762 102.178 325.903 102.695 325.903 103.274C325.903 103.749 325.812 104.156 325.629 104.495C325.447 104.83 325.201 105.102 324.893 105.311C324.585 105.521 324.241 105.671 323.86 105.762V105.876C324.275 105.899 324.672 106.027 325.053 106.259C325.437 106.487 325.751 106.81 325.995 107.229C326.238 107.647 326.36 108.153 326.36 108.747C326.36 109.352 326.213 109.896 325.92 110.379C325.627 110.859 325.186 111.237 324.596 111.515C324.007 111.793 323.265 111.932 322.37 111.932H317.639ZM319.757 110.162H322.034C322.802 110.162 323.356 110.016 323.695 109.723C324.037 109.426 324.208 109.046 324.208 108.581C324.208 108.235 324.123 107.923 323.951 107.646C323.78 107.364 323.537 107.143 323.221 106.983C322.905 106.82 322.528 106.738 322.091 106.738H319.757V110.162ZM319.757 105.214H321.851C322.216 105.214 322.545 105.148 322.838 105.014C323.131 104.878 323.362 104.685 323.529 104.438C323.7 104.187 323.786 103.89 323.786 103.548C323.786 103.095 323.626 102.722 323.306 102.429C322.991 102.136 322.521 101.99 321.897 101.99H319.757V105.214ZM333.698 108.245V103.165H335.764V111.932H333.761V110.374H333.669C333.471 110.864 333.146 111.266 332.693 111.578C332.244 111.89 331.691 112.046 331.033 112.046C330.458 112.046 329.95 111.918 329.509 111.663C329.071 111.405 328.729 111.03 328.481 110.539C328.234 110.044 328.11 109.447 328.11 108.747V103.165H330.176V108.427C330.176 108.983 330.329 109.424 330.633 109.751C330.937 110.079 331.337 110.242 331.832 110.242C332.136 110.242 332.431 110.168 332.716 110.02C333.002 109.871 333.236 109.651 333.418 109.358C333.605 109.061 333.698 108.69 333.698 108.245ZM337.888 111.932V103.165H339.954V111.932H337.888ZM338.927 101.921C338.6 101.921 338.318 101.813 338.082 101.596C337.847 101.375 337.729 101.111 337.729 100.803C337.729 100.491 337.847 100.226 338.082 100.009C338.318 99.7886 338.6 99.6782 338.927 99.6782C339.258 99.6782 339.54 99.7886 339.772 100.009C340.008 100.226 340.126 100.491 340.126 100.803C340.126 101.111 340.008 101.375 339.772 101.596C339.54 101.813 339.258 101.921 338.927 101.921ZM344.145 100.243V111.932H342.079V100.243H344.145ZM349.523 112.086C348.834 112.086 348.218 111.909 347.673 111.555C347.129 111.201 346.699 110.687 346.384 110.014C346.068 109.341 345.91 108.523 345.91 107.56C345.91 106.586 346.07 105.764 346.389 105.094C346.713 104.421 347.148 103.913 347.696 103.571C348.244 103.224 348.855 103.051 349.528 103.051C350.042 103.051 350.464 103.139 350.795 103.314C351.126 103.485 351.389 103.692 351.583 103.936C351.777 104.176 351.927 104.402 352.034 104.615H352.119V100.243H354.191V111.932H352.159V110.55H352.034C351.927 110.764 351.773 110.99 351.571 111.23C351.37 111.466 351.103 111.667 350.772 111.835C350.441 112.002 350.025 112.086 349.523 112.086ZM350.099 110.391C350.537 110.391 350.909 110.273 351.218 110.037C351.526 109.797 351.76 109.464 351.92 109.038C352.079 108.612 352.159 108.115 352.159 107.548C352.159 106.982 352.079 106.489 351.92 106.07C351.764 105.652 351.532 105.326 351.223 105.094C350.919 104.862 350.544 104.746 350.099 104.746C349.639 104.746 349.254 104.866 348.946 105.106C348.638 105.346 348.406 105.677 348.25 106.099C348.094 106.521 348.016 107.004 348.016 107.548C348.016 108.096 348.094 108.585 348.25 109.015C348.41 109.441 348.644 109.778 348.952 110.025C349.264 110.269 349.646 110.391 350.099 110.391Z" fill="black"/>
<path d="M336.097 127.013C335.999 126.915 335.84 126.915 335.742 127.013L334.144 128.612C334.046 128.71 334.046 128.869 334.144 128.967C334.242 129.065 334.401 129.065 334.499 128.967L335.919 127.546L337.34 128.967C337.438 129.065 337.597 129.065 337.695 128.967C337.793 128.868 337.793 128.709 337.695 128.611L336.097 127.013ZM335.921 143.313L335.67 143.313L335.921 143.313ZM332.154 147.08L332.154 146.829L332.154 146.829L332.154 147.08ZM284.464 146.901C284.366 146.999 284.366 147.158 284.464 147.256L286.062 148.854C286.161 148.952 286.32 148.952 286.418 148.854C286.516 148.756 286.516 148.597 286.418 148.499L284.997 147.079L286.418 145.658C286.516 145.56 286.516 145.401 286.418 145.303C286.32 145.205 286.161 145.205 286.063 145.303L284.464 146.901ZM335.668 127.191L335.67 143.313L336.172 143.313L336.17 127.191L335.668 127.191ZM332.154 146.829L284.642 146.827L284.642 147.33L332.154 147.331L332.154 146.829ZM335.67 143.313C335.67 145.255 334.096 146.829 332.154 146.829L332.154 147.331C334.373 147.331 336.172 145.532 336.172 143.313L335.67 143.313Z" fill="#7E22CE"/>
<path d="M315.199 249.978C315.199 251.237 314.963 252.316 314.491 253.214C314.023 254.108 313.384 254.793 312.574 255.269C311.767 255.744 310.852 255.982 309.829 255.982C308.805 255.982 307.888 255.744 307.078 255.269C306.271 254.789 305.632 254.102 305.16 253.208C304.692 252.31 304.458 251.234 304.458 249.978C304.458 248.719 304.692 247.642 305.16 246.748C305.632 245.85 306.271 245.163 307.078 244.687C307.888 244.212 308.805 243.974 309.829 243.974C310.852 243.974 311.767 244.212 312.574 244.687C313.384 245.163 314.023 245.85 314.491 246.748C314.963 247.642 315.199 248.719 315.199 249.978ZM313.07 249.978C313.07 249.092 312.931 248.344 312.654 247.735C312.38 247.123 311.999 246.66 311.512 246.348C311.025 246.032 310.464 245.875 309.829 245.875C309.193 245.875 308.632 246.032 308.145 246.348C307.658 246.66 307.275 247.123 306.998 247.735C306.724 248.344 306.587 249.092 306.587 249.978C306.587 250.865 306.724 251.614 306.998 252.227C307.275 252.835 307.658 253.298 308.145 253.614C308.632 253.926 309.193 254.082 309.829 254.082C310.464 254.082 311.025 253.926 311.512 253.614C311.999 253.298 312.38 252.835 312.654 252.227C312.931 251.614 313.07 250.865 313.07 249.978ZM317.11 259.11V247.056H319.141V248.506H319.261C319.368 248.293 319.518 248.066 319.712 247.826C319.906 247.583 320.169 247.376 320.5 247.204C320.831 247.029 321.253 246.942 321.767 246.942C322.444 246.942 323.055 247.115 323.599 247.461C324.147 247.804 324.58 248.312 324.9 248.985C325.223 249.655 325.385 250.476 325.385 251.451C325.385 252.413 325.227 253.231 324.911 253.905C324.596 254.578 324.166 255.092 323.621 255.446C323.077 255.799 322.461 255.976 321.772 255.976C321.27 255.976 320.853 255.893 320.522 255.725C320.191 255.558 319.925 255.356 319.723 255.12C319.526 254.881 319.371 254.654 319.261 254.441H319.176V259.11H317.11ZM319.136 251.439C319.136 252.006 319.215 252.503 319.375 252.929C319.539 253.355 319.773 253.688 320.077 253.927C320.385 254.163 320.758 254.281 321.196 254.281C321.652 254.281 322.035 254.16 322.343 253.916C322.651 253.669 322.883 253.332 323.039 252.906C323.199 252.476 323.279 251.987 323.279 251.439C323.279 250.895 323.201 250.412 323.045 249.989C322.889 249.567 322.657 249.236 322.349 248.996C322.041 248.757 321.656 248.637 321.196 248.637C320.755 248.637 320.38 248.753 320.072 248.985C319.763 249.217 319.529 249.542 319.37 249.961C319.214 250.379 319.136 250.872 319.136 251.439ZM331.035 255.993C330.156 255.993 329.397 255.811 328.758 255.446C328.123 255.077 327.634 254.555 327.291 253.882C326.949 253.205 326.778 252.407 326.778 251.49C326.778 250.589 326.949 249.797 327.291 249.116C327.637 248.431 328.121 247.899 328.741 247.518C329.361 247.134 330.09 246.942 330.927 246.942C331.467 246.942 331.977 247.029 332.456 247.204C332.939 247.376 333.366 247.642 333.735 248.003C334.108 248.365 334.401 248.825 334.614 249.385C334.827 249.94 334.933 250.602 334.933 251.371V252.004H327.748V250.612H332.953C332.949 250.216 332.863 249.864 332.696 249.556C332.529 249.244 332.295 248.998 331.994 248.819C331.697 248.641 331.351 248.551 330.955 248.551C330.533 248.551 330.162 248.654 329.842 248.859C329.523 249.061 329.274 249.327 329.095 249.658C328.92 249.986 328.83 250.345 328.826 250.737V251.953C328.826 252.463 328.92 252.9 329.106 253.265C329.293 253.627 329.553 253.905 329.888 254.099C330.223 254.289 330.615 254.384 331.064 254.384C331.364 254.384 331.636 254.342 331.88 254.258C332.123 254.171 332.335 254.044 332.513 253.876C332.692 253.709 332.827 253.501 332.919 253.254L334.848 253.471C334.726 253.981 334.494 254.426 334.151 254.806C333.813 255.183 333.379 255.476 332.85 255.685C332.321 255.891 331.716 255.993 331.035 255.993ZM336.681 255.822V247.056H338.684V248.517H338.776C338.935 248.011 339.209 247.621 339.597 247.347C339.989 247.069 340.436 246.93 340.939 246.93C341.053 246.93 341.18 246.936 341.321 246.948C341.466 246.955 341.585 246.968 341.681 246.987V248.888C341.593 248.858 341.454 248.831 341.264 248.808C341.078 248.781 340.897 248.768 340.722 248.768C340.345 248.768 340.006 248.85 339.706 249.014C339.409 249.173 339.175 249.396 339.004 249.681C338.833 249.967 338.747 250.296 338.747 250.669V255.822H336.681ZM345.419 255.999C344.863 255.999 344.363 255.9 343.918 255.702C343.476 255.501 343.126 255.204 342.868 254.812C342.613 254.42 342.485 253.937 342.485 253.362C342.485 252.868 342.577 252.459 342.759 252.135C342.942 251.812 343.191 251.553 343.507 251.359C343.823 251.165 344.178 251.019 344.574 250.92C344.974 250.817 345.386 250.743 345.813 250.697C346.326 250.644 346.743 250.596 347.062 250.554C347.382 250.509 347.614 250.44 347.759 250.349C347.907 250.254 347.981 250.107 347.981 249.91V249.875C347.981 249.445 347.854 249.112 347.599 248.877C347.344 248.641 346.977 248.523 346.497 248.523C345.991 248.523 345.59 248.633 345.293 248.854C345 249.074 344.802 249.335 344.7 249.636L342.771 249.362C342.923 248.829 343.174 248.384 343.524 248.026C343.874 247.665 344.302 247.395 344.808 247.216C345.314 247.033 345.873 246.942 346.486 246.942C346.908 246.942 347.329 246.991 347.747 247.09C348.166 247.189 348.548 247.353 348.895 247.581C349.241 247.806 349.518 248.112 349.728 248.5C349.941 248.888 350.047 249.373 350.047 249.955V255.822H348.061V254.618H347.993C347.867 254.862 347.69 255.09 347.462 255.303C347.238 255.512 346.954 255.681 346.612 255.811C346.273 255.936 345.875 255.999 345.419 255.999ZM345.955 254.481C346.37 254.481 346.73 254.399 347.034 254.236C347.338 254.068 347.572 253.848 347.736 253.574C347.903 253.3 347.987 253.001 347.987 252.678V251.645C347.922 251.698 347.812 251.747 347.656 251.793C347.504 251.839 347.333 251.879 347.142 251.913C346.952 251.947 346.764 251.977 346.577 252.004C346.391 252.031 346.229 252.054 346.092 252.073C345.784 252.114 345.508 252.183 345.265 252.278C345.021 252.373 344.829 252.506 344.688 252.678C344.547 252.845 344.477 253.062 344.477 253.328C344.477 253.709 344.616 253.996 344.894 254.19C345.171 254.384 345.525 254.481 345.955 254.481ZM356.502 247.056V248.654H351.463V247.056H356.502ZM352.707 244.956H354.773V253.186C354.773 253.463 354.815 253.676 354.899 253.825C354.986 253.969 355.1 254.068 355.241 254.122C355.382 254.175 355.538 254.201 355.709 254.201C355.838 254.201 355.956 254.192 356.063 254.173C356.173 254.154 356.257 254.137 356.314 254.122L356.662 255.737C356.552 255.775 356.394 255.817 356.188 255.862C355.987 255.908 355.739 255.935 355.446 255.942C354.929 255.957 354.463 255.879 354.048 255.708C353.633 255.533 353.304 255.263 353.061 254.898C352.821 254.532 352.703 254.076 352.707 253.528V244.956ZM362.017 255.993C361.138 255.993 360.379 255.811 359.74 255.446C359.104 255.077 358.615 254.555 358.273 253.882C357.93 253.205 357.759 252.407 357.759 251.49C357.759 250.589 357.93 249.797 358.273 249.116C358.619 248.431 359.102 247.899 359.723 247.518C360.343 247.134 361.071 246.942 361.908 246.942C362.449 246.942 362.959 247.029 363.438 247.204C363.921 247.376 364.347 247.642 364.716 248.003C365.089 248.365 365.382 248.825 365.595 249.385C365.808 249.94 365.915 250.602 365.915 251.371V252.004H358.729V250.612H363.934C363.931 250.216 363.845 249.864 363.678 249.556C363.51 249.244 363.276 248.998 362.976 248.819C362.679 248.641 362.333 248.551 361.937 248.551C361.515 248.551 361.144 248.654 360.824 248.859C360.504 249.061 360.255 249.327 360.076 249.658C359.901 249.986 359.812 250.345 359.808 250.737V251.953C359.808 252.463 359.901 252.9 360.088 253.265C360.274 253.627 360.535 253.905 360.87 254.099C361.205 254.289 361.596 254.384 362.045 254.384C362.346 254.384 362.618 254.342 362.862 254.258C363.105 254.171 363.316 254.044 363.495 253.876C363.674 253.709 363.809 253.501 363.9 253.254L365.829 253.471C365.708 253.981 365.475 254.426 365.133 254.806C364.794 255.183 364.361 255.476 363.832 255.685C363.303 255.891 362.698 255.993 362.017 255.993Z" fill="black"/>
<path d="M285.971 211.29C285.873 211.389 285.873 211.548 285.971 211.646L287.57 213.244C287.668 213.342 287.827 213.342 287.925 213.244C288.023 213.146 288.023 212.987 287.925 212.888L286.504 211.468L287.925 210.047C288.023 209.949 288.023 209.79 287.925 209.692C287.826 209.594 287.667 209.594 287.569 209.692L285.971 211.29ZM331.15 211.466L331.15 211.215L331.15 211.215L331.15 211.466ZM334.917 215.233L334.665 215.233L334.917 215.233ZM334.737 231.533C334.836 231.631 334.995 231.631 335.093 231.533L336.691 229.935C336.789 229.837 336.789 229.678 336.691 229.58C336.593 229.482 336.434 229.482 336.336 229.58L334.915 231L333.495 229.58C333.397 229.482 333.238 229.482 333.14 229.58C333.041 229.678 333.041 229.837 333.14 229.935L334.737 231.533ZM286.149 211.719L331.15 211.717L331.15 211.215L286.149 211.217L286.149 211.719ZM334.665 215.233L334.664 231.356L335.166 231.356L335.168 215.233L334.665 215.233ZM331.15 211.717C333.092 211.717 334.666 213.291 334.665 215.233L335.168 215.233C335.168 213.014 333.369 211.215 331.15 211.215L331.15 211.717Z" fill="#7E22CE"/>
<path d="M43.0414 230.228C43.1394 230.326 43.2984 230.326 43.3965 230.228L44.9944 228.63C45.0925 228.532 45.0925 228.373 44.9944 228.275C44.8963 228.177 44.7373 228.177 44.6393 228.275L43.2189 229.696L41.7982 228.275C41.7001 228.177 41.5411 228.177 41.4431 228.275C41.345 228.373 41.345 228.532 41.4431 228.63L43.0414 230.228ZM43.2173 213.929L43.4684 213.929L43.2173 213.929ZM46.9842 210.161L46.9842 210.413L46.9842 210.161ZM94.6738 210.341C94.7718 210.243 94.7718 210.084 94.6738 209.986L93.0757 208.387C92.9777 208.289 92.8187 208.289 92.7206 208.387C92.6225 208.485 92.6225 208.644 92.7206 208.743L94.1411 210.163L92.7205 211.584C92.6224 211.682 92.6224 211.841 92.7205 211.939C92.8185 212.037 92.9775 212.037 93.0756 211.939L94.6738 210.341ZM43.47 230.051L43.4684 213.929L42.9662 213.929L42.9678 230.051L43.47 230.051ZM46.9842 210.413L94.4962 210.414L94.4962 209.912L46.9842 209.91L46.9842 210.413ZM43.4684 213.929C43.4682 211.987 45.0424 210.412 46.9842 210.413L46.9842 209.91C44.765 209.91 42.9659 211.709 42.9662 213.929L43.4684 213.929Z" fill="#7E22CE"/>
<path d="M160.652 15V3.3116H163.123V12.9625H168.134V15H160.652ZM172.225 15.1655C171.666 15.1655 171.167 15.0685 170.73 14.8744C170.292 14.6766 169.946 14.3855 169.691 14.0012C169.44 13.6131 169.314 13.1299 169.314 12.5516C169.314 12.0646 169.404 11.6556 169.583 11.3245C169.761 10.9935 170.005 10.7272 170.313 10.5255C170.621 10.3239 170.971 10.1717 171.363 10.069C171.759 9.96623 172.174 9.89393 172.607 9.85208C173.117 9.79881 173.528 9.74935 173.84 9.70369C174.152 9.65423 174.378 9.58194 174.519 9.48682C174.66 9.3917 174.73 9.25092 174.73 9.06448V9.03024C174.73 8.66878 174.616 8.38913 174.388 8.19128C174.164 7.99343 173.844 7.8945 173.429 7.8945C172.992 7.8945 172.643 7.99152 172.385 8.18557C172.126 8.37581 171.955 8.61551 171.871 8.90468L169.622 8.72205C169.737 8.18938 169.961 7.72899 170.296 7.3409C170.631 6.949 171.063 6.64842 171.591 6.43916C172.124 6.22609 172.741 6.11955 173.441 6.11955C173.928 6.11955 174.394 6.17663 174.839 6.29077C175.288 6.40492 175.685 6.58184 176.032 6.82154C176.382 7.06125 176.658 7.36944 176.859 7.74611C177.061 8.11899 177.162 8.56605 177.162 9.08731V15H174.856V13.7844H174.788C174.647 14.0583 174.458 14.2999 174.222 14.5092C173.987 14.7146 173.703 14.8763 173.372 14.9943C173.041 15.1084 172.659 15.1655 172.225 15.1655ZM172.921 13.4876C173.279 13.4876 173.595 13.4172 173.869 13.2764C174.143 13.1318 174.358 12.9378 174.514 12.6943C174.67 12.4508 174.748 12.1749 174.748 11.8667V10.9365C174.671 10.9859 174.567 11.0316 174.434 11.0734C174.304 11.1115 174.158 11.1476 173.994 11.1819C173.831 11.2123 173.667 11.2408 173.503 11.2675C173.34 11.2903 173.191 11.3112 173.058 11.3303C172.773 11.3721 172.524 11.4387 172.311 11.53C172.098 11.6213 171.932 11.745 171.814 11.901C171.696 12.0532 171.637 12.2434 171.637 12.4717C171.637 12.8027 171.757 13.0557 171.997 13.2308C172.24 13.402 172.548 13.4876 172.921 13.4876ZM184.67 11.2675V6.2337H187.101V15H184.767V13.4077H184.675C184.477 13.9213 184.148 14.3342 183.688 14.6462C183.231 14.9581 182.674 15.1141 182.016 15.1141C181.43 15.1141 180.914 14.981 180.469 14.7146C180.024 14.4483 179.676 14.0697 179.425 13.5789C179.177 13.0881 179.052 12.5002 179.048 11.8154V6.2337H181.479V11.3816C181.483 11.8991 181.622 12.3081 181.896 12.6087C182.17 12.9093 182.537 13.0595 182.997 13.0595C183.29 13.0595 183.564 12.993 183.819 12.8598C184.074 12.7228 184.28 12.5212 184.436 12.2548C184.595 11.9885 184.673 11.6594 184.67 11.2675ZM191.477 9.93198V15H189.046V6.2337H191.363V7.78036H191.465C191.66 7.27051 191.985 6.8672 192.441 6.57042C192.898 6.26984 193.452 6.11955 194.102 6.11955C194.711 6.11955 195.242 6.25272 195.695 6.51906C196.147 6.7854 196.499 7.16588 196.75 7.66051C197.001 8.15133 197.127 8.73727 197.127 9.41833V15H194.696V9.85208C194.7 9.3156 194.563 8.89707 194.285 8.59649C194.007 8.29211 193.625 8.13991 193.138 8.13991C192.81 8.13991 192.521 8.2103 192.27 8.35108C192.023 8.49186 191.829 8.69732 191.688 8.96746C191.551 9.2338 191.481 9.55531 191.477 9.93198ZM203.004 15.1712C202.106 15.1712 201.334 14.981 200.687 14.6005C200.044 14.2162 199.549 13.6835 199.203 13.0025C198.861 12.3214 198.689 11.5376 198.689 10.6511C198.689 9.75316 198.863 8.96556 199.209 8.2883C199.559 7.60724 200.055 7.07647 200.698 6.69598C201.341 6.3117 202.106 6.11955 202.993 6.11955C203.757 6.11955 204.427 6.25843 205.002 6.53618C205.576 6.81393 206.031 7.20393 206.366 7.70616C206.7 8.2084 206.885 8.79815 206.919 9.4754H204.625C204.56 9.03785 204.389 8.6859 204.111 8.41957C203.837 8.14942 203.478 8.01435 203.033 8.01435C202.656 8.01435 202.327 8.11708 202.045 8.32254C201.767 8.5242 201.551 8.81907 201.395 9.20716C201.239 9.59526 201.161 10.0652 201.161 10.6168C201.161 11.1762 201.237 11.6518 201.389 12.0437C201.545 12.4356 201.764 12.7342 202.045 12.9397C202.327 13.1452 202.656 13.2479 203.033 13.2479C203.31 13.2479 203.56 13.1908 203.78 13.0767C204.005 12.9625 204.189 12.797 204.334 12.5801C204.482 12.3595 204.579 12.095 204.625 11.7868H206.919C206.881 12.4565 206.699 13.0462 206.371 13.5561C206.048 14.0621 205.601 14.4578 205.03 14.7432C204.459 15.0285 203.784 15.1712 203.004 15.1712ZM210.907 9.93198V15H208.476V3.3116H210.839V7.78036H210.941C211.139 7.2629 211.459 6.85769 211.9 6.56472C212.342 6.26794 212.895 6.11955 213.561 6.11955C214.17 6.11955 214.701 6.25272 215.153 6.51906C215.61 6.78159 215.964 7.16017 216.215 7.6548C216.47 8.14562 216.595 8.73346 216.592 9.41833V15H214.16V9.85208C214.164 9.3118 214.027 8.89136 213.749 8.59078C213.475 8.2902 213.091 8.13991 212.596 8.13991C212.265 8.13991 211.972 8.2103 211.718 8.35108C211.466 8.49186 211.269 8.69732 211.124 8.96746C210.983 9.2338 210.911 9.55531 210.907 9.93198Z" fill="black"/>
<path d="M188.893 30.0822C188.795 29.9841 188.636 29.9841 188.538 30.0822L186.939 31.6803C186.841 31.7784 186.841 31.9374 186.939 32.0354C187.037 32.1335 187.196 32.1335 187.295 32.0354L188.715 30.6149L190.136 32.0354C190.234 32.1335 190.393 32.1335 190.491 32.0354C190.589 31.9374 190.589 31.7784 190.491 31.6803L188.893 30.0822ZM188.538 79.9076C188.636 80.0056 188.795 80.0056 188.893 79.9076L190.491 78.3095C190.589 78.2114 190.589 78.0524 190.491 77.9543C190.393 77.8563 190.234 77.8563 190.136 77.9543L188.715 79.3749L187.295 77.9543C187.196 77.8563 187.037 77.8563 186.939 77.9543C186.841 78.0524 186.841 78.2114 186.939 78.3095L188.538 79.9076ZM188.464 30.2598L188.464 79.73L188.966 79.73L188.966 30.2598L188.464 30.2598Z" fill="#7E22CE"/>
<path d="M170.024 360.539V348.85H174.499C175.344 348.85 176.046 348.983 176.605 349.25C177.168 349.512 177.588 349.872 177.866 350.328C178.148 350.785 178.288 351.302 178.288 351.881C178.288 352.356 178.197 352.763 178.015 353.102C177.832 353.437 177.587 353.709 177.278 353.918C176.97 354.127 176.626 354.278 176.245 354.369V354.483C176.66 354.506 177.058 354.633 177.438 354.866C177.822 355.094 178.136 355.417 178.38 355.836C178.623 356.254 178.745 356.76 178.745 357.354C178.745 357.959 178.599 358.503 178.306 358.986C178.013 359.466 177.571 359.844 176.982 360.122C176.392 360.4 175.65 360.539 174.756 360.539H170.024ZM172.142 358.769H174.419C175.188 358.769 175.741 358.623 176.08 358.33C176.422 358.033 176.593 357.653 176.593 357.188C176.593 356.842 176.508 356.53 176.337 356.252C176.165 355.971 175.922 355.75 175.606 355.59C175.29 355.427 174.914 355.345 174.476 355.345H172.142V358.769ZM172.142 353.821H174.236C174.602 353.821 174.931 353.755 175.224 353.621C175.517 353.484 175.747 353.292 175.914 353.045C176.086 352.794 176.171 352.497 176.171 352.155C176.171 351.702 176.011 351.329 175.692 351.036C175.376 350.743 174.906 350.597 174.282 350.597H172.142V353.821ZM184.32 360.71C183.464 360.71 182.722 360.521 182.094 360.145C181.466 359.768 180.979 359.241 180.633 358.564C180.29 357.887 180.119 357.095 180.119 356.19C180.119 355.284 180.29 354.491 180.633 353.81C180.979 353.129 181.466 352.6 182.094 352.223C182.722 351.846 183.464 351.658 184.32 351.658C185.176 351.658 185.918 351.846 186.545 352.223C187.173 352.6 187.658 353.129 188.001 353.81C188.347 354.491 188.52 355.284 188.52 356.19C188.52 357.095 188.347 357.887 188.001 358.564C187.658 359.241 187.173 359.768 186.545 360.145C185.918 360.521 185.176 360.71 184.32 360.71ZM184.331 359.055C184.795 359.055 185.183 358.927 185.495 358.672C185.807 358.414 186.039 358.067 186.192 357.634C186.348 357.2 186.426 356.717 186.426 356.184C186.426 355.647 186.348 355.162 186.192 354.729C186.039 354.291 185.807 353.943 185.495 353.684C185.183 353.425 184.795 353.296 184.331 353.296C183.855 353.296 183.46 353.425 183.144 353.684C182.832 353.943 182.598 354.291 182.442 354.729C182.29 355.162 182.214 355.647 182.214 356.184C182.214 356.717 182.29 357.2 182.442 357.634C182.598 358.067 182.832 358.414 183.144 358.672C183.46 358.927 183.855 359.055 184.331 359.055ZM192.34 355.402V360.539H190.274V351.772H192.248V353.262H192.351C192.553 352.771 192.874 352.381 193.316 352.092C193.761 351.803 194.311 351.658 194.965 351.658C195.57 351.658 196.097 351.787 196.546 352.046C196.999 352.305 197.349 352.68 197.596 353.171C197.847 353.661 197.971 354.257 197.967 354.957V360.539H195.901V355.277C195.901 354.691 195.749 354.232 195.444 353.901C195.144 353.57 194.727 353.405 194.195 353.405C193.833 353.405 193.512 353.484 193.23 353.644C192.952 353.8 192.733 354.027 192.574 354.323C192.418 354.62 192.34 354.98 192.34 355.402ZM203.32 360.693C202.632 360.693 202.015 360.516 201.471 360.162C200.927 359.808 200.497 359.294 200.181 358.621C199.866 357.947 199.708 357.129 199.708 356.167C199.708 355.193 199.868 354.371 200.187 353.701C200.511 353.028 200.946 352.52 201.494 352.177C202.042 351.831 202.653 351.658 203.326 351.658C203.84 351.658 204.262 351.746 204.593 351.921C204.924 352.092 205.187 352.299 205.381 352.543C205.575 352.782 205.725 353.009 205.832 353.222H205.917V348.85H207.989V360.539H205.957V359.157H205.832C205.725 359.37 205.571 359.597 205.369 359.837C205.168 360.072 204.901 360.274 204.57 360.442C204.239 360.609 203.823 360.693 203.32 360.693ZM203.897 358.998C204.334 358.998 204.707 358.88 205.015 358.644C205.324 358.404 205.558 358.071 205.717 357.645C205.877 357.219 205.957 356.722 205.957 356.155C205.957 355.589 205.877 355.096 205.717 354.677C205.561 354.259 205.329 353.933 205.021 353.701C204.717 353.469 204.342 353.353 203.897 353.353C203.436 353.353 203.052 353.473 202.744 353.713C202.436 353.952 202.204 354.283 202.048 354.706C201.892 355.128 201.814 355.611 201.814 356.155C201.814 356.703 201.892 357.192 202.048 357.622C202.207 358.048 202.441 358.385 202.75 358.632C203.062 358.876 203.444 358.998 203.897 358.998Z" fill="black"/>
<path d="M189.897 283.837C189.799 283.739 189.64 283.739 189.542 283.837L187.944 285.435C187.846 285.533 187.846 285.692 187.944 285.79C188.042 285.888 188.201 285.888 188.299 285.79L189.72 284.37L191.14 285.79C191.238 285.888 191.397 285.888 191.495 285.79C191.593 285.692 191.593 285.533 191.495 285.435L189.897 283.837ZM189.542 333.662C189.64 333.761 189.799 333.761 189.897 333.662L191.495 332.064C191.593 331.966 191.593 331.807 191.495 331.709C191.397 331.611 191.238 331.611 191.14 331.709L189.72 333.13L188.299 331.709C188.201 331.611 188.042 331.611 187.944 331.709C187.846 331.807 187.846 331.966 187.944 332.064L189.542 333.662ZM189.469 284.015L189.469 333.485L189.971 333.485L189.971 284.015L189.469 284.015Z" fill="#7E22CE"/>
<path d="M11.3465 104.187H9.21198C9.1511 103.837 9.03886 103.527 8.87525 103.257C8.71164 102.983 8.50809 102.751 8.26458 102.56C8.02107 102.37 7.74332 102.227 7.43132 102.132C7.12313 102.033 6.79021 101.984 6.43256 101.984C5.79715 101.984 5.23404 102.144 4.74322 102.463C4.2524 102.779 3.86811 103.243 3.59036 103.856C3.31261 104.465 3.17373 105.209 3.17373 106.087C3.17373 106.982 3.31261 107.735 3.59036 108.348C3.87191 108.956 4.2562 109.417 4.74322 109.729C5.23404 110.037 5.79525 110.191 6.42685 110.191C6.77689 110.191 7.10411 110.145 7.40849 110.054C7.71668 109.959 7.99253 109.82 8.23604 109.637C8.48335 109.455 8.69072 109.23 8.85813 108.964C9.02935 108.698 9.1473 108.393 9.21198 108.051L11.3465 108.062C11.2666 108.618 11.0935 109.139 10.8271 109.626C10.5646 110.113 10.2203 110.543 9.79411 110.916C9.36797 111.285 8.86954 111.574 8.29882 111.783C7.7281 111.989 7.0946 112.091 6.39831 112.091C5.37101 112.091 4.45405 111.854 3.64743 111.378C2.84081 110.902 2.2054 110.216 1.74122 109.318C1.27703 108.42 1.04493 107.343 1.04493 106.087C1.04493 104.828 1.27893 103.751 1.74692 102.857C2.21492 101.959 2.85222 101.272 3.65884 100.797C4.46547 100.321 5.37862 100.083 6.39831 100.083C7.04894 100.083 7.6539 100.175 8.21321 100.357C8.77252 100.54 9.27095 100.808 9.70851 101.162C10.1461 101.512 10.5056 101.942 10.7872 102.452C11.0725 102.958 11.259 103.536 11.3465 104.187ZM17.018 112.103C16.162 112.103 15.42 111.915 14.7922 111.538C14.1644 111.161 13.6774 110.634 13.3312 109.957C12.9887 109.28 12.8175 108.488 12.8175 107.583C12.8175 106.677 12.9887 105.884 13.3312 105.203C13.6774 104.522 14.1644 103.993 14.7922 103.616C15.42 103.24 16.162 103.051 17.018 103.051C17.8741 103.051 18.6161 103.24 19.2439 103.616C19.8717 103.993 20.3568 104.522 20.6992 105.203C21.0454 105.884 21.2186 106.677 21.2186 107.583C21.2186 108.488 21.0454 109.28 20.6992 109.957C20.3568 110.634 19.8717 111.161 19.2439 111.538C18.6161 111.915 17.8741 112.103 17.018 112.103ZM17.0295 110.448C17.4936 110.448 17.8817 110.32 18.1937 110.065C18.5057 109.807 18.7378 109.46 18.89 109.027C19.046 108.593 19.124 108.11 19.124 107.577C19.124 107.041 19.046 106.555 18.89 106.122C18.7378 105.684 18.5057 105.336 18.1937 105.077C17.8817 104.819 17.4936 104.689 17.0295 104.689C16.5538 104.689 16.1581 104.819 15.8423 105.077C15.5304 105.336 15.2964 105.684 15.1404 106.122C14.9882 106.555 14.9121 107.041 14.9121 107.577C14.9121 108.11 14.9882 108.593 15.1404 109.027C15.2964 109.46 15.5304 109.807 15.8423 110.065C16.1581 110.32 16.5538 110.448 17.0295 110.448ZM25.0381 106.795V111.932H22.9721V103.165H24.9468V104.655H25.0495C25.2512 104.164 25.5727 103.774 26.0141 103.485C26.4592 103.196 27.009 103.051 27.6634 103.051C28.2684 103.051 28.7954 103.181 29.2443 103.439C29.6971 103.698 30.0472 104.073 30.2945 104.564C30.5456 105.054 30.6692 105.65 30.6654 106.35V111.932H28.5994V106.67C28.5994 106.084 28.4472 105.625 28.1428 105.294C27.8423 104.963 27.4256 104.798 26.893 104.798C26.5315 104.798 26.21 104.878 25.9284 105.037C25.6507 105.193 25.4319 105.42 25.2721 105.716C25.1161 106.013 25.0381 106.373 25.0381 106.795ZM37.1431 103.165V104.763H32.1037V103.165H37.1431ZM33.3478 101.065H35.4139V109.295C35.4139 109.573 35.4557 109.786 35.5394 109.934C35.6269 110.079 35.7411 110.178 35.8818 110.231C36.0226 110.284 36.1786 110.311 36.3498 110.311C36.4792 110.311 36.5972 110.301 36.7037 110.282C36.814 110.263 36.8977 110.246 36.9548 110.231L37.3029 111.846C37.1926 111.884 37.0347 111.926 36.8292 111.972C36.6276 112.017 36.3803 112.044 36.0873 112.051C35.5699 112.067 35.1038 111.989 34.689 111.817C34.2743 111.642 33.9452 111.372 33.7017 111.007C33.462 110.642 33.344 110.185 33.3478 109.637V101.065ZM38.871 111.932V103.165H40.8742V104.626H40.9656C41.1254 104.12 41.3993 103.73 41.7874 103.456C42.1793 103.179 42.6264 103.04 43.1286 103.04C43.2427 103.04 43.3702 103.045 43.511 103.057C43.6556 103.065 43.7754 103.078 43.8705 103.097V104.997C43.783 104.967 43.6442 104.94 43.4539 104.917C43.2675 104.891 43.0868 104.878 42.9117 104.878C42.5351 104.878 42.1964 104.959 41.8958 105.123C41.5991 105.283 41.3651 105.505 41.1939 105.791C41.0226 106.076 40.937 106.405 40.937 106.778V111.932H38.871ZM45.2431 111.932V103.165H47.3091V111.932H45.2431ZM46.2818 101.921C45.9546 101.921 45.6731 101.813 45.4372 101.596C45.2013 101.375 45.0833 101.111 45.0833 100.803C45.0833 100.491 45.2013 100.226 45.4372 100.009C45.6731 99.7886 45.9546 99.6782 46.2818 99.6782C46.6129 99.6782 46.8944 99.7886 47.1265 100.009C47.3624 100.226 47.4804 100.491 47.4804 100.803C47.4804 101.111 47.3624 101.375 47.1265 101.596C46.8944 101.813 46.6129 101.921 46.2818 101.921ZM49.525 111.932V100.243H51.591V104.615H51.6766C51.7831 104.402 51.9334 104.176 52.1275 103.936C52.3215 103.692 52.584 103.485 52.9151 103.314C53.2461 103.139 53.6684 103.051 54.1821 103.051C54.8593 103.051 55.47 103.224 56.0141 103.571C56.562 103.913 56.9957 104.421 57.3153 105.094C57.6388 105.764 57.8005 106.586 57.8005 107.56C57.8005 108.523 57.6426 109.341 57.3268 110.014C57.011 110.687 56.581 111.201 56.0369 111.555C55.4928 111.909 54.8765 112.086 54.1878 112.086C53.6855 112.086 53.2689 112.002 52.9379 111.835C52.6069 111.667 52.3405 111.466 52.1389 111.23C51.941 110.99 51.7869 110.764 51.6766 110.55H51.5567V111.932H49.525ZM51.551 107.548C51.551 108.115 51.6309 108.612 51.7907 109.038C51.9544 109.464 52.1883 109.797 52.4927 110.037C52.8009 110.273 53.1738 110.391 53.6114 110.391C54.0679 110.391 54.4503 110.269 54.7585 110.025C55.0667 109.778 55.2988 109.441 55.4548 109.015C55.6146 108.585 55.6945 108.096 55.6945 107.548C55.6945 107.004 55.6165 106.521 55.4605 106.099C55.3045 105.677 55.0724 105.346 54.7642 105.106C54.456 104.866 54.0717 104.746 53.6114 104.746C53.17 104.746 52.7952 104.862 52.487 105.094C52.1788 105.326 51.9448 105.652 51.785 106.07C51.629 106.489 51.551 106.982 51.551 107.548ZM65.1442 108.245V103.165H67.2102V111.932H65.207V110.374H65.1157C64.9178 110.864 64.5925 111.266 64.1398 111.578C63.6908 111.89 63.1372 112.046 62.479 112.046C61.9044 112.046 61.3965 111.918 60.9551 111.663C60.5176 111.405 60.1751 111.03 59.9278 110.539C59.6805 110.044 59.5569 109.447 59.5569 108.747V103.165H61.6229V108.427C61.6229 108.983 61.7751 109.424 62.0795 109.751C62.3838 110.079 62.7833 110.242 63.278 110.242C63.5824 110.242 63.8772 110.168 64.1626 110.02C64.448 109.871 64.6819 109.651 64.8646 109.358C65.051 109.061 65.1442 108.69 65.1442 108.245ZM73.7122 103.165V104.763H68.6727V103.165H73.7122ZM69.9169 101.065H71.9829V109.295C71.9829 109.573 72.0248 109.786 72.1085 109.934C72.196 110.079 72.3101 110.178 72.4509 110.231C72.5917 110.284 72.7477 110.311 72.9189 110.311C73.0483 110.311 73.1662 110.301 73.2727 110.282C73.3831 110.263 73.4668 110.246 73.5239 110.231L73.872 111.846C73.7617 111.884 73.6038 111.926 73.3983 111.972C73.1967 112.017 72.9493 112.044 72.6564 112.051C72.1389 112.067 71.6728 111.989 71.2581 111.817C70.8434 111.642 70.5143 111.372 70.2707 111.007C70.031 110.642 69.9131 110.185 69.9169 109.637V101.065ZM79.2268 112.103C78.3479 112.103 77.5888 111.92 76.9496 111.555C76.3142 111.186 75.8253 110.665 75.4829 109.991C75.1404 109.314 74.9692 108.517 74.9692 107.6C74.9692 106.698 75.1404 105.907 75.4829 105.226C75.8291 104.541 76.3123 104.008 76.9325 103.628C77.5527 103.243 78.2813 103.051 79.1184 103.051C79.6587 103.051 80.1685 103.139 80.6479 103.314C81.1311 103.485 81.5573 103.751 81.9263 104.113C82.2992 104.474 82.5922 104.935 82.8052 105.494C83.0183 106.049 83.1249 106.711 83.1249 107.48V108.114H75.9395V106.721H81.1444C81.1406 106.325 81.055 105.973 80.8876 105.665C80.7202 105.353 80.4862 105.108 80.1856 104.929C79.8889 104.75 79.5426 104.661 79.1469 104.661C78.7246 104.661 78.3536 104.763 78.034 104.969C77.7144 105.17 77.4652 105.437 77.2864 105.768C77.1113 106.095 77.0219 106.455 77.0181 106.847V108.062C77.0181 108.572 77.1113 109.01 77.2978 109.375C77.4842 109.736 77.7448 110.014 78.0797 110.208C78.4145 110.398 78.8064 110.493 79.2554 110.493C79.5559 110.493 79.828 110.452 80.0715 110.368C80.315 110.28 80.5262 110.153 80.705 109.985C80.8838 109.818 81.0189 109.611 81.1102 109.363L83.0392 109.58C82.9175 110.09 82.6854 110.535 82.343 110.916C82.0043 111.292 81.5706 111.585 81.0417 111.795C80.5128 112 79.9079 112.103 79.2268 112.103Z" fill="black"/>
<path d="M93.1668 146.377C93.2648 146.279 93.2648 146.12 93.1668 146.022L91.5686 144.424C91.4705 144.326 91.3115 144.326 91.2135 144.424C91.1154 144.522 91.1154 144.681 91.2135 144.779L92.6341 146.2L91.2136 147.62C91.1155 147.718 91.1155 147.877 91.2136 147.975C91.3117 148.074 91.4707 148.074 91.5687 147.975L93.1668 146.377ZM45.4773 146.202L45.4773 145.95L45.4773 146.202ZM41.7104 142.434L41.4593 142.434L41.4593 142.434L41.7104 142.434ZM41.8895 126.135C41.7914 126.037 41.6324 126.037 41.5344 126.135L39.9361 127.733C39.838 127.831 39.838 127.99 39.9361 128.088C40.0341 128.186 40.1931 128.186 40.2912 128.088L41.7119 126.667L43.1323 128.088C43.2303 128.186 43.3893 128.186 43.4874 128.088C43.5855 127.99 43.5855 127.831 43.4875 127.733L41.8895 126.135ZM92.9892 145.949L45.4773 145.95L45.4773 146.453L92.9892 146.451L92.9892 145.949ZM41.9615 142.434L41.963 126.312L41.4608 126.312L41.4593 142.434L41.9615 142.434ZM45.4773 145.95C43.5355 145.951 41.9613 144.376 41.9615 142.434L41.4593 142.434C41.4591 144.654 43.2581 146.453 45.4773 146.453L45.4773 145.95Z" fill="#7E22CE"/>
<path d="M24.0254 249.544C23.9455 249.266 23.8333 249.021 23.6887 248.808C23.5441 248.591 23.3672 248.408 23.1579 248.26C22.9524 248.108 22.7165 247.992 22.4502 247.912C22.1877 247.832 21.8966 247.792 21.577 247.792C20.9796 247.792 20.4546 247.94 20.0018 248.237C19.5528 248.534 19.2028 248.966 18.9517 249.532C18.7006 250.096 18.575 250.784 18.575 251.598C18.575 252.413 18.6986 253.105 18.946 253.676C19.1933 254.247 19.5433 254.682 19.9961 254.983C20.4489 255.28 20.9834 255.428 21.5998 255.428C22.1591 255.428 22.6366 255.329 23.0323 255.131C23.4318 254.93 23.7362 254.646 23.9455 254.281C24.1586 253.916 24.2651 253.484 24.2651 252.985L24.7673 253.06H21.7539V251.199H26.645V252.671C26.645 253.699 26.4281 254.581 25.9944 255.32C25.5606 256.054 24.9633 256.621 24.2023 257.02C23.4414 257.416 22.5701 257.614 21.5884 257.614C20.4926 257.614 19.53 257.372 18.7006 256.889C17.8711 256.402 17.2243 255.711 16.7601 254.817C16.2997 253.919 16.0695 252.854 16.0695 251.621C16.0695 250.674 16.2065 249.829 16.4804 249.087C16.7582 248.342 17.1463 247.71 17.6447 247.193C18.1431 246.675 18.7234 246.281 19.3854 246.011C20.0475 245.741 20.7647 245.606 21.537 245.606C22.1991 245.606 22.8155 245.703 23.3862 245.897C23.9569 246.087 24.4629 246.357 24.9043 246.707C25.3495 247.057 25.7128 247.474 25.9944 247.957C26.2759 248.437 26.4567 248.966 26.5366 249.544H24.0254ZM32.4164 257.625C31.5299 257.625 30.7633 257.437 30.1164 257.06C29.4734 256.68 28.9769 256.151 28.6268 255.474C28.2768 254.793 28.1018 254.003 28.1018 253.105C28.1018 252.2 28.2768 251.408 28.6268 250.731C28.9769 250.05 29.4734 249.521 30.1164 249.144C30.7633 248.764 31.5299 248.574 32.4164 248.574C33.303 248.574 34.0677 248.764 34.7108 249.144C35.3576 249.521 35.856 250.05 36.206 250.731C36.5561 251.408 36.7311 252.2 36.7311 253.105C36.7311 254.003 36.5561 254.793 36.206 255.474C35.856 256.151 35.3576 256.68 34.7108 257.06C34.0677 257.437 33.303 257.625 32.4164 257.625ZM32.4279 255.742C32.8312 255.742 33.1679 255.628 33.438 255.399C33.7082 255.167 33.9117 254.852 34.0487 254.452C34.1895 254.053 34.2599 253.598 34.2599 253.088C34.2599 252.578 34.1895 252.124 34.0487 251.724C33.9117 251.325 33.7082 251.009 33.438 250.777C33.1679 250.545 32.8312 250.429 32.4279 250.429C32.0207 250.429 31.6783 250.545 31.4006 250.777C31.1266 251.009 30.9192 251.325 30.7785 251.724C30.6415 252.124 30.573 252.578 30.573 253.088C30.573 253.598 30.6415 254.053 30.7785 254.452C30.9192 254.852 31.1266 255.167 31.4006 255.399C31.6783 255.628 32.0207 255.742 32.4279 255.742ZM46.2023 248.688L43.1375 257.454H40.398L37.3332 248.688H39.9015L41.7221 254.96H41.8134L43.6283 248.688H46.2023ZM51.159 257.625C50.2572 257.625 49.4811 257.443 48.8304 257.077C48.1836 256.708 47.6852 256.187 47.3351 255.514C46.9851 254.836 46.8101 254.035 46.8101 253.111C46.8101 252.209 46.9851 251.418 47.3351 250.737C47.6852 250.056 48.1779 249.525 48.8133 249.144C49.4525 248.764 50.2021 248.574 51.062 248.574C51.6403 248.574 52.1787 248.667 52.6771 248.853C53.1793 249.036 53.6169 249.312 53.9898 249.681C54.3664 250.05 54.6594 250.514 54.8687 251.073C55.0779 251.629 55.1826 252.28 55.1826 253.025V253.693H47.7803V252.186H52.894C52.894 251.836 52.8179 251.526 52.6657 251.256C52.5135 250.986 52.3023 250.775 52.0322 250.623C51.7658 250.467 51.4558 250.389 51.1019 250.389C50.7328 250.389 50.4056 250.474 50.1203 250.645C49.8387 250.813 49.618 251.039 49.4582 251.325C49.2984 251.606 49.2166 251.92 49.2128 252.266V253.699C49.2128 254.132 49.2927 254.507 49.4525 254.823C49.6161 255.139 49.8463 255.382 50.1431 255.554C50.4399 255.725 50.7918 255.81 51.1989 255.81C51.4691 255.81 51.7164 255.772 51.9409 255.696C52.1654 255.62 52.3575 255.506 52.5173 255.354C52.6771 255.202 52.7989 255.015 52.8826 254.795L55.1312 254.943C55.0171 255.483 54.7831 255.955 54.4292 256.358C54.0792 256.758 53.6264 257.07 53.0709 257.294C52.5192 257.515 51.8819 257.625 51.159 257.625ZM56.7692 257.454V248.688H59.1263V250.217H59.2176C59.3774 249.673 59.6456 249.262 60.0223 248.985C60.399 248.703 60.8327 248.562 61.3236 248.562C61.4453 248.562 61.5766 248.57 61.7174 248.585C61.8581 248.6 61.9818 248.621 62.0883 248.648V250.805C61.9742 250.771 61.8163 250.74 61.6146 250.714C61.413 250.687 61.2284 250.674 61.061 250.674C60.7034 250.674 60.3838 250.752 60.1022 250.908C59.8245 251.06 59.6038 251.273 59.4402 251.547C59.2804 251.821 59.2005 252.137 59.2005 252.495V257.454H56.7692ZM65.7766 252.386V257.454H63.3453V248.688H65.6625V250.234H65.7652C65.9592 249.725 66.2846 249.321 66.7411 249.025C67.1977 248.724 67.7513 248.574 68.4019 248.574C69.0107 248.574 69.5415 248.707 69.9943 248.973C70.447 249.239 70.799 249.62 71.0501 250.115C71.3012 250.605 71.4268 251.191 71.4268 251.872V257.454H68.9955V252.306C68.9993 251.77 68.8623 251.351 68.5846 251.051C68.3068 250.746 67.9244 250.594 67.4374 250.594C67.1102 250.594 66.821 250.664 66.5699 250.805C66.3226 250.946 66.1286 251.151 65.9878 251.422C65.8508 251.688 65.7804 252.009 65.7766 252.386Z" fill="black"/>
<defs>
<filter id="filter0_b_955_469" x="103.384" y="83.5773" width="172.545" height="192.32" filterUnits="userSpaceOnUse" color-interpolation-filters="sRGB">
<feFlood flood-opacity="0" result="BackgroundImageFix"/>
<feGaussianBlur in="BackgroundImageFix" stdDeviation="3.13784"/>
<feComposite in2="SourceAlpha" operator="in" result="effect1_backgroundBlur_955_469"/>
<feBlend mode="normal" in="SourceGraphic" in2="effect1_backgroundBlur_955_469" result="shape"/>
</filter>
</defs>
</svg>
