<svg width="318" height="276" viewBox="0 0 318 276" fill="none" xmlns="http://www.w3.org/2000/svg">
<path d="M160.749 79.9035C163.423 78.3655 166.717 78.3655 169.39 79.9035L213.401 105.226C216.074 106.763 217.719 109.605 217.719 112.678V163.322C217.719 166.395 216.074 169.237 213.401 170.774L169.39 196.096C166.717 197.634 163.423 197.634 160.749 196.096L116.738 170.774C114.065 169.237 112.42 166.395 112.42 163.322V112.678C112.42 109.605 114.065 106.763 116.738 105.226L160.749 79.9035Z" fill="url(#paint0_linear_1105_4313)" stroke="#F5D0FE" stroke-width="1.5"/>
<g filter="url(#filter0_i_1105_4313)">
<path d="M146.67 124H182.67V131.864H146.67V124Z" fill="black" fill-opacity="0.6"/>
<path d="M146.67 134.136H182.67V142H146.67V134.136Z" fill="black" fill-opacity="0.6"/>
<path d="M146.67 144.272H162.748V152.136H146.67V144.272Z" fill="black" fill-opacity="0.6"/>
<path d="M166.592 144.272H182.67V152.136H166.592V144.272Z" fill="black" fill-opacity="0.6"/>
</g>
<path d="M286.821 186.562C286.626 186.757 286.309 186.757 286.114 186.561L282.932 183.379C282.737 183.184 282.737 182.867 282.932 182.672C283.127 182.477 283.444 182.477 283.639 182.672L286.467 185.501L289.296 182.673C289.491 182.477 289.808 182.477 290.003 182.673C290.199 182.868 290.198 183.185 290.003 183.38L286.821 186.562ZM286.469 170.086L285.969 170.086L286.469 170.086ZM282.702 166.319L282.702 166.819L282.702 166.319ZM234.837 166.674C234.641 166.479 234.641 166.162 234.837 165.967L238.018 162.785C238.214 162.589 238.53 162.589 238.725 162.785C238.921 162.98 238.921 163.297 238.726 163.492L235.897 166.32L238.726 169.149C238.921 169.344 238.921 169.661 238.726 169.856C238.53 170.051 238.214 170.051 238.019 169.856L234.837 166.674ZM285.967 186.208L285.969 170.086L286.969 170.086L286.967 186.208L285.967 186.208ZM282.702 166.819L235.19 166.82L235.19 165.82L282.702 165.819L282.702 166.819ZM285.969 170.086C285.969 168.281 284.506 166.819 282.702 166.819L282.702 165.819C285.059 165.819 286.969 167.729 286.969 170.086L285.969 170.086Z" fill="#7E22CE" fill-opacity="0.7"/>
<path d="M268.788 74V62.3636H273.243C274.084 62.3636 274.783 62.4962 275.339 62.7614C275.9 63.0227 276.319 63.3807 276.595 63.8352C276.875 64.2898 277.016 64.8049 277.016 65.3807C277.016 65.8542 276.925 66.2595 276.743 66.5966C276.561 66.9299 276.317 67.2008 276.01 67.4091C275.703 67.6174 275.36 67.767 274.982 67.858V67.9716C275.394 67.9943 275.79 68.1212 276.169 68.3523C276.552 68.5795 276.864 68.9015 277.107 69.3182C277.349 69.7348 277.47 70.2386 277.47 70.8295C277.47 71.4318 277.324 71.9735 277.033 72.4545C276.741 72.9318 276.302 73.3087 275.714 73.5852C275.127 73.8617 274.389 74 273.499 74H268.788ZM270.896 72.2386H273.163C273.929 72.2386 274.48 72.0928 274.817 71.8011C275.158 71.5057 275.328 71.1269 275.328 70.6648C275.328 70.3201 275.243 70.0095 275.072 69.733C274.902 69.4527 274.66 69.233 274.345 69.0739C274.031 68.911 273.656 68.8295 273.22 68.8295H270.896V72.2386ZM270.896 67.3125H272.982C273.345 67.3125 273.673 67.2462 273.964 67.1136C274.256 66.9773 274.485 66.786 274.652 66.5398C274.822 66.2898 274.908 65.9943 274.908 65.6534C274.908 65.2027 274.749 64.8314 274.43 64.5398C274.116 64.2481 273.648 64.1023 273.027 64.1023H270.896V67.3125ZM284.776 70.3295V65.2727H286.832V74H284.838V72.4489H284.747C284.55 72.9375 284.226 73.3371 283.776 73.6477C283.329 73.9583 282.777 74.1136 282.122 74.1136C281.55 74.1136 281.045 73.9867 280.605 73.733C280.17 73.4754 279.829 73.1023 279.582 72.6136C279.336 72.1212 279.213 71.5265 279.213 70.8295V65.2727H281.27V70.5114C281.27 71.0644 281.421 71.5038 281.724 71.8295C282.027 72.1553 282.425 72.3182 282.918 72.3182C283.221 72.3182 283.514 72.2443 283.798 72.0966C284.082 71.9489 284.315 71.7292 284.497 71.4375C284.683 71.142 284.776 70.7727 284.776 70.3295ZM288.947 74V65.2727H291.004V74H288.947ZM289.982 64.0341C289.656 64.0341 289.375 63.9261 289.141 63.7102C288.906 63.4905 288.788 63.2273 288.788 62.9205C288.788 62.6098 288.906 62.3466 289.141 62.1307C289.375 61.911 289.656 61.8011 289.982 61.8011C290.311 61.8011 290.591 61.911 290.822 62.1307C291.057 62.3466 291.175 62.6098 291.175 62.9205C291.175 63.2273 291.057 63.4905 290.822 63.7102C290.591 63.9261 290.311 64.0341 289.982 64.0341ZM295.176 62.3636V74H293.119V62.3636H295.176ZM300.53 74.1534C299.844 74.1534 299.231 73.9773 298.689 73.625C298.147 73.2727 297.719 72.7614 297.405 72.0909C297.09 71.4205 296.933 70.6061 296.933 69.6477C296.933 68.678 297.092 67.8598 297.411 67.1932C297.732 66.5227 298.166 66.017 298.712 65.6761C299.257 65.3314 299.865 65.1591 300.536 65.1591C301.047 65.1591 301.467 65.2462 301.797 65.4205C302.126 65.5909 302.388 65.7973 302.581 66.0398C302.774 66.2784 302.924 66.5038 303.03 66.7159H303.115V62.3636H305.178V74H303.155V72.625H303.03C302.924 72.8371 302.77 73.0625 302.57 73.3011C302.369 73.536 302.104 73.7367 301.774 73.9034C301.445 74.0701 301.03 74.1534 300.53 74.1534ZM301.104 72.4659C301.539 72.4659 301.911 72.3485 302.217 72.1136C302.524 71.875 302.757 71.5436 302.916 71.1193C303.075 70.6951 303.155 70.2008 303.155 69.6364C303.155 69.072 303.075 68.5814 302.916 68.1648C302.761 67.7481 302.53 67.4242 302.223 67.1932C301.92 66.9621 301.547 66.8466 301.104 66.8466C300.645 66.8466 300.263 66.9659 299.956 67.2045C299.649 67.4432 299.418 67.7727 299.263 68.1932C299.107 68.6136 299.03 69.0947 299.03 69.6364C299.03 70.1818 299.107 70.6686 299.263 71.0966C299.422 71.5208 299.655 71.8561 299.962 72.1023C300.272 72.3447 300.653 72.4659 301.104 72.4659Z" fill="black"/>
<path d="M287.341 88.7007C287.146 88.5055 286.83 88.5055 286.634 88.7008L283.453 91.8831C283.257 92.0784 283.257 92.3949 283.453 92.5902C283.648 92.7854 283.965 92.7854 284.16 92.5901L286.988 89.7614L289.817 92.5895C290.012 92.7848 290.329 92.7848 290.524 92.5895C290.719 92.3942 290.719 92.0776 290.524 91.8824L287.341 88.7007ZM286.99 105.176L286.49 105.176L286.99 105.176ZM283.223 108.944L283.223 108.444L283.223 108.944ZM235.357 108.588C235.162 108.784 235.162 109.1 235.357 109.295L238.539 112.477C238.734 112.673 239.051 112.673 239.246 112.477C239.441 112.282 239.441 111.966 239.246 111.77L236.418 108.942L239.246 106.114C239.441 105.918 239.441 105.602 239.246 105.406C239.051 105.211 238.734 105.211 238.539 105.406L235.357 108.588ZM286.488 89.0543L286.49 105.176L287.49 105.176L287.488 89.0542L286.488 89.0543ZM283.223 108.444L235.711 108.442L235.711 109.442L283.223 109.444L283.223 108.444ZM286.49 105.176C286.49 106.981 285.027 108.444 283.223 108.444L283.223 109.444C285.579 109.444 287.49 107.533 287.49 105.176L286.49 105.176Z" fill="#7E22CE" fill-opacity="0.7"/>
<path d="M266.356 208.182C266.356 209.436 266.121 210.509 265.651 211.403C265.186 212.294 264.549 212.975 263.742 213.449C262.939 213.922 262.028 214.159 261.009 214.159C259.99 214.159 259.078 213.922 258.271 213.449C257.468 212.972 256.831 212.288 256.362 211.398C255.896 210.504 255.663 209.432 255.663 208.182C255.663 206.928 255.896 205.856 256.362 204.966C256.831 204.072 257.468 203.388 258.271 202.915C259.078 202.441 259.99 202.205 261.009 202.205C262.028 202.205 262.939 202.441 263.742 202.915C264.549 203.388 265.186 204.072 265.651 204.966C266.121 205.856 266.356 206.928 266.356 208.182ZM264.237 208.182C264.237 207.299 264.098 206.555 263.822 205.949C263.549 205.339 263.17 204.879 262.686 204.568C262.201 204.254 261.642 204.097 261.009 204.097C260.377 204.097 259.818 204.254 259.333 204.568C258.848 204.879 258.468 205.339 258.191 205.949C257.919 206.555 257.782 207.299 257.782 208.182C257.782 209.064 257.919 209.811 258.191 210.42C258.468 211.027 258.848 211.487 259.333 211.801C259.818 212.112 260.377 212.267 261.009 212.267C261.642 212.267 262.201 212.112 262.686 211.801C263.17 211.487 263.549 211.027 263.822 210.42C264.098 209.811 264.237 209.064 264.237 208.182ZM268.258 217.273V205.273H270.281V206.716H270.4C270.506 206.504 270.656 206.278 270.849 206.04C271.042 205.797 271.303 205.591 271.633 205.42C271.963 205.246 272.383 205.159 272.894 205.159C273.569 205.159 274.177 205.331 274.718 205.676C275.264 206.017 275.695 206.523 276.014 207.193C276.336 207.86 276.497 208.678 276.497 209.648C276.497 210.606 276.339 211.42 276.025 212.091C275.711 212.761 275.283 213.273 274.741 213.625C274.199 213.977 273.586 214.153 272.9 214.153C272.4 214.153 271.985 214.07 271.656 213.903C271.326 213.737 271.061 213.536 270.86 213.301C270.663 213.062 270.51 212.837 270.4 212.625H270.315V217.273H268.258ZM270.275 209.636C270.275 210.201 270.355 210.695 270.514 211.119C270.677 211.544 270.91 211.875 271.213 212.114C271.519 212.348 271.891 212.466 272.326 212.466C272.781 212.466 273.161 212.345 273.468 212.102C273.775 211.856 274.006 211.521 274.161 211.097C274.32 210.669 274.4 210.182 274.4 209.636C274.4 209.095 274.322 208.614 274.167 208.193C274.012 207.773 273.781 207.443 273.474 207.205C273.167 206.966 272.785 206.847 272.326 206.847C271.887 206.847 271.514 206.962 271.207 207.193C270.9 207.424 270.667 207.748 270.508 208.165C270.353 208.581 270.275 209.072 270.275 209.636ZM282.122 214.17C281.247 214.17 280.491 213.989 279.855 213.625C279.222 213.258 278.735 212.739 278.394 212.068C278.053 211.394 277.883 210.6 277.883 209.688C277.883 208.79 278.053 208.002 278.394 207.324C278.739 206.642 279.22 206.112 279.838 205.733C280.455 205.35 281.18 205.159 282.014 205.159C282.552 205.159 283.059 205.246 283.536 205.42C284.017 205.591 284.442 205.856 284.809 206.216C285.18 206.576 285.472 207.034 285.684 207.591C285.896 208.144 286.002 208.803 286.002 209.568V210.199H278.849V208.812H284.031C284.027 208.419 283.942 208.068 283.775 207.761C283.608 207.451 283.375 207.206 283.076 207.028C282.781 206.85 282.436 206.761 282.042 206.761C281.622 206.761 281.252 206.864 280.934 207.068C280.616 207.269 280.368 207.534 280.19 207.864C280.016 208.189 279.927 208.547 279.923 208.938V210.148C279.923 210.655 280.016 211.091 280.201 211.455C280.387 211.814 280.646 212.091 280.98 212.284C281.313 212.473 281.703 212.568 282.15 212.568C282.449 212.568 282.72 212.527 282.963 212.443C283.205 212.356 283.415 212.229 283.593 212.062C283.771 211.896 283.906 211.689 283.997 211.443L285.917 211.659C285.796 212.167 285.565 212.61 285.224 212.989C284.887 213.364 284.455 213.655 283.928 213.864C283.402 214.068 282.8 214.17 282.122 214.17ZM287.742 214V205.273H289.737V206.727H289.828C289.987 206.223 290.259 205.835 290.646 205.562C291.036 205.286 291.481 205.148 291.981 205.148C292.095 205.148 292.222 205.153 292.362 205.165C292.506 205.172 292.625 205.186 292.72 205.205V207.097C292.633 207.066 292.494 207.04 292.305 207.017C292.119 206.991 291.939 206.977 291.765 206.977C291.39 206.977 291.053 207.059 290.754 207.222C290.458 207.381 290.225 207.602 290.055 207.886C289.884 208.17 289.799 208.498 289.799 208.869V214H287.742ZM296.441 214.176C295.888 214.176 295.39 214.078 294.947 213.881C294.508 213.68 294.159 213.384 293.901 212.994C293.648 212.604 293.521 212.123 293.521 211.551C293.521 211.059 293.612 210.652 293.794 210.33C293.975 210.008 294.223 209.75 294.538 209.557C294.852 209.364 295.206 209.218 295.6 209.119C295.998 209.017 296.409 208.943 296.833 208.898C297.345 208.845 297.759 208.797 298.078 208.756C298.396 208.71 298.627 208.642 298.771 208.551C298.919 208.456 298.992 208.311 298.992 208.114V208.08C298.992 207.652 298.865 207.32 298.612 207.085C298.358 206.85 297.992 206.733 297.515 206.733C297.011 206.733 296.612 206.843 296.316 207.062C296.025 207.282 295.828 207.542 295.725 207.841L293.805 207.568C293.956 207.038 294.206 206.595 294.555 206.239C294.903 205.879 295.329 205.61 295.833 205.432C296.337 205.25 296.894 205.159 297.504 205.159C297.924 205.159 298.343 205.208 298.759 205.307C299.176 205.405 299.557 205.568 299.901 205.795C300.246 206.019 300.523 206.324 300.731 206.71C300.943 207.097 301.049 207.58 301.049 208.159V214H299.072V212.801H299.004C298.879 213.044 298.703 213.271 298.475 213.483C298.252 213.691 297.97 213.86 297.629 213.989C297.292 214.114 296.896 214.176 296.441 214.176ZM296.975 212.665C297.388 212.665 297.746 212.583 298.049 212.42C298.352 212.254 298.585 212.034 298.748 211.761C298.915 211.489 298.998 211.191 298.998 210.869V209.841C298.934 209.894 298.824 209.943 298.669 209.989C298.517 210.034 298.347 210.074 298.157 210.108C297.968 210.142 297.78 210.172 297.595 210.199C297.409 210.225 297.248 210.248 297.112 210.267C296.805 210.309 296.53 210.377 296.288 210.472C296.045 210.566 295.854 210.699 295.714 210.869C295.574 211.036 295.504 211.252 295.504 211.517C295.504 211.896 295.642 212.182 295.919 212.375C296.195 212.568 296.547 212.665 296.975 212.665ZM307.475 205.273V206.864H302.458V205.273H307.475ZM303.697 203.182H305.754V211.375C305.754 211.652 305.795 211.864 305.879 212.011C305.966 212.155 306.079 212.254 306.22 212.307C306.36 212.36 306.515 212.386 306.686 212.386C306.814 212.386 306.932 212.377 307.038 212.358C307.148 212.339 307.231 212.322 307.288 212.307L307.634 213.915C307.525 213.953 307.367 213.994 307.163 214.04C306.962 214.085 306.716 214.112 306.424 214.119C305.909 214.134 305.445 214.057 305.032 213.886C304.619 213.712 304.292 213.443 304.049 213.08C303.811 212.716 303.693 212.261 303.697 211.716V203.182ZM312.965 214.17C312.09 214.17 311.335 213.989 310.698 213.625C310.066 213.258 309.579 212.739 309.238 212.068C308.897 211.394 308.727 210.6 308.727 209.688C308.727 208.79 308.897 208.002 309.238 207.324C309.583 206.642 310.064 206.112 310.681 205.733C311.299 205.35 312.024 205.159 312.857 205.159C313.395 205.159 313.903 205.246 314.38 205.42C314.861 205.591 315.285 205.856 315.653 206.216C316.024 206.576 316.316 207.034 316.528 207.591C316.74 208.144 316.846 208.803 316.846 209.568V210.199H309.693V208.812H314.874C314.871 208.419 314.785 208.068 314.619 207.761C314.452 207.451 314.219 207.206 313.92 207.028C313.624 206.85 313.28 206.761 312.886 206.761C312.465 206.761 312.096 206.864 311.778 207.068C311.46 207.269 311.212 207.534 311.034 207.864C310.859 208.189 310.77 208.547 310.767 208.938V210.148C310.767 210.655 310.859 211.091 311.045 211.455C311.231 211.814 311.49 212.091 311.823 212.284C312.157 212.473 312.547 212.568 312.994 212.568C313.293 212.568 313.564 212.527 313.806 212.443C314.049 212.356 314.259 212.229 314.437 212.062C314.615 211.896 314.749 211.689 314.84 211.443L316.761 211.659C316.64 212.167 316.409 212.61 316.068 212.989C315.731 213.364 315.299 213.655 314.772 213.864C314.246 214.068 313.643 214.17 312.965 214.17Z" fill="black"/>
<path d="M42.934 187.299C43.1293 187.495 43.4459 187.495 43.6411 187.299L46.8228 184.117C47.018 183.922 47.018 183.605 46.8227 183.41C46.6274 183.215 46.3108 183.215 46.1156 183.41L43.2874 186.239L40.4587 183.41C40.2634 183.215 39.9469 183.215 39.7516 183.411C39.5564 183.606 39.5564 183.922 39.7517 184.118L42.934 187.299ZM43.2859 170.824L43.7859 170.824L43.2859 170.824ZM47.0528 167.056L47.0528 167.556L47.0528 167.056ZM94.9184 167.412C95.1136 167.216 95.1136 166.9 94.9184 166.705L91.7365 163.523C91.5413 163.327 91.2247 163.327 91.0294 163.523C90.8341 163.718 90.8341 164.034 91.0294 164.23L93.8577 167.058L91.0292 169.886C90.8339 170.082 90.8339 170.398 91.0291 170.594C91.2244 170.789 91.541 170.789 91.7363 170.594L94.9184 167.412ZM43.7875 186.946L43.7859 170.824L42.7859 170.824L42.7875 186.946L43.7875 186.946ZM47.0528 167.556L94.5648 167.558L94.5648 166.558L47.0528 166.556L47.0528 167.556ZM43.7859 170.824C43.7857 169.019 45.2484 167.556 47.0528 167.556L47.0528 166.556C44.6961 166.556 42.7856 168.467 42.7859 170.824L43.7859 170.824Z" fill="#7E22CE" fill-opacity="0.7"/>
<path d="M137.927 16V4.36364H140.035V14.233H145.16V16H137.927ZM149.41 16.1761C148.857 16.1761 148.359 16.0777 147.916 15.8807C147.476 15.6799 147.128 15.3845 146.87 14.9943C146.616 14.6042 146.49 14.1231 146.49 13.5511C146.49 13.0587 146.58 12.6515 146.762 12.3295C146.944 12.0076 147.192 11.75 147.507 11.5568C147.821 11.3636 148.175 11.2178 148.569 11.1193C148.967 11.017 149.378 10.9432 149.802 10.8977C150.313 10.8447 150.728 10.7973 151.046 10.7557C151.365 10.7102 151.596 10.642 151.74 10.5511C151.887 10.4564 151.961 10.3106 151.961 10.1136V10.0795C151.961 9.65152 151.834 9.32008 151.58 9.08523C151.327 8.85038 150.961 8.73295 150.484 8.73295C149.98 8.73295 149.58 8.8428 149.285 9.0625C148.993 9.2822 148.796 9.54167 148.694 9.84091L146.774 9.56818C146.925 9.03788 147.175 8.5947 147.524 8.23864C147.872 7.87879 148.298 7.60985 148.802 7.43182C149.306 7.25 149.863 7.15909 150.472 7.15909C150.893 7.15909 151.311 7.20833 151.728 7.30682C152.145 7.4053 152.526 7.56818 152.87 7.79545C153.215 8.01894 153.491 8.32386 153.7 8.71023C153.912 9.09659 154.018 9.57955 154.018 10.1591V16H152.041V14.8011H151.972C151.847 15.0436 151.671 15.2708 151.444 15.483C151.221 15.6913 150.938 15.8598 150.597 15.9886C150.26 16.1136 149.865 16.1761 149.41 16.1761ZM149.944 14.6648C150.357 14.6648 150.715 14.5833 151.018 14.4205C151.321 14.2538 151.554 14.0341 151.717 13.7614C151.883 13.4886 151.967 13.1913 151.967 12.8693V11.8409C151.902 11.8939 151.793 11.9432 151.637 11.9886C151.486 12.0341 151.315 12.0739 151.126 12.108C150.936 12.142 150.749 12.1723 150.563 12.1989C150.378 12.2254 150.217 12.2481 150.08 12.267C149.774 12.3087 149.499 12.3769 149.257 12.4716C149.014 12.5663 148.823 12.6989 148.683 12.8693C148.543 13.036 148.472 13.2519 148.472 13.517C148.472 13.8958 148.611 14.1818 148.887 14.375C149.164 14.5682 149.516 14.6648 149.944 14.6648ZM161.649 12.3295V7.27273H163.705V16H161.711V14.4489H161.62C161.423 14.9375 161.099 15.3371 160.649 15.6477C160.202 15.9583 159.651 16.1136 158.995 16.1136C158.423 16.1136 157.918 15.9867 157.478 15.733C157.043 15.4754 156.702 15.1023 156.455 14.6136C156.209 14.1212 156.086 13.5265 156.086 12.8295V7.27273H158.143V12.5114C158.143 13.0644 158.294 13.5038 158.597 13.8295C158.901 14.1553 159.298 14.3182 159.791 14.3182C160.094 14.3182 160.387 14.2443 160.671 14.0966C160.955 13.9489 161.188 13.7292 161.37 13.4375C161.556 13.142 161.649 12.7727 161.649 12.3295ZM167.877 10.8864V16H165.82V7.27273H167.786V8.75568H167.889C168.089 8.26705 168.41 7.87879 168.849 7.59091C169.292 7.30303 169.839 7.15909 170.491 7.15909C171.093 7.15909 171.618 7.28788 172.065 7.54545C172.516 7.80303 172.864 8.17614 173.11 8.66477C173.36 9.15341 173.483 9.74621 173.48 10.4432V16H171.423V10.7614C171.423 10.178 171.271 9.72159 170.968 9.39205C170.669 9.0625 170.254 8.89773 169.724 8.89773C169.364 8.89773 169.044 8.97727 168.764 9.13636C168.487 9.29167 168.269 9.51705 168.11 9.8125C167.955 10.108 167.877 10.4659 167.877 10.8864ZM179.377 16.1705C178.506 16.1705 177.758 15.9792 177.133 15.5966C176.512 15.214 176.033 14.6856 175.695 14.0114C175.362 13.3333 175.195 12.553 175.195 11.6705C175.195 10.7841 175.366 10.0019 175.707 9.32386C176.048 8.64205 176.529 8.11174 177.15 7.73295C177.775 7.35038 178.514 7.15909 179.366 7.15909C180.074 7.15909 180.701 7.28977 181.247 7.55114C181.796 7.80871 182.233 8.17424 182.559 8.64773C182.885 9.11742 183.07 9.66667 183.116 10.2955H181.15C181.07 9.875 180.881 9.52462 180.582 9.24432C180.286 8.96023 179.891 8.81818 179.394 8.81818C178.974 8.81818 178.605 8.93182 178.286 9.15909C177.968 9.38258 177.72 9.70455 177.542 10.125C177.368 10.5455 177.281 11.0492 177.281 11.6364C177.281 12.2311 177.368 12.7424 177.542 13.1705C177.716 13.5947 177.961 13.9223 178.275 14.1534C178.593 14.3807 178.966 14.4943 179.394 14.4943C179.697 14.4943 179.968 14.4375 180.207 14.3239C180.449 14.2064 180.652 14.0379 180.815 13.8182C180.978 13.5985 181.089 13.3314 181.15 13.017H183.116C183.067 13.6345 182.885 14.1818 182.57 14.6591C182.256 15.1326 181.828 15.5038 181.286 15.7727C180.745 16.0379 180.108 16.1705 179.377 16.1705ZM186.862 10.8864V16H184.805V4.36364H186.816V8.75568H186.919C187.123 8.26326 187.439 7.875 187.867 7.59091C188.299 7.30303 188.848 7.15909 189.515 7.15909C190.121 7.15909 190.65 7.28598 191.1 7.53977C191.551 7.79356 191.9 8.16477 192.146 8.65341C192.396 9.14205 192.521 9.73864 192.521 10.4432V16H190.464V10.7614C190.464 10.1742 190.312 9.7178 190.009 9.39205C189.71 9.0625 189.29 8.89773 188.748 8.89773C188.384 8.89773 188.059 8.97727 187.771 9.13636C187.487 9.29167 187.263 9.51705 187.1 9.8125C186.941 10.108 186.862 10.4659 186.862 10.8864Z" fill="black"/>
<path d="M165.023 33.6464C164.828 33.4512 164.512 33.4512 164.316 33.6464L161.134 36.8284C160.939 37.0237 160.939 37.3403 161.134 37.5355C161.33 37.7308 161.646 37.7308 161.841 37.5355L164.67 34.7071L167.498 37.5355C167.694 37.7308 168.01 37.7308 168.205 37.5355C168.401 37.3403 168.401 37.0237 168.205 36.8284L165.023 33.6464ZM164.316 64.3536C164.512 64.5488 164.828 64.5488 165.023 64.3536L168.205 61.1716C168.401 60.9763 168.401 60.6597 168.205 60.4645C168.01 60.2692 167.694 60.2692 167.498 60.4645L164.67 63.2929L161.841 60.4645C161.646 60.2692 161.33 60.2692 161.134 60.4645C160.939 60.6597 160.939 60.9763 161.134 61.1716L164.316 64.3536ZM164.17 34L164.17 64L165.17 64L165.17 34L164.17 34Z" fill="#7E22CE" fill-opacity="0.7"/>
<path d="M146.279 271V259.364H150.733C151.574 259.364 152.273 259.496 152.83 259.761C153.39 260.023 153.809 260.381 154.085 260.835C154.366 261.29 154.506 261.805 154.506 262.381C154.506 262.854 154.415 263.259 154.233 263.597C154.051 263.93 153.807 264.201 153.5 264.409C153.193 264.617 152.851 264.767 152.472 264.858V264.972C152.885 264.994 153.28 265.121 153.659 265.352C154.042 265.58 154.354 265.902 154.597 266.318C154.839 266.735 154.96 267.239 154.96 267.83C154.96 268.432 154.815 268.973 154.523 269.455C154.231 269.932 153.792 270.309 153.205 270.585C152.618 270.862 151.879 271 150.989 271H146.279ZM148.387 269.239H150.654C151.419 269.239 151.97 269.093 152.307 268.801C152.648 268.506 152.818 268.127 152.818 267.665C152.818 267.32 152.733 267.009 152.563 266.733C152.392 266.453 152.15 266.233 151.835 266.074C151.521 265.911 151.146 265.83 150.71 265.83H148.387V269.239ZM148.387 264.312H150.472C150.835 264.312 151.163 264.246 151.455 264.114C151.746 263.977 151.976 263.786 152.142 263.54C152.313 263.29 152.398 262.994 152.398 262.653C152.398 262.203 152.239 261.831 151.921 261.54C151.606 261.248 151.138 261.102 150.517 261.102H148.387V264.312ZM160.51 271.17C159.658 271.17 158.919 270.983 158.294 270.608C157.669 270.233 157.184 269.708 156.84 269.034C156.499 268.36 156.328 267.572 156.328 266.67C156.328 265.769 156.499 264.979 156.84 264.301C157.184 263.623 157.669 263.097 158.294 262.722C158.919 262.347 159.658 262.159 160.51 262.159C161.362 262.159 162.101 262.347 162.726 262.722C163.351 263.097 163.834 263.623 164.175 264.301C164.52 264.979 164.692 265.769 164.692 266.67C164.692 267.572 164.52 268.36 164.175 269.034C163.834 269.708 163.351 270.233 162.726 270.608C162.101 270.983 161.362 271.17 160.51 271.17ZM160.521 269.523C160.984 269.523 161.37 269.396 161.681 269.142C161.991 268.884 162.222 268.54 162.374 268.108C162.529 267.676 162.607 267.195 162.607 266.665C162.607 266.131 162.529 265.648 162.374 265.216C162.222 264.78 161.991 264.434 161.681 264.176C161.37 263.919 160.984 263.79 160.521 263.79C160.048 263.79 159.654 263.919 159.34 264.176C159.029 264.434 158.796 264.78 158.641 265.216C158.489 265.648 158.414 266.131 158.414 266.665C158.414 267.195 158.489 267.676 158.641 268.108C158.796 268.54 159.029 268.884 159.34 269.142C159.654 269.396 160.048 269.523 160.521 269.523ZM168.494 265.886V271H166.438V262.273H168.404V263.756H168.506C168.707 263.267 169.027 262.879 169.466 262.591C169.909 262.303 170.457 262.159 171.108 262.159C171.71 262.159 172.235 262.288 172.682 262.545C173.133 262.803 173.481 263.176 173.727 263.665C173.977 264.153 174.101 264.746 174.097 265.443V271H172.04V265.761C172.04 265.178 171.888 264.722 171.585 264.392C171.286 264.062 170.871 263.898 170.341 263.898C169.981 263.898 169.661 263.977 169.381 264.136C169.104 264.292 168.887 264.517 168.727 264.812C168.572 265.108 168.494 265.466 168.494 265.886ZM179.426 271.153C178.741 271.153 178.127 270.977 177.585 270.625C177.044 270.273 176.616 269.761 176.301 269.091C175.987 268.42 175.83 267.606 175.83 266.648C175.83 265.678 175.989 264.86 176.307 264.193C176.629 263.523 177.063 263.017 177.608 262.676C178.154 262.331 178.762 262.159 179.432 262.159C179.943 262.159 180.364 262.246 180.693 262.42C181.023 262.591 181.284 262.797 181.477 263.04C181.671 263.278 181.82 263.504 181.926 263.716H182.012V259.364H184.074V271H182.051V269.625H181.926C181.82 269.837 181.667 270.062 181.466 270.301C181.265 270.536 181 270.737 180.671 270.903C180.341 271.07 179.926 271.153 179.426 271.153ZM180 269.466C180.436 269.466 180.807 269.348 181.114 269.114C181.421 268.875 181.654 268.544 181.813 268.119C181.972 267.695 182.051 267.201 182.051 266.636C182.051 266.072 181.972 265.581 181.813 265.165C181.657 264.748 181.426 264.424 181.119 264.193C180.816 263.962 180.443 263.847 180 263.847C179.542 263.847 179.159 263.966 178.852 264.205C178.546 264.443 178.315 264.773 178.159 265.193C178.004 265.614 177.926 266.095 177.926 266.636C177.926 267.182 178.004 267.669 178.159 268.097C178.318 268.521 178.551 268.856 178.858 269.102C179.169 269.345 179.549 269.466 180 269.466Z" fill="black"/>
<path d="M165.023 213.646C164.828 213.451 164.512 213.451 164.316 213.646L161.134 216.828C160.939 217.024 160.939 217.34 161.134 217.536C161.33 217.731 161.646 217.731 161.841 217.536L164.67 214.707L167.498 217.536C167.694 217.731 168.01 217.731 168.205 217.536C168.401 217.34 168.401 217.024 168.205 216.828L165.023 213.646ZM164.316 244.354C164.512 244.549 164.828 244.549 165.023 244.354L168.205 241.172C168.401 240.976 168.401 240.66 168.205 240.464C168.01 240.269 167.694 240.269 167.498 240.464L164.67 243.293L161.841 240.464C161.646 240.269 161.33 240.269 161.134 240.464C160.939 240.66 160.939 240.976 161.134 241.172L164.316 244.354ZM164.17 214L164.17 244L165.17 244L165.17 214L164.17 214Z" fill="#7E22CE" fill-opacity="0.7"/>
<path d="M11.5513 66.2898H9.42631C9.36571 65.9413 9.25397 65.6326 9.09109 65.3636C8.92821 65.0909 8.72556 64.8598 8.48313 64.6705C8.24071 64.4811 7.96419 64.339 7.65359 64.2443C7.34677 64.1458 7.01533 64.0966 6.65927 64.0966C6.02669 64.0966 5.46609 64.2557 4.97745 64.5739C4.48881 64.8883 4.10624 65.3504 3.82972 65.9602C3.55321 66.5663 3.41495 67.3068 3.41495 68.1818C3.41495 69.072 3.55321 69.822 3.82972 70.4318C4.11003 71.0379 4.4926 71.4962 4.97745 71.8068C5.46609 72.1136 6.0248 72.267 6.65359 72.267C7.00207 72.267 7.32783 72.2216 7.63086 72.1307C7.93768 72.036 8.2123 71.8977 8.45472 71.7159C8.70094 71.5341 8.90737 71.3106 9.07404 71.0455C9.2445 70.7803 9.36192 70.4773 9.42631 70.1364L11.5513 70.1477C11.4718 70.7008 11.2994 71.2197 11.0343 71.7045C10.7729 72.1894 10.4301 72.6174 10.0059 72.9886C9.58162 73.3561 9.08541 73.6439 8.51722 73.8523C7.94904 74.0568 7.31836 74.1591 6.62518 74.1591C5.60245 74.1591 4.68957 73.9223 3.88654 73.4489C3.08351 72.9754 2.45094 72.2917 1.98881 71.3977C1.52669 70.5038 1.29563 69.4318 1.29563 68.1818C1.29563 66.928 1.52859 65.8561 1.9945 64.9659C2.4604 64.072 3.09487 63.3883 3.8979 62.9148C4.70094 62.4413 5.61003 62.2045 6.62518 62.2045C7.27291 62.2045 7.87518 62.2955 8.432 62.4773C8.98881 62.6591 9.48503 62.9261 9.92063 63.2784C10.3562 63.6269 10.7142 64.0549 10.9945 64.5625C11.2786 65.0663 11.4642 65.642 11.5513 66.2898ZM17.1976 74.1705C16.3453 74.1705 15.6067 73.983 14.9817 73.608C14.3567 73.233 13.8719 72.7083 13.5272 72.0341C13.1863 71.3598 13.0158 70.572 13.0158 69.6705C13.0158 68.7689 13.1863 67.9792 13.5272 67.3011C13.8719 66.6231 14.3567 66.0966 14.9817 65.7216C15.6067 65.3466 16.3453 65.1591 17.1976 65.1591C18.0499 65.1591 18.7885 65.3466 19.4135 65.7216C20.0385 66.0966 20.5215 66.6231 20.8624 67.3011C21.2071 67.9792 21.3794 68.7689 21.3794 69.6705C21.3794 70.572 21.2071 71.3598 20.8624 72.0341C20.5215 72.7083 20.0385 73.233 19.4135 73.608C18.7885 73.983 18.0499 74.1705 17.1976 74.1705ZM17.209 72.5227C17.6711 72.5227 18.0575 72.3958 18.3681 72.142C18.6787 71.8845 18.9097 71.5398 19.0613 71.108C19.2166 70.6761 19.2942 70.1951 19.2942 69.6648C19.2942 69.1307 19.2166 68.6477 19.0613 68.2159C18.9097 67.7803 18.6787 67.4337 18.3681 67.1761C18.0575 66.9186 17.6711 66.7898 17.209 66.7898C16.7355 66.7898 16.3416 66.9186 16.0272 67.1761C15.7166 67.4337 15.4836 67.7803 15.3283 68.2159C15.1768 68.6477 15.101 69.1307 15.101 69.6648C15.101 70.1951 15.1768 70.6761 15.3283 71.108C15.4836 71.5398 15.7166 71.8845 16.0272 72.142C16.3416 72.3958 16.7355 72.5227 17.209 72.5227ZM25.182 68.8864V74H23.1252V65.2727H25.0911V66.7557H25.1934C25.3941 66.267 25.7142 65.8788 26.1536 65.5909C26.5968 65.303 27.1441 65.1591 27.7956 65.1591C28.3979 65.1591 28.9225 65.2879 29.3695 65.5455C29.8203 65.803 30.1687 66.1761 30.415 66.6648C30.665 67.1534 30.7881 67.7462 30.7843 68.4432V74H28.7275V68.7614C28.7275 68.178 28.5759 67.7216 28.2729 67.392C27.9737 67.0625 27.5589 66.8977 27.0286 66.8977C26.6687 66.8977 26.3487 66.9773 26.0684 67.1364C25.7918 67.2917 25.574 67.517 25.415 67.8125C25.2596 68.108 25.182 68.4659 25.182 68.8864ZM37.2331 65.2727V66.8636H32.2161V65.2727H37.2331ZM33.4547 63.1818H35.5115V71.375C35.5115 71.6515 35.5532 71.8636 35.6365 72.0114C35.7237 72.1553 35.8373 72.2538 35.9775 72.3068C36.1176 72.3598 36.2729 72.3864 36.4434 72.3864C36.5721 72.3864 36.6896 72.3769 36.7956 72.358C36.9055 72.339 36.9888 72.322 37.0456 72.3068L37.3922 73.9148C37.2824 73.9527 37.1252 73.9943 36.9206 74.0398C36.7199 74.0852 36.4737 74.1117 36.182 74.1193C35.6668 74.1345 35.2028 74.0568 34.79 73.8864C34.3771 73.7121 34.0494 73.4432 33.807 73.0795C33.5684 72.7159 33.4509 72.2614 33.4547 71.7159V63.1818ZM38.9533 74V65.2727H40.9476V66.7273H41.0385C41.1976 66.2235 41.4703 65.8352 41.8567 65.5625C42.2469 65.286 42.6919 65.1477 43.1919 65.1477C43.3056 65.1477 43.4325 65.1534 43.5726 65.1648C43.7166 65.1723 43.8359 65.1856 43.9306 65.2045V67.0966C43.8435 67.0663 43.7052 67.0398 43.5158 67.017C43.3302 66.9905 43.1503 66.9773 42.976 66.9773C42.601 66.9773 42.2639 67.0587 41.9647 67.2216C41.6692 67.3807 41.4363 67.6023 41.2658 67.8864C41.0953 68.1705 41.0101 68.4981 41.0101 68.8693V74H38.9533ZM45.2971 74V65.2727H47.3539V74H45.2971ZM46.3311 64.0341C46.0054 64.0341 45.7251 63.9261 45.4902 63.7102C45.2554 63.4905 45.138 63.2273 45.138 62.9205C45.138 62.6098 45.2554 62.3466 45.4902 62.1307C45.7251 61.911 46.0054 61.8011 46.3311 61.8011C46.6607 61.8011 46.941 61.911 47.1721 62.1307C47.4069 62.3466 47.5243 62.6098 47.5243 62.9205C47.5243 63.2273 47.4069 63.4905 47.1721 63.7102C46.941 63.9261 46.6607 64.0341 46.3311 64.0341ZM49.5598 74V62.3636H51.6167V66.7159H51.7019C51.8079 66.5038 51.9576 66.2784 52.1507 66.0398C52.3439 65.7973 52.6053 65.5909 52.9348 65.4205C53.2644 65.2462 53.6848 65.1591 54.1962 65.1591C54.8704 65.1591 55.4784 65.3314 56.0201 65.6761C56.5655 66.017 56.9973 66.5227 57.3155 67.1932C57.6375 67.8598 57.7985 68.678 57.7985 69.6477C57.7985 70.6061 57.6413 71.4205 57.3269 72.0909C57.0125 72.7614 56.5845 73.2727 56.0428 73.625C55.5011 73.9773 54.8875 74.1534 54.2019 74.1534C53.7019 74.1534 53.2871 74.0701 52.9576 73.9034C52.628 73.7367 52.3629 73.536 52.1621 73.3011C51.9651 73.0625 51.8117 72.8371 51.7019 72.625H51.5826V74H49.5598ZM51.5769 69.6364C51.5769 70.2008 51.6564 70.6951 51.8155 71.1193C51.9784 71.5436 52.2114 71.875 52.5144 72.1136C52.8212 72.3485 53.1924 72.4659 53.628 72.4659C54.0826 72.4659 54.4632 72.3447 54.7701 72.1023C55.0769 71.8561 55.3079 71.5208 55.4632 71.0966C55.6223 70.6686 55.7019 70.1818 55.7019 69.6364C55.7019 69.0947 55.6242 68.6136 55.4689 68.1932C55.3136 67.7727 55.0826 67.4432 54.7757 67.2045C54.4689 66.9659 54.0864 66.8466 53.628 66.8466C53.1886 66.8466 52.8155 66.9621 52.5087 67.1932C52.2019 67.4242 51.9689 67.7481 51.8098 68.1648C51.6545 68.5814 51.5769 69.072 51.5769 69.6364ZM65.1096 70.3295V65.2727H67.1664V74H65.1721V72.4489H65.0811C64.8842 72.9375 64.5603 73.3371 64.1096 73.6477C63.6626 73.9583 63.1114 74.1136 62.4561 74.1136C61.8842 74.1136 61.3785 73.9867 60.9391 73.733C60.5035 73.4754 60.1626 73.1023 59.9164 72.6136C59.6702 72.1212 59.5471 71.5265 59.5471 70.8295V65.2727H61.6039V70.5114C61.6039 71.0644 61.7554 71.5038 62.0584 71.8295C62.3614 72.1553 62.7592 72.3182 63.2516 72.3182C63.5546 72.3182 63.8482 72.2443 64.1323 72.0966C64.4164 71.9489 64.6493 71.7292 64.8311 71.4375C65.0167 71.142 65.1096 70.7727 65.1096 70.3295ZM73.6394 65.2727V66.8636H68.6223V65.2727H73.6394ZM69.861 63.1818H71.9178V71.375C71.9178 71.6515 71.9595 71.8636 72.0428 72.0114C72.1299 72.1553 72.2435 72.2538 72.3837 72.3068C72.5239 72.3598 72.6792 72.3864 72.8496 72.3864C72.9784 72.3864 73.0958 72.3769 73.2019 72.358C73.3117 72.339 73.3951 72.322 73.4519 72.3068L73.7985 73.9148C73.6886 73.9527 73.5314 73.9943 73.3269 74.0398C73.1261 74.0852 72.8799 74.1117 72.5882 74.1193C72.0731 74.1345 71.6091 74.0568 71.1962 73.8864C70.7833 73.7121 70.4557 73.4432 70.2132 73.0795C69.9746 72.7159 69.8572 72.2614 69.861 71.7159V63.1818ZM79.1294 74.1705C78.2544 74.1705 77.4988 73.9886 76.8624 73.625C76.2298 73.2576 75.7431 72.7386 75.4022 72.0682C75.0613 71.3939 74.8908 70.6004 74.8908 69.6875C74.8908 68.7898 75.0613 68.0019 75.4022 67.3239C75.7469 66.642 76.2279 66.1117 76.8453 65.733C77.4628 65.3504 78.1882 65.1591 79.0215 65.1591C79.5594 65.1591 80.0669 65.2462 80.5442 65.4205C81.0253 65.5909 81.4495 65.8561 81.8169 66.2159C82.1882 66.5758 82.4798 67.0341 82.6919 67.5909C82.9041 68.1439 83.0101 68.803 83.0101 69.5682V70.1989H75.8567V68.8125H81.0385C81.0347 68.4186 80.9495 68.0682 80.7828 67.7614C80.6162 67.4508 80.3832 67.2064 80.084 67.0284C79.7885 66.8504 79.4438 66.7614 79.0499 66.7614C78.6294 66.7614 78.2601 66.8636 77.9419 67.0682C77.6238 67.2689 77.3757 67.5341 77.1976 67.8636C77.0234 68.1894 76.9344 68.5473 76.9306 68.9375V70.1477C76.9306 70.6553 77.0234 71.0909 77.209 71.4545C77.3946 71.8144 77.6541 72.0909 77.9874 72.2841C78.3207 72.4735 78.7109 72.5682 79.1578 72.5682C79.4571 72.5682 79.7279 72.5265 79.9703 72.4432C80.2128 72.3561 80.423 72.2292 80.601 72.0625C80.7791 71.8958 80.9135 71.6894 81.0044 71.4432L82.9249 71.6591C82.8037 72.1667 82.5726 72.6098 82.2317 72.9886C81.8946 73.3636 81.4628 73.6553 80.9363 73.8636C80.4097 74.0682 79.8075 74.1705 79.1294 74.1705Z" fill="black"/>
<path d="M93.4111 109.713C93.6064 109.518 93.6064 109.201 93.4111 109.006L90.229 105.824C90.0337 105.629 89.7172 105.629 89.5219 105.824C89.3266 106.019 89.3267 106.336 89.5219 106.531L92.3505 109.359L89.5221 112.188C89.3269 112.383 89.3269 112.7 89.5222 112.895C89.7174 113.09 90.034 113.09 90.2293 112.895L93.4111 109.713ZM45.5457 109.361L45.5456 108.861L45.5456 108.861L45.5457 109.361ZM41.7787 105.594L41.2787 105.594L41.2787 105.594L41.7787 105.594ZM42.1339 89.1183C41.9386 88.9231 41.622 88.923 41.4268 89.1183L38.2445 92.3C38.0492 92.4952 38.0492 92.8118 38.2444 93.0071C38.4397 93.2024 38.7562 93.2024 38.9515 93.0071L41.7802 90.179L44.6084 93.0077C44.8036 93.203 45.1202 93.203 45.3155 93.0077C45.5108 92.8125 45.5108 92.4959 45.3155 92.3006L42.1339 89.1183ZM93.0575 108.859L45.5456 108.861L45.5457 109.861L93.0576 109.859L93.0575 108.859ZM42.2787 105.594L42.2803 89.4719L41.2803 89.4718L41.2787 105.594L42.2787 105.594ZM45.5456 108.861C43.7413 108.861 42.2786 107.399 42.2787 105.594L41.2787 105.594C41.2785 107.951 43.189 109.861 45.5457 109.861L45.5456 108.861Z" fill="#7E22CE" fill-opacity="0.7"/>
<path d="M25.3201 206.08C25.2254 205.773 25.0948 205.498 24.9281 205.256C24.7652 205.009 24.5682 204.799 24.3372 204.625C24.1099 204.451 23.8485 204.32 23.5531 204.233C23.2576 204.142 22.9357 204.097 22.5872 204.097C21.9622 204.097 21.4054 204.254 20.9167 204.568C20.4281 204.883 20.0436 205.345 19.7633 205.955C19.4868 206.561 19.3485 207.299 19.3485 208.17C19.3485 209.049 19.4868 209.794 19.7633 210.403C20.0398 211.013 20.4243 211.477 20.9167 211.795C21.4092 212.11 21.9811 212.267 22.6326 212.267C23.2235 212.267 23.7349 212.153 24.1667 211.926C24.6023 211.699 24.9376 211.377 25.1724 210.96C25.4073 210.54 25.5247 210.047 25.5247 209.483L26.002 209.557H22.8429V207.909H27.5645V209.307C27.5645 210.303 27.3523 211.165 26.9281 211.892C26.5038 212.619 25.9205 213.18 25.1781 213.574C24.4357 213.964 23.5834 214.159 22.6213 214.159C21.5493 214.159 20.608 213.919 19.7974 213.438C18.9906 212.953 18.3599 212.265 17.9054 211.375C17.4546 210.481 17.2292 209.42 17.2292 208.193C17.2292 207.254 17.3618 206.415 17.627 205.676C17.8959 204.938 18.2709 204.311 18.752 203.795C19.233 203.277 19.7974 202.883 20.4451 202.614C21.0929 202.341 21.7974 202.205 22.5588 202.205C23.2027 202.205 23.8031 202.299 24.3599 202.489C24.9167 202.674 25.411 202.939 25.8429 203.284C26.2785 203.629 26.6364 204.038 26.9167 204.511C27.197 204.985 27.3807 205.508 27.4679 206.08H25.3201ZM33.3187 214.17C32.4664 214.17 31.7278 213.983 31.1028 213.608C30.4778 213.233 29.993 212.708 29.6483 212.034C29.3074 211.36 29.1369 210.572 29.1369 209.67C29.1369 208.769 29.3074 207.979 29.6483 207.301C29.993 206.623 30.4778 206.097 31.1028 205.722C31.7278 205.347 32.4664 205.159 33.3187 205.159C34.171 205.159 34.9096 205.347 35.5346 205.722C36.1596 206.097 36.6426 206.623 36.9835 207.301C37.3282 207.979 37.5005 208.769 37.5005 209.67C37.5005 210.572 37.3282 211.36 36.9835 212.034C36.6426 212.708 36.1596 213.233 35.5346 213.608C34.9096 213.983 34.171 214.17 33.3187 214.17ZM33.3301 212.523C33.7922 212.523 34.1786 212.396 34.4892 212.142C34.7998 211.884 35.0308 211.54 35.1824 211.108C35.3377 210.676 35.4153 210.195 35.4153 209.665C35.4153 209.131 35.3377 208.648 35.1824 208.216C35.0308 207.78 34.7998 207.434 34.4892 207.176C34.1786 206.919 33.7922 206.79 33.3301 206.79C32.8566 206.79 32.4627 206.919 32.1483 207.176C31.8377 207.434 31.6047 207.78 31.4494 208.216C31.2979 208.648 31.2221 209.131 31.2221 209.665C31.2221 210.195 31.2979 210.676 31.4494 211.108C31.6047 211.54 31.8377 211.884 32.1483 212.142C32.4627 212.396 32.8566 212.523 33.3301 212.523ZM46.7449 205.273L43.6369 214H41.3642L38.2562 205.273H40.4494L42.4551 211.756H42.546L44.5574 205.273H46.7449ZM51.7349 214.17C50.8599 214.17 50.1042 213.989 49.4679 213.625C48.8353 213.258 48.3485 212.739 48.0076 212.068C47.6667 211.394 47.4963 210.6 47.4963 209.688C47.4963 208.79 47.6667 208.002 48.0076 207.324C48.3523 206.642 48.8334 206.112 49.4508 205.733C50.0682 205.35 50.7936 205.159 51.627 205.159C52.1648 205.159 52.6724 205.246 53.1497 205.42C53.6307 205.591 54.055 205.856 54.4224 206.216C54.7936 206.576 55.0853 207.034 55.2974 207.591C55.5095 208.144 55.6156 208.803 55.6156 209.568V210.199H48.4622V208.812H53.644C53.6402 208.419 53.555 208.068 53.3883 207.761C53.2217 207.451 52.9887 207.206 52.6895 207.028C52.394 206.85 52.0493 206.761 51.6554 206.761C51.2349 206.761 50.8656 206.864 50.5474 207.068C50.2292 207.269 49.9811 207.534 49.8031 207.864C49.6288 208.189 49.5398 208.547 49.536 208.938V210.148C49.536 210.655 49.6288 211.091 49.8145 211.455C50.0001 211.814 50.2595 212.091 50.5929 212.284C50.9262 212.473 51.3163 212.568 51.7633 212.568C52.0626 212.568 52.3334 212.527 52.5758 212.443C52.8182 212.356 53.0285 212.229 53.2065 212.062C53.3845 211.896 53.519 211.689 53.6099 211.443L55.5304 211.659C55.4092 212.167 55.1781 212.61 54.8372 212.989C54.5001 213.364 54.0682 213.655 53.5417 213.864C53.0152 214.068 52.4129 214.17 51.7349 214.17ZM57.3556 214V205.273H59.35V206.727H59.4409C59.6 206.223 59.8727 205.835 60.2591 205.562C60.6492 205.286 61.0943 205.148 61.5943 205.148C61.7079 205.148 61.8348 205.153 61.975 205.165C62.1189 205.172 62.2382 205.186 62.3329 205.205V207.097C62.2458 207.066 62.1075 207.04 61.9181 207.017C61.7325 206.991 61.5526 206.977 61.3784 206.977C61.0034 206.977 60.6663 207.059 60.367 207.222C60.0716 207.381 59.8386 207.602 59.6681 207.886C59.4977 208.17 59.4125 208.498 59.4125 208.869V214H57.3556ZM65.7562 208.886V214H63.6994V205.273H65.6653V206.756H65.7676C65.9683 206.267 66.2884 205.879 66.7278 205.591C67.171 205.303 67.7183 205.159 68.3699 205.159C68.9721 205.159 69.4967 205.288 69.9437 205.545C70.3945 205.803 70.743 206.176 70.9892 206.665C71.2392 207.153 71.3623 207.746 71.3585 208.443V214H69.3017V208.761C69.3017 208.178 69.1502 207.722 68.8471 207.392C68.5479 207.062 68.1331 206.898 67.6028 206.898C67.243 206.898 66.9229 206.977 66.6426 207.136C66.3661 207.292 66.1483 207.517 65.9892 207.812C65.8339 208.108 65.7562 208.466 65.7562 208.886Z" fill="black"/>
<defs>
<filter id="filter0_i_1105_4313" x="146.67" y="124" width="36" height="28.7149" filterUnits="userSpaceOnUse" color-interpolation-filters="sRGB">
<feFlood flood-opacity="0" result="BackgroundImageFix"/>
<feBlend mode="normal" in="SourceGraphic" in2="BackgroundImageFix" result="shape"/>
<feColorMatrix in="SourceAlpha" type="matrix" values="0 0 0 0 0 0 0 0 0 0 0 0 0 0 0 0 0 0 127 0" result="hardAlpha"/>
<feOffset dy="0.579137"/>
<feGaussianBlur stdDeviation="0.289568"/>
<feComposite in2="hardAlpha" operator="arithmetic" k2="-1" k3="1"/>
<feColorMatrix type="matrix" values="0 0 0 0 0 0 0 0 0 0 0 0 0 0 0 0 0 0 0.25 0"/>
<feBlend mode="normal" in2="shape" result="effect1_innerShadow_1105_4313"/>
</filter>
<linearGradient id="paint0_linear_1105_4313" x1="192.118" y1="193.973" x2="127.343" y2="96.9318" gradientUnits="userSpaceOnUse">
<stop stop-color="#F5D0FE"/>
<stop offset="1" stop-color="white"/>
</linearGradient>
</defs>
</svg>
