<svg width="21" height="21" viewBox="0 0 21 21" fill="none" xmlns="http://www.w3.org/2000/svg">
<g clip-path="url(#clip0_5673_8492)">
<path d="M6.40446 11.61C6.9887 11.61 7.55868 11.4153 8.01942 11.059L4.31452 7.35413C3.42155 8.50834 3.63529 10.1708 4.78951 11.0638C5.255 11.4153 5.82023 11.61 6.40446 11.61Z" fill="black"/>
<path d="M17.4238 8.9642C17.4238 8.37996 17.2291 7.80998 16.8729 7.34924L13.168 11.0541C14.3222 11.9471 15.9799 11.7334 16.8729 10.5791C17.2291 10.1184 17.4238 9.54843 17.4238 8.9642Z" fill="black"/>
<path d="M19.2904 4.93201L17.6517 6.57071C18.9722 8.15241 18.7632 10.5083 17.1815 11.8288C15.7945 12.9878 13.7806 12.9878 12.3936 11.8288L10.5934 13.629L8.798 11.8336C7.21629 13.154 4.86036 12.945 3.5399 11.3633C2.38093 9.97636 2.38093 7.96242 3.5399 6.57546L2.69918 5.73473L1.9012 4.93201C0.936977 6.51846 0.428741 8.34241 0.428741 10.1996C0.428741 15.8139 4.97911 20.3643 10.5934 20.3643C16.2078 20.3643 20.7582 15.8139 20.7582 10.1996C20.7629 8.34241 20.2499 6.51846 19.2904 4.93201Z" fill="black"/>
<path d="M17.9464 3.18376C14.0752 -0.877374 7.64392 -1.02937 3.58279 2.84177C3.46404 2.95577 3.35005 3.06976 3.2408 3.18376C2.98906 3.44975 2.75156 3.72524 2.52832 4.01498L10.5936 12.085L18.6588 4.01498C18.4404 3.72524 18.1981 3.44975 17.9464 3.18376ZM10.5936 1.36456C12.9685 1.36456 15.182 2.28128 16.8444 3.95324L10.5936 10.2041L4.34277 3.95324C6.00522 2.28128 8.21865 1.36456 10.5936 1.36456Z" fill="black"/>
</g>
<defs>
<clipPath id="clip0_5673_8492">
<rect width="20.3294" height="20.3294" fill="white" transform="translate(0.428833 0.0350342)"/>
</clipPath>
</defs>
</svg>
