<svg xmlns="http://www.w3.org/2000/svg" width="277" height="172" viewBox="0 0 277 172" fill="none">
<path d="M138.334 147.999C171.176 147.999 197.8 121.376 197.8 88.5336C197.8 55.6916 171.176 29.0679 138.334 29.0679C105.492 29.0679 78.8682 55.6916 78.8682 88.5336C78.8682 121.376 105.492 147.999 138.334 147.999Z" fill="white" stroke="#F5D0FE" stroke-width="1.07517" stroke-miterlimit="10"/>
<path d="M138.334 142.931C171.176 142.931 197.8 116.308 197.8 83.4657C197.8 50.6237 171.176 24 138.334 24C105.492 24 78.8682 50.6237 78.8682 83.4657C78.8682 116.308 105.492 142.931 138.334 142.931Z" fill="#F5D0FE"/>
<g clip-path="url(#clip0_1116_12)">
<mask id="mask0_1116_12" style="mask-type:luminance" maskUnits="userSpaceOnUse" x="120" y="70" width="35" height="28">
<path d="M154.724 70.0581H120.244V97.173H154.724V70.0581Z" fill="white"/>
</mask>
<g mask="url(#mask0_1116_12)">
<path d="M121.662 76.1967V71.4756H153.306V76.1967H121.662ZM121.662 85.894V81.173H153.306V85.894H121.662ZM121.662 95.5914V90.8703H134.252V95.5914H121.662ZM140.717 95.5914V90.8703H153.306V95.5914H140.717Z" fill="#7E22CE"/>
<path fill-rule="evenodd" clip-rule="evenodd" d="M120.244 77.6147V70.0581H154.724V77.6147H120.244ZM120.244 87.3121V79.7555H154.724V87.3121H120.244ZM120.244 97.0093V89.4528H135.669V97.0093H120.244ZM139.299 97.0093V89.4528H154.724V97.0093H139.299ZM121.662 76.1969H153.306V71.4759H121.662V76.1969ZM121.662 85.8943H153.306V81.1732H121.662V85.8943ZM121.662 95.5917H134.251V90.8707H121.662V95.5917ZM140.716 95.5917H153.306V90.8707H140.716V95.5917Z" fill="#7E22CE"/>
</g>
</g>
<path d="M138.404 124.795C161.229 124.795 179.733 106.291 179.733 83.4657C179.733 60.6401 161.229 42.1362 138.404 42.1362C115.578 42.1362 97.0742 60.6401 97.0742 83.4657C97.0742 106.291 115.578 124.795 138.404 124.795Z" stroke="white" stroke-width="3.22551" stroke-miterlimit="10"/>
<defs>
<clipPath id="clip0_1116_12">
<rect width="34.4796" height="27.1149" fill="white" transform="translate(120.245 70.0576)"/>
</clipPath>
</defs>
</svg>