<svg width="98" height="101" viewBox="0 0 98 101" fill="none" xmlns="http://www.w3.org/2000/svg">
<path d="M48.9558 100.495C75.4413 100.495 96.9121 79.0247 96.9121 52.5392C96.9121 26.0537 75.4413 4.58301 48.9558 4.58301C22.4703 4.58301 0.999573 26.0537 0.999573 52.5392C0.999573 79.0247 22.4703 100.495 48.9558 100.495Z" fill="white" stroke="#F5D0FE" stroke-width="0.867072" stroke-miterlimit="10"/>
<path d="M48.9557 96.4086C75.4412 96.4086 96.912 74.9378 96.912 48.4523C96.912 21.9668 75.4412 0.496094 48.9557 0.496094C22.4702 0.496094 0.999481 21.9668 0.999481 48.4523C0.999481 74.9378 22.4702 96.4086 48.9557 96.4086Z" fill="#F5D0FE"/>
<g clip-path="url(#clip0_3817_2679)">
<mask id="mask0_3817_2679" style="mask-type:luminance" maskUnits="userSpaceOnUse" x="34" y="37" width="29" height="23">
<path d="M62.1728 37.6396H34.3667V59.5065H62.1728V37.6396Z" fill="white"/>
</mask>
<g mask="url(#mask0_3817_2679)">
<path d="M35.5099 42.59V38.7827H61.0293V42.59H35.5099ZM35.5099 50.4105V46.6032H61.0293V50.4105H35.5099ZM35.5099 58.2309V54.4237H45.6627V58.2309H35.5099ZM50.8764 58.2309V54.4237H61.0293V58.2309H50.8764Z" fill="#7E22CE"/>
<path fill-rule="evenodd" clip-rule="evenodd" d="M34.3667 43.7337V37.6396H62.1728V43.7337H34.3667ZM34.3667 51.5541V45.4601H62.1728V51.5541H34.3667ZM34.3667 59.3745V53.2805H46.8062V59.3745H34.3667ZM49.7332 59.3745V53.2805H62.1728V59.3745H49.7332ZM35.51 42.5903H61.0295V38.783H35.51V42.5903ZM35.51 50.4108H61.0295V46.6035H35.51V50.4108ZM35.51 58.2312H45.6629V54.424H35.51V58.2312ZM50.8765 58.2312H61.0295V54.424H50.8765V58.2312Z" fill="#7E22CE"/>
</g>
</g>
<path d="M49.0119 81.7825C67.4197 81.7825 82.3421 66.8601 82.3421 48.4523C82.3421 30.0445 67.4197 15.1221 49.0119 15.1221C30.6041 15.1221 15.6817 30.0445 15.6817 48.4523C15.6817 66.8601 30.6041 81.7825 49.0119 81.7825Z" stroke="white" stroke-width="2.60122" stroke-miterlimit="10"/>
<defs>
<clipPath id="clip0_3817_2679">
<rect width="27.8061" height="21.8669" fill="white" transform="translate(34.3678 37.6392)"/>
</clipPath>
</defs>
</svg>
