<svg width="21" height="21" viewBox="0 0 21 21" fill="none" xmlns="http://www.w3.org/2000/svg">
<g style="mix-blend-mode:luminosity" clip-path="url(#clip0_5673_8516)">
<path fill-rule="evenodd" clip-rule="evenodd" d="M10.2671 20.3644C15.8809 20.3644 20.4318 15.8136 20.4318 10.1997C20.4318 4.58593 15.8809 0.0350342 10.2671 0.0350342C4.65331 0.0350342 0.102417 4.58593 0.102417 10.1997C0.102417 15.8136 4.65331 20.3644 10.2671 20.3644ZM7.30333 12.8989C6.69752 12.8989 6.20148 12.7566 5.81522 12.472C5.43303 12.1833 5.24193 11.7686 5.24193 11.236C5.24193 11.1221 5.25413 10.988 5.27852 10.8253C5.34358 10.4594 5.43709 10.0203 5.55907 9.50393C5.90467 8.10526 6.79916 7.40593 8.23848 7.40593C8.62881 7.40593 8.98254 7.47099 9.29155 7.60516C9.60055 7.7312 9.84451 7.92637 10.0234 8.18658C10.2023 8.44273 10.2918 8.74767 10.2918 9.10141C10.2918 9.20712 10.2796 9.34129 10.2552 9.50393C10.1779 9.95524 10.0885 10.3984 9.97868 10.8253C9.79978 11.5206 9.49484 12.0451 9.05573 12.3907C8.62068 12.7322 8.03519 12.8989 7.30333 12.8989ZM7.41311 11.8012C7.69772 11.8012 7.93761 11.7158 8.13684 11.5491C8.34013 11.3824 8.4865 11.1262 8.57189 10.7765C8.6898 10.2968 8.77925 9.88205 8.84023 9.52426C8.86056 9.41854 8.87276 9.30877 8.87276 9.19492C8.87276 8.73141 8.63287 8.49965 8.14903 8.49965C7.86442 8.49965 7.62047 8.58504 7.41718 8.75174C7.21795 8.91844 7.07564 9.17459 6.99026 9.52426C6.89674 9.86579 6.80729 10.2805 6.71378 10.7765C6.69345 10.8782 6.68125 10.9839 6.68125 11.0978C6.67719 11.5694 6.9252 11.8012 7.41311 11.8012ZM10.5145 12.7733C10.547 12.8099 10.5877 12.8261 10.6446 12.8261H11.6814C11.7343 12.8261 11.783 12.8099 11.8278 12.7733C11.8766 12.7367 11.901 12.692 11.9132 12.635L12.2628 10.964H13.2915C13.9583 10.964 14.4828 10.8257 14.865 10.5452C15.2553 10.2646 15.5115 9.83365 15.6375 9.24816C15.666 9.10992 15.6822 8.97575 15.6822 8.84971C15.6822 8.40652 15.5074 8.06906 15.1618 7.83324C14.8203 7.60148 14.3689 7.48357 13.8038 7.48357H11.7749C11.7221 7.48357 11.6733 7.49983 11.6285 7.53643C11.5798 7.57302 11.5513 7.61774 11.5432 7.67467L10.4901 12.635C10.482 12.6879 10.4901 12.7326 10.5145 12.7733ZM13.9014 9.73607C13.7428 9.85398 13.5598 9.9109 13.3443 9.9109H12.4702L12.7589 8.54476H13.6737C13.881 8.54476 14.0315 8.58542 14.1169 8.66674C14.2022 8.74399 14.247 8.85784 14.247 9.00421C14.247 9.06926 14.2388 9.14651 14.2226 9.2319C14.1697 9.45146 14.064 9.61816 13.9014 9.73607Z" fill="black"/>
</g>
<defs>
<clipPath id="clip0_5673_8516">
<rect width="20.3294" height="20.3294" fill="white" transform="translate(0.101562 0.0357666)"/>
</clipPath>
</defs>
</svg>
