<svg width="126" height="20" viewBox="0 0 126 20" fill="none" xmlns="http://www.w3.org/2000/svg">
<g clip-path="url(#clip0_12875_168557)">
<path d="M18.8232 3.79712L10.5691 0.571161C10.2607 0.47628 10.1659 0.47628 9.85754 0.571161L1.60341 3.79712C1.27135 3.93944 1.2002 4.05804 1.2002 4.39013V15.4438C1.2002 15.7996 1.27135 15.8707 1.60341 16.0367L9.85754 19.4051C10.0235 19.4762 10.1184 19.5 10.237 19.5C10.3319 19.5 10.4505 19.4762 10.5928 19.4051L18.8469 16.0367C19.179 15.9181 19.2501 15.7996 19.2501 15.4438V4.39013C19.2264 4.05804 19.1552 3.93944 18.8232 3.79712ZM17.1392 15.4912L10.2133 18.2665L3.28744 15.4912L10.2133 13.0006L17.1392 15.4912ZM3.31116 4.34268L10.2133 1.70973L17.1154 4.34268L10.2133 6.85705L3.31116 4.34268ZM12.8461 11.9806C12.9884 11.9332 13.0833 11.7909 13.0833 11.6485V8.2091C13.0833 8.06675 12.9884 7.92445 12.8461 7.877L11.921 7.4975L18.0405 5.24405V14.6136L11.921 12.3602L12.8461 11.9806ZM11.8736 8.8021V11.0555L10.2133 11.7197L8.57669 11.0555V8.8021L10.2133 8.1379L11.8736 8.8021ZM7.60424 7.877C7.46194 7.92445 7.36704 8.06675 7.36704 8.2328V11.6485C7.36704 11.7909 7.46194 11.9332 7.60424 11.9806L8.52929 12.3602L2.40985 14.6136V5.24405L8.52929 7.5212L7.60424 7.877Z" fill="#7D8A9E"/>
<path d="M28.3632 15.923H31.2403V6.36601H35.3963V4.07776H24.1904V6.36601H28.3632V15.923Z" fill="#7D8A9E"/>
<path d="M36.2759 15.923H39.153V10.8248H44.6046V15.923H47.4818V4.07776H44.6046V8.51971H39.153V4.07776H36.2759V15.923Z" fill="#7D8A9E"/>
<path d="M59.0987 8.62066H52.4867V6.38286H59.4522V4.07776H49.6094V15.923H59.4522V13.6179H52.4867V10.9258H59.0987V8.62066Z" fill="#7D8A9E"/>
<path d="M64.7588 15.923H71.2033C74.1138 15.923 75.8138 14.6274 75.8138 12.3896C75.8138 10.8921 74.7533 10.0004 73.6093 9.64701C74.5348 9.31051 75.3758 8.50286 75.3758 7.12321C75.3758 5.45745 74.1478 4.07776 71.3208 4.07776H64.7588V15.923ZM67.5858 8.70476V6.23141H70.7323C71.7248 6.23141 72.4148 6.58476 72.4148 7.47651C72.4148 8.20001 71.9938 8.70476 70.7153 8.70476H67.5858ZM67.5858 10.8585H70.8838C72.1453 10.8585 72.7848 11.3464 72.7848 12.2886C72.7848 13.4664 71.9438 13.7861 70.8333 13.7861H67.5858V10.8585Z" fill="#7D8A9E"/>
<path d="M77.1392 15.923H86.2587V13.6179H80.0162V4.07776H77.1392V15.923Z" fill="#7D8A9E"/>
<path d="M93.0392 3.82532C89.0177 3.82532 86.5952 6.70249 86.5952 9.96664C86.5952 13.4327 88.8832 16.1753 92.9047 16.1753C97.2117 16.1753 99.3992 13.2476 99.3992 9.94984C99.3992 6.71934 97.1782 3.82532 93.0392 3.82532ZM92.9552 6.06309C95.3442 6.06309 96.3707 7.89709 96.3707 9.98349C96.3707 11.9184 95.4452 13.9375 93.0727 13.9375C90.7512 13.9375 89.6237 12.1708 89.6237 9.93299C89.6237 7.93074 90.6497 6.06309 92.9552 6.06309Z" fill="#7D8A9E"/>
<path d="M109.479 12.154C109.008 13.2981 108.267 13.9543 106.585 13.9543C104.246 13.9543 103.203 12.0866 103.203 9.89934C103.203 7.74569 104.347 6.04629 106.568 6.04629C108.587 6.04629 109.226 7.13994 109.479 7.81299H112.39C112.036 5.84439 110.236 3.82532 106.602 3.82532C102.412 3.82532 100.174 6.76979 100.174 10.0171C100.174 13.2476 102.21 16.1753 106.45 16.1753C110.169 16.1753 111.818 14.2403 112.356 12.154H109.479Z" fill="#7D8A9E"/>
<path d="M113.41 15.923H116.288V12.0026L117.785 10.7575L122.143 15.923H125.71L119.838 9.17591L125.407 4.07776H121.891C119.636 6.18096 117.987 7.67841 116.288 9.26001V4.07776H113.41V15.923Z" fill="#7D8A9E"/>
</g>
<defs>
<clipPath id="clip0_12875_168557">
<rect width="125" height="19" fill="white" transform="translate(0.962402 0.5)"/>
</clipPath>
</defs>
</svg>
