<svg width="56" height="56" viewBox="0 0 56 56" fill="none" xmlns="http://www.w3.org/2000/svg">
<path d="M25.8771 25.6571C25.8771 27.1701 25.0842 28.4979 23.8912 29.2477C21.2806 30.4732 19.5109 28.5833 19.5398 27.0683C19.5398 24.8515 21.1134 24.3953 21.6386 24.3953C22.4814 24.3953 22.6366 23.7837 22.6366 23.3902C22.6366 22.9966 22.239 22.1851 21.2165 22.1851C19.0263 22.1851 17.4587 24.1724 17.3471 25.7513C17.3449 25.6965 17.3438 25.6415 17.3438 25.5863C17.3438 23.3673 19.2988 21.4193 21.6393 21.4193C23.9797 21.4193 25.8771 23.3167 25.8771 25.6571Z" fill="#282727"/>
<path d="M38.6071 25.6571C38.6071 27.1701 37.8142 28.4979 36.6213 29.2477C34.0106 30.4732 32.2409 28.5833 32.2698 27.0683C32.2698 24.8515 33.8435 24.3953 34.3686 24.3953C35.2115 24.3953 35.3667 23.7837 35.3667 23.3902C35.3667 22.9966 34.9691 22.1851 33.9466 22.1851C31.7564 22.1851 30.1887 24.1724 30.0771 25.7513L30.0752 25.6923L30.0744 25.6535L30.074 25.6204L30.0739 25.6035L30.0739 25.5863C30.0739 23.3673 32.0289 21.4193 34.3693 21.4193C36.7098 21.4193 38.6071 23.3167 38.6071 25.6571Z" fill="#282727"/>
<path d="M20.2258 33.7881C25.3752 37.7566 32.2645 36.8562 35.7446 33.8027L36.2313 34.2918C31.5013 40.3305 23.4795 39.1952 19.7284 34.2918L20.2258 33.7881Z" fill="#282727"/>
<path fill-rule="evenodd" clip-rule="evenodd" d="M28.9707 9.3292C28.9637 8.04571 28.5652 1.64903 28.5652 1.64903C28.5652 1.64903 28.5943 0.689453 27.996 0.689453C27.3977 0.689453 27.4269 1.64903 27.4269 1.64903L26.9674 9.32477C19.2346 9.73528 12.3605 15.0713 9.90102 22.4497L9.83212 22.403C7.47752 22.1884 5.03906 24.0784 4.2527 26.3383C3.48273 28.551 3.67449 31.5963 6.06601 33.7797C7.70682 35.2777 8.94188 35.2693 10.2557 35.2149L10.2801 35.1969C12.4496 40.4706 17.0603 44.4952 22.6878 46.0775V46.8062C21.7613 46.8904 16.9398 47.4239 14.4647 49.5812C14.4647 49.5812 18.4968 55.3104 27.9244 55.3104C37.3521 55.3104 41.4363 49.5495 41.4363 49.5495C38.9459 47.4911 34.6127 46.9452 33.3008 46.8239V46.0922C38.9313 44.5235 43.5234 40.5019 45.7292 35.204L45.744 35.2149C47.0578 35.2693 48.2929 35.2777 49.9337 33.7797C52.3252 31.5963 52.517 28.551 51.747 26.3383C50.9669 24.0963 48.5607 22.2184 46.2236 22.3983C43.7585 15.0505 36.6801 9.77023 28.9707 9.3292ZM44.426 34.238C41.8983 40.7294 35.4918 45.2419 28.0193 45.2419C20.5325 45.2419 14.0636 40.6954 11.5855 34.228C13.0574 32.9832 13.7973 31.2631 13.7973 28.8648C13.7973 26.3897 12.7395 24.3764 11.2552 23.3658C12.9098 17.9444 17.1496 13.6586 22.3438 11.8294C22.2777 11.9412 22.1702 12.1977 22.1702 12.6826C22.1702 13.3826 23.2342 16.3506 27.9942 16.3506C32.7542 16.3506 33.9302 13.4946 33.9302 12.6546C33.9302 12.2464 33.8575 12.0233 33.7828 11.9019C38.9525 13.762 43.2227 17.9773 44.86 23.288L44.804 23.3259C43.2885 24.3228 42.2024 26.3567 42.2024 28.8648C42.2024 31.2695 42.9462 32.9924 44.426 34.238ZM7.94009 24.8251C7.58069 24.8986 5.82527 26.3429 5.82527 28.7511C5.82527 31.1593 7.58175 32.6458 7.99956 32.7087C6.88845 30.323 6.88938 26.9397 7.94009 24.8251ZM48.0596 24.8251C48.419 24.8986 50.1744 26.3429 50.1744 28.7511C50.1744 31.1593 48.4179 32.6458 48.0001 32.7087C49.1113 30.323 49.1103 26.9397 48.0596 24.8251ZM24.1943 12.4845L24.4136 12.3001C24.4381 12.2795 24.4503 12.2693 24.4627 12.271C24.4751 12.2728 24.4842 12.2865 24.5023 12.3139C24.6828 12.586 25.5782 13.7194 27.9743 13.7194C30.4027 13.7194 31.4443 12.5597 31.6414 12.3086C31.6439 12.3055 31.6462 12.3025 31.6483 12.2998C31.6548 12.2916 31.6601 12.2855 31.6649 12.2811C31.6698 12.2767 31.6743 12.2742 31.6794 12.2736C31.6866 12.2727 31.6936 12.2758 31.7034 12.2826C31.7092 12.2866 31.7159 12.2919 31.7242 12.2985L31.9321 12.4622C31.9654 12.4884 31.9894 12.5074 32.0057 12.5259C32.0113 12.5323 32.0159 12.5386 32.0197 12.5451C32.0247 12.5537 32.0282 12.5626 32.0303 12.5726C32.0387 12.6122 32.0229 12.6423 31.9912 12.7025C31.7649 13.1323 30.8655 14.3862 28.0767 14.3862C25.2844 14.3862 24.3713 13.1459 24.1413 12.7233C24.1093 12.6647 24.0934 12.6353 24.1008 12.5961C24.1082 12.5568 24.1369 12.5327 24.1943 12.4845ZM33.3008 48.1876C33.3008 51.0087 22.6878 51.1135 22.6878 48.217V47.9705C20.9013 48.3809 19.7665 48.9952 19.7665 49.6817C19.7665 50.9174 23.4433 51.9191 27.979 51.9191C32.5147 51.9191 36.1916 50.9174 36.1916 49.6817C36.1916 48.9991 35.0697 48.3879 33.3008 47.9775V48.1876Z" fill="#282727"/>
</svg>
