<svg xmlns="http://www.w3.org/2000/svg" xmlns:xlink="http://www.w3.org/1999/xlink" viewBox="0 0 400 200"><defs><style>.cls-1{fill:none;}.cls-1,.cls-2{stroke:#000;}.cls-1,.cls-2,.cls-9{stroke-miterlimit:10;}.cls-2,.cls-7,.cls-9{fill:#fff;}.cls-3{fill:#1a1a1a;}.cls-4{fill:#4d4d4d;}.cls-5{fill:#7200d5;}.cls-6{fill:#00ffb1;}.cls-8{fill:#7200d6;}.cls-9{stroke:#7200d6;}.cls-10{fill:url(#linear-gradient);}.cls-11{fill:#050505;}</style><linearGradient id="linear-gradient" x1="202.27" y1="141.69" x2="227.46" y2="141.69" gradientUnits="userSpaceOnUse"><stop offset="0" stop-color="#7200d6"/><stop offset="1"/></linearGradient></defs><g id="code_registry" data-name="code registry"><path class="cls-1" d="M267.56,90.36H183.83v4.48c0,3.81-2.05,6.89-4.58,6.89H174c-6.66,0-10.92-8.11-10.92-18.11V17.7h96.8V90.36"/><line class="cls-1" x1="178.1" y1="101.73" x2="263.07" y2="101.73"/><path class="cls-1" d="M262.88,101.73s2.79.15,4.38-3.82a17.68,17.68,0,0,0,1.35-7.55H267.4"/><rect class="cls-2" x="177.66" y="31.55" width="43.76" height="43.76"/><rect class="cls-2" x="172.92" y="28.54" width="43.67" height="42.84"/><rect class="cls-3" x="177.66" y="32.74" width="34.18" height="1.23"/><rect class="cls-4" x="177.66" y="36.36" width="34.18" height="1.23"/><rect class="cls-5" x="177.66" y="40.01" width="19.82" height="1.23"/><rect class="cls-5" x="194.6" y="43.3" width="17.09" height="1.23"/><rect class="cls-6" x="177.66" y="47.28" width="9.91" height="1.23"/><rect class="cls-4" x="177.66" y="50.89" width="9.91" height="1.23"/><rect class="cls-6" x="200.61" y="50.89" width="11.08" height="1.23"/><rect class="cls-3" x="188.98" y="47.28" width="9.91" height="1.23"/><rect class="cls-5" x="188.98" y="50.89" width="9.91" height="1.23"/><rect class="cls-4" x="182.18" y="60.12" width="3.74" height="1.23" transform="translate(357.15 -26.47) rotate(135)"/><rect class="cls-4" x="182.18" y="58.36" width="3.74" height="1.23" transform="translate(95.61 -112.87) rotate(45)"/><path class="cls-5" d="M189.3,62.5H189V62h.28a.17.17,0,0,0,.17-.17V60.4a.66.66,0,0,1,.13-.4l.1-.14-.1-.14a.64.64,0,0,1-.13-.4V57.93a.21.21,0,0,0-.05-.12.16.16,0,0,0-.12,0H189v-.54h.32a.66.66,0,0,1,.49.18.65.65,0,0,1,.18.48v1.43a.16.16,0,0,0,0,.09l.21.3a.27.27,0,0,1,0,.15.25.25,0,0,1,0,.15l-.21.3a.16.16,0,0,0,0,.09v1.43a.62.62,0,0,1-.67.67Z"/><path class="cls-3" d="M178.13,62.32a.66.66,0,0,1-.18-.49V60.4a.16.16,0,0,0,0-.09l-.21-.3a.25.25,0,0,1-.05-.15.27.27,0,0,1,.05-.15l.21-.3a.16.16,0,0,0,0-.09V57.89a.62.62,0,0,1,.66-.66h.33v.54h-.29a.15.15,0,0,0-.11,0,.16.16,0,0,0,0,.12v1.39a.71.71,0,0,1-.13.4l-.1.14.1.14a.73.73,0,0,1,.13.4v1.39a.13.13,0,0,0,0,.12.16.16,0,0,0,.11.05h.29v.54h-.33A.65.65,0,0,1,178.13,62.32Z"/><circle class="cls-6" cx="260.51" cy="58.98" r="19.94"/><path class="cls-7" d="M269.72,52.57H266.9V49.76l2.23-2.23a.19.19,0,0,0-.07-.31,5.19,5.19,0,0,0-6.86,4.46,5,5,0,0,0,.18,1.87.78.78,0,0,1-.21.77L249.55,67a2.08,2.08,0,0,0,0,2.94l.1.1a2,2,0,0,0,2.81,0l12.69-12.68a.78.78,0,0,1,.78-.21,5,5,0,0,0,1.87.18,5.2,5.2,0,0,0,4.73-4.81,5.13,5.13,0,0,0-.3-2.12.14.14,0,0,0-.23-.05Z"/><path class="cls-8" d="M268.69,71.31a2.26,2.26,0,0,1-1.58-.65L261.42,65a.65.65,0,0,1-.18-.44v-1l-1.12-1.12h-1.05a.62.62,0,0,1-.44-.18l-1-1a.62.62,0,0,1,0-.87l.85-.85L251,52h-1a.61.61,0,0,1-.58-.43l-1.23-3.68.57-.19L250,51.35h1a.6.6,0,0,1,.44.18L258.92,59a.62.62,0,0,1,0,.87l-.85.85,1,1h1.05a.62.62,0,0,1,.43.18l1.12,1.12a.62.62,0,0,1,.18.43v1l5.69,5.71a1.64,1.64,0,0,0,2.32,0l.58-.59.42.43-.58.58A2.24,2.24,0,0,1,268.69,71.31Z"/><path class="cls-8" d="M270.84,70.1l-.42-.43,1.09-1.09a1.64,1.64,0,0,0,0-2.32l-5.69-5.69h-1.05a.58.58,0,0,1-.43-.18l-1.12-1.11a.6.6,0,0,1-.18-.44v-1l-1-1-.88.85a.62.62,0,0,1-.87,0l-7.48-7.48a.62.62,0,0,1-.18-.44v-.94l-3.7-1.25.19-.56,3.68,1.23a.6.6,0,0,1,.42.58v.94l7.49,7.5.88-.85a.62.62,0,0,1,.87,0l1,1a.65.65,0,0,1,.18.44v1L264.76,60h1.05a.58.58,0,0,1,.43.18l5.69,5.69a2.22,2.22,0,0,1,0,3.16Z"/><rect class="cls-8" x="248.35" y="47.27" width="0.96" height="0.6" transform="translate(38.36 188.58) rotate(-44.64)"/><rect class="cls-8" x="266.4" y="62.33" width="0.72" height="6.4" rx="0.27" transform="translate(31.79 207.82) rotate(-45)"/><rect class="cls-9" x="63.18" y="114.02" width="66.6" height="46.08" rx="7.84"/><path class="cls-8" d="M64.15,161.13H128a1.78,1.78,0,0,1,1.48.81l11.22,17.57a1.76,1.76,0,0,1-1.48,2.7H53.71a1.76,1.76,0,0,1-1.51-2.66L62.64,162A1.75,1.75,0,0,1,64.15,161.13Z"/><rect class="cls-2" x="288.39" y="114.54" width="66.6" height="46.08" rx="7.84"/><path d="M289.36,161.65h63.89a1.78,1.78,0,0,1,1.48.81L366,180a1.76,1.76,0,0,1-1.48,2.7H278.92a1.75,1.75,0,0,1-1.51-2.65l10.44-17.56A1.75,1.75,0,0,1,289.36,161.65Z"/><rect class="cls-10" x="202.27" y="135.93" width="25.19" height="11.53" rx="5.24"/><rect class="cls-11" x="214.25" y="108.43" width="1.25" height="27.5"/><circle class="cls-6" cx="215.08" cy="101.67" r="6.93"/><rect class="cls-8" x="129.78" y="141.07" width="72.49" height="1.25"/><rect x="227.46" y="141.07" width="60.93" height="1.25"/></g></svg>