<svg xmlns="http://www.w3.org/2000/svg" viewBox="0 0 400 200"><defs><style>.cls-1{fill:#7200d6;}.cls-2{fill:#03ff81;}</style></defs><g id="governance"><path d="M161.79,174h-2V160.35l.29-.29A9.93,9.93,0,0,0,163,153V129a3.77,3.77,0,0,0-3.76-3.76,3.44,3.44,0,0,0-3.44,3.44V139h-2V128.71a5.45,5.45,0,0,1,5.44-5.44A5.77,5.77,0,0,1,165,129V153a11.92,11.92,0,0,1-3.23,8.2Z"/><path d="M156.22,126.73h-2v-8a3.48,3.48,0,0,0-3.48-3.48v-2a5.49,5.49,0,0,1,5.48,5.48Z"/><path d="M136.36,137.67h-2v-24.1a5.8,5.8,0,0,1,5.8-5.8h.44a6.09,6.09,0,0,1,6.09,6.08v.41h-2v-.41a4.09,4.09,0,0,0-4.09-4.08h-.44a3.8,3.8,0,0,0-3.8,3.8Z"/><path d="M126.75,136.5h-2V122.25a6,6,0,0,1,6-6l.05,2h-.05a4,4,0,0,0-4,4Z"/><path d="M133.93,174h-2v-5.16l-7.47-7.48a7.75,7.75,0,0,1-2.3-5.53v-15a5.61,5.61,0,0,1,11.21,0v7.69a3.27,3.27,0,0,0,1,2.33l6,6-1.41,1.41-6-6a5.24,5.24,0,0,1-1.55-3.74V140.8a3.59,3.59,0,0,0-3.58-3.58,3.63,3.63,0,0,0-3.63,3.62v15a5.8,5.8,0,0,0,1.71,4.12l8.06,8.06Z"/><rect x="144.69" y="114.26" width="2" height="23.42"/><path d="M146.69,119.84h-2v-.5a6.06,6.06,0,0,1,6-6.08v2h0a4.06,4.06,0,0,0-4,4.08Z"/><path d="M136.34,122.27h-2v-.46a3.55,3.55,0,0,0-3.53-3.56v-2h0a5.55,5.55,0,0,1,5.53,5.56Z"/><path d="M165.75,179h-2a4,4,0,0,0-4-4H132.58a4,4,0,0,0-4,4h-2a6,6,0,0,1,6-6h27.19A6,6,0,0,1,165.75,179Z"/><path class="cls-1" d="M224.94,172.45h-2V154.63l.29-.29a13.39,13.39,0,0,0,4-9.54V113.36a5.26,5.26,0,0,0-5.25-5.26,4.84,4.84,0,0,0-4.84,4.84v13.47h-2V112.94a6.85,6.85,0,0,1,6.84-6.84,7.26,7.26,0,0,1,7.25,7.26V144.8a15.39,15.39,0,0,1-4.24,10.66Z"/><path class="cls-1" d="M217.62,110.34h-2V99.83A4.89,4.89,0,0,0,210.73,95V93a6.89,6.89,0,0,1,6.89,6.88Z"/><path class="cls-1" d="M191.53,124.71h-2V93.05a7.32,7.32,0,0,1,7.31-7.32h.58a7.69,7.69,0,0,1,7.68,7.69V94h-2v-.53a5.68,5.68,0,0,0-5.68-5.69h-.58a5.32,5.32,0,0,0-5.31,5.32Z"/><path class="cls-1" d="M178.9,123.17h-2V104.45a7.59,7.59,0,0,1,7.58-7.58l.07,2h-.07a5.58,5.58,0,0,0-5.58,5.58Z"/><path class="cls-1" d="M188.34,172.45h-2v-6.91l-9.91-9.91a9.94,9.94,0,0,1-2.92-7.06v-19.7a7,7,0,1,1,14.09-.05v10.1A4.58,4.58,0,0,0,189,142.2l7.9,7.9-1.42,1.41-7.9-7.89a6.62,6.62,0,0,1-1.94-4.7v-10.1a5,5,0,0,0-5-5,5.08,5.08,0,0,0-5.07,5.07v19.7a7.93,7.93,0,0,0,2.33,5.64l10.5,10.5Z"/><rect class="cls-1" x="203.1" y="93.95" width="2" height="30.76"/><path class="cls-1" d="M205.1,101.28h-2v-.66A7.65,7.65,0,0,1,210.72,93v2h0a5.65,5.65,0,0,0-5.62,5.67Z"/><path class="cls-1" d="M191.51,104.47h-2v-.59a5,5,0,0,0-4.95-5v-2h0a7,7,0,0,1,6.95,7Z"/><path class="cls-1" d="M230.14,179h-2a5.55,5.55,0,0,0-5.54-5.54H186.88a5.55,5.55,0,0,0-5.54,5.54h-2a7.55,7.55,0,0,1,7.54-7.54H222.6A7.55,7.55,0,0,1,230.14,179Z"/><path class="cls-2" d="M277.53,174h-2V160.35l.29-.29a10,10,0,0,0,2.94-7.09V129a3.77,3.77,0,0,0-3.77-3.76,3.45,3.45,0,0,0-3.44,3.44V139h-2V128.71a5.45,5.45,0,0,1,5.44-5.44,5.78,5.78,0,0,1,5.77,5.76V153a12,12,0,0,1-3.23,8.2Z"/><path class="cls-2" d="M272,126.73h-2v-8a3.49,3.49,0,0,0-3.49-3.48v-2a5.49,5.49,0,0,1,5.49,5.48Z"/><path class="cls-2" d="M252.09,137.67h-2v-24.1a5.81,5.81,0,0,1,5.81-5.8h.44a6.09,6.09,0,0,1,6.09,6.08v.41h-2v-.41a4.09,4.09,0,0,0-4.09-4.08h-.44a3.81,3.81,0,0,0-3.81,3.8Z"/><path class="cls-2" d="M242.48,136.5h-2V122.25a6,6,0,0,1,6-6l0,2h0a4,4,0,0,0-4,4Z"/><path class="cls-2" d="M249.67,174h-2v-5.16l-7.47-7.48a7.75,7.75,0,0,1-2.3-5.53v-15a5.61,5.61,0,0,1,11.21,0v7.69a3.27,3.27,0,0,0,1,2.33l6,6-1.41,1.41-6-6a5.24,5.24,0,0,1-1.55-3.74V140.8a3.59,3.59,0,0,0-3.59-3.58,3.63,3.63,0,0,0-3.62,3.62v15a5.79,5.79,0,0,0,1.71,4.12l8.06,8.06Z"/><rect class="cls-2" x="260.43" y="114.26" width="2" height="23.42"/><path class="cls-2" d="M262.43,119.84h-2v-.5a6.06,6.06,0,0,1,6-6.08v2h0a4.06,4.06,0,0,0-4,4.08Z"/><path class="cls-2" d="M252.08,122.27h-2v-.46a3.55,3.55,0,0,0-3.53-3.56v-2h0a5.55,5.55,0,0,1,5.53,5.56Z"/><path class="cls-2" d="M281.48,179h-2a4,4,0,0,0-4-4H248.32a4,4,0,0,0-4,4h-2a6,6,0,0,1,6-6H275.5A6,6,0,0,1,281.48,179Z"/><circle class="cls-1" cx="53.96" cy="133.46" r="14.56"/><path class="cls-1" d="M82.23,178.54l-56.54,0v-.15a28.19,28.19,0,0,1,28.2-28.2h0a28.33,28.33,0,0,1,28.34,28.33Z"/><circle class="cls-2" cx="197.32" cy="23.81" r="14.56"/><path class="cls-2" d="M225.59,68.89l-56.55,0v-.15a28.2,28.2,0,0,1,28.21-28.2h0a28.33,28.33,0,0,1,28.34,28.33Z"/><circle cx="348.05" cy="134.94" r="14.56"/><path d="M376.32,180l-56.54,0v-.16a28.2,28.2,0,0,1,28.2-28.2h0A28.34,28.34,0,0,1,376.32,180Z"/></g></svg>