<svg xmlns="http://www.w3.org/2000/svg" viewBox="0 0 400 200"><defs><style>.cls-1{fill:#00ffb1;}.cls-2{fill:none;stroke:#000;stroke-miterlimit:10;stroke-width:0.75px;}.cls-3{fill:#fff;}.cls-4{fill:#b3b5ff;}.cls-5{fill:#7200d6;}</style></defs><g id="olas_token" data-name="olas token"><circle cx="110.28" cy="102.44" r="47.06"/><circle class="cls-1" cx="110.28" cy="101.09" r="47.06"/><circle class="cls-2" cx="110.91" cy="101.09" r="42.1"/><rect class="cls-3" x="87.76" y="96.73" width="47.47" height="10.12"/><rect class="cls-3" x="87.76" y="84.96" width="47.47" height="10.12"/><rect class="cls-3" x="87.76" y="108.36" width="23.73" height="10.12"/><rect class="cls-3" x="112.73" y="108.36" width="22.49" height="10.12"/><circle cx="287.98" cy="103.12" r="47.06"/><circle class="cls-4" cx="287.98" cy="101.77" r="47.06"/><circle class="cls-2" cx="288.61" cy="101.77" r="42.1"/><rect class="cls-3" x="265.46" y="97.4" width="47.47" height="10.12"/><rect class="cls-3" x="265.46" y="85.64" width="47.47" height="10.12"/><rect class="cls-3" x="265.46" y="109.03" width="23.73" height="10.12"/><rect class="cls-3" x="290.43" y="109.03" width="22.49" height="10.12"/><circle cx="200" cy="100.9" r="62.51"/><circle class="cls-5" cx="200" cy="99.1" r="62.51"/><circle class="cls-2" cx="200.83" cy="99.1" r="55.92"/><rect class="cls-3" x="170.08" y="93.31" width="63.05" height="13.44"/><rect class="cls-3" x="170.08" y="77.68" width="63.05" height="13.44"/><rect class="cls-3" x="170.08" y="108.75" width="31.53" height="13.44"/><rect class="cls-3" x="203.26" y="108.75" width="29.88" height="13.44"/></g></svg>