<svg xmlns="http://www.w3.org/2000/svg" viewBox="0 0 400 200"><defs><style>.cls-1{fill:#7200d5;}.cls-2{fill:#03ff81;}.cls-3{fill:#7200d6;}</style></defs><g id="open_aea" data-name="open aea"><path class="cls-1" d="M202.07,66.49H196l-2.36-4.82c-.29-.07-.59-.15-.88-.24l-4.61,2.88-5.29-3.06.36-5.35c-.22-.21-.43-.43-.64-.65l-5.43.19L174,50.14l3-4.45c-.08-.29-.16-.59-.23-.89L172,42.25V36.14l4.82-2.36.24-.89-2.88-4.61L177.24,23l5.36.37.65-.65-.19-5.43,5.29-3.06,4.45,3,.89-.24,2.55-4.79h6.12L204.72,17c.29.07.59.15.88.24l4.61-2.88,5.29,3.06-.36,5.35.64.65,5.43-.19,3.06,5.3-3,4.45c.08.29.16.59.23.89l4.8,2.55v6.11l-4.82,2.36-.24.89,2.88,4.61-3.06,5.29-5.36-.37-.65.65.19,5.43L210,64.46l-4.45-3c-.29.09-.59.16-.89.24Zm-5.45-1.07h4.8l2.48-4.66.24,0c.44-.1.88-.22,1.3-.35l.25-.07,4.31,2.9,4.16-2.4L214,55.52l.18-.17c.33-.3.65-.62,1-1l.17-.18,5.19.35,2.4-4.15L220.08,46l.07-.24c.13-.43.25-.87.35-1.3l.06-.25,4.68-2.29v-4.8l-4.66-2.47-.06-.24c-.1-.44-.21-.88-.34-1.31l-.07-.24,2.9-4.32-2.4-4.15-5.28.18-.16-.18c-.31-.33-.63-.65-.95-.95l-.19-.18.36-5.19-4.16-2.4-4.47,2.79-.23-.07c-.44-.13-.87-.25-1.31-.35l-.25-.06-2.28-4.67h-4.8l-2.48,4.66-.24,0c-.43.1-.87.22-1.3.35l-.25.07-4.31-2.9-4.16,2.4.19,5.27-.18.17c-.33.31-.65.62-1,1l-.17.18-5.19-.35-2.41,4.15,2.8,4.47-.07.24c-.13.42-.25.86-.35,1.3l-.06.25-4.68,2.29v4.8l4.66,2.47.05.24c.11.44.22.88.35,1.31l.08.24-2.91,4.32,2.4,4.15,5.28-.18.16.18c.31.32.63.65,1,.95l.19.18-.36,5.19,4.16,2.4,4.47-2.79.23.07c.43.13.87.25,1.31.35l.25.06Z"/><circle class="cls-2" cx="199.15" cy="39.72" r="8.43"/><rect class="cls-3" x="172.17" y="134.77" width="53.97" height="53.97" rx="2.73"/><rect class="cls-3" x="52.95" y="147.12" width="29.28" height="29.28" rx="2.73"/><rect class="cls-3" x="313.01" y="147.12" width="29.28" height="29.28" rx="2.73"/><rect class="cls-3" x="258.59" y="86.64" width="29.28" height="29.28" rx="2.73"/><rect class="cls-3" x="110.29" y="86.64" width="29.28" height="29.28" rx="2.73"/><path class="cls-3" d="M125.43,90.81h-1V43.92a4.71,4.71,0,0,1,4.69-4.7H172v1H129.12a3.7,3.7,0,0,0-3.69,3.7Z"/><path class="cls-3" d="M273.73,90.88h-1V44a3.7,3.7,0,0,0-3.69-3.7H226.16v-1H269a4.7,4.7,0,0,1,4.69,4.7Z"/><path class="cls-3" d="M68.33,151h-1V104.06A4.7,4.7,0,0,1,72,99.36H114.9v1H72a3.7,3.7,0,0,0-3.69,3.7Z"/><path class="cls-3" d="M329.63,151h-1V104.13a3.7,3.7,0,0,0-3.69-3.7H282.06v-1h42.88a4.71,4.71,0,0,1,4.69,4.7Z"/><rect class="cls-3" x="80.53" y="161.26" width="236.94" height="1"/><rect class="cls-3" x="111.85" y="99.5" width="152.51" height="1"/><rect class="cls-3" x="198.5" y="65.27" width="1" height="81.85"/></g></svg>