<svg xmlns="http://www.w3.org/2000/svg" viewBox="0 0 400 200"><defs><style>.cls-1{fill:#6900f2;}.cls-2{fill:#fff;stroke:#000;stroke-miterlimit:10;}.cls-3{fill:#6900f1;}.cls-4{fill:#03ff81;}.cls-5{fill:#1a1a1a;}.cls-6{fill:#4d4d4d;}.cls-7{fill:#7200d5;}.cls-8{fill:#00ffb1;}</style></defs><g id="tokenmonics"><rect class="cls-1" x="143.57" y="31.09" width="241.31" height="153.7"/><rect class="cls-2" x="111.01" y="19.34" width="265.11" height="156.62"/><rect class="cls-2" x="13" y="51.17" width="111.12" height="111.12" rx="11.23"/><ellipse cx="67.77" cy="67.27" rx="31.8" ry="8.11"/><path d="M67.82,85.84C52.18,85.84,36,82.63,36,77.26h.93c0,3.69,12.41,7.65,30.89,7.65s30.89-4,30.89-7.65h.93C99.64,82.63,83.46,85.84,67.82,85.84Z"/><rect x="36" y="67.27" width="0.93" height="10.24"/><rect x="98.71" y="67.02" width="0.93" height="10.24"/><rect x="42.46" y="71.85" width="0.93" height="10.24"/><rect x="50.87" y="73.96" width="0.93" height="10.24"/><polygon class="cls-3" points="355.81 45.48 356.47 45.48 357.81 48.15 357.81 62.12 356.47 64.78 355.81 64.78 355.81 60.13 356.47 59.46 356.47 53.47 355.81 52.8 355.81 45.48"/><polygon class="cls-3" points="321.21 64.78 320.55 64.78 319.22 62.12 319.22 48.15 320.55 45.48 321.21 45.48 321.21 50.14 320.55 50.81 320.55 56.8 321.21 57.46 321.21 64.78"/><polygon class="cls-3" points="321.57 44.93 321.21 44.37 322.76 41.83 334.61 34.41 337.57 34.12 337.93 34.69 333.98 37.16 333.06 36.95 327.98 40.13 327.77 41.05 321.57 44.93"/><polygon class="cls-3" points="355.45 44.93 355.81 44.37 354.26 41.83 342.41 34.41 339.45 34.12 339.1 34.69 343.05 37.16 343.96 36.95 349.04 40.13 349.25 41.05 355.45 44.93"/><polygon class="cls-3" points="355.45 65.61 355.81 66.18 354.26 68.72 342.41 76.14 339.45 76.42 339.1 75.86 343.05 73.39 343.96 73.6 349.04 70.42 349.25 69.5 355.45 65.61"/><polygon class="cls-3" points="321.57 65.61 321.21 66.18 322.76 68.72 334.61 76.14 337.57 76.42 337.93 75.86 333.98 73.39 333.06 73.6 327.98 70.42 327.77 69.5 321.57 65.61"/><polygon class="cls-3" points="329.14 50.78 335.35 50.78 336.59 49.54 341.97 49.54 342.8 50.37 346.93 50.37 348.17 51.6 343.62 51.6 342.8 52.43 337.83 52.43 337.42 52.02 330.8 52.02 330.39 52.43 329.14 52.43 328.32 51.6 329.14 50.78"/><path class="cls-3" d="M329.13,55.12h5a.27.27,0,0,0,.19-.08l.84-.87a.27.27,0,0,1,.19-.08h7.16a.27.27,0,0,1,.19.08l1.14,1.18a.28.28,0,0,0,.2.08h3.9a.27.27,0,0,1,.27.27v.81a.27.27,0,0,1-.27.27h-4.8a.28.28,0,0,0-.2.08l-.24.25a.27.27,0,0,1-.19.08h-5.41a.27.27,0,0,1-.12,0l-.68-.35a.31.31,0,0,0-.13,0h-7a.25.25,0,0,1-.2-.09l-.54-.56a.27.27,0,0,1,0-.37l.54-.56A.28.28,0,0,1,329.13,55.12Z"/><polygon class="cls-3" points="339.58 59.46 348.17 59.46 348.17 61.12 345.72 61.12 345.31 61.53 343.26 61.53 342.85 61.12 339.99 61.12 339.58 60.7 339.58 59.46"/><path class="cls-3" d="M336.62,59.4h-2.93a.16.16,0,0,1-.11,0l-.28-.25a.21.21,0,0,0-.12-.05h-2.52a.18.18,0,0,0-.12.05l-.28.25a.16.16,0,0,1-.11,0H328.5a.18.18,0,0,0-.18.19v1.33a.19.19,0,0,0,.18.2h8.74a.19.19,0,0,0,.18-.2V59.87a.21.21,0,0,0-.11-.18l-.62-.28Z"/><ellipse class="cls-1" cx="67.77" cy="98.94" rx="31.8" ry="8.11"/><path class="cls-1" d="M67.82,117.51c-15.64,0-31.82-3.21-31.82-8.58h.93c0,3.69,12.41,7.65,30.89,7.65s30.89-4,30.89-7.65h.93C99.64,114.3,83.46,117.51,67.82,117.51Z"/><rect class="cls-1" x="36" y="98.94" width="0.93" height="10.24"/><rect class="cls-1" x="98.71" y="98.69" width="0.93" height="10.24"/><rect class="cls-1" x="42.46" y="103.52" width="0.93" height="10.24"/><rect class="cls-1" x="50.87" y="105.63" width="0.93" height="10.24"/><ellipse class="cls-4" cx="67.77" cy="130.61" rx="31.8" ry="8.11"/><path class="cls-4" d="M67.82,149.18C52.18,149.18,36,146,36,140.6h.93c0,3.69,12.41,7.65,30.89,7.65s30.89-4,30.89-7.65h.93C99.64,146,83.46,149.18,67.82,149.18Z"/><rect class="cls-4" x="36" y="130.61" width="0.93" height="10.24"/><rect class="cls-4" x="98.71" y="130.36" width="0.93" height="10.24"/><rect class="cls-4" x="42.46" y="135.19" width="0.93" height="10.24"/><rect class="cls-4" x="50.87" y="137.3" width="0.93" height="10.24"/><rect class="cls-5" x="129.58" y="39.95" width="160.25" height="5.12"/><rect class="cls-6" x="129.58" y="54.93" width="160.25" height="5.12"/><rect class="cls-7" x="129.58" y="70.1" width="82.24" height="5.12"/><rect class="cls-7" x="217.67" y="83.76" width="140.13" height="5.12"/><rect class="cls-8" x="129.58" y="100.25" width="41.12" height="5.12"/><rect class="cls-6" x="129.58" y="115.24" width="41.12" height="5.12"/><rect class="cls-8" x="224.8" y="115.24" width="45.96" height="5.12"/><rect class="cls-5" x="176.55" y="100.25" width="41.12" height="5.12"/><rect class="cls-7" x="176.55" y="115.24" width="41.12" height="5.12"/><rect class="cls-6" x="148.35" y="153.52" width="15.53" height="5.12" transform="translate(376.88 156.06) rotate(135)"/><rect class="cls-6" x="148.35" y="146.22" width="15.53" height="5.12" transform="translate(150.93 -66.81) rotate(45)"/><path class="cls-7" d="M177.89,163.38h-1.34v-2.22h1.17a.65.65,0,0,0,.49-.21.62.62,0,0,0,.2-.48V154.7A2.84,2.84,0,0,1,179,153l.42-.58-.42-.57a2.8,2.8,0,0,1-.54-1.67v-5.76a.66.66,0,0,0-.2-.49.68.68,0,0,0-.49-.2h-1.17v-2.24h1.34a2.57,2.57,0,0,1,2.76,2.76v5.93a.73.73,0,0,0,.12.37l.88,1.24a1.14,1.14,0,0,1,0,1.26l-.88,1.25a.59.59,0,0,0-.12.37v5.92a2.56,2.56,0,0,1-2.76,2.76Z"/><path class="cls-5" d="M131.52,162.64a2.69,2.69,0,0,1-.74-2V154.7a.59.59,0,0,0-.12-.37l-.88-1.25a1.09,1.09,0,0,1,0-1.26l.88-1.24a.73.73,0,0,0,.12-.37v-5.93a2.57,2.57,0,0,1,2.75-2.76h1.35v2.24H133.7a.68.68,0,0,0-.69.69v5.76a2.79,2.79,0,0,1-.53,1.67l-.42.57.42.58a2.83,2.83,0,0,1,.53,1.67v5.77a.66.66,0,0,0,.2.48.67.67,0,0,0,.49.21h1.18v2.22h-1.35A2.71,2.71,0,0,1,131.52,162.64Z"/><rect class="cls-6" x="279.38" y="115.24" width="36.22" height="5.12"/><rect class="cls-7" x="320.75" y="115.24" width="36.22" height="5.12"/></g></svg>