<svg width="562" height="273" viewBox="0 0 562 273" fill="none" xmlns="http://www.w3.org/2000/svg">
<path d="M279.695 40.75C279.629 40.75 279.565 40.7764 279.518 40.8233C279.471 40.8702 279.445 40.9337 279.445 41.0001L279.464 132.946L225.34 58.618C225.301 58.5644 225.242 58.5285 225.177 58.5182C225.111 58.5079 225.044 58.524 224.991 58.5631C207.1 71.5908 194.444 90.5739 189.298 112.099C184.152 133.624 186.854 156.279 196.919 175.989C206.983 195.7 223.749 211.174 244.202 219.628C264.655 228.082 287.454 228.962 308.498 222.109C329.542 215.257 347.451 201.122 359.004 182.245C370.558 163.369 374.998 140.99 371.527 119.132C368.056 97.2749 356.901 77.3728 340.067 63.0048C323.234 48.6367 301.827 40.7455 279.695 40.75Z" fill="url(#paint0_linear_543_192)" stroke="#7E22CE" stroke-width="0.5" stroke-linejoin="round"/>
<path d="M225.066 58.5084C224.954 58.5896 224.929 58.7459 225.011 58.8576L279.512 133.861C279.575 133.949 279.688 133.985 279.791 133.952C279.894 133.918 279.964 133.822 279.964 133.714L279.835 40.9998C279.835 40.8617 279.723 40.7499 279.585 40.7501C259.995 40.7773 240.914 46.9925 225.066 58.5084Z" fill="url(#paint1_linear_543_192)" stroke="#1AB1FA" stroke-width="0.5" stroke-linejoin="round"/>
<path d="M302.209 246.411C298.632 246.411 294.653 234.164 293.326 230.082L292 226" stroke="#7E22CE" stroke-width="0.715385"/>
<path d="M236 27C239.577 27 243.556 39.2467 244.883 43.3289L246.209 47.4111" stroke="#1AB1FA" stroke-width="0.715385"/>
<path d="M156.353 267V253.909H164.253V255.315H157.938V259.739H163.844V261.145H157.938V265.594H164.356V267H156.353ZM169.795 267.23C169.173 267.23 168.608 267.113 168.101 266.879C167.594 266.64 167.192 266.297 166.893 265.849C166.595 265.398 166.446 264.852 166.446 264.213C166.446 263.651 166.557 263.195 166.778 262.845C167 262.491 167.296 262.214 167.667 262.014C168.037 261.814 168.447 261.665 168.894 261.567C169.346 261.464 169.8 261.384 170.256 261.324C170.852 261.247 171.336 261.19 171.706 261.151C172.081 261.109 172.354 261.038 172.525 260.94C172.699 260.842 172.787 260.672 172.787 260.429V260.378C172.787 259.747 172.614 259.257 172.269 258.908C171.928 258.558 171.41 258.384 170.716 258.384C169.996 258.384 169.431 258.541 169.022 258.857C168.613 259.172 168.325 259.509 168.159 259.866L166.727 259.355C166.983 258.759 167.324 258.294 167.75 257.962C168.18 257.625 168.649 257.391 169.156 257.259C169.667 257.122 170.17 257.054 170.665 257.054C170.98 257.054 171.342 257.092 171.751 257.169C172.165 257.241 172.563 257.393 172.947 257.623C173.334 257.853 173.656 258.2 173.912 258.665C174.167 259.129 174.295 259.751 174.295 260.531V267H172.787V265.67H172.71C172.608 265.884 172.437 266.112 172.199 266.354C171.96 266.597 171.643 266.804 171.246 266.974C170.85 267.145 170.366 267.23 169.795 267.23ZM170.025 265.875C170.622 265.875 171.125 265.758 171.534 265.523C171.947 265.289 172.258 264.987 172.467 264.616C172.68 264.245 172.787 263.855 172.787 263.446V262.065C172.723 262.142 172.582 262.212 172.365 262.276C172.152 262.336 171.905 262.389 171.623 262.436C171.346 262.479 171.076 262.517 170.812 262.551C170.552 262.581 170.341 262.607 170.179 262.628C169.787 262.679 169.42 262.762 169.079 262.877C168.743 262.988 168.47 263.156 168.261 263.382C168.057 263.604 167.954 263.906 167.954 264.29C167.954 264.814 168.148 265.21 168.536 265.479C168.928 265.743 169.425 265.875 170.025 265.875ZM181.037 267.205C180.117 267.205 179.324 266.987 178.659 266.553C177.995 266.118 177.483 265.519 177.125 264.756C176.767 263.994 176.588 263.122 176.588 262.142C176.588 261.145 176.772 260.265 177.138 259.502C177.509 258.735 178.025 258.136 178.685 257.706C179.35 257.271 180.125 257.054 181.012 257.054C181.702 257.054 182.324 257.182 182.878 257.438C183.432 257.693 183.886 258.051 184.24 258.511C184.593 258.972 184.813 259.509 184.898 260.122H183.39C183.275 259.675 183.019 259.278 182.623 258.933C182.23 258.584 181.702 258.409 181.037 258.409C180.449 258.409 179.934 258.562 179.49 258.869C179.051 259.172 178.708 259.6 178.461 260.154C178.218 260.704 178.097 261.349 178.097 262.091C178.097 262.849 178.216 263.51 178.455 264.072C178.698 264.635 179.039 265.072 179.478 265.383C179.921 265.694 180.441 265.849 181.037 265.849C181.429 265.849 181.785 265.781 182.105 265.645C182.424 265.509 182.695 265.312 182.917 265.057C183.138 264.801 183.296 264.494 183.39 264.136H184.898C184.813 264.716 184.602 265.238 184.265 265.702C183.933 266.163 183.492 266.529 182.942 266.802C182.397 267.07 181.762 267.205 181.037 267.205ZM188.612 261.094V267H187.103V253.909H188.612V258.716H188.74C188.97 258.209 189.315 257.806 189.775 257.508C190.24 257.205 190.858 257.054 191.629 257.054C192.298 257.054 192.884 257.188 193.387 257.457C193.89 257.721 194.279 258.128 194.556 258.678C194.838 259.223 194.978 259.918 194.978 260.761V267H193.47V260.864C193.47 260.084 193.267 259.481 192.863 259.055C192.462 258.624 191.906 258.409 191.194 258.409C190.7 258.409 190.257 258.513 189.865 258.722C189.477 258.931 189.17 259.236 188.944 259.636C188.723 260.037 188.612 260.523 188.612 261.094ZM206.917 267.205C205.971 267.205 205.155 266.996 204.469 266.578C203.787 266.156 203.261 265.568 202.89 264.814C202.524 264.055 202.34 263.173 202.34 262.168C202.34 261.162 202.524 260.276 202.89 259.509C203.261 258.737 203.776 258.136 204.437 257.706C205.102 257.271 205.877 257.054 206.764 257.054C207.275 257.054 207.78 257.139 208.279 257.31C208.777 257.48 209.231 257.757 209.64 258.141C210.049 258.52 210.375 259.023 210.618 259.649C210.861 260.276 210.982 261.047 210.982 261.963V262.602H203.414V261.298H209.448C209.448 260.744 209.338 260.25 209.116 259.815C208.899 259.381 208.588 259.038 208.183 258.786C207.782 258.535 207.309 258.409 206.764 258.409C206.163 258.409 205.643 258.558 205.204 258.857C204.769 259.151 204.435 259.534 204.2 260.007C203.966 260.48 203.849 260.987 203.849 261.528V262.398C203.849 263.139 203.977 263.768 204.232 264.283C204.492 264.795 204.852 265.185 205.313 265.453C205.773 265.717 206.308 265.849 206.917 265.849C207.313 265.849 207.671 265.794 207.991 265.683C208.315 265.568 208.594 265.398 208.828 265.172C209.063 264.942 209.244 264.656 209.372 264.315L210.829 264.724C210.676 265.219 210.418 265.653 210.056 266.028C209.693 266.399 209.246 266.689 208.713 266.898C208.181 267.102 207.582 267.205 206.917 267.205ZM213.277 270.682V257.182H214.735V258.741H214.914C215.024 258.571 215.178 258.354 215.374 258.089C215.574 257.821 215.86 257.582 216.23 257.374C216.605 257.161 217.112 257.054 217.752 257.054C218.578 257.054 219.307 257.261 219.938 257.674C220.568 258.087 221.061 258.673 221.414 259.432C221.768 260.19 221.945 261.085 221.945 262.116C221.945 263.156 221.768 264.058 221.414 264.82C221.061 265.579 220.57 266.167 219.944 266.585C219.318 266.998 218.595 267.205 217.777 267.205C217.146 267.205 216.642 267.1 216.262 266.891C215.883 266.678 215.591 266.437 215.387 266.169C215.182 265.896 215.024 265.67 214.914 265.491H214.786V270.682H213.277ZM214.76 262.091C214.76 262.832 214.869 263.487 215.086 264.053C215.303 264.616 215.621 265.057 216.039 265.376C216.456 265.692 216.968 265.849 217.573 265.849C218.203 265.849 218.73 265.683 219.151 265.351C219.578 265.014 219.897 264.562 220.11 263.996C220.328 263.425 220.436 262.79 220.436 262.091C220.436 261.401 220.33 260.778 220.117 260.224C219.908 259.666 219.59 259.225 219.164 258.901C218.742 258.573 218.212 258.409 217.573 258.409C216.959 258.409 216.443 258.565 216.026 258.876C215.608 259.183 215.293 259.613 215.08 260.167C214.867 260.717 214.76 261.358 214.76 262.091ZM228.235 267.205C227.348 267.205 226.57 266.994 225.901 266.572C225.237 266.15 224.717 265.56 224.342 264.801C223.971 264.043 223.786 263.156 223.786 262.142C223.786 261.119 223.971 260.227 224.342 259.464C224.717 258.701 225.237 258.109 225.901 257.687C226.57 257.265 227.348 257.054 228.235 257.054C229.121 257.054 229.896 257.265 230.561 257.687C231.23 258.109 231.75 258.701 232.121 259.464C232.496 260.227 232.683 261.119 232.683 262.142C232.683 263.156 232.496 264.043 232.121 264.801C231.75 265.56 231.23 266.15 230.561 266.572C229.896 266.994 229.121 267.205 228.235 267.205ZM228.235 265.849C228.908 265.849 229.462 265.677 229.896 265.332C230.331 264.987 230.653 264.533 230.862 263.97C231.07 263.408 231.175 262.798 231.175 262.142C231.175 261.486 231.07 260.874 230.862 260.308C230.653 259.741 230.331 259.283 229.896 258.933C229.462 258.584 228.908 258.409 228.235 258.409C227.561 258.409 227.007 258.584 226.573 258.933C226.138 259.283 225.816 259.741 225.607 260.308C225.399 260.874 225.294 261.486 225.294 262.142C225.294 262.798 225.399 263.408 225.607 263.97C225.816 264.533 226.138 264.987 226.573 265.332C227.007 265.677 227.561 265.849 228.235 265.849ZM238.975 267.205C238.054 267.205 237.262 266.987 236.597 266.553C235.932 266.118 235.421 265.519 235.063 264.756C234.705 263.994 234.526 263.122 234.526 262.142C234.526 261.145 234.709 260.265 235.076 259.502C235.446 258.735 235.962 258.136 236.623 257.706C237.287 257.271 238.063 257.054 238.949 257.054C239.64 257.054 240.262 257.182 240.816 257.438C241.37 257.693 241.824 258.051 242.177 258.511C242.531 258.972 242.75 259.509 242.836 260.122H241.327C241.212 259.675 240.956 259.278 240.56 258.933C240.168 258.584 239.64 258.409 238.975 258.409C238.387 258.409 237.871 258.562 237.428 258.869C236.989 259.172 236.646 259.6 236.399 260.154C236.156 260.704 236.034 261.349 236.034 262.091C236.034 262.849 236.154 263.51 236.392 264.072C236.635 264.635 236.976 265.072 237.415 265.383C237.858 265.694 238.378 265.849 238.975 265.849C239.367 265.849 239.723 265.781 240.042 265.645C240.362 265.509 240.632 265.312 240.854 265.057C241.076 264.801 241.233 264.494 241.327 264.136H242.836C242.75 264.716 242.539 265.238 242.203 265.702C241.87 266.163 241.429 266.529 240.88 266.802C240.334 267.07 239.699 267.205 238.975 267.205ZM246.549 261.094V267H245.041V253.909H246.549V258.716H246.677C246.907 258.209 247.252 257.806 247.713 257.508C248.177 257.205 248.795 257.054 249.566 257.054C250.235 257.054 250.821 257.188 251.324 257.457C251.827 257.721 252.217 258.128 252.494 258.678C252.775 259.223 252.916 259.918 252.916 260.761V267H251.407V260.864C251.407 260.084 251.205 259.481 250.8 259.055C250.4 258.624 249.843 258.409 249.132 258.409C248.637 258.409 248.194 258.513 247.802 258.722C247.414 258.931 247.108 259.236 246.882 259.636C246.66 260.037 246.549 260.523 246.549 261.094ZM257.926 265.21L257.823 265.901C257.751 266.386 257.64 266.906 257.491 267.46C257.346 268.014 257.195 268.536 257.037 269.026C256.879 269.516 256.749 269.906 256.647 270.196H255.497C255.552 269.923 255.624 269.563 255.714 269.116C255.803 268.668 255.893 268.168 255.982 267.614C256.076 267.064 256.153 266.501 256.213 265.926L256.289 265.21H257.926ZM270.2 253.73C270.873 253.73 271.521 253.843 272.143 254.069C272.77 254.295 273.328 254.655 273.818 255.149C274.312 255.643 274.702 256.3 274.988 257.118C275.277 257.932 275.424 258.931 275.429 260.116C275.429 261.228 275.303 262.221 275.051 263.094C274.804 263.964 274.449 264.703 273.984 265.312C273.52 265.922 272.959 266.386 272.303 266.706C271.647 267.021 270.914 267.179 270.104 267.179C269.23 267.179 268.459 267.011 267.79 266.674C267.121 266.333 266.582 265.871 266.173 265.287C265.768 264.699 265.523 264.038 265.438 263.305H268.167C268.274 263.783 268.498 264.153 268.838 264.418C269.179 264.678 269.601 264.808 270.104 264.808C270.956 264.808 271.604 264.437 272.047 263.695C272.49 262.95 272.714 261.929 272.718 260.634H272.629C272.433 261.017 272.169 261.347 271.836 261.624C271.504 261.897 271.123 262.108 270.692 262.257C270.266 262.406 269.812 262.481 269.331 262.481C268.559 262.481 267.871 262.3 267.266 261.938C266.661 261.575 266.184 261.077 265.834 260.442C265.485 259.807 265.31 259.082 265.31 258.268C265.306 257.391 265.508 256.609 265.917 255.923C266.326 255.237 266.897 254.7 267.63 254.312C268.368 253.92 269.224 253.726 270.2 253.73ZM270.219 255.903C269.789 255.903 269.405 256.006 269.069 256.21C268.736 256.415 268.472 256.69 268.276 257.035C268.084 257.38 267.99 257.766 267.995 258.192C267.995 258.622 268.088 259.01 268.276 259.355C268.468 259.696 268.728 259.969 269.056 260.173C269.388 260.374 269.767 260.474 270.194 260.474C270.513 260.474 270.809 260.414 271.082 260.295C271.355 260.175 271.591 260.011 271.792 259.803C271.996 259.589 272.156 259.344 272.271 259.067C272.386 258.79 272.444 258.496 272.444 258.185C272.439 257.772 272.341 257.393 272.15 257.048C271.958 256.702 271.694 256.425 271.357 256.217C271.02 256.008 270.641 255.903 270.219 255.903ZM282.479 267.288C281.38 267.283 280.434 267.013 279.641 266.476C278.853 265.939 278.245 265.161 277.819 264.143C277.397 263.124 277.189 261.899 277.193 260.467C277.193 259.04 277.404 257.823 277.826 256.817C278.252 255.812 278.859 255.047 279.647 254.523C280.44 253.994 281.384 253.73 282.479 253.73C283.574 253.73 284.516 253.994 285.304 254.523C286.097 255.051 286.706 255.818 287.132 256.824C287.559 257.825 287.77 259.04 287.765 260.467C287.765 261.903 287.552 263.131 287.126 264.149C286.704 265.168 286.099 265.945 285.311 266.482C284.522 267.019 283.578 267.288 282.479 267.288ZM282.479 264.993C283.229 264.993 283.828 264.616 284.275 263.862C284.723 263.107 284.944 261.976 284.94 260.467C284.94 259.474 284.838 258.648 284.633 257.987C284.433 257.327 284.147 256.83 283.777 256.498C283.41 256.165 282.978 255.999 282.479 255.999C281.733 255.999 281.137 256.372 280.689 257.118C280.242 257.864 280.016 258.98 280.012 260.467C280.012 261.473 280.112 262.312 280.312 262.986C280.517 263.655 280.804 264.158 281.175 264.494C281.546 264.827 281.98 264.993 282.479 264.993ZM296.904 264.545V263.855C296.904 263.331 297.015 262.849 297.237 262.411C297.463 261.967 297.789 261.614 298.215 261.349C298.645 261.081 299.169 260.947 299.787 260.947C300.414 260.947 300.94 261.079 301.366 261.343C301.796 261.607 302.12 261.961 302.338 262.404C302.559 262.843 302.67 263.327 302.67 263.855V264.545C302.67 265.07 302.559 265.553 302.338 265.996C302.116 266.435 301.79 266.787 301.36 267.051C300.929 267.32 300.405 267.454 299.787 267.454C299.161 267.454 298.634 267.32 298.208 267.051C297.782 266.787 297.458 266.435 297.237 265.996C297.015 265.553 296.904 265.07 296.904 264.545ZM298.764 263.855V264.545C298.764 264.848 298.837 265.134 298.982 265.402C299.131 265.67 299.399 265.805 299.787 265.805C300.175 265.805 300.439 265.673 300.58 265.408C300.725 265.144 300.797 264.857 300.797 264.545V263.855C300.797 263.544 300.729 263.254 300.593 262.986C300.456 262.717 300.188 262.583 299.787 262.583C299.404 262.583 299.137 262.717 298.988 262.986C298.839 263.254 298.764 263.544 298.764 263.855ZM290.186 257.054V256.364C290.186 255.835 290.299 255.352 290.525 254.913C290.751 254.469 291.077 254.116 291.503 253.852C291.933 253.587 292.453 253.455 293.063 253.455C293.693 253.455 294.222 253.587 294.648 253.852C295.074 254.116 295.398 254.469 295.619 254.913C295.841 255.352 295.952 255.835 295.952 256.364V257.054C295.952 257.582 295.839 258.066 295.613 258.505C295.392 258.944 295.066 259.295 294.635 259.56C294.209 259.82 293.685 259.95 293.063 259.95C292.441 259.95 291.914 259.817 291.484 259.553C291.058 259.285 290.734 258.933 290.512 258.499C290.295 258.06 290.186 257.578 290.186 257.054ZM292.059 256.364V257.054C292.059 257.365 292.132 257.653 292.276 257.917C292.426 258.181 292.688 258.313 293.063 258.313C293.455 258.313 293.721 258.181 293.862 257.917C294.007 257.653 294.079 257.365 294.079 257.054V256.364C294.079 256.053 294.011 255.763 293.874 255.494C293.738 255.226 293.468 255.092 293.063 255.092C292.683 255.092 292.421 255.228 292.276 255.501C292.132 255.773 292.059 256.061 292.059 256.364ZM291.03 267L300.03 253.909H301.705L292.705 267H291.03ZM314.578 267.205C313.692 267.205 312.914 266.994 312.245 266.572C311.58 266.15 311.061 265.56 310.686 264.801C310.315 264.043 310.129 263.156 310.129 262.142C310.129 261.119 310.315 260.227 310.686 259.464C311.061 258.701 311.58 258.109 312.245 257.687C312.914 257.265 313.692 257.054 314.578 257.054C315.465 257.054 316.24 257.265 316.905 257.687C317.574 258.109 318.094 258.701 318.465 259.464C318.84 260.227 319.027 261.119 319.027 262.142C319.027 263.156 318.84 264.043 318.465 264.801C318.094 265.56 317.574 266.15 316.905 266.572C316.24 266.994 315.465 267.205 314.578 267.205ZM314.578 265.849C315.252 265.849 315.806 265.677 316.24 265.332C316.675 264.987 316.997 264.533 317.205 263.97C317.414 263.408 317.519 262.798 317.519 262.142C317.519 261.486 317.414 260.874 317.205 260.308C316.997 259.741 316.675 259.283 316.24 258.933C315.806 258.584 315.252 258.409 314.578 258.409C313.905 258.409 313.351 258.584 312.916 258.933C312.482 259.283 312.16 259.741 311.951 260.308C311.742 260.874 311.638 261.486 311.638 262.142C311.638 262.798 311.742 263.408 311.951 263.97C312.16 264.533 312.482 264.987 312.916 265.332C313.351 265.677 313.905 265.849 314.578 265.849ZM325.702 257.182V258.46H320.409V257.182H325.702ZM321.995 267V255.827C321.995 255.264 322.127 254.795 322.391 254.42C322.655 254.045 322.998 253.764 323.42 253.577C323.842 253.389 324.287 253.295 324.756 253.295C325.127 253.295 325.429 253.325 325.664 253.385C325.898 253.445 326.073 253.5 326.188 253.551L325.753 254.855C325.676 254.83 325.57 254.798 325.434 254.759C325.301 254.721 325.127 254.702 324.909 254.702C324.411 254.702 324.051 254.827 323.829 255.079C323.612 255.33 323.503 255.699 323.503 256.185V267H321.995ZM334.387 261.094V267H332.879V257.182H334.336V258.716H334.464C334.694 258.217 335.044 257.817 335.512 257.514C335.981 257.207 336.586 257.054 337.328 257.054C337.992 257.054 338.574 257.19 339.073 257.463C339.571 257.732 339.959 258.141 340.236 258.69C340.513 259.236 340.651 259.926 340.651 260.761V267H339.143V260.864C339.143 260.092 338.943 259.491 338.542 259.061C338.142 258.626 337.592 258.409 336.893 258.409C336.411 258.409 335.981 258.513 335.602 258.722C335.227 258.931 334.931 259.236 334.713 259.636C334.496 260.037 334.387 260.523 334.387 261.094ZM347.525 267.205C346.578 267.205 345.762 266.996 345.076 266.578C344.395 266.156 343.868 265.568 343.498 264.814C343.131 264.055 342.948 263.173 342.948 262.168C342.948 261.162 343.131 260.276 343.498 259.509C343.868 258.737 344.384 258.136 345.044 257.706C345.709 257.271 346.485 257.054 347.371 257.054C347.882 257.054 348.387 257.139 348.886 257.31C349.385 257.48 349.838 257.757 350.248 258.141C350.657 258.52 350.983 259.023 351.225 259.649C351.468 260.276 351.59 261.047 351.59 261.963V262.602H344.022V261.298H350.056C350.056 260.744 349.945 260.25 349.723 259.815C349.506 259.381 349.195 259.038 348.79 258.786C348.39 258.535 347.917 258.409 347.371 258.409C346.77 258.409 346.25 258.558 345.811 258.857C345.377 259.151 345.042 259.534 344.808 260.007C344.574 260.48 344.456 260.987 344.456 261.528V262.398C344.456 263.139 344.584 263.768 344.84 264.283C345.1 264.795 345.46 265.185 345.92 265.453C346.38 265.717 346.915 265.849 347.525 265.849C347.921 265.849 348.279 265.794 348.598 265.683C348.922 265.568 349.201 265.398 349.436 265.172C349.67 264.942 349.851 264.656 349.979 264.315L351.436 264.724C351.283 265.219 351.025 265.653 350.663 266.028C350.301 266.399 349.853 266.689 349.321 266.898C348.788 267.102 348.189 267.205 347.525 267.205ZM356.109 267L353.118 257.182H354.703L356.825 264.699H356.927L359.024 257.182H360.635L362.706 264.673H362.808L364.93 257.182H366.515L363.524 267H362.041L359.893 259.457H359.74L357.592 267H356.109ZM377.842 257.182V258.46H372.754V257.182H377.842ZM374.237 254.83H375.745V264.188C375.745 264.614 375.807 264.933 375.931 265.146C376.059 265.355 376.221 265.496 376.417 265.568C376.617 265.636 376.828 265.67 377.049 265.67C377.216 265.67 377.352 265.662 377.458 265.645C377.565 265.624 377.65 265.607 377.714 265.594L378.021 266.949C377.919 266.987 377.776 267.026 377.593 267.064C377.409 267.107 377.177 267.128 376.896 267.128C376.47 267.128 376.052 267.036 375.643 266.853C375.238 266.67 374.902 266.391 374.633 266.016C374.369 265.641 374.237 265.168 374.237 264.597V254.83ZM383.994 267.205C383.108 267.205 382.33 266.994 381.661 266.572C380.996 266.15 380.477 265.56 380.102 264.801C379.731 264.043 379.545 263.156 379.545 262.142C379.545 261.119 379.731 260.227 380.102 259.464C380.477 258.701 380.996 258.109 381.661 257.687C382.33 257.265 383.108 257.054 383.994 257.054C384.881 257.054 385.656 257.265 386.321 257.687C386.99 258.109 387.51 258.701 387.881 259.464C388.256 260.227 388.443 261.119 388.443 262.142C388.443 263.156 388.256 264.043 387.881 264.801C387.51 265.56 386.99 266.15 386.321 266.572C385.656 266.994 384.881 267.205 383.994 267.205ZM383.994 265.849C384.668 265.849 385.222 265.677 385.656 265.332C386.091 264.987 386.413 264.533 386.621 263.97C386.83 263.408 386.935 262.798 386.935 262.142C386.935 261.486 386.83 260.874 386.621 260.308C386.413 259.741 386.091 259.283 385.656 258.933C385.222 258.584 384.668 258.409 383.994 258.409C383.321 258.409 382.767 258.584 382.332 258.933C381.898 259.283 381.576 259.741 381.367 260.308C381.158 260.874 381.054 261.486 381.054 262.142C381.054 262.798 381.158 263.408 381.367 263.97C381.576 264.533 381.898 264.987 382.332 265.332C382.767 265.677 383.321 265.849 383.994 265.849ZM392.152 263.42L392.127 261.554H392.433L396.729 257.182H398.595L394.019 261.81H393.891L392.152 263.42ZM390.746 267V253.909H392.254V267H390.746ZM396.985 267L393.149 262.142L394.223 261.094L398.902 267H396.985ZM404.249 267.205C403.303 267.205 402.487 266.996 401.801 266.578C401.119 266.156 400.593 265.568 400.222 264.814C399.856 264.055 399.672 263.173 399.672 262.168C399.672 261.162 399.856 260.276 400.222 259.509C400.593 258.737 401.108 258.136 401.769 257.706C402.434 257.271 403.209 257.054 404.096 257.054C404.607 257.054 405.112 257.139 405.611 257.31C406.109 257.48 406.563 257.757 406.972 258.141C407.381 258.52 407.707 259.023 407.95 259.649C408.193 260.276 408.314 261.047 408.314 261.963V262.602H400.746V261.298H406.78C406.78 260.744 406.67 260.25 406.448 259.815C406.231 259.381 405.92 259.038 405.515 258.786C405.114 258.535 404.641 258.409 404.096 258.409C403.495 258.409 402.975 258.558 402.536 258.857C402.101 259.151 401.767 259.534 401.532 260.007C401.298 260.48 401.181 260.987 401.181 261.528V262.398C401.181 263.139 401.309 263.768 401.564 264.283C401.824 264.795 402.184 265.185 402.645 265.453C403.105 265.717 403.64 265.849 404.249 265.849C404.645 265.849 405.003 265.794 405.323 265.683C405.647 265.568 405.926 265.398 406.16 265.172C406.395 264.942 406.576 264.656 406.704 264.315L408.161 264.724C408.008 265.219 407.75 265.653 407.388 266.028C407.025 266.399 406.578 266.689 406.045 266.898C405.513 267.102 404.914 267.205 404.249 267.205ZM412.118 261.094V267H410.609V257.182H412.067V258.716H412.194C412.425 258.217 412.774 257.817 413.243 257.514C413.711 257.207 414.317 257.054 415.058 257.054C415.723 257.054 416.305 257.19 416.803 257.463C417.302 257.732 417.689 258.141 417.966 258.69C418.243 259.236 418.382 259.926 418.382 260.761V267H416.873V260.864C416.873 260.092 416.673 259.491 416.273 259.061C415.872 258.626 415.322 258.409 414.623 258.409C414.142 258.409 413.711 258.513 413.332 258.722C412.957 258.931 412.661 259.236 412.444 259.636C412.226 260.037 412.118 260.523 412.118 261.094ZM428.093 259.381L426.738 259.764C426.653 259.538 426.527 259.319 426.361 259.106C426.199 258.888 425.977 258.71 425.696 258.569C425.415 258.428 425.055 258.358 424.616 258.358C424.015 258.358 423.514 258.496 423.114 258.773C422.717 259.046 422.519 259.393 422.519 259.815C422.519 260.19 422.656 260.487 422.928 260.704C423.201 260.921 423.627 261.102 424.207 261.247L425.664 261.605C426.542 261.818 427.196 262.144 427.626 262.583C428.057 263.018 428.272 263.578 428.272 264.264C428.272 264.827 428.11 265.33 427.786 265.773C427.467 266.216 427.019 266.565 426.444 266.821C425.869 267.077 425.2 267.205 424.437 267.205C423.435 267.205 422.607 266.987 421.95 266.553C421.294 266.118 420.879 265.483 420.704 264.648L422.136 264.29C422.272 264.818 422.53 265.214 422.909 265.479C423.293 265.743 423.793 265.875 424.411 265.875C425.114 265.875 425.673 265.726 426.086 265.428C426.504 265.125 426.712 264.763 426.712 264.341C426.712 264 426.593 263.714 426.354 263.484C426.116 263.25 425.749 263.075 425.255 262.96L423.619 262.577C422.719 262.364 422.059 262.033 421.637 261.586C421.219 261.134 421.011 260.57 421.011 259.892C421.011 259.338 421.166 258.848 421.477 258.422C421.793 257.996 422.221 257.661 422.762 257.418C423.308 257.175 423.925 257.054 424.616 257.054C425.587 257.054 426.35 257.267 426.904 257.693C427.462 258.119 427.859 258.682 428.093 259.381ZM439.568 270.886C438.84 270.886 438.213 270.793 437.689 270.605C437.165 270.422 436.728 270.179 436.379 269.876C436.034 269.578 435.759 269.259 435.554 268.918L436.756 268.074C436.892 268.253 437.065 268.457 437.274 268.688C437.482 268.922 437.768 269.124 438.13 269.295C438.497 269.469 438.976 269.557 439.568 269.557C440.361 269.557 441.015 269.365 441.531 268.982C442.046 268.598 442.304 267.997 442.304 267.179V265.185H442.176C442.066 265.364 441.908 265.585 441.703 265.849C441.503 266.109 441.213 266.342 440.834 266.546C440.459 266.746 439.952 266.847 439.313 266.847C438.52 266.847 437.808 266.659 437.178 266.284C436.551 265.909 436.055 265.364 435.688 264.648C435.326 263.932 435.145 263.062 435.145 262.04C435.145 261.034 435.322 260.158 435.676 259.413C436.029 258.663 436.521 258.083 437.152 257.674C437.783 257.261 438.512 257.054 439.338 257.054C439.977 257.054 440.485 257.161 440.86 257.374C441.239 257.582 441.529 257.821 441.729 258.089C441.933 258.354 442.091 258.571 442.202 258.741H442.355V257.182H443.813V267.281C443.813 268.125 443.621 268.811 443.237 269.339C442.858 269.872 442.347 270.262 441.703 270.509C441.064 270.761 440.352 270.886 439.568 270.886ZM439.517 265.491C440.122 265.491 440.634 265.353 441.051 265.076C441.469 264.799 441.786 264.401 442.004 263.881C442.221 263.361 442.33 262.739 442.33 262.014C442.33 261.307 442.223 260.683 442.01 260.141C441.797 259.6 441.482 259.176 441.064 258.869C440.646 258.562 440.131 258.409 439.517 258.409C438.878 258.409 438.345 258.571 437.919 258.895C437.497 259.219 437.18 259.653 436.967 260.199C436.758 260.744 436.654 261.349 436.654 262.014C436.654 262.696 436.76 263.299 436.973 263.823C437.191 264.343 437.51 264.752 437.932 265.05C438.358 265.344 438.887 265.491 439.517 265.491ZM450.563 267.205C449.676 267.205 448.899 266.994 448.23 266.572C447.565 266.15 447.045 265.56 446.67 264.801C446.299 264.043 446.114 263.156 446.114 262.142C446.114 261.119 446.299 260.227 446.67 259.464C447.045 258.701 447.565 258.109 448.23 257.687C448.899 257.265 449.676 257.054 450.563 257.054C451.449 257.054 452.225 257.265 452.889 257.687C453.558 258.109 454.078 258.701 454.449 259.464C454.824 260.227 455.012 261.119 455.012 262.142C455.012 263.156 454.824 264.043 454.449 264.801C454.078 265.56 453.558 266.15 452.889 266.572C452.225 266.994 451.449 267.205 450.563 267.205ZM450.563 265.849C451.236 265.849 451.79 265.677 452.225 265.332C452.659 264.987 452.981 264.533 453.19 263.97C453.399 263.408 453.503 262.798 453.503 262.142C453.503 261.486 453.399 260.874 453.19 260.308C452.981 259.741 452.659 259.283 452.225 258.933C451.79 258.584 451.236 258.409 450.563 258.409C449.889 258.409 449.335 258.584 448.901 258.933C448.466 259.283 448.144 259.741 447.936 260.308C447.727 260.874 447.622 261.486 447.622 262.142C447.622 262.798 447.727 263.408 447.936 263.97C448.144 264.533 448.466 264.987 448.901 265.332C449.335 265.677 449.889 265.849 450.563 265.849ZM466.647 257.182V258.46H461.559V257.182H466.647ZM463.042 254.83H464.55V264.188C464.55 264.614 464.612 264.933 464.735 265.146C464.863 265.355 465.025 265.496 465.221 265.568C465.422 265.636 465.632 265.67 465.854 265.67C466.02 265.67 466.157 265.662 466.263 265.645C466.37 265.624 466.455 265.607 466.519 265.594L466.826 266.949C466.723 266.987 466.581 267.026 466.397 267.064C466.214 267.107 465.982 267.128 465.701 267.128C465.275 267.128 464.857 267.036 464.448 266.853C464.043 266.67 463.706 266.391 463.438 266.016C463.174 265.641 463.042 265.168 463.042 264.597V254.83ZM472.799 267.205C471.913 267.205 471.135 266.994 470.466 266.572C469.801 266.15 469.281 265.56 468.906 264.801C468.536 264.043 468.35 263.156 468.35 262.142C468.35 261.119 468.536 260.227 468.906 259.464C469.281 258.701 469.801 258.109 470.466 257.687C471.135 257.265 471.913 257.054 472.799 257.054C473.685 257.054 474.461 257.265 475.126 257.687C475.795 258.109 476.315 258.701 476.685 259.464C477.06 260.227 477.248 261.119 477.248 262.142C477.248 263.156 477.06 264.043 476.685 264.801C476.315 265.56 475.795 266.15 475.126 266.572C474.461 266.994 473.685 267.205 472.799 267.205ZM472.799 265.849C473.472 265.849 474.026 265.677 474.461 265.332C474.896 264.987 475.217 264.533 475.426 263.97C475.635 263.408 475.739 262.798 475.739 262.142C475.739 261.486 475.635 260.874 475.426 260.308C475.217 259.741 474.896 259.283 474.461 258.933C474.026 258.584 473.472 258.409 472.799 258.409C472.126 258.409 471.572 258.584 471.137 258.933C470.702 259.283 470.381 259.741 470.172 260.308C469.963 260.874 469.859 261.486 469.859 262.142C469.859 262.798 469.963 263.408 470.172 263.97C470.381 264.533 470.702 264.987 471.137 265.332C471.572 265.677 472.126 265.849 472.799 265.849ZM484.37 267V253.909H489.612C490.575 253.909 491.378 254.052 492.021 254.337C492.665 254.623 493.149 255.019 493.472 255.526C493.796 256.029 493.958 256.609 493.958 257.265C493.958 257.776 493.856 258.226 493.651 258.614C493.447 258.997 493.166 259.312 492.808 259.56C492.454 259.803 492.049 259.975 491.593 260.077V260.205C492.092 260.227 492.558 260.367 492.993 260.627C493.432 260.887 493.788 261.251 494.061 261.72C494.333 262.185 494.47 262.739 494.47 263.382C494.47 264.077 494.297 264.697 493.952 265.242C493.611 265.783 493.106 266.212 492.437 266.527C491.768 266.842 490.943 267 489.963 267H484.37ZM487.138 264.737H489.394C490.166 264.737 490.728 264.59 491.082 264.296C491.436 263.998 491.612 263.602 491.612 263.107C491.612 262.745 491.525 262.425 491.35 262.148C491.176 261.871 490.926 261.654 490.602 261.496C490.283 261.339 489.901 261.26 489.458 261.26H487.138V264.737ZM487.138 259.387H489.19C489.569 259.387 489.906 259.321 490.2 259.189C490.498 259.053 490.732 258.861 490.903 258.614C491.078 258.366 491.165 258.07 491.165 257.725C491.165 257.252 490.997 256.871 490.66 256.581C490.328 256.291 489.855 256.146 489.241 256.146H487.138V259.387ZM500.656 267.192C499.663 267.192 498.804 266.981 498.08 266.559C497.359 266.133 496.803 265.54 496.411 264.782C496.019 264.019 495.823 263.135 495.823 262.129C495.823 261.115 496.019 260.229 496.411 259.47C496.803 258.707 497.359 258.115 498.08 257.693C498.804 257.267 499.663 257.054 500.656 257.054C501.648 257.054 502.505 257.267 503.225 257.693C503.95 258.115 504.508 258.707 504.9 259.47C505.292 260.229 505.488 261.115 505.488 262.129C505.488 263.135 505.292 264.019 504.9 264.782C504.508 265.54 503.95 266.133 503.225 266.559C502.505 266.981 501.648 267.192 500.656 267.192ZM500.668 265.082C501.12 265.082 501.497 264.955 501.8 264.699C502.102 264.439 502.33 264.085 502.484 263.638C502.641 263.19 502.72 262.681 502.72 262.11C502.72 261.539 502.641 261.03 502.484 260.582C502.33 260.135 502.102 259.781 501.8 259.521C501.497 259.261 501.12 259.131 500.668 259.131C500.212 259.131 499.829 259.261 499.518 259.521C499.211 259.781 498.979 260.135 498.821 260.582C498.668 261.03 498.591 261.539 498.591 262.11C498.591 262.681 498.668 263.19 498.821 263.638C498.979 264.085 499.211 264.439 499.518 264.699C499.829 264.955 500.212 265.082 500.668 265.082ZM509.982 261.324V267H507.259V257.182H509.854V258.914H509.969C510.186 258.343 510.55 257.891 511.062 257.559C511.573 257.222 512.193 257.054 512.922 257.054C513.604 257.054 514.198 257.203 514.705 257.501C515.212 257.8 515.607 258.226 515.888 258.78C516.169 259.33 516.31 259.986 516.31 260.749V267H513.587V261.234C513.591 260.634 513.438 260.165 513.126 259.828C512.815 259.487 512.387 259.317 511.842 259.317C511.475 259.317 511.151 259.396 510.87 259.553C510.593 259.711 510.376 259.941 510.218 260.244C510.065 260.542 509.986 260.902 509.982 261.324ZM522.074 267.16C521.328 267.16 520.653 266.968 520.047 266.585C519.447 266.197 518.969 265.628 518.616 264.878C518.266 264.124 518.091 263.199 518.091 262.104C518.091 260.979 518.273 260.043 518.635 259.298C518.997 258.548 519.479 257.987 520.079 257.616C520.684 257.241 521.347 257.054 522.067 257.054C522.617 257.054 523.075 257.148 523.442 257.335C523.812 257.518 524.111 257.749 524.336 258.026C524.567 258.298 524.741 258.567 524.861 258.831H524.944V253.909H527.66V267H524.976V265.428H524.861C524.733 265.7 524.552 265.971 524.317 266.239C524.087 266.504 523.787 266.723 523.416 266.898C523.05 267.072 522.602 267.16 522.074 267.16ZM522.937 264.993C523.376 264.993 523.746 264.874 524.049 264.635C524.356 264.392 524.59 264.053 524.752 263.619C524.918 263.184 525.001 262.675 525.001 262.091C525.001 261.507 524.92 261 524.758 260.57C524.596 260.139 524.362 259.807 524.055 259.572C523.748 259.338 523.376 259.221 522.937 259.221C522.489 259.221 522.112 259.342 521.805 259.585C521.498 259.828 521.266 260.165 521.108 260.595C520.951 261.026 520.872 261.524 520.872 262.091C520.872 262.662 520.951 263.167 521.108 263.606C521.27 264.04 521.503 264.381 521.805 264.629C522.112 264.871 522.489 264.993 522.937 264.993ZM534.374 267.192C533.364 267.192 532.494 266.987 531.766 266.578C531.041 266.165 530.483 265.581 530.091 264.827C529.699 264.068 529.503 263.171 529.503 262.136C529.503 261.126 529.699 260.239 530.091 259.477C530.483 258.714 531.035 258.119 531.746 257.693C532.462 257.267 533.302 257.054 534.265 257.054C534.913 257.054 535.516 257.158 536.074 257.367C536.636 257.572 537.126 257.881 537.544 258.294C537.966 258.707 538.294 259.227 538.528 259.854C538.763 260.476 538.88 261.205 538.88 262.04V262.788H530.589V261.1H536.317C536.317 260.708 536.232 260.361 536.061 260.058C535.891 259.756 535.654 259.519 535.352 259.349C535.053 259.174 534.706 259.087 534.31 259.087C533.896 259.087 533.53 259.183 533.21 259.374C532.895 259.562 532.648 259.815 532.469 260.135C532.29 260.45 532.198 260.802 532.194 261.19V262.794C532.194 263.28 532.283 263.7 532.462 264.053C532.646 264.407 532.903 264.68 533.236 264.871C533.568 265.063 533.962 265.159 534.418 265.159C534.721 265.159 534.998 265.116 535.249 265.031C535.501 264.946 535.716 264.818 535.895 264.648C536.074 264.477 536.21 264.268 536.304 264.021L538.822 264.188C538.695 264.793 538.433 265.321 538.036 265.773C537.644 266.22 537.137 266.57 536.515 266.821C535.897 267.068 535.183 267.192 534.374 267.192ZM540.657 267V257.182H543.297V258.895H543.399C543.578 258.286 543.879 257.825 544.3 257.514C544.722 257.199 545.208 257.041 545.758 257.041C545.894 257.041 546.041 257.05 546.199 257.067C546.357 257.084 546.495 257.107 546.614 257.137V259.553C546.487 259.515 546.31 259.481 546.084 259.451C545.858 259.421 545.651 259.406 545.464 259.406C545.063 259.406 544.705 259.494 544.39 259.668C544.079 259.839 543.832 260.077 543.648 260.384C543.469 260.691 543.38 261.045 543.38 261.445V267H540.657ZM556.191 259.982L553.698 260.135C553.656 259.922 553.564 259.73 553.423 259.56C553.283 259.385 553.097 259.246 552.867 259.144C552.642 259.038 552.371 258.984 552.056 258.984C551.634 258.984 551.278 259.074 550.988 259.253C550.698 259.428 550.553 259.662 550.553 259.956C550.553 260.19 550.647 260.388 550.835 260.55C551.022 260.712 551.344 260.842 551.8 260.94L553.577 261.298C554.531 261.494 555.243 261.81 555.712 262.244C556.181 262.679 556.415 263.25 556.415 263.957C556.415 264.601 556.225 265.165 555.846 265.651C555.471 266.137 554.955 266.516 554.299 266.789C553.647 267.058 552.895 267.192 552.043 267.192C550.743 267.192 549.708 266.921 548.936 266.38C548.169 265.835 547.72 265.093 547.588 264.156L550.266 264.015C550.347 264.411 550.543 264.714 550.854 264.923C551.165 265.127 551.563 265.229 552.049 265.229C552.526 265.229 552.91 265.138 553.2 264.955C553.494 264.767 553.643 264.526 553.647 264.232C553.643 263.985 553.539 263.783 553.334 263.625C553.129 263.463 552.814 263.339 552.388 263.254L550.688 262.915C549.729 262.724 549.015 262.391 548.546 261.918C548.082 261.445 547.85 260.842 547.85 260.109C547.85 259.479 548.02 258.935 548.361 258.479C548.706 258.023 549.19 257.672 549.812 257.425C550.438 257.178 551.171 257.054 552.011 257.054C553.251 257.054 554.227 257.316 554.938 257.84C555.654 258.364 556.072 259.078 556.191 259.982ZM559.523 267.102C559.208 267.102 558.937 266.989 558.711 266.763C558.485 266.538 558.373 266.267 558.373 265.952C558.373 265.636 558.485 265.366 558.711 265.14C558.937 264.914 559.208 264.801 559.523 264.801C559.838 264.801 560.109 264.914 560.335 265.14C560.561 265.366 560.674 265.636 560.674 265.952C560.674 266.161 560.62 266.352 560.514 266.527C560.412 266.702 560.273 266.842 560.098 266.949C559.928 267.051 559.736 267.102 559.523 267.102Z" fill="black"/>
<path d="M1.58523 19V5.90909H9.4858V7.31534H3.17045V11.7386H9.0767V13.1449H3.17045V17.5938H9.58807V19H1.58523ZM15.0277 19.2301C14.4055 19.2301 13.8409 19.1129 13.3338 18.8786C12.8267 18.6399 12.424 18.2969 12.1257 17.8494C11.8274 17.3977 11.6783 16.8523 11.6783 16.2131C11.6783 15.6506 11.7891 15.1946 12.0107 14.8452C12.2322 14.4915 12.5284 14.2145 12.8991 14.0142C13.2699 13.8139 13.679 13.6648 14.1264 13.5668C14.5781 13.4645 15.032 13.3835 15.4879 13.3239C16.0845 13.2472 16.5682 13.1896 16.9389 13.1513C17.3139 13.1087 17.5866 13.0384 17.7571 12.9403C17.9318 12.8423 18.0192 12.6719 18.0192 12.429V12.3778C18.0192 11.7472 17.8466 11.2571 17.5014 10.9077C17.1605 10.5582 16.6428 10.3835 15.9482 10.3835C15.228 10.3835 14.6634 10.5412 14.2543 10.8565C13.8452 11.1719 13.5575 11.5085 13.3913 11.8665L11.9595 11.3551C12.2152 10.7585 12.5561 10.294 12.9822 9.96165C13.4126 9.625 13.8814 9.39062 14.3885 9.25852C14.8999 9.12216 15.4027 9.05398 15.897 9.05398C16.2124 9.05398 16.5746 9.09233 16.9837 9.16903C17.397 9.24148 17.7955 9.39276 18.179 9.62287C18.5668 9.85298 18.8885 10.2003 19.1442 10.6648C19.3999 11.1293 19.5277 11.7514 19.5277 12.5312V19H18.0192V17.6705H17.9425C17.8402 17.8835 17.6697 18.1115 17.4311 18.3544C17.1925 18.5973 16.875 18.804 16.4787 18.9744C16.0824 19.1449 15.5987 19.2301 15.0277 19.2301ZM15.2578 17.875C15.8544 17.875 16.3572 17.7578 16.7663 17.5234C17.1797 17.2891 17.4908 16.9865 17.6996 16.6158C17.9126 16.245 18.0192 15.8551 18.0192 15.446V14.0653C17.9553 14.142 17.8146 14.2124 17.5973 14.2763C17.3842 14.3359 17.1371 14.3892 16.8558 14.4361C16.5788 14.4787 16.3082 14.517 16.044 14.5511C15.7841 14.581 15.5732 14.6065 15.4112 14.6278C15.0192 14.679 14.6527 14.7621 14.3118 14.8771C13.9751 14.9879 13.7024 15.1562 13.4936 15.3821C13.2891 15.6037 13.1868 15.9062 13.1868 16.2898C13.1868 16.8139 13.3807 17.2102 13.7685 17.4787C14.1605 17.7429 14.657 17.875 15.2578 17.875ZM26.2697 19.2045C25.3493 19.2045 24.5566 18.9872 23.8919 18.5526C23.2271 18.1179 22.7157 17.5192 22.3578 16.7564C21.9998 15.9936 21.8208 15.1222 21.8208 14.142C21.8208 13.1449 22.0041 12.2649 22.3706 11.5021C22.7413 10.7351 23.2569 10.1364 23.9174 9.70597C24.5822 9.27131 25.3578 9.05398 26.2441 9.05398C26.9345 9.05398 27.5566 9.18182 28.1106 9.4375C28.6646 9.69318 29.1184 10.0511 29.4721 10.5114C29.8258 10.9716 30.0453 11.5085 30.1305 12.1222H28.622C28.5069 11.6747 28.2512 11.2784 27.8549 10.9332C27.4629 10.5838 26.9345 10.4091 26.2697 10.4091C25.6816 10.4091 25.166 10.5625 24.7228 10.8693C24.2839 11.1719 23.9409 11.6001 23.6937 12.1541C23.4508 12.7038 23.3294 13.3494 23.3294 14.0909C23.3294 14.8494 23.4487 15.5099 23.6873 16.0724C23.9302 16.6349 24.2711 17.0717 24.71 17.3828C25.1532 17.6939 25.6731 17.8494 26.2697 17.8494C26.6618 17.8494 27.0176 17.7812 27.3372 17.6449C27.6568 17.5085 27.9274 17.3125 28.149 17.0568C28.3706 16.8011 28.5282 16.4943 28.622 16.1364H30.1305C30.0453 16.7159 29.8343 17.2379 29.4977 17.7024C29.1653 18.1626 28.7243 18.5291 28.1745 18.8018C27.6291 19.0703 26.9941 19.2045 26.2697 19.2045ZM33.8443 13.0938V19H32.3358V5.90909H33.8443V10.7159H33.9721C34.2022 10.2088 34.5474 9.80611 35.0076 9.50781C35.4721 9.20526 36.09 9.05398 36.8613 9.05398C37.5304 9.05398 38.1163 9.18821 38.6191 9.45668C39.122 9.72088 39.5119 10.1278 39.7889 10.6776C40.0701 11.223 40.2108 11.9176 40.2108 12.7614V19H38.7022V12.8636C38.7022 12.0838 38.4998 11.4808 38.095 11.0547C37.6944 10.6243 37.1383 10.4091 36.4267 10.4091C35.9324 10.4091 35.4892 10.5135 35.0971 10.7223C34.7093 10.9311 34.4025 11.2358 34.1767 11.6364C33.9551 12.0369 33.8443 12.5227 33.8443 13.0938ZM52.1495 19.2045C51.2035 19.2045 50.3874 18.9957 49.7013 18.5781C49.0195 18.1562 48.4933 17.5682 48.1225 16.8139C47.756 16.0554 47.5728 15.1733 47.5728 14.1676C47.5728 13.1619 47.756 12.2756 48.1225 11.5085C48.4933 10.7372 49.0089 10.1364 49.6694 9.70597C50.3342 9.27131 51.1097 9.05398 51.9961 9.05398C52.5075 9.05398 53.0124 9.1392 53.511 9.30966C54.0096 9.48011 54.4634 9.7571 54.8725 10.1406C55.2816 10.5199 55.6076 11.0227 55.8505 11.6491C56.0934 12.2756 56.2148 13.0469 56.2148 13.9631V14.6023H48.6467V13.2983H54.6808C54.6808 12.7443 54.57 12.25 54.3484 11.8153C54.131 11.3807 53.82 11.0376 53.4151 10.7862C53.0146 10.5348 52.5415 10.4091 51.9961 10.4091C51.3952 10.4091 50.8754 10.5582 50.4364 10.8565C50.0018 11.1506 49.6673 11.5341 49.4329 12.0071C49.1985 12.4801 49.0813 12.9872 49.0813 13.5284V14.3977C49.0813 15.1392 49.2092 15.7678 49.4648 16.2834C49.7248 16.7947 50.0849 17.1847 50.5451 17.4531C51.0053 17.7173 51.5401 17.8494 52.1495 17.8494C52.5458 17.8494 52.9038 17.794 53.2234 17.6832C53.5472 17.5682 53.8263 17.3977 54.0607 17.1719C54.2951 16.9418 54.4762 16.6562 54.604 16.3153L56.0614 16.7244C55.908 17.2188 55.6502 17.6534 55.288 18.0284C54.9258 18.3991 54.4783 18.6889 53.9457 18.8977C53.413 19.1023 52.8143 19.2045 52.1495 19.2045ZM58.5096 22.6818V9.18182H59.967V10.7415H60.146C60.2567 10.571 60.4102 10.3537 60.6062 10.0895C60.8065 9.82102 61.092 9.58239 61.4627 9.37358C61.8377 9.16051 62.3448 9.05398 62.984 9.05398C63.8107 9.05398 64.5394 9.26065 65.1701 9.67401C65.8008 10.0874 66.293 10.6733 66.6467 11.4318C67.0004 12.1903 67.1772 13.0852 67.1772 14.1165C67.1772 15.1562 67.0004 16.0575 66.6467 16.8203C66.293 17.5788 65.8029 18.1669 65.1765 18.5845C64.5501 18.9979 63.8278 19.2045 63.0096 19.2045C62.3789 19.2045 61.8739 19.1001 61.4947 18.8913C61.1154 18.6783 60.8235 18.4375 60.619 18.169C60.4144 17.8963 60.2567 17.6705 60.146 17.4915H60.0181V22.6818H58.5096ZM59.9925 14.0909C59.9925 14.8324 60.1012 15.4865 60.3185 16.0533C60.5359 16.6158 60.8533 17.0568 61.271 17.3764C61.6886 17.6918 62.1999 17.8494 62.805 17.8494C63.4357 17.8494 63.962 17.6832 64.3839 17.3509C64.81 17.0142 65.1296 16.5625 65.3427 15.9957C65.56 15.4247 65.6687 14.7898 65.6687 14.0909C65.6687 13.4006 65.5621 12.7784 65.3491 12.2244C65.1403 11.6662 64.8228 11.2251 64.3967 10.9013C63.9748 10.5732 63.4442 10.4091 62.805 10.4091C62.1914 10.4091 61.6758 10.5646 61.2582 10.8757C60.8406 11.1825 60.5252 11.6129 60.3121 12.1669C60.0991 12.7166 59.9925 13.358 59.9925 14.0909ZM73.467 19.2045C72.5806 19.2045 71.8029 18.9936 71.1339 18.5717C70.4691 18.1499 69.9492 17.5597 69.5742 16.8011C69.2035 16.0426 69.0181 15.1562 69.0181 14.142C69.0181 13.1193 69.2035 12.2266 69.5742 11.4638C69.9492 10.701 70.4691 10.1087 71.1339 9.68679C71.8029 9.26491 72.5806 9.05398 73.467 9.05398C74.3533 9.05398 75.1289 9.26491 75.7937 9.68679C76.4627 10.1087 76.9826 10.701 77.3533 11.4638C77.7283 12.2266 77.9158 13.1193 77.9158 14.142C77.9158 15.1562 77.7283 16.0426 77.3533 16.8011C76.9826 17.5597 76.4627 18.1499 75.7937 18.5717C75.1289 18.9936 74.3533 19.2045 73.467 19.2045ZM73.467 17.8494C74.1403 17.8494 74.6942 17.6768 75.1289 17.3317C75.5636 16.9865 75.8853 16.5327 76.0941 15.9702C76.3029 15.4077 76.4073 14.7983 76.4073 14.142C76.4073 13.4858 76.3029 12.8743 76.0941 12.3075C75.8853 11.7408 75.5636 11.2827 75.1289 10.9332C74.6942 10.5838 74.1403 10.4091 73.467 10.4091C72.7937 10.4091 72.2397 10.5838 71.805 10.9332C71.3704 11.2827 71.0487 11.7408 70.8398 12.3075C70.631 12.8743 70.5266 13.4858 70.5266 14.142C70.5266 14.7983 70.631 15.4077 70.8398 15.9702C71.0487 16.5327 71.3704 16.9865 71.805 17.3317C72.2397 17.6768 72.7937 17.8494 73.467 17.8494ZM84.2072 19.2045C83.2868 19.2045 82.4941 18.9872 81.8294 18.5526C81.1646 18.1179 80.6532 17.5192 80.2953 16.7564C79.9373 15.9936 79.7583 15.1222 79.7583 14.142C79.7583 13.1449 79.9416 12.2649 80.3081 11.5021C80.6788 10.7351 81.1944 10.1364 81.8549 9.70597C82.5197 9.27131 83.2953 9.05398 84.1816 9.05398C84.872 9.05398 85.4941 9.18182 86.0481 9.4375C86.6021 9.69318 87.0559 10.0511 87.4096 10.5114C87.7633 10.9716 87.9828 11.5085 88.068 12.1222H86.5595C86.4444 11.6747 86.1887 11.2784 85.7924 10.9332C85.4004 10.5838 84.872 10.4091 84.2072 10.4091C83.6191 10.4091 83.1035 10.5625 82.6603 10.8693C82.2214 11.1719 81.8784 11.6001 81.6312 12.1541C81.3883 12.7038 81.2669 13.3494 81.2669 14.0909C81.2669 14.8494 81.3862 15.5099 81.6248 16.0724C81.8677 16.6349 82.2086 17.0717 82.6475 17.3828C83.0907 17.6939 83.6106 17.8494 84.2072 17.8494C84.5993 17.8494 84.9551 17.7812 85.2747 17.6449C85.5943 17.5085 85.8649 17.3125 86.0865 17.0568C86.3081 16.8011 86.4657 16.4943 86.5595 16.1364H88.068C87.9828 16.7159 87.7718 17.2379 87.4352 17.7024C87.1028 18.1626 86.6618 18.5291 86.112 18.8018C85.5666 19.0703 84.9316 19.2045 84.2072 19.2045ZM91.7818 13.0938V19H90.2733V5.90909H91.7818V10.7159H91.9096C92.1397 10.2088 92.4849 9.80611 92.9451 9.50781C93.4096 9.20526 94.0275 9.05398 94.7988 9.05398C95.4679 9.05398 96.0538 9.18821 96.5566 9.45668C97.0595 9.72088 97.4494 10.1278 97.7264 10.6776C98.0076 11.223 98.1483 11.9176 98.1483 12.7614V19H96.6397V12.8636C96.6397 12.0838 96.4373 11.4808 96.0325 11.0547C95.6319 10.6243 95.0758 10.4091 94.3642 10.4091C93.8699 10.4091 93.4267 10.5135 93.0346 10.7223C92.6468 10.9311 92.34 11.2358 92.1142 11.6364C91.8926 12.0369 91.7818 12.5227 91.7818 13.0938ZM103.158 17.2102L103.056 17.9006C102.983 18.3864 102.873 18.9062 102.723 19.4602C102.578 20.0142 102.427 20.5362 102.27 21.0263C102.112 21.5163 101.982 21.9063 101.88 22.196H100.729C100.784 21.9233 100.857 21.5632 100.946 21.1158C101.036 20.6683 101.125 20.1676 101.215 19.6136C101.309 19.0639 101.385 18.5014 101.445 17.9261L101.522 17.2102H103.158ZM116.391 5.90909V19H113.623V8.53622H113.547L110.549 10.4155V7.96094L113.79 5.90909H116.391ZM124.635 19.2876C123.536 19.2834 122.59 19.0128 121.797 18.4759C121.009 17.9389 120.402 17.1612 119.975 16.1428C119.554 15.1243 119.345 13.8991 119.349 12.4673C119.349 11.0398 119.56 9.82315 119.982 8.81747C120.408 7.81179 121.015 7.04687 121.804 6.52273C122.596 5.99432 123.54 5.73011 124.635 5.73011C125.73 5.73011 126.672 5.99432 127.461 6.52273C128.253 7.05114 128.863 7.81818 129.289 8.82386C129.715 9.82528 129.926 11.0398 129.922 12.4673C129.922 13.9034 129.708 15.1307 129.282 16.1491C128.86 17.1676 128.255 17.9453 127.467 18.4822C126.679 19.0192 125.735 19.2876 124.635 19.2876ZM124.635 16.9929C125.385 16.9929 125.984 16.6158 126.431 15.8615C126.879 15.1072 127.1 13.9759 127.096 12.4673C127.096 11.4744 126.994 10.6477 126.789 9.98722C126.589 9.3267 126.304 8.83026 125.933 8.49787C125.566 8.16548 125.134 7.99929 124.635 7.99929C123.89 7.99929 123.293 8.37216 122.846 9.1179C122.398 9.86364 122.172 10.9801 122.168 12.4673C122.168 13.473 122.268 14.3125 122.468 14.9858C122.673 15.6548 122.961 16.1577 123.331 16.4943C123.702 16.8267 124.137 16.9929 124.635 16.9929ZM139.061 16.5455V15.8551C139.061 15.331 139.171 14.8494 139.393 14.4105C139.619 13.9673 139.945 13.6136 140.371 13.3494C140.801 13.081 141.325 12.9467 141.943 12.9467C142.57 12.9467 143.096 13.0788 143.522 13.343C143.953 13.6072 144.276 13.9609 144.494 14.4041C144.715 14.843 144.826 15.3267 144.826 15.8551V16.5455C144.826 17.0696 144.715 17.5533 144.494 17.9964C144.272 18.4354 143.946 18.7869 143.516 19.0511C143.085 19.3196 142.561 19.4538 141.943 19.4538C141.317 19.4538 140.791 19.3196 140.365 19.0511C139.938 18.7869 139.615 18.4354 139.393 17.9964C139.171 17.5533 139.061 17.0696 139.061 16.5455ZM140.921 15.8551V16.5455C140.921 16.848 140.993 17.1335 141.138 17.402C141.287 17.6705 141.556 17.8047 141.943 17.8047C142.331 17.8047 142.595 17.6726 142.736 17.4084C142.881 17.1442 142.953 16.8565 142.953 16.5455V15.8551C142.953 15.544 142.885 15.2543 142.749 14.9858C142.612 14.7173 142.344 14.5831 141.943 14.5831C141.56 14.5831 141.294 14.7173 141.144 14.9858C140.995 15.2543 140.921 15.544 140.921 15.8551ZM132.343 9.05398V8.36364C132.343 7.83523 132.455 7.35156 132.681 6.91264C132.907 6.46946 133.233 6.11577 133.659 5.85156C134.09 5.58736 134.61 5.45526 135.219 5.45526C135.85 5.45526 136.378 5.58736 136.804 5.85156C137.23 6.11577 137.554 6.46946 137.776 6.91264C137.997 7.35156 138.108 7.83523 138.108 8.36364V9.05398C138.108 9.58239 137.995 10.0661 137.769 10.505C137.548 10.9439 137.222 11.2955 136.791 11.5597C136.365 11.8196 135.841 11.9496 135.219 11.9496C134.597 11.9496 134.07 11.8175 133.64 11.5533C133.214 11.2848 132.89 10.9332 132.669 10.4986C132.451 10.0597 132.343 9.57812 132.343 9.05398ZM134.215 8.36364V9.05398C134.215 9.36506 134.288 9.6527 134.433 9.9169C134.582 10.1811 134.844 10.3132 135.219 10.3132C135.611 10.3132 135.877 10.1811 136.018 9.9169C136.163 9.6527 136.235 9.36506 136.235 9.05398V8.36364C136.235 8.05256 136.167 7.76278 136.031 7.49432C135.894 7.22585 135.624 7.09162 135.219 7.09162C134.84 7.09162 134.578 7.22798 134.433 7.50071C134.288 7.77344 134.215 8.06108 134.215 8.36364ZM133.186 19L142.186 5.90909H143.861L134.861 19H133.186ZM156.735 19.2045C155.848 19.2045 155.07 18.9936 154.401 18.5717C153.737 18.1499 153.217 17.5597 152.842 16.8011C152.471 16.0426 152.286 15.1562 152.286 14.142C152.286 13.1193 152.471 12.2266 152.842 11.4638C153.217 10.701 153.737 10.1087 154.401 9.68679C155.07 9.26491 155.848 9.05398 156.735 9.05398C157.621 9.05398 158.396 9.26491 159.061 9.68679C159.73 10.1087 160.25 10.701 160.621 11.4638C160.996 12.2266 161.183 13.1193 161.183 14.142C161.183 15.1562 160.996 16.0426 160.621 16.8011C160.25 17.5597 159.73 18.1499 159.061 18.5717C158.396 18.9936 157.621 19.2045 156.735 19.2045ZM156.735 17.8494C157.408 17.8494 157.962 17.6768 158.396 17.3317C158.831 16.9865 159.153 16.5327 159.362 15.9702C159.57 15.4077 159.675 14.7983 159.675 14.142C159.675 13.4858 159.57 12.8743 159.362 12.3075C159.153 11.7408 158.831 11.2827 158.396 10.9332C157.962 10.5838 157.408 10.4091 156.735 10.4091C156.061 10.4091 155.507 10.5838 155.073 10.9332C154.638 11.2827 154.316 11.7408 154.107 12.3075C153.899 12.8743 153.794 13.4858 153.794 14.142C153.794 14.7983 153.899 15.4077 154.107 15.9702C154.316 16.5327 154.638 16.9865 155.073 17.3317C155.507 17.6768 156.061 17.8494 156.735 17.8494ZM167.858 9.18182V10.4602H162.566V9.18182H167.858ZM164.151 19V7.8267C164.151 7.2642 164.283 6.79545 164.547 6.42045C164.811 6.04545 165.154 5.7642 165.576 5.5767C165.998 5.3892 166.444 5.29545 166.912 5.29545C167.283 5.29545 167.586 5.32528 167.82 5.38494C168.054 5.4446 168.229 5.5 168.344 5.55114L167.909 6.85511C167.833 6.82954 167.726 6.79758 167.59 6.75923C167.458 6.72088 167.283 6.7017 167.066 6.7017C166.567 6.7017 166.207 6.82741 165.985 7.07884C165.768 7.33026 165.659 7.69886 165.659 8.18466V19H164.151ZM176.544 13.0938V19H175.035V9.18182H176.492V10.7159H176.62C176.85 10.2173 177.2 9.81676 177.669 9.5142C178.137 9.20739 178.742 9.05398 179.484 9.05398C180.149 9.05398 180.73 9.19034 181.229 9.46307C181.727 9.73153 182.115 10.1406 182.392 10.6903C182.669 11.2358 182.808 11.9261 182.808 12.7614V19H181.299V12.8636C181.299 12.0923 181.099 11.4915 180.698 11.0611C180.298 10.6264 179.748 10.4091 179.049 10.4091C178.568 10.4091 178.137 10.5135 177.758 10.7223C177.383 10.9311 177.087 11.2358 176.869 11.6364C176.652 12.0369 176.544 12.5227 176.544 13.0938ZM189.681 19.2045C188.735 19.2045 187.919 18.9957 187.233 18.5781C186.551 18.1562 186.025 17.5682 185.654 16.8139C185.287 16.0554 185.104 15.1733 185.104 14.1676C185.104 13.1619 185.287 12.2756 185.654 11.5085C186.025 10.7372 186.54 10.1364 187.201 9.70597C187.865 9.27131 188.641 9.05398 189.527 9.05398C190.039 9.05398 190.544 9.1392 191.042 9.30966C191.541 9.48011 191.995 9.7571 192.404 10.1406C192.813 10.5199 193.139 11.0227 193.382 11.6491C193.625 12.2756 193.746 13.0469 193.746 13.9631V14.6023H186.178V13.2983H192.212C192.212 12.7443 192.101 12.25 191.88 11.8153C191.662 11.3807 191.351 11.0376 190.946 10.7862C190.546 10.5348 190.073 10.4091 189.527 10.4091C188.926 10.4091 188.407 10.5582 187.968 10.8565C187.533 11.1506 187.199 11.5341 186.964 12.0071C186.73 12.4801 186.613 12.9872 186.613 13.5284V14.3977C186.613 15.1392 186.74 15.7678 186.996 16.2834C187.256 16.7947 187.616 17.1847 188.076 17.4531C188.537 17.7173 189.071 17.8494 189.681 17.8494C190.077 17.8494 190.435 17.794 190.755 17.6832C191.078 17.5682 191.358 17.3977 191.592 17.1719C191.826 16.9418 192.007 16.6562 192.135 16.3153L193.593 16.7244C193.439 17.2188 193.181 17.6534 192.819 18.0284C192.457 18.3991 192.01 18.6889 191.477 18.8977C190.944 19.1023 190.346 19.2045 189.681 19.2045ZM198.265 19L195.274 9.18182H196.859L198.981 16.6989H199.083L201.18 9.18182H202.791L204.862 16.6733H204.964L207.086 9.18182H208.672L205.68 19H204.197L202.049 11.4574H201.896L199.748 19H198.265ZM219.998 9.18182V10.4602H214.91V9.18182H219.998ZM216.393 6.82955H217.902V16.1875C217.902 16.6136 217.963 16.9332 218.087 17.1463C218.215 17.3551 218.377 17.4957 218.573 17.5682C218.773 17.6364 218.984 17.6705 219.206 17.6705C219.372 17.6705 219.508 17.6619 219.615 17.6449C219.721 17.6236 219.806 17.6065 219.87 17.5938L220.177 18.9489C220.075 18.9872 219.932 19.0256 219.749 19.0639C219.566 19.1065 219.333 19.1278 219.052 19.1278C218.626 19.1278 218.208 19.0362 217.799 18.853C217.395 18.6697 217.058 18.3906 216.789 18.0156C216.525 17.6406 216.393 17.1676 216.393 16.5966V6.82955ZM226.151 19.2045C225.264 19.2045 224.487 18.9936 223.817 18.5717C223.153 18.1499 222.633 17.5597 222.258 16.8011C221.887 16.0426 221.702 15.1562 221.702 14.142C221.702 13.1193 221.887 12.2266 222.258 11.4638C222.633 10.701 223.153 10.1087 223.817 9.68679C224.487 9.26491 225.264 9.05398 226.151 9.05398C227.037 9.05398 227.813 9.26491 228.477 9.68679C229.146 10.1087 229.666 10.701 230.037 11.4638C230.412 12.2266 230.599 13.1193 230.599 14.142C230.599 15.1562 230.412 16.0426 230.037 16.8011C229.666 17.5597 229.146 18.1499 228.477 18.5717C227.813 18.9936 227.037 19.2045 226.151 19.2045ZM226.151 17.8494C226.824 17.8494 227.378 17.6768 227.812 17.3317C228.247 16.9865 228.569 16.5327 228.778 15.9702C228.987 15.4077 229.091 14.7983 229.091 14.142C229.091 13.4858 228.987 12.8743 228.778 12.3075C228.569 11.7408 228.247 11.2827 227.812 10.9332C227.378 10.5838 226.824 10.4091 226.151 10.4091C225.477 10.4091 224.923 10.5838 224.489 10.9332C224.054 11.2827 223.732 11.7408 223.523 12.3075C223.315 12.8743 223.21 13.4858 223.21 14.142C223.21 14.7983 223.315 15.4077 223.523 15.9702C223.732 16.5327 224.054 16.9865 224.489 17.3317C224.923 17.6768 225.477 17.8494 226.151 17.8494ZM234.308 15.4205L234.283 13.554H234.59L238.885 9.18182H240.752L236.175 13.8097H236.047L234.308 15.4205ZM232.902 19V5.90909H234.411V19H232.902ZM239.141 19L235.306 14.142L236.379 13.0938L241.058 19H239.141ZM246.405 19.2045C245.459 19.2045 244.643 18.9957 243.957 18.5781C243.275 18.1562 242.749 17.5682 242.378 16.8139C242.012 16.0554 241.829 15.1733 241.829 14.1676C241.829 13.1619 242.012 12.2756 242.378 11.5085C242.749 10.7372 243.265 10.1364 243.925 9.70597C244.59 9.27131 245.366 9.05398 246.252 9.05398C246.763 9.05398 247.268 9.1392 247.767 9.30966C248.265 9.48011 248.719 9.7571 249.128 10.1406C249.537 10.5199 249.863 11.0227 250.106 11.6491C250.349 12.2756 250.471 13.0469 250.471 13.9631V14.6023H242.903V13.2983H248.937C248.937 12.7443 248.826 12.25 248.604 11.8153C248.387 11.3807 248.076 11.0376 247.671 10.7862C247.27 10.5348 246.797 10.4091 246.252 10.4091C245.651 10.4091 245.131 10.5582 244.692 10.8565C244.258 11.1506 243.923 11.5341 243.689 12.0071C243.454 12.4801 243.337 12.9872 243.337 13.5284V14.3977C243.337 15.1392 243.465 15.7678 243.721 16.2834C243.981 16.7947 244.341 17.1847 244.801 17.4531C245.261 17.7173 245.796 17.8494 246.405 17.8494C246.802 17.8494 247.16 17.794 247.479 17.6832C247.803 17.5682 248.082 17.3977 248.317 17.1719C248.551 16.9418 248.732 16.6562 248.86 16.3153L250.317 16.7244C250.164 17.2188 249.906 17.6534 249.544 18.0284C249.182 18.3991 248.734 18.6889 248.202 18.8977C247.669 19.1023 247.07 19.2045 246.405 19.2045ZM254.274 13.0938V19H252.765V9.18182H254.223V10.7159H254.351C254.581 10.2173 254.93 9.81676 255.399 9.5142C255.868 9.20739 256.473 9.05398 257.214 9.05398C257.879 9.05398 258.461 9.19034 258.959 9.46307C259.458 9.73153 259.846 10.1406 260.123 10.6903C260.4 11.2358 260.538 11.9261 260.538 12.7614V19H259.03V12.8636C259.03 12.0923 258.829 11.4915 258.429 11.0611C258.028 10.6264 257.479 10.4091 256.78 10.4091C256.298 10.4091 255.868 10.5135 255.488 10.7223C255.113 10.9311 254.817 11.2358 254.6 11.6364C254.383 12.0369 254.274 12.5227 254.274 13.0938ZM270.249 11.3807L268.894 11.7642C268.809 11.5384 268.683 11.3189 268.517 11.1058C268.355 10.8885 268.134 10.7095 267.852 10.5689C267.571 10.4283 267.211 10.358 266.772 10.358C266.171 10.358 265.67 10.4964 265.27 10.7734C264.874 11.0462 264.675 11.3935 264.675 11.8153C264.675 12.1903 264.812 12.4865 265.085 12.7038C265.357 12.9212 265.783 13.1023 266.363 13.2472L267.82 13.6051C268.698 13.8182 269.352 14.1442 269.783 14.5831C270.213 15.0178 270.428 15.5781 270.428 16.2642C270.428 16.8267 270.266 17.3295 269.942 17.7727C269.623 18.2159 269.175 18.5653 268.6 18.821C268.025 19.0767 267.356 19.2045 266.593 19.2045C265.592 19.2045 264.763 18.9872 264.107 18.5526C263.45 18.1179 263.035 17.483 262.86 16.6477L264.292 16.2898C264.428 16.8182 264.686 17.2145 265.065 17.4787C265.449 17.7429 265.95 17.875 266.567 17.875C267.271 17.875 267.829 17.7259 268.242 17.4276C268.66 17.125 268.869 16.7628 268.869 16.3409C268.869 16 268.749 15.7145 268.511 15.4844C268.272 15.25 267.906 15.0753 267.411 14.9602L265.775 14.5767C264.876 14.3636 264.215 14.0334 263.793 13.5859C263.376 13.1342 263.167 12.5696 263.167 11.892C263.167 11.3381 263.322 10.848 263.634 10.4219C263.949 9.99574 264.377 9.66122 264.918 9.41832C265.464 9.17543 266.082 9.05398 266.772 9.05398C267.744 9.05398 268.506 9.26705 269.06 9.69318C269.619 10.1193 270.015 10.6818 270.249 11.3807ZM281.725 22.8864C280.996 22.8864 280.369 22.7926 279.845 22.6051C279.321 22.4219 278.884 22.179 278.535 21.8764C278.19 21.5781 277.915 21.2585 277.71 20.9176L278.912 20.0739C279.048 20.2528 279.221 20.4574 279.43 20.6875C279.639 20.9219 279.924 21.1243 280.286 21.2947C280.653 21.4695 281.132 21.5568 281.725 21.5568C282.517 21.5568 283.171 21.3651 283.687 20.9815C284.203 20.598 284.46 19.9972 284.46 19.179V17.1847H284.333C284.222 17.3636 284.064 17.5852 283.86 17.8494C283.659 18.1094 283.369 18.3416 282.99 18.5462C282.615 18.7464 282.108 18.8466 281.469 18.8466C280.676 18.8466 279.965 18.6591 279.334 18.2841C278.708 17.9091 278.211 17.3636 277.845 16.6477C277.482 15.9318 277.301 15.0625 277.301 14.0398C277.301 13.0341 277.478 12.1584 277.832 11.4126C278.186 10.6626 278.678 10.0831 279.308 9.67401C279.939 9.26065 280.668 9.05398 281.494 9.05398C282.134 9.05398 282.641 9.16051 283.016 9.37358C283.395 9.58239 283.685 9.82102 283.885 10.0895C284.09 10.3537 284.247 10.571 284.358 10.7415H284.512V9.18182H285.969V19.2812C285.969 20.125 285.777 20.8111 285.394 21.3395C285.014 21.8722 284.503 22.2621 283.86 22.5092C283.22 22.7607 282.509 22.8864 281.725 22.8864ZM281.673 17.4915C282.279 17.4915 282.79 17.353 283.208 17.076C283.625 16.799 283.943 16.4006 284.16 15.8807C284.377 15.3608 284.486 14.7386 284.486 14.0142C284.486 13.3068 284.379 12.6825 284.166 12.1413C283.953 11.6001 283.638 11.1761 283.22 10.8693C282.803 10.5625 282.287 10.4091 281.673 10.4091C281.034 10.4091 280.502 10.571 280.075 10.8949C279.654 11.2187 279.336 11.6534 279.123 12.1989C278.914 12.7443 278.81 13.3494 278.81 14.0142C278.81 14.696 278.916 15.299 279.129 15.8232C279.347 16.343 279.666 16.7521 280.088 17.0504C280.514 17.3445 281.043 17.4915 281.673 17.4915ZM292.719 19.2045C291.833 19.2045 291.055 18.9936 290.386 18.5717C289.721 18.1499 289.201 17.5597 288.826 16.8011C288.455 16.0426 288.27 15.1562 288.27 14.142C288.27 13.1193 288.455 12.2266 288.826 11.4638C289.201 10.701 289.721 10.1087 290.386 9.68679C291.055 9.26491 291.833 9.05398 292.719 9.05398C293.605 9.05398 294.381 9.26491 295.046 9.68679C295.715 10.1087 296.235 10.701 296.605 11.4638C296.98 12.2266 297.168 13.1193 297.168 14.142C297.168 15.1562 296.98 16.0426 296.605 16.8011C296.235 17.5597 295.715 18.1499 295.046 18.5717C294.381 18.9936 293.605 19.2045 292.719 19.2045ZM292.719 17.8494C293.392 17.8494 293.946 17.6768 294.381 17.3317C294.816 16.9865 295.137 16.5327 295.346 15.9702C295.555 15.4077 295.659 14.7983 295.659 14.142C295.659 13.4858 295.555 12.8743 295.346 12.3075C295.137 11.7408 294.816 11.2827 294.381 10.9332C293.946 10.5838 293.392 10.4091 292.719 10.4091C292.046 10.4091 291.492 10.5838 291.057 10.9332C290.622 11.2827 290.301 11.7408 290.092 12.3075C289.883 12.8743 289.779 13.4858 289.779 14.142C289.779 14.7983 289.883 15.4077 290.092 15.9702C290.301 16.5327 290.622 16.9865 291.057 17.3317C291.492 17.6768 292.046 17.8494 292.719 17.8494ZM308.803 9.18182V10.4602H303.715V9.18182H308.803ZM305.198 6.82955H306.706V16.1875C306.706 16.6136 306.768 16.9332 306.892 17.1463C307.02 17.3551 307.181 17.4957 307.377 17.5682C307.578 17.6364 307.789 17.6705 308.01 17.6705C308.176 17.6705 308.313 17.6619 308.419 17.6449C308.526 17.6236 308.611 17.6065 308.675 17.5938L308.982 18.9489C308.88 18.9872 308.737 19.0256 308.554 19.0639C308.37 19.1065 308.138 19.1278 307.857 19.1278C307.431 19.1278 307.013 19.0362 306.604 18.853C306.199 18.6697 305.863 18.3906 305.594 18.0156C305.33 17.6406 305.198 17.1676 305.198 16.5966V6.82955ZM314.955 19.2045C314.069 19.2045 313.291 18.9936 312.622 18.5717C311.957 18.1499 311.438 17.5597 311.062 16.8011C310.692 16.0426 310.506 15.1562 310.506 14.142C310.506 13.1193 310.692 12.2266 311.062 11.4638C311.438 10.701 311.957 10.1087 312.622 9.68679C313.291 9.26491 314.069 9.05398 314.955 9.05398C315.842 9.05398 316.617 9.26491 317.282 9.68679C317.951 10.1087 318.471 10.701 318.842 11.4638C319.217 12.2266 319.404 13.1193 319.404 14.142C319.404 15.1562 319.217 16.0426 318.842 16.8011C318.471 17.5597 317.951 18.1499 317.282 18.5717C316.617 18.9936 315.842 19.2045 314.955 19.2045ZM314.955 17.8494C315.629 17.8494 316.183 17.6768 316.617 17.3317C317.052 16.9865 317.374 16.5327 317.582 15.9702C317.791 15.4077 317.896 14.7983 317.896 14.142C317.896 13.4858 317.791 12.8743 317.582 12.3075C317.374 11.7408 317.052 11.2827 316.617 10.9332C316.183 10.5838 315.629 10.4091 314.955 10.4091C314.282 10.4091 313.728 10.5838 313.293 10.9332C312.859 11.2827 312.537 11.7408 312.328 12.3075C312.119 12.8743 312.015 13.4858 312.015 14.142C312.015 14.7983 312.119 15.4077 312.328 15.9702C312.537 16.5327 312.859 16.9865 313.293 17.3317C313.728 17.6768 314.282 17.8494 314.955 17.8494ZM331.167 19H326.526V5.90909H331.205C332.522 5.90909 333.656 6.17116 334.606 6.69531C335.556 7.2152 336.287 7.96307 336.798 8.93892C337.314 9.91477 337.572 11.0824 337.572 12.4418C337.572 13.8054 337.314 14.9773 336.798 15.9574C336.287 16.9375 335.552 17.6896 334.593 18.2138C333.639 18.7379 332.497 19 331.167 19ZM329.294 16.6286H331.052C331.87 16.6286 332.558 16.4837 333.117 16.1939C333.679 15.8999 334.101 15.446 334.382 14.8324C334.668 14.2145 334.811 13.4176 334.811 12.4418C334.811 11.4744 334.668 10.6839 334.382 10.0703C334.101 9.45668 333.681 9.00497 333.123 8.7152C332.565 8.42543 331.877 8.28054 331.058 8.28054H329.294V16.6286ZM344.045 19.1918C343.036 19.1918 342.166 18.9872 341.438 18.5781C340.713 18.1648 340.155 17.581 339.763 16.8267C339.371 16.0682 339.175 15.1712 339.175 14.1357C339.175 13.1257 339.371 12.2393 339.763 11.4766C340.155 10.7138 340.707 10.1193 341.418 9.69318C342.134 9.26705 342.974 9.05398 343.937 9.05398C344.585 9.05398 345.188 9.15838 345.746 9.36719C346.308 9.57173 346.798 9.88068 347.216 10.294C347.638 10.7074 347.966 11.2273 348.2 11.8537C348.435 12.4759 348.552 13.2045 348.552 14.0398V14.7876H340.261V13.1001H345.989C345.989 12.7081 345.903 12.3608 345.733 12.0582C345.563 11.7557 345.326 11.5192 345.023 11.3487C344.725 11.174 344.378 11.0866 343.982 11.0866C343.568 11.0866 343.202 11.1825 342.882 11.3743C342.567 11.5618 342.32 11.8153 342.141 12.1349C341.962 12.4503 341.87 12.8018 341.866 13.1896V14.794C341.866 15.2798 341.955 15.6996 342.134 16.0533C342.317 16.407 342.575 16.6797 342.908 16.8714C343.24 17.0632 343.634 17.1591 344.09 17.1591C344.393 17.1591 344.67 17.1165 344.921 17.0312C345.173 16.946 345.388 16.8182 345.567 16.6477C345.746 16.4773 345.882 16.2685 345.976 16.0213L348.494 16.1875C348.366 16.7926 348.104 17.321 347.708 17.7727C347.316 18.2202 346.809 18.5696 346.187 18.821C345.569 19.0682 344.855 19.1918 344.045 19.1918ZM359.219 9.18182L355.786 19H352.718L349.285 9.18182H352.162L354.201 16.2067H354.303L356.336 9.18182H359.219ZM364.77 19.1918C363.76 19.1918 362.891 18.9872 362.162 18.5781C361.438 18.1648 360.879 17.581 360.487 16.8267C360.095 16.0682 359.899 15.1712 359.899 14.1357C359.899 13.1257 360.095 12.2393 360.487 11.4766C360.879 10.7138 361.431 10.1193 362.143 9.69318C362.859 9.26705 363.698 9.05398 364.661 9.05398C365.309 9.05398 365.912 9.15838 366.47 9.36719C367.033 9.57173 367.523 9.88068 367.941 10.294C368.362 10.7074 368.691 11.2273 368.925 11.8537C369.159 12.4759 369.276 13.2045 369.276 14.0398V14.7876H360.986V13.1001H366.713C366.713 12.7081 366.628 12.3608 366.458 12.0582C366.287 11.7557 366.051 11.5192 365.748 11.3487C365.45 11.174 365.102 11.0866 364.706 11.0866C364.293 11.0866 363.926 11.1825 363.607 11.3743C363.291 11.5618 363.044 11.8153 362.865 12.1349C362.686 12.4503 362.595 12.8018 362.59 13.1896V14.794C362.59 15.2798 362.68 15.6996 362.859 16.0533C363.042 16.407 363.3 16.6797 363.632 16.8714C363.965 17.0632 364.359 17.1591 364.815 17.1591C365.117 17.1591 365.394 17.1165 365.646 17.0312C365.897 16.946 366.112 16.8182 366.291 16.6477C366.47 16.4773 366.607 16.2685 366.7 16.0213L369.219 16.1875C369.091 16.7926 368.829 17.321 368.433 17.7727C368.041 18.2202 367.534 18.5696 366.911 18.821C366.294 19.0682 365.58 19.1918 364.77 19.1918ZM373.776 5.90909V19H371.053V5.90909H373.776ZM380.394 19.1918C379.401 19.1918 378.542 18.9808 377.818 18.5589C377.098 18.1328 376.542 17.5405 376.15 16.782C375.757 16.0192 375.561 15.1349 375.561 14.1293C375.561 13.1151 375.757 12.2287 376.15 11.4702C376.542 10.7074 377.098 10.1151 377.818 9.69318C378.542 9.26705 379.401 9.05398 380.394 9.05398C381.387 9.05398 382.243 9.26705 382.963 9.69318C383.688 10.1151 384.246 10.7074 384.638 11.4702C385.03 12.2287 385.226 13.1151 385.226 14.1293C385.226 15.1349 385.03 16.0192 384.638 16.782C384.246 17.5405 383.688 18.1328 382.963 18.5589C382.243 18.9808 381.387 19.1918 380.394 19.1918ZM380.407 17.0824C380.858 17.0824 381.235 16.9545 381.538 16.6989C381.841 16.4389 382.069 16.0852 382.222 15.6378C382.38 15.1903 382.458 14.6811 382.458 14.1101C382.458 13.5391 382.38 13.0298 382.222 12.5824C382.069 12.1349 381.841 11.7812 381.538 11.5213C381.235 11.2614 380.858 11.1314 380.407 11.1314C379.951 11.1314 379.567 11.2614 379.256 11.5213C378.949 11.7812 378.717 12.1349 378.559 12.5824C378.406 13.0298 378.329 13.5391 378.329 14.1101C378.329 14.6811 378.406 15.1903 378.559 15.6378C378.717 16.0852 378.949 16.4389 379.256 16.6989C379.567 16.9545 379.951 17.0824 380.407 17.0824ZM386.997 22.6818V9.18182H389.681V10.831H389.803C389.922 10.5668 390.095 10.2983 390.321 10.0256C390.551 9.74858 390.849 9.51847 391.216 9.33523C391.586 9.14773 392.047 9.05398 392.596 9.05398C393.312 9.05398 393.973 9.24148 394.578 9.61648C395.183 9.98722 395.667 10.5476 396.029 11.2976C396.391 12.0433 396.572 12.9787 396.572 14.1037C396.572 15.1989 396.395 16.1236 396.042 16.8778C395.692 17.6278 395.215 18.1967 394.61 18.5845C394.009 18.968 393.336 19.1598 392.59 19.1598C392.061 19.1598 391.612 19.0724 391.241 18.8977C390.875 18.723 390.574 18.5036 390.34 18.2393C390.105 17.9709 389.926 17.7003 389.803 17.4276H389.72V22.6818H386.997ZM389.662 14.0909C389.662 14.6747 389.743 15.1839 389.905 15.6186C390.067 16.0533 390.301 16.392 390.608 16.6349C390.915 16.8736 391.288 16.9929 391.727 16.9929C392.17 16.9929 392.545 16.8714 392.852 16.6286C393.159 16.3814 393.391 16.0405 393.549 15.6058C393.711 15.1669 393.792 14.6619 393.792 14.0909C393.792 13.5241 393.713 13.0256 393.555 12.5952C393.397 12.1648 393.165 11.8281 392.858 11.5852C392.551 11.3423 392.174 11.2209 391.727 11.2209C391.284 11.2209 390.909 11.3381 390.602 11.5724C390.299 11.8068 390.067 12.1392 389.905 12.5696C389.743 13 389.662 13.5071 389.662 14.0909ZM402.862 19.1918C401.852 19.1918 400.983 18.9872 400.254 18.5781C399.529 18.1648 398.971 17.581 398.579 16.8267C398.187 16.0682 397.991 15.1712 397.991 14.1357C397.991 13.1257 398.187 12.2393 398.579 11.4766C398.971 10.7138 399.523 10.1193 400.235 9.69318C400.951 9.26705 401.79 9.05398 402.753 9.05398C403.401 9.05398 404.004 9.15838 404.562 9.36719C405.125 9.57173 405.615 9.88068 406.032 10.294C406.454 10.7074 406.782 11.2273 407.017 11.8537C407.251 12.4759 407.368 13.2045 407.368 14.0398V14.7876H399.078V13.1001H404.805C404.805 12.7081 404.72 12.3608 404.549 12.0582C404.379 11.7557 404.142 11.5192 403.84 11.3487C403.542 11.174 403.194 11.0866 402.798 11.0866C402.385 11.0866 402.018 11.1825 401.699 11.3743C401.383 11.5618 401.136 11.8153 400.957 12.1349C400.778 12.4503 400.686 12.8018 400.682 13.1896V14.794C400.682 15.2798 400.772 15.6996 400.951 16.0533C401.134 16.407 401.392 16.6797 401.724 16.8714C402.056 17.0632 402.451 17.1591 402.907 17.1591C403.209 17.1591 403.486 17.1165 403.738 17.0312C403.989 16.946 404.204 16.8182 404.383 16.6477C404.562 16.4773 404.699 16.2685 404.792 16.0213L407.311 16.1875C407.183 16.7926 406.921 17.321 406.525 17.7727C406.132 18.2202 405.625 18.5696 405.003 18.821C404.385 19.0682 403.672 19.1918 402.862 19.1918ZM409.145 19V9.18182H411.785V10.8949H411.887C412.066 10.2855 412.367 9.82528 412.789 9.5142C413.211 9.19886 413.696 9.04119 414.246 9.04119C414.382 9.04119 414.529 9.04972 414.687 9.06676C414.845 9.08381 414.983 9.10724 415.103 9.13707V11.5533C414.975 11.5149 414.798 11.4808 414.572 11.451C414.346 11.4212 414.14 11.4062 413.952 11.4062C413.551 11.4062 413.194 11.4936 412.878 11.6683C412.567 11.8388 412.32 12.0774 412.137 12.3842C411.958 12.6911 411.868 13.0447 411.868 13.4453V19H409.145ZM424.68 11.9815L422.187 12.1349C422.144 11.9219 422.052 11.7301 421.912 11.5597C421.771 11.3849 421.586 11.2464 421.356 11.1442C421.13 11.0376 420.859 10.9844 420.544 10.9844C420.122 10.9844 419.766 11.0739 419.476 11.2528C419.187 11.4276 419.042 11.6619 419.042 11.956C419.042 12.1903 419.135 12.3885 419.323 12.5504C419.51 12.7124 419.832 12.8423 420.288 12.9403L422.065 13.2983C423.02 13.4943 423.731 13.8097 424.2 14.2443C424.669 14.679 424.903 15.25 424.903 15.9574C424.903 16.6009 424.714 17.1655 424.334 17.6513C423.959 18.1371 423.444 18.5163 422.787 18.7891C422.135 19.0575 421.383 19.1918 420.531 19.1918C419.231 19.1918 418.196 18.9212 417.425 18.38C416.657 17.8345 416.208 17.093 416.076 16.1555L418.754 16.0149C418.835 16.4112 419.031 16.7138 419.342 16.9226C419.653 17.1271 420.052 17.2294 420.537 17.2294C421.015 17.2294 421.398 17.1378 421.688 16.9545C421.982 16.767 422.131 16.5263 422.135 16.2322C422.131 15.9851 422.027 15.7827 421.822 15.625C421.618 15.4631 421.302 15.3395 420.876 15.2543L419.176 14.9155C418.217 14.7237 417.503 14.3913 417.035 13.9183C416.57 13.4453 416.338 12.8423 416.338 12.1094C416.338 11.4787 416.508 10.9354 416.849 10.4794C417.194 10.0234 417.678 9.67188 418.3 9.42472C418.927 9.17756 419.66 9.05398 420.499 9.05398C421.739 9.05398 422.715 9.31605 423.427 9.8402C424.143 10.3643 424.56 11.0781 424.68 11.9815ZM428.21 19.1662C427.788 19.1662 427.425 19.017 427.123 18.7188C426.825 18.4162 426.675 18.054 426.675 17.6321C426.675 17.2145 426.825 16.8565 427.123 16.5582C427.425 16.2599 427.788 16.1108 428.21 16.1108C428.619 16.1108 428.977 16.2599 429.283 16.5582C429.59 16.8565 429.744 17.2145 429.744 17.6321C429.744 17.9134 429.671 18.1712 429.526 18.4055C429.386 18.6357 429.2 18.821 428.97 18.9616C428.74 19.098 428.487 19.1662 428.21 19.1662Z" fill="black"/>
<defs>
<linearGradient id="paint0_linear_543_192" x1="206.214" y1="165.702" x2="403.714" y2="99.7023" gradientUnits="userSpaceOnUse">
<stop stop-color="#7E22CE"/>
<stop offset="1" stop-color="#F5D0FE"/>
</linearGradient>
<linearGradient id="paint1_linear_543_192" x1="204.714" y1="109.702" x2="351.214" y2="48.2023" gradientUnits="userSpaceOnUse">
<stop stop-color="#7DD3FC"/>
<stop offset="1" stop-color="#E7F3F8"/>
</linearGradient>
</defs>
</svg>
