<svg width="602" height="357" viewBox="0 0 602 357" fill="none" xmlns="http://www.w3.org/2000/svg">
<path d="M82.7097 301.843H579.371" stroke="#E6E6E6" stroke-width="0.836131"/>
<path d="M82.7097 228.264H579.371" stroke="#E6E6E6" stroke-width="0.836131"/>
<path d="M82.7097 153.848H579.371" stroke="#E6E6E6" stroke-width="0.836131"/>
<path d="M82.7097 80.2686H579.371" stroke="#E6E6E6" stroke-width="0.836131"/>
<path d="M82.7097 5.01672H579.371" stroke="#E6E6E6" stroke-width="0.836131"/>
<path d="M82.7097 301.425H579.371" stroke="#CCD6EB" stroke-width="0.836131"/>
<path d="M95.4608 290.346H109.257V301.634H95.4608V290.346Z" fill="url(#paint0_linear_538_159)" stroke="#7E22CE" stroke-width="0.418065" stroke-linejoin="round"/>
<path d="M133.087 153.221H146.883V301.634H133.087V153.221Z" fill="url(#paint1_linear_538_159)" stroke="#7E22CE" stroke-width="0.418065" stroke-linejoin="round"/>
<path d="M171.549 38.6709H185.345V301.634H171.549V38.6709Z" fill="url(#paint2_linear_538_159)" stroke="#7E22CE" stroke-width="0.418065" stroke-linejoin="round"/>
<line y1="356.5" x2="602" y2="356.5" stroke="#796C84"/>
<path d="M210.011 52.8852H223.807V301.634H210.011V52.8852Z" fill="url(#paint3_linear_538_159)" stroke="#7E22CE" stroke-width="0.418065" stroke-linejoin="round"/>
<path d="M247.637 70.444H261.433V301.634H247.637V70.444Z" fill="url(#paint4_linear_538_159)" stroke="#7E22CE" stroke-width="0.418065" stroke-linejoin="round"/>
<path d="M286.099 90.5112H299.895V301.634H286.099V90.5112Z" fill="url(#paint5_linear_538_159)" stroke="#7E22CE" stroke-width="0.418065" stroke-linejoin="round"/>
<path d="M324.561 111.414H338.357V301.634H324.561V111.414Z" fill="url(#paint6_linear_538_159)" stroke="#7E22CE" stroke-width="0.418065" stroke-linejoin="round"/>
<path d="M362.186 131.482H375.983V301.634H362.186V131.482Z" fill="url(#paint7_linear_538_159)" stroke="#7E22CE" stroke-width="0.418065" stroke-linejoin="round"/>
<path d="M400.648 151.549H414.445V301.634H400.648V151.549Z" fill="url(#paint8_linear_538_159)" stroke="#7E22CE" stroke-width="0.418065" stroke-linejoin="round"/>
<path d="M439.111 179.141H452.907V301.634H439.111V179.141Z" fill="url(#paint9_linear_538_159)" stroke="#7E22CE" stroke-width="0.418065" stroke-linejoin="round"/>
<path d="M477.573 228.473H491.369V301.634H477.573V228.473Z" fill="url(#paint10_linear_538_159)" stroke="#7E22CE" stroke-width="0.418065" stroke-linejoin="round"/>
<path d="M515.198 226.801H528.995V301.634H515.198V226.801Z" fill="url(#paint11_linear_538_159)" stroke="#7E22CE" stroke-width="0.418065" stroke-linejoin="round"/>
<path d="M553.66 225.128H567.456V301.634H553.66V225.128Z" fill="url(#paint12_linear_538_159)" stroke="#7E22CE" stroke-width="0.418065" stroke-linejoin="round"/>
<path d="M102.71 310.007V316.696H101.9V310.856H101.861L100.228 311.941V311.118L101.9 310.007H102.71Z" fill="#666666"/>
<path d="M137.998 316.696V316.108L140.206 313.691C140.466 313.408 140.679 313.162 140.847 312.953C141.014 312.742 141.138 312.544 141.219 312.359C141.302 312.172 141.343 311.976 141.343 311.771C141.343 311.536 141.286 311.332 141.173 311.16C141.062 310.988 140.91 310.855 140.716 310.762C140.522 310.668 140.304 310.621 140.063 310.621C139.806 310.621 139.581 310.675 139.39 310.781C139.2 310.886 139.053 311.033 138.949 311.222C138.847 311.412 138.795 311.634 138.795 311.889H138.025C138.025 311.497 138.115 311.153 138.296 310.856C138.476 310.56 138.722 310.33 139.034 310.164C139.347 309.999 139.699 309.916 140.089 309.916C140.481 309.916 140.828 309.999 141.131 310.164C141.433 310.33 141.671 310.553 141.843 310.834C142.015 311.114 142.101 311.427 142.101 311.771C142.101 312.017 142.056 312.258 141.967 312.493C141.88 312.726 141.727 312.986 141.51 313.273C141.294 313.559 140.995 313.907 140.611 314.319L139.109 315.925V315.978H142.218V316.696H137.998Z" fill="#666666"/>
<path d="M177.902 316.788C177.471 316.788 177.086 316.714 176.749 316.566C176.413 316.418 176.147 316.212 175.949 315.948C175.753 315.683 175.646 315.375 175.628 315.024H176.452C176.469 315.24 176.543 315.426 176.674 315.583C176.804 315.737 176.975 315.857 177.186 315.942C177.398 316.027 177.632 316.069 177.889 316.069C178.176 316.069 178.431 316.019 178.653 315.919C178.875 315.819 179.049 315.679 179.175 315.501C179.302 315.322 179.365 315.115 179.365 314.88C179.365 314.634 179.304 314.418 179.182 314.23C179.06 314.041 178.882 313.893 178.646 313.786C178.411 313.679 178.124 313.626 177.784 313.626H177.248V312.908H177.784C178.05 312.908 178.283 312.86 178.483 312.764C178.686 312.668 178.843 312.533 178.957 312.359C179.072 312.185 179.13 311.98 179.13 311.745C179.13 311.518 179.08 311.321 178.98 311.154C178.879 310.986 178.738 310.855 178.555 310.762C178.374 310.668 178.161 310.621 177.915 310.621C177.684 310.621 177.466 310.664 177.262 310.749C177.059 310.831 176.894 310.952 176.765 311.111C176.637 311.268 176.567 311.457 176.556 311.68H175.772C175.785 311.329 175.891 311.022 176.089 310.758C176.287 310.493 176.546 310.286 176.866 310.138C177.189 309.99 177.542 309.916 177.928 309.916C178.342 309.916 178.696 310 178.993 310.167C179.289 310.333 179.516 310.552 179.675 310.824C179.834 311.096 179.914 311.39 179.914 311.706C179.914 312.082 179.815 312.403 179.616 312.669C179.42 312.935 179.154 313.119 178.816 313.221V313.273C179.239 313.343 179.569 313.523 179.806 313.812C180.043 314.1 180.162 314.456 180.162 314.88C180.162 315.244 180.063 315.571 179.865 315.86C179.669 316.148 179.401 316.374 179.061 316.54C178.721 316.705 178.335 316.788 177.902 316.788Z" fill="#666666"/>
<path d="M213.667 315.325V314.658L216.606 310.007H217.09V311.039H216.763L214.542 314.554V314.606H218.501V315.325H213.667ZM216.815 316.696V315.122V314.812V310.007H217.586V316.696H216.815Z" fill="#666666"/>
<path d="M254.689 316.788C254.306 316.788 253.961 316.712 253.654 316.559C253.347 316.407 253.101 316.198 252.916 315.932C252.731 315.666 252.63 315.364 252.612 315.024H253.396C253.427 315.327 253.564 315.577 253.808 315.775C254.054 315.971 254.348 316.069 254.689 316.069C254.964 316.069 255.208 316.005 255.421 315.876C255.637 315.748 255.805 315.572 255.927 315.347C256.051 315.121 256.114 314.865 256.114 314.58C256.114 314.288 256.049 314.028 255.921 313.799C255.795 313.568 255.62 313.387 255.398 313.254C255.176 313.121 254.922 313.053 254.637 313.051C254.433 313.049 254.222 313.081 254.007 313.146C253.791 313.209 253.614 313.291 253.474 313.391L252.717 313.3L253.122 310.007H256.597V310.726H253.801L253.566 312.699H253.605C253.742 312.59 253.914 312.499 254.121 312.427C254.328 312.356 254.544 312.32 254.768 312.32C255.177 312.32 255.542 312.418 255.862 312.614C256.184 312.807 256.437 313.073 256.62 313.411C256.805 313.748 256.897 314.133 256.897 314.567C256.897 314.994 256.802 315.375 256.61 315.71C256.421 316.043 256.159 316.307 255.826 316.5C255.493 316.692 255.114 316.788 254.689 316.788Z" fill="#666666"/>
<path d="M292.953 316.788C292.679 316.783 292.404 316.731 292.13 316.631C291.856 316.531 291.605 316.362 291.379 316.125C291.152 315.885 290.971 315.562 290.833 315.155C290.696 314.745 290.628 314.231 290.628 313.613C290.628 313.021 290.683 312.496 290.794 312.039C290.905 311.579 291.066 311.193 291.278 310.879C291.489 310.564 291.744 310.324 292.042 310.161C292.342 309.997 292.681 309.916 293.058 309.916C293.432 309.916 293.765 309.991 294.057 310.141C294.351 310.289 294.591 310.496 294.776 310.762C294.961 311.027 295.08 311.333 295.135 311.68H294.338C294.264 311.379 294.12 311.13 293.907 310.932C293.693 310.733 293.41 310.634 293.058 310.634C292.539 310.634 292.131 310.86 291.833 311.31C291.537 311.761 291.388 312.394 291.385 313.208H291.438C291.56 313.023 291.704 312.865 291.872 312.734C292.042 312.602 292.229 312.499 292.434 312.427C292.638 312.356 292.855 312.32 293.084 312.32C293.467 312.32 293.818 312.415 294.135 312.607C294.453 312.797 294.708 313.059 294.9 313.394C295.091 313.727 295.187 314.11 295.187 314.541C295.187 314.954 295.095 315.333 294.91 315.677C294.724 316.019 294.464 316.291 294.129 316.494C293.796 316.694 293.404 316.792 292.953 316.788ZM292.953 316.069C293.227 316.069 293.474 316.001 293.691 315.863C293.911 315.726 294.084 315.542 294.211 315.311C294.339 315.081 294.403 314.824 294.403 314.541C294.403 314.264 294.341 314.013 294.217 313.786C294.095 313.558 293.926 313.376 293.711 313.241C293.497 313.106 293.254 313.038 292.979 313.038C292.772 313.038 292.58 313.08 292.401 313.162C292.223 313.243 292.066 313.354 291.931 313.495C291.798 313.637 291.693 313.799 291.617 313.982C291.541 314.163 291.503 314.353 291.503 314.554C291.503 314.819 291.565 315.068 291.689 315.298C291.815 315.529 291.987 315.715 292.205 315.857C292.425 315.998 292.674 316.069 292.953 316.069Z" fill="#666666"/>
<path d="M329.388 316.696L332.38 310.778V310.726H328.931V310.007H333.216V310.765L330.237 316.696H329.388Z" fill="#666666"/>
<path d="M369.32 316.788C368.872 316.788 368.475 316.708 368.131 316.549C367.789 316.388 367.523 316.167 367.331 315.886C367.14 315.603 367.045 315.281 367.047 314.92C367.045 314.636 367.1 314.375 367.214 314.136C367.327 313.894 367.481 313.693 367.677 313.531C367.875 313.368 368.096 313.265 368.34 313.221V313.182C368.02 313.099 367.766 312.92 367.576 312.643C367.387 312.364 367.293 312.047 367.295 311.693C367.293 311.353 367.379 311.049 367.553 310.781C367.727 310.513 367.967 310.302 368.272 310.148C368.579 309.993 368.928 309.916 369.32 309.916C369.708 309.916 370.054 309.993 370.359 310.148C370.664 310.302 370.903 310.513 371.077 310.781C371.254 311.049 371.343 311.353 371.345 311.693C371.343 312.047 371.246 312.364 371.055 312.643C370.865 312.92 370.614 313.099 370.3 313.182V313.221C370.542 313.265 370.759 313.368 370.953 313.531C371.147 313.693 371.302 313.894 371.417 314.136C371.532 314.375 371.591 314.636 371.593 314.92C371.591 315.281 371.493 315.603 371.299 315.886C371.108 316.167 370.841 316.388 370.499 316.549C370.16 316.708 369.767 316.788 369.32 316.788ZM369.32 316.069C369.623 316.069 369.884 316.02 370.104 315.922C370.324 315.824 370.494 315.686 370.614 315.507C370.733 315.329 370.794 315.12 370.796 314.88C370.794 314.628 370.729 314.405 370.601 314.211C370.472 314.017 370.297 313.865 370.075 313.754C369.855 313.642 369.603 313.587 369.32 313.587C369.035 313.587 368.78 313.642 368.556 313.754C368.334 313.865 368.159 314.017 368.03 314.211C367.904 314.405 367.842 314.628 367.844 314.88C367.842 315.12 367.899 315.329 368.017 315.507C368.137 315.686 368.308 315.824 368.53 315.922C368.752 316.02 369.015 316.069 369.32 316.069ZM369.32 312.895C369.56 312.895 369.772 312.847 369.957 312.751C370.144 312.655 370.291 312.521 370.398 312.349C370.505 312.177 370.559 311.976 370.561 311.745C370.559 311.518 370.506 311.321 370.401 311.154C370.297 310.984 370.152 310.853 369.967 310.762C369.782 310.668 369.566 310.621 369.32 310.621C369.07 310.621 368.851 310.668 368.664 310.762C368.476 310.853 368.332 310.984 368.229 311.154C368.127 311.321 368.077 311.518 368.079 311.745C368.077 311.976 368.128 312.177 368.233 312.349C368.339 312.521 368.486 312.655 368.673 312.751C368.861 312.847 369.076 312.895 369.32 312.895Z" fill="#666666"/>
<path d="M407.476 309.916C407.75 309.918 408.025 309.97 408.299 310.073C408.573 310.175 408.824 310.345 409.05 310.582C409.277 310.817 409.458 311.138 409.596 311.546C409.733 311.953 409.801 312.463 409.801 313.077C409.801 313.672 409.745 314.2 409.632 314.661C409.521 315.121 409.359 315.509 409.148 315.824C408.939 316.14 408.684 316.379 408.384 316.543C408.086 316.706 407.748 316.788 407.371 316.788C406.997 316.788 406.663 316.714 406.369 316.566C406.077 316.415 405.837 316.207 405.65 315.942C405.465 315.674 405.346 315.364 405.294 315.011H406.091C406.163 315.318 406.306 315.572 406.519 315.772C406.735 315.97 407.019 316.069 407.371 316.069C407.887 316.069 408.295 315.844 408.593 315.393C408.893 314.942 409.044 314.305 409.044 313.482H408.991C408.869 313.665 408.725 313.823 408.557 313.956C408.389 314.089 408.203 314.191 407.998 314.263C407.794 314.335 407.576 314.371 407.345 314.371C406.962 314.371 406.61 314.276 406.29 314.087C405.972 313.895 405.718 313.633 405.526 313.3C405.337 312.964 405.242 312.581 405.242 312.15C405.242 311.74 405.333 311.366 405.516 311.026C405.701 310.684 405.96 310.412 406.294 310.21C406.629 310.007 407.023 309.909 407.476 309.916ZM407.476 310.634C407.202 310.634 406.954 310.703 406.735 310.84C406.517 310.975 406.344 311.158 406.215 311.389C406.089 311.617 406.026 311.871 406.026 312.15C406.026 312.429 406.087 312.682 406.209 312.911C406.333 313.137 406.502 313.318 406.715 313.453C406.93 313.586 407.175 313.652 407.45 313.652C407.657 313.652 407.849 313.612 408.028 313.531C408.206 313.449 408.362 313.337 408.495 313.195C408.63 313.051 408.736 312.889 408.812 312.708C408.888 312.525 408.926 312.335 408.926 312.137C408.926 311.875 408.863 311.631 408.737 311.402C408.613 311.173 408.441 310.988 408.221 310.847C408.003 310.705 407.755 310.634 407.476 310.634Z" fill="#666666"/>
<path d="M444.17 310.007V316.696H443.36V310.856H443.321L441.688 311.941V311.118L443.36 310.007H444.17ZM448.276 316.788C447.784 316.788 447.364 316.654 447.018 316.386C446.672 316.116 446.408 315.725 446.225 315.213C446.042 314.7 445.95 314.079 445.95 313.352C445.95 312.629 446.042 312.012 446.225 311.5C446.41 310.986 446.675 310.594 447.022 310.324C447.37 310.052 447.788 309.916 448.276 309.916C448.763 309.916 449.18 310.052 449.527 310.324C449.875 310.594 450.141 310.986 450.324 311.5C450.509 312.012 450.601 312.629 450.601 313.352C450.601 314.079 450.51 314.7 450.327 315.213C450.144 315.725 449.879 316.116 449.533 316.386C449.187 316.654 448.768 316.788 448.276 316.788ZM448.276 316.069C448.763 316.069 449.142 315.834 449.412 315.364C449.682 314.893 449.817 314.223 449.817 313.352C449.817 312.773 449.755 312.279 449.631 311.872C449.509 311.465 449.333 311.155 449.102 310.941C448.873 310.728 448.598 310.621 448.276 310.621C447.792 310.621 447.415 310.86 447.142 311.337C446.87 311.811 446.734 312.483 446.734 313.352C446.734 313.931 446.795 314.423 446.917 314.828C447.039 315.233 447.214 315.541 447.443 315.752C447.674 315.964 447.951 316.069 448.276 316.069Z" fill="#666666"/>
<path d="M482.53 310.007V316.696H481.72V310.856H481.68L480.047 311.941V311.118L481.72 310.007H482.53ZM486.805 310.007V316.696H485.995V310.856H485.956L484.323 311.941V311.118L485.995 310.007H486.805Z" fill="#666666"/>
<path d="M520.17 310.007V316.696H519.36V310.856H519.32L517.687 311.941V311.118L519.36 310.007H520.17ZM522.093 316.696V316.108L524.301 313.691C524.56 313.408 524.774 313.162 524.941 312.953C525.109 312.742 525.233 312.544 525.314 312.359C525.396 312.172 525.438 311.976 525.438 311.771C525.438 311.536 525.381 311.332 525.268 311.16C525.157 310.988 525.005 310.855 524.811 310.762C524.617 310.668 524.399 310.621 524.158 310.621C523.901 310.621 523.676 310.675 523.485 310.781C523.295 310.886 523.148 311.033 523.044 311.222C522.941 311.412 522.89 311.634 522.89 311.889H522.119C522.119 311.497 522.21 311.153 522.391 310.856C522.571 310.56 522.817 310.33 523.129 310.164C523.442 309.999 523.794 309.916 524.184 309.916C524.576 309.916 524.923 309.999 525.226 310.164C525.528 310.33 525.766 310.553 525.938 310.834C526.11 311.114 526.196 311.427 526.196 311.771C526.196 312.017 526.151 312.258 526.062 312.493C525.975 312.726 525.822 312.986 525.604 313.273C525.389 313.559 525.089 313.907 524.706 314.319L523.204 315.925V315.978H526.313V316.696H522.093Z" fill="#666666"/>
<path d="M558.312 310.007V316.696H557.502V310.856H557.463L555.83 311.941V311.118L557.502 310.007H558.312ZM562.496 316.788C562.065 316.788 561.681 316.714 561.343 316.566C561.008 316.418 560.741 316.212 560.543 315.948C560.347 315.683 560.241 315.375 560.223 315.024H561.046C561.064 315.24 561.138 315.426 561.268 315.583C561.399 315.737 561.57 315.857 561.781 315.942C561.992 316.027 562.226 316.069 562.483 316.069C562.771 316.069 563.026 316.019 563.248 315.919C563.47 315.819 563.644 315.679 563.77 315.501C563.896 315.322 563.96 315.115 563.96 314.88C563.96 314.634 563.899 314.418 563.777 314.23C563.655 314.041 563.476 313.893 563.241 313.786C563.006 313.679 562.719 313.626 562.379 313.626H561.843V312.908H562.379C562.644 312.908 562.877 312.86 563.078 312.764C563.28 312.668 563.438 312.533 563.551 312.359C563.667 312.185 563.724 311.98 563.724 311.745C563.724 311.518 563.674 311.321 563.574 311.154C563.474 310.986 563.333 310.855 563.15 310.762C562.969 310.668 562.756 310.621 562.509 310.621C562.279 310.621 562.061 310.664 561.856 310.749C561.654 310.831 561.488 310.952 561.36 311.111C561.231 311.268 561.162 311.457 561.151 311.68H560.367C560.38 311.329 560.486 311.022 560.684 310.758C560.882 310.493 561.141 310.286 561.461 310.138C561.783 309.99 562.137 309.916 562.523 309.916C562.936 309.916 563.291 310 563.587 310.167C563.883 310.333 564.111 310.552 564.27 310.824C564.429 311.096 564.508 311.39 564.508 311.706C564.508 312.082 564.409 312.403 564.211 312.669C564.015 312.935 563.748 313.119 563.411 313.221V313.273C563.833 313.343 564.163 313.523 564.401 313.812C564.638 314.1 564.757 314.456 564.757 314.88C564.757 315.244 564.658 315.571 564.459 315.86C564.263 316.148 563.996 316.374 563.656 316.54C563.316 316.705 562.93 316.788 562.496 316.788Z" fill="#666666"/>
<path d="M320.436 327.122H322.164L323.828 330.264H323.9L325.563 327.122H327.292L324.63 331.839V334.419H323.098V331.839L320.436 327.122ZM329.453 334.526C328.891 334.526 328.406 334.412 328 334.184C327.596 333.953 327.285 333.628 327.066 333.208C326.848 332.785 326.738 332.285 326.738 331.707C326.738 331.144 326.848 330.65 327.066 330.225C327.285 329.8 327.592 329.469 327.989 329.231C328.388 328.994 328.856 328.875 329.393 328.875C329.754 328.875 330.09 328.933 330.401 329.049C330.715 329.163 330.988 329.336 331.221 329.566C331.456 329.796 331.639 330.086 331.769 330.435C331.9 330.782 331.965 331.188 331.965 331.654V332.071H327.344V331.13H330.537C330.537 330.912 330.489 330.718 330.394 330.549C330.299 330.381 330.167 330.249 329.999 330.154C329.832 330.057 329.639 330.008 329.418 330.008C329.187 330.008 328.983 330.061 328.805 330.168C328.629 330.273 328.491 330.414 328.392 330.592C328.292 330.768 328.241 330.964 328.238 331.18V332.074C328.238 332.345 328.288 332.579 328.388 332.776C328.49 332.974 328.634 333.126 328.819 333.232C329.005 333.339 329.224 333.393 329.478 333.393C329.647 333.393 329.801 333.369 329.942 333.322C330.082 333.274 330.202 333.203 330.301 333.108C330.401 333.013 330.477 332.896 330.53 332.759L331.933 332.851C331.862 333.189 331.716 333.483 331.495 333.735C331.277 333.984 330.994 334.179 330.647 334.319C330.303 334.457 329.905 334.526 329.453 334.526ZM334.517 334.522C334.167 334.522 333.856 334.462 333.583 334.341C333.31 334.217 333.094 334.035 332.935 333.795C332.778 333.553 332.699 333.251 332.699 332.89C332.699 332.586 332.755 332.331 332.867 332.124C332.979 331.918 333.131 331.751 333.323 331.626C333.515 331.5 333.734 331.405 333.979 331.34C334.226 331.276 334.485 331.231 334.755 331.205C335.074 331.172 335.33 331.141 335.525 331.112C335.72 331.082 335.861 331.036 335.949 330.977C336.037 330.918 336.081 330.83 336.081 330.713V330.692C336.081 330.466 336.009 330.292 335.867 330.168C335.727 330.045 335.527 329.983 335.268 329.983C334.995 329.983 334.778 330.044 334.616 330.165C334.455 330.283 334.348 330.433 334.296 330.614L332.892 330.5C332.963 330.167 333.103 329.88 333.312 329.637C333.521 329.393 333.791 329.205 334.121 329.074C334.454 328.941 334.838 328.875 335.275 328.875C335.58 328.875 335.871 328.91 336.148 328.982C336.429 329.053 336.677 329.163 336.893 329.313C337.112 329.463 337.284 329.655 337.41 329.89C337.536 330.123 337.599 330.402 337.599 330.728V334.419H336.159V333.66H336.116C336.028 333.831 335.911 333.982 335.764 334.113C335.616 334.241 335.439 334.342 335.233 334.415C335.026 334.487 334.787 334.522 334.517 334.522ZM334.951 333.475C335.175 333.475 335.372 333.431 335.543 333.343C335.714 333.253 335.848 333.131 335.945 332.979C336.043 332.827 336.091 332.655 336.091 332.463V331.882C336.044 331.913 335.979 331.941 335.895 331.968C335.815 331.991 335.723 332.014 335.621 332.035C335.519 332.054 335.417 332.072 335.315 332.089C335.213 332.103 335.12 332.116 335.037 332.128C334.859 332.154 334.703 332.196 334.57 332.253C334.437 332.31 334.334 332.387 334.26 332.484C334.186 332.579 334.15 332.698 334.15 332.841C334.15 333.047 334.224 333.205 334.374 333.314C334.526 333.421 334.718 333.475 334.951 333.475ZM338.776 334.419V328.946H340.248V329.901H340.305C340.405 329.561 340.572 329.305 340.807 329.131C341.042 328.956 341.313 328.868 341.62 328.868C341.696 328.868 341.777 328.872 341.865 328.882C341.953 328.891 342.03 328.905 342.097 328.921V330.268C342.026 330.247 341.927 330.228 341.801 330.211C341.675 330.194 341.56 330.186 341.456 330.186C341.232 330.186 341.033 330.235 340.857 330.332C340.684 330.427 340.546 330.56 340.444 330.731C340.344 330.902 340.294 331.099 340.294 331.323V334.419H338.776Z" fill="#666666"/>
<path d="M67.4406 305.082C66.9485 305.082 66.5294 304.948 66.1832 304.68C65.8369 304.41 65.5724 304.019 65.3895 303.507C65.2066 302.994 65.1151 302.373 65.1151 301.646C65.1151 300.923 65.2066 300.306 65.3895 299.794C65.5746 299.28 65.8402 298.888 66.1864 298.618C66.5348 298.346 66.9529 298.21 67.4406 298.21C67.9284 298.21 68.3453 298.346 68.6916 298.618C69.0399 298.888 69.3056 299.28 69.4885 299.794C69.6736 300.306 69.7661 300.923 69.7661 301.646C69.7661 302.373 69.6747 302.994 69.4918 303.507C69.3088 304.019 69.0443 304.41 68.6981 304.68C68.3519 304.948 67.9327 305.082 67.4406 305.082ZM67.4406 304.363C67.9284 304.363 68.3072 304.128 68.5772 303.658C68.8472 303.187 68.9822 302.517 68.9822 301.646C68.9822 301.067 68.9202 300.573 68.7961 300.166C68.6741 299.759 68.4978 299.449 68.267 299.235C68.0383 299.022 67.7629 298.915 67.4406 298.915C66.9572 298.915 66.5794 299.154 66.3073 299.631C66.0351 300.105 65.899 300.777 65.899 301.646C65.899 302.225 65.96 302.717 66.0819 303.122C66.2038 303.527 66.3791 303.835 66.6078 304.046C66.8386 304.258 67.1162 304.363 67.4406 304.363Z" fill="#666666"/>
<path d="M51.2934 230.575V229.987L53.5013 227.57C53.7604 227.287 53.9738 227.041 54.1415 226.832C54.3092 226.621 54.4333 226.422 54.5138 226.237C54.5966 226.05 54.6379 225.854 54.6379 225.649C54.6379 225.414 54.5813 225.211 54.4681 225.039C54.3571 224.867 54.2046 224.734 54.0108 224.64C53.8171 224.547 53.5993 224.5 53.3576 224.5C53.1007 224.5 52.8764 224.553 52.6848 224.66C52.4954 224.764 52.3484 224.911 52.2439 225.101C52.1415 225.29 52.0904 225.512 52.0904 225.767H51.3195C51.3195 225.375 51.4099 225.031 51.5906 224.735C51.7714 224.439 52.0174 224.208 52.3288 224.043C52.6423 223.877 52.994 223.794 53.3837 223.794C53.7757 223.794 54.123 223.877 54.4256 224.043C54.7283 224.208 54.9656 224.431 55.1377 224.712C55.3097 224.993 55.3957 225.305 55.3957 225.649C55.3957 225.896 55.351 226.136 55.2618 226.371C55.1747 226.604 55.0223 226.864 54.8045 227.152C54.589 227.437 54.2896 227.786 53.9063 228.197L52.4039 229.804V229.856H55.5133V230.575H51.2934ZM59.044 230.666C58.5519 230.666 58.1327 230.532 57.7865 230.265C57.4403 229.995 57.1757 229.604 56.9928 229.092C56.8099 228.578 56.7185 227.958 56.7185 227.23C56.7185 226.507 56.8099 225.89 56.9928 225.378C57.1779 224.865 57.4436 224.473 57.7898 224.203C58.1382 223.93 58.5562 223.794 59.044 223.794C59.5317 223.794 59.9487 223.93 60.2949 224.203C60.6433 224.473 60.9089 224.865 61.0918 225.378C61.2769 225.89 61.3694 226.507 61.3694 227.23C61.3694 227.958 61.278 228.578 61.0951 229.092C60.9122 229.604 60.6476 229.995 60.3014 230.265C59.9552 230.532 59.5361 230.666 59.044 230.666ZM59.044 229.948C59.5317 229.948 59.9106 229.713 60.1806 229.242C60.4506 228.772 60.5856 228.101 60.5856 227.23C60.5856 226.651 60.5235 226.158 60.3994 225.751C60.2775 225.344 60.1011 225.033 59.8703 224.82C59.6417 224.607 59.3662 224.5 59.044 224.5C58.5606 224.5 58.1828 224.738 57.9106 225.215C57.6384 225.69 57.5023 226.362 57.5023 227.23C57.5023 227.81 57.5633 228.302 57.6852 228.707C57.8072 229.112 57.9825 229.42 58.2111 229.631C58.4419 229.842 58.7195 229.948 59.044 229.948ZM62.7282 223.886H63.6949L65.9682 229.438H66.0466L68.3198 223.886H69.2866V230.575H68.5288V225.493H68.4635L66.3732 230.575H65.6416L63.5512 225.493H63.4859V230.575H62.7282V223.886Z" fill="#666666"/>
<path d="M50.8043 155.623V154.957L53.7438 150.306H54.2272V151.338H53.9006L51.6796 154.853V154.905H55.6382V155.623H50.8043ZM53.9529 156.995V155.421V155.111V150.306H54.7237V156.995H53.9529ZM59.044 157.087C58.5519 157.087 58.1327 156.953 57.7865 156.685C57.4403 156.415 57.1757 156.024 56.9928 155.512C56.8099 154.999 56.7185 154.378 56.7185 153.651C56.7185 152.928 56.8099 152.311 56.9928 151.799C57.1779 151.285 57.4436 150.893 57.7898 150.623C58.1382 150.351 58.5562 150.215 59.044 150.215C59.5317 150.215 59.9487 150.351 60.2949 150.623C60.6433 150.893 60.9089 151.285 61.0918 151.799C61.2769 152.311 61.3695 152.928 61.3695 153.651C61.3695 154.378 61.278 154.999 61.0951 155.512C60.9122 156.024 60.6476 156.415 60.3014 156.685C59.9552 156.953 59.5361 157.087 59.044 157.087ZM59.044 156.368C59.5317 156.368 59.9106 156.133 60.1806 155.663C60.4506 155.192 60.5856 154.522 60.5856 153.651C60.5856 153.072 60.5235 152.578 60.3994 152.171C60.2775 151.764 60.1011 151.454 59.8703 151.24C59.6417 151.027 59.3662 150.92 59.044 150.92C58.5606 150.92 58.1828 151.159 57.9106 151.636C57.6384 152.11 57.5023 152.782 57.5023 153.651C57.5023 154.23 57.5633 154.722 57.6852 155.127C57.8072 155.532 57.9825 155.84 58.2111 156.051C58.4419 156.263 58.7195 156.368 59.044 156.368ZM62.7282 150.306H63.6949L65.9682 155.859H66.0466L68.3198 150.306H69.2866V156.995H68.5288V151.913H68.4635L66.3732 156.995H65.6416L63.5512 151.913H63.4859V156.995H62.7282V150.306Z" fill="#666666"/>
<path d="M53.3437 82.671C53.0694 82.6667 52.795 82.6144 52.5207 82.5143C52.2463 82.4141 51.9959 82.2454 51.7695 82.008C51.543 81.7685 51.3612 81.4452 51.224 81.038C51.0868 80.6286 51.0182 80.1147 51.0182 79.4964C51.0182 78.9041 51.0738 78.3793 51.1848 77.9221C51.2959 77.4626 51.457 77.0762 51.6682 76.7626C51.8794 76.4469 52.1342 76.2074 52.4325 76.0441C52.733 75.8807 53.0716 75.7991 53.4483 75.7991C53.8228 75.7991 54.1559 75.8742 54.4477 76.0245C54.7416 76.1725 54.9812 76.3794 55.1662 76.645C55.3513 76.9107 55.4711 77.2166 55.5255 77.5628H54.7286C54.6545 77.2623 54.5108 77.013 54.2974 76.8149C54.0841 76.6167 53.801 76.5176 53.4483 76.5176C52.93 76.5176 52.5218 76.743 52.2235 77.1937C51.9273 77.6445 51.7782 78.277 51.776 79.0914H51.8282C51.9502 78.9063 52.095 78.7484 52.2626 78.6178C52.4325 78.4849 52.6197 78.3826 52.8244 78.3108C53.0291 78.2389 53.2458 78.203 53.4744 78.203C53.8576 78.203 54.2082 78.2988 54.5261 78.4904C54.844 78.6798 55.0987 78.9422 55.2904 79.2775C55.482 79.6107 55.5778 79.9928 55.5778 80.4239C55.5778 80.8377 55.4852 81.2165 55.3002 81.5606C55.1151 81.9024 54.8549 82.1746 54.5195 82.3771C54.1864 82.5774 53.7945 82.6754 53.3437 82.671ZM53.3437 81.9525C53.6181 81.9525 53.8641 81.8839 54.0819 81.7467C54.3018 81.6095 54.4749 81.4256 54.6012 81.1947C54.7297 80.9639 54.7939 80.707 54.7939 80.4239C54.7939 80.1474 54.7318 79.8959 54.6077 79.6695C54.4858 79.4408 54.317 79.259 54.1015 79.124C53.8881 78.989 53.6442 78.9215 53.3699 78.9215C53.163 78.9215 52.9703 78.9629 52.7918 79.0456C52.6132 79.1262 52.4564 79.2372 52.3214 79.3788C52.1886 79.5203 52.0841 79.6825 52.0079 79.8654C51.9317 80.0462 51.8936 80.2367 51.8936 80.437C51.8936 80.7027 51.9556 80.9509 52.0797 81.1817C52.206 81.4125 52.378 81.5987 52.5958 81.7402C52.8157 81.8817 53.065 81.9525 53.3437 81.9525ZM59.044 82.671C58.5519 82.671 58.1327 82.5371 57.7865 82.2693C57.4403 81.9993 57.1757 81.6085 56.9928 81.0968C56.8099 80.5829 56.7185 79.9623 56.7185 79.2351C56.7185 78.5122 56.8099 77.8949 56.9928 77.3832C57.1779 76.8693 57.4436 76.4774 57.7898 76.2074C58.1382 75.9352 58.5562 75.7991 59.044 75.7991C59.5317 75.7991 59.9487 75.9352 60.2949 76.2074C60.6433 76.4774 60.9089 76.8693 61.0918 77.3832C61.2769 77.8949 61.3694 78.5122 61.3694 79.2351C61.3694 79.9623 61.278 80.5829 61.0951 81.0968C60.9122 81.6085 60.6476 81.9993 60.3014 82.2693C59.9552 82.5371 59.5361 82.671 59.044 82.671ZM59.044 81.9525C59.5317 81.9525 59.9106 81.7173 60.1806 81.247C60.4506 80.7767 60.5856 80.106 60.5856 79.2351C60.5856 78.6559 60.5235 78.1627 60.3994 77.7555C60.2775 77.3483 60.1011 77.038 59.8703 76.8247C59.6417 76.6113 59.3662 76.5046 59.044 76.5046C58.5606 76.5046 58.1828 76.743 57.9106 77.2199C57.6384 77.6945 57.5023 78.3663 57.5023 79.2351C57.5023 79.8143 57.5633 80.3064 57.6852 80.7114C57.8072 81.1164 57.9825 81.4245 58.2111 81.6357C58.4419 81.8469 58.7195 81.9525 59.044 81.9525ZM62.7282 75.8905H63.6949L65.9682 81.443H66.0466L68.3198 75.8905H69.2866V82.5796H68.5288V77.4975H68.4635L66.3732 82.5796H65.6416L63.5512 77.4975H63.4859V82.5796H62.7282V75.8905Z" fill="#666666"/>
<path d="M53.3372 9.09145C52.8887 9.09145 52.4924 9.01198 52.1483 8.85302C51.8065 8.69189 51.5397 8.47089 51.3481 8.19C51.1565 7.90693 51.0618 7.58467 51.064 7.22322C51.0618 6.94016 51.1173 6.67887 51.2305 6.43935C51.3438 6.19766 51.4984 5.99624 51.6943 5.83511C51.8925 5.67181 52.1135 5.56838 52.3574 5.52483V5.48564C52.0373 5.4029 51.7825 5.22326 51.5931 4.94673C51.4037 4.66802 51.31 4.3512 51.3122 3.99628C51.31 3.6566 51.396 3.35285 51.5702 3.08503C51.7444 2.8172 51.9839 2.60599 52.2888 2.4514C52.5958 2.2968 52.9453 2.2195 53.3372 2.2195C53.7248 2.2195 54.071 2.2968 54.3758 2.4514C54.6807 2.60599 54.9202 2.8172 55.0944 3.08503C55.2708 3.35285 55.36 3.6566 55.3622 3.99628C55.36 4.3512 55.2631 4.66802 55.0715 4.94673C54.8821 5.22326 54.6306 5.4029 54.317 5.48564V5.52483C54.5587 5.56838 54.7765 5.67181 54.9703 5.83511C55.1641 5.99624 55.3187 6.19766 55.4341 6.43935C55.5495 6.67887 55.6083 6.94016 55.6104 7.22322C55.6083 7.58467 55.5103 7.90693 55.3165 8.19C55.1249 8.47089 54.8581 8.69189 54.5163 8.85302C54.1766 9.01198 53.7836 9.09145 53.3372 9.09145ZM53.3372 8.3729C53.6399 8.3729 53.9012 8.32391 54.1211 8.22593C54.341 8.12794 54.5108 7.98968 54.6306 7.81113C54.7504 7.63258 54.8113 7.42355 54.8135 7.18403C54.8113 6.93145 54.746 6.70826 54.6175 6.51447C54.4891 6.32068 54.3138 6.16826 54.0917 6.05721C53.8718 5.94616 53.6203 5.89064 53.3372 5.89064C53.052 5.89064 52.7972 5.94616 52.5729 6.05721C52.3508 6.16826 52.1755 6.32068 52.0471 6.51447C51.9208 6.70826 51.8587 6.93145 51.8609 7.18403C51.8587 7.42355 51.9164 7.63258 52.034 7.81113C52.1538 7.98968 52.3247 8.12794 52.5468 8.22593C52.7689 8.32391 53.0324 8.3729 53.3372 8.3729ZM53.3372 5.19822C53.5767 5.19822 53.789 5.15031 53.9741 5.05451C54.1614 4.9587 54.3083 4.82479 54.415 4.65277C54.5217 4.48076 54.5762 4.27934 54.5783 4.04854C54.5762 3.82209 54.5228 3.62503 54.4183 3.45737C54.3138 3.28753 54.169 3.15688 53.9839 3.06543C53.7988 2.9718 53.5833 2.92499 53.3372 2.92499C53.0868 2.92499 52.868 2.9718 52.6807 3.06543C52.4935 3.15688 52.3487 3.28753 52.2463 3.45737C52.144 3.62503 52.0939 3.82209 52.0961 4.04854C52.0939 4.27934 52.1451 4.48076 52.2496 4.65277C52.3563 4.82479 52.5033 4.9587 52.6905 5.05451C52.8778 5.15031 53.0933 5.19822 53.3372 5.19822ZM59.044 9.09145C58.5519 9.09145 58.1327 8.95754 57.7865 8.68972C57.4403 8.41972 57.1757 8.02887 56.9928 7.51717C56.8099 7.0033 56.7185 6.38274 56.7185 5.65548C56.7185 4.93257 56.8099 4.31527 56.9928 3.80358C57.1779 3.28971 57.4436 2.89777 57.7898 2.62777C58.1382 2.35559 58.5562 2.2195 59.044 2.2195C59.5317 2.2195 59.9487 2.35559 60.2949 2.62777C60.6433 2.89777 60.9089 3.28971 61.0918 3.80358C61.2769 4.31527 61.3694 4.93257 61.3694 5.65548C61.3694 6.38274 61.278 7.0033 61.0951 7.51717C60.9122 8.02887 60.6476 8.41972 60.3014 8.68972C59.9552 8.95754 59.5361 9.09145 59.044 9.09145ZM59.044 8.3729C59.5317 8.3729 59.9106 8.13774 60.1806 7.66742C60.4506 7.19709 60.5856 6.52645 60.5856 5.65548C60.5856 5.07628 60.5235 4.5831 60.3994 4.17592C60.2775 3.76874 60.1011 3.45846 59.8703 3.24507C59.6417 3.03168 59.3662 2.92499 59.044 2.92499C58.5606 2.92499 58.1828 3.16342 57.9106 3.64027C57.6384 4.11495 57.5023 4.78668 57.5023 5.65548C57.5023 6.23467 57.5633 6.72677 57.6852 7.13177C57.8072 7.53677 57.9825 7.84488 58.2111 8.05609C58.4419 8.2673 58.7195 8.3729 59.044 8.3729ZM62.7282 2.31095H63.6949L65.9682 7.86338H66.0466L68.3198 2.31095H69.2866V9H68.5288V3.91789H68.4635L66.3732 9H65.6416L63.5512 3.91789H63.4859V9H62.7282V2.31095Z" fill="#666666"/>
<path d="M26.3514 180.771C27.1472 180.771 27.8242 180.921 28.3824 181.223C28.9406 181.522 29.367 181.931 29.6615 182.449C29.9537 182.964 30.0998 183.544 30.0998 184.188C30.0998 184.836 29.9525 185.418 29.6579 185.933C29.3634 186.449 28.937 186.856 28.3788 187.156C27.8206 187.455 27.1448 187.605 26.3514 187.605C25.5557 187.605 24.8787 187.455 24.3205 187.156C23.7623 186.856 23.3371 186.449 23.0449 185.933C22.7504 185.418 22.6031 184.836 22.6031 184.188C22.6031 183.544 22.7504 182.964 23.0449 182.449C23.3371 181.931 23.7623 181.522 24.3205 181.223C24.8787 180.921 25.5557 180.771 26.3514 180.771ZM26.3514 182.335C25.836 182.335 25.4013 182.412 25.0474 182.566C24.6934 182.718 24.425 182.933 24.2421 183.211C24.0592 183.489 23.9677 183.815 23.9677 184.188C23.9677 184.561 24.0592 184.886 24.2421 185.164C24.425 185.442 24.6934 185.658 25.0474 185.812C25.4013 185.964 25.836 186.04 26.3514 186.04C26.8669 186.04 27.3016 185.964 27.6555 185.812C28.0094 185.658 28.2779 185.442 28.4608 185.164C28.6437 184.886 28.7351 184.561 28.7351 184.188C28.7351 183.815 28.6437 183.489 28.4608 183.211C28.2779 182.933 28.0094 182.718 27.6555 182.566C27.3016 182.412 26.8669 182.335 26.3514 182.335ZM30 179.628L22.7029 179.628L22.7029 178.085L28.728 178.085L28.728 174.957L30 174.957L30 179.628ZM30 172.491L30 174.144L22.7029 171.625L22.7029 169.637L30 167.121L30 168.775L24.3704 170.603L24.3704 170.66L30 172.491ZM27.1317 172.594L27.1317 168.689L28.3361 168.689L28.3361 172.594L27.1317 172.594ZM24.8015 162.451C24.5141 162.48 24.2908 162.602 24.1316 162.818C23.9725 163.034 23.8929 163.328 23.8929 163.698C23.8929 163.95 23.9286 164.163 23.9998 164.336C24.0687 164.509 24.1649 164.642 24.2884 164.735C24.4119 164.825 24.5521 164.87 24.7089 164.87C24.8395 164.875 24.9535 164.848 25.0509 164.789C25.1483 164.727 25.2326 164.642 25.3039 164.536C25.3728 164.429 25.4333 164.305 25.4856 164.165C25.5355 164.025 25.5782 163.875 25.6139 163.716L25.7707 163.06C25.8419 162.742 25.9369 162.45 26.0557 162.184C26.1745 161.918 26.3205 161.687 26.494 161.493C26.6674 161.298 26.8716 161.147 27.1068 161.04C27.342 160.931 27.6116 160.875 27.9156 160.873C28.3622 160.875 28.7494 160.989 29.0772 161.215C29.4026 161.438 29.6556 161.761 29.8361 162.184C30.0143 162.604 30.1033 163.112 30.1033 163.705C30.1033 164.294 30.0131 164.808 29.8325 165.245C29.652 165.679 29.3848 166.019 29.0308 166.264C28.6745 166.506 28.2339 166.633 27.709 166.645L27.709 165.152C27.9536 165.135 28.1579 165.065 28.3218 164.942C28.4833 164.816 28.6057 164.648 28.6888 164.439C28.7696 164.228 28.8099 163.989 28.8099 163.723C28.8099 163.462 28.7719 163.235 28.6959 163.043C28.6199 162.848 28.5142 162.697 28.3788 162.59C28.2434 162.483 28.0878 162.43 27.912 162.43C27.7481 162.43 27.6104 162.478 27.4987 162.576C27.3871 162.671 27.2921 162.811 27.2137 162.996C27.1353 163.179 27.064 163.404 26.9999 163.67L26.8004 164.464C26.6507 165.08 26.4168 165.565 26.0985 165.922C25.7802 166.278 25.3514 166.455 24.8122 166.452C24.3704 166.455 23.9844 166.337 23.6542 166.1C23.324 165.86 23.0663 165.531 22.881 165.113C22.6957 164.695 22.6031 164.22 22.6031 163.688C22.6031 163.146 22.6957 162.673 22.881 162.269C23.0663 161.863 23.324 161.547 23.6542 161.322C23.9844 161.096 24.3668 160.98 24.8015 160.972L24.8015 162.451ZM30.1069 155.047C30.1069 155.61 29.9929 156.095 29.7648 156.501C29.5344 156.905 29.209 157.216 28.7886 157.434C28.3657 157.653 27.8657 157.762 27.2885 157.762C26.7255 157.762 26.2315 157.653 25.8063 157.434C25.3811 157.216 25.0497 156.908 24.8122 156.512C24.5747 156.112 24.4559 155.645 24.4559 155.108C24.4559 154.747 24.5141 154.411 24.6305 154.099C24.7445 153.786 24.9167 153.513 25.1471 153.28C25.3775 153.045 25.6673 152.862 26.0165 152.731C26.3633 152.6 26.7695 152.535 27.2351 152.535L27.6519 152.535L27.6519 157.156L26.7113 157.156L26.7113 153.964C26.4928 153.964 26.2992 154.011 26.1305 154.106C25.9619 154.201 25.83 154.333 25.735 154.502C25.6376 154.668 25.5889 154.862 25.5889 155.083C25.5889 155.313 25.6424 155.517 25.7493 155.696C25.8538 155.871 25.9951 156.009 26.1733 156.109C26.3491 156.209 26.545 156.26 26.7612 156.262L27.6555 156.262C27.9263 156.262 28.1603 156.212 28.3574 156.112C28.5546 156.01 28.7066 155.867 28.8135 155.681C28.9204 155.496 28.9738 155.276 28.9738 155.022C28.9738 154.854 28.9501 154.699 28.9026 154.559C28.8551 154.419 28.7838 154.299 28.6888 154.199C28.5938 154.099 28.4774 154.023 28.3396 153.971L28.4323 152.567C28.7696 152.638 29.0641 152.785 29.3159 153.005C29.5653 153.224 29.7601 153.507 29.9002 153.854C30.038 154.198 30.1069 154.596 30.1069 155.047ZM30 151.545L24.5271 151.545L24.5271 150.098L25.4927 150.098L25.4927 150.034C25.1721 149.92 24.9191 149.73 24.7338 149.464C24.5485 149.198 24.4559 148.879 24.4559 148.509C24.4559 148.134 24.5497 147.814 24.7374 147.55C24.9226 147.287 25.1744 147.111 25.4927 147.023L25.4927 146.966C25.1792 146.854 24.9286 146.653 24.7409 146.36C24.5509 146.066 24.4559 145.718 24.4559 145.316C24.4559 144.806 24.6186 144.391 24.944 144.073C25.2671 143.752 25.7255 143.592 26.3194 143.592L30 143.592L30 145.106L26.6187 145.106C26.3146 145.106 26.0866 145.187 25.9346 145.348C25.7825 145.51 25.7065 145.712 25.7065 145.954C25.7065 146.23 25.7944 146.445 25.9702 146.599C26.1436 146.754 26.3728 146.831 26.6579 146.831L30 146.831L30 148.302L26.5866 148.302C26.3182 148.302 26.1044 148.379 25.9452 148.534C25.7861 148.686 25.7065 148.887 25.7065 149.136C25.7065 149.305 25.7493 149.457 25.8348 149.592C25.9179 149.725 26.0355 149.831 26.1875 149.909C26.3372 149.988 26.513 150.027 26.7149 150.027L30 150.027L30 151.545ZM30 142.393L24.5271 142.393L24.5271 140.875L30 140.875L30 142.393ZM23.8217 141.63C23.8217 141.856 23.7468 142.05 23.5972 142.211C23.4452 142.37 23.2634 142.45 23.052 142.45C22.843 142.45 22.6637 142.37 22.514 142.211C22.362 142.05 22.286 141.856 22.286 141.63C22.286 141.405 22.362 141.212 22.514 141.053C22.6637 140.892 22.843 140.811 23.052 140.811C23.2634 140.811 23.4452 140.892 23.5972 141.053C23.7468 141.212 23.8217 141.405 23.8217 141.63ZM24.5271 136.748L25.6673 136.748L25.6673 140.044L24.5271 140.044L24.5271 136.748ZM23.2159 139.296L23.2159 137.778L28.3182 137.778C28.4584 137.778 28.5676 137.757 28.646 137.714C28.722 137.671 28.7755 137.612 28.8064 137.536C28.8373 137.457 28.8527 137.367 28.8527 137.265C28.8527 137.194 28.8468 137.122 28.8349 137.051C28.8206 136.98 28.8099 136.925 28.8028 136.887L29.9323 136.648C29.9561 136.724 29.9834 136.831 30.0142 136.969C30.0475 137.107 30.0677 137.274 30.0748 137.471C30.0891 137.837 30.0404 138.158 29.9287 138.433C29.8171 138.707 29.6437 138.919 29.4085 139.071C29.1734 139.223 28.8764 139.298 28.5178 139.296L23.2159 139.296ZM24.5271 132.848L25.6673 132.848L25.6673 136.144L24.5271 136.144L24.5271 132.848ZM23.2159 135.396L23.2159 133.878L28.3182 133.878C28.4584 133.878 28.5676 133.857 28.646 133.814C28.722 133.771 28.7755 133.712 28.8064 133.636C28.8373 133.557 28.8527 133.467 28.8527 133.365C28.8527 133.294 28.8468 133.223 28.8349 133.151C28.8206 133.08 28.8099 133.025 28.8028 132.987L29.9323 132.749C29.9561 132.825 29.9834 132.932 30.0142 133.069C30.0475 133.207 30.0677 133.375 30.0748 133.572C30.0891 133.938 30.0404 134.258 29.9287 134.534C29.8171 134.807 29.6437 135.019 29.4085 135.172C29.1734 135.324 28.8764 135.398 28.5178 135.396L23.2159 135.396ZM30.1069 129.424C30.1069 129.987 29.9929 130.472 29.7648 130.878C29.5344 131.282 29.209 131.593 28.7886 131.812C28.3657 132.03 27.8657 132.139 27.2885 132.139C26.7255 132.139 26.2315 132.03 25.8063 131.812C25.3811 131.593 25.0497 131.285 24.8122 130.889C24.5746 130.49 24.4559 130.022 24.4559 129.485C24.4559 129.124 24.5141 128.788 24.6305 128.477C24.7445 128.163 24.9167 127.89 25.1471 127.657C25.3775 127.422 25.6673 127.239 26.0165 127.108C26.3633 126.978 26.7695 126.912 27.2351 126.912L27.6519 126.912L27.6519 131.534L26.7113 131.534L26.7113 128.341C26.4928 128.341 26.2992 128.389 26.1305 128.484C25.9619 128.579 25.83 128.71 25.735 128.879C25.6376 129.045 25.5889 129.239 25.5889 129.46C25.5889 129.69 25.6424 129.895 25.7493 130.073C25.8538 130.249 25.9951 130.386 26.1733 130.486C26.3491 130.586 26.545 130.637 26.7612 130.639L27.6555 130.639C27.9263 130.639 28.1603 130.589 28.3574 130.49C28.5546 130.388 28.7066 130.244 28.8135 130.059C28.9204 129.873 28.9738 129.654 28.9738 129.399C28.9738 129.231 28.9501 129.076 28.9026 128.936C28.8551 128.796 28.7838 128.676 28.6888 128.576C28.5938 128.477 28.4774 128.401 28.3396 128.348L28.4323 126.944C28.7696 127.016 29.0641 127.162 29.3159 127.383C29.5653 127.601 29.7601 127.884 29.9002 128.231C30.038 128.575 30.1069 128.973 30.1069 129.424ZM30.0891 123.905C30.0891 124.321 29.9822 124.697 29.7684 125.035C29.5522 125.37 29.2351 125.636 28.8171 125.833C28.3966 126.028 27.8812 126.125 27.2707 126.125C26.6436 126.125 26.1222 126.024 25.7065 125.822C25.2884 125.62 24.9761 125.352 24.7694 125.017C24.5604 124.679 24.4559 124.31 24.4559 123.909C24.4559 123.602 24.5081 123.347 24.6127 123.143C24.7148 122.936 24.8431 122.77 24.9975 122.644C25.1495 122.516 25.2991 122.418 25.4464 122.352L25.4464 122.305L22.7029 122.305L22.7029 120.791L30 120.791L30 122.287L29.1235 122.287L29.1235 122.352C29.2755 122.423 29.4263 122.524 29.576 122.654C29.7233 122.783 29.8456 122.95 29.943 123.157C30.0404 123.361 30.0891 123.611 30.0891 123.905ZM28.8812 123.424C28.8812 123.179 28.8147 122.973 28.6817 122.804C28.5463 122.633 28.3574 122.502 28.1151 122.412C27.8729 122.32 27.589 122.273 27.2636 122.273C26.9381 122.273 26.6555 122.318 26.4156 122.409C26.1756 122.499 25.9904 122.63 25.8597 122.801C25.7291 122.972 25.6638 123.179 25.6638 123.424C25.6638 123.674 25.7315 123.884 25.8669 124.055C26.0022 124.226 26.1899 124.355 26.4298 124.443C26.6697 124.531 26.9476 124.575 27.2636 124.575C27.5819 124.575 27.8634 124.531 28.108 124.443C28.3503 124.353 28.5403 124.223 28.6781 124.055C28.8135 123.884 28.8812 123.674 28.8812 123.424Z" fill="#666666"/>
<defs>
<linearGradient id="paint0_linear_538_159" x1="95.2518" y1="294.801" x2="99.595" y2="286.67" gradientUnits="userSpaceOnUse">
<stop stop-color="#7E22CE"/>
<stop offset="1" stop-color="#F5D0FE"/>
</linearGradient>
<linearGradient id="paint1_linear_538_159" x1="132.878" y1="212.308" x2="152.028" y2="209.488" gradientUnits="userSpaceOnUse">
<stop stop-color="#7E22CE"/>
<stop offset="1" stop-color="#F5D0FE"/>
</linearGradient>
<linearGradient id="paint2_linear_538_159" x1="171.34" y1="143.396" x2="190.77" y2="141.78" gradientUnits="userSpaceOnUse">
<stop stop-color="#7E22CE"/>
<stop offset="1" stop-color="#F5D0FE"/>
</linearGradient>
<linearGradient id="paint3_linear_538_159" x1="209.802" y1="151.947" x2="229.217" y2="150.24" gradientUnits="userSpaceOnUse">
<stop stop-color="#7E22CE"/>
<stop offset="1" stop-color="#F5D0FE"/>
</linearGradient>
<linearGradient id="paint4_linear_538_159" x1="247.428" y1="162.511" x2="266.819" y2="160.676" gradientUnits="userSpaceOnUse">
<stop stop-color="#7E22CE"/>
<stop offset="1" stop-color="#F5D0FE"/>
</linearGradient>
<linearGradient id="paint5_linear_538_159" x1="285.89" y1="174.583" x2="305.247" y2="172.577" gradientUnits="userSpaceOnUse">
<stop stop-color="#7E22CE"/>
<stop offset="1" stop-color="#F5D0FE"/>
</linearGradient>
<linearGradient id="paint6_linear_538_159" x1="324.352" y1="187.158" x2="343.662" y2="184.938" gradientUnits="userSpaceOnUse">
<stop stop-color="#7E22CE"/>
<stop offset="1" stop-color="#F5D0FE"/>
</linearGradient>
<linearGradient id="paint7_linear_538_159" x1="361.977" y1="199.23" x2="381.225" y2="196.757" gradientUnits="userSpaceOnUse">
<stop stop-color="#7E22CE"/>
<stop offset="1" stop-color="#F5D0FE"/>
</linearGradient>
<linearGradient id="paint8_linear_538_159" x1="400.439" y1="211.302" x2="419.599" y2="208.512" gradientUnits="userSpaceOnUse">
<stop stop-color="#7E22CE"/>
<stop offset="1" stop-color="#F5D0FE"/>
</linearGradient>
<linearGradient id="paint9_linear_538_159" x1="438.901" y1="227.901" x2="457.864" y2="224.52" gradientUnits="userSpaceOnUse">
<stop stop-color="#7E22CE"/>
<stop offset="1" stop-color="#F5D0FE"/>
</linearGradient>
<linearGradient id="paint10_linear_538_159" x1="477.364" y1="257.579" x2="495.335" y2="252.226" gradientUnits="userSpaceOnUse">
<stop stop-color="#7E22CE"/>
<stop offset="1" stop-color="#F5D0FE"/>
</linearGradient>
<linearGradient id="paint11_linear_538_159" x1="514.989" y1="256.573" x2="533.025" y2="251.32" gradientUnits="userSpaceOnUse">
<stop stop-color="#7E22CE"/>
<stop offset="1" stop-color="#F5D0FE"/>
</linearGradient>
<linearGradient id="paint12_linear_538_159" x1="553.451" y1="255.567" x2="571.548" y2="250.411" gradientUnits="userSpaceOnUse">
<stop stop-color="#7E22CE"/>
<stop offset="1" stop-color="#F5D0FE"/>
</linearGradient>
</defs>
</svg>
