<svg width="638" height="596" viewBox="0 0 638 596" fill="none" xmlns="http://www.w3.org/2000/svg">
<g filter="url(#filter0_b_452_237)">
<path d="M389.304 70.1241L581.307 180.977C593.872 188.232 601.612 201.638 601.612 216.147V437.853C601.612 452.362 593.872 465.769 581.307 473.023L389.304 583.876C376.739 591.13 361.258 591.13 348.693 583.876L156.69 473.023C144.125 465.769 136.385 452.362 136.385 437.853V216.147C136.385 201.638 144.125 188.232 156.69 180.977L348.693 70.1241C361.258 62.8698 376.739 62.8698 389.304 70.1241Z" stroke="url(#paint0_radial_452_237)" stroke-width="0.694194"/>
</g>
<g filter="url(#filter1_b_452_237)">
<path d="M248.695 525.876L56.6915 415.023C44.1266 407.769 36.3863 394.362 36.3863 379.853L36.3863 158.147C36.3863 143.638 44.1266 130.232 56.6915 122.977L248.695 12.124C261.26 4.86965 276.74 4.86965 289.305 12.124L481.309 122.977C493.873 130.232 501.614 143.638 501.614 158.147L501.614 379.853C501.614 394.362 493.873 407.768 481.309 415.023L289.305 525.876C276.74 533.13 261.26 533.13 248.695 525.876Z" stroke="url(#paint1_radial_452_237)" stroke-width="0.694194"/>
</g>
<path d="M347.705 33.222L546.756 148.144C557.093 154.112 563.461 165.142 563.461 177.078V406.922C563.461 418.859 557.093 429.888 546.756 435.856L347.705 550.778C337.368 556.746 324.632 556.746 314.295 550.778L115.244 435.856C104.907 429.888 98.5392 418.859 98.5392 406.922V177.078C98.5392 165.142 104.907 154.112 115.244 148.144L314.295 33.222C324.632 27.2539 337.368 27.2539 347.705 33.222Z" fill="white" fill-opacity="0.7" stroke="url(#paint2_linear_452_237)"/>
<g clip-path="url(#clip0_452_237)">
<mask id="mask0_452_237" style="mask-type:luminance" maskUnits="userSpaceOnUse" x="311" y="276" width="40" height="32">
<path d="M350.598 276.472H311.259V307.408H350.598V276.472Z" fill="white"/>
</mask>
<g mask="url(#mask0_452_237)">
<path d="M312.876 283.476V278.089H348.979V283.476H312.876ZM312.876 294.54V289.153H348.979V294.54H312.876ZM312.876 305.604V300.217H327.239V305.604H312.876ZM334.616 305.604V300.217H348.979V305.604H334.616Z" fill="#5C5C5C"/>
<path fill-rule="evenodd" clip-rule="evenodd" d="M311.259 285.093V276.472H350.598V285.093H311.259ZM311.259 296.157V287.536H350.598V296.157H311.259ZM311.259 307.221V298.6H328.858V307.221H311.259ZM332.999 307.221V298.6H350.598V307.221H332.999ZM312.876 283.476H348.98V278.089H312.876V283.476ZM312.876 294.54H348.98V289.153H312.876V294.54ZM312.876 305.604H327.24V300.217H312.876V305.604ZM334.616 305.604H348.98V300.217H334.616V305.604Z" fill="#5C5C5C"/>
</g>
</g>
<path d="M294.756 292.505C295.068 292.193 295.068 291.686 294.756 291.374L289.664 286.282C289.352 285.97 288.845 285.97 288.533 286.282C288.22 286.595 288.22 287.101 288.533 287.414L293.059 291.94L288.533 296.466C288.22 296.778 288.22 297.285 288.533 297.597C288.845 297.91 289.352 297.91 289.664 297.597L294.756 292.505ZM239.785 292.74H294.19V291.14H239.785V292.74Z" fill="#5C5C5C"/>
<path d="M422.769 292.505C423.081 292.193 423.081 291.686 422.769 291.374L417.677 286.282C417.365 285.97 416.858 285.97 416.546 286.282C416.233 286.595 416.233 287.101 416.546 287.414L421.072 291.94L416.546 296.466C416.233 296.778 416.233 297.285 416.546 297.597C416.858 297.91 417.365 297.91 417.677 297.597L422.769 292.505ZM367.798 292.74H422.203V291.14H367.798V292.74Z" fill="#5C5C5C"/>
<path d="M466.869 354.821C482.111 354.821 494.467 342.465 494.467 327.223C494.467 311.982 482.111 299.626 466.869 299.626C451.628 299.626 439.272 311.982 439.272 327.223C439.272 342.465 451.628 354.821 466.869 354.821Z" fill="white" stroke="#7200D5" stroke-width="0.533388" stroke-miterlimit="10"/>
<path d="M466.869 352.469C482.111 352.469 494.467 340.113 494.467 324.871C494.467 309.629 482.111 297.274 466.869 297.274C451.628 297.274 439.272 309.629 439.272 324.871C439.272 340.113 451.628 352.469 466.869 352.469Z" fill="#7200D5"/>
<g clip-path="url(#clip1_452_237)">
<mask id="mask1_452_237" style="mask-type:luminance" maskUnits="userSpaceOnUse" x="458" y="318" width="17" height="14">
<path d="M474.475 318.649H458.474V331.232H474.475V318.649Z" fill="white"/>
</mask>
<g mask="url(#mask1_452_237)">
<path d="M459.131 321.498V319.307H473.817V321.498H459.131ZM459.131 325.998V323.807H473.817V325.998H459.131ZM459.131 330.498V328.307H464.974V330.498H459.131ZM467.974 330.498V328.307H473.817V330.498H467.974Z" fill="white"/>
<path fill-rule="evenodd" clip-rule="evenodd" d="M458.474 322.156V318.649H474.475V322.156H458.474ZM458.474 326.656V323.149H474.475V326.656H458.474ZM458.474 331.156V327.649H465.632V331.156H458.474ZM467.317 331.156V327.649H474.475V331.156H467.317ZM459.132 321.498H473.817V319.307H459.132V321.498ZM459.132 325.998H473.817V323.807H459.132V325.998ZM459.132 330.498H464.974V328.307H459.132V330.498ZM467.975 330.498H473.817V328.307H467.975V330.498Z" fill="white"/>
</g>
</g>
<path d="M466.901 344.052C477.494 344.052 486.082 335.464 486.082 324.871C486.082 314.278 477.494 305.69 466.901 305.69C456.308 305.69 447.721 314.278 447.721 324.871C447.721 335.464 456.308 344.052 466.901 344.052Z" stroke="white" stroke-width="1.60016" stroke-miterlimit="10"/>
<path d="M467.403 286.547C482.644 286.547 495 274.191 495 258.95C495 243.708 482.644 231.352 467.403 231.352C452.161 231.352 439.805 243.708 439.805 258.95C439.805 274.191 452.161 286.547 467.403 286.547Z" fill="white" stroke="#7200D5" stroke-width="0.533388" stroke-miterlimit="10"/>
<path d="M467.403 284.195C482.644 284.195 495 271.839 495 256.597C495 241.356 482.644 229 467.403 229C452.161 229 439.805 241.356 439.805 256.597C439.805 271.839 452.161 284.195 467.403 284.195Z" fill="#7200D5"/>
<g clip-path="url(#clip2_452_237)">
<mask id="mask2_452_237" style="mask-type:luminance" maskUnits="userSpaceOnUse" x="459" y="250" width="17" height="13">
<path d="M475.009 250.375H459.007V262.959H475.009V250.375Z" fill="white"/>
</mask>
<g mask="url(#mask2_452_237)">
<path d="M459.665 253.224V251.033H474.35V253.224H459.665ZM459.665 257.724V255.533H474.35V257.724H459.665ZM459.665 262.225V260.034H465.507V262.225H459.665ZM468.508 262.225V260.034H474.35V262.225H468.508Z" fill="white"/>
<path fill-rule="evenodd" clip-rule="evenodd" d="M459.007 253.882V250.375H475.009V253.882H459.007ZM459.007 258.382V254.875H475.009V258.382H459.007ZM459.007 262.883V259.376H466.166V262.883H459.007ZM467.85 262.883V259.376H475.009V262.883H467.85ZM459.665 253.224H474.351V251.033H459.665V253.224ZM459.665 257.724H474.351V255.533H459.665V257.724ZM459.665 262.225H465.508V260.034H459.665V262.225ZM468.508 262.225H474.351V260.034H468.508V262.225Z" fill="white"/>
</g>
</g>
<path d="M467.435 275.778C478.028 275.778 486.615 267.191 486.615 256.597C486.615 246.004 478.028 237.417 467.435 237.417C456.841 237.417 448.254 246.004 448.254 256.597C448.254 267.191 456.841 275.778 467.435 275.778Z" stroke="white" stroke-width="1.60016" stroke-miterlimit="10"/>
<path d="M192.876 268.245L166.186 314.473C165.658 315.387 166.318 316.529 167.373 316.529H220.751C221.807 316.529 222.465 315.387 221.938 314.473L195.249 268.245C194.721 267.331 193.403 267.331 192.876 268.245Z" fill="#7200D6"/>
<path d="M195.495 314.073L207.342 293.553C207.939 292.52 207.193 291.229 206.001 291.229H182.307C181.115 291.229 180.37 292.52 180.966 293.553L192.813 314.073C193.41 315.106 194.9 315.106 195.497 314.073H195.495Z" fill="#7DD3FC"/>
<path d="M193.768 291.447L186.91 303.327C186.723 303.651 186.957 304.056 187.331 304.056H201.048C201.422 304.056 201.656 303.651 201.469 303.327L194.611 291.447C194.424 291.124 193.956 291.124 193.769 291.447H193.768Z" fill="white"/>
<defs>
<filter id="filter0_b_452_237" x="126.038" y="54.3363" width="485.922" height="545.328" filterUnits="userSpaceOnUse" color-interpolation-filters="sRGB">
<feFlood flood-opacity="0" result="BackgroundImageFix"/>
<feGaussianBlur in="BackgroundImageFix" stdDeviation="5"/>
<feComposite in2="SourceAlpha" operator="in" result="effect1_backgroundBlur_452_237"/>
<feBlend mode="normal" in="SourceGraphic" in2="effect1_backgroundBlur_452_237" result="shape"/>
</filter>
<filter id="filter1_b_452_237" x="26.0392" y="-3.66385" width="485.922" height="545.328" filterUnits="userSpaceOnUse" color-interpolation-filters="sRGB">
<feFlood flood-opacity="0" result="BackgroundImageFix"/>
<feGaussianBlur in="BackgroundImageFix" stdDeviation="5"/>
<feComposite in2="SourceAlpha" operator="in" result="effect1_backgroundBlur_452_237"/>
<feBlend mode="normal" in="SourceGraphic" in2="effect1_backgroundBlur_452_237" result="shape"/>
</filter>
<radialGradient id="paint0_radial_452_237" cx="0" cy="0" r="1" gradientUnits="userSpaceOnUse" gradientTransform="translate(682.54 663.688) rotate(-133.066) scale(594.247 1084.17)">
<stop stop-color="#F5D0FE"/>
<stop offset="1" stop-color="#F5D0FE" stop-opacity="0"/>
</radialGradient>
<radialGradient id="paint1_radial_452_237" cx="0" cy="0" r="1" gradientUnits="userSpaceOnUse" gradientTransform="translate(-44.5411 -67.6876) rotate(46.9335) scale(594.247 1084.17)">
<stop stop-color="#7DD3FC"/>
<stop offset="1" stop-color="#7DD3FC" stop-opacity="0"/>
</radialGradient>
<linearGradient id="paint2_linear_452_237" x1="77" y1="146.5" x2="570" y2="466.5" gradientUnits="userSpaceOnUse">
<stop stop-color="#7E22CE"/>
<stop offset="0.489583" stop-color="#F5D0FE"/>
<stop offset="1" stop-color="#7DD3FC"/>
</linearGradient>
<clipPath id="clip0_452_237">
<rect width="39.3391" height="30.9365" fill="white" transform="translate(311.259 276.472)"/>
</clipPath>
<clipPath id="clip1_452_237">
<rect width="16.0016" height="12.5838" fill="white" transform="translate(458.474 318.649)"/>
</clipPath>
<clipPath id="clip2_452_237">
<rect width="16.0016" height="12.5838" fill="white" transform="translate(459.007 250.375)"/>
</clipPath>
</defs>
</svg>
