<svg width="216" height="31" viewBox="0 0 216 31" fill="none" xmlns="http://www.w3.org/2000/svg">
<g clip-path="url(#clip0_3814_6640)">
<path d="M42.1679 13.1023L47.9939 7.27655L53.823 13.1054L57.213 9.71544L47.9939 0.496094L38.7779 9.71235L42.1679 13.1023Z" fill="black"/>
<path d="M39.7739 15.4954L36.384 12.1055L32.9939 15.4956L36.3838 18.8855L39.7739 15.4954Z" fill="black"/>
<path d="M42.1679 17.89L47.9939 23.7158L53.8228 17.8872L57.2147 21.2753L57.213 21.2772L47.9939 30.4963L38.7776 21.2803L38.7729 21.2755L42.1679 17.89Z" fill="black"/>
<path d="M59.6042 18.8872L62.9943 15.4971L59.6044 12.1071L56.2143 15.4972L59.6042 18.8872Z" fill="black"/>
<path d="M51.4325 15.4947H51.4339L47.994 12.0547L45.4518 14.5969H45.4515L45.1596 14.889L44.557 15.4916L44.5523 15.4963L44.557 15.5013L47.994 18.9382L51.4339 15.4982L51.4356 15.4963L51.4325 15.4947Z" fill="black"/>
<path d="M68.2791 7.76514H75.6522C77.4821 7.76514 78.8659 8.23476 79.8037 9.17402C80.5295 9.90144 80.8922 10.803 80.8922 11.8785V11.924C80.8922 12.3785 80.8361 12.7801 80.7231 13.1284C80.6103 13.4772 80.4596 13.7912 80.2712 14.0715C80.0833 14.352 79.8648 14.5982 79.6165 14.81C79.368 15.0223 79.1009 15.2043 78.8149 15.3555C79.7348 15.7043 80.4589 16.1774 80.9868 16.776C81.5145 17.3747 81.7787 18.2043 81.7787 19.2646V19.3099C81.7787 20.0373 81.6389 20.6735 81.359 21.2192C81.0792 21.7644 80.6783 22.2191 80.1563 22.5828C79.6343 22.9465 79.0066 23.219 78.273 23.401C77.5394 23.5827 76.7265 23.6735 75.8344 23.6735H68.2791V7.76514ZM74.915 14.1966C75.688 14.1966 76.3016 14.0644 76.7559 13.799C77.2103 13.5338 77.4376 13.1057 77.4376 12.515V12.4695C77.4376 11.9394 77.2404 11.5342 76.8466 11.2537C76.4526 10.9734 75.8844 10.8331 75.1423 10.8331H71.6878V14.1966H74.915ZM75.8469 20.6057C76.6196 20.6057 77.2253 20.4659 77.665 20.1854C78.1043 19.9051 78.3242 19.4693 78.3242 18.8784V18.8331C78.3242 18.3028 78.1195 17.8825 77.7105 17.5716C77.3013 17.2615 76.6424 17.106 75.7332 17.106H71.6878V20.606L75.8469 20.6057Z" fill="black"/>
<path d="M86.1698 7.76514H89.67V23.6739H86.1698V7.76514Z" fill="black"/>
<path d="M94.9711 7.76514H98.1979L105.652 17.5605V7.76514H109.107V23.6739H106.13L98.4253 13.5606V23.6739H94.9711V7.76514Z" fill="black"/>
<path d="M119.703 7.65186H122.93L129.748 23.6742H126.089L124.635 20.1062H117.908L116.453 23.6742H112.885L119.703 7.65186ZM123.385 17.015L121.271 11.8562L119.158 17.015H123.385Z" fill="black"/>
<path d="M133.527 7.76514H136.754L144.208 17.5605V7.76514H147.663V23.6739H144.686L136.981 13.5606V23.6739H133.527V7.76514Z" fill="black"/>
<path d="M160.259 23.9467C159.091 23.9467 158.009 23.7344 157.008 23.3105C156.008 22.8866 155.145 22.3068 154.418 21.5718C153.69 20.837 153.122 19.9696 152.713 18.9696C152.304 17.9695 152.1 16.9013 152.1 15.7649V15.7197C152.1 14.5833 152.304 13.5192 152.713 12.5266C153.122 11.5343 153.69 10.663 154.418 9.91308C155.145 9.16315 156.016 8.57197 157.031 8.14025C158.046 7.70853 159.168 7.49268 160.395 7.49268C161.137 7.49268 161.815 7.55357 162.428 7.67441C163.042 7.79597 163.599 7.9623 164.099 8.17437C164.599 8.38667 165.061 8.64423 165.486 8.94705C165.909 9.25034 166.303 9.58349 166.667 9.9472L164.44 12.5152C163.818 11.9548 163.186 11.5151 162.542 11.1971C161.898 10.8791 161.175 10.7199 160.372 10.7199C159.705 10.7199 159.088 10.8488 158.52 11.1063C157.952 11.3639 157.463 11.7198 157.054 12.1743C156.645 12.6287 156.327 13.1555 156.099 13.7537C155.872 14.3525 155.759 14.9925 155.759 15.6742V15.7194C155.759 16.4011 155.872 17.0454 156.099 17.651C156.327 18.2574 156.64 18.7874 157.043 19.2419C157.444 19.6964 157.929 20.0565 158.497 20.3217C159.065 20.587 159.69 20.7192 160.372 20.7192C161.281 20.7192 162.049 20.5527 162.678 20.2193C163.307 19.8864 163.932 19.4317 164.554 18.8557L166.781 21.1057C166.372 21.5452 165.947 21.9393 165.508 22.2874C165.069 22.6361 164.588 22.9352 164.065 23.1854C163.542 23.4351 162.97 23.6249 162.349 23.7533C161.727 23.882 161.031 23.9467 160.259 23.9467Z" fill="black"/>
<path d="M170.9 7.76514H182.877V10.8788H174.355V14.1061H181.854V17.2195H174.355V20.5605H182.991V23.6739H170.9V7.76514Z" fill="black"/>
</g>
<defs>
<clipPath id="clip0_3814_6640">
<rect width="149.753" height="30" fill="white" transform="translate(33.1234 0.496094)"/>
</clipPath>
</defs>
</svg>
