<svg width="216" height="25" viewBox="0 0 216 25" fill="none" xmlns="http://www.w3.org/2000/svg">
<path fill-rule="evenodd" clip-rule="evenodd" d="M56.0805 0.630692C55.932 0.59963 55.7834 0.547864 55.6348 0.496094H54.7752C53.9345 0.706124 53.2721 1.20599 52.5967 1.71572L52.5253 1.7696C51.4003 2.62899 49.8615 2.62899 48.8002 1.75925C48.1316 1.2105 47.4523 0.734229 46.6034 0.496094H45.7543C44.8522 0.703167 44.1518 1.23121 43.4407 1.7696C42.3052 2.62899 40.7557 2.62899 39.6839 1.72819C39.0152 1.16909 38.3254 0.713524 37.4764 0.496094H36.6274C36.4258 0.568569 36.2135 0.641045 36.0012 0.713515C34.9718 1.08625 34.335 1.81102 34.0167 2.81533C33.9954 2.87744 33.9716 2.9396 33.9477 3.00172C33.9238 3.06382 33.8999 3.12594 33.8787 3.18806V4.01638C34.0909 4.87575 34.5791 5.54874 35.1841 6.19068C36.1392 7.2571 36.1498 8.84123 35.2053 9.88693C34.611 10.5392 34.1228 11.2226 33.8893 12.0716V12.8998C34.1122 13.7489 34.611 14.4219 35.2053 15.0845C36.1286 16.1199 36.1392 17.7041 35.2159 18.7394C34.6216 19.4124 34.1016 20.0958 33.8893 20.9758V21.8041C33.9742 22.0008 34.0485 22.2079 34.1228 22.4149C34.5048 23.4192 35.2371 24.0509 36.2666 24.3615C36.3302 24.3822 36.3939 24.4055 36.4576 24.4288C36.5213 24.4521 36.5849 24.4754 36.6486 24.4961H37.4976C38.3679 24.2787 39.0577 23.792 39.7369 23.2123C40.8194 22.2908 42.4538 22.2908 43.5256 23.2226C44.2048 23.8024 44.9053 24.2787 45.7755 24.4961H46.6246C46.7117 24.4677 46.7988 24.4351 46.8869 24.4022C46.9921 24.3628 47.0986 24.3228 47.2083 24.289C48.6198 23.8128 49.5537 22.3736 49.3309 21.0068C49.0761 19.4124 47.8769 18.3356 46.2956 18.2735C45.3723 18.2425 44.5976 18.5427 43.929 19.1432C43.0269 19.9612 41.9868 20.3443 40.7663 20.0026C38.3997 19.3503 37.5719 16.5341 39.2487 14.7843C40.0022 13.9974 40.3419 13.107 40.2251 12.0509C40.1351 11.2602 39.6582 10.6811 39.1771 10.0969C39.1479 10.0615 39.1186 10.026 39.0895 9.99046C37.3278 7.84728 38.9834 5.36236 40.8831 4.90681C42.0505 4.62725 43.0269 4.97928 43.8759 5.78685C45.1707 7.0086 47.1234 7.10177 48.312 5.88006C49.6492 4.51333 51.7399 4.47192 53.0877 5.89042C53.9792 6.82226 55.465 6.97754 56.6324 6.41843C57.8528 5.82826 58.5108 4.62725 58.3729 3.20876C58.2668 2.03881 57.301 0.962011 56.0805 0.630692ZM55.2527 20.3856C54.6266 20.3753 54.149 20.8205 54.149 21.4417C54.149 22.063 54.6159 22.5288 55.2314 22.5185C55.8364 22.5185 56.3458 22.0111 56.3351 21.4313C56.3246 20.8723 55.8364 20.3959 55.2527 20.3856ZM54.149 12.7343C54.1596 12.1131 54.6159 11.6782 55.2633 11.6886C55.8576 11.6989 56.3351 12.1752 56.3351 12.7447C56.3351 13.3244 55.8151 13.8318 55.2208 13.8318C54.6159 13.8214 54.149 13.3348 54.149 12.7343ZM46.1469 13.894C46.7624 13.9044 47.24 13.4385 47.24 12.8276C47.2506 12.2063 46.7837 11.7507 46.1469 11.7611C45.5526 11.7715 45.075 12.2271 45.0537 12.7965C45.0326 13.3763 45.542 13.8836 46.1469 13.894Z" fill="black"/>
<path d="M70.5571 23.5749C73.3367 23.5749 75.3457 22.8204 76.8592 21.3923C78.2077 20.1258 79.0884 18.3743 79.2259 16.4613H74.355C74.1348 18.3205 72.7038 19.6678 70.5296 19.6678C67.6125 19.6678 65.7961 17.108 65.7961 13.5781C65.7961 10.0752 67.3097 7.46146 70.5021 7.46146C72.5936 7.46146 73.9697 8.7818 74.2173 10.5063H79.0884C78.8407 8.35066 77.8499 6.46449 76.1436 5.19804C74.7402 4.14718 72.8138 3.50049 70.5296 3.50049C64.6677 3.50049 60.8423 7.83871 60.8423 13.5781C60.8423 19.3444 64.7778 23.5749 70.5571 23.5749ZM87.8378 20.4492C85.8838 20.4492 84.8655 18.7786 84.8655 16.2726C84.8655 13.7667 85.8838 12.0691 87.8378 12.0691C89.7917 12.0691 90.8375 13.7667 90.8375 16.2726C90.8375 18.7786 89.7917 20.4492 87.8378 20.4492ZM87.8653 23.5749C92.4062 23.5749 95.3783 20.4222 95.3783 16.2726C95.3783 12.123 92.4062 8.97038 87.8653 8.97038C83.3519 8.97038 80.3246 12.123 80.3246 16.2726C80.3246 20.4222 83.3519 23.5749 87.8653 23.5749ZM124.23 19.1272V7.86406H127.147C130.202 7.86406 131.936 10.1274 131.936 13.6304C131.936 17.1602 130.284 19.1272 127.092 19.1272H124.23ZM119.359 23.1422H127.45C129.927 23.1422 131.908 22.5224 133.449 21.3907C135.651 19.747 136.862 17.0255 136.862 13.6304C136.862 7.72933 133.202 3.87613 127.753 3.87613H119.359V23.1422ZM145.368 23.5463C147.157 23.5463 148.588 23.0882 149.772 22.2799C151.01 21.4445 151.836 20.259 152.138 19.0195H147.762C147.378 19.8817 146.607 20.3937 145.423 20.3937C143.579 20.3937 142.534 19.235 142.259 17.3758H152.386C152.414 14.5735 151.588 12.1753 149.909 10.6664C148.698 9.58856 147.102 8.94187 145.093 8.94187C140.8 8.94187 137.855 12.0945 137.855 16.2172C137.855 20.3937 140.717 23.5463 145.368 23.5463ZM142.286 14.7621C142.589 13.1185 143.47 12.0675 145.176 12.0675C146.634 12.0675 147.68 13.1185 147.845 14.7621H142.286ZM159.887 23.5733C163.575 23.5733 166.3 22.0105 166.3 18.9925C166.3 15.4627 163.382 14.8429 160.906 14.4388C159.117 14.1154 157.521 13.9807 157.521 13.0107C157.521 12.1484 158.374 11.7442 159.474 11.7442C160.713 11.7442 161.566 12.1215 161.731 13.361H165.859C165.639 10.6394 163.493 8.94187 159.502 8.94187C156.172 8.94187 153.42 10.4508 153.42 13.361C153.42 16.5944 156.035 17.2411 158.484 17.6453C160.355 17.9686 162.062 18.1033 162.062 19.3428C162.062 20.232 161.209 20.7171 159.86 20.7171C158.374 20.7171 157.438 20.0434 157.273 18.6692H153.035C153.172 21.714 155.76 23.5733 159.887 23.5733ZM167.756 23.1422H172.186V18.9117L173.535 17.5106L176.92 23.1422H182.121L176.589 14.5196L181.543 9.34604H176.369L172.186 14.0077V3.87613H167.756V23.1422Z" fill="black"/>
<path d="M108.279 23.1422H103.793V9.34606H108.114V11.2323H108.197C109.243 9.75023 110.591 8.94189 112.545 8.94189C115.627 8.94189 117.444 11.0976 117.444 14.1693V23.1422H112.958V15.0586C112.958 13.6034 112.215 12.6065 110.756 12.6065C109.27 12.6065 108.279 13.819 108.279 15.5166V23.1422Z" fill="black"/>
<path d="M96.3557 12.1806L96.3559 9.37598H101.891V23.176H97.6232V12.1806H96.3557Z" fill="black"/>
<path d="M99.4406 8.17646C100.794 8.17646 101.892 7.10195 101.892 5.77646C101.892 4.45098 100.794 3.37646 99.4406 3.37646C98.0869 3.37646 96.9894 4.45098 96.9894 5.77646C96.9894 7.10195 98.0869 8.17646 99.4406 8.17646Z" fill="black"/>
</svg>
