<svg width="216" height="41" viewBox="0 0 216 41" fill="none" xmlns="http://www.w3.org/2000/svg">
<g clip-path="url(#clip0_7147_101030)">
<mask id="mask0_7147_101030" style="mask-type:luminance" maskUnits="userSpaceOnUse" x="28" y="0" width="160" height="41">
<path d="M188 0.496094H28V40.4961H188V0.496094Z" fill="white"/>
</mask>
<g mask="url(#mask0_7147_101030)">
<path d="M79.8947 13.5262C79.8237 14.5254 79.4604 15.3118 78.8049 15.8867C78.1495 16.461 77.2857 16.7477 76.2137 16.7477C75.0418 16.7477 74.1186 16.3471 73.4472 15.5451C72.7752 14.7437 72.4389 13.6432 72.4389 12.2438V11.6758C72.4389 10.783 72.5938 9.9959 72.9038 9.31524C73.2138 8.63524 73.6567 8.1126 74.2319 7.74925C74.8077 7.38529 75.4767 7.20361 76.2394 7.20361C77.2943 7.20361 78.1446 7.49105 78.7897 8.06532C79.4341 8.63896 79.8065 9.44532 79.9076 10.4831H78.0232C77.9773 9.88332 77.8126 9.44841 77.5302 9.1784C77.2471 8.9084 76.8171 8.77335 76.2394 8.77335C75.6109 8.77335 75.141 9.00166 74.8292 9.45899C74.5168 9.91632 74.3569 10.6256 74.3483 11.5868V12.2887C74.3483 13.2922 74.4984 14.0257 74.7973 14.4893C75.0975 14.9528 75.5692 15.1849 76.2143 15.1849C76.7962 15.1849 77.2306 15.0498 77.5172 14.7798C77.8046 14.5098 77.9687 14.0917 78.0104 13.5262H79.8947ZM89.6252 12.1866C89.6252 13.1012 89.4659 13.9026 89.1473 14.5913C88.8294 15.2807 88.3742 15.812 87.7812 16.1866C87.1889 16.5605 86.5095 16.7477 85.7432 16.7477C84.9854 16.7477 84.3091 16.563 83.7142 16.1928C83.1201 15.8226 82.6587 15.2944 82.3322 14.6075C82.0057 13.9206 81.8403 13.1305 81.8361 12.237V11.7778C81.8361 10.8632 81.9984 10.0587 82.3231 9.36382C82.6477 8.66821 83.106 8.13438 83.6989 7.7617C84.2913 7.38964 84.9688 7.20361 85.7309 7.20361C86.493 7.20361 87.1705 7.39026 87.7629 7.7617C88.3552 8.13438 88.8141 8.66821 89.1382 9.36315C89.4628 10.0587 89.6252 10.8614 89.6252 11.7717V12.1866ZM87.7157 11.7654C87.7157 10.7911 87.5442 10.0513 87.2012 9.54482C86.8575 9.03899 86.3674 8.7858 85.7309 8.7858C85.0981 8.7858 84.6105 9.03591 84.2668 9.53549C83.9237 10.0352 83.7498 10.7674 83.7461 11.7337V12.1866C83.7461 13.1348 83.9177 13.8708 84.2607 14.3935C84.6037 14.9167 85.0981 15.1787 85.7432 15.1787C86.3754 15.1787 86.8612 14.9267 87.2012 14.4227C87.5399 13.9187 87.7114 13.184 87.7157 12.2183V11.7654ZM93.9777 16.6202H92.0933V7.33116H93.9777V16.6202ZM104.142 16.6202H102.257L98.5887 10.5086V16.6202H96.7043V7.33116H98.5887L102.264 13.4558V7.33116H104.142V16.6202ZM113.47 8.88165H110.669V16.6202H108.785V8.88165H106.021V7.33116H113.47V8.88165ZM121.027 12.5947H117.409V15.0828H121.655V16.6202H115.524V7.33116H121.643V8.88165H117.409V11.0953H121.027V12.5947ZM125.626 15.0828H129.627V16.6202H123.741V7.33116H125.626V15.0828ZM137.19 12.5942H133.572V15.0828H137.817V16.6202H131.687V7.33116H137.806V8.88165H133.572V11.0953H137.19V12.5942ZM147.14 15.4462C146.801 15.8587 146.322 16.1791 145.702 16.4062C145.082 16.6339 144.395 16.7484 143.641 16.7484C142.85 16.7484 142.156 16.5723 141.559 16.2214C140.962 15.8705 140.502 15.3616 140.177 14.6933C139.852 14.0257 139.687 13.2412 139.677 12.3397V11.7076C139.677 10.7805 139.832 9.97791 140.14 9.29974C140.447 8.62155 140.892 8.10203 141.471 7.74304C142.051 7.38342 142.73 7.20361 143.509 7.20361C144.594 7.20361 145.442 7.46616 146.053 7.99191C146.665 8.51702 147.027 9.28166 147.14 10.2852H145.306C145.222 9.75332 145.037 9.3644 144.75 9.1174C144.463 8.87107 144.068 8.74785 143.566 8.74785C142.925 8.74785 142.437 8.99232 142.102 9.4814C141.767 9.9704 141.597 10.6977 141.593 11.6633V12.2563C141.593 13.2307 141.776 13.9661 142.14 14.4637C142.504 14.9615 143.038 15.2104 143.742 15.2104C144.449 15.2104 144.954 15.0573 145.255 14.7512V13.1497H143.541V11.7399H147.14V15.4462ZM153.032 13.2201H151.532V16.6202H149.647V7.33116H153.045C154.125 7.33116 154.959 7.57567 155.544 8.06532C156.132 8.55435 156.424 9.24499 156.424 10.1384C156.424 10.7724 156.289 11.3007 156.019 11.7237C155.749 12.1468 155.339 12.484 154.791 12.7347L156.77 16.5307V16.6202H154.747L153.032 13.2201ZM151.532 11.6696H153.051C153.524 11.6696 153.891 11.547 154.15 11.3025C154.41 11.058 154.54 10.7214 154.54 10.2915C154.54 9.85349 154.417 9.50874 154.172 9.25807C153.927 9.00732 153.552 8.88165 153.045 8.88165H151.531L151.532 11.6696ZM164 14.7058H160.696L160.067 16.6202H158.064L161.469 7.33116H163.215L166.638 16.6202H164.635L164 14.7058ZM161.205 13.1566H163.491L162.342 9.67865L161.205 13.1566ZM170.357 13.3476V16.6202H168.472V7.33116H172.04C172.728 7.33116 173.331 7.4587 173.852 7.71441C174.374 7.9695 174.775 8.33161 175.056 8.80198C175.336 9.27174 175.477 9.80682 175.477 10.4066C175.477 11.3168 175.17 12.0342 174.557 12.5593C173.942 13.0851 173.093 13.3476 172.009 13.3476H170.357ZM170.357 11.7972H172.04C172.539 11.7972 172.919 11.6783 173.181 11.44C173.442 11.2017 173.573 10.8614 173.573 10.4197C173.573 9.96424 173.442 9.5959 173.177 9.31524C172.914 9.03532 172.549 8.89032 172.084 8.88165H170.357V11.7972ZM185.194 16.6202H183.31V12.6396H179.635V16.6202H177.75V7.33116H179.635V11.0953H183.31V7.33116H185.194V16.6202Z" fill="black"/>
<path d="M51.267 30.3804L44.5777 33.2553V32.9678C43.2879 33.2943 41.8591 33.4824 40.5057 33.5429C34.2148 33.4824 29.2215 30.2276 29.1634 26.3545V24.9168C31.2296 27.8869 35.4358 29.8771 40.5057 29.8052C42.2209 29.8771 43.9756 29.6087 45.4499 29.2301L46.0317 27.7923C44.2829 28.3081 42.3742 28.6669 40.5057 28.655C34.2148 28.6669 29.2215 25.4122 29.1634 21.4673V20.317C31.2296 23.0626 35.4268 25.0534 40.5057 24.9174C42.7907 25.0534 45.0252 24.5783 46.9039 23.7671L47.1951 22.3294C45.3595 23.2866 42.9806 23.8426 40.5057 23.7671C34.2148 23.8426 29.2215 20.5878 29.1634 16.5794V15.4291C31.2296 18.2388 35.4358 20.2289 40.5057 20.317C43.3873 20.2289 46.1191 19.4759 48.3585 18.3041L48.6497 16.5788C46.6169 18.0681 43.6497 19.0278 40.5057 19.1668C34.2148 19.0278 29.2221 15.7724 29.1634 11.6915C29.2215 7.81006 34.2148 4.55527 40.5057 4.50375C44.256 4.55527 47.739 5.85527 49.813 7.95384L50.0149 8.28632L51.4815 8.29232L51.267 7.95384C49.2044 5.1825 45.0791 3.35352 40.5057 3.35352C33.5451 3.35352 28 7.14628 28 11.6915V26.6421C28.2444 31.0789 33.6631 34.6925 40.5057 34.6925C45.0252 34.6925 49.0869 32.9354 51.267 30.3804Z" fill="black"/>
<path d="M48.5458 40.4961L50.8943 30.6298L44.1432 33.5318L48.2528 16.4113H40.3271L42.3819 7.99609H67.6247L65.5698 16.4113H57.3517L55.5904 21.0542L64.6892 17.2818L48.5458 40.4961ZM52.6555 28.5984L51.4813 34.4023L61.1672 19.8938L53.242 23.3763L56.7646 15.2509H64.6892L66.1569 9.15709H43.2626L41.7948 15.2509H49.72L45.9039 31.5009L52.6555 28.5996V28.5984Z" fill="black"/>
<path d="M92.0856 30.3218H93.1432V26.346H94.1218V25.5737H93.1432V25.1173C93.1432 24.9505 93.1724 24.8101 93.2309 24.696C93.2924 24.5819 93.3801 24.4956 93.4942 24.4371C93.6113 24.3757 93.7502 24.3449 93.9111 24.3449C93.9901 24.3449 94.0632 24.3479 94.1305 24.3538C94.2007 24.3596 94.2651 24.3698 94.3236 24.3844L94.35 23.5683C94.2534 23.5419 94.1539 23.5229 94.0515 23.5112C93.9491 23.4966 93.8453 23.4893 93.7399 23.4893C93.4006 23.4893 93.1066 23.5522 92.8579 23.6779C92.6093 23.8008 92.4176 23.9837 92.283 24.2265C92.1514 24.4663 92.0856 24.7633 92.0856 25.1173V25.5737H91.3571V26.346H92.0856V30.3218Z" fill="black"/>
<path d="M79.6553 26.1186V23.5811H78.6021V30.3215H79.6553V26.9317C79.6866 26.872 79.7217 26.8156 79.7606 26.7626C79.8571 26.6309 79.9771 26.5271 80.1204 26.451C80.2667 26.3749 80.4349 26.3369 80.6251 26.3369C80.8064 26.3369 80.96 26.3676 81.0859 26.4291C81.2117 26.4876 81.3068 26.5841 81.3711 26.7186C81.4384 26.8532 81.472 27.0346 81.472 27.2628V30.3215H82.534V27.2716C82.534 26.9469 82.4974 26.6719 82.4243 26.4466C82.3541 26.2184 82.2502 26.0341 82.1127 25.8936C81.9752 25.7503 81.8114 25.6465 81.6213 25.5821C81.434 25.5177 81.2234 25.4856 80.9894 25.4856C80.7114 25.4856 80.4584 25.5426 80.2301 25.6567C80.008 25.7649 79.8164 25.9188 79.6553 26.1186Z" fill="black"/>
<path d="M75.5177 30.322V24.8103H77.5231V23.9326H72.4371V24.8103H74.4249V30.322H75.5177Z" fill="black"/>
<path fill-rule="evenodd" clip-rule="evenodd" d="M86.0484 30.4095C85.6974 30.4095 85.38 30.3525 85.0961 30.2383C84.8153 30.1213 84.5754 29.959 84.3765 29.7513C84.1805 29.5436 84.0298 29.2993 83.9245 29.0184C83.8191 28.7376 83.7665 28.4348 83.7665 28.11V27.9345C83.7665 27.563 83.8206 27.2265 83.9289 26.9252C84.0371 26.6238 84.1878 26.3664 84.3809 26.1528C84.574 25.9363 84.8021 25.7711 85.0655 25.657C85.3287 25.5429 85.614 25.4858 85.9211 25.4858C86.2606 25.4858 86.5575 25.5429 86.812 25.657C87.0665 25.7711 87.2771 25.932 87.4439 26.1397C87.6136 26.3445 87.7394 26.5888 87.8213 26.8725C87.9061 27.1563 87.9486 27.4693 87.9486 27.8117V28.2637H84.8337C84.8441 28.4138 84.8702 28.5556 84.9119 28.6893C84.9704 28.8648 85.0552 29.0184 85.1664 29.1501C85.2776 29.2818 85.4121 29.3856 85.5701 29.4617C85.7281 29.5348 85.908 29.5713 86.1099 29.5713C86.3644 29.5713 86.5911 29.5202 86.7901 29.4178C86.989 29.3153 87.1616 29.1706 87.3079 28.9833L87.8651 29.5231C87.7628 29.6723 87.6296 29.8156 87.4658 29.9531C87.302 30.0877 87.1016 30.1974 86.8646 30.2823C86.6306 30.3671 86.3586 30.4095 86.0484 30.4095ZM84.8987 27.2718C84.8811 27.3458 84.8667 27.4234 84.8557 27.5044H86.9041V27.4211C86.8983 27.2309 86.8602 27.0524 86.7901 26.8857C86.7227 26.7189 86.6189 26.5843 86.4785 26.482C86.3381 26.3796 86.1508 26.3284 85.9168 26.3284C85.7412 26.3284 85.5847 26.3664 85.4472 26.4425C85.3126 26.5156 85.2 26.6224 85.1093 26.7628C85.0186 26.9033 84.9484 27.0729 84.8987 27.2718Z" fill="black"/>
<path d="M97.6099 30.2473C97.8179 30.146 97.9919 30.0093 98.1319 29.8375L98.1585 30.3219H99.159V25.5737H98.097V28.9811C98.0218 29.1434 97.9092 29.2759 97.7592 29.3784C97.5865 29.4954 97.3496 29.5539 97.0482 29.5539C96.9429 29.5539 96.8434 29.5393 96.7498 29.5101C96.6562 29.4808 96.5743 29.4311 96.5041 29.3608C96.4338 29.2906 96.3782 29.1985 96.3373 29.0844C96.2964 28.9674 96.2759 28.8226 96.2759 28.65V25.5737H95.2183V28.6411C95.2183 28.9542 95.2563 29.2233 95.3324 29.4486C95.4085 29.6739 95.5152 29.8567 95.6527 29.9971C95.7932 30.1376 95.9599 30.2414 96.153 30.3087C96.3461 30.376 96.5582 30.4096 96.7893 30.4096C97.1082 30.4096 97.3817 30.3556 97.6099 30.2473Z" fill="black"/>
<path d="M102.77 26.3464V25.574H101.923V24.4111H100.866V25.574H100.093V26.3464H100.866V29.076C100.866 29.4006 100.918 29.661 101.024 29.857C101.129 30.053 101.275 30.195 101.462 30.2827C101.65 30.3676 101.865 30.41 102.107 30.41C102.257 30.41 102.388 30.3997 102.502 30.3792C102.619 30.3588 102.722 30.3354 102.81 30.309L102.805 29.5016C102.764 29.5104 102.71 29.5191 102.643 29.5279C102.576 29.5367 102.505 29.541 102.432 29.541C102.33 29.541 102.241 29.5279 102.164 29.5016C102.088 29.4753 102.028 29.4241 101.985 29.348C101.944 29.2691 101.923 29.1564 101.923 29.0101V26.3464H102.77Z" fill="black"/>
<path d="M106.306 30.2473C106.514 30.146 106.688 30.0093 106.828 29.8375L106.855 30.3219H107.855V25.5737H106.793V28.9811C106.718 29.1434 106.606 29.2759 106.456 29.3784C106.283 29.4954 106.046 29.5539 105.745 29.5539C105.639 29.5539 105.54 29.5393 105.446 29.5101C105.353 29.4808 105.271 29.4311 105.201 29.3608C105.13 29.2906 105.075 29.1985 105.034 29.0844C104.993 28.9674 104.972 28.8226 104.972 28.65V25.5737H103.915V28.6411C103.915 28.9542 103.953 29.2233 104.029 29.4486C104.105 29.6739 104.212 29.8567 104.349 29.9971C104.49 30.1376 104.656 30.2414 104.849 30.3087C105.043 30.376 105.255 30.4096 105.486 30.4096C105.805 30.4096 106.078 30.3556 106.306 30.2473Z" fill="black"/>
<path d="M110.352 27.0765V30.3218H109.294V25.5736H110.304L110.333 26.1313C110.34 26.1209 110.346 26.1105 110.352 26.1002C110.472 25.9071 110.621 25.7564 110.8 25.6482C110.981 25.5399 111.19 25.4858 111.427 25.4858C111.492 25.4858 111.56 25.4917 111.633 25.5034C111.709 25.5151 111.767 25.5283 111.804 25.5429L111.796 26.5258C111.732 26.5142 111.661 26.5054 111.585 26.4995C111.512 26.4937 111.438 26.4908 111.366 26.4908C111.184 26.4908 111.025 26.5171 110.887 26.5698C110.75 26.6195 110.634 26.6926 110.541 26.7892C110.463 26.8698 110.4 26.9655 110.352 27.0765Z" fill="black"/>
<path fill-rule="evenodd" clip-rule="evenodd" d="M114.823 30.4095C114.472 30.4095 114.154 30.3525 113.871 30.2383C113.59 30.1213 113.35 29.959 113.151 29.7513C112.955 29.5436 112.804 29.2993 112.699 29.0184C112.594 28.7376 112.541 28.4348 112.541 28.11V27.9345C112.541 27.563 112.595 27.2265 112.703 26.9252C112.812 26.6238 112.962 26.3664 113.156 26.1528C113.348 25.9363 113.577 25.7711 113.84 25.657C114.103 25.5429 114.388 25.4858 114.696 25.4858C115.035 25.4858 115.332 25.5429 115.587 25.657C115.841 25.7711 116.052 25.932 116.218 26.1397C116.388 26.3445 116.514 26.5888 116.596 26.8725C116.681 27.1563 116.723 27.4693 116.723 27.8117V28.2637H113.608C113.619 28.4138 113.645 28.5556 113.687 28.6893C113.745 28.8648 113.83 29.0184 113.941 29.1501C114.052 29.2818 114.187 29.3856 114.345 29.4617C114.503 29.5348 114.683 29.5713 114.884 29.5713C115.139 29.5713 115.366 29.5202 115.565 29.4178C115.763 29.3153 115.936 29.1706 116.082 28.9833L116.64 29.5231C116.537 29.6723 116.404 29.8156 116.241 29.9531C116.077 30.0877 115.876 30.1974 115.639 30.2823C115.405 30.3671 115.133 30.4095 114.823 30.4095ZM113.673 27.2718C113.656 27.3458 113.642 27.4234 113.63 27.5044H115.678V27.4211C115.672 27.2309 115.635 27.0524 115.565 26.8857C115.498 26.7189 115.393 26.5843 115.253 26.482C115.113 26.3796 114.925 26.3284 114.692 26.3284C114.516 26.3284 114.359 26.3664 114.222 26.4425C114.088 26.5156 113.975 26.6224 113.884 26.7628C113.793 26.9033 113.723 27.0729 113.673 27.2718Z" fill="black"/>
<path fill-rule="evenodd" clip-rule="evenodd" d="M120.285 27.8994V28.0003C120.285 28.3426 120.335 28.66 120.434 28.9526C120.534 29.2452 120.679 29.5012 120.869 29.7206C121.059 29.937 121.29 30.1068 121.562 30.2296C121.837 30.3495 122.149 30.4095 122.497 30.4095C122.842 30.4095 123.151 30.3495 123.423 30.2296C123.695 30.1068 123.926 29.937 124.117 29.7206C124.307 29.5012 124.452 29.2452 124.551 28.9526C124.65 28.66 124.7 28.3426 124.7 28.0003V27.8994C124.7 27.5571 124.65 27.2397 124.551 26.9472C124.452 26.6517 124.307 26.3957 124.117 26.1792C123.926 25.9598 123.693 25.7901 123.418 25.6702C123.147 25.5473 122.837 25.4858 122.488 25.4858C122.143 25.4858 121.833 25.5473 121.558 25.6702C121.286 25.7901 121.055 25.9598 120.864 26.1792C120.677 26.3957 120.534 26.6517 120.434 26.9472C120.335 27.2397 120.285 27.5571 120.285 27.8994ZM121.342 28.0003V27.8994C121.342 27.6888 121.365 27.4898 121.408 27.3026C121.452 27.1124 121.522 26.9443 121.615 26.7979C121.708 26.6517 121.827 26.5376 121.971 26.4557C122.117 26.3708 122.289 26.3284 122.488 26.3284C122.687 26.3284 122.858 26.3708 123.002 26.4557C123.148 26.5376 123.267 26.6517 123.362 26.7979C123.458 26.9443 123.528 27.1124 123.572 27.3026C123.619 27.4898 123.642 27.6888 123.642 27.8994V28.0003C123.642 28.2139 123.619 28.4158 123.572 28.6059C123.528 28.7961 123.459 28.9628 123.366 29.1062C123.272 29.2495 123.152 29.3622 123.006 29.4441C122.862 29.526 122.693 29.5669 122.497 29.5669C122.295 29.5669 122.121 29.526 121.975 29.4441C121.828 29.3622 121.708 29.2495 121.615 29.1062C121.522 28.9628 121.452 28.7961 121.408 28.6059C121.365 28.4158 121.342 28.2139 121.342 28.0003Z" fill="black"/>
<path d="M127.367 30.3218H126.31V26.346H125.582V25.5737H126.31V25.1173C126.31 24.7633 126.376 24.4663 126.507 24.2265C126.642 23.9837 126.833 23.8008 127.083 23.6779C127.331 23.5522 127.625 23.4893 127.964 23.4893C128.07 23.4893 128.173 23.4966 128.276 23.5112C128.378 23.5229 128.478 23.5419 128.574 23.5683L128.548 24.3844C128.489 24.3698 128.425 24.3596 128.355 24.3538C128.288 24.3479 128.214 24.3449 128.136 24.3449C127.974 24.3449 127.836 24.3757 127.718 24.4371C127.604 24.4956 127.517 24.5819 127.455 24.696C127.397 24.8101 127.367 24.9505 127.367 25.1173V25.5737H128.346V26.346H127.367V30.3218Z" fill="black"/>
<path d="M133.111 26.9083V30.3218H132.053V25.5736H133.049L133.083 26.1084C133.238 25.9138 133.427 25.7633 133.65 25.657C133.888 25.5429 134.161 25.4858 134.471 25.4858C134.688 25.4858 134.885 25.518 135.063 25.5823C135.245 25.6438 135.402 25.7418 135.533 25.8764C135.631 25.9743 135.712 26.0922 135.776 26.2302C135.803 26.19 135.832 26.1511 135.863 26.1133C136.02 25.9173 136.215 25.7638 136.446 25.6526C136.677 25.5414 136.942 25.4858 137.24 25.4858C137.483 25.4858 137.699 25.5195 137.889 25.5868C138.083 25.6511 138.247 25.7535 138.381 25.8939C138.516 26.0343 138.618 26.2173 138.688 26.4425C138.758 26.6648 138.793 26.934 138.793 27.2499V30.3218H137.732V27.2455C137.732 27.0057 137.697 26.8199 137.626 26.6883C137.559 26.5566 137.463 26.4659 137.337 26.4162C137.211 26.3635 137.06 26.3372 136.885 26.3372C136.721 26.3372 136.576 26.3679 136.45 26.4293C136.328 26.4878 136.223 26.5712 136.138 26.6794C136.055 26.7829 135.992 26.902 135.948 27.0366C135.949 27.0762 135.95 27.1165 135.95 27.1578V30.3218H134.893V27.2499C134.893 27.0188 134.858 26.8374 134.787 26.7058C134.72 26.5742 134.622 26.4805 134.493 26.4249C134.368 26.3664 134.217 26.3372 134.041 26.3372C133.842 26.3372 133.673 26.3752 133.532 26.4513C133.394 26.5273 133.282 26.6312 133.194 26.7628C133.163 26.8088 133.136 26.8573 133.111 26.9083Z" fill="black"/>
<path fill-rule="evenodd" clip-rule="evenodd" d="M140.031 28.0003V27.8994C140.031 27.5571 140.08 27.2397 140.18 26.9472C140.279 26.6517 140.422 26.3957 140.61 26.1792C140.8 25.9598 141.031 25.7901 141.303 25.6702C141.578 25.5473 141.888 25.4858 142.233 25.4858C142.582 25.4858 142.892 25.5473 143.163 25.6702C143.438 25.7901 143.672 25.9598 143.862 26.1792C144.052 26.3957 144.197 26.6517 144.296 26.9472C144.395 27.2397 144.445 27.5571 144.445 27.8994V28.0003C144.445 28.3426 144.395 28.66 144.296 28.9526C144.197 29.2452 144.052 29.5012 143.862 29.7206C143.672 29.937 143.44 30.1068 143.168 30.2296C142.896 30.3495 142.587 30.4095 142.242 30.4095C141.894 30.4095 141.582 30.3495 141.307 30.2296C141.035 30.1068 140.804 29.937 140.614 29.7206C140.424 29.5012 140.279 29.2452 140.18 28.9526C140.08 28.66 140.031 28.3426 140.031 28.0003ZM141.088 27.8994V28.0003C141.088 28.2139 141.11 28.4158 141.154 28.6059C141.197 28.7961 141.267 28.9628 141.36 29.1062C141.453 29.2495 141.573 29.3622 141.72 29.4441C141.866 29.526 142.04 29.5669 142.242 29.5669C142.438 29.5669 142.607 29.526 142.751 29.4441C142.897 29.3622 143.017 29.2495 143.111 29.1062C143.205 28.9628 143.273 28.7961 143.317 28.6059C143.364 28.4158 143.387 28.2139 143.387 28.0003V27.8994C143.387 27.6888 143.364 27.4898 143.317 27.3026C143.273 27.1124 143.203 26.9443 143.107 26.7979C143.013 26.6517 142.893 26.5376 142.747 26.4557C142.603 26.3708 142.432 26.3284 142.233 26.3284C142.034 26.3284 141.862 26.3708 141.716 26.4557C141.572 26.5376 141.453 26.6517 141.36 26.7979C141.267 26.9443 141.197 27.1124 141.154 27.3026C141.11 27.4898 141.088 27.6888 141.088 27.8994Z" fill="black"/>
<path d="M146.731 26.9473V30.3218H145.673V25.5736H146.669L146.704 26.1458C146.712 26.1364 146.719 26.127 146.727 26.1178C146.893 25.9159 147.093 25.7608 147.323 25.6526C147.554 25.5414 147.812 25.4858 148.096 25.4858C148.324 25.4858 148.53 25.518 148.714 25.5823C148.902 25.6438 149.061 25.7448 149.193 25.8852C149.328 26.0256 149.43 26.2084 149.5 26.4337C149.57 26.6561 149.605 26.9296 149.605 27.2543V30.3218H148.543V27.2499C148.543 27.0218 148.509 26.8418 148.443 26.7102C148.378 26.5756 148.283 26.4805 148.157 26.4249C148.034 26.3664 147.881 26.3372 147.696 26.3372C147.515 26.3372 147.353 26.3752 147.209 26.4513C147.066 26.5273 146.944 26.6312 146.845 26.7628C146.803 26.8204 146.765 26.8819 146.731 26.9473Z" fill="black"/>
<path fill-rule="evenodd" clip-rule="evenodd" d="M153.128 30.4095C152.778 30.4095 152.46 30.3525 152.176 30.2383C151.895 30.1213 151.655 29.959 151.457 29.7513C151.261 29.5436 151.11 29.2993 151.004 29.0184C150.899 28.7376 150.847 28.4348 150.847 28.11V27.9345C150.847 27.563 150.901 27.2265 151.009 26.9252C151.118 26.6238 151.268 26.3664 151.461 26.1528C151.654 25.9363 151.883 25.7711 152.146 25.657C152.408 25.5429 152.694 25.4858 153.001 25.4858C153.341 25.4858 153.638 25.5429 153.892 25.657C154.147 25.7711 154.358 25.932 154.524 26.1397C154.693 26.3445 154.819 26.5888 154.902 26.8725C154.986 27.1563 155.028 27.4693 155.028 27.8117V28.2637H151.913C151.924 28.4138 151.95 28.5556 151.992 28.6893C152.05 28.8648 152.135 29.0184 152.247 29.1501C152.358 29.2818 152.493 29.3856 152.65 29.4617C152.808 29.5348 152.988 29.5713 153.19 29.5713C153.444 29.5713 153.671 29.5202 153.87 29.4178C154.069 29.3153 154.242 29.1706 154.388 28.9833L154.945 29.5231C154.843 29.6723 154.71 29.8156 154.546 29.9531C154.382 30.0877 154.182 30.1974 153.945 30.2823C153.711 30.3671 153.438 30.4095 153.128 30.4095ZM151.978 27.2718C151.961 27.3458 151.947 27.4234 151.936 27.5044H153.984V27.4211C153.978 27.2309 153.94 27.0524 153.87 26.8857C153.803 26.7189 153.699 26.5843 153.558 26.482C153.418 26.3796 153.231 26.3284 152.997 26.3284C152.821 26.3284 152.665 26.3664 152.528 26.4425C152.393 26.5156 152.28 26.6224 152.189 26.7628C152.098 26.9033 152.028 27.0729 151.978 27.2718Z" fill="black"/>
<path d="M157.333 30.3101L155.651 25.5737H156.792L157.822 28.8177L158.811 25.5737H159.943L158.038 31.046C157.994 31.163 157.938 31.2902 157.868 31.4277C157.797 31.5652 157.705 31.6954 157.591 31.8183C157.479 31.9441 157.341 32.0451 157.174 32.1211C157.008 32.2001 156.805 32.2396 156.568 32.2396C156.475 32.2396 156.384 32.2308 156.296 32.2132C156.212 32.1986 156.131 32.1826 156.055 32.165L156.051 31.3576C156.08 31.3605 156.115 31.3634 156.156 31.3663C156.2 31.3692 156.235 31.3707 156.261 31.3707C156.437 31.3707 156.583 31.3487 156.7 31.3049C156.817 31.2639 156.912 31.1966 156.985 31.103C157.061 31.0094 157.126 30.8836 157.178 30.7256L157.333 30.3101Z" fill="black"/>
</g>
</g>
<defs>
<clipPath id="clip0_7147_101030">
<rect width="160" height="40" fill="white" transform="translate(28 0.496094)"/>
</clipPath>
</defs>
</svg>
