<svg width="216" height="33" viewBox="0 0 216 33" fill="none" xmlns="http://www.w3.org/2000/svg">
<path d="M42.3721 19.6279C41.814 19.969 41.1628 20.031 40.6667 19.7519C40.0465 19.3798 39.6744 18.5426 39.6744 17.3953V13.8914C39.6744 12.217 39.0233 11.0077 37.907 10.6976C36.0155 10.1395 34.5892 12.4651 34.062 13.3333L30.7132 18.6976V12.093C30.6822 10.5736 30.1861 9.67439 29.2558 9.39532C28.6357 9.20928 27.7054 9.3023 26.8062 10.6666L19.3333 22.6356C18.3411 20.7442 17.814 18.6356 17.814 16.4961C17.814 9.27129 23.6124 3.41082 30.7132 3.41082C37.814 3.41082 43.6124 9.27129 43.6124 16.4961V16.5271V16.5581C43.6744 17.9535 43.2403 19.0697 42.3721 19.6279ZM46.4651 16.4961V16.4651V16.4341C46.4341 7.65888 39.3644 0.496094 30.7132 0.496094C22.031 0.496094 14.9613 7.65889 14.9613 16.4961C14.9613 25.3023 22.031 32.4961 30.7132 32.4961C34.7132 32.4961 38.4961 30.9767 41.4109 28.217C42 27.6589 42.031 26.7597 41.4729 26.1705C40.9457 25.5814 40.0465 25.5504 39.4574 26.0775C39.4574 26.0775 39.4574 26.0775 39.4264 26.1085C37.0698 28.3411 33.907 29.6124 30.6512 29.6124C26.8372 29.6124 23.4264 27.938 21.0698 25.2713L27.7985 14.4806V19.4728C27.7985 21.8604 28.7287 22.6356 29.5039 22.8527C30.2791 23.0697 31.4574 22.9147 32.7287 20.8992L36.4186 14.9147C36.5426 14.7287 36.6357 14.5426 36.7597 14.4186V17.4573C36.7597 19.6899 37.6589 21.4883 39.2093 22.3566C40.6047 23.1628 42.3721 23.0697 43.8295 22.1705C45.6279 20.9922 46.5892 18.9457 46.4651 16.4961ZM68.4186 11.0387C68.7907 11.2558 69.1318 11.7829 69.1318 12.248C69.1318 12.9922 68.5116 13.6124 67.7985 13.6124C67.6124 13.6124 67.4574 13.5504 67.3023 13.5193C66.4651 12.8992 65.4109 12.4961 64.2946 12.4961C61.6589 12.4961 59.8605 14.6356 59.8605 17.3023C59.8605 19.969 61.6899 22.0775 64.2946 22.0775C65.5969 22.0775 66.7752 21.5504 67.6434 20.7132C67.8605 20.5581 68.1395 20.4651 68.4186 20.4651C69.1318 20.4651 69.6899 21.0232 69.6899 21.7364C69.6899 22.2015 69.4109 22.6046 69.0698 22.8217C67.7985 23.9069 66.093 24.6201 64.3256 24.6201C60.2946 24.6201 57.0078 21.3023 57.0078 17.2093C57.0078 13.1162 60.2946 9.79842 64.3256 9.79842C65.814 9.76741 67.2403 10.2325 68.4186 11.0387ZM75.7985 14.1395C78.5581 14.1395 80.8527 16.4651 80.8527 19.3488C80.8527 22.2015 78.5271 24.6511 75.7985 24.6511C72.9147 24.6511 70.5271 22.2325 70.5271 19.3488C70.5271 16.4651 72.9147 14.1395 75.7985 14.1395ZM75.7674 22.0775C76.9768 22.0775 78 20.9302 78 19.3798C78 17.8294 76.9768 16.8372 75.7674 16.8372C74.4651 16.8372 73.3799 17.7984 73.3799 19.3798C73.3799 20.8992 74.4651 22.0775 75.7674 22.0775ZM82.5892 23.0387V15.7209C82.5892 14.9147 83.2093 14.2635 84.0155 14.2635C84.7907 14.2635 85.4419 14.9147 85.4419 15.7209V23.0387C85.4419 23.8449 84.7907 24.4961 84.0155 24.4961C83.2403 24.4961 82.5892 23.8139 82.5892 23.0387ZM82.3721 11.5038C82.3721 10.5426 83.1163 9.79842 84.0155 9.79842C84.9457 9.79842 85.6899 10.5736 85.6899 11.5038C85.6899 12.4341 84.9457 13.1783 84.0155 13.1783C83.0853 13.1473 82.3721 12.4031 82.3721 11.5038ZM90.8992 19.0697V23.0387C90.8992 23.8449 90.2481 24.4961 89.4729 24.4961C88.6977 24.4961 88.0465 23.8449 88.0465 23.0387V15.3798C88.0465 14.7597 88.5426 14.2635 89.1628 14.2635C89.783 14.2635 90.2481 14.7907 90.2481 15.3798C91.3954 14.2945 92.4186 14.1395 93.3799 14.1395C96.2326 14.1395 97.5039 16.279 97.5039 18.7287V23.0387C97.5039 23.8449 96.8527 24.4961 96.0775 24.4961C95.3023 24.4961 94.6512 23.8449 94.6512 23.0387V19.0697C94.6512 17.8294 94.4961 16.7752 92.6977 16.7752C91.4264 16.7752 90.8992 17.8294 90.8992 19.0697ZM106.744 20.5891C106.403 20.5891 106.186 20.4341 106 20.217L102.682 16.6201V23.0387C102.682 23.8449 102.031 24.4961 101.256 24.4961C100.481 24.4961 99.8295 23.8449 99.8295 23.0387V10.3256C99.9225 10.1085 100.14 9.95346 100.357 9.95346C100.605 9.95346 100.822 10.1705 100.977 10.3256L106.279 16.279C106.434 16.4651 106.62 16.5581 106.744 16.5581C106.837 16.5581 107.054 16.4651 107.209 16.279L112.512 10.3256C112.667 10.1705 112.853 9.95346 113.132 9.95346C113.38 9.95346 113.597 10.1085 113.659 10.3256V23.0387C113.659 23.8449 113.039 24.4961 112.233 24.4961C111.457 24.4961 110.806 23.8449 110.806 23.0387V16.6201L107.488 20.217C107.24 20.4341 107.023 20.5891 106.744 20.5891ZM120.45 22.0775C121.721 22.0775 122.806 20.9302 122.806 19.3798C122.806 17.8294 121.69 16.8062 120.45 16.8062C119.209 16.8062 118.186 17.8604 118.186 19.3798C118.186 20.8682 119.178 22.0775 120.45 22.0775ZM123.488 23.3798L123.426 23.0387C122.868 24.124 121.101 24.6201 119.984 24.6201C117.318 24.6201 115.333 22.2015 115.333 19.3178C115.333 16.4651 117.349 14.1085 120.14 14.1085C120.605 14.1085 122.217 14.2325 123.457 15.6899L123.519 15.3488C123.519 14.7286 123.984 14.2325 124.605 14.2325C125.225 14.2325 125.721 14.7597 125.721 15.3488V23.3488C125.721 23.969 125.225 24.4651 124.605 24.4651C123.953 24.4961 123.488 23.969 123.488 23.3798ZM133.566 16.7752H133.256C131.457 16.8682 131.116 17.8914 131.116 19.0697V23.0387C131.116 23.8449 130.465 24.4961 129.69 24.4961C128.915 24.4961 128.264 23.8449 128.264 23.0387V15.3798C128.264 14.7597 128.76 14.2635 129.38 14.2635C130 14.2635 130.465 14.7907 130.465 15.3798C131.519 14.3876 132.388 14.1705 133.256 14.1395H133.535C134.217 14.1395 134.837 14.7287 134.837 15.4728C134.868 16.155 134.248 16.7752 133.566 16.7752ZM144.574 22.3566C144.698 22.5736 144.791 22.7907 144.791 23.0387C144.791 23.7829 144.109 24.4651 143.364 24.4651C142.868 24.4651 142.434 24.093 142.093 23.6589L138.806 19.8449V23.0077C138.806 23.8139 138.155 24.4651 137.38 24.4651C136.605 24.4651 135.953 23.8139 135.953 23.0077V11.3798C135.953 10.5736 136.574 9.92245 137.38 9.92245C138.186 9.92245 138.806 10.5736 138.806 11.3798V18.6356L142.093 15.0077C142.434 14.6356 142.837 14.2325 143.333 14.2325C144.047 14.2325 144.698 14.8837 144.698 15.6279C144.698 15.8449 144.636 16.093 144.512 16.279L141.907 19.1318L144.574 22.3566ZM150.155 16.8062C149.38 16.8062 148.109 17.2093 148.109 18.4186H152.233C152.202 17.2093 150.899 16.8062 150.155 16.8062ZM153.876 20.248H148.109C148.109 21.9535 149.752 22.2325 150.465 22.2325C150.992 22.2325 151.736 22.1395 152.326 21.8604C152.512 21.7364 152.791 21.6434 153.07 21.6434C153.69 21.6434 154.217 22.1705 154.217 22.8217C154.217 23.2558 153.938 23.6279 153.597 23.8449C152.729 24.4961 151.581 24.6511 150.496 24.6511C147.612 24.6511 145.225 23.1007 145.225 19.4728C145.225 16.6201 146.682 14.1395 150.093 14.1395C152.853 14.1395 154.93 15.938 154.992 19.1318C154.992 19.7209 154.496 20.248 153.876 20.248ZM161.814 24.6201H161.039C158.868 24.6201 157.597 23.6589 157.597 20.279V16.7752H156.853C156.171 16.7752 155.581 16.155 155.581 15.4728C155.581 14.7287 156.202 14.1395 156.853 14.1395H157.597V11.4418C157.597 10.6356 158.217 9.98447 159.023 9.98447C159.798 9.98447 160.45 10.6356 160.45 11.4418V14.1395H161.628C162.31 14.1395 162.899 14.7287 162.899 15.4728C162.899 16.155 162.279 16.7752 161.628 16.7752H160.45V19.7209C160.45 21.6744 160.543 22.0775 161.411 22.0775H161.814C162.496 22.0775 163.085 22.6356 163.085 23.3488C163.085 24.031 162.496 24.6201 161.814 24.6201ZM175.612 11.0387C175.984 11.2558 176.326 11.7829 176.326 12.248C176.326 12.9922 175.705 13.6124 174.992 13.6124C174.806 13.6124 174.651 13.5504 174.496 13.5193C173.659 12.8992 172.605 12.4961 171.488 12.4961C168.853 12.4961 167.054 14.6356 167.054 17.3023C167.054 19.969 168.884 22.0775 171.488 22.0775C172.791 22.0775 173.969 21.5504 174.837 20.7132C175.054 20.5581 175.333 20.4651 175.612 20.4651C176.326 20.4651 176.884 21.0232 176.884 21.7364C176.884 22.2015 176.605 22.6046 176.264 22.8217C174.992 23.9069 173.287 24.6201 171.519 24.6201C167.488 24.6201 164.202 21.3023 164.202 17.2093C164.202 13.1162 167.488 9.79842 171.519 9.79842C173.008 9.76741 174.465 10.2325 175.612 11.0387ZM182.837 22.0775C184.109 22.0775 185.194 20.9302 185.194 19.3798C185.194 17.8294 184.077 16.8062 182.837 16.8062C181.566 16.8062 180.574 17.8604 180.574 19.3798C180.574 20.8682 181.597 22.0775 182.837 22.0775ZM185.876 23.3798L185.814 23.0387C185.256 24.124 183.488 24.6201 182.372 24.6201C179.705 24.6201 177.721 22.2015 177.721 19.3178C177.721 16.4651 179.736 14.1085 182.527 14.1085C182.992 14.1085 184.605 14.2325 185.845 15.6899L185.907 15.3488C185.907 14.7286 186.372 14.2325 186.992 14.2325C187.612 14.2325 188.109 14.7597 188.109 15.3488V23.3488C188.109 23.969 187.612 24.4651 186.992 24.4651C186.341 24.4961 185.876 23.969 185.876 23.3798ZM195.891 22.0775C197.163 22.0775 198.155 20.8682 198.155 19.3798C198.155 17.8294 197.132 16.8062 195.891 16.8062C194.62 16.8062 193.535 17.8294 193.535 19.3798C193.535 20.9302 194.62 22.0775 195.891 22.0775ZM193.535 23.7829V27.4108C193.535 28.217 192.884 28.8682 192.109 28.8682C191.333 28.8682 190.682 28.217 190.682 27.4108V15.3798C190.682 14.7597 191.178 14.2635 191.798 14.2635C192.419 14.2635 192.884 14.7907 192.884 15.5038C193.938 14.4186 195.24 14.1395 196.233 14.1395C198.992 14.1395 201.039 16.4651 201.039 19.3488C201.039 22.2015 199.085 24.6511 196.388 24.6511C195.55 24.6201 194.31 24.3721 193.535 23.7829Z" fill="black"/>
</svg>
