<svg width="216" height="27" viewBox="0 0 216 27" fill="none" xmlns="http://www.w3.org/2000/svg">
<path d="M114.404 9.25899C114.404 6.46639 114.452 3.86639 114.596 1.45898L107.23 2.85528V3.52935L107.952 3.62565C108.481 3.6738 108.819 3.86639 109.011 4.15528C109.204 4.49232 109.348 4.9738 109.444 5.69602C109.541 7.09232 109.637 10.2701 109.589 15.2775C109.589 20.2368 109.541 23.3664 109.444 24.5701C112.093 25.1479 114.163 25.3886 115.704 25.3886C118.593 25.3886 120.856 24.5701 122.493 22.8849C124.13 21.2479 124.996 18.9368 124.996 16.096C124.996 13.8331 124.37 11.9553 123.119 10.4627C121.867 8.9701 120.278 8.24787 118.4 8.24787C117.148 8.24787 115.848 8.58491 114.404 9.25899ZM114.548 24.0886C114.452 22.5479 114.356 17.9257 114.356 10.3664C114.789 10.2219 115.367 10.1257 116.089 10.1257C117.244 10.1257 118.159 10.7034 118.833 11.9071C119.507 13.1108 119.844 14.5553 119.844 16.3849C119.844 18.6479 119.459 20.4775 118.689 22.0182C117.919 23.5108 116.956 24.2812 115.752 24.2812C115.367 24.1849 114.981 24.1368 114.548 24.0886ZM79.5926 1.94047H60.3333V2.90343L61.3445 2.99973C62.1148 3.14417 62.6445 3.43306 62.9815 3.86639C63.3185 4.34787 63.5111 5.11824 63.5593 6.1775C63.9445 11.3775 63.9445 16.2405 63.5593 20.7182C63.463 21.7775 63.2704 22.5479 62.9815 23.0294C62.6445 23.5108 62.1148 23.7997 61.3445 23.896L60.3333 24.0405V25.0034H72.7556V24.0405L71.4556 23.9442C71.1383 23.9176 70.8298 23.8272 70.5484 23.6782C70.2671 23.5293 70.0188 23.3249 69.8185 23.0775C69.4815 22.596 69.2889 21.8257 69.2408 20.7664C69.0963 18.8405 69 16.6257 69 14.1701L71.6 14.2182C72.9963 14.2664 73.9593 15.3257 74.4408 17.4442H75.4037V9.59602H74.4408C73.9593 11.6664 73.0445 12.7257 71.6 12.7738L69 12.8219C69 8.48861 69.0963 5.40713 69.2408 3.52935H73.0445C75.7408 3.52935 77.5704 5.26269 78.6296 8.72935L79.7852 8.39232L79.5926 1.94047ZM77.3296 16.7701C77.3296 19.2738 78.0519 21.3442 79.4482 22.9812C80.8445 24.6182 82.9148 25.3886 85.5148 25.3886C88.1148 25.3886 90.2333 24.5701 91.7741 22.8849C93.3148 21.2479 94.0371 19.1775 94.0371 16.6738C94.0371 14.1701 93.3148 12.0997 91.9185 10.4627C90.5222 8.82565 88.4519 8.05528 85.8519 8.05528C83.2519 8.05528 81.1333 8.8738 79.5926 10.559C78.0519 12.196 77.3296 14.2664 77.3296 16.7701ZM88.0667 11.2812C88.6445 12.6775 88.8852 14.5071 88.8852 16.7219C88.8852 21.8257 87.8259 24.3294 85.7556 24.3294C84.6963 24.3294 83.8778 23.6071 83.3 22.1627C82.7222 20.7182 82.4815 18.8886 82.4815 16.7219C82.4815 11.6664 83.5408 9.16269 85.6111 9.16269C86.6704 9.11454 87.4889 9.83676 88.0667 11.2812ZM128.752 22.9812C130.341 24.5701 132.363 25.3886 134.77 25.3886C136.263 25.3886 137.563 25.0997 138.719 24.4738C139.874 23.896 140.789 23.1738 141.415 22.3071L140.933 21.7294C139.874 22.5479 138.67 22.9331 137.274 22.9331C135.348 22.9331 133.856 22.3071 132.844 21.0071C131.785 19.7071 131.304 18.0701 131.4 15.9516H141.704C141.704 13.6405 141.126 11.7627 139.922 10.2701C138.719 8.82565 137.033 8.10343 134.867 8.10343C132.17 8.10343 130.1 8.9701 128.607 10.6553C127.115 12.3405 126.393 14.4108 126.393 16.8664C126.393 19.3701 127.163 21.3923 128.752 22.9812ZM132.315 10.896C132.844 9.74047 133.519 9.16269 134.433 9.16269C135.878 9.16269 136.6 10.9923 136.6 14.6997L131.496 14.796C131.544 13.3516 131.785 12.0516 132.315 10.896ZM154.656 8.9701C153.356 8.39232 151.719 8.05528 149.744 8.05528C147.722 8.05528 146.133 8.58491 144.93 9.59602C143.726 10.6071 143.1 11.859 143.1 13.3516C143.1 14.6516 143.485 15.6627 144.207 16.3849C144.93 17.1071 146.085 17.7331 147.578 18.2627C148.926 18.7442 149.889 19.2257 150.37 19.659C150.852 20.1405 151.141 20.6701 151.141 21.3923C151.141 22.0664 150.9 22.6923 150.37 23.1738C149.889 23.7034 149.215 23.9442 148.348 23.9442C146.23 23.9442 144.641 22.4034 143.533 19.3219L142.715 19.5627L142.907 24.3775C144.641 25.0516 146.567 25.3886 148.685 25.3886C150.9 25.3886 152.585 24.9071 153.837 23.896C155.089 22.9331 155.715 21.5368 155.715 19.8034C155.715 18.6479 155.426 17.6849 154.8 16.9627C154.174 16.2405 153.163 15.6145 151.719 15.0368C150.13 14.459 149.022 13.9294 148.444 13.4479C147.867 12.9664 147.578 12.3886 147.578 11.6664C147.578 10.9442 147.77 10.3664 148.204 9.88491C148.637 9.40343 149.167 9.21084 149.841 9.21084C151.767 9.21084 153.163 10.6071 154.03 13.3516L154.848 13.1108L154.656 8.9701ZM108.337 8.53676C107.663 8.19973 106.941 8.05528 106.122 8.05528C105.304 8.05528 104.485 8.39232 103.57 9.06639C102.656 9.74047 101.981 10.6553 101.452 11.9071L101.5 8.05528L94.1815 9.49973V10.1738L94.9037 10.2219C95.8185 10.3182 96.3482 11.0405 96.4445 12.3405C96.7333 15.3257 96.7333 18.5034 96.4445 21.8738C96.3482 23.1738 95.8185 23.8479 94.9037 23.9923L94.1815 24.0886V25.0034H104.389V24.0886L103.089 23.9923C102.174 23.896 101.644 23.1738 101.548 21.8738C101.259 19.0812 101.211 16.096 101.452 13.0145C101.741 12.5331 102.367 12.2442 103.33 12.1479C104.293 12.0516 105.4 12.3405 106.556 13.0145L108.337 8.53676Z" fill="black"/>
</svg>
