<svg xmlns="http://www.w3.org/2000/svg" width="209" height="25" viewBox="0 0 209 25" fill="none">
  <g clip-path="url(#clip0_19444_38378)">
    <path d="M169.176 5.71191H183.244V19.7937H169.176V5.71191ZM171.991 16.9501H180.425V8.5314H171.991V16.9501Z" fill="#7D8A9E"/>
    <path d="M152.344 5.71191H166.404V19.7937H152.344V5.71191ZM155.164 16.9501H163.53V8.5314H155.164V16.9501Z" fill="#7D8A9E"/>
    <path d="M51.167 5.71191H65.225V19.7937H62.3995V17.041V14.1454H53.9815V19.7937H51.167V5.71191ZM53.9815 11.3221H62.3995V8.5314H53.9815V11.3221Z" fill="#7D8A9E"/>
    <path d="M118.613 5.71191H132.665V14.1454H129.879C129.876 14.9936 129.905 16.1445 129.868 16.9705C128.913 16.995 127.958 17.0018 127.003 16.9908V14.1454H121.433V19.7937H118.613V8.59375V5.71191ZM121.433 11.3221H129.857V8.5314H121.433V11.3221Z" fill="#7D8A9E"/>
    <path d="M101.728 5.71191H115.792V8.5314H104.542V11.3221H110.187V14.1454H104.542V16.9501H115.792V19.7937H101.728V5.71191Z" fill="#7D8A9E"/>
    <path d="M34.2734 5.71191H37.1303V11.3221H45.5101V5.71191H48.3811V19.7937H45.5101V14.1454H37.1303V19.7937H34.2734V5.71191Z" fill="#7D8A9E"/>
    <path d="M186.025 5.71191H200.118V19.7937H197.263V11.377V8.5314H188.873V19.7937H186.025V5.71191Z" fill="#7D8A9E"/>
    <path d="M67.9914 5.71194L82.0534 5.71191V8.5314H70.8191V16.9501H73.6819H82.0534V19.7937H67.9883L67.9914 5.71194Z" fill="#7D8A9E"/>
    <path d="M135.45 5.71191H149.512V19.7937H146.687V11.2793V8.5314H138.277V19.7937H135.45V5.71191Z" fill="#7D8A9E"/>
    <path d="M84.876 5.71191H87.6949V11.3221L93.2805 11.3252C93.3252 12.124 93.2911 13.2895 93.2939 14.1174H96.1403V16.9501H98.9332V19.7937H96.1161V16.9908H93.2671V14.1454H87.6949V16.9922V19.7937H84.876V5.71191Z" fill="#7D8A9E"/>
    <path d="M96.1167 5.71191H98.9338V8.5314H96.1409V11.3283L93.2811 11.3252C93.2713 10.3847 93.2668 9.44416 93.2677 8.5036H96.1167V5.71191Z" fill="#7D8A9E"/>
    <path d="M129.868 16.9705C130.8 16.9472 131.732 16.9403 132.665 16.9501V19.7938H129.857C129.86 18.922 129.835 17.8255 129.868 16.9705Z" fill="#7D8A9E"/>
    <path d="M7.42206 0H21.427L21.4258 5.52331L23.443 5.52162L23.4404 9.571L25.417 9.5707V11.5302H27.4404V13.5738H25.417V15.5398L23.4404 15.5337L23.443 19.5994H21.427V25H7.42206V19.5994H5.40602V15.5398H3.43066V9.5707H5.40602V5.52162L7.42235 5.52331L7.42206 0Z" fill="#FEFEFE"/>
    <path d="M5.40602 5.52161L7.42235 5.5233L7.42264 9.57127H5.41913V15.5275H7.42264V19.581H11.4262V21.5369H17.4309V19.581H21.4245V15.5275L23.4404 15.5337L23.443 19.5994H21.427V25H7.42206V19.5994H5.40602V15.5398H3.43066V9.57069H5.40602V5.52161Z" fill="#7D8A9E"/>
    <path d="M7.42188 0H21.4269L21.4256 5.52331L17.4307 5.52501V3.56348H15.4297V13.5742H13.4287V3.56348H11.426V5.52501L7.42217 5.52331L7.42188 0Z" fill="#7D8A9E"/>
    <path d="M23.4404 9.571L25.417 9.57071V11.5302H27.4404V13.5738H25.417V15.5399L23.4404 15.5337V9.571Z" fill="#7D8A9E"/>
    <path d="M21.4251 5.5233L23.4423 5.52161L23.4397 9.57098L21.4238 9.57127L21.4251 5.5233Z" fill="#7D8A9E"/>
  </g>
  <defs>
    <clipPath id="clip0_19444_38378">
      <rect width="208.105" height="25" fill="white"/>
    </clipPath>
  </defs>
</svg>