<svg width="216" height="35" viewBox="0 0 216 35" fill="none" xmlns="http://www.w3.org/2000/svg">
<g clip-path="url(#clip0_3814_7592)">
<path fill-rule="evenodd" clip-rule="evenodd" d="M64.3352 7.03653L63.4322 16.1062H59.3188L61.3454 1.11719H66.4621L68.8499 9.4444H68.8901L71.2177 1.11719H76.1739L78.2206 16.1062H74.067L73.2242 7.03653H73.144L70.5756 16.1062H66.9036L64.4154 7.03653H64.3352Z" fill="black"/>
<path fill-rule="evenodd" clip-rule="evenodd" d="M93.8745 16.1045H89.3196L88.3364 13.1548H83.3802L82.4371 16.1045H77.9017L83.2993 1.11548H88.3759L93.8745 16.1045ZM84.5038 9.64335H87.1726L85.8276 5.54997L84.5038 9.64335ZM94.2769 16.1045V1.11548H99.6143C103.367 1.11548 105.975 2.78093 105.975 6.33253C105.975 7.73712 105.353 9.78381 102.865 10.8272L106.758 16.1045H101.601L98.7515 11.4693H98.6512V16.1045H94.2769ZM98.6512 8.19863H99.5943C100.698 8.19863 101.561 7.67693 101.561 6.63352C101.561 5.57004 100.698 5.0684 99.5742 5.0684H98.6512V8.19863ZM121.472 1.11548L116.295 8.43942L121.632 16.1045H116.516L111.8 9.22197V16.1045H107.426V1.11548H111.8V7.87758L116.455 1.11548H121.472ZM121.869 16.1045V1.11548H132.223V5.0082H126.243V6.81411H131.621V10.3456H126.243V12.2117H132.223V16.1045H121.869ZM136.876 16.1045V5.0684H132.742V1.11548H145.363V5.0684H141.25V16.1045H136.876ZM151.329 0.794434C152.955 0.794434 154.42 1.21581 155.503 1.83784V5.69043C154.56 5.02827 152.955 4.56676 151.65 4.56676C150.467 4.56676 149.865 4.94801 149.865 5.44965C149.865 5.97135 150.527 6.21214 151.711 6.63352C153.717 7.33581 156.446 8.27889 156.446 11.4693C156.446 14.3186 154.299 16.4255 150.527 16.4255C148.58 16.4255 146.795 15.8637 145.691 15.1213V11.068C146.775 11.9509 148.42 12.6532 150.005 12.6532C151.35 12.6532 151.972 12.1515 151.972 11.5897C151.972 10.8674 150.948 10.5463 149.724 10.1049C148.119 9.52296 145.571 8.47955 145.571 5.57004C145.571 2.94145 147.637 0.794434 151.329 0.794434ZM69.3894 33.9405V18.9515H73.7637V33.9405H69.3894ZM89.3073 18.9515V33.9405H85.1337L79.736 25.8942H79.716V33.9405H75.5624V18.9515H79.736L85.1337 26.8574H85.1537V18.9515H89.3073ZM96.4596 18.6305C98.0849 18.6305 99.5497 19.0519 100.633 19.6739V23.5265C99.6896 22.8643 98.0843 22.4028 96.7801 22.4028C95.5962 22.4028 94.9942 22.7841 94.9942 23.2857C94.9942 23.8074 95.6564 24.0482 96.8403 24.4696C98.8468 25.1719 101.576 26.115 101.576 29.3054C101.576 32.1547 99.4287 34.2616 95.6564 34.2616C93.71 34.2616 91.9242 33.6997 90.8206 32.9573V28.9041C91.9041 29.787 93.5495 30.4892 95.1347 30.4892C96.4791 30.4892 97.1011 29.9876 97.1011 29.4258C97.1011 28.7034 96.0778 28.3824 94.8538 27.9409C93.2485 27.359 90.7002 26.3156 90.7002 23.4061C90.7002 20.7775 92.7675 18.6305 96.4596 18.6305ZM102.704 33.9405V18.9515H107.078V33.9405H102.704ZM113.933 18.9515C118.829 18.9515 122.24 21.9413 122.24 26.4561C122.24 30.9708 118.829 33.9405 113.933 33.9405H108.877V18.9515H113.933ZM113.251 29.9876H114.094C116.361 29.9876 117.826 28.7034 117.826 26.4561C117.826 24.1887 116.361 22.9045 114.094 22.9045H113.251V29.9876ZM123.32 33.9405V18.9515H133.673V22.8443H127.694V24.6502H133.071V28.1817H127.694V30.0478H133.673V33.9405H123.32ZM135.136 33.9405V18.9515H140.473C144.226 18.9515 146.834 20.617 146.834 24.1686C146.834 25.5732 146.212 27.6199 143.724 28.6633L147.617 33.9405H142.46L139.611 29.3054H139.51V33.9405H135.136ZM139.51 26.0347H140.453C141.557 26.0347 142.42 25.513 142.42 24.4696C142.42 23.4061 141.557 22.9045 140.433 22.9045H139.51V26.0347Z" fill="black"/>
</g>
<defs>
<clipPath id="clip0_3814_7592">
<rect width="97.541" height="34" fill="white" transform="translate(59.2295 0.496094)"/>
</clipPath>
</defs>
</svg>
