<svg width="216" height="29" viewBox="0 0 216 29" fill="none" xmlns="http://www.w3.org/2000/svg">
<g clip-path="url(#clip0_3814_6670)">
<path d="M78.8749 24.1751H82.159V8.86948H82.4446L88.3988 24.1751H91.3545L97.3087 8.86948H97.5943V24.1751H100.864V3.55762H96.2379L90.0123 19.5648H89.7267L83.5154 3.55762H78.8749V24.1751Z" fill="black"/>
<path d="M102.502 16.7731C102.502 21.8701 105.357 24.5189 109.812 24.5189C114.31 24.5189 116.038 21.8415 116.409 19.9087V19.4791H113.439C113.225 20.6675 112.211 22.0706 109.77 22.0706C107.242 22.0706 105.8 20.2952 105.743 17.6035H116.709V16.186C116.709 11.7332 114.21 9.0415 109.784 9.0415C105.343 9.0415 102.502 11.676 102.502 16.7731ZM105.786 15.2696C105.972 13.0791 107.271 11.4612 109.755 11.4612C112.283 11.4612 113.482 13.0361 113.511 15.2696H105.786Z" fill="black"/>
<path d="M117.944 13.4367C117.944 16.0425 119.886 17.3168 122.656 17.775L125.226 18.1902C126.797 18.4622 127.853 18.8775 127.853 20.1088C127.853 21.3687 126.754 22.1849 124.641 22.1849C122.527 22.1849 120.943 21.3401 120.785 19.6076H117.644V20.0372C118.001 22.686 120.429 24.5186 124.641 24.5186C128.839 24.5186 131.052 22.7003 131.052 19.8797C131.052 17.1164 128.996 16.0855 126.04 15.5987L123.456 15.1835C122.156 14.9544 121.128 14.5248 121.128 13.3079C121.128 12.1195 122.285 11.4036 124.155 11.4036C126.069 11.4036 127.339 12.1051 127.454 13.7374H130.538V13.3079C130.224 10.8023 127.925 9.06982 124.07 9.06982C120.243 9.06982 117.944 10.745 117.944 13.4367Z" fill="black"/>
<path d="M132.112 13.4367C132.112 16.0425 134.054 17.3168 136.824 17.775L139.395 18.1902C140.965 18.4622 142.022 18.8775 142.022 20.1088C142.022 21.3687 140.922 22.1849 138.809 22.1849C136.696 22.1849 135.111 21.3401 134.954 19.6076H131.812V20.0372C132.169 22.686 134.597 24.5186 138.809 24.5186C143.007 24.5186 145.22 22.7003 145.22 19.8797C145.22 17.1164 143.164 16.0855 140.209 15.5987L137.624 15.1835C136.324 14.9544 135.296 14.5248 135.296 13.3079C135.296 12.1195 136.453 11.4036 138.324 11.4036C140.237 11.4036 141.507 12.1051 141.622 13.7374H144.706V13.3079C144.392 10.8023 142.093 9.06982 138.238 9.06982C134.411 9.06982 132.112 10.745 132.112 13.4367Z" fill="black"/>
<path d="M149.893 13.7377C149.964 12.2201 151.249 11.4326 153.163 11.4326C155.09 11.4326 156.175 12.2344 156.175 13.7663C156.175 14.74 155.605 15.0549 154.505 15.1551L151.121 15.4845C148.265 15.7709 146.009 17.0022 146.009 19.9515C146.009 22.7006 148.294 24.4617 151.535 24.4617C154.463 24.4617 155.833 23.2876 156.575 22.0276H156.861C157.004 23.2161 157.803 24.1753 159.631 24.1753H161.13V21.8415H160.402C159.688 21.8415 159.36 21.4979 159.36 20.7964V14.5108C159.36 10.6881 156.918 9.0415 153.22 9.0415C149.55 9.0415 147.123 10.6881 146.809 13.3082V13.7377H149.893ZM149.322 19.837C149.322 18.4339 150.35 17.8325 151.964 17.675L153.863 17.4746C154.976 17.3601 155.433 17.2169 155.876 16.9592H156.162V17.8755C156.162 20.9824 154.091 22.0849 152.177 22.0849C150.435 22.0849 149.322 21.2115 149.322 19.837Z" fill="black"/>
<path d="M162.401 24.1748H165.785V16.3C165.785 12.649 167.826 11.7328 170.811 12.105V9.24146C167.813 8.92647 166.556 10.1148 165.942 11.5609H165.657V9.38464H162.401V24.1748Z" fill="black"/>
<path d="M172.162 7.62444H175.589V4.30273H172.162V7.62444ZM172.19 24.1755H175.575V9.38536H172.19V24.1755Z" fill="black"/>
<path d="M39.9905 0.496094V27.5811L47.3831 20.1671V7.91004L39.9905 0.496094Z" fill="black"/>
<path d="M53.4963 14.024L49.8 10.3325V27.4388L57.1926 20.0559V10.3325L53.4963 14.024Z" fill="black"/>
<path d="M59.6092 7.89795V27.4385L67.0018 20.0366V0.496094L59.6092 7.89795Z" fill="black"/>
</g>
<defs>
<clipPath id="clip0_3814_6670">
<rect width="136.138" height="28" fill="white" transform="translate(39.931 0.496094)"/>
</clipPath>
</defs>
</svg>
