<svg width="216" height="25" viewBox="0 0 216 25" fill="none" xmlns="http://www.w3.org/2000/svg">
<g clip-path="url(#clip0_3814_7578)">
<path d="M51.6132 4.66087L41.187 0.585981C40.7975 0.466131 40.6777 0.466131 40.2882 0.585981L29.8619 4.66087C29.4425 4.84065 29.3526 4.99046 29.3526 5.40994V19.3724C29.3526 19.8218 29.4425 19.9118 29.8619 20.1215L40.2882 24.3762C40.4979 24.466 40.6178 24.496 40.7676 24.496C40.8874 24.496 41.0372 24.466 41.2169 24.3762L51.6432 20.1215C52.0627 19.9717 52.1525 19.8218 52.1525 19.3724V5.40994C52.1225 4.99046 52.0327 4.84065 51.6132 4.66087ZM49.4861 19.4323L40.7376 22.938L31.9891 19.4323L40.7376 16.2863L49.4861 19.4323ZM32.0191 5.35001L40.7376 2.02418L49.4561 5.35001L40.7376 8.52605L32.0191 5.35001ZM44.0632 14.9979C44.243 14.938 44.3628 14.7582 44.3628 14.5784V10.2339C44.3628 10.0541 44.243 9.87435 44.0632 9.81441L42.8947 9.33504L50.6246 6.48858V18.3237L42.8947 15.4773L44.0632 14.9979ZM42.8348 10.983V13.8294L40.7376 14.6683L38.6703 13.8294V10.983L40.7376 10.144L42.8348 10.983ZM37.4419 9.81441C37.2622 9.87435 37.1423 10.0541 37.1423 10.2638V14.5784C37.1423 14.7582 37.2622 14.938 37.4419 14.9979L38.6104 15.4773L30.8806 18.3237V6.48858L38.6104 9.36498L37.4419 9.81441Z" fill="black"/>
<path d="M63.6634 19.9775H67.2976V7.90556H72.5473V5.01514H58.3925V7.90556H63.6634V19.9775Z" fill="black"/>
<path d="M73.6585 19.9775H77.2928V13.5377H84.179V19.9775H87.8133V5.01514H84.179V10.626H77.2928V5.01514H73.6585V19.9775Z" fill="black"/>
<path d="M102.488 10.7535H94.1356V7.92685H102.934V5.01514H90.5012V19.9775H102.934V17.0658H94.1356V13.6652H102.488V10.7535Z" fill="black"/>
<path d="M109.636 19.9775H117.777C121.453 19.9775 123.601 18.341 123.601 15.5143C123.601 13.6227 122.261 12.4963 120.816 12.05C121.985 11.6249 123.047 10.6047 123.047 8.86203C123.047 6.75791 121.496 5.01514 117.925 5.01514H109.636V19.9775ZM113.207 10.8598V7.73554H117.182C118.436 7.73554 119.307 8.18188 119.307 9.3083C119.307 10.2222 118.775 10.8598 117.16 10.8598H113.207ZM113.207 13.5802H117.373C118.967 13.5802 119.775 14.1966 119.775 15.3867C119.775 16.8745 118.712 17.2783 117.31 17.2783H113.207V13.5802Z" fill="black"/>
<path d="M125.276 19.9775H136.795V17.0658H128.91V5.01514H125.276V19.9775Z" fill="black"/>
<path d="M145.359 4.69629C140.279 4.69629 137.219 8.33061 137.219 12.4537C137.219 16.8319 140.11 20.2963 145.189 20.2963C150.63 20.2963 153.393 16.5982 153.393 12.4325C153.393 8.35189 150.587 4.69629 145.359 4.69629ZM145.253 7.52295C148.271 7.52295 149.567 9.83958 149.567 12.475C149.567 14.9192 148.398 17.4696 145.402 17.4696C142.469 17.4696 141.045 15.2379 141.045 12.4112C141.045 9.88208 142.341 7.52295 145.253 7.52295Z" fill="black"/>
<path d="M166.126 15.2167C165.531 16.662 164.596 17.4908 162.471 17.4908C159.517 17.4908 158.199 15.1316 158.199 12.3687C158.199 9.64834 159.644 7.50172 162.449 7.50172C165 7.50172 165.807 8.88318 166.126 9.73335H169.803C169.357 7.24669 167.083 4.69629 162.492 4.69629C157.2 4.69629 154.373 8.41562 154.373 12.5175C154.373 16.5982 156.945 20.2963 162.301 20.2963C166.998 20.2963 169.081 17.8521 169.761 15.2167H166.126Z" fill="black"/>
<path d="M171.092 19.9775H174.726V15.0254L176.618 13.4527L182.122 19.9775H186.628L179.211 11.4549L186.246 5.01514H181.804C178.955 7.67182 176.872 9.56333 174.726 11.5611V5.01514H171.092V19.9775Z" fill="black"/>
</g>
<defs>
<clipPath id="clip0_3814_7578">
<rect width="157.895" height="24" fill="white" transform="translate(29.0526 0.496094)"/>
</clipPath>
</defs>
</svg>
