<svg width="306" height="298" viewBox="0 0 306 298" fill="none" xmlns="http://www.w3.org/2000/svg">
<g filter="url(#filter0_bii_204_2)">
<path d="M153 298L20.4981 223.5L20.4981 74.4997L153 -0.000257516L285.502 74.4998L285.502 223.5L153 298Z" fill="url(#paint0_linear_204_2)" fill-opacity="0.7"/>
</g>
<g filter="url(#filter1_i_204_2)">
<path d="M169.21 174V126.12H189.426C189.891 126.12 190.512 126.142 191.288 126.186C192.086 126.208 192.795 126.275 193.416 126.386C196.275 126.829 198.614 127.771 200.431 129.212C202.271 130.653 203.623 132.471 204.488 134.665C205.352 136.837 205.785 139.265 205.785 141.947C205.785 145.959 204.787 149.395 202.792 152.254C200.797 155.092 197.672 156.843 193.416 157.508L189.426 157.774H178.254V174H169.21ZM196.209 174L186.766 154.515L196.076 152.72L206.45 174H196.209ZM178.254 149.328H189.027C189.492 149.328 190.002 149.306 190.556 149.262C191.11 149.217 191.62 149.129 192.086 148.996C193.305 148.663 194.247 148.109 194.912 147.333C195.577 146.535 196.031 145.66 196.275 144.707C196.541 143.731 196.674 142.811 196.674 141.947C196.674 141.082 196.541 140.173 196.275 139.22C196.031 138.245 195.577 137.369 194.912 136.594C194.247 135.796 193.305 135.23 192.086 134.898C191.62 134.765 191.11 134.676 190.556 134.632C190.002 134.587 189.492 134.565 189.027 134.565H178.254V149.328Z" fill="black" fill-opacity="0.6"/>
<path d="M96 125.5H157.416V138.916H96V125.5Z" fill="black" fill-opacity="0.6"/>
<path d="M96 142.792H157.416V156.208H96V142.792Z" fill="black" fill-opacity="0.6"/>
<path d="M96 160.084H123.428V173.5H96V160.084Z" fill="black" fill-opacity="0.6"/>
<path d="M129.987 160.084H157.416V173.5H129.987V160.084Z" fill="black" fill-opacity="0.6"/>
</g>
<defs>
<filter id="filter0_bii_204_2" x="-2.50195" y="-23.0002" width="311.004" height="344" filterUnits="userSpaceOnUse" color-interpolation-filters="sRGB">
<feFlood flood-opacity="0" result="BackgroundImageFix"/>
<feGaussianBlur in="BackgroundImageFix" stdDeviation="11.5"/>
<feComposite in2="SourceAlpha" operator="in" result="effect1_backgroundBlur_204_2"/>
<feBlend mode="normal" in="SourceGraphic" in2="effect1_backgroundBlur_204_2" result="shape"/>
<feColorMatrix in="SourceAlpha" type="matrix" values="0 0 0 0 0 0 0 0 0 0 0 0 0 0 0 0 0 0 127 0" result="hardAlpha"/>
<feOffset dy="4"/>
<feGaussianBlur stdDeviation="5"/>
<feComposite in2="hardAlpha" operator="arithmetic" k2="-1" k3="1"/>
<feColorMatrix type="matrix" values="0 0 0 0 1 0 0 0 0 1 0 0 0 0 1 0 0 0 0.25 0"/>
<feBlend mode="normal" in2="shape" result="effect2_innerShadow_204_2"/>
<feColorMatrix in="SourceAlpha" type="matrix" values="0 0 0 0 0 0 0 0 0 0 0 0 0 0 0 0 0 0 127 0" result="hardAlpha"/>
<feOffset dy="-4"/>
<feGaussianBlur stdDeviation="5"/>
<feComposite in2="hardAlpha" operator="arithmetic" k2="-1" k3="1"/>
<feColorMatrix type="matrix" values="0 0 0 0 0 0 0 0 0 0 0 0 0 0 0 0 0 0 0.1 0"/>
<feBlend mode="normal" in2="effect2_innerShadow_204_2" result="effect3_innerShadow_204_2"/>
</filter>
<filter id="filter1_i_204_2" x="96" y="125.5" width="110.449" height="52.3458" filterUnits="userSpaceOnUse" color-interpolation-filters="sRGB">
<feFlood flood-opacity="0" result="BackgroundImageFix"/>
<feBlend mode="normal" in="SourceGraphic" in2="BackgroundImageFix" result="shape"/>
<feColorMatrix in="SourceAlpha" type="matrix" values="0 0 0 0 0 0 0 0 0 0 0 0 0 0 0 0 0 0 127 0" result="hardAlpha"/>
<feOffset dy="3.84583"/>
<feGaussianBlur stdDeviation="1.92291"/>
<feComposite in2="hardAlpha" operator="arithmetic" k2="-1" k3="1"/>
<feColorMatrix type="matrix" values="0 0 0 0 0 0 0 0 0 0 0 0 0 0 0 0 0 0 0.25 0"/>
<feBlend mode="normal" in2="shape" result="effect1_innerShadow_204_2"/>
</filter>
<linearGradient id="paint0_linear_204_2" x1="75.5" y1="9.99973" x2="226.5" y2="271" gradientUnits="userSpaceOnUse">
<stop stop-color="#D8B4FE"/>
<stop offset="1" stop-color="white" stop-opacity="0"/>
</linearGradient>
</defs>
</svg>
