<svg width="834" height="742" viewBox="0 0 834 742" fill="none" xmlns="http://www.w3.org/2000/svg">
<g filter="url(#filter0_bii_182_557)">
<path d="M417 520L284.498 445.5L284.498 296.5L417 222L549.502 296.5L549.502 445.5L417 520Z" fill="url(#paint0_linear_182_557)" fill-opacity="0.7"/>
</g>
<g filter="url(#filter1_i_182_557)">
<path d="M377.695 351.773V340.052H456.259V351.773H377.695ZM377.695 375.849V364.128H456.259V375.849H377.695ZM377.695 399.925V388.204H408.952V399.925H377.695ZM425.002 399.925V388.204H456.259V399.925H425.002Z" fill="black" fill-opacity="0.6"/>
</g>
<g filter="url(#filter2_i_182_557)">
<path fill-rule="evenodd" clip-rule="evenodd" d="M374.176 355.293V336.532H459.779V355.293H374.176ZM374.176 379.369V360.608H459.779V379.369H374.176ZM374.176 403.445V384.684H412.472V403.445H374.176ZM421.483 403.445V384.684H459.779V403.445H421.483ZM377.696 351.773H456.259V340.052H377.696V351.773ZM377.696 375.849H456.259V364.128H377.696V375.849ZM377.696 399.925H408.952V388.204H377.696V399.925ZM425.003 399.925H456.259V388.204H425.003V399.925Z" fill="black" fill-opacity="0.6"/>
</g>
<g filter="url(#filter3_bii_182_557)">
<path d="M284 298L151.498 223.5L151.498 74.5L284 -1.33757e-05L416.502 74.5L416.502 223.5L284 298Z" fill="url(#paint1_linear_182_557)" fill-opacity="0.7"/>
</g>
<g filter="url(#filter4_i_182_557)">
<path d="M235.786 163.54C233.194 163.54 230.974 162.976 229.126 161.848C227.278 160.708 225.856 159.124 224.86 157.096C223.876 155.068 223.384 152.716 223.384 150.04C223.384 147.364 223.876 145.012 224.86 142.984C225.856 140.956 227.278 139.378 229.126 138.25C230.974 137.11 233.194 136.54 235.786 136.54C238.378 136.54 240.598 137.11 242.446 138.25C244.306 139.378 245.728 140.956 246.712 142.984C247.708 145.012 248.206 147.364 248.206 150.04C248.206 152.716 247.708 155.068 246.712 157.096C245.728 159.124 244.306 160.708 242.446 161.848C240.598 162.976 238.378 163.54 235.786 163.54ZM235.786 159.454C237.526 159.466 238.972 159.082 240.124 158.302C241.288 157.522 242.158 156.424 242.734 155.008C243.322 153.592 243.616 151.936 243.616 150.04C243.616 148.144 243.322 146.5 242.734 145.108C242.158 143.704 241.288 142.612 240.124 141.832C238.972 141.052 237.526 140.65 235.786 140.626C234.046 140.614 232.6 140.998 231.448 141.778C230.296 142.558 229.426 143.656 228.838 145.072C228.262 146.488 227.974 148.144 227.974 150.04C227.974 151.936 228.262 153.586 228.838 154.99C229.414 156.382 230.278 157.468 231.43 158.248C232.594 159.028 234.046 159.43 235.786 159.454ZM250.349 163V143.56H254.183V148.294L253.715 147.682C253.955 147.034 254.273 146.446 254.669 145.918C255.077 145.378 255.563 144.934 256.127 144.586C256.607 144.262 257.135 144.01 257.711 143.83C258.299 143.638 258.899 143.524 259.511 143.488C260.123 143.44 260.717 143.464 261.293 143.56V147.61C260.717 147.442 260.051 147.388 259.295 147.448C258.551 147.508 257.879 147.718 257.279 148.078C256.679 148.402 256.187 148.816 255.803 149.32C255.431 149.824 255.155 150.4 254.975 151.048C254.795 151.684 254.705 152.374 254.705 153.118V163H250.349ZM268.267 163.54C266.863 163.54 265.675 163.276 264.703 162.748C263.731 162.208 262.993 161.494 262.489 160.606C261.997 159.718 261.751 158.74 261.751 157.672C261.751 156.736 261.907 155.896 262.219 155.152C262.531 154.396 263.011 153.748 263.659 153.208C264.307 152.656 265.147 152.206 266.179 151.858C266.959 151.606 267.871 151.378 268.915 151.174C269.971 150.97 271.111 150.784 272.335 150.616C273.571 150.436 274.861 150.244 276.205 150.04L274.657 150.922C274.669 149.578 274.369 148.588 273.757 147.952C273.145 147.316 272.113 146.998 270.661 146.998C269.785 146.998 268.939 147.202 268.123 147.61C267.307 148.018 266.737 148.72 266.413 149.716L262.453 148.474C262.933 146.83 263.845 145.51 265.189 144.514C266.545 143.518 268.369 143.02 270.661 143.02C272.389 143.02 273.907 143.302 275.215 143.866C276.535 144.43 277.513 145.354 278.149 146.638C278.497 147.322 278.707 148.024 278.779 148.744C278.851 149.452 278.887 150.226 278.887 151.066V163H275.089V158.788L275.719 159.472C274.843 160.876 273.817 161.908 272.641 162.568C271.477 163.216 270.019 163.54 268.267 163.54ZM269.131 160.084C270.115 160.084 270.955 159.91 271.651 159.562C272.347 159.214 272.899 158.788 273.307 158.284C273.727 157.78 274.009 157.306 274.153 156.862C274.381 156.31 274.507 155.68 274.531 154.972C274.567 154.252 274.585 153.67 274.585 153.226L275.917 153.622C274.609 153.826 273.487 154.006 272.551 154.162C271.615 154.318 270.811 154.468 270.139 154.612C269.467 154.744 268.873 154.894 268.357 155.062C267.853 155.242 267.427 155.452 267.079 155.692C266.731 155.932 266.461 156.208 266.269 156.52C266.089 156.832 265.999 157.198 265.999 157.618C265.999 158.098 266.119 158.524 266.359 158.896C266.599 159.256 266.947 159.544 267.403 159.76C267.871 159.976 268.447 160.084 269.131 160.084ZM290.575 163.54C288.571 163.54 286.861 163.096 285.445 162.208C284.029 161.308 282.943 160.084 282.187 158.536C281.443 156.988 281.065 155.236 281.053 153.28C281.065 151.288 281.455 149.524 282.223 147.988C283.003 146.44 284.107 145.228 285.535 144.352C286.963 143.464 288.661 143.02 290.629 143.02C292.837 143.02 294.703 143.578 296.227 144.694C297.763 145.798 298.765 147.31 299.233 149.23L294.913 150.4C294.577 149.356 294.019 148.546 293.239 147.97C292.459 147.382 291.571 147.088 290.575 147.088C289.447 147.088 288.517 147.358 287.785 147.898C287.053 148.426 286.513 149.158 286.165 150.094C285.817 151.03 285.643 152.092 285.643 153.28C285.643 155.128 286.057 156.622 286.885 157.762C287.713 158.902 288.943 159.472 290.575 159.472C291.727 159.472 292.633 159.208 293.293 158.68C293.965 158.152 294.469 157.39 294.805 156.394L299.233 157.384C298.633 159.364 297.583 160.888 296.083 161.956C294.583 163.012 292.747 163.54 290.575 163.54ZM301.233 163V136.54H305.571V163H301.233ZM318.361 163.54C316.393 163.54 314.665 163.114 313.177 162.262C311.689 161.41 310.525 160.228 309.685 158.716C308.857 157.204 308.443 155.464 308.443 153.496C308.443 151.372 308.851 149.53 309.667 147.97C310.483 146.398 311.617 145.18 313.069 144.316C314.521 143.452 316.201 143.02 318.109 143.02C320.125 143.02 321.835 143.494 323.239 144.442C324.655 145.378 325.705 146.704 326.389 148.42C327.073 150.136 327.331 152.158 327.163 154.486H322.861V152.902C322.849 150.79 322.477 149.248 321.745 148.276C321.013 147.304 319.861 146.818 318.289 146.818C316.513 146.818 315.193 147.37 314.329 148.474C313.465 149.566 313.033 151.168 313.033 153.28C313.033 155.248 313.465 156.772 314.329 157.852C315.193 158.932 316.453 159.472 318.109 159.472C319.177 159.472 320.095 159.238 320.863 158.77C321.643 158.29 322.243 157.6 322.663 156.7L326.947 157.996C326.203 159.748 325.051 161.11 323.491 162.082C321.943 163.054 320.233 163.54 318.361 163.54ZM311.665 154.486V151.21H325.039V154.486H311.665ZM337.245 163.54C334.845 163.54 332.895 163 331.395 161.92C329.895 160.84 328.983 159.322 328.659 157.366L333.087 156.682C333.315 157.642 333.819 158.398 334.599 158.95C335.379 159.502 336.363 159.778 337.551 159.778C338.595 159.778 339.399 159.574 339.963 159.166C340.539 158.746 340.827 158.176 340.827 157.456C340.827 157.012 340.719 156.658 340.503 156.394C340.299 156.118 339.843 155.854 339.135 155.602C338.427 155.35 337.341 155.032 335.877 154.648C334.245 154.216 332.949 153.754 331.989 153.262C331.029 152.758 330.339 152.164 329.919 151.48C329.499 150.796 329.289 149.968 329.289 148.996C329.289 147.784 329.607 146.728 330.243 145.828C330.879 144.928 331.767 144.238 332.907 143.758C334.047 143.266 335.391 143.02 336.939 143.02C338.451 143.02 339.789 143.254 340.953 143.722C342.129 144.19 343.077 144.856 343.797 145.72C344.517 146.584 344.961 147.598 345.129 148.762L340.701 149.554C340.593 148.726 340.215 148.072 339.567 147.592C338.931 147.112 338.079 146.842 337.011 146.782C335.991 146.722 335.169 146.878 334.545 147.25C333.921 147.61 333.609 148.12 333.609 148.78C333.609 149.152 333.735 149.47 333.987 149.734C334.239 149.998 334.743 150.262 335.499 150.526C336.267 150.79 337.407 151.114 338.919 151.498C340.467 151.894 341.703 152.35 342.627 152.866C343.563 153.37 344.235 153.976 344.643 154.684C345.063 155.392 345.273 156.25 345.273 157.258C345.273 159.214 344.559 160.75 343.131 161.866C341.715 162.982 339.753 163.54 337.245 163.54Z" fill="black" fill-opacity="0.6"/>
</g>
<g filter="url(#filter5_bii_182_557)">
<path d="M547 298L414.498 223.5L414.498 74.5L547 -1.33757e-05L679.502 74.5L679.502 223.5L547 298Z" fill="url(#paint2_linear_182_557)" fill-opacity="0.7"/>
</g>
<g filter="url(#filter6_i_182_557)">
<path d="M451.147 163L459.319 137.08H465.673L473.845 163H469.381L461.965 139.744H462.937L455.611 163H451.147ZM455.701 157.384V153.334H469.309V157.384H455.701ZM482.95 163.558C481.51 163.558 480.322 163.318 479.386 162.838C478.45 162.358 477.706 161.746 477.154 161.002C476.602 160.258 476.194 159.466 475.93 158.626C475.666 157.786 475.492 156.994 475.408 156.25C475.336 155.494 475.3 154.882 475.3 154.414V143.56H479.692V152.92C479.692 153.52 479.734 154.198 479.818 154.954C479.902 155.698 480.094 156.418 480.394 157.114C480.706 157.798 481.162 158.362 481.762 158.806C482.374 159.25 483.196 159.472 484.228 159.472C484.78 159.472 485.326 159.382 485.866 159.202C486.406 159.022 486.892 158.716 487.324 158.284C487.768 157.84 488.122 157.234 488.386 156.466C488.65 155.698 488.782 154.726 488.782 153.55L491.356 154.648C491.356 156.304 491.032 157.804 490.384 159.148C489.748 160.492 488.806 161.566 487.558 162.37C486.31 163.162 484.774 163.558 482.95 163.558ZM489.304 163V156.97H488.782V143.56H493.138V163H489.304ZM508.149 163C506.865 163.24 505.605 163.342 504.369 163.306C503.145 163.282 502.047 163.06 501.075 162.64C500.103 162.208 499.365 161.53 498.861 160.606C498.417 159.766 498.183 158.908 498.159 158.032C498.135 157.156 498.123 156.166 498.123 155.062V138.16H502.443V154.81C502.443 155.59 502.449 156.274 502.461 156.862C502.485 157.45 502.611 157.93 502.839 158.302C503.271 159.022 503.961 159.424 504.909 159.508C505.857 159.592 506.937 159.544 508.149 159.364V163ZM494.595 146.962V143.56H508.149V146.962H494.595ZM518.491 163.54C516.547 163.54 514.849 163.102 513.397 162.226C511.945 161.35 510.817 160.144 510.013 158.608C509.221 157.06 508.825 155.284 508.825 153.28C508.825 151.24 509.233 149.452 510.049 147.916C510.865 146.38 511.999 145.18 513.451 144.316C514.903 143.452 516.583 143.02 518.491 143.02C520.447 143.02 522.151 143.458 523.603 144.334C525.055 145.21 526.183 146.422 526.987 147.97C527.791 149.506 528.193 151.276 528.193 153.28C528.193 155.296 527.785 157.078 526.969 158.626C526.165 160.162 525.037 161.368 523.585 162.244C522.133 163.108 520.435 163.54 518.491 163.54ZM518.491 159.472C520.219 159.472 521.503 158.896 522.343 157.744C523.183 156.592 523.603 155.104 523.603 153.28C523.603 151.396 523.177 149.896 522.325 148.78C521.473 147.652 520.195 147.088 518.491 147.088C517.327 147.088 516.367 147.352 515.611 147.88C514.867 148.396 514.315 149.122 513.955 150.058C513.595 150.982 513.415 152.056 513.415 153.28C513.415 155.164 513.841 156.67 514.693 157.798C515.557 158.914 516.823 159.472 518.491 159.472ZM554.065 163V151.192C554.065 149.86 553.735 148.822 553.075 148.078C552.415 147.322 551.521 146.944 550.393 146.944C549.697 146.944 549.073 147.106 548.521 147.43C547.969 147.742 547.531 148.21 547.207 148.834C546.883 149.446 546.721 150.178 546.721 151.03L544.795 149.896C544.783 148.552 545.083 147.37 545.695 146.35C546.319 145.318 547.159 144.514 548.215 143.938C549.271 143.362 550.447 143.074 551.743 143.074C553.891 143.074 555.535 143.722 556.675 145.018C557.827 146.302 558.403 147.994 558.403 150.094V163H554.065ZM530.683 163V143.56H534.517V149.59H535.057V163H530.683ZM542.401 163V151.246C542.401 149.89 542.071 148.834 541.411 148.078C540.751 147.322 539.851 146.944 538.711 146.944C537.607 146.944 536.719 147.322 536.047 148.078C535.387 148.834 535.057 149.818 535.057 151.03L533.113 149.734C533.113 148.474 533.425 147.34 534.049 146.332C534.673 145.324 535.513 144.532 536.569 143.956C537.637 143.368 538.831 143.074 540.151 143.074C541.603 143.074 542.815 143.386 543.787 144.01C544.771 144.622 545.503 145.462 545.983 146.53C546.475 147.586 546.721 148.78 546.721 150.112V163H542.401ZM567.093 163.54C565.689 163.54 564.501 163.276 563.529 162.748C562.557 162.208 561.819 161.494 561.315 160.606C560.823 159.718 560.577 158.74 560.577 157.672C560.577 156.736 560.733 155.896 561.045 155.152C561.357 154.396 561.837 153.748 562.485 153.208C563.133 152.656 563.973 152.206 565.005 151.858C565.785 151.606 566.697 151.378 567.741 151.174C568.797 150.97 569.937 150.784 571.161 150.616C572.397 150.436 573.687 150.244 575.031 150.04L573.483 150.922C573.495 149.578 573.195 148.588 572.583 147.952C571.971 147.316 570.939 146.998 569.487 146.998C568.611 146.998 567.765 147.202 566.949 147.61C566.133 148.018 565.563 148.72 565.239 149.716L561.279 148.474C561.759 146.83 562.671 145.51 564.015 144.514C565.371 143.518 567.195 143.02 569.487 143.02C571.215 143.02 572.733 143.302 574.041 143.866C575.361 144.43 576.339 145.354 576.975 146.638C577.323 147.322 577.533 148.024 577.605 148.744C577.677 149.452 577.713 150.226 577.713 151.066V163H573.915V158.788L574.545 159.472C573.669 160.876 572.643 161.908 571.467 162.568C570.303 163.216 568.845 163.54 567.093 163.54ZM567.957 160.084C568.941 160.084 569.781 159.91 570.477 159.562C571.173 159.214 571.725 158.788 572.133 158.284C572.553 157.78 572.835 157.306 572.979 156.862C573.207 156.31 573.333 155.68 573.357 154.972C573.393 154.252 573.411 153.67 573.411 153.226L574.743 153.622C573.435 153.826 572.313 154.006 571.377 154.162C570.441 154.318 569.637 154.468 568.965 154.612C568.293 154.744 567.699 154.894 567.183 155.062C566.679 155.242 566.253 155.452 565.905 155.692C565.557 155.932 565.287 156.208 565.095 156.52C564.915 156.832 564.825 157.198 564.825 157.618C564.825 158.098 564.945 158.524 565.185 158.896C565.425 159.256 565.773 159.544 566.229 159.76C566.697 159.976 567.273 160.084 567.957 160.084ZM592.354 163C591.07 163.24 589.81 163.342 588.574 163.306C587.35 163.282 586.252 163.06 585.28 162.64C584.308 162.208 583.57 161.53 583.066 160.606C582.622 159.766 582.388 158.908 582.364 158.032C582.34 157.156 582.328 156.166 582.328 155.062V138.16H586.648V154.81C586.648 155.59 586.654 156.274 586.666 156.862C586.69 157.45 586.816 157.93 587.044 158.302C587.476 159.022 588.166 159.424 589.114 159.508C590.062 159.592 591.142 159.544 592.354 159.364V163ZM578.8 146.962V143.56H592.354V146.962H578.8ZM595.454 140.608V136.63H599.792V140.608H595.454ZM595.454 163V143.56H599.792V163H595.454ZM612.33 163.54C610.386 163.54 608.688 163.102 607.236 162.226C605.784 161.35 604.656 160.144 603.852 158.608C603.06 157.06 602.664 155.284 602.664 153.28C602.664 151.24 603.072 149.452 603.888 147.916C604.704 146.38 605.838 145.18 607.29 144.316C608.742 143.452 610.422 143.02 612.33 143.02C614.286 143.02 615.99 143.458 617.442 144.334C618.894 145.21 620.022 146.422 620.826 147.97C621.63 149.506 622.032 151.276 622.032 153.28C622.032 155.296 621.624 157.078 620.808 158.626C620.004 160.162 618.876 161.368 617.424 162.244C615.972 163.108 614.274 163.54 612.33 163.54ZM612.33 159.472C614.058 159.472 615.342 158.896 616.182 157.744C617.022 156.592 617.442 155.104 617.442 153.28C617.442 151.396 617.016 149.896 616.164 148.78C615.312 147.652 614.034 147.088 612.33 147.088C611.166 147.088 610.206 147.352 609.45 147.88C608.706 148.396 608.154 149.122 607.794 150.058C607.434 150.982 607.254 152.056 607.254 153.28C607.254 155.164 607.68 156.67 608.532 157.798C609.396 158.914 610.662 159.472 612.33 159.472ZM638.004 163V153.64C638.004 153.028 637.962 152.35 637.878 151.606C637.794 150.862 637.596 150.148 637.284 149.464C636.984 148.768 636.528 148.198 635.916 147.754C635.316 147.31 634.5 147.088 633.468 147.088C632.916 147.088 632.37 147.178 631.83 147.358C631.29 147.538 630.798 147.85 630.354 148.294C629.922 148.726 629.574 149.326 629.31 150.094C629.046 150.85 628.914 151.822 628.914 153.01L626.34 151.912C626.34 150.256 626.658 148.756 627.294 147.412C627.942 146.068 628.89 145 630.138 144.208C631.386 143.404 632.922 143.002 634.746 143.002C636.186 143.002 637.374 143.242 638.31 143.722C639.246 144.202 639.99 144.814 640.542 145.558C641.094 146.302 641.502 147.094 641.766 147.934C642.03 148.774 642.198 149.572 642.27 150.328C642.354 151.072 642.396 151.678 642.396 152.146V163H638.004ZM624.522 163V143.56H628.392V149.59H628.914V163H624.522Z" fill="black" fill-opacity="0.6"/>
</g>
<g filter="url(#filter7_bii_182_557)">
<path d="M681 520L548.498 445.5L548.498 296.5L681 222L813.502 296.5L813.502 445.5L681 520Z" fill="url(#paint3_linear_182_557)" fill-opacity="0.7"/>
</g>
<g filter="url(#filter8_i_182_557)">
<path d="M583.704 385V359.08H591.966C592.182 359.08 592.608 359.086 593.244 359.098C593.892 359.11 594.516 359.152 595.116 359.224C597.168 359.488 598.902 360.22 600.318 361.42C601.746 362.608 602.826 364.126 603.558 365.974C604.29 367.822 604.656 369.844 604.656 372.04C604.656 374.236 604.29 376.258 603.558 378.106C602.826 379.954 601.746 381.478 600.318 382.678C598.902 383.866 597.168 384.592 595.116 384.856C594.528 384.928 593.91 384.97 593.262 384.982C592.614 384.994 592.182 385 591.966 385H583.704ZM588.114 380.914H591.966C592.326 380.914 592.782 380.902 593.334 380.878C593.898 380.854 594.396 380.8 594.828 380.716C596.052 380.488 597.048 379.942 597.816 379.078C598.584 378.214 599.148 377.164 599.508 375.928C599.88 374.692 600.066 373.396 600.066 372.04C600.066 370.636 599.88 369.316 599.508 368.08C599.136 366.844 598.56 365.806 597.78 364.966C597.012 364.126 596.028 363.592 594.828 363.364C594.396 363.268 593.898 363.214 593.334 363.202C592.782 363.178 592.326 363.166 591.966 363.166H588.114V380.914ZM604.968 385L613.14 359.08H619.494L627.666 385H623.202L615.786 361.744H616.758L609.432 385H604.968ZM609.522 379.384V375.334H623.13V379.384H609.522ZM639.739 385.54C637.147 385.54 634.927 384.976 633.079 383.848C631.231 382.708 629.809 381.124 628.813 379.096C627.829 377.068 627.337 374.716 627.337 372.04C627.337 369.364 627.829 367.012 628.813 364.984C629.809 362.956 631.231 361.378 633.079 360.25C634.927 359.11 637.147 358.54 639.739 358.54C642.331 358.54 644.551 359.11 646.399 360.25C648.259 361.378 649.681 362.956 650.665 364.984C651.661 367.012 652.159 369.364 652.159 372.04C652.159 374.716 651.661 377.068 650.665 379.096C649.681 381.124 648.259 382.708 646.399 383.848C644.551 384.976 642.331 385.54 639.739 385.54ZM639.739 381.454C641.479 381.466 642.925 381.082 644.077 380.302C645.241 379.522 646.111 378.424 646.687 377.008C647.275 375.592 647.569 373.936 647.569 372.04C647.569 370.144 647.275 368.5 646.687 367.108C646.111 365.704 645.241 364.612 644.077 363.832C642.925 363.052 641.479 362.65 639.739 362.626C637.999 362.614 636.553 362.998 635.401 363.778C634.249 364.558 633.379 365.656 632.791 367.072C632.215 368.488 631.927 370.144 631.927 372.04C631.927 373.936 632.215 375.586 632.791 376.99C633.367 378.382 634.231 379.468 635.383 380.248C636.547 381.028 637.999 381.43 639.739 381.454ZM653.942 375.352V371.95H664.742V375.352H653.942ZM679.374 385C678.09 385.24 676.83 385.342 675.594 385.306C674.37 385.282 673.272 385.06 672.3 384.64C671.328 384.208 670.59 383.53 670.086 382.606C669.642 381.766 669.408 380.908 669.384 380.032C669.36 379.156 669.348 378.166 669.348 377.062V360.16H673.668V376.81C673.668 377.59 673.674 378.274 673.686 378.862C673.71 379.45 673.836 379.93 674.064 380.302C674.496 381.022 675.186 381.424 676.134 381.508C677.082 381.592 678.162 381.544 679.374 381.364V385ZM665.82 368.962V365.56H679.374V368.962H665.82ZM689.715 385.54C687.771 385.54 686.073 385.102 684.621 384.226C683.169 383.35 682.041 382.144 681.237 380.608C680.445 379.06 680.049 377.284 680.049 375.28C680.049 373.24 680.457 371.452 681.273 369.916C682.089 368.38 683.223 367.18 684.675 366.316C686.127 365.452 687.807 365.02 689.715 365.02C691.671 365.02 693.375 365.458 694.827 366.334C696.279 367.21 697.407 368.422 698.211 369.97C699.015 371.506 699.417 373.276 699.417 375.28C699.417 377.296 699.009 379.078 698.193 380.626C697.389 382.162 696.261 383.368 694.809 384.244C693.357 385.108 691.659 385.54 689.715 385.54ZM689.715 381.472C691.443 381.472 692.727 380.896 693.567 379.744C694.407 378.592 694.827 377.104 694.827 375.28C694.827 373.396 694.401 371.896 693.549 370.78C692.697 369.652 691.419 369.088 689.715 369.088C688.551 369.088 687.591 369.352 686.835 369.88C686.091 370.396 685.539 371.122 685.179 372.058C684.819 372.982 684.639 374.056 684.639 375.28C684.639 377.164 685.065 378.67 685.917 379.798C686.781 380.914 688.047 381.472 689.715 381.472ZM710.529 385.54C708.585 385.54 706.887 385.102 705.435 384.226C703.983 383.35 702.855 382.144 702.051 380.608C701.259 379.06 700.863 377.284 700.863 375.28C700.863 373.24 701.271 371.452 702.087 369.916C702.903 368.38 704.037 367.18 705.489 366.316C706.941 365.452 708.621 365.02 710.529 365.02C712.485 365.02 714.189 365.458 715.641 366.334C717.093 367.21 718.221 368.422 719.025 369.97C719.829 371.506 720.231 373.276 720.231 375.28C720.231 377.296 719.823 379.078 719.007 380.626C718.203 382.162 717.075 383.368 715.623 384.244C714.171 385.108 712.473 385.54 710.529 385.54ZM710.529 381.472C712.257 381.472 713.541 380.896 714.381 379.744C715.221 378.592 715.641 377.104 715.641 375.28C715.641 373.396 715.215 371.896 714.363 370.78C713.511 369.652 712.233 369.088 710.529 369.088C709.365 369.088 708.405 369.352 707.649 369.88C706.905 370.396 706.353 371.122 705.993 372.058C705.633 372.982 705.453 374.056 705.453 375.28C705.453 377.164 705.879 378.67 706.731 379.798C707.595 380.914 708.861 381.472 710.529 381.472ZM723.117 385V358.54H727.455V385H723.117ZM731.767 362.608V358.63H736.105V362.608H731.767ZM731.767 385V365.56H736.105V385H731.767ZM753.503 385V375.64C753.503 375.028 753.461 374.35 753.377 373.606C753.293 372.862 753.095 372.148 752.783 371.464C752.483 370.768 752.027 370.198 751.415 369.754C750.815 369.31 749.999 369.088 748.967 369.088C748.415 369.088 747.869 369.178 747.329 369.358C746.789 369.538 746.297 369.85 745.853 370.294C745.421 370.726 745.073 371.326 744.809 372.094C744.545 372.85 744.413 373.822 744.413 375.01L741.839 373.912C741.839 372.256 742.157 370.756 742.793 369.412C743.441 368.068 744.389 367 745.637 366.208C746.885 365.404 748.421 365.002 750.245 365.002C751.685 365.002 752.873 365.242 753.809 365.722C754.745 366.202 755.489 366.814 756.041 367.558C756.593 368.302 757.001 369.094 757.265 369.934C757.529 370.774 757.697 371.572 757.769 372.328C757.853 373.072 757.895 373.678 757.895 374.146V385H753.503ZM740.021 385V365.56H743.891V371.59H744.413V385H740.021ZM769.324 394.18C768.244 394.18 767.206 394.012 766.21 393.676C765.226 393.34 764.338 392.854 763.546 392.218C762.754 391.594 762.106 390.838 761.602 389.95L765.598 387.97C765.97 388.678 766.492 389.2 767.164 389.536C767.848 389.884 768.574 390.058 769.342 390.058C770.242 390.058 771.046 389.896 771.754 389.572C772.462 389.26 773.008 388.792 773.392 388.168C773.788 387.556 773.974 386.788 773.95 385.864V380.338H774.49V365.56H778.288V385.936C778.288 386.428 778.264 386.896 778.216 387.34C778.18 387.796 778.114 388.24 778.018 388.672C777.73 389.932 777.178 390.964 776.362 391.768C775.546 392.584 774.532 393.19 773.32 393.586C772.12 393.982 770.788 394.18 769.324 394.18ZM768.946 385.54C767.158 385.54 765.598 385.09 764.266 384.19C762.934 383.29 761.902 382.066 761.17 380.518C760.438 378.97 760.072 377.224 760.072 375.28C760.072 373.312 760.438 371.56 761.17 370.024C761.914 368.476 762.964 367.258 764.32 366.37C765.676 365.47 767.272 365.02 769.108 365.02C770.956 365.02 772.504 365.47 773.752 366.37C775.012 367.258 775.966 368.476 776.614 370.024C777.262 371.572 777.586 373.324 777.586 375.28C777.586 377.212 777.262 378.958 776.614 380.518C775.966 382.066 775 383.29 773.716 384.19C772.432 385.09 770.842 385.54 768.946 385.54ZM769.612 381.652C770.776 381.652 771.712 381.388 772.42 380.86C773.14 380.32 773.662 379.57 773.986 378.61C774.322 377.65 774.49 376.54 774.49 375.28C774.49 374.008 774.322 372.898 773.986 371.95C773.662 370.99 773.152 370.246 772.456 369.718C771.76 369.178 770.86 368.908 769.756 368.908C768.592 368.908 767.632 369.196 766.876 369.772C766.12 370.336 765.562 371.104 765.202 372.076C764.842 373.036 764.662 374.104 764.662 375.28C764.662 376.468 764.836 377.548 765.184 378.52C765.544 379.48 766.09 380.242 766.822 380.806C767.554 381.37 768.484 381.652 769.612 381.652Z" fill="black" fill-opacity="0.6"/>
</g>
<g filter="url(#filter9_bii_182_557)">
<path d="M549 742L416.498 667.5L416.498 518.5L549 444L681.502 518.5L681.502 667.5L549 742Z" fill="url(#paint4_linear_182_557)" fill-opacity="0.7"/>
</g>
<g filter="url(#filter10_i_182_557)">
<path d="M462.71 607V581.08H466.616L475.58 599.44L484.544 581.08H488.45V607H484.4V590.386L476.444 607H474.716L466.778 590.386V607H462.71ZM500.905 607.54C498.937 607.54 497.209 607.114 495.721 606.262C494.233 605.41 493.069 604.228 492.229 602.716C491.401 601.204 490.987 599.464 490.987 597.496C490.987 595.372 491.395 593.53 492.211 591.97C493.027 590.398 494.161 589.18 495.613 588.316C497.065 587.452 498.745 587.02 500.653 587.02C502.669 587.02 504.379 587.494 505.783 588.442C507.199 589.378 508.249 590.704 508.933 592.42C509.617 594.136 509.875 596.158 509.707 598.486H505.405V596.902C505.393 594.79 505.021 593.248 504.289 592.276C503.557 591.304 502.405 590.818 500.833 590.818C499.057 590.818 497.737 591.37 496.873 592.474C496.009 593.566 495.577 595.168 495.577 597.28C495.577 599.248 496.009 600.772 496.873 601.852C497.737 602.932 498.997 603.472 500.653 603.472C501.721 603.472 502.639 603.238 503.407 602.77C504.187 602.29 504.787 601.6 505.207 600.7L509.491 601.996C508.747 603.748 507.595 605.11 506.035 606.082C504.487 607.054 502.777 607.54 500.905 607.54ZM494.209 598.486V595.21H507.583V598.486H494.209ZM519.789 607.54C517.389 607.54 515.439 607 513.939 605.92C512.439 604.84 511.527 603.322 511.203 601.366L515.631 600.682C515.859 601.642 516.363 602.398 517.143 602.95C517.923 603.502 518.907 603.778 520.095 603.778C521.139 603.778 521.943 603.574 522.507 603.166C523.083 602.746 523.371 602.176 523.371 601.456C523.371 601.012 523.263 600.658 523.047 600.394C522.843 600.118 522.387 599.854 521.679 599.602C520.971 599.35 519.885 599.032 518.421 598.648C516.789 598.216 515.493 597.754 514.533 597.262C513.573 596.758 512.883 596.164 512.463 595.48C512.043 594.796 511.833 593.968 511.833 592.996C511.833 591.784 512.151 590.728 512.787 589.828C513.423 588.928 514.311 588.238 515.451 587.758C516.591 587.266 517.935 587.02 519.483 587.02C520.995 587.02 522.333 587.254 523.497 587.722C524.673 588.19 525.621 588.856 526.341 589.72C527.061 590.584 527.505 591.598 527.673 592.762L523.245 593.554C523.137 592.726 522.759 592.072 522.111 591.592C521.475 591.112 520.623 590.842 519.555 590.782C518.535 590.722 517.713 590.878 517.089 591.25C516.465 591.61 516.153 592.12 516.153 592.78C516.153 593.152 516.279 593.47 516.531 593.734C516.783 593.998 517.287 594.262 518.043 594.526C518.811 594.79 519.951 595.114 521.463 595.498C523.011 595.894 524.247 596.35 525.171 596.866C526.107 597.37 526.779 597.976 527.187 598.684C527.607 599.392 527.817 600.25 527.817 601.258C527.817 603.214 527.103 604.75 525.675 605.866C524.259 606.982 522.297 607.54 519.789 607.54ZM537.825 607.54C535.425 607.54 533.475 607 531.975 605.92C530.475 604.84 529.563 603.322 529.239 601.366L533.667 600.682C533.895 601.642 534.399 602.398 535.179 602.95C535.959 603.502 536.943 603.778 538.131 603.778C539.175 603.778 539.979 603.574 540.543 603.166C541.119 602.746 541.407 602.176 541.407 601.456C541.407 601.012 541.299 600.658 541.083 600.394C540.879 600.118 540.423 599.854 539.715 599.602C539.007 599.35 537.921 599.032 536.457 598.648C534.825 598.216 533.529 597.754 532.569 597.262C531.609 596.758 530.919 596.164 530.499 595.48C530.079 594.796 529.869 593.968 529.869 592.996C529.869 591.784 530.187 590.728 530.823 589.828C531.459 588.928 532.347 588.238 533.487 587.758C534.627 587.266 535.971 587.02 537.519 587.02C539.031 587.02 540.369 587.254 541.533 587.722C542.709 588.19 543.657 588.856 544.377 589.72C545.097 590.584 545.541 591.598 545.709 592.762L541.281 593.554C541.173 592.726 540.795 592.072 540.147 591.592C539.511 591.112 538.659 590.842 537.591 590.782C536.571 590.722 535.749 590.878 535.125 591.25C534.501 591.61 534.189 592.12 534.189 592.78C534.189 593.152 534.315 593.47 534.567 593.734C534.819 593.998 535.323 594.262 536.079 594.526C536.847 594.79 537.987 595.114 539.499 595.498C541.047 595.894 542.283 596.35 543.207 596.866C544.143 597.37 544.815 597.976 545.223 598.684C545.643 599.392 545.853 600.25 545.853 601.258C545.853 603.214 545.139 604.75 543.711 605.866C542.295 606.982 540.333 607.54 537.825 607.54ZM553.792 607.54C552.388 607.54 551.2 607.276 550.228 606.748C549.256 606.208 548.518 605.494 548.014 604.606C547.522 603.718 547.276 602.74 547.276 601.672C547.276 600.736 547.432 599.896 547.744 599.152C548.056 598.396 548.536 597.748 549.184 597.208C549.832 596.656 550.672 596.206 551.704 595.858C552.484 595.606 553.396 595.378 554.44 595.174C555.496 594.97 556.636 594.784 557.86 594.616C559.096 594.436 560.386 594.244 561.73 594.04L560.182 594.922C560.194 593.578 559.894 592.588 559.282 591.952C558.67 591.316 557.638 590.998 556.186 590.998C555.31 590.998 554.464 591.202 553.648 591.61C552.832 592.018 552.262 592.72 551.938 593.716L547.978 592.474C548.458 590.83 549.37 589.51 550.714 588.514C552.07 587.518 553.894 587.02 556.186 587.02C557.914 587.02 559.432 587.302 560.74 587.866C562.06 588.43 563.038 589.354 563.674 590.638C564.022 591.322 564.232 592.024 564.304 592.744C564.376 593.452 564.412 594.226 564.412 595.066V607H560.614V602.788L561.244 603.472C560.368 604.876 559.342 605.908 558.166 606.568C557.002 607.216 555.544 607.54 553.792 607.54ZM554.656 604.084C555.64 604.084 556.48 603.91 557.176 603.562C557.872 603.214 558.424 602.788 558.832 602.284C559.252 601.78 559.534 601.306 559.678 600.862C559.906 600.31 560.032 599.68 560.056 598.972C560.092 598.252 560.11 597.67 560.11 597.226L561.442 597.622C560.134 597.826 559.012 598.006 558.076 598.162C557.14 598.318 556.336 598.468 555.664 598.612C554.992 598.744 554.398 598.894 553.882 599.062C553.378 599.242 552.952 599.452 552.604 599.692C552.256 599.932 551.986 600.208 551.794 600.52C551.614 600.832 551.524 601.198 551.524 601.618C551.524 602.098 551.644 602.524 551.884 602.896C552.124 603.256 552.472 603.544 552.928 603.76C553.396 603.976 553.972 604.084 554.656 604.084ZM575.83 616.18C574.75 616.18 573.712 616.012 572.716 615.676C571.732 615.34 570.844 614.854 570.052 614.218C569.26 613.594 568.612 612.838 568.108 611.95L572.104 609.97C572.476 610.678 572.998 611.2 573.67 611.536C574.354 611.884 575.08 612.058 575.848 612.058C576.748 612.058 577.552 611.896 578.26 611.572C578.968 611.26 579.514 610.792 579.898 610.168C580.294 609.556 580.48 608.788 580.456 607.864V602.338H580.996V587.56H584.794V607.936C584.794 608.428 584.77 608.896 584.722 609.34C584.686 609.796 584.62 610.24 584.524 610.672C584.236 611.932 583.684 612.964 582.868 613.768C582.052 614.584 581.038 615.19 579.826 615.586C578.626 615.982 577.294 616.18 575.83 616.18ZM575.452 607.54C573.664 607.54 572.104 607.09 570.772 606.19C569.44 605.29 568.408 604.066 567.676 602.518C566.944 600.97 566.578 599.224 566.578 597.28C566.578 595.312 566.944 593.56 567.676 592.024C568.42 590.476 569.47 589.258 570.826 588.37C572.182 587.47 573.778 587.02 575.614 587.02C577.462 587.02 579.01 587.47 580.258 588.37C581.518 589.258 582.472 590.476 583.12 592.024C583.768 593.572 584.092 595.324 584.092 597.28C584.092 599.212 583.768 600.958 583.12 602.518C582.472 604.066 581.506 605.29 580.222 606.19C578.938 607.09 577.348 607.54 575.452 607.54ZM576.118 603.652C577.282 603.652 578.218 603.388 578.926 602.86C579.646 602.32 580.168 601.57 580.492 600.61C580.828 599.65 580.996 598.54 580.996 597.28C580.996 596.008 580.828 594.898 580.492 593.95C580.168 592.99 579.658 592.246 578.962 591.718C578.266 591.178 577.366 590.908 576.262 590.908C575.098 590.908 574.138 591.196 573.382 591.772C572.626 592.336 572.068 593.104 571.708 594.076C571.348 595.036 571.168 596.104 571.168 597.28C571.168 598.468 571.342 599.548 571.69 600.52C572.05 601.48 572.596 602.242 573.328 602.806C574.06 603.37 574.99 603.652 576.118 603.652ZM588.762 584.608V580.63H593.1V584.608H588.762ZM588.762 607V587.56H593.1V607H588.762ZM610.498 607V597.64C610.498 597.028 610.456 596.35 610.372 595.606C610.288 594.862 610.09 594.148 609.778 593.464C609.478 592.768 609.022 592.198 608.41 591.754C607.81 591.31 606.994 591.088 605.962 591.088C605.41 591.088 604.864 591.178 604.324 591.358C603.784 591.538 603.292 591.85 602.848 592.294C602.416 592.726 602.068 593.326 601.804 594.094C601.54 594.85 601.408 595.822 601.408 597.01L598.834 595.912C598.834 594.256 599.152 592.756 599.788 591.412C600.436 590.068 601.384 589 602.632 588.208C603.88 587.404 605.416 587.002 607.24 587.002C608.68 587.002 609.868 587.242 610.804 587.722C611.74 588.202 612.484 588.814 613.036 589.558C613.588 590.302 613.996 591.094 614.26 591.934C614.524 592.774 614.692 593.572 614.764 594.328C614.848 595.072 614.89 595.678 614.89 596.146V607H610.498ZM597.016 607V587.56H600.886V593.59H601.408V607H597.016ZM626.319 616.18C625.239 616.18 624.201 616.012 623.205 615.676C622.221 615.34 621.333 614.854 620.541 614.218C619.749 613.594 619.101 612.838 618.597 611.95L622.593 609.97C622.965 610.678 623.487 611.2 624.159 611.536C624.843 611.884 625.569 612.058 626.337 612.058C627.237 612.058 628.041 611.896 628.749 611.572C629.457 611.26 630.003 610.792 630.387 610.168C630.783 609.556 630.969 608.788 630.945 607.864V602.338H631.485V587.56H635.283V607.936C635.283 608.428 635.259 608.896 635.211 609.34C635.175 609.796 635.109 610.24 635.013 610.672C634.725 611.932 634.173 612.964 633.357 613.768C632.541 614.584 631.527 615.19 630.315 615.586C629.115 615.982 627.783 616.18 626.319 616.18ZM625.941 607.54C624.153 607.54 622.593 607.09 621.261 606.19C619.929 605.29 618.897 604.066 618.165 602.518C617.433 600.97 617.067 599.224 617.067 597.28C617.067 595.312 617.433 593.56 618.165 592.024C618.909 590.476 619.959 589.258 621.315 588.37C622.671 587.47 624.267 587.02 626.103 587.02C627.951 587.02 629.499 587.47 630.747 588.37C632.007 589.258 632.961 590.476 633.609 592.024C634.257 593.572 634.581 595.324 634.581 597.28C634.581 599.212 634.257 600.958 633.609 602.518C632.961 604.066 631.995 605.29 630.711 606.19C629.427 607.09 627.837 607.54 625.941 607.54ZM626.607 603.652C627.771 603.652 628.707 603.388 629.415 602.86C630.135 602.32 630.657 601.57 630.981 600.61C631.317 599.65 631.485 598.54 631.485 597.28C631.485 596.008 631.317 594.898 630.981 593.95C630.657 592.99 630.147 592.246 629.451 591.718C628.755 591.178 627.855 590.908 626.751 590.908C625.587 590.908 624.627 591.196 623.871 591.772C623.115 592.336 622.557 593.104 622.197 594.076C621.837 595.036 621.657 596.104 621.657 597.28C621.657 598.468 621.831 599.548 622.179 600.52C622.539 601.48 623.085 602.242 623.817 602.806C624.549 603.37 625.479 603.652 626.607 603.652Z" fill="black" fill-opacity="0.6"/>
</g>
<g filter="url(#filter11_bii_182_557)">
<path d="M285 742L152.498 667.5L152.498 518.5L285 444L417.502 518.5L417.502 667.5L285 742Z" fill="url(#paint5_linear_182_557)" fill-opacity="0.7"/>
</g>
<g filter="url(#filter12_i_182_557)">
<path d="M217.853 607V581.08H228.563C228.815 581.08 229.139 581.092 229.535 581.116C229.931 581.128 230.297 581.164 230.633 581.224C232.133 581.452 233.369 581.95 234.341 582.718C235.325 583.486 236.051 584.458 236.519 585.634C236.999 586.798 237.239 588.094 237.239 589.522C237.239 591.634 236.705 593.452 235.637 594.976C234.569 596.488 232.931 597.424 230.723 597.784L228.869 597.946H222.191V607H217.853ZM232.739 607L227.627 596.452L232.037 595.48L237.653 607H232.739ZM222.191 593.896H228.383C228.623 593.896 228.893 593.884 229.193 593.86C229.493 593.836 229.769 593.788 230.021 593.716C230.741 593.536 231.305 593.218 231.713 592.762C232.133 592.306 232.427 591.79 232.595 591.214C232.775 590.638 232.865 590.074 232.865 589.522C232.865 588.97 232.775 588.406 232.595 587.83C232.427 587.242 232.133 586.72 231.713 586.264C231.305 585.808 230.741 585.49 230.021 585.31C229.769 585.238 229.493 585.196 229.193 585.184C228.893 585.16 228.623 585.148 228.383 585.148H222.191V593.896ZM249.017 607.54C247.049 607.54 245.321 607.114 243.833 606.262C242.345 605.41 241.181 604.228 240.341 602.716C239.513 601.204 239.099 599.464 239.099 597.496C239.099 595.372 239.507 593.53 240.323 591.97C241.139 590.398 242.273 589.18 243.725 588.316C245.177 587.452 246.857 587.02 248.765 587.02C250.781 587.02 252.491 587.494 253.895 588.442C255.311 589.378 256.361 590.704 257.045 592.42C257.729 594.136 257.987 596.158 257.819 598.486H253.517V596.902C253.505 594.79 253.133 593.248 252.401 592.276C251.669 591.304 250.517 590.818 248.945 590.818C247.169 590.818 245.849 591.37 244.985 592.474C244.121 593.566 243.689 595.168 243.689 597.28C243.689 599.248 244.121 600.772 244.985 601.852C245.849 602.932 247.109 603.472 248.765 603.472C249.833 603.472 250.751 603.238 251.519 602.77C252.299 602.29 252.899 601.6 253.319 600.7L257.603 601.996C256.859 603.748 255.707 605.11 254.147 606.082C252.599 607.054 250.889 607.54 249.017 607.54ZM242.321 598.486V595.21H255.695V598.486H242.321ZM260.755 607V580.54H265.093V607H260.755ZM274.481 607.54C273.077 607.54 271.889 607.276 270.917 606.748C269.945 606.208 269.207 605.494 268.703 604.606C268.211 603.718 267.965 602.74 267.965 601.672C267.965 600.736 268.121 599.896 268.433 599.152C268.745 598.396 269.225 597.748 269.873 597.208C270.521 596.656 271.361 596.206 272.393 595.858C273.173 595.606 274.085 595.378 275.129 595.174C276.185 594.97 277.325 594.784 278.549 594.616C279.785 594.436 281.075 594.244 282.419 594.04L280.871 594.922C280.883 593.578 280.583 592.588 279.971 591.952C279.359 591.316 278.327 590.998 276.875 590.998C275.999 590.998 275.153 591.202 274.337 591.61C273.521 592.018 272.951 592.72 272.627 593.716L268.667 592.474C269.147 590.83 270.059 589.51 271.403 588.514C272.759 587.518 274.583 587.02 276.875 587.02C278.603 587.02 280.121 587.302 281.429 587.866C282.749 588.43 283.727 589.354 284.363 590.638C284.711 591.322 284.921 592.024 284.993 592.744C285.065 593.452 285.101 594.226 285.101 595.066V607H281.303V602.788L281.933 603.472C281.057 604.876 280.031 605.908 278.855 606.568C277.691 607.216 276.233 607.54 274.481 607.54ZM275.345 604.084C276.329 604.084 277.169 603.91 277.865 603.562C278.561 603.214 279.113 602.788 279.521 602.284C279.941 601.78 280.223 601.306 280.367 600.862C280.595 600.31 280.721 599.68 280.745 598.972C280.781 598.252 280.799 597.67 280.799 597.226L282.131 597.622C280.823 597.826 279.701 598.006 278.765 598.162C277.829 598.318 277.025 598.468 276.353 598.612C275.681 598.744 275.087 598.894 274.571 599.062C274.067 599.242 273.641 599.452 273.293 599.692C272.945 599.932 272.675 600.208 272.483 600.52C272.303 600.832 272.213 601.198 272.213 601.618C272.213 602.098 272.333 602.524 272.573 602.896C272.813 603.256 273.161 603.544 273.617 603.76C274.085 603.976 274.661 604.084 275.345 604.084ZM289.813 615.64L293.557 605.362L293.629 608.386L285.151 587.56H289.669L295.681 602.968H294.529L300.379 587.56H304.717L293.881 615.64H289.813ZM314.096 607.54C312.128 607.54 310.4 607.114 308.912 606.262C307.424 605.41 306.26 604.228 305.42 602.716C304.592 601.204 304.178 599.464 304.178 597.496C304.178 595.372 304.586 593.53 305.402 591.97C306.218 590.398 307.352 589.18 308.804 588.316C310.256 587.452 311.936 587.02 313.844 587.02C315.86 587.02 317.57 587.494 318.974 588.442C320.39 589.378 321.44 590.704 322.124 592.42C322.808 594.136 323.066 596.158 322.898 598.486H318.596V596.902C318.584 594.79 318.212 593.248 317.48 592.276C316.748 591.304 315.596 590.818 314.024 590.818C312.248 590.818 310.928 591.37 310.064 592.474C309.2 593.566 308.768 595.168 308.768 597.28C308.768 599.248 309.2 600.772 310.064 601.852C310.928 602.932 312.188 603.472 313.844 603.472C314.912 603.472 315.83 603.238 316.598 602.77C317.378 602.29 317.978 601.6 318.398 600.7L322.682 601.996C321.938 603.748 320.786 605.11 319.226 606.082C317.678 607.054 315.968 607.54 314.096 607.54ZM307.4 598.486V595.21H320.774V598.486H307.4ZM325.475 607V587.56H329.309V592.294L328.841 591.682C329.081 591.034 329.399 590.446 329.795 589.918C330.203 589.378 330.689 588.934 331.253 588.586C331.733 588.262 332.261 588.01 332.837 587.83C333.425 587.638 334.025 587.524 334.637 587.488C335.249 587.44 335.843 587.464 336.419 587.56V591.61C335.843 591.442 335.177 591.388 334.421 591.448C333.677 591.508 333.005 591.718 332.405 592.078C331.805 592.402 331.313 592.816 330.929 593.32C330.557 593.824 330.281 594.4 330.101 595.048C329.921 595.684 329.831 596.374 329.831 597.118V607H325.475ZM345.216 607.54C342.816 607.54 340.866 607 339.366 605.92C337.866 604.84 336.954 603.322 336.63 601.366L341.058 600.682C341.286 601.642 341.79 602.398 342.57 602.95C343.35 603.502 344.334 603.778 345.522 603.778C346.566 603.778 347.37 603.574 347.934 603.166C348.51 602.746 348.798 602.176 348.798 601.456C348.798 601.012 348.69 600.658 348.474 600.394C348.27 600.118 347.814 599.854 347.106 599.602C346.398 599.35 345.312 599.032 343.848 598.648C342.216 598.216 340.92 597.754 339.96 597.262C339 596.758 338.31 596.164 337.89 595.48C337.47 594.796 337.26 593.968 337.26 592.996C337.26 591.784 337.578 590.728 338.214 589.828C338.85 588.928 339.738 588.238 340.878 587.758C342.018 587.266 343.362 587.02 344.91 587.02C346.422 587.02 347.76 587.254 348.924 587.722C350.1 588.19 351.048 588.856 351.768 589.72C352.488 590.584 352.932 591.598 353.1 592.762L348.672 593.554C348.564 592.726 348.186 592.072 347.538 591.592C346.902 591.112 346.05 590.842 344.982 590.782C343.962 590.722 343.14 590.878 342.516 591.25C341.892 591.61 341.58 592.12 341.58 592.78C341.58 593.152 341.706 593.47 341.958 593.734C342.21 593.998 342.714 594.262 343.47 594.526C344.238 594.79 345.378 595.114 346.89 595.498C348.438 595.894 349.674 596.35 350.598 596.866C351.534 597.37 352.206 597.976 352.614 598.684C353.034 599.392 353.244 600.25 353.244 601.258C353.244 603.214 352.53 604.75 351.102 605.866C349.686 606.982 347.724 607.54 345.216 607.54Z" fill="black" fill-opacity="0.6"/>
</g>
<g filter="url(#filter13_bii_182_557)">
<path d="M153 521L20.4981 446.5L20.4981 297.5L153 223L285.502 297.5L285.502 446.5L153 521Z" fill="url(#paint6_linear_182_557)" fill-opacity="0.7"/>
</g>
<g filter="url(#filter14_i_182_557)">
<path d="M137.819 386L145.991 360.08H152.345L160.517 386H156.053L148.637 362.744H149.609L142.283 386H137.819ZM142.373 380.384V376.334H155.981V380.384H142.373ZM162.691 386V360.08H167.029V386H162.691Z" fill="black" fill-opacity="0.6"/>
</g>
<defs>
<filter id="filter0_bii_182_557" x="261.498" y="199" width="311.004" height="344" filterUnits="userSpaceOnUse" color-interpolation-filters="sRGB">
<feFlood flood-opacity="0" result="BackgroundImageFix"/>
<feGaussianBlur in="BackgroundImageFix" stdDeviation="11.5"/>
<feComposite in2="SourceAlpha" operator="in" result="effect1_backgroundBlur_182_557"/>
<feBlend mode="normal" in="SourceGraphic" in2="effect1_backgroundBlur_182_557" result="shape"/>
<feColorMatrix in="SourceAlpha" type="matrix" values="0 0 0 0 0 0 0 0 0 0 0 0 0 0 0 0 0 0 127 0" result="hardAlpha"/>
<feOffset dy="4"/>
<feGaussianBlur stdDeviation="5"/>
<feComposite in2="hardAlpha" operator="arithmetic" k2="-1" k3="1"/>
<feColorMatrix type="matrix" values="0 0 0 0 1 0 0 0 0 1 0 0 0 0 1 0 0 0 0.25 0"/>
<feBlend mode="normal" in2="shape" result="effect2_innerShadow_182_557"/>
<feColorMatrix in="SourceAlpha" type="matrix" values="0 0 0 0 0 0 0 0 0 0 0 0 0 0 0 0 0 0 127 0" result="hardAlpha"/>
<feOffset dy="-4"/>
<feGaussianBlur stdDeviation="5"/>
<feComposite in2="hardAlpha" operator="arithmetic" k2="-1" k3="1"/>
<feColorMatrix type="matrix" values="0 0 0 0 0 0 0 0 0 0 0 0 0 0 0 0 0 0 0.1 0"/>
<feBlend mode="normal" in2="effect2_innerShadow_182_557" result="effect3_innerShadow_182_557"/>
</filter>
<filter id="filter1_i_182_557" x="377.695" y="340.052" width="78.5635" height="63.3042" filterUnits="userSpaceOnUse" color-interpolation-filters="sRGB">
<feFlood flood-opacity="0" result="BackgroundImageFix"/>
<feBlend mode="normal" in="SourceGraphic" in2="BackgroundImageFix" result="shape"/>
<feColorMatrix in="SourceAlpha" type="matrix" values="0 0 0 0 0 0 0 0 0 0 0 0 0 0 0 0 0 0 127 0" result="hardAlpha"/>
<feOffset dy="3.43113"/>
<feGaussianBlur stdDeviation="1.71557"/>
<feComposite in2="hardAlpha" operator="arithmetic" k2="-1" k3="1"/>
<feColorMatrix type="matrix" values="0 0 0 0 0 0 0 0 0 0 0 0 0 0 0 0 0 0 0.25 0"/>
<feBlend mode="normal" in2="shape" result="effect1_innerShadow_182_557"/>
</filter>
<filter id="filter2_i_182_557" x="374.176" y="336.532" width="85.6035" height="70.3437" filterUnits="userSpaceOnUse" color-interpolation-filters="sRGB">
<feFlood flood-opacity="0" result="BackgroundImageFix"/>
<feBlend mode="normal" in="SourceGraphic" in2="BackgroundImageFix" result="shape"/>
<feColorMatrix in="SourceAlpha" type="matrix" values="0 0 0 0 0 0 0 0 0 0 0 0 0 0 0 0 0 0 127 0" result="hardAlpha"/>
<feOffset dy="3.43113"/>
<feGaussianBlur stdDeviation="1.71557"/>
<feComposite in2="hardAlpha" operator="arithmetic" k2="-1" k3="1"/>
<feColorMatrix type="matrix" values="0 0 0 0 0 0 0 0 0 0 0 0 0 0 0 0 0 0 0.25 0"/>
<feBlend mode="normal" in2="shape" result="effect1_innerShadow_182_557"/>
</filter>
<filter id="filter3_bii_182_557" x="128.498" y="-23" width="311.004" height="344" filterUnits="userSpaceOnUse" color-interpolation-filters="sRGB">
<feFlood flood-opacity="0" result="BackgroundImageFix"/>
<feGaussianBlur in="BackgroundImageFix" stdDeviation="11.5"/>
<feComposite in2="SourceAlpha" operator="in" result="effect1_backgroundBlur_182_557"/>
<feBlend mode="normal" in="SourceGraphic" in2="effect1_backgroundBlur_182_557" result="shape"/>
<feColorMatrix in="SourceAlpha" type="matrix" values="0 0 0 0 0 0 0 0 0 0 0 0 0 0 0 0 0 0 127 0" result="hardAlpha"/>
<feOffset dy="4"/>
<feGaussianBlur stdDeviation="5"/>
<feComposite in2="hardAlpha" operator="arithmetic" k2="-1" k3="1"/>
<feColorMatrix type="matrix" values="0 0 0 0 1 0 0 0 0 1 0 0 0 0 1 0 0 0 0.25 0"/>
<feBlend mode="normal" in2="shape" result="effect2_innerShadow_182_557"/>
<feColorMatrix in="SourceAlpha" type="matrix" values="0 0 0 0 0 0 0 0 0 0 0 0 0 0 0 0 0 0 127 0" result="hardAlpha"/>
<feOffset dy="-4"/>
<feGaussianBlur stdDeviation="5"/>
<feComposite in2="hardAlpha" operator="arithmetic" k2="-1" k3="1"/>
<feColorMatrix type="matrix" values="0 0 0 0 0 0 0 0 0 0 0 0 0 0 0 0 0 0 0.1 0"/>
<feBlend mode="normal" in2="effect2_innerShadow_182_557" result="effect3_innerShadow_182_557"/>
</filter>
<filter id="filter4_i_182_557" x="223.385" y="136.54" width="121.889" height="28" filterUnits="userSpaceOnUse" color-interpolation-filters="sRGB">
<feFlood flood-opacity="0" result="BackgroundImageFix"/>
<feBlend mode="normal" in="SourceGraphic" in2="BackgroundImageFix" result="shape"/>
<feColorMatrix in="SourceAlpha" type="matrix" values="0 0 0 0 0 0 0 0 0 0 0 0 0 0 0 0 0 0 127 0" result="hardAlpha"/>
<feOffset dy="1"/>
<feGaussianBlur stdDeviation="0.5"/>
<feComposite in2="hardAlpha" operator="arithmetic" k2="-1" k3="1"/>
<feColorMatrix type="matrix" values="0 0 0 0 0 0 0 0 0 0 0 0 0 0 0 0 0 0 0.25 0"/>
<feBlend mode="normal" in2="shape" result="effect1_innerShadow_182_557"/>
</filter>
<filter id="filter5_bii_182_557" x="391.498" y="-23" width="311.004" height="344" filterUnits="userSpaceOnUse" color-interpolation-filters="sRGB">
<feFlood flood-opacity="0" result="BackgroundImageFix"/>
<feGaussianBlur in="BackgroundImageFix" stdDeviation="11.5"/>
<feComposite in2="SourceAlpha" operator="in" result="effect1_backgroundBlur_182_557"/>
<feBlend mode="normal" in="SourceGraphic" in2="effect1_backgroundBlur_182_557" result="shape"/>
<feColorMatrix in="SourceAlpha" type="matrix" values="0 0 0 0 0 0 0 0 0 0 0 0 0 0 0 0 0 0 127 0" result="hardAlpha"/>
<feOffset dy="4"/>
<feGaussianBlur stdDeviation="5"/>
<feComposite in2="hardAlpha" operator="arithmetic" k2="-1" k3="1"/>
<feColorMatrix type="matrix" values="0 0 0 0 1 0 0 0 0 1 0 0 0 0 1 0 0 0 0.25 0"/>
<feBlend mode="normal" in2="shape" result="effect2_innerShadow_182_557"/>
<feColorMatrix in="SourceAlpha" type="matrix" values="0 0 0 0 0 0 0 0 0 0 0 0 0 0 0 0 0 0 127 0" result="hardAlpha"/>
<feOffset dy="-4"/>
<feGaussianBlur stdDeviation="5"/>
<feComposite in2="hardAlpha" operator="arithmetic" k2="-1" k3="1"/>
<feColorMatrix type="matrix" values="0 0 0 0 0 0 0 0 0 0 0 0 0 0 0 0 0 0 0.1 0"/>
<feBlend mode="normal" in2="effect2_innerShadow_182_557" result="effect3_innerShadow_182_557"/>
</filter>
<filter id="filter6_i_182_557" x="451.147" y="136.63" width="191.248" height="27.9282" filterUnits="userSpaceOnUse" color-interpolation-filters="sRGB">
<feFlood flood-opacity="0" result="BackgroundImageFix"/>
<feBlend mode="normal" in="SourceGraphic" in2="BackgroundImageFix" result="shape"/>
<feColorMatrix in="SourceAlpha" type="matrix" values="0 0 0 0 0 0 0 0 0 0 0 0 0 0 0 0 0 0 127 0" result="hardAlpha"/>
<feOffset dy="1"/>
<feGaussianBlur stdDeviation="0.5"/>
<feComposite in2="hardAlpha" operator="arithmetic" k2="-1" k3="1"/>
<feColorMatrix type="matrix" values="0 0 0 0 0 0 0 0 0 0 0 0 0 0 0 0 0 0 0.25 0"/>
<feBlend mode="normal" in2="shape" result="effect1_innerShadow_182_557"/>
</filter>
<filter id="filter7_bii_182_557" x="525.498" y="199" width="311.004" height="344" filterUnits="userSpaceOnUse" color-interpolation-filters="sRGB">
<feFlood flood-opacity="0" result="BackgroundImageFix"/>
<feGaussianBlur in="BackgroundImageFix" stdDeviation="11.5"/>
<feComposite in2="SourceAlpha" operator="in" result="effect1_backgroundBlur_182_557"/>
<feBlend mode="normal" in="SourceGraphic" in2="effect1_backgroundBlur_182_557" result="shape"/>
<feColorMatrix in="SourceAlpha" type="matrix" values="0 0 0 0 0 0 0 0 0 0 0 0 0 0 0 0 0 0 127 0" result="hardAlpha"/>
<feOffset dy="4"/>
<feGaussianBlur stdDeviation="5"/>
<feComposite in2="hardAlpha" operator="arithmetic" k2="-1" k3="1"/>
<feColorMatrix type="matrix" values="0 0 0 0 1 0 0 0 0 1 0 0 0 0 1 0 0 0 0.25 0"/>
<feBlend mode="normal" in2="shape" result="effect2_innerShadow_182_557"/>
<feColorMatrix in="SourceAlpha" type="matrix" values="0 0 0 0 0 0 0 0 0 0 0 0 0 0 0 0 0 0 127 0" result="hardAlpha"/>
<feOffset dy="-4"/>
<feGaussianBlur stdDeviation="5"/>
<feComposite in2="hardAlpha" operator="arithmetic" k2="-1" k3="1"/>
<feColorMatrix type="matrix" values="0 0 0 0 0 0 0 0 0 0 0 0 0 0 0 0 0 0 0.1 0"/>
<feBlend mode="normal" in2="effect2_innerShadow_182_557" result="effect3_innerShadow_182_557"/>
</filter>
<filter id="filter8_i_182_557" x="583.704" y="358.54" width="194.584" height="36.6399" filterUnits="userSpaceOnUse" color-interpolation-filters="sRGB">
<feFlood flood-opacity="0" result="BackgroundImageFix"/>
<feBlend mode="normal" in="SourceGraphic" in2="BackgroundImageFix" result="shape"/>
<feColorMatrix in="SourceAlpha" type="matrix" values="0 0 0 0 0 0 0 0 0 0 0 0 0 0 0 0 0 0 127 0" result="hardAlpha"/>
<feOffset dy="1"/>
<feGaussianBlur stdDeviation="0.5"/>
<feComposite in2="hardAlpha" operator="arithmetic" k2="-1" k3="1"/>
<feColorMatrix type="matrix" values="0 0 0 0 0 0 0 0 0 0 0 0 0 0 0 0 0 0 0.25 0"/>
<feBlend mode="normal" in2="shape" result="effect1_innerShadow_182_557"/>
</filter>
<filter id="filter9_bii_182_557" x="393.498" y="421" width="311.004" height="344" filterUnits="userSpaceOnUse" color-interpolation-filters="sRGB">
<feFlood flood-opacity="0" result="BackgroundImageFix"/>
<feGaussianBlur in="BackgroundImageFix" stdDeviation="11.5"/>
<feComposite in2="SourceAlpha" operator="in" result="effect1_backgroundBlur_182_557"/>
<feBlend mode="normal" in="SourceGraphic" in2="effect1_backgroundBlur_182_557" result="shape"/>
<feColorMatrix in="SourceAlpha" type="matrix" values="0 0 0 0 0 0 0 0 0 0 0 0 0 0 0 0 0 0 127 0" result="hardAlpha"/>
<feOffset dy="4"/>
<feGaussianBlur stdDeviation="5"/>
<feComposite in2="hardAlpha" operator="arithmetic" k2="-1" k3="1"/>
<feColorMatrix type="matrix" values="0 0 0 0 1 0 0 0 0 1 0 0 0 0 1 0 0 0 0.25 0"/>
<feBlend mode="normal" in2="shape" result="effect2_innerShadow_182_557"/>
<feColorMatrix in="SourceAlpha" type="matrix" values="0 0 0 0 0 0 0 0 0 0 0 0 0 0 0 0 0 0 127 0" result="hardAlpha"/>
<feOffset dy="-4"/>
<feGaussianBlur stdDeviation="5"/>
<feComposite in2="hardAlpha" operator="arithmetic" k2="-1" k3="1"/>
<feColorMatrix type="matrix" values="0 0 0 0 0 0 0 0 0 0 0 0 0 0 0 0 0 0 0.1 0"/>
<feBlend mode="normal" in2="effect2_innerShadow_182_557" result="effect3_innerShadow_182_557"/>
</filter>
<filter id="filter10_i_182_557" x="462.71" y="580.63" width="172.573" height="36.55" filterUnits="userSpaceOnUse" color-interpolation-filters="sRGB">
<feFlood flood-opacity="0" result="BackgroundImageFix"/>
<feBlend mode="normal" in="SourceGraphic" in2="BackgroundImageFix" result="shape"/>
<feColorMatrix in="SourceAlpha" type="matrix" values="0 0 0 0 0 0 0 0 0 0 0 0 0 0 0 0 0 0 127 0" result="hardAlpha"/>
<feOffset dy="1"/>
<feGaussianBlur stdDeviation="0.5"/>
<feComposite in2="hardAlpha" operator="arithmetic" k2="-1" k3="1"/>
<feColorMatrix type="matrix" values="0 0 0 0 0 0 0 0 0 0 0 0 0 0 0 0 0 0 0.25 0"/>
<feBlend mode="normal" in2="shape" result="effect1_innerShadow_182_557"/>
</filter>
<filter id="filter11_bii_182_557" x="129.498" y="421" width="311.004" height="344" filterUnits="userSpaceOnUse" color-interpolation-filters="sRGB">
<feFlood flood-opacity="0" result="BackgroundImageFix"/>
<feGaussianBlur in="BackgroundImageFix" stdDeviation="11.5"/>
<feComposite in2="SourceAlpha" operator="in" result="effect1_backgroundBlur_182_557"/>
<feBlend mode="normal" in="SourceGraphic" in2="effect1_backgroundBlur_182_557" result="shape"/>
<feColorMatrix in="SourceAlpha" type="matrix" values="0 0 0 0 0 0 0 0 0 0 0 0 0 0 0 0 0 0 127 0" result="hardAlpha"/>
<feOffset dy="4"/>
<feGaussianBlur stdDeviation="5"/>
<feComposite in2="hardAlpha" operator="arithmetic" k2="-1" k3="1"/>
<feColorMatrix type="matrix" values="0 0 0 0 1 0 0 0 0 1 0 0 0 0 1 0 0 0 0.25 0"/>
<feBlend mode="normal" in2="shape" result="effect2_innerShadow_182_557"/>
<feColorMatrix in="SourceAlpha" type="matrix" values="0 0 0 0 0 0 0 0 0 0 0 0 0 0 0 0 0 0 127 0" result="hardAlpha"/>
<feOffset dy="-4"/>
<feGaussianBlur stdDeviation="5"/>
<feComposite in2="hardAlpha" operator="arithmetic" k2="-1" k3="1"/>
<feColorMatrix type="matrix" values="0 0 0 0 0 0 0 0 0 0 0 0 0 0 0 0 0 0 0.1 0"/>
<feBlend mode="normal" in2="effect2_innerShadow_182_557" result="effect3_innerShadow_182_557"/>
</filter>
<filter id="filter12_i_182_557" x="217.853" y="580.54" width="135.392" height="36.0999" filterUnits="userSpaceOnUse" color-interpolation-filters="sRGB">
<feFlood flood-opacity="0" result="BackgroundImageFix"/>
<feBlend mode="normal" in="SourceGraphic" in2="BackgroundImageFix" result="shape"/>
<feColorMatrix in="SourceAlpha" type="matrix" values="0 0 0 0 0 0 0 0 0 0 0 0 0 0 0 0 0 0 127 0" result="hardAlpha"/>
<feOffset dy="1"/>
<feGaussianBlur stdDeviation="0.5"/>
<feComposite in2="hardAlpha" operator="arithmetic" k2="-1" k3="1"/>
<feColorMatrix type="matrix" values="0 0 0 0 0 0 0 0 0 0 0 0 0 0 0 0 0 0 0.25 0"/>
<feBlend mode="normal" in2="shape" result="effect1_innerShadow_182_557"/>
</filter>
<filter id="filter13_bii_182_557" x="-2.50195" y="200" width="311.004" height="344" filterUnits="userSpaceOnUse" color-interpolation-filters="sRGB">
<feFlood flood-opacity="0" result="BackgroundImageFix"/>
<feGaussianBlur in="BackgroundImageFix" stdDeviation="11.5"/>
<feComposite in2="SourceAlpha" operator="in" result="effect1_backgroundBlur_182_557"/>
<feBlend mode="normal" in="SourceGraphic" in2="effect1_backgroundBlur_182_557" result="shape"/>
<feColorMatrix in="SourceAlpha" type="matrix" values="0 0 0 0 0 0 0 0 0 0 0 0 0 0 0 0 0 0 127 0" result="hardAlpha"/>
<feOffset dy="4"/>
<feGaussianBlur stdDeviation="5"/>
<feComposite in2="hardAlpha" operator="arithmetic" k2="-1" k3="1"/>
<feColorMatrix type="matrix" values="0 0 0 0 1 0 0 0 0 1 0 0 0 0 1 0 0 0 0.25 0"/>
<feBlend mode="normal" in2="shape" result="effect2_innerShadow_182_557"/>
<feColorMatrix in="SourceAlpha" type="matrix" values="0 0 0 0 0 0 0 0 0 0 0 0 0 0 0 0 0 0 127 0" result="hardAlpha"/>
<feOffset dy="-4"/>
<feGaussianBlur stdDeviation="5"/>
<feComposite in2="hardAlpha" operator="arithmetic" k2="-1" k3="1"/>
<feColorMatrix type="matrix" values="0 0 0 0 0 0 0 0 0 0 0 0 0 0 0 0 0 0 0.1 0"/>
<feBlend mode="normal" in2="effect2_innerShadow_182_557" result="effect3_innerShadow_182_557"/>
</filter>
<filter id="filter14_i_182_557" x="137.819" y="360.08" width="29.21" height="26.9199" filterUnits="userSpaceOnUse" color-interpolation-filters="sRGB">
<feFlood flood-opacity="0" result="BackgroundImageFix"/>
<feBlend mode="normal" in="SourceGraphic" in2="BackgroundImageFix" result="shape"/>
<feColorMatrix in="SourceAlpha" type="matrix" values="0 0 0 0 0 0 0 0 0 0 0 0 0 0 0 0 0 0 127 0" result="hardAlpha"/>
<feOffset dy="1"/>
<feGaussianBlur stdDeviation="0.5"/>
<feComposite in2="hardAlpha" operator="arithmetic" k2="-1" k3="1"/>
<feColorMatrix type="matrix" values="0 0 0 0 0 0 0 0 0 0 0 0 0 0 0 0 0 0 0.25 0"/>
<feBlend mode="normal" in2="shape" result="effect1_innerShadow_182_557"/>
</filter>
<linearGradient id="paint0_linear_182_557" x1="339.5" y1="232" x2="490.5" y2="493" gradientUnits="userSpaceOnUse">
<stop stop-color="#D8B4FE"/>
<stop offset="1" stop-color="#CFFAFE" stop-opacity="0"/>
</linearGradient>
<linearGradient id="paint1_linear_182_557" x1="206.5" y1="9.99998" x2="357.5" y2="271" gradientUnits="userSpaceOnUse">
<stop stop-color="#D8B4FE"/>
<stop offset="1" stop-color="#CFFAFE" stop-opacity="0"/>
</linearGradient>
<linearGradient id="paint2_linear_182_557" x1="469.5" y1="9.99998" x2="620.5" y2="271" gradientUnits="userSpaceOnUse">
<stop stop-color="#D8B4FE"/>
<stop offset="1" stop-color="#CFFAFE" stop-opacity="0"/>
</linearGradient>
<linearGradient id="paint3_linear_182_557" x1="603.5" y1="232" x2="754.5" y2="493" gradientUnits="userSpaceOnUse">
<stop stop-color="#D8B4FE"/>
<stop offset="1" stop-color="#CFFAFE" stop-opacity="0"/>
</linearGradient>
<linearGradient id="paint4_linear_182_557" x1="471.5" y1="454" x2="622.5" y2="715" gradientUnits="userSpaceOnUse">
<stop stop-color="#D8B4FE"/>
<stop offset="1" stop-color="#CFFAFE" stop-opacity="0"/>
</linearGradient>
<linearGradient id="paint5_linear_182_557" x1="207.5" y1="454" x2="358.5" y2="715" gradientUnits="userSpaceOnUse">
<stop stop-color="#D8B4FE"/>
<stop offset="1" stop-color="#CFFAFE" stop-opacity="0"/>
</linearGradient>
<linearGradient id="paint6_linear_182_557" x1="75.5" y1="233" x2="226.5" y2="494" gradientUnits="userSpaceOnUse">
<stop stop-color="#D8B4FE"/>
<stop offset="1" stop-color="#CFFAFE" stop-opacity="0"/>
</linearGradient>
</defs>
</svg>
