<svg width="506" height="451" viewBox="0 0 506 451" fill="none" xmlns="http://www.w3.org/2000/svg">
<g filter="url(#filter0_bii_182_557)">
<path d="M253 315.491L172.609 270.291L172.609 179.891L253 134.691L333.391 179.891L333.391 270.291L253 315.491Z" fill="url(#paint0_linear_182_557)" fill-opacity="0.7"/>
</g>
<g filter="url(#filter1_i_182_557)">
<path d="M229.153 213.426V206.314H276.819V213.426H229.153ZM229.153 228.033V220.922H276.819V228.033H229.153ZM229.153 242.64V235.529H248.117V242.64H229.153ZM257.855 242.64V235.529H276.819V242.64H257.855Z" fill="black" fill-opacity="0.6"/>
</g>
<g filter="url(#filter2_i_182_557)">
<path fill-rule="evenodd" clip-rule="evenodd" d="M227.019 215.561V204.179H278.955V215.561H227.019ZM227.019 230.168V218.786H278.955V230.168H227.019ZM227.019 244.776V233.393H250.253V244.776H227.019ZM255.72 244.776V233.393H278.955V244.776H255.72ZM229.154 213.426H276.82V206.314H229.154V213.426ZM229.154 228.033H276.82V220.921H229.154V228.033ZM229.154 242.64H248.118V235.529H229.154V242.64ZM257.856 242.64H276.82V235.529H257.856V242.64Z" fill="black" fill-opacity="0.6"/>
</g>
<g filter="url(#filter3_bii_182_557)">
<path d="M172.307 180.801L91.9157 135.601L91.9158 45.2001L172.307 -5.38916e-05L252.697 45.2002L252.697 135.601L172.307 180.801Z" fill="url(#paint1_linear_182_557)" fill-opacity="0.7"/>
</g>
<g filter="url(#filter4_i_182_557)">
<path d="M143.135 99.167C141.563 99.167 140.216 98.8248 139.094 98.1404C137.973 97.4488 137.111 96.4877 136.506 95.2573C135.909 94.0269 135.611 92.5999 135.611 90.9763C135.611 89.3528 135.909 87.9258 136.506 86.6954C137.111 85.4649 137.973 84.5076 139.094 83.8232C140.216 83.1315 141.563 82.7857 143.135 82.7857C144.708 82.7857 146.055 83.1315 147.176 83.8232C148.304 84.5076 149.167 85.4649 149.764 86.6954C150.368 87.9258 150.671 89.3528 150.671 90.9763C150.671 92.5999 150.368 94.0269 149.764 95.2573C149.167 96.4877 148.304 97.4488 147.176 98.1404C146.055 98.8248 144.708 99.167 143.135 99.167ZM143.135 96.6879C144.191 96.6952 145.068 96.4622 145.767 95.989C146.473 95.5158 147.001 94.8496 147.351 93.9905C147.707 93.1314 147.886 92.1267 147.886 90.9763C147.886 89.826 147.707 88.8286 147.351 87.984C147.001 87.1322 146.473 86.4697 145.767 85.9964C145.068 85.5232 144.191 85.2793 143.135 85.2647C142.079 85.2575 141.202 85.4904 140.503 85.9637C139.804 86.4369 139.276 87.1031 138.92 87.9622C138.57 88.8213 138.396 89.826 138.396 90.9763C138.396 92.1267 138.57 93.1277 138.92 93.9796C139.269 94.8241 139.793 95.483 140.492 95.9562C141.199 96.4295 142.079 96.6734 143.135 96.6879ZM151.971 98.8394V87.0448H154.297V89.917L154.013 89.5457C154.158 89.1526 154.351 88.7958 154.592 88.4755C154.839 88.1478 155.134 87.8785 155.476 87.6673C155.767 87.4707 156.088 87.3179 156.437 87.2086C156.794 87.0922 157.158 87.023 157.529 87.0011C157.901 86.972 158.261 86.9866 158.611 87.0448V89.502C158.261 89.4001 157.857 89.3673 157.398 89.4037C156.947 89.4401 156.539 89.5675 156.175 89.786C155.811 89.9825 155.513 90.2337 155.28 90.5395C155.054 90.8453 154.887 91.1948 154.777 91.5879C154.668 91.9738 154.614 92.3924 154.614 92.8438V98.8394H151.971ZM162.842 99.167C161.99 99.167 161.269 99.0068 160.679 98.6865C160.09 98.3588 159.642 97.9256 159.336 97.3869C159.038 96.8481 158.888 96.2548 158.888 95.6068C158.888 95.0389 158.983 94.5293 159.172 94.0779C159.362 93.6192 159.653 93.226 160.046 92.8984C160.439 92.5635 160.949 92.2905 161.575 92.0793C162.048 91.9265 162.601 91.7881 163.235 91.6644C163.876 91.5406 164.567 91.4277 165.31 91.3258C166.06 91.2166 166.842 91.1001 167.658 90.9763L166.719 91.5115C166.726 90.696 166.544 90.0954 166.173 89.7095C165.801 89.3236 165.175 89.1307 164.294 89.1307C163.763 89.1307 163.249 89.2545 162.754 89.502C162.259 89.7496 161.913 90.1755 161.717 90.7798L159.314 90.0262C159.605 89.0288 160.159 88.2279 160.974 87.6236C161.797 87.0193 162.904 86.7172 164.294 86.7172C165.343 86.7172 166.264 86.8883 167.057 87.2305C167.858 87.5727 168.451 88.1333 168.837 88.9123C169.048 89.3273 169.176 89.7532 169.219 90.19C169.263 90.6196 169.285 91.0892 169.285 91.5988V98.8394H166.981V96.2839L167.363 96.6989C166.831 97.5507 166.209 98.1768 165.495 98.5773C164.789 98.9704 163.905 99.167 162.842 99.167ZM163.366 97.0702C163.963 97.0702 164.473 96.9646 164.895 96.7535C165.317 96.5423 165.652 96.2839 165.9 95.9781C166.154 95.6723 166.325 95.3847 166.413 95.1153C166.551 94.7804 166.628 94.3982 166.642 93.9687C166.664 93.5318 166.675 93.1787 166.675 92.9093L167.483 93.1496C166.689 93.2734 166.009 93.3826 165.441 93.4772C164.873 93.5719 164.385 93.6629 163.977 93.7502C163.57 93.8303 163.209 93.9213 162.896 94.0233C162.591 94.1325 162.332 94.2599 162.121 94.4055C161.91 94.5511 161.746 94.7186 161.629 94.9078C161.52 95.0971 161.466 95.3192 161.466 95.574C161.466 95.8652 161.538 96.1237 161.684 96.3494C161.83 96.5678 162.041 96.7426 162.317 96.8736C162.601 97.0047 162.951 97.0702 163.366 97.0702ZM176.376 99.167C175.161 99.167 174.123 98.8976 173.264 98.3588C172.405 97.8128 171.746 97.0702 171.287 96.131C170.836 95.1918 170.607 94.1288 170.599 92.9421C170.607 91.7335 170.843 90.6633 171.309 89.7314C171.782 88.7922 172.452 88.0568 173.319 87.5253C174.185 86.9866 175.215 86.7172 176.409 86.7172C177.749 86.7172 178.881 87.0558 179.806 87.7328C180.737 88.4027 181.345 89.32 181.629 90.4849L179.008 91.1948C178.804 90.5613 178.466 90.0699 177.993 89.7204C177.519 89.3637 176.981 89.1853 176.376 89.1853C175.692 89.1853 175.128 89.3491 174.684 89.6768C174.24 89.9971 173.912 90.4412 173.701 91.0091C173.49 91.577 173.384 92.2213 173.384 92.9421C173.384 94.0633 173.635 94.9697 174.138 95.6614C174.64 96.353 175.386 96.6989 176.376 96.6989C177.075 96.6989 177.625 96.5387 178.025 96.2184C178.433 95.898 178.739 95.4357 178.943 94.8314L181.629 95.432C181.265 96.6333 180.628 97.558 179.718 98.2059C178.808 98.8466 177.694 99.167 176.376 99.167ZM182.843 98.8394V82.7857H185.474V98.8394H182.843ZM193.234 99.167C192.04 99.167 190.992 98.9085 190.089 98.3916C189.186 97.8747 188.48 97.1575 187.97 96.2402C187.468 95.3228 187.217 94.2672 187.217 93.0731C187.217 91.7845 187.464 90.6669 187.959 89.7204C188.455 88.7667 189.143 88.0277 190.024 87.5035C190.904 86.9793 191.924 86.7172 193.081 86.7172C194.305 86.7172 195.342 87.0048 196.194 87.58C197.053 88.1478 197.69 88.9523 198.105 89.9935C198.52 91.0346 198.676 92.2614 198.575 93.6738H195.964V92.7128C195.957 91.4314 195.732 90.4958 195.287 89.9061C194.843 89.3164 194.144 89.0215 193.191 89.0215C192.113 89.0215 191.312 89.3564 190.788 90.0262C190.264 90.6888 190.002 91.6607 190.002 92.9421C190.002 94.1361 190.264 95.0607 190.788 95.716C191.312 96.3712 192.077 96.6989 193.081 96.6989C193.729 96.6989 194.286 96.5569 194.752 96.273C195.226 95.9817 195.59 95.5631 195.844 95.0171L198.444 95.8034C197.992 96.8663 197.293 97.6927 196.347 98.2824C195.408 98.8721 194.37 99.167 193.234 99.167ZM189.172 93.6738V91.6862H197.286V93.6738H189.172ZM204.692 99.167C203.235 99.167 202.052 98.8394 201.142 98.1841C200.232 97.5289 199.679 96.6079 199.482 95.4211L202.169 95.0061C202.307 95.5886 202.613 96.0473 203.086 96.3822C203.559 96.7171 204.156 96.8845 204.877 96.8845C205.511 96.8845 205.998 96.7608 206.341 96.5132C206.69 96.2584 206.865 95.9126 206.865 95.4757C206.865 95.2064 206.799 94.9916 206.668 94.8314C206.545 94.6639 206.268 94.5038 205.838 94.3509C205.409 94.198 204.75 94.0051 203.862 93.7721C202.871 93.51 202.085 93.2297 201.503 92.9312C200.92 92.6254 200.502 92.265 200.247 91.85C199.992 91.435 199.865 90.9327 199.865 90.3429C199.865 89.6076 200.058 88.9669 200.443 88.4209C200.829 87.8748 201.368 87.4562 202.06 87.165C202.751 86.8665 203.567 86.7172 204.506 86.7172C205.423 86.7172 206.235 86.8592 206.941 87.1431C207.655 87.4271 208.23 87.8311 208.667 88.3553C209.104 88.8795 209.373 89.4947 209.475 90.201L206.788 90.6815C206.723 90.1791 206.494 89.7823 206.1 89.4911C205.715 89.1999 205.198 89.0361 204.55 88.9997C203.931 88.9633 203.432 89.0579 203.053 89.2836C202.675 89.502 202.486 89.8114 202.486 90.2119C202.486 90.4376 202.562 90.6305 202.715 90.7907C202.868 90.9509 203.174 91.111 203.632 91.2712C204.098 91.4314 204.79 91.628 205.707 91.8609C206.646 92.1012 207.396 92.3778 207.957 92.6909C208.525 92.9967 208.933 93.3644 209.18 93.7939C209.435 94.2235 209.562 94.744 209.562 95.3556C209.562 96.5423 209.129 97.4742 208.263 98.1513C207.404 98.8284 206.213 99.167 204.692 99.167Z" fill="black" fill-opacity="0.6"/>
</g>
<g filter="url(#filter5_bii_182_557)">
<path d="M331.873 180.801L251.482 135.601L251.482 45.2001L331.873 -5.38916e-05L412.264 45.2002L412.264 135.601L331.873 180.801Z" fill="url(#paint2_linear_182_557)" fill-opacity="0.7"/>
</g>
<g filter="url(#filter6_i_182_557)">
<path d="M273.564 98.8394L278.522 83.1133H282.377L287.335 98.8394H284.627L280.127 84.7296H280.717L276.272 98.8394H273.564ZM276.327 95.432V92.9749H284.583V95.432H276.327ZM292.859 99.1779C291.985 99.1779 291.264 99.0323 290.696 98.7411C290.129 98.4498 289.677 98.0785 289.342 97.6271C289.007 97.1757 288.76 96.6952 288.6 96.1856C288.44 95.6759 288.334 95.1954 288.283 94.744C288.239 94.2854 288.217 93.914 288.217 93.6301V87.0448H290.882V92.7237C290.882 93.0877 290.908 93.4991 290.959 93.9577C291.01 94.4091 291.126 94.846 291.308 95.2682C291.497 95.6832 291.774 96.0254 292.138 96.2948C292.509 96.5642 293.008 96.6989 293.634 96.6989C293.969 96.6989 294.3 96.6443 294.628 96.5351C294.956 96.4258 295.25 96.2402 295.513 95.9781C295.782 95.7087 295.997 95.341 296.157 94.8751C296.317 94.4091 296.397 93.8194 296.397 93.1059L297.959 93.7721C297.959 94.7768 297.762 95.6869 297.369 96.5023C296.983 97.3177 296.412 97.9693 295.655 98.4571C294.897 98.9376 293.965 99.1779 292.859 99.1779ZM296.714 98.8394V95.1809H296.397V87.0448H299.04V98.8394H296.714ZM308.148 98.8394C307.368 98.985 306.604 99.0469 305.854 99.025C305.112 99.0104 304.445 98.8758 303.856 98.6209C303.266 98.3588 302.818 97.9475 302.512 97.3869C302.243 96.8772 302.101 96.3567 302.086 95.8252C302.072 95.2937 302.065 94.6931 302.065 94.0233V83.7686H304.686V93.8704C304.686 94.3436 304.689 94.7586 304.697 95.1153C304.711 95.4721 304.788 95.7633 304.926 95.989C305.188 96.4258 305.607 96.6697 306.182 96.7207C306.757 96.7717 307.412 96.7426 308.148 96.6333V98.8394ZM299.924 89.1089V87.0448H308.148V89.1089H299.924ZM314.422 99.167C313.243 99.167 312.212 98.9012 311.331 98.3698C310.451 97.8383 309.766 97.1066 309.278 96.1747C308.798 95.2355 308.558 94.1579 308.558 92.9421C308.558 91.7044 308.805 90.6196 309.3 89.6877C309.795 88.7558 310.483 88.0277 311.364 87.5035C312.245 86.9793 313.264 86.7172 314.422 86.7172C315.609 86.7172 316.643 86.9829 317.524 87.5144C318.405 88.0459 319.089 88.7812 319.577 89.7204C320.064 90.6524 320.308 91.7262 320.308 92.9421C320.308 94.1652 320.061 95.2464 319.566 96.1856C319.078 97.1175 318.394 97.8492 317.513 98.3807C316.632 98.9049 315.602 99.167 314.422 99.167ZM314.422 96.6989C315.47 96.6989 316.249 96.3494 316.759 95.6505C317.269 94.9515 317.524 94.0487 317.524 92.9421C317.524 91.799 317.265 90.889 316.748 90.2119C316.231 89.5275 315.456 89.1853 314.422 89.1853C313.716 89.1853 313.133 89.3455 312.675 89.6658C312.223 89.9789 311.888 90.4194 311.67 90.9873C311.452 91.5479 311.342 92.1995 311.342 92.9421C311.342 94.0851 311.601 94.9989 312.118 95.6832C312.642 96.3603 313.41 96.6989 314.422 96.6989ZM336.005 98.8394V91.6753C336.005 90.8671 335.805 90.2374 335.405 89.786C335.004 89.3273 334.462 89.098 333.777 89.098C333.355 89.098 332.977 89.1962 332.642 89.3928C332.307 89.5821 332.041 89.8661 331.844 90.2446C331.648 90.616 331.55 91.0601 331.55 91.577L330.381 90.889C330.374 90.0735 330.556 89.3564 330.927 88.7376C331.306 88.1114 331.815 87.6236 332.456 87.2742C333.097 86.9247 333.81 86.75 334.596 86.75C335.9 86.75 336.897 87.1431 337.589 87.9294C338.288 88.7084 338.637 89.735 338.637 91.0091V98.8394H336.005ZM321.819 98.8394V87.0448H324.145V90.7033H324.473V98.8394H321.819ZM328.929 98.8394V91.708C328.929 90.8853 328.728 90.2446 328.328 89.786C327.927 89.3273 327.381 89.098 326.69 89.098C326.02 89.098 325.481 89.3273 325.073 89.786C324.673 90.2446 324.473 90.8416 324.473 91.577L323.293 90.7907C323.293 90.0262 323.483 89.3382 323.861 88.7266C324.24 88.1151 324.749 87.6346 325.39 87.2851C326.038 86.9283 326.763 86.75 327.563 86.75C328.444 86.75 329.18 86.9393 329.769 87.3179C330.366 87.6892 330.811 88.1988 331.102 88.8468C331.4 89.4875 331.55 90.2119 331.55 91.02V98.8394H328.929ZM343.91 99.167C343.058 99.167 342.337 99.0068 341.748 98.6865C341.158 98.3588 340.71 97.9256 340.404 97.3869C340.106 96.8481 339.957 96.2548 339.957 95.6068C339.957 95.0389 340.051 94.5293 340.241 94.0779C340.43 93.6192 340.721 93.226 341.114 92.8984C341.507 92.5635 342.017 92.2905 342.643 92.0793C343.116 91.9265 343.67 91.7881 344.303 91.6644C344.944 91.5406 345.636 91.4277 346.378 91.3258C347.128 91.2166 347.911 91.1001 348.726 90.9763L347.787 91.5115C347.794 90.696 347.612 90.0954 347.241 89.7095C346.87 89.3236 346.243 89.1307 345.363 89.1307C344.831 89.1307 344.318 89.2545 343.823 89.502C343.328 89.7496 342.982 90.1755 342.785 90.7798L340.383 90.0262C340.674 89.0288 341.227 88.2279 342.043 87.6236C342.865 87.0193 343.972 86.7172 345.363 86.7172C346.411 86.7172 347.332 86.8883 348.126 87.2305C348.926 87.5727 349.52 88.1333 349.906 88.9123C350.117 89.3273 350.244 89.7532 350.288 90.19C350.332 90.6196 350.353 91.0892 350.353 91.5988V98.8394H348.049V96.2839L348.431 96.6989C347.9 97.5507 347.277 98.1768 346.564 98.5773C345.858 98.9704 344.973 99.167 343.91 99.167ZM344.434 97.0702C345.031 97.0702 345.541 96.9646 345.963 96.7535C346.385 96.5423 346.72 96.2839 346.968 95.9781C347.223 95.6723 347.394 95.3847 347.481 95.1153C347.62 94.7804 347.696 94.3982 347.711 93.9687C347.732 93.5318 347.743 93.1787 347.743 92.9093L348.551 93.1496C347.758 93.2734 347.077 93.3826 346.509 93.4772C345.941 93.5719 345.454 93.6629 345.046 93.7502C344.638 93.8303 344.278 93.9213 343.965 94.0233C343.659 94.1325 343.4 94.2599 343.189 94.4055C342.978 94.5511 342.814 94.7186 342.698 94.9078C342.589 95.0971 342.534 95.3192 342.534 95.574C342.534 95.8652 342.607 96.1237 342.752 96.3494C342.898 96.5678 343.109 96.7426 343.386 96.8736C343.67 97.0047 344.019 97.0702 344.434 97.0702ZM359.236 98.8394C358.457 98.985 357.692 99.0469 356.942 99.025C356.2 99.0104 355.534 98.8758 354.944 98.6209C354.354 98.3588 353.906 97.9475 353.601 97.3869C353.331 96.8772 353.189 96.3567 353.175 95.8252C353.16 95.2937 353.153 94.6931 353.153 94.0233V83.7686H355.774V93.8704C355.774 94.3436 355.778 94.7586 355.785 95.1153C355.799 95.4721 355.876 95.7633 356.014 95.989C356.276 96.4258 356.695 96.6697 357.27 96.7207C357.845 96.7717 358.5 96.7426 359.236 96.6333V98.8394ZM351.012 89.1089V87.0448H359.236V89.1089H351.012ZM361.117 85.2538V82.8403H363.749V85.2538H361.117ZM361.117 98.8394V87.0448H363.749V98.8394H361.117ZM371.356 99.167C370.176 99.167 369.146 98.9012 368.265 98.3698C367.384 97.8383 366.7 97.1066 366.212 96.1747C365.731 95.2355 365.491 94.1579 365.491 92.9421C365.491 91.7044 365.739 90.6196 366.234 89.6877C366.729 88.7558 367.417 88.0277 368.298 87.5035C369.179 86.9793 370.198 86.7172 371.356 86.7172C372.542 86.7172 373.576 86.9829 374.457 87.5144C375.338 88.0459 376.022 88.7812 376.51 89.7204C376.998 90.6524 377.242 91.7262 377.242 92.9421C377.242 94.1652 376.994 95.2464 376.499 96.1856C376.011 97.1175 375.327 97.8492 374.446 98.3807C373.565 98.9049 372.535 99.167 371.356 99.167ZM371.356 96.6989C372.404 96.6989 373.183 96.3494 373.693 95.6505C374.202 94.9515 374.457 94.0487 374.457 92.9421C374.457 91.799 374.199 90.889 373.682 90.2119C373.165 89.5275 372.389 89.1853 371.356 89.1853C370.649 89.1853 370.067 89.3455 369.608 89.6658C369.157 89.9789 368.822 90.4194 368.603 90.9873C368.385 91.5479 368.276 92.1995 368.276 92.9421C368.276 94.0851 368.534 94.9989 369.051 95.6832C369.575 96.3603 370.344 96.6989 371.356 96.6989ZM386.932 98.8394V93.1605C386.932 92.7892 386.907 92.3778 386.856 91.9265C386.805 91.4751 386.685 91.0419 386.495 90.6269C386.313 90.2046 386.037 89.8588 385.665 89.5894C385.301 89.32 384.806 89.1853 384.18 89.1853C383.845 89.1853 383.514 89.2399 383.186 89.3491C382.859 89.4583 382.56 89.6476 382.291 89.917C382.029 90.1791 381.818 90.5431 381.657 91.0091C381.497 91.4678 381.417 92.0575 381.417 92.7783L379.856 92.1121C379.856 91.1074 380.048 90.1973 380.434 89.3819C380.828 88.5665 381.403 87.9185 382.16 87.438C382.917 86.9502 383.849 86.7063 384.956 86.7063C385.829 86.7063 386.55 86.8519 387.118 87.1431C387.686 87.4343 388.137 87.8057 388.472 88.257C388.807 88.7084 389.055 89.189 389.215 89.6986C389.375 90.2082 389.477 90.6924 389.521 91.1511C389.571 91.6025 389.597 91.9701 389.597 92.2541V98.8394H386.932ZM378.753 98.8394V87.0448H381.101V90.7033H381.417V98.8394H378.753Z" fill="black" fill-opacity="0.6"/>
</g>
<g filter="url(#filter7_bii_182_557)">
<path d="M413.173 316L332.782 270.8L332.782 180.399L413.173 135.199L493.564 180.399L493.564 270.8L413.173 316Z" fill="url(#paint3_linear_182_557)" fill-opacity="0.7"/>
</g>
<g filter="url(#filter8_i_182_557)">
<path d="M355.547 233V217.274H360.559C360.69 217.274 360.949 217.278 361.335 217.285C361.728 217.292 362.106 217.318 362.47 217.361C363.715 217.522 364.767 217.966 365.626 218.694C366.493 219.414 367.148 220.335 367.592 221.457C368.036 222.578 368.258 223.805 368.258 225.137C368.258 226.469 368.036 227.696 367.592 228.817C367.148 229.939 366.493 230.863 365.626 231.591C364.767 232.312 363.715 232.752 362.47 232.913C362.114 232.956 361.739 232.982 361.345 232.989C360.952 232.996 360.69 233 360.559 233H355.547ZM358.222 230.521H360.559C360.778 230.521 361.054 230.514 361.389 230.499C361.731 230.485 362.034 230.452 362.296 230.401C363.038 230.263 363.643 229.931 364.108 229.407C364.574 228.883 364.917 228.246 365.135 227.496C365.361 226.746 365.474 225.96 365.474 225.137C365.474 224.285 365.361 223.484 365.135 222.734C364.909 221.984 364.56 221.355 364.087 220.845C363.621 220.335 363.024 220.011 362.296 219.873C362.034 219.815 361.731 219.782 361.389 219.775C361.054 219.76 360.778 219.753 360.559 219.753H358.222V230.521ZM368.448 233L373.406 217.274H377.261L382.219 233H379.51L375.011 218.89H375.601L371.156 233H368.448ZM371.211 229.593V227.136H379.467V229.593H371.211ZM389.544 233.328C387.971 233.328 386.624 232.985 385.503 232.301C384.382 231.609 383.519 230.648 382.915 229.418C382.318 228.188 382.019 226.761 382.019 225.137C382.019 223.513 382.318 222.086 382.915 220.856C383.519 219.626 384.382 218.668 385.503 217.984C386.624 217.292 387.971 216.946 389.544 216.946C391.116 216.946 392.463 217.292 393.585 217.984C394.713 218.668 395.576 219.626 396.173 220.856C396.777 222.086 397.079 223.513 397.079 225.137C397.079 226.761 396.777 228.188 396.173 229.418C395.576 230.648 394.713 231.609 393.585 232.301C392.463 232.985 391.116 233.328 389.544 233.328ZM389.544 230.849C390.6 230.856 391.477 230.623 392.176 230.15C392.882 229.676 393.41 229.01 393.759 228.151C394.116 227.292 394.294 226.287 394.294 225.137C394.294 223.987 394.116 222.989 393.759 222.145C393.41 221.293 392.882 220.63 392.176 220.157C391.477 219.684 390.6 219.44 389.544 219.425C388.488 219.418 387.611 219.651 386.912 220.124C386.213 220.598 385.685 221.264 385.328 222.123C384.979 222.982 384.804 223.987 384.804 225.137C384.804 226.287 384.979 227.288 385.328 228.14C385.678 228.985 386.202 229.644 386.901 230.117C387.607 230.59 388.488 230.834 389.544 230.849ZM405.657 233V219.742H400.568V217.274H413.378V219.742H408.289V233H405.657ZM417.711 233.328C416.531 233.328 415.501 233.062 414.62 232.53C413.739 231.999 413.055 231.267 412.567 230.335C412.086 229.396 411.846 228.319 411.846 227.103C411.846 225.865 412.094 224.78 412.589 223.848C413.084 222.916 413.772 222.188 414.653 221.664C415.534 221.14 416.553 220.878 417.711 220.878C418.897 220.878 419.931 221.144 420.812 221.675C421.693 222.207 422.377 222.942 422.865 223.881C423.353 224.813 423.597 225.887 423.597 227.103C423.597 228.326 423.349 229.407 422.854 230.346C422.367 231.278 421.682 232.01 420.801 232.541C419.92 233.066 418.89 233.328 417.711 233.328ZM417.711 230.86C418.759 230.86 419.538 230.51 420.048 229.811C420.557 229.112 420.812 228.209 420.812 227.103C420.812 225.96 420.554 225.05 420.037 224.373C419.52 223.688 418.744 223.346 417.711 223.346C417.004 223.346 416.422 223.506 415.963 223.826C415.512 224.14 415.177 224.58 414.959 225.148C414.74 225.709 414.631 226.36 414.631 227.103C414.631 228.246 414.889 229.159 415.406 229.844C415.93 230.521 416.699 230.86 417.711 230.86ZM430.339 233.328C429.159 233.328 428.129 233.062 427.248 232.53C426.367 231.999 425.683 231.267 425.195 230.335C424.714 229.396 424.474 228.319 424.474 227.103C424.474 225.865 424.722 224.78 425.217 223.848C425.712 222.916 426.4 222.188 427.281 221.664C428.162 221.14 429.181 220.878 430.339 220.878C431.525 220.878 432.559 221.144 433.44 221.675C434.321 222.207 435.006 222.942 435.493 223.881C435.981 224.813 436.225 225.887 436.225 227.103C436.225 228.326 435.977 229.407 435.482 230.346C434.995 231.278 434.31 232.01 433.429 232.541C432.548 233.066 431.518 233.328 430.339 233.328ZM430.339 230.86C431.387 230.86 432.166 230.51 432.676 229.811C433.185 229.112 433.44 228.209 433.44 227.103C433.44 225.96 433.182 225.05 432.665 224.373C432.148 223.688 431.373 223.346 430.339 223.346C429.632 223.346 429.05 223.506 428.591 223.826C428.14 224.14 427.805 224.58 427.587 225.148C427.368 225.709 427.259 226.36 427.259 227.103C427.259 228.246 427.517 229.159 428.034 229.844C428.559 230.521 429.327 230.86 430.339 230.86ZM437.976 233V216.946H440.608V233H437.976ZM443.224 219.414V217.001H445.856V219.414H443.224ZM443.224 233V221.205H445.856V233H443.224ZM456.411 233V227.321C456.411 226.95 456.386 226.538 456.335 226.087C456.284 225.636 456.164 225.203 455.975 224.788C455.793 224.365 455.516 224.019 455.145 223.75C454.781 223.481 454.285 223.346 453.659 223.346C453.324 223.346 452.993 223.401 452.666 223.51C452.338 223.619 452.039 223.808 451.77 224.078C451.508 224.34 451.297 224.704 451.137 225.17C450.976 225.628 450.896 226.218 450.896 226.939L449.335 226.273C449.335 225.268 449.528 224.358 449.913 223.543C450.307 222.727 450.882 222.079 451.639 221.599C452.396 221.111 453.328 220.867 454.435 220.867C455.308 220.867 456.029 221.013 456.597 221.304C457.165 221.595 457.616 221.966 457.951 222.418C458.286 222.869 458.534 223.35 458.694 223.859C458.854 224.369 458.956 224.853 459 225.312C459.051 225.763 459.076 226.131 459.076 226.415V233H456.411ZM448.232 233V221.205H450.58V224.864H450.896V233H448.232ZM466.01 238.57C465.355 238.57 464.725 238.468 464.121 238.264C463.524 238.06 462.985 237.765 462.505 237.379C462.024 237.001 461.631 236.542 461.325 236.003L463.75 234.802C463.975 235.231 464.292 235.548 464.7 235.752C465.115 235.963 465.555 236.069 466.021 236.069C466.567 236.069 467.055 235.97 467.485 235.774C467.914 235.585 468.245 235.301 468.478 234.922C468.719 234.551 468.832 234.085 468.817 233.524V230.171H469.145V221.205H471.449V233.568C471.449 233.866 471.434 234.15 471.405 234.42C471.383 234.696 471.343 234.966 471.285 235.228C471.11 235.992 470.775 236.618 470.28 237.106C469.785 237.601 469.17 237.969 468.435 238.209C467.707 238.45 466.899 238.57 466.01 238.57ZM465.781 233.328C464.696 233.328 463.75 233.055 462.942 232.509C462.133 231.963 461.507 231.22 461.063 230.281C460.619 229.342 460.397 228.282 460.397 227.103C460.397 225.909 460.619 224.846 461.063 223.914C461.515 222.975 462.152 222.236 462.974 221.697C463.797 221.151 464.765 220.878 465.879 220.878C467 220.878 467.94 221.151 468.697 221.697C469.461 222.236 470.04 222.975 470.433 223.914C470.826 224.853 471.023 225.916 471.023 227.103C471.023 228.275 470.826 229.334 470.433 230.281C470.04 231.22 469.454 231.963 468.675 232.509C467.896 233.055 466.931 233.328 465.781 233.328ZM466.185 230.969C466.891 230.969 467.459 230.809 467.889 230.488C468.326 230.161 468.642 229.706 468.839 229.123C469.043 228.541 469.145 227.867 469.145 227.103C469.145 226.331 469.043 225.658 468.839 225.082C468.642 224.5 468.333 224.049 467.911 223.728C467.488 223.401 466.942 223.237 466.272 223.237C465.566 223.237 464.984 223.411 464.525 223.761C464.066 224.103 463.728 224.569 463.509 225.159C463.291 225.741 463.182 226.389 463.182 227.103C463.182 227.824 463.287 228.479 463.498 229.068C463.717 229.651 464.048 230.113 464.492 230.455C464.936 230.798 465.501 230.969 466.185 230.969Z" fill="black" fill-opacity="0.6"/>
</g>
<g filter="url(#filter9_bii_182_557)">
<path d="M333.086 450.182L252.695 404.982L252.695 314.581L333.086 269.381L413.477 314.581L413.477 404.982L333.086 450.182Z" fill="url(#paint4_linear_182_557)" fill-opacity="0.7"/>
</g>
<g filter="url(#filter10_i_182_557)">
<path d="M280.735 368.22V352.494H283.105L288.544 363.634L293.982 352.494H296.352V368.22H293.895V358.141L289.068 368.22H288.02L283.203 358.141V368.22H280.735ZM303.909 368.548C302.715 368.548 301.666 368.29 300.763 367.773C299.861 367.256 299.154 366.539 298.645 365.621C298.142 364.704 297.891 363.648 297.891 362.454C297.891 361.166 298.139 360.048 298.634 359.102C299.129 358.148 299.817 357.409 300.698 356.885C301.579 356.36 302.598 356.098 303.756 356.098C304.979 356.098 306.016 356.386 306.868 356.961C307.727 357.529 308.364 358.333 308.779 359.375C309.194 360.416 309.351 361.642 309.249 363.055H306.639V362.094C306.632 360.812 306.406 359.877 305.962 359.287C305.518 358.697 304.819 358.403 303.865 358.403C302.787 358.403 301.987 358.738 301.462 359.407C300.938 360.07 300.676 361.042 300.676 362.323C300.676 363.517 300.938 364.442 301.462 365.097C301.987 365.752 302.751 366.08 303.756 366.08C304.404 366.08 304.961 365.938 305.427 365.654C305.9 365.363 306.264 364.944 306.519 364.398L309.118 365.184C308.667 366.247 307.968 367.074 307.021 367.663C306.082 368.253 305.044 368.548 303.909 368.548ZM299.846 363.055V361.067H307.96V363.055H299.846ZM315.366 368.548C313.91 368.548 312.727 368.22 311.817 367.565C310.907 366.91 310.353 365.989 310.157 364.802L312.843 364.387C312.982 364.97 313.287 365.428 313.761 365.763C314.234 366.098 314.831 366.266 315.552 366.266C316.185 366.266 316.673 366.142 317.015 365.894C317.365 365.639 317.539 365.294 317.539 364.857C317.539 364.587 317.474 364.373 317.343 364.213C317.219 364.045 316.942 363.885 316.513 363.732C316.083 363.579 315.424 363.386 314.536 363.153C313.546 362.891 312.76 362.611 312.177 362.312C311.595 362.006 311.176 361.646 310.921 361.231C310.666 360.816 310.539 360.314 310.539 359.724C310.539 358.989 310.732 358.348 311.118 357.802C311.504 357.256 312.042 356.837 312.734 356.546C313.426 356.248 314.241 356.098 315.18 356.098C316.098 356.098 316.91 356.24 317.616 356.524C318.329 356.808 318.904 357.212 319.341 357.736C319.778 358.261 320.047 358.876 320.149 359.582L317.463 360.063C317.397 359.56 317.168 359.163 316.775 358.872C316.389 358.581 315.872 358.417 315.224 358.381C314.605 358.344 314.106 358.439 313.728 358.665C313.349 358.883 313.16 359.193 313.16 359.593C313.16 359.819 313.236 360.012 313.389 360.172C313.542 360.332 313.848 360.492 314.307 360.652C314.773 360.812 315.464 361.009 316.382 361.242C317.321 361.482 318.071 361.759 318.631 362.072C319.199 362.378 319.607 362.745 319.854 363.175C320.109 363.605 320.237 364.125 320.237 364.737C320.237 365.923 319.804 366.855 318.937 367.532C318.078 368.21 316.888 368.548 315.366 368.548ZM326.309 368.548C324.853 368.548 323.67 368.22 322.76 367.565C321.85 366.91 321.296 365.989 321.1 364.802L323.786 364.387C323.925 364.97 324.23 365.428 324.704 365.763C325.177 366.098 325.774 366.266 326.495 366.266C327.128 366.266 327.616 366.142 327.958 365.894C328.308 365.639 328.482 365.294 328.482 364.857C328.482 364.587 328.417 364.373 328.286 364.213C328.162 364.045 327.885 363.885 327.456 363.732C327.026 363.579 326.367 363.386 325.479 363.153C324.489 362.891 323.703 362.611 323.12 362.312C322.538 362.006 322.119 361.646 321.864 361.231C321.609 360.816 321.482 360.314 321.482 359.724C321.482 358.989 321.675 358.348 322.061 357.802C322.447 357.256 322.985 356.837 323.677 356.546C324.369 356.248 325.184 356.098 326.123 356.098C327.041 356.098 327.853 356.24 328.559 356.524C329.272 356.808 329.847 357.212 330.284 357.736C330.721 358.261 330.99 358.876 331.092 359.582L328.406 360.063C328.34 359.56 328.111 359.163 327.718 358.872C327.332 358.581 326.815 358.417 326.167 358.381C325.548 358.344 325.05 358.439 324.671 358.665C324.292 358.883 324.103 359.193 324.103 359.593C324.103 359.819 324.179 360.012 324.332 360.172C324.485 360.332 324.791 360.492 325.25 360.652C325.716 360.812 326.407 361.009 327.325 361.242C328.264 361.482 329.014 361.759 329.574 362.072C330.142 362.378 330.55 362.745 330.798 363.175C331.052 363.605 331.18 364.125 331.18 364.737C331.18 365.923 330.747 366.855 329.88 367.532C329.021 368.21 327.831 368.548 326.309 368.548ZM335.996 368.548C335.144 368.548 334.424 368.388 333.834 368.068C333.244 367.74 332.796 367.307 332.491 366.768C332.192 366.229 332.043 365.636 332.043 364.988C332.043 364.42 332.138 363.91 332.327 363.459C332.516 363 332.807 362.607 333.2 362.28C333.594 361.945 334.103 361.672 334.729 361.46C335.203 361.308 335.756 361.169 336.389 361.045C337.03 360.922 337.722 360.809 338.464 360.707C339.214 360.598 339.997 360.481 340.812 360.357L339.873 360.893C339.88 360.077 339.698 359.476 339.327 359.091C338.956 358.705 338.33 358.512 337.449 358.512C336.917 358.512 336.404 358.636 335.909 358.883C335.414 359.131 335.068 359.557 334.871 360.161L332.469 359.407C332.76 358.41 333.313 357.609 334.129 357.005C334.951 356.4 336.058 356.098 337.449 356.098C338.497 356.098 339.418 356.269 340.212 356.612C341.013 356.954 341.606 357.514 341.992 358.293C342.203 358.708 342.33 359.134 342.374 359.571C342.418 360.001 342.44 360.47 342.44 360.98V368.22H340.135V365.665L340.517 366.08C339.986 366.932 339.363 367.558 338.65 367.958C337.944 368.352 337.059 368.548 335.996 368.548ZM336.52 366.451C337.117 366.451 337.627 366.346 338.049 366.135C338.472 365.923 338.807 365.665 339.054 365.359C339.309 365.053 339.48 364.766 339.567 364.496C339.706 364.162 339.782 363.779 339.797 363.35C339.819 362.913 339.829 362.56 339.829 362.29L340.638 362.531C339.844 362.654 339.163 362.764 338.595 362.858C338.027 362.953 337.54 363.044 337.132 363.131C336.724 363.211 336.364 363.302 336.051 363.404C335.745 363.514 335.487 363.641 335.275 363.787C335.064 363.932 334.9 364.1 334.784 364.289C334.675 364.478 334.62 364.7 334.62 364.955C334.62 365.246 334.693 365.505 334.839 365.731C334.984 365.949 335.195 366.124 335.472 366.255C335.756 366.386 336.105 366.451 336.52 366.451ZM349.367 373.79C348.712 373.79 348.082 373.688 347.478 373.484C346.881 373.28 346.342 372.986 345.861 372.6C345.381 372.221 344.988 371.762 344.682 371.224L347.106 370.022C347.332 370.452 347.649 370.769 348.057 370.973C348.472 371.184 348.912 371.289 349.378 371.289C349.924 371.289 350.412 371.191 350.841 370.994C351.271 370.805 351.602 370.521 351.835 370.143C352.075 369.771 352.188 369.305 352.174 368.745V365.392H352.501V356.426H354.806V368.788C354.806 369.087 354.791 369.371 354.762 369.64C354.74 369.917 354.7 370.186 354.642 370.448C354.467 371.213 354.132 371.839 353.637 372.327C353.142 372.822 352.527 373.189 351.792 373.43C351.063 373.67 350.255 373.79 349.367 373.79ZM349.138 368.548C348.053 368.548 347.106 368.275 346.298 367.729C345.49 367.183 344.864 366.44 344.42 365.501C343.976 364.562 343.754 363.503 343.754 362.323C343.754 361.129 343.976 360.066 344.42 359.134C344.871 358.195 345.508 357.456 346.331 356.917C347.154 356.371 348.122 356.098 349.236 356.098C350.357 356.098 351.296 356.371 352.054 356.917C352.818 357.456 353.397 358.195 353.79 359.134C354.183 360.074 354.38 361.136 354.38 362.323C354.38 363.495 354.183 364.555 353.79 365.501C353.397 366.44 352.811 367.183 352.032 367.729C351.253 368.275 350.288 368.548 349.138 368.548ZM349.542 366.189C350.248 366.189 350.816 366.029 351.245 365.709C351.682 365.381 351.999 364.926 352.196 364.344C352.399 363.761 352.501 363.088 352.501 362.323C352.501 361.551 352.399 360.878 352.196 360.303C351.999 359.72 351.69 359.269 351.267 358.949C350.845 358.621 350.299 358.457 349.629 358.457C348.923 358.457 348.341 358.632 347.882 358.981C347.423 359.324 347.085 359.79 346.866 360.379C346.648 360.962 346.539 361.61 346.539 362.323C346.539 363.044 346.644 363.699 346.855 364.289C347.074 364.871 347.405 365.334 347.849 365.676C348.293 366.018 348.857 366.189 349.542 366.189ZM357.213 354.635V352.221H359.845V354.635H357.213ZM357.213 368.22V356.426H359.845V368.22H357.213ZM370.4 368.22V362.542C370.4 362.17 370.375 361.759 370.324 361.308C370.273 360.856 370.153 360.423 369.963 360.008C369.781 359.586 369.505 359.24 369.133 358.97C368.769 358.701 368.274 358.566 367.648 358.566C367.313 358.566 366.982 358.621 366.654 358.73C366.327 358.839 366.028 359.029 365.759 359.298C365.497 359.56 365.286 359.924 365.126 360.39C364.965 360.849 364.885 361.439 364.885 362.159L363.324 361.493C363.324 360.488 363.517 359.578 363.902 358.763C364.296 357.948 364.871 357.3 365.628 356.819C366.385 356.331 367.317 356.087 368.424 356.087C369.297 356.087 370.018 356.233 370.586 356.524C371.154 356.815 371.605 357.187 371.94 357.638C372.275 358.09 372.523 358.57 372.683 359.08C372.843 359.589 372.945 360.074 372.989 360.532C373.04 360.984 373.065 361.351 373.065 361.635V368.22H370.4ZM362.221 368.22V356.426H364.569V360.084H364.885V368.22H362.221ZM379.999 373.79C379.344 373.79 378.714 373.688 378.11 373.484C377.513 373.28 376.974 372.986 376.494 372.6C376.013 372.221 375.62 371.762 375.314 371.224L377.739 370.022C377.964 370.452 378.281 370.769 378.689 370.973C379.104 371.184 379.544 371.289 380.01 371.289C380.556 371.289 381.044 371.191 381.474 370.994C381.903 370.805 382.234 370.521 382.467 370.143C382.708 369.771 382.82 369.305 382.806 368.745V365.392H383.134V356.426H385.438V368.788C385.438 369.087 385.423 369.371 385.394 369.64C385.372 369.917 385.332 370.186 385.274 370.448C385.099 371.213 384.764 371.839 384.269 372.327C383.774 372.822 383.159 373.189 382.424 373.43C381.696 373.67 380.887 373.79 379.999 373.79ZM379.77 368.548C378.685 368.548 377.739 368.275 376.93 367.729C376.122 367.183 375.496 366.44 375.052 365.501C374.608 364.562 374.386 363.503 374.386 362.323C374.386 361.129 374.608 360.066 375.052 359.134C375.503 358.195 376.141 357.456 376.963 356.917C377.786 356.371 378.754 356.098 379.868 356.098C380.989 356.098 381.929 356.371 382.686 356.917C383.45 357.456 384.029 358.195 384.422 359.134C384.815 360.074 385.012 361.136 385.012 362.323C385.012 363.495 384.815 364.555 384.422 365.501C384.029 366.44 383.443 367.183 382.664 367.729C381.885 368.275 380.92 368.548 379.77 368.548ZM380.174 366.189C380.88 366.189 381.448 366.029 381.878 365.709C382.314 365.381 382.631 364.926 382.828 364.344C383.032 363.761 383.134 363.088 383.134 362.323C383.134 361.551 383.032 360.878 382.828 360.303C382.631 359.72 382.322 359.269 381.899 358.949C381.477 358.621 380.931 358.457 380.261 358.457C379.555 358.457 378.973 358.632 378.514 358.981C378.055 359.324 377.717 359.79 377.498 360.379C377.28 360.962 377.171 361.61 377.171 362.323C377.171 363.044 377.276 363.699 377.487 364.289C377.706 364.871 378.037 365.334 378.481 365.676C378.925 366.018 379.49 366.189 380.174 366.189Z" fill="black" fill-opacity="0.6"/>
</g>
<g filter="url(#filter11_bii_182_557)">
<path d="M172.913 450.182L92.5222 404.982L92.5222 314.581L172.913 269.381L253.304 314.581L253.304 404.982L172.913 450.182Z" fill="url(#paint5_linear_182_557)" fill-opacity="0.7"/>
</g>
<g filter="url(#filter12_i_182_557)">
<path d="M132.204 368.22V352.494H138.702C138.855 352.494 139.052 352.502 139.292 352.516C139.532 352.524 139.754 352.545 139.958 352.582C140.868 352.72 141.618 353.022 142.208 353.488C142.805 353.954 143.245 354.544 143.529 355.257C143.82 355.964 143.966 356.75 143.966 357.616C143.966 358.898 143.642 360.001 142.994 360.925C142.346 361.843 141.352 362.411 140.013 362.629L138.888 362.727H134.836V368.22H132.204ZM141.236 368.22L138.134 361.821L140.81 361.231L144.217 368.22H141.236ZM134.836 360.27H138.593C138.739 360.27 138.902 360.263 139.084 360.248C139.266 360.234 139.434 360.205 139.587 360.161C140.024 360.052 140.366 359.859 140.613 359.582C140.868 359.305 141.047 358.992 141.148 358.643C141.258 358.293 141.312 357.951 141.312 357.616C141.312 357.281 141.258 356.939 141.148 356.59C141.047 356.233 140.868 355.916 140.613 355.64C140.366 355.363 140.024 355.17 139.587 355.061C139.434 355.017 139.266 354.992 139.084 354.984C138.902 354.97 138.739 354.963 138.593 354.963H134.836V360.27ZM151.112 368.548C149.918 368.548 148.869 368.29 147.967 367.773C147.064 367.256 146.358 366.539 145.848 365.621C145.346 364.704 145.094 363.648 145.094 362.454C145.094 361.166 145.342 360.048 145.837 359.102C146.332 358.148 147.02 357.409 147.901 356.885C148.782 356.36 149.801 356.098 150.959 356.098C152.182 356.098 153.219 356.386 154.071 356.961C154.93 357.529 155.567 358.333 155.982 359.375C156.397 360.416 156.554 361.642 156.452 363.055H153.842V362.094C153.835 360.812 153.609 359.877 153.165 359.287C152.721 358.697 152.022 358.403 151.068 358.403C149.991 358.403 149.19 358.738 148.665 359.407C148.141 360.07 147.879 361.042 147.879 362.323C147.879 363.517 148.141 364.442 148.665 365.097C149.19 365.752 149.954 366.08 150.959 366.08C151.607 366.08 152.164 365.938 152.63 365.654C153.103 365.363 153.467 364.944 153.722 364.398L156.321 365.184C155.87 366.247 155.171 367.074 154.224 367.663C153.285 368.253 152.247 368.548 151.112 368.548ZM147.049 363.055V361.067H155.163V363.055H147.049ZM158.233 368.22V352.167H160.865V368.22H158.233ZM166.561 368.548C165.709 368.548 164.989 368.388 164.399 368.068C163.809 367.74 163.361 367.307 163.056 366.768C162.757 366.229 162.608 365.636 162.608 364.988C162.608 364.42 162.702 363.91 162.892 363.459C163.081 363 163.372 362.607 163.765 362.28C164.159 361.945 164.668 361.672 165.294 361.46C165.768 361.308 166.321 361.169 166.954 361.045C167.595 360.922 168.287 360.809 169.029 360.707C169.779 360.598 170.562 360.481 171.377 360.357L170.438 360.893C170.445 360.077 170.263 359.476 169.892 359.091C169.521 358.705 168.895 358.512 168.014 358.512C167.482 358.512 166.969 358.636 166.474 358.883C165.979 359.131 165.633 359.557 165.436 360.161L163.034 359.407C163.325 358.41 163.878 357.609 164.694 357.005C165.516 356.4 166.623 356.098 168.014 356.098C169.062 356.098 169.983 356.269 170.777 356.612C171.577 356.954 172.171 357.514 172.557 358.293C172.768 358.708 172.895 359.134 172.939 359.571C172.983 360.001 173.004 360.47 173.004 360.98V368.22H170.7V365.665L171.082 366.08C170.551 366.932 169.928 367.558 169.215 367.958C168.509 368.352 167.624 368.548 166.561 368.548ZM167.085 366.451C167.682 366.451 168.192 366.346 168.614 366.135C169.037 365.923 169.371 365.665 169.619 365.359C169.874 365.053 170.045 364.766 170.132 364.496C170.271 364.162 170.347 363.779 170.362 363.35C170.383 362.913 170.394 362.56 170.394 362.29L171.203 362.531C170.409 362.654 169.728 362.764 169.16 362.858C168.592 362.953 168.105 363.044 167.697 363.131C167.289 363.211 166.929 363.302 166.616 363.404C166.31 363.514 166.052 363.641 165.84 363.787C165.629 363.932 165.465 364.1 165.349 364.289C165.24 364.478 165.185 364.7 165.185 364.955C165.185 365.246 165.258 365.505 165.404 365.731C165.549 365.949 165.76 366.124 166.037 366.255C166.321 366.386 166.67 366.451 167.085 366.451ZM175.863 373.462L178.135 367.227L178.179 369.061L173.035 356.426H175.776L179.424 365.774H178.725L182.274 356.426H184.906L178.332 373.462H175.863ZM190.597 368.548C189.403 368.548 188.354 368.29 187.451 367.773C186.549 367.256 185.842 366.539 185.333 365.621C184.83 364.704 184.579 363.648 184.579 362.454C184.579 361.166 184.827 360.048 185.322 359.102C185.817 358.148 186.505 357.409 187.386 356.885C188.267 356.36 189.286 356.098 190.444 356.098C191.667 356.098 192.704 356.386 193.556 356.961C194.415 357.529 195.052 358.333 195.467 359.375C195.882 360.416 196.039 361.642 195.937 363.055H193.327V362.094C193.32 360.812 193.094 359.877 192.65 359.287C192.206 358.697 191.507 358.403 190.553 358.403C189.475 358.403 188.675 358.738 188.15 359.407C187.626 360.07 187.364 361.042 187.364 362.323C187.364 363.517 187.626 364.442 188.15 365.097C188.675 365.752 189.439 366.08 190.444 366.08C191.092 366.08 191.649 365.938 192.115 365.654C192.588 365.363 192.952 364.944 193.207 364.398L195.806 365.184C195.354 366.247 194.655 367.074 193.709 367.663C192.77 368.253 191.732 368.548 190.597 368.548ZM186.534 363.055V361.067H194.648V363.055H186.534ZM197.5 368.22V356.426H199.826V359.298L199.542 358.927C199.688 358.534 199.881 358.177 200.121 357.857C200.368 357.529 200.663 357.26 201.006 357.048C201.297 356.852 201.617 356.699 201.967 356.59C202.323 356.473 202.687 356.404 203.059 356.382C203.43 356.353 203.79 356.368 204.14 356.426V358.883C203.79 358.781 203.386 358.748 202.928 358.785C202.476 358.821 202.068 358.949 201.704 359.167C201.34 359.364 201.042 359.615 200.809 359.921C200.583 360.226 200.416 360.576 200.307 360.969C200.197 361.355 200.143 361.774 200.143 362.225V368.22H197.5ZM209.478 368.548C208.021 368.548 206.838 368.22 205.928 367.565C205.018 366.91 204.465 365.989 204.268 364.802L206.955 364.387C207.093 364.97 207.399 365.428 207.872 365.763C208.345 366.098 208.942 366.266 209.663 366.266C210.297 366.266 210.784 366.142 211.127 365.894C211.476 365.639 211.651 365.294 211.651 364.857C211.651 364.587 211.585 364.373 211.454 364.213C211.33 364.045 211.054 363.885 210.624 363.732C210.195 363.579 209.536 363.386 208.648 363.153C207.657 362.891 206.871 362.611 206.289 362.312C205.706 362.006 205.288 361.646 205.033 361.231C204.778 360.816 204.651 360.314 204.651 359.724C204.651 358.989 204.843 358.348 205.229 357.802C205.615 357.256 206.154 356.837 206.846 356.546C207.537 356.248 208.353 356.098 209.292 356.098C210.209 356.098 211.021 356.24 211.727 356.524C212.441 356.808 213.016 357.212 213.453 357.736C213.89 358.261 214.159 358.876 214.261 359.582L211.574 360.063C211.509 359.56 211.279 359.163 210.886 358.872C210.5 358.581 209.984 358.417 209.336 358.381C208.717 358.344 208.218 358.439 207.839 358.665C207.461 358.883 207.272 359.193 207.272 359.593C207.272 359.819 207.348 360.012 207.501 360.172C207.654 360.332 207.96 360.492 208.418 360.652C208.884 360.812 209.576 361.009 210.493 361.242C211.432 361.482 212.182 361.759 212.743 362.072C213.311 362.378 213.718 362.745 213.966 363.175C214.221 363.605 214.348 364.125 214.348 364.737C214.348 365.923 213.915 366.855 213.049 367.532C212.19 368.21 210.999 368.548 209.478 368.548Z" fill="black" fill-opacity="0.6"/>
</g>
<g filter="url(#filter13_bii_182_557)">
<path d="M92.827 316.098L12.4363 270.898L12.4363 180.497L92.827 135.297L173.218 180.497L173.218 270.898L92.827 316.098Z" fill="url(#paint6_linear_182_557)" fill-opacity="0.7"/>
</g>
<g filter="url(#filter14_i_182_557)">
<path d="M83.6062 234.136L88.5642 218.41H92.4193L97.3774 234.136H94.669L90.1696 220.026H90.7593L86.3145 234.136H83.6062ZM86.3692 230.729V228.272H94.6253V230.729H86.3692ZM98.6966 234.136V218.41H101.329V234.136H98.6966Z" fill="black" fill-opacity="0.6"/>
</g>
<defs>
<filter id="filter0_bii_182_557" x="158.655" y="120.736" width="188.69" height="208.71" filterUnits="userSpaceOnUse" color-interpolation-filters="sRGB">
<feFlood flood-opacity="0" result="BackgroundImageFix"/>
<feGaussianBlur in="BackgroundImageFix" stdDeviation="6.97721"/>
<feComposite in2="SourceAlpha" operator="in" result="effect1_backgroundBlur_182_557"/>
<feBlend mode="normal" in="SourceGraphic" in2="effect1_backgroundBlur_182_557" result="shape"/>
<feColorMatrix in="SourceAlpha" type="matrix" values="0 0 0 0 0 0 0 0 0 0 0 0 0 0 0 0 0 0 127 0" result="hardAlpha"/>
<feOffset dy="2.42686"/>
<feGaussianBlur stdDeviation="3.03357"/>
<feComposite in2="hardAlpha" operator="arithmetic" k2="-1" k3="1"/>
<feColorMatrix type="matrix" values="0 0 0 0 1 0 0 0 0 1 0 0 0 0 1 0 0 0 0.25 0"/>
<feBlend mode="normal" in2="shape" result="effect2_innerShadow_182_557"/>
<feColorMatrix in="SourceAlpha" type="matrix" values="0 0 0 0 0 0 0 0 0 0 0 0 0 0 0 0 0 0 127 0" result="hardAlpha"/>
<feOffset dy="-2.42686"/>
<feGaussianBlur stdDeviation="3.03357"/>
<feComposite in2="hardAlpha" operator="arithmetic" k2="-1" k3="1"/>
<feColorMatrix type="matrix" values="0 0 0 0 0 0 0 0 0 0 0 0 0 0 0 0 0 0 0.1 0"/>
<feBlend mode="normal" in2="effect2_innerShadow_182_557" result="effect3_innerShadow_182_557"/>
</filter>
<filter id="filter1_i_182_557" x="229.153" y="206.314" width="47.666" height="38.4074" filterUnits="userSpaceOnUse" color-interpolation-filters="sRGB">
<feFlood flood-opacity="0" result="BackgroundImageFix"/>
<feBlend mode="normal" in="SourceGraphic" in2="BackgroundImageFix" result="shape"/>
<feColorMatrix in="SourceAlpha" type="matrix" values="0 0 0 0 0 0 0 0 0 0 0 0 0 0 0 0 0 0 127 0" result="hardAlpha"/>
<feOffset dy="2.08172"/>
<feGaussianBlur stdDeviation="1.04086"/>
<feComposite in2="hardAlpha" operator="arithmetic" k2="-1" k3="1"/>
<feColorMatrix type="matrix" values="0 0 0 0 0 0 0 0 0 0 0 0 0 0 0 0 0 0 0.25 0"/>
<feBlend mode="normal" in2="shape" result="effect1_innerShadow_182_557"/>
</filter>
<filter id="filter2_i_182_557" x="227.019" y="204.179" width="51.9365" height="42.6786" filterUnits="userSpaceOnUse" color-interpolation-filters="sRGB">
<feFlood flood-opacity="0" result="BackgroundImageFix"/>
<feBlend mode="normal" in="SourceGraphic" in2="BackgroundImageFix" result="shape"/>
<feColorMatrix in="SourceAlpha" type="matrix" values="0 0 0 0 0 0 0 0 0 0 0 0 0 0 0 0 0 0 127 0" result="hardAlpha"/>
<feOffset dy="2.08172"/>
<feGaussianBlur stdDeviation="1.04086"/>
<feComposite in2="hardAlpha" operator="arithmetic" k2="-1" k3="1"/>
<feColorMatrix type="matrix" values="0 0 0 0 0 0 0 0 0 0 0 0 0 0 0 0 0 0 0.25 0"/>
<feBlend mode="normal" in2="shape" result="effect1_innerShadow_182_557"/>
</filter>
<filter id="filter3_bii_182_557" x="77.9616" y="-13.9544" width="188.69" height="208.71" filterUnits="userSpaceOnUse" color-interpolation-filters="sRGB">
<feFlood flood-opacity="0" result="BackgroundImageFix"/>
<feGaussianBlur in="BackgroundImageFix" stdDeviation="6.97721"/>
<feComposite in2="SourceAlpha" operator="in" result="effect1_backgroundBlur_182_557"/>
<feBlend mode="normal" in="SourceGraphic" in2="effect1_backgroundBlur_182_557" result="shape"/>
<feColorMatrix in="SourceAlpha" type="matrix" values="0 0 0 0 0 0 0 0 0 0 0 0 0 0 0 0 0 0 127 0" result="hardAlpha"/>
<feOffset dy="2.42686"/>
<feGaussianBlur stdDeviation="3.03357"/>
<feComposite in2="hardAlpha" operator="arithmetic" k2="-1" k3="1"/>
<feColorMatrix type="matrix" values="0 0 0 0 1 0 0 0 0 1 0 0 0 0 1 0 0 0 0.25 0"/>
<feBlend mode="normal" in2="shape" result="effect2_innerShadow_182_557"/>
<feColorMatrix in="SourceAlpha" type="matrix" values="0 0 0 0 0 0 0 0 0 0 0 0 0 0 0 0 0 0 127 0" result="hardAlpha"/>
<feOffset dy="-2.42686"/>
<feGaussianBlur stdDeviation="3.03357"/>
<feComposite in2="hardAlpha" operator="arithmetic" k2="-1" k3="1"/>
<feColorMatrix type="matrix" values="0 0 0 0 0 0 0 0 0 0 0 0 0 0 0 0 0 0 0.1 0"/>
<feBlend mode="normal" in2="effect2_innerShadow_182_557" result="effect3_innerShadow_182_557"/>
</filter>
<filter id="filter4_i_182_557" x="135.61" y="82.7856" width="73.9521" height="16.9881" filterUnits="userSpaceOnUse" color-interpolation-filters="sRGB">
<feFlood flood-opacity="0" result="BackgroundImageFix"/>
<feBlend mode="normal" in="SourceGraphic" in2="BackgroundImageFix" result="shape"/>
<feColorMatrix in="SourceAlpha" type="matrix" values="0 0 0 0 0 0 0 0 0 0 0 0 0 0 0 0 0 0 127 0" result="hardAlpha"/>
<feOffset dy="0.606714"/>
<feGaussianBlur stdDeviation="0.303357"/>
<feComposite in2="hardAlpha" operator="arithmetic" k2="-1" k3="1"/>
<feColorMatrix type="matrix" values="0 0 0 0 0 0 0 0 0 0 0 0 0 0 0 0 0 0 0.25 0"/>
<feBlend mode="normal" in2="shape" result="effect1_innerShadow_182_557"/>
</filter>
<filter id="filter5_bii_182_557" x="237.528" y="-13.9544" width="188.69" height="208.71" filterUnits="userSpaceOnUse" color-interpolation-filters="sRGB">
<feFlood flood-opacity="0" result="BackgroundImageFix"/>
<feGaussianBlur in="BackgroundImageFix" stdDeviation="6.97721"/>
<feComposite in2="SourceAlpha" operator="in" result="effect1_backgroundBlur_182_557"/>
<feBlend mode="normal" in="SourceGraphic" in2="effect1_backgroundBlur_182_557" result="shape"/>
<feColorMatrix in="SourceAlpha" type="matrix" values="0 0 0 0 0 0 0 0 0 0 0 0 0 0 0 0 0 0 127 0" result="hardAlpha"/>
<feOffset dy="2.42686"/>
<feGaussianBlur stdDeviation="3.03357"/>
<feComposite in2="hardAlpha" operator="arithmetic" k2="-1" k3="1"/>
<feColorMatrix type="matrix" values="0 0 0 0 1 0 0 0 0 1 0 0 0 0 1 0 0 0 0.25 0"/>
<feBlend mode="normal" in2="shape" result="effect2_innerShadow_182_557"/>
<feColorMatrix in="SourceAlpha" type="matrix" values="0 0 0 0 0 0 0 0 0 0 0 0 0 0 0 0 0 0 127 0" result="hardAlpha"/>
<feOffset dy="-2.42686"/>
<feGaussianBlur stdDeviation="3.03357"/>
<feComposite in2="hardAlpha" operator="arithmetic" k2="-1" k3="1"/>
<feColorMatrix type="matrix" values="0 0 0 0 0 0 0 0 0 0 0 0 0 0 0 0 0 0 0.1 0"/>
<feBlend mode="normal" in2="effect2_innerShadow_182_557" result="effect3_innerShadow_182_557"/>
</filter>
<filter id="filter6_i_182_557" x="273.563" y="82.8403" width="116.033" height="16.9444" filterUnits="userSpaceOnUse" color-interpolation-filters="sRGB">
<feFlood flood-opacity="0" result="BackgroundImageFix"/>
<feBlend mode="normal" in="SourceGraphic" in2="BackgroundImageFix" result="shape"/>
<feColorMatrix in="SourceAlpha" type="matrix" values="0 0 0 0 0 0 0 0 0 0 0 0 0 0 0 0 0 0 127 0" result="hardAlpha"/>
<feOffset dy="0.606714"/>
<feGaussianBlur stdDeviation="0.303357"/>
<feComposite in2="hardAlpha" operator="arithmetic" k2="-1" k3="1"/>
<feColorMatrix type="matrix" values="0 0 0 0 0 0 0 0 0 0 0 0 0 0 0 0 0 0 0.25 0"/>
<feBlend mode="normal" in2="shape" result="effect1_innerShadow_182_557"/>
</filter>
<filter id="filter7_bii_182_557" x="318.828" y="121.245" width="188.69" height="208.71" filterUnits="userSpaceOnUse" color-interpolation-filters="sRGB">
<feFlood flood-opacity="0" result="BackgroundImageFix"/>
<feGaussianBlur in="BackgroundImageFix" stdDeviation="6.97721"/>
<feComposite in2="SourceAlpha" operator="in" result="effect1_backgroundBlur_182_557"/>
<feBlend mode="normal" in="SourceGraphic" in2="effect1_backgroundBlur_182_557" result="shape"/>
<feColorMatrix in="SourceAlpha" type="matrix" values="0 0 0 0 0 0 0 0 0 0 0 0 0 0 0 0 0 0 127 0" result="hardAlpha"/>
<feOffset dy="2.42686"/>
<feGaussianBlur stdDeviation="3.03357"/>
<feComposite in2="hardAlpha" operator="arithmetic" k2="-1" k3="1"/>
<feColorMatrix type="matrix" values="0 0 0 0 1 0 0 0 0 1 0 0 0 0 1 0 0 0 0.25 0"/>
<feBlend mode="normal" in2="shape" result="effect2_innerShadow_182_557"/>
<feColorMatrix in="SourceAlpha" type="matrix" values="0 0 0 0 0 0 0 0 0 0 0 0 0 0 0 0 0 0 127 0" result="hardAlpha"/>
<feOffset dy="-2.42686"/>
<feGaussianBlur stdDeviation="3.03357"/>
<feComposite in2="hardAlpha" operator="arithmetic" k2="-1" k3="1"/>
<feColorMatrix type="matrix" values="0 0 0 0 0 0 0 0 0 0 0 0 0 0 0 0 0 0 0.1 0"/>
<feBlend mode="normal" in2="effect2_innerShadow_182_557" result="effect3_innerShadow_182_557"/>
</filter>
<filter id="filter8_i_182_557" x="355.547" y="216.946" width="115.902" height="22.23" filterUnits="userSpaceOnUse" color-interpolation-filters="sRGB">
<feFlood flood-opacity="0" result="BackgroundImageFix"/>
<feBlend mode="normal" in="SourceGraphic" in2="BackgroundImageFix" result="shape"/>
<feColorMatrix in="SourceAlpha" type="matrix" values="0 0 0 0 0 0 0 0 0 0 0 0 0 0 0 0 0 0 127 0" result="hardAlpha"/>
<feOffset dy="0.606714"/>
<feGaussianBlur stdDeviation="0.303357"/>
<feComposite in2="hardAlpha" operator="arithmetic" k2="-1" k3="1"/>
<feColorMatrix type="matrix" values="0 0 0 0 0 0 0 0 0 0 0 0 0 0 0 0 0 0 0.25 0"/>
<feBlend mode="normal" in2="shape" result="effect1_innerShadow_182_557"/>
</filter>
<filter id="filter9_bii_182_557" x="238.741" y="255.427" width="188.69" height="208.71" filterUnits="userSpaceOnUse" color-interpolation-filters="sRGB">
<feFlood flood-opacity="0" result="BackgroundImageFix"/>
<feGaussianBlur in="BackgroundImageFix" stdDeviation="6.97721"/>
<feComposite in2="SourceAlpha" operator="in" result="effect1_backgroundBlur_182_557"/>
<feBlend mode="normal" in="SourceGraphic" in2="effect1_backgroundBlur_182_557" result="shape"/>
<feColorMatrix in="SourceAlpha" type="matrix" values="0 0 0 0 0 0 0 0 0 0 0 0 0 0 0 0 0 0 127 0" result="hardAlpha"/>
<feOffset dy="2.42686"/>
<feGaussianBlur stdDeviation="3.03357"/>
<feComposite in2="hardAlpha" operator="arithmetic" k2="-1" k3="1"/>
<feColorMatrix type="matrix" values="0 0 0 0 1 0 0 0 0 1 0 0 0 0 1 0 0 0 0.25 0"/>
<feBlend mode="normal" in2="shape" result="effect2_innerShadow_182_557"/>
<feColorMatrix in="SourceAlpha" type="matrix" values="0 0 0 0 0 0 0 0 0 0 0 0 0 0 0 0 0 0 127 0" result="hardAlpha"/>
<feOffset dy="-2.42686"/>
<feGaussianBlur stdDeviation="3.03357"/>
<feComposite in2="hardAlpha" operator="arithmetic" k2="-1" k3="1"/>
<feColorMatrix type="matrix" values="0 0 0 0 0 0 0 0 0 0 0 0 0 0 0 0 0 0 0.1 0"/>
<feBlend mode="normal" in2="effect2_innerShadow_182_557" result="effect3_innerShadow_182_557"/>
</filter>
<filter id="filter10_i_182_557" x="280.735" y="352.221" width="104.702" height="22.1753" filterUnits="userSpaceOnUse" color-interpolation-filters="sRGB">
<feFlood flood-opacity="0" result="BackgroundImageFix"/>
<feBlend mode="normal" in="SourceGraphic" in2="BackgroundImageFix" result="shape"/>
<feColorMatrix in="SourceAlpha" type="matrix" values="0 0 0 0 0 0 0 0 0 0 0 0 0 0 0 0 0 0 127 0" result="hardAlpha"/>
<feOffset dy="0.606714"/>
<feGaussianBlur stdDeviation="0.303357"/>
<feComposite in2="hardAlpha" operator="arithmetic" k2="-1" k3="1"/>
<feColorMatrix type="matrix" values="0 0 0 0 0 0 0 0 0 0 0 0 0 0 0 0 0 0 0.25 0"/>
<feBlend mode="normal" in2="shape" result="effect1_innerShadow_182_557"/>
</filter>
<filter id="filter11_bii_182_557" x="78.568" y="255.427" width="188.69" height="208.71" filterUnits="userSpaceOnUse" color-interpolation-filters="sRGB">
<feFlood flood-opacity="0" result="BackgroundImageFix"/>
<feGaussianBlur in="BackgroundImageFix" stdDeviation="6.97721"/>
<feComposite in2="SourceAlpha" operator="in" result="effect1_backgroundBlur_182_557"/>
<feBlend mode="normal" in="SourceGraphic" in2="effect1_backgroundBlur_182_557" result="shape"/>
<feColorMatrix in="SourceAlpha" type="matrix" values="0 0 0 0 0 0 0 0 0 0 0 0 0 0 0 0 0 0 127 0" result="hardAlpha"/>
<feOffset dy="2.42686"/>
<feGaussianBlur stdDeviation="3.03357"/>
<feComposite in2="hardAlpha" operator="arithmetic" k2="-1" k3="1"/>
<feColorMatrix type="matrix" values="0 0 0 0 1 0 0 0 0 1 0 0 0 0 1 0 0 0 0.25 0"/>
<feBlend mode="normal" in2="shape" result="effect2_innerShadow_182_557"/>
<feColorMatrix in="SourceAlpha" type="matrix" values="0 0 0 0 0 0 0 0 0 0 0 0 0 0 0 0 0 0 127 0" result="hardAlpha"/>
<feOffset dy="-2.42686"/>
<feGaussianBlur stdDeviation="3.03357"/>
<feComposite in2="hardAlpha" operator="arithmetic" k2="-1" k3="1"/>
<feColorMatrix type="matrix" values="0 0 0 0 0 0 0 0 0 0 0 0 0 0 0 0 0 0 0.1 0"/>
<feBlend mode="normal" in2="effect2_innerShadow_182_557" result="effect3_innerShadow_182_557"/>
</filter>
<filter id="filter12_i_182_557" x="132.204" y="352.167" width="82.1445" height="21.9024" filterUnits="userSpaceOnUse" color-interpolation-filters="sRGB">
<feFlood flood-opacity="0" result="BackgroundImageFix"/>
<feBlend mode="normal" in="SourceGraphic" in2="BackgroundImageFix" result="shape"/>
<feColorMatrix in="SourceAlpha" type="matrix" values="0 0 0 0 0 0 0 0 0 0 0 0 0 0 0 0 0 0 127 0" result="hardAlpha"/>
<feOffset dy="0.606714"/>
<feGaussianBlur stdDeviation="0.303357"/>
<feComposite in2="hardAlpha" operator="arithmetic" k2="-1" k3="1"/>
<feColorMatrix type="matrix" values="0 0 0 0 0 0 0 0 0 0 0 0 0 0 0 0 0 0 0.25 0"/>
<feBlend mode="normal" in2="shape" result="effect1_innerShadow_182_557"/>
</filter>
<filter id="filter13_bii_182_557" x="-1.5179" y="121.343" width="188.69" height="208.71" filterUnits="userSpaceOnUse" color-interpolation-filters="sRGB">
<feFlood flood-opacity="0" result="BackgroundImageFix"/>
<feGaussianBlur in="BackgroundImageFix" stdDeviation="6.97721"/>
<feComposite in2="SourceAlpha" operator="in" result="effect1_backgroundBlur_182_557"/>
<feBlend mode="normal" in="SourceGraphic" in2="effect1_backgroundBlur_182_557" result="shape"/>
<feColorMatrix in="SourceAlpha" type="matrix" values="0 0 0 0 0 0 0 0 0 0 0 0 0 0 0 0 0 0 127 0" result="hardAlpha"/>
<feOffset dy="2.42686"/>
<feGaussianBlur stdDeviation="3.03357"/>
<feComposite in2="hardAlpha" operator="arithmetic" k2="-1" k3="1"/>
<feColorMatrix type="matrix" values="0 0 0 0 1 0 0 0 0 1 0 0 0 0 1 0 0 0 0.25 0"/>
<feBlend mode="normal" in2="shape" result="effect2_innerShadow_182_557"/>
<feColorMatrix in="SourceAlpha" type="matrix" values="0 0 0 0 0 0 0 0 0 0 0 0 0 0 0 0 0 0 127 0" result="hardAlpha"/>
<feOffset dy="-2.42686"/>
<feGaussianBlur stdDeviation="3.03357"/>
<feComposite in2="hardAlpha" operator="arithmetic" k2="-1" k3="1"/>
<feColorMatrix type="matrix" values="0 0 0 0 0 0 0 0 0 0 0 0 0 0 0 0 0 0 0.1 0"/>
<feBlend mode="normal" in2="effect2_innerShadow_182_557" result="effect3_innerShadow_182_557"/>
</filter>
<filter id="filter14_i_182_557" x="83.6064" y="218.41" width="17.7217" height="16.3328" filterUnits="userSpaceOnUse" color-interpolation-filters="sRGB">
<feFlood flood-opacity="0" result="BackgroundImageFix"/>
<feBlend mode="normal" in="SourceGraphic" in2="BackgroundImageFix" result="shape"/>
<feColorMatrix in="SourceAlpha" type="matrix" values="0 0 0 0 0 0 0 0 0 0 0 0 0 0 0 0 0 0 127 0" result="hardAlpha"/>
<feOffset dy="0.606714"/>
<feGaussianBlur stdDeviation="0.303357"/>
<feComposite in2="hardAlpha" operator="arithmetic" k2="-1" k3="1"/>
<feColorMatrix type="matrix" values="0 0 0 0 0 0 0 0 0 0 0 0 0 0 0 0 0 0 0.25 0"/>
<feBlend mode="normal" in2="shape" result="effect1_innerShadow_182_557"/>
</filter>
<linearGradient id="paint0_linear_182_557" x1="205.98" y1="140.758" x2="297.593" y2="299.11" gradientUnits="userSpaceOnUse">
<stop stop-color="#D8B4FE"/>
<stop offset="1" stop-color="white" stop-opacity="0"/>
</linearGradient>
<linearGradient id="paint1_linear_182_557" x1="125.286" y1="6.06708" x2="216.9" y2="164.419" gradientUnits="userSpaceOnUse">
<stop stop-color="#D8B4FE"/>
<stop offset="1" stop-color="white" stop-opacity="0"/>
</linearGradient>
<linearGradient id="paint2_linear_182_557" x1="284.853" y1="6.06708" x2="376.466" y2="164.419" gradientUnits="userSpaceOnUse">
<stop stop-color="#D8B4FE"/>
<stop offset="1" stop-color="white" stop-opacity="0"/>
</linearGradient>
<linearGradient id="paint3_linear_182_557" x1="366.152" y1="141.266" x2="457.766" y2="299.619" gradientUnits="userSpaceOnUse">
<stop stop-color="#D8B4FE"/>
<stop offset="1" stop-color="white" stop-opacity="0"/>
</linearGradient>
<linearGradient id="paint4_linear_182_557" x1="286.065" y1="275.448" x2="377.679" y2="433.801" gradientUnits="userSpaceOnUse">
<stop stop-color="#D8B4FE"/>
<stop offset="1" stop-color="white" stop-opacity="0"/>
</linearGradient>
<linearGradient id="paint5_linear_182_557" x1="125.893" y1="275.448" x2="217.506" y2="433.801" gradientUnits="userSpaceOnUse">
<stop stop-color="#D8B4FE"/>
<stop offset="1" stop-color="white" stop-opacity="0"/>
</linearGradient>
<linearGradient id="paint6_linear_182_557" x1="45.8067" y1="141.364" x2="137.421" y2="299.717" gradientUnits="userSpaceOnUse">
<stop stop-color="#D8B4FE"/>
<stop offset="1" stop-color="white" stop-opacity="0"/>
</linearGradient>
</defs>
</svg>
