<svg width="324" height="68" viewBox="0 0 324 68" fill="none" xmlns="http://www.w3.org/2000/svg">
<path d="M99.9086 38.7759L82.6672 29.0818L82.6672 9.69376L99.9086 -0.000276399L117.15 9.69376L117.15 29.0818L99.9086 38.7759Z" fill="#DB0000"/>
<path d="M134.391 38.7759L117.149 29.0818L117.149 9.69376L134.391 -0.000276399L151.632 9.69376L151.632 29.0818L134.391 38.7759Z" fill="#DB0000"/>
<path d="M117.215 67.7927L99.9734 58.0987L99.9734 38.7106L117.215 29.0166L134.456 38.7106L134.456 58.0987L117.215 67.7927Z" fill="#DB0000"/>
<path d="M22.4545 33.3639C22.4545 35.8184 22.0114 37.9396 21.125 39.7275C20.2386 41.5154 19.0227 42.8942 17.4773 43.8639C15.9318 44.8336 14.1667 45.3184 12.1818 45.3184C10.197 45.3184 8.43182 44.8336 6.88636 43.8639C5.34091 42.8942 4.125 41.5154 3.23864 39.7275C2.35227 37.9396 1.90909 35.8184 1.90909 33.3639C1.90909 30.9093 2.35227 28.7881 3.23864 27.0002C4.125 25.2124 5.34091 23.8336 6.88636 22.8639C8.43182 21.8942 10.197 21.4093 12.1818 21.4093C14.1667 21.4093 15.9318 21.8942 17.4773 22.8639C19.0227 23.8336 20.2386 25.2124 21.125 27.0002C22.0114 28.7881 22.4545 30.9093 22.4545 33.3639ZM19.7273 33.3639C19.7273 31.3487 19.3902 29.648 18.7159 28.2616C18.0492 26.8752 17.1439 25.826 16 25.1139C14.8636 24.4018 13.5909 24.0457 12.1818 24.0457C10.7727 24.0457 9.49621 24.4018 8.35227 25.1139C7.21591 25.826 6.31061 26.8752 5.63636 28.2616C4.9697 29.648 4.63636 31.3487 4.63636 33.3639C4.63636 35.379 4.9697 37.0798 5.63636 38.4662C6.31061 39.8525 7.21591 40.9018 8.35227 41.6139C9.49621 42.326 10.7727 42.6821 12.1818 42.6821C13.5909 42.6821 14.8636 42.326 16 41.6139C17.1439 40.9018 18.0492 39.8525 18.7159 38.4662C19.3902 37.0798 19.7273 35.379 19.7273 33.3639ZM28.8714 21.7275V45.0002H26.1895V21.7275H28.8714ZM38.2797 45.4093C37.1736 45.4093 36.1698 45.201 35.2683 44.7843C34.3668 44.3601 33.6509 43.7502 33.1206 42.9548C32.5903 42.1518 32.3251 41.1821 32.3251 40.0457C32.3251 39.0457 32.5221 38.2351 32.916 37.6139C33.31 36.9851 33.8365 36.4927 34.4956 36.1366C35.1547 35.7805 35.8819 35.5154 36.6774 35.3412C37.4804 35.1593 38.2872 35.0154 39.0978 34.9093C40.1584 34.773 41.0183 34.6707 41.6774 34.6025C42.3441 34.5268 42.8289 34.4018 43.1319 34.2275C43.4425 34.0533 43.5978 33.7502 43.5978 33.3184V33.2275C43.5978 32.1063 43.291 31.2351 42.6774 30.6139C42.0713 29.9927 41.1509 29.6821 39.916 29.6821C38.6357 29.6821 37.6319 29.9624 36.9047 30.523C36.1774 31.0836 35.666 31.6821 35.3706 32.3184L32.8251 31.4093C33.2797 30.3487 33.8857 29.523 34.6433 28.9321C35.4084 28.3336 36.2418 27.9169 37.1433 27.6821C38.0524 27.4396 38.9463 27.3184 39.8251 27.3184C40.3857 27.3184 41.0297 27.3866 41.7569 27.523C42.4918 27.6518 43.2001 27.9207 43.8819 28.3298C44.5713 28.7389 45.1433 29.3563 45.5978 30.1821C46.0524 31.0078 46.2797 32.1139 46.2797 33.5002V45.0002H43.5978V42.6366H43.4615C43.2797 43.0154 42.9766 43.4207 42.5524 43.8525C42.1281 44.2843 41.5637 44.6518 40.8592 44.9548C40.1547 45.2578 39.2948 45.4093 38.2797 45.4093ZM38.6887 43.0002C39.7494 43.0002 40.6433 42.7919 41.3706 42.3752C42.1054 41.9586 42.6584 41.4207 43.0297 40.7616C43.4084 40.1025 43.5978 39.4093 43.5978 38.6821V36.2275C43.4842 36.3639 43.2342 36.4889 42.8478 36.6025C42.4691 36.7086 42.0297 36.8033 41.5297 36.8866C41.0372 36.9624 40.5562 37.0305 40.0865 37.0912C39.6244 37.1442 39.2494 37.1896 38.9615 37.2275C38.2645 37.3184 37.613 37.4662 37.0069 37.6707C36.4084 37.8677 35.9236 38.1669 35.5524 38.5684C35.1887 38.9624 35.0069 39.5002 35.0069 40.1821C35.0069 41.1139 35.3516 41.8184 36.041 42.2957C36.738 42.7654 37.6206 43.0002 38.6887 43.0002ZM62.8982 31.4548L60.4891 32.1366C60.3376 31.7351 60.1141 31.3449 59.8186 30.9662C59.5308 30.5798 59.1368 30.2616 58.6368 30.0116C58.1368 29.7616 57.4967 29.6366 56.7164 29.6366C55.6482 29.6366 54.758 29.8828 54.0459 30.3752C53.3414 30.8601 52.9891 31.4775 52.9891 32.2275C52.9891 32.8942 53.2315 33.4207 53.7164 33.8071C54.2012 34.1934 54.9588 34.5154 55.9891 34.773L58.58 35.4093C60.1406 35.7881 61.3035 36.3677 62.0686 37.148C62.8338 37.9207 63.2164 38.9169 63.2164 40.1366C63.2164 41.1366 62.9285 42.0305 62.3527 42.8184C61.7845 43.6063 60.9891 44.2275 59.9664 44.6821C58.9436 45.1366 57.7542 45.3639 56.3982 45.3639C54.6179 45.3639 53.1444 44.9775 51.9777 44.2048C50.8111 43.4321 50.0724 42.3033 49.7618 40.8184L52.3073 40.1821C52.5497 41.1215 53.008 41.826 53.6823 42.2957C54.3641 42.7654 55.2542 43.0002 56.3527 43.0002C57.6027 43.0002 58.5952 42.7351 59.33 42.2048C60.0724 41.6669 60.4436 41.023 60.4436 40.273C60.4436 39.6669 60.2315 39.1593 59.8073 38.7502C59.383 38.3336 58.7315 38.023 57.8527 37.8184L54.9436 37.1366C53.3452 36.7578 52.1709 36.1707 51.4209 35.3752C50.6785 34.5722 50.3073 33.5684 50.3073 32.3639C50.3073 31.379 50.5838 30.5078 51.1368 29.7502C51.6974 28.9927 52.4588 28.398 53.4209 27.9662C54.3906 27.5343 55.4891 27.3184 56.7164 27.3184C58.4436 27.3184 59.7997 27.6972 60.7845 28.4548C61.777 29.2124 62.4815 30.2124 62.8982 31.4548Z" fill="black"/>
<path d="M173.182 51.5457C172.727 51.5457 172.322 51.5078 171.966 51.4321C171.61 51.3639 171.364 51.2957 171.227 51.2275L171.909 48.8639C172.561 49.0305 173.136 49.0912 173.636 49.0457C174.136 49.0002 174.58 48.7768 174.966 48.3752C175.36 47.9813 175.72 47.3412 176.045 46.4548L176.545 45.0912L170.091 27.5457H173L177.818 41.4548H178L182.818 27.5457H185.727L178.318 47.5457C177.985 48.4472 177.572 49.1934 177.08 49.7843C176.587 50.3828 176.015 50.826 175.364 51.1139C174.72 51.4018 173.992 51.5457 173.182 51.5457ZM195.093 45.3639C193.517 45.3639 192.135 44.9889 190.945 44.2389C189.763 43.4889 188.839 42.4396 188.173 41.0912C187.513 39.7427 187.184 38.1669 187.184 36.3639C187.184 34.5457 187.513 32.9586 188.173 31.6025C188.839 30.2465 189.763 29.1934 190.945 28.4434C192.135 27.6934 193.517 27.3184 195.093 27.3184C196.669 27.3184 198.048 27.6934 199.229 28.4434C200.419 29.1934 201.343 30.2465 202.002 31.6025C202.669 32.9586 203.002 34.5457 203.002 36.3639C203.002 38.1669 202.669 39.7427 202.002 41.0912C201.343 42.4396 200.419 43.4889 199.229 44.2389C198.048 44.9889 196.669 45.3639 195.093 45.3639ZM195.093 42.9548C196.29 42.9548 197.275 42.648 198.048 42.0343C198.82 41.4207 199.392 40.6139 199.763 39.6139C200.135 38.6139 200.32 37.5305 200.32 36.3639C200.32 35.1972 200.135 34.1101 199.763 33.1025C199.392 32.0949 198.82 31.2805 198.048 30.6593C197.275 30.0381 196.29 29.7275 195.093 29.7275C193.896 29.7275 192.911 30.0381 192.138 30.6593C191.366 31.2805 190.794 32.0949 190.423 33.1025C190.051 34.1101 189.866 35.1972 189.866 36.3639C189.866 37.5305 190.051 38.6139 190.423 39.6139C190.794 40.6139 191.366 41.4207 192.138 42.0343C192.911 42.648 193.896 42.9548 195.093 42.9548ZM217.456 37.8639V27.5457H220.138V45.0002H217.456V42.0457H217.274C216.865 42.9321 216.229 43.6859 215.365 44.3071C214.501 44.9207 213.41 45.2275 212.092 45.2275C211.001 45.2275 210.032 44.9889 209.183 44.5116C208.335 44.0268 207.668 43.2995 207.183 42.3298C206.698 41.3525 206.456 40.1215 206.456 38.6366V27.5457H209.138V38.4548C209.138 39.7275 209.494 40.7427 210.206 41.5002C210.925 42.2578 211.842 42.6366 212.956 42.6366C213.622 42.6366 214.3 42.4662 214.99 42.1252C215.687 41.7843 216.27 41.2616 216.74 40.5571C217.217 39.8525 217.456 38.9548 217.456 37.8639ZM224.41 45.0002V27.5457H227V30.1821H227.182C227.5 29.3184 228.076 28.6177 228.91 28.0798C229.743 27.5419 230.682 27.273 231.728 27.273C231.925 27.273 232.171 27.2768 232.466 27.2843C232.762 27.2919 232.985 27.3033 233.137 27.3184V30.0457C233.046 30.023 232.838 29.9889 232.512 29.9434C232.194 29.8904 231.857 29.8639 231.5 29.8639C230.652 29.8639 229.894 30.0419 229.228 30.398C228.569 30.7465 228.046 31.2313 227.66 31.8525C227.281 32.4662 227.091 33.1669 227.091 33.9548V45.0002H224.41ZM251.627 27.5457V29.8184H242.581V27.5457H251.627ZM245.218 23.3639H247.899V40.0002C247.899 40.7578 248.009 41.326 248.229 41.7048C248.456 42.076 248.744 42.326 249.093 42.4548C249.449 42.576 249.824 42.6366 250.218 42.6366C250.513 42.6366 250.755 42.6215 250.945 42.5912C251.134 42.5533 251.286 42.523 251.399 42.5002L251.945 44.9093C251.763 44.9775 251.509 45.0457 251.184 45.1139C250.858 45.1896 250.445 45.2275 249.945 45.2275C249.187 45.2275 248.445 45.0646 247.718 44.7389C246.998 44.4131 246.399 43.9169 245.922 43.2502C245.452 42.5836 245.218 41.7427 245.218 40.7275V23.3639ZM261.924 45.3639C260.348 45.3639 258.966 44.9889 257.776 44.2389C256.595 43.4889 255.67 42.4396 255.004 41.0912C254.345 39.7427 254.015 38.1669 254.015 36.3639C254.015 34.5457 254.345 32.9586 255.004 31.6025C255.67 30.2465 256.595 29.1934 257.776 28.4434C258.966 27.6934 260.348 27.3184 261.924 27.3184C263.5 27.3184 264.879 27.6934 266.061 28.4434C267.25 29.1934 268.174 30.2465 268.833 31.6025C269.5 32.9586 269.833 34.5457 269.833 36.3639C269.833 38.1669 269.5 39.7427 268.833 41.0912C268.174 42.4396 267.25 43.4889 266.061 44.2389C264.879 44.9889 263.5 45.3639 261.924 45.3639ZM261.924 42.9548C263.121 42.9548 264.106 42.648 264.879 42.0343C265.651 41.4207 266.223 40.6139 266.595 39.6139C266.966 38.6139 267.151 37.5305 267.151 36.3639C267.151 35.1972 266.966 34.1101 266.595 33.1025C266.223 32.0949 265.651 31.2805 264.879 30.6593C264.106 30.0381 263.121 29.7275 261.924 29.7275C260.727 29.7275 259.742 30.0381 258.97 30.6593C258.197 31.2805 257.625 32.0949 257.254 33.1025C256.883 34.1101 256.697 35.1972 256.697 36.3639C256.697 37.5305 256.883 38.6139 257.254 39.6139C257.625 40.6139 258.197 41.4207 258.97 42.0343C259.742 42.648 260.727 42.9548 261.924 42.9548ZM275.787 38.6366L275.742 35.3184H276.287L283.923 27.5457H287.242L279.105 35.773H278.878L275.787 38.6366ZM273.287 45.0002V21.7275H275.969V45.0002H273.287ZM284.378 45.0002L277.56 36.3639L279.469 34.5002L287.787 45.0002H284.378ZM296.653 45.3639C294.971 45.3639 293.52 44.9927 292.3 44.2502C291.088 43.5002 290.153 42.4548 289.494 41.1139C288.842 39.7654 288.516 38.1972 288.516 36.4093C288.516 34.6215 288.842 33.0457 289.494 31.6821C290.153 30.3109 291.069 29.2427 292.244 28.4775C293.425 27.7048 294.804 27.3184 296.38 27.3184C297.289 27.3184 298.187 27.4699 299.073 27.773C299.96 28.076 300.766 28.5684 301.494 29.2502C302.221 29.9245 302.8 30.8184 303.232 31.9321C303.664 33.0457 303.88 34.4169 303.88 36.0457V37.1821H290.425V34.8639H301.153C301.153 33.879 300.956 33.0002 300.562 32.2275C300.175 31.4548 299.622 30.8449 298.903 30.398C298.191 29.951 297.35 29.7275 296.38 29.7275C295.312 29.7275 294.388 29.9927 293.607 30.523C292.835 31.0457 292.24 31.7275 291.823 32.5684C291.407 33.4093 291.198 34.3108 291.198 35.273V36.8184C291.198 38.1366 291.425 39.254 291.88 40.1707C292.342 41.0798 292.982 41.773 293.8 42.2502C294.619 42.7199 295.569 42.9548 296.653 42.9548C297.357 42.9548 297.994 42.8563 298.562 42.6593C299.138 42.4548 299.634 42.1518 300.05 41.7502C300.467 41.3412 300.789 40.8336 301.016 40.2275L303.607 40.9548C303.335 41.8336 302.876 42.6063 302.232 43.273C301.588 43.9321 300.793 44.4472 299.846 44.8184C298.899 45.1821 297.835 45.3639 296.653 45.3639ZM310.001 34.5002V45.0002H307.32V27.5457H309.91V30.273H310.138C310.547 29.3866 311.168 28.6745 312.001 28.1366C312.835 27.5912 313.91 27.3184 315.229 27.3184C316.41 27.3184 317.445 27.5609 318.331 28.0457C319.217 28.523 319.907 29.2502 320.399 30.2275C320.892 31.1972 321.138 32.4245 321.138 33.9093V45.0002H318.456V34.0912C318.456 32.7199 318.1 31.6518 317.388 30.8866C316.676 30.1139 315.698 29.7275 314.456 29.7275C313.6 29.7275 312.835 29.9131 312.16 30.2843C311.494 30.6555 310.967 31.1972 310.581 31.9093C310.195 32.6215 310.001 33.4851 310.001 34.5002Z" fill="black"/>
</svg>
