<svg width="306" height="298" viewBox="0 0 306 298" fill="none" xmlns="http://www.w3.org/2000/svg">
<g filter="url(#filter0_bii_204_13)">
<path d="M153 298L20.4981 223.5L20.4981 74.5L153 -1.33757e-05L285.502 74.5L285.502 223.5L153 298Z" fill="url(#paint0_linear_204_13)" fill-opacity="0.7"/>
</g>
<g filter="url(#filter1_i_204_13)">
<path d="M93.6299 135.388V126.63H152.336V135.388H93.6299ZM93.6299 153.379V144.62H152.336V153.379H93.6299ZM93.6299 171.369V162.611H116.986V171.369H93.6299ZM128.98 171.369V162.611H152.336V171.369H128.98Z" fill="black" fill-opacity="0.6"/>
</g>
<g filter="url(#filter2_i_204_13)">
<path fill-rule="evenodd" clip-rule="evenodd" d="M91 138.019V124H154.967V138.019H91ZM91 156.009V141.991H154.967V156.009H91ZM91 174V159.981H119.617V174H91ZM126.35 174V159.981H154.967V174H126.35ZM93.6302 135.389H152.336V126.63H93.6302V135.389ZM93.6302 153.379H152.336V144.621H93.6302V153.379ZM93.6302 171.37H116.986V162.611H93.6302V171.37ZM128.98 171.37H152.336V162.611H128.98V171.37Z" fill="black" fill-opacity="0.6"/>
</g>
<g filter="url(#filter3_i_204_13)">
<path d="M165.193 174V124H173.666L190.193 157.194L206.721 124H215.193V174H206.374V144.139L191.86 174H188.527L174.013 144.139V174H165.193Z" fill="black" fill-opacity="0.6"/>
</g>
<defs>
<filter id="filter0_bii_204_13" x="-2.50195" y="-23" width="311.004" height="344" filterUnits="userSpaceOnUse" color-interpolation-filters="sRGB">
<feFlood flood-opacity="0" result="BackgroundImageFix"/>
<feGaussianBlur in="BackgroundImageFix" stdDeviation="11.5"/>
<feComposite in2="SourceAlpha" operator="in" result="effect1_backgroundBlur_204_13"/>
<feBlend mode="normal" in="SourceGraphic" in2="effect1_backgroundBlur_204_13" result="shape"/>
<feColorMatrix in="SourceAlpha" type="matrix" values="0 0 0 0 0 0 0 0 0 0 0 0 0 0 0 0 0 0 127 0" result="hardAlpha"/>
<feOffset dy="4"/>
<feGaussianBlur stdDeviation="5"/>
<feComposite in2="hardAlpha" operator="arithmetic" k2="-1" k3="1"/>
<feColorMatrix type="matrix" values="0 0 0 0 1 0 0 0 0 1 0 0 0 0 1 0 0 0 0.25 0"/>
<feBlend mode="normal" in2="shape" result="effect2_innerShadow_204_13"/>
<feColorMatrix in="SourceAlpha" type="matrix" values="0 0 0 0 0 0 0 0 0 0 0 0 0 0 0 0 0 0 127 0" result="hardAlpha"/>
<feOffset dy="-4"/>
<feGaussianBlur stdDeviation="5"/>
<feComposite in2="hardAlpha" operator="arithmetic" k2="-1" k3="1"/>
<feColorMatrix type="matrix" values="0 0 0 0 0 0 0 0 0 0 0 0 0 0 0 0 0 0 0.1 0"/>
<feBlend mode="normal" in2="effect2_innerShadow_204_13" result="effect3_innerShadow_204_13"/>
</filter>
<filter id="filter1_i_204_13" x="93.6299" y="126.63" width="58.7061" height="47.3034" filterUnits="userSpaceOnUse" color-interpolation-filters="sRGB">
<feFlood flood-opacity="0" result="BackgroundImageFix"/>
<feBlend mode="normal" in="SourceGraphic" in2="BackgroundImageFix" result="shape"/>
<feColorMatrix in="SourceAlpha" type="matrix" values="0 0 0 0 0 0 0 0 0 0 0 0 0 0 0 0 0 0 127 0" result="hardAlpha"/>
<feOffset dy="2.56389"/>
<feGaussianBlur stdDeviation="1.28195"/>
<feComposite in2="hardAlpha" operator="arithmetic" k2="-1" k3="1"/>
<feColorMatrix type="matrix" values="0 0 0 0 0 0 0 0 0 0 0 0 0 0 0 0 0 0 0.25 0"/>
<feBlend mode="normal" in2="shape" result="effect1_innerShadow_204_13"/>
</filter>
<filter id="filter2_i_204_13" x="91" y="124" width="63.9668" height="52.5639" filterUnits="userSpaceOnUse" color-interpolation-filters="sRGB">
<feFlood flood-opacity="0" result="BackgroundImageFix"/>
<feBlend mode="normal" in="SourceGraphic" in2="BackgroundImageFix" result="shape"/>
<feColorMatrix in="SourceAlpha" type="matrix" values="0 0 0 0 0 0 0 0 0 0 0 0 0 0 0 0 0 0 127 0" result="hardAlpha"/>
<feOffset dy="2.56389"/>
<feGaussianBlur stdDeviation="1.28195"/>
<feComposite in2="hardAlpha" operator="arithmetic" k2="-1" k3="1"/>
<feColorMatrix type="matrix" values="0 0 0 0 0 0 0 0 0 0 0 0 0 0 0 0 0 0 0.25 0"/>
<feBlend mode="normal" in2="shape" result="effect1_innerShadow_204_13"/>
</filter>
<filter id="filter3_i_204_13" x="165.193" y="124" width="50" height="51.1207" filterUnits="userSpaceOnUse" color-interpolation-filters="sRGB">
<feFlood flood-opacity="0" result="BackgroundImageFix"/>
<feBlend mode="normal" in="SourceGraphic" in2="BackgroundImageFix" result="shape"/>
<feColorMatrix in="SourceAlpha" type="matrix" values="0 0 0 0 0 0 0 0 0 0 0 0 0 0 0 0 0 0 127 0" result="hardAlpha"/>
<feOffset dy="1.12072"/>
<feGaussianBlur stdDeviation="0.560361"/>
<feComposite in2="hardAlpha" operator="arithmetic" k2="-1" k3="1"/>
<feColorMatrix type="matrix" values="0 0 0 0 0 0 0 0 0 0 0 0 0 0 0 0 0 0 0.25 0"/>
<feBlend mode="normal" in2="shape" result="effect1_innerShadow_204_13"/>
</filter>
<linearGradient id="paint0_linear_204_13" x1="75.5" y1="9.99998" x2="226.5" y2="271" gradientUnits="userSpaceOnUse">
<stop stop-color="#D8B4FE"/>
<stop offset="1" stop-color="#CFFAFE" stop-opacity="0"/>
</linearGradient>
</defs>
</svg>
