<svg width="478" height="265" viewBox="0 0 478 265" fill="none" xmlns="http://www.w3.org/2000/svg">
<g filter="url(#filter0_i_77_4)">
<path d="M15.703 107.308V90.0723H131.23V107.308H15.703ZM15.703 142.712V125.476H131.23V142.712H15.703ZM15.703 178.115V160.879H61.6655V178.115H15.703ZM85.2678 178.115V160.879H131.23V178.115H85.2678Z" fill="#000000"/>
</g>
<path d="M15.703 107.308H10.5271V112.484H15.703V107.308ZM15.703 90.0723V84.8963H10.5271V90.0723H15.703ZM131.23 90.0723H136.406V84.8963H131.23V90.0723ZM131.23 107.308V112.484H136.406V107.308H131.23ZM15.703 142.712H10.5271V147.888H15.703V142.712ZM15.703 125.476V120.3H10.5271V125.476H15.703ZM131.23 125.476H136.406V120.3H131.23V125.476ZM131.23 142.712V147.888H136.406V142.712H131.23ZM15.703 178.115H10.5271V183.291H15.703V178.115ZM15.703 160.879V155.703H10.5271V160.879H15.703ZM61.6655 160.879H66.8414V155.703H61.6655V160.879ZM61.6655 178.115V183.291H66.8414V178.115H61.6655ZM85.2678 178.115H80.0919V183.291H85.2678V178.115ZM85.2678 160.879V155.703H80.0919V160.879H85.2678ZM131.23 160.879H136.406V155.703H131.23V160.879ZM131.23 178.115V183.291H136.406V178.115H131.23ZM20.879 107.308V90.0723H10.5271V107.308H20.879ZM15.703 95.2482H131.23V84.8963H15.703V95.2482ZM126.054 90.0723V107.308H136.406V90.0723H126.054ZM131.23 102.132H15.703V112.484H131.23V102.132ZM20.879 142.712V125.476H10.5271V142.712H20.879ZM15.703 130.652H131.23V120.3H15.703V130.652ZM126.054 125.476V142.712H136.406V125.476H126.054ZM131.23 137.536H15.703V147.888H131.23V137.536ZM20.879 178.115V160.879H10.5271V178.115H20.879ZM15.703 166.055H61.6655V155.703H15.703V166.055ZM56.4895 160.879V178.115H66.8414V160.879H56.4895ZM61.6655 172.939H15.703V183.291H61.6655V172.939ZM90.4438 178.115V160.879H80.0919V178.115H90.4438ZM85.2678 166.055H131.23V155.703H85.2678V166.055ZM126.054 160.879V178.115H136.406V160.879H126.054ZM131.23 172.939H85.2678V183.291H131.23V172.939Z" fill="#000000"/>
<path d="M215.846 191.329C204.666 191.329 195.013 188.896 186.887 184.031C178.813 179.166 172.575 172.359 168.176 163.612C163.828 154.865 161.654 144.694 161.654 133.1C161.654 121.506 163.828 111.335 168.176 102.587C172.575 93.8401 178.813 87.0338 186.887 82.1684C195.013 77.303 204.666 74.8703 215.846 74.8703C227.027 74.8703 236.654 77.303 244.728 82.1684C252.854 87.0338 259.092 93.8401 263.439 102.587C267.839 111.335 270.039 121.506 270.039 133.1C270.039 144.694 267.839 154.865 263.439 163.612C259.092 172.359 252.854 179.166 244.728 184.031C236.654 188.896 227.027 191.329 215.846 191.329ZM215.846 171.454C222.938 171.557 228.838 170.03 233.548 166.873C238.258 163.715 241.778 159.238 244.107 153.441C246.488 147.644 247.679 140.864 247.679 133.1C247.679 125.336 246.488 118.607 244.107 112.914C241.778 107.22 238.258 102.795 233.548 99.6372C228.838 96.4799 222.938 94.8494 215.846 94.7459C208.755 94.6424 202.855 96.1693 198.145 99.3266C193.435 102.484 189.889 106.961 187.508 112.758C185.179 118.555 184.014 125.336 184.014 133.1C184.014 140.864 185.179 147.592 187.508 153.286C189.889 158.979 193.435 163.405 198.145 166.562C202.855 169.72 208.755 171.35 215.846 171.454ZM280.879 189V74.8703H301.997V189H280.879ZM342.354 191.329C336.349 191.329 331.251 190.19 327.059 187.913C322.918 185.584 319.761 182.504 317.587 178.674C315.465 174.792 314.403 170.522 314.403 165.863C314.403 161.982 314.999 158.436 316.189 155.227C317.38 152.018 319.295 149.197 321.934 146.764C324.626 144.28 328.223 142.209 332.726 140.553C335.832 139.414 339.533 138.405 343.829 137.525C348.125 136.645 352.99 135.817 358.425 135.041C363.86 134.213 369.838 133.307 376.36 132.323L368.751 136.516C368.751 131.547 367.56 127.898 365.18 125.569C362.799 123.24 358.813 122.075 353.223 122.075C350.117 122.075 346.883 122.825 343.518 124.326C340.154 125.828 337.799 128.493 336.453 132.323L317.354 126.267C319.476 119.332 323.461 113.69 329.31 109.342C335.159 104.994 343.13 102.82 353.223 102.82C360.625 102.82 367.198 103.959 372.943 106.237C378.689 108.514 383.037 112.448 385.987 118.038C387.643 121.143 388.627 124.249 388.937 127.354C389.248 130.46 389.403 133.928 389.403 137.758V189H370.925V171.764L373.565 175.335C369.476 180.977 365.05 185.066 360.288 187.602C355.578 190.087 349.6 191.329 342.354 191.329ZM346.857 174.714C350.739 174.714 353.999 174.042 356.639 172.696C359.331 171.298 361.453 169.72 363.006 167.96C364.61 166.2 365.697 164.725 366.266 163.534C367.353 161.257 367.975 158.617 368.13 155.615C368.337 152.561 368.44 150.025 368.44 148.006L374.652 149.559C368.389 150.594 363.316 151.474 359.434 152.199C355.552 152.872 352.421 153.493 350.04 154.062C347.659 154.632 345.563 155.253 343.751 155.926C341.681 156.754 339.999 157.66 338.705 158.643C337.462 159.575 336.531 160.61 335.91 161.749C335.34 162.887 335.055 164.155 335.055 165.553C335.055 167.468 335.521 169.124 336.453 170.522C337.436 171.868 338.808 172.903 340.568 173.627C342.328 174.352 344.424 174.714 346.857 174.714ZM436.143 191.329C425.584 191.329 417.044 188.948 410.522 184.186C404.052 179.373 400.118 172.592 398.721 163.845L420.305 160.584C421.185 164.518 423.125 167.597 426.128 169.823C429.181 172.049 433.037 173.162 437.696 173.162C441.526 173.162 444.476 172.437 446.547 170.988C448.617 169.487 449.652 167.416 449.652 164.777C449.652 163.12 449.238 161.8 448.41 160.817C447.582 159.782 445.719 158.772 442.82 157.789C439.973 156.806 435.522 155.512 429.466 153.907C422.634 152.147 417.173 150.18 413.084 148.006C408.995 145.833 406.045 143.245 404.233 140.243C402.422 137.189 401.516 133.514 401.516 129.218C401.516 123.835 402.888 119.176 405.631 115.243C408.374 111.257 412.23 108.203 417.199 106.081C422.22 103.907 428.12 102.82 434.901 102.82C441.474 102.82 447.297 103.83 452.37 105.848C457.442 107.867 461.531 110.74 464.637 114.466C467.794 118.193 469.735 122.593 470.46 127.665L448.876 131.547C448.514 128.441 447.168 125.983 444.839 124.171C442.509 122.36 439.352 121.299 435.367 120.988C431.485 120.729 428.353 121.247 425.972 122.541C423.643 123.835 422.478 125.698 422.478 128.131C422.478 129.58 422.97 130.796 423.954 131.78C424.989 132.763 427.085 133.773 430.242 134.808C433.452 135.843 438.317 137.189 444.839 138.845C451.205 140.501 456.303 142.442 460.134 144.668C464.016 146.842 466.836 149.482 468.596 152.587C470.356 155.641 471.236 159.342 471.236 163.69C471.236 172.282 468.13 179.036 461.919 183.953C455.708 188.871 447.116 191.329 436.143 191.329Z" fill="#000000"/>
<defs>
<filter id="filter0_i_77_4" x="15.703" y="90.0723" width="115.527" height="93.0884" filterUnits="userSpaceOnUse" color-interpolation-filters="sRGB">
<feFlood flood-opacity="0" result="BackgroundImageFix"/>
<feBlend mode="normal" in="SourceGraphic" in2="BackgroundImageFix" result="shape"/>
<feColorMatrix in="SourceAlpha" type="matrix" values="0 0 0 0 0 0 0 0 0 0 0 0 0 0 0 0 0 0 127 0" result="hardAlpha"/>
<feOffset dy="5.04546"/>
<feGaussianBlur stdDeviation="2.52273"/>
<feComposite in2="hardAlpha" operator="arithmetic" k2="-1" k3="1"/>
<feColorMatrix type="matrix" values="0 0 0 0 0 0 0 0 0 0 0 0 0 0 0 0 0 0 0.25 0"/>
<feBlend mode="normal" in2="shape" result="effect1_innerShadow_77_4"/>
</filter>
</defs>
</svg>
