<svg width="436" height="90" viewBox="0 0 436 90" fill="none" xmlns="http://www.w3.org/2000/svg">
<g filter="url(#filter0_i_141_73)">
<path d="M5.65681 36.6603V30.9263H44.0903V36.6603H5.65681ZM5.65681 48.4383V42.7043H44.0903V48.4383H5.65681ZM5.65681 60.2164V54.4823H20.9476V60.2164H5.65681ZM28.7996 60.2164V54.4823H44.0903V60.2164H28.7996Z" fill="#000000"/>
</g>
<path d="M5.65681 36.6603H3.93488V38.3823H5.65681V36.6603ZM5.65681 30.9263V29.2044H3.93488V30.9263H5.65681ZM44.0903 30.9263H45.8123V29.2044H44.0903V30.9263ZM44.0903 36.6603V38.3823H45.8123V36.6603H44.0903ZM5.65681 48.4383H3.93488V50.1603H5.65681V48.4383ZM5.65681 42.7043V40.9824H3.93488V42.7043H5.65681ZM44.0903 42.7043H45.8123V40.9824H44.0903V42.7043ZM44.0903 48.4383V50.1603H45.8123V48.4383H44.0903ZM5.65681 60.2164H3.93488V61.9383H5.65681V60.2164ZM5.65681 54.4823V52.7604H3.93488V54.4823H5.65681ZM20.9476 54.4823H22.6695V52.7604H20.9476V54.4823ZM20.9476 60.2164V61.9383H22.6695V60.2164H20.9476ZM28.7996 60.2164H27.0776V61.9383H28.7996V60.2164ZM28.7996 54.4823V52.7604H27.0776V54.4823H28.7996ZM44.0903 54.4823H45.8123V52.7604H44.0903V54.4823ZM44.0903 60.2164V61.9383H45.8123V60.2164H44.0903ZM7.37874 36.6603V30.9263H3.93488V36.6603H7.37874ZM5.65681 32.6482H44.0903V29.2044H5.65681V32.6482ZM42.3684 30.9263V36.6603H45.8123V30.9263H42.3684ZM44.0903 34.9384H5.65681V38.3823H44.0903V34.9384ZM7.37874 48.4383V42.7043H3.93488V48.4383H7.37874ZM5.65681 44.4262H44.0903V40.9824H5.65681V44.4262ZM42.3684 42.7043V48.4383H45.8123V42.7043H42.3684ZM44.0903 46.7164H5.65681V50.1603H44.0903V46.7164ZM7.37874 60.2164V54.4823H3.93488V60.2164H7.37874ZM5.65681 56.2043H20.9476V52.7604H5.65681V56.2043ZM19.2256 54.4823V60.2164H22.6695V54.4823H19.2256ZM20.9476 58.4944H5.65681V61.9383H20.9476V58.4944ZM30.5215 60.2164V54.4823H27.0776V60.2164H30.5215ZM28.7996 56.2043H44.0903V52.7604H28.7996V56.2043ZM42.3684 54.4823V60.2164H45.8123V54.4823H42.3684ZM44.0903 58.4944H28.7996V61.9383H44.0903V58.4944Z" fill="#000000"/>
<path d="M72.2595 64.6163C68.5402 64.6163 65.3288 63.807 62.6253 62.1884C59.9391 60.5698 57.8642 58.3054 56.4005 55.3954C54.9541 52.4853 54.2309 49.1017 54.2309 45.2446C54.2309 41.3874 54.9541 38.0038 56.4005 35.0938C57.8642 32.1837 59.9391 29.9194 62.6253 28.3007C65.3288 26.6821 68.5402 25.8728 72.2595 25.8728C75.9789 25.8728 79.1817 26.6821 81.8679 28.3007C84.5714 29.9194 86.6463 32.1837 88.0927 35.0938C89.5564 38.0038 90.2882 41.3874 90.2882 45.2446C90.2882 49.1017 89.5564 52.4853 88.0927 55.3954C86.6463 58.3054 84.5714 60.5698 81.8679 62.1884C79.1817 63.807 75.9789 64.6163 72.2595 64.6163ZM72.2595 58.0041C74.6186 58.0385 76.5816 57.5305 78.1486 56.4802C79.7155 55.4298 80.8864 53.9403 81.6613 52.0118C82.4534 50.0832 82.8494 47.8275 82.8494 45.2446C82.8494 42.6617 82.4534 40.4231 81.6613 38.529C80.8864 36.6349 79.7155 35.1626 78.1486 34.1123C76.5816 33.0619 74.6186 32.5195 72.2595 32.485C69.9005 32.4506 67.9375 32.9586 66.3705 34.0089C64.8036 35.0593 63.624 36.5488 62.832 38.4774C62.0571 40.4059 61.6697 42.6617 61.6697 45.2446C61.6697 47.8275 62.0571 50.066 62.832 51.9601C63.624 53.8542 64.8036 55.3265 66.3705 56.3769C67.9375 57.4272 69.9005 57.9696 72.2595 58.0041ZM107.067 64.6163C104.295 64.6163 101.979 63.9706 100.119 62.6791C98.2596 61.3877 96.8563 59.6313 95.9092 57.41C94.9794 55.1887 94.5144 52.6833 94.5144 49.8938C94.5144 47.1042 94.9794 44.5988 95.9092 42.3775C96.8391 40.1562 98.208 38.3999 100.016 37.1084C101.824 35.817 104.054 35.1713 106.706 35.1713C109.375 35.1713 111.699 35.8084 113.68 37.0826C115.66 38.3568 117.192 40.1046 118.277 42.3259C119.379 44.53 119.93 47.0526 119.93 49.8938C119.93 52.6833 119.388 55.1887 118.303 57.41C117.235 59.6313 115.737 61.3877 113.809 62.6791C111.88 63.9706 109.633 64.6163 107.067 64.6163ZM93.3263 76.2393V35.9461H99.5253V55.0596H100.403V76.2393H93.3263ZM105.931 58.3657C107.446 58.3657 108.686 57.9869 109.65 57.2292C110.615 56.4716 111.329 55.4556 111.794 54.1814C112.259 52.8899 112.491 51.4607 112.491 49.8938C112.491 48.344 112.25 46.9321 111.768 45.6578C111.286 44.3664 110.537 43.3418 109.521 42.5842C108.522 41.8093 107.24 41.4219 105.673 41.4219C104.209 41.4219 103.021 41.7749 102.108 42.4809C101.213 43.1868 100.558 44.177 100.145 45.4512C99.7319 46.7254 99.5253 48.2063 99.5253 49.8938C99.5253 51.5813 99.7319 53.0621 100.145 54.3364C100.558 55.6106 101.23 56.6007 102.16 57.3067C103.107 58.0127 104.364 58.3657 105.931 58.3657ZM136.514 64.6163C133.655 64.6163 131.133 64.005 128.946 62.7824C126.776 61.5427 125.071 59.8465 123.832 57.6941C122.609 55.5245 121.998 53.0449 121.998 50.2554C121.998 47.2076 122.6 44.5558 123.806 42.3001C125.011 40.0443 126.673 38.2966 128.791 37.0568C130.909 35.7998 133.345 35.1713 136.1 35.1713C139.028 35.1713 141.516 35.86 143.565 37.2376C145.614 38.6151 147.129 40.5523 148.111 43.0491C149.092 45.5459 149.437 48.4818 149.144 51.8568H142.196V49.2739C142.196 46.4327 141.74 44.3922 140.827 43.1524C139.932 41.8954 138.459 41.2669 136.41 41.2669C134.017 41.2669 132.252 41.9987 131.115 43.4624C129.996 44.9088 129.436 47.0526 129.436 49.8938C129.436 52.4939 129.996 54.5086 131.115 55.9378C132.252 57.3497 133.913 58.0557 136.1 58.0557C137.478 58.0557 138.657 57.7544 139.639 57.1517C140.62 56.549 141.369 55.6795 141.886 54.543L148.912 56.5577C147.861 59.1061 146.199 61.0863 143.927 62.4983C141.671 63.9103 139.2 64.6163 136.514 64.6163ZM127.267 51.8568V46.6393H145.76V51.8568H127.267ZM171.163 63.8414V50.6686C171.163 50.0315 171.129 49.2222 171.06 48.2407C170.991 47.242 170.776 46.2433 170.414 45.2446C170.053 44.2458 169.458 43.4107 168.632 42.7391C167.823 42.0676 166.669 41.7318 165.171 41.7318C164.568 41.7318 163.922 41.8265 163.234 42.0159C162.545 42.2053 161.899 42.5756 161.297 43.1266C160.694 43.6604 160.194 44.4525 159.798 45.5028C159.42 46.5532 159.23 47.948 159.23 49.6871L155.201 47.7758C155.201 45.5717 155.649 43.5054 156.544 41.5768C157.439 39.6483 158.782 38.0899 160.573 36.9018C162.381 35.7137 164.654 35.1196 167.392 35.1196C169.579 35.1196 171.361 35.4898 172.739 36.2302C174.116 36.9707 175.184 37.9091 175.942 39.0456C176.716 40.1821 177.267 41.3702 177.595 42.61C177.922 43.8326 178.12 44.9518 178.189 45.9678C178.258 46.9837 178.292 47.7241 178.292 48.1891V63.8414H171.163ZM152.101 63.8414V35.9461H158.352V45.1929H159.23V63.8414H152.101ZM188.62 63.8414L199.985 26.6477H210.472L221.836 63.8414H214.604L204.479 31.0386H205.822L195.852 63.8414H188.62ZM195.439 56.0927V49.5322H215.069V56.0927H195.439ZM234.783 64.668C232.596 64.668 230.814 64.2977 229.436 63.5573C228.059 62.8169 226.982 61.8784 226.208 60.742C225.45 59.6055 224.908 58.426 224.58 57.2034C224.253 55.9636 224.055 54.8357 223.986 53.8198C223.917 52.8038 223.883 52.0634 223.883 51.5985V35.9461H231.012V49.1189C231.012 49.756 231.046 50.5739 231.115 51.5727C231.184 52.5542 231.399 53.5443 231.761 54.543C232.122 55.5417 232.708 56.3769 233.517 57.0484C234.344 57.72 235.506 58.0557 237.004 58.0557C237.607 58.0557 238.253 57.961 238.941 57.7716C239.63 57.5822 240.276 57.2206 240.878 56.6868C241.481 56.1358 241.972 55.3351 242.351 54.2847C242.747 53.2171 242.945 51.8223 242.945 50.1004L246.974 52.0118C246.974 54.2158 246.526 56.2821 245.631 58.2107C244.736 60.1393 243.384 61.6976 241.576 62.8858C239.785 64.0739 237.521 64.668 234.783 64.668ZM243.823 63.8414V54.5947H242.945V35.9461H250.022V63.8414H243.823ZM271.912 63.8414C269.983 64.203 268.089 64.358 266.229 64.3064C264.387 64.2719 262.734 63.9534 261.27 63.3507C259.824 62.7308 258.722 61.7407 257.964 60.3803C257.275 59.1061 256.914 57.8147 256.879 56.506C256.845 55.1801 256.827 53.682 256.827 52.0118V28.1974H263.853V51.5985C263.853 52.6833 263.862 53.6648 263.879 54.543C263.913 55.404 264.094 56.0927 264.421 56.6093C265.041 57.5908 266.031 58.1246 267.392 58.2107C268.752 58.2968 270.259 58.2279 271.912 58.0041V63.8414ZM252.075 41.3702V35.9461H271.912V41.3702H252.075ZM287.101 64.6163C284.294 64.6163 281.832 63.9878 279.714 62.7308C277.596 61.4738 275.943 59.7432 274.755 57.5392C273.584 55.3179 272.998 52.7694 272.998 49.8938C272.998 46.9837 273.601 44.4266 274.806 42.2226C276.012 40.0013 277.673 38.2707 279.791 37.0309C281.909 35.7911 284.346 35.1713 287.101 35.1713C289.908 35.1713 292.37 35.7998 294.488 37.0568C296.623 38.3138 298.285 40.0529 299.473 42.2742C300.661 44.4783 301.255 47.0181 301.255 49.8938C301.255 52.7866 300.653 55.3437 299.447 57.565C298.259 59.7691 296.597 61.4996 294.462 62.7566C292.344 63.9964 289.891 64.6163 287.101 64.6163ZM287.101 58.0557C289.357 58.0557 291.036 57.2981 292.138 55.7828C293.257 54.2503 293.817 52.2873 293.817 49.8938C293.817 47.4142 293.248 45.434 292.112 43.9531C290.993 42.4722 289.322 41.7318 287.101 41.7318C285.569 41.7318 284.311 42.0762 283.33 42.765C282.348 43.4537 281.617 44.4094 281.135 45.632C280.67 46.8546 280.437 48.2752 280.437 49.8938C280.437 52.3906 280.997 54.3794 282.116 55.8603C283.253 57.3239 284.914 58.0557 287.101 58.0557ZM323.879 63.8414V50.6686C323.879 50.0315 323.845 49.2222 323.776 48.2407C323.707 47.242 323.492 46.2433 323.13 45.2446C322.768 44.2458 322.174 43.4107 321.348 42.7391C320.539 42.0676 319.385 41.7318 317.887 41.7318C317.284 41.7318 316.638 41.8265 315.95 42.0159C315.261 42.2053 314.615 42.5756 314.012 43.1266C313.41 43.6604 312.91 44.4525 312.514 45.5028C312.136 46.5532 311.946 47.948 311.946 49.6871L307.917 47.7758C307.917 45.5717 308.364 43.5054 309.26 41.5768C310.155 39.6483 311.498 38.0899 313.289 36.9018C315.097 35.7137 317.37 35.1196 320.108 35.1196C322.295 35.1196 324.077 35.4898 325.455 36.2302C326.832 36.9707 327.9 37.9091 328.657 39.0456C329.432 40.1821 329.983 41.3702 330.311 42.61C330.638 43.8326 330.836 44.9518 330.905 45.9678C330.973 46.9837 331.008 47.7241 331.008 48.1891V63.8414H323.879ZM304.817 63.8414V35.9461H311.068V45.1929H311.946V63.8414H304.817ZM347.692 64.6163C344.885 64.6163 342.423 63.9878 340.305 62.7308C338.187 61.4738 336.534 59.7432 335.346 57.5392C334.175 55.3179 333.59 52.7694 333.59 49.8938C333.59 46.9837 334.192 44.4266 335.398 42.2226C336.603 40.0013 338.265 38.2707 340.383 37.0309C342.501 35.7911 344.937 35.1713 347.692 35.1713C350.499 35.1713 352.961 35.7998 355.079 37.0568C357.215 38.3138 358.876 40.0529 360.064 42.2742C361.252 44.4783 361.847 47.0181 361.847 49.8938C361.847 52.7866 361.244 55.3437 360.038 57.565C358.85 59.7691 357.189 61.4996 355.053 62.7566C352.936 63.9964 350.482 64.6163 347.692 64.6163ZM347.692 58.0557C349.948 58.0557 351.627 57.2981 352.729 55.7828C353.848 54.2503 354.408 52.2873 354.408 49.8938C354.408 47.4142 353.84 45.434 352.703 43.9531C351.584 42.4722 349.914 41.7318 347.692 41.7318C346.16 41.7318 344.903 42.0762 343.921 42.765C342.94 43.4537 342.208 44.4094 341.726 45.632C341.261 46.8546 341.028 48.2752 341.028 49.8938C341.028 52.3906 341.588 54.3794 342.707 55.8603C343.844 57.3239 345.505 58.0557 347.692 58.0557ZM399.038 63.8414V47.3625C399.038 45.5201 398.599 44.0909 397.721 43.0749C396.86 42.0418 395.663 41.5252 394.13 41.5252C393.149 41.5252 392.296 41.7576 391.573 42.2226C390.85 42.6703 390.282 43.3074 389.869 44.1339C389.472 44.9432 389.274 45.8817 389.274 46.9493L386.33 44.9863C386.33 43.0749 386.778 41.3874 387.673 39.9238C388.586 38.4601 389.8 37.3237 391.315 36.5144C392.847 35.6878 394.544 35.2746 396.403 35.2746C399.589 35.2746 401.991 36.2216 403.61 38.1158C405.245 39.9927 406.063 42.455 406.063 45.5028V63.8414H399.038ZM365.408 63.8414V35.9461H371.607V45.1929H372.486V63.8414H365.408ZM382.249 63.8414V47.3625C382.249 45.5201 381.81 44.0909 380.932 43.0749C380.071 42.0418 378.874 41.5252 377.341 41.5252C375.878 41.5252 374.698 42.0332 373.803 43.0491C372.925 44.0478 372.486 45.3479 372.486 46.9493L369.541 44.883C369.541 43.0577 369.997 41.4219 370.91 39.9754C371.823 38.529 373.045 37.3839 374.578 36.5402C376.128 35.6964 377.858 35.2746 379.769 35.2746C381.956 35.2746 383.747 35.7395 385.142 36.6693C386.554 37.5992 387.596 38.839 388.267 40.3887C388.939 41.9384 389.274 43.6432 389.274 45.5028V63.8414H382.249ZM413.269 76.2393L418.641 61.4652L418.745 65.8044L406.605 35.9461H413.889L422.051 57.0742H420.398L428.508 35.9461H435.533L419.778 76.2393H413.269Z" fill="#000000"/>
<defs>
<filter id="filter0_i_141_73" x="5.65681" y="30.9263" width="38.4335" height="30.9686" filterUnits="userSpaceOnUse" color-interpolation-filters="sRGB">
<feFlood flood-opacity="0" result="BackgroundImageFix"/>
<feBlend mode="normal" in="SourceGraphic" in2="BackgroundImageFix" result="shape"/>
<feColorMatrix in="SourceAlpha" type="matrix" values="0 0 0 0 0 0 0 0 0 0 0 0 0 0 0 0 0 0 127 0" result="hardAlpha"/>
<feOffset dy="1.67852"/>
<feGaussianBlur stdDeviation="0.839261"/>
<feComposite in2="hardAlpha" operator="arithmetic" k2="-1" k3="1"/>
<feColorMatrix type="matrix" values="0 0 0 0 0 0 0 0 0 0 0 0 0 0 0 0 0 0 0.25 0"/>
<feBlend mode="normal" in2="shape" result="effect1_innerShadow_141_73"/>
</filter>
</defs>
</svg>
