<svg width="44" height="45" viewBox="0 0 44 45" fill="none" xmlns="http://www.w3.org/2000/svg">
<g clip-path="url(#clip0_3284_586)">
<mask id="mask0_3284_586" style="mask-type:luminance" maskUnits="userSpaceOnUse" x="0" y="0" width="44" height="45">
<path d="M44 0.613159H0V44.6132H44V0.613159Z" fill="white"/>
</mask>
<g mask="url(#mask0_3284_586)">
<path d="M7.24142 19.9741C7.22137 18.6992 7.63592 17.4554 8.41694 16.4475L16.434 24.4646C15.4236 25.2407 14.1816 25.6547 12.9075 25.6401C11.4067 25.634 9.96911 25.035 8.90784 23.9738C7.84658 22.9125 7.24765 21.4749 7.24142 19.9741Z" fill="#133629"/>
<path d="M31.0924 25.6343C31.8431 25.6374 32.5869 25.4919 33.2811 25.2063C33.9752 24.9206 34.606 24.5005 35.137 23.97C35.6681 23.4395 36.0889 22.8091 36.3753 22.1153C36.6616 21.4214 36.8078 20.6777 36.8055 19.9271C36.8195 18.6531 36.4056 17.4113 35.63 16.4005L27.5894 24.4411C28.5888 25.223 29.8235 25.6435 31.0924 25.6343Z" fill="#133629"/>
<path d="M37.2936 14.7723C38.5296 16.2237 39.2089 18.0677 39.2097 19.974C39.2082 22.118 38.3554 24.1736 36.8389 25.6891C35.3223 27.2045 33.2661 28.0558 31.1221 28.0558C29.2257 28.058 27.3895 27.3897 25.938 26.1691L22.047 30.0601L18.156 26.1691C16.7036 27.3918 14.8647 28.0603 12.9661 28.0558C11.9021 28.0597 10.8477 27.8535 9.86345 27.4492C8.87919 27.0448 7.98443 26.4502 7.23039 25.6995C6.47635 24.9487 5.87783 24.0565 5.46919 23.0741C5.06057 22.0916 4.84983 21.0381 4.84907 19.974C4.85059 18.0764 5.51835 16.2397 6.73579 14.7841L4.9196 12.9679L3.18572 11.2046C1.09702 14.6387 -0.00522789 18.5819 1.86424e-05 22.6013C-0.00075403 25.4904 0.567828 28.3513 1.67323 31.0204C2.77863 33.6896 4.3992 36.1148 6.44232 38.1573C8.48544 40.1999 10.9111 41.8199 13.5805 42.9246C16.25 44.0292 19.111 44.597 22 44.5955C27.8302 44.5939 33.4216 42.2788 37.5464 38.1584C41.6712 34.038 43.9923 28.4492 44.0001 22.619C44.0363 18.6002 42.9448 14.6518 40.8496 11.2222L37.2936 14.7723Z" fill="#133629"/>
<path d="M37.9343 7.43121C35.8828 5.27422 33.4136 3.55735 30.6772 2.3852C27.9408 1.21305 24.9945 0.610132 22.0176 0.613171C19.0401 0.61173 16.0934 1.21534 13.3563 2.38737C10.6192 3.55941 8.14881 5.27542 6.09511 7.43121C5.56024 8.01897 5.03716 8.60674 4.54932 9.23564L22 26.6805L39.4507 9.21801C38.99 8.58587 38.4831 7.98864 37.9343 7.43121ZM22.0176 22.6073L8.49906 9.0887C10.2665 7.30243 12.3725 5.88646 14.6937 4.92366C17.0149 3.96088 19.5047 3.47058 22.0176 3.48146C24.531 3.46762 27.0217 3.95656 29.3433 4.91951C31.665 5.88248 33.7706 7.30002 35.5362 9.0887L22.0176 22.6073Z" fill="#133629"/>
</g>
</g>
<defs>
<clipPath id="clip0_3284_586">
<rect width="44" height="44" fill="white" transform="translate(0 0.613159)"/>
</clipPath>
</defs>
</svg>
