<svg width="112" height="25" viewBox="0 0 112 25" fill="none" xmlns="http://www.w3.org/2000/svg">
<path d="M99.2596 24.4941C97.6817 24.5217 96.1141 24.2356 94.6477 23.6523C93.1813 23.069 91.8455 22.2002 90.7177 21.0963C89.615 19.956 88.7483 18.6093 88.1674 17.1332C87.5865 15.6572 87.3028 14.081 87.3326 12.495C87.3051 10.9109 87.5903 9.33687 88.172 7.86313C88.7537 6.38939 89.6204 5.04487 90.7225 3.9066C93.0331 1.71671 96.0954 0.496094 99.2788 0.496094C102.462 0.496094 105.525 1.71671 107.835 3.9066C108.938 5.04425 109.805 6.38865 110.387 7.86254C110.969 9.33643 111.254 10.9107 111.225 12.495C111.255 14.0818 110.97 15.6587 110.387 17.135C109.805 18.6112 108.936 19.9575 107.83 21.0963C106.697 22.2013 105.357 23.0706 103.885 23.6539C102.414 24.2371 100.842 24.5227 99.2596 24.4941ZM99.2596 5.06274C98.3131 5.0711 97.3784 5.27361 96.5133 5.65775C95.6482 6.0419 94.8712 6.59948 94.2302 7.29602C93.5893 7.99255 93.0982 8.81321 92.7872 9.7072C92.4762 10.6012 92.352 11.5495 92.4222 12.4934C92.347 13.4393 92.4683 14.3906 92.7787 15.2873C93.089 16.184 93.5816 17.0068 94.2254 17.7039C94.8692 18.4009 95.6503 18.9572 96.5196 19.3376C97.3889 19.7181 98.3275 19.9145 99.2764 19.9145C100.225 19.9145 101.164 19.7181 102.033 19.3376C102.903 18.9572 103.684 18.4009 104.327 17.7039C104.971 17.0068 105.464 16.184 105.774 15.2873C106.085 14.3906 106.206 13.4393 106.131 12.4934C106.199 11.5472 106.072 10.5969 105.758 9.70161C105.445 8.80628 104.95 7.98491 104.306 7.28833C103.662 6.59176 102.882 6.03482 102.014 5.65199C101.146 5.26917 100.208 5.06862 99.2596 5.06274ZM54.103 24.0997H49.2395V15.9137L40.9557 0.888776H46.443L51.7346 10.8178L57.3902 0.888776H62.5214L54.1062 15.9137V24.0917L54.103 24.0997ZM38.6531 24.0997H24.4523V0.888776H38.6531V5.13008H29.3174V10.226H37.0143V14.4994H29.3174V19.86H38.6531V24.0997ZM69.9569 24.0869H65.0598V0.903212H69.9569V12.495L85.4389 0.903212V7.13126L78.4347 12.495L85.4389 17.8315V24.0853L69.9569 12.495V24.0869ZM5.47954 24.0869H0.582397V0.903212H5.47954V12.495L20.9615 0.903212V7.13126L13.9557 12.495L20.9615 17.8315V24.0853L5.47954 12.495V24.0869Z" fill="black"/>
</svg>
