<svg width="214" height="48" viewBox="0 0 214 48" fill="none" xmlns="http://www.w3.org/2000/svg">
<path fill-rule="evenodd" clip-rule="evenodd" d="M23.9998 46.0409C36.1726 46.0409 46.0406 36.1729 46.0406 24C46.0406 11.8272 36.1726 1.95923 23.9998 1.95923C11.827 1.95923 1.95898 11.8272 1.95898 24C1.95898 36.1729 11.827 46.0409 23.9998 46.0409Z" fill="#222454"/>
<path fill-rule="evenodd" clip-rule="evenodd" d="M48 24C48 37.2548 37.2548 48 24 48C10.7452 48 0 37.2548 0 24C0 10.7452 10.7452 0 24 0C37.2548 0 48 10.7452 48 24ZM46.0408 24C46.0408 36.1728 36.1728 46.0408 24 46.0408C11.8272 46.0408 1.95918 36.1728 1.95918 24C1.95918 11.8272 11.8272 1.95918 24 1.95918C36.1728 1.95918 46.0408 11.8272 46.0408 24Z" fill="url(#paint0_angular_1258_818)"/>
<path d="M32.6398 21.1735C30.214 23.256 26.2695 23.4838 24.1738 20.1532C23.0409 18.1537 23.8322 15.3206 26.1947 13.3563C28.5573 11.3921 32.349 12.4411 33.6608 14.7562C34.9726 17.0713 34.6579 19.4411 32.6398 21.1735Z" fill="white"/>
<path d="M20.6395 24.7998C20.6683 24.798 20.6949 24.7982 20.7194 24.8005C21.6887 25.5203 22.7963 25.7609 23.94 26.0093C25.4125 26.3292 26.9448 26.6621 28.3188 28.0472C30.9718 30.7216 28.9015 35.4076 25.6518 37.3173C22.4022 39.227 18.2197 38.1408 16.31 34.8912C14.769 32.269 15.9251 29.3548 16.6964 27.4104C16.881 26.9452 17.0435 26.5354 17.1418 26.1985C17.1424 26.1986 17.1431 26.1986 17.1438 26.1986C17.163 26.0879 17.2565 25.4939 17.1361 25.027C16.9329 24.2391 16.0888 23.7696 15.1905 23.2699C14.2268 22.7338 13.2007 22.163 12.8364 21.127C12.0725 18.9544 13.5056 16.2913 15.6958 16.0146C18.7155 15.6333 20.3799 18.1983 19.8276 20.0663C19.4086 21.4836 19.032 23.3438 20.6395 24.7998Z" fill="white"/>
<path d="M72.92 34.668V28.332C74.228 29.844 75.908 30.528 78.296 30.528C82.856 30.528 86.204 28.092 86.204 23.712C86.204 19.332 82.856 16.896 78.296 16.896C75.908 16.896 74.228 17.58 72.92 19.092V17.112H68V34.668H72.92ZM72.896 23.712C72.908 21.6 74.78 20.244 77.072 20.244C79.46 20.244 81.296 21.48 81.296 23.712C81.296 25.956 79.46 27.168 77.072 27.168C74.78 27.168 72.908 25.824 72.896 23.712Z" fill="#161839"/>
<path d="M97.2986 30.528C103.011 30.528 106.431 28.116 106.431 23.712C106.431 19.332 102.999 16.896 97.2986 16.896C91.4906 16.896 88.0706 19.332 88.0706 23.712C88.0706 28.104 91.4906 30.528 97.2986 30.528ZM92.9906 23.712C92.9906 21.408 94.8506 20.04 97.2986 20.04C99.6626 20.04 101.511 21.408 101.511 23.712C101.511 26.028 99.6866 27.384 97.2986 27.384C94.8506 27.384 92.9906 26.028 92.9906 23.712Z" fill="#161839"/>
<path d="M113.83 12.756H108.91V30.312H113.83V12.756Z" fill="#161839"/>
<path d="M115.804 17.112L122.404 29.268L121.96 30.288C121.66 31.08 120.832 31.452 119.896 31.452H117.628V35.244H119.92C123.064 35.244 125.944 34.14 127.492 31.308L135.196 17.112H129.628L125.5 25.44L121.36 17.112H115.804Z" fill="#161839"/>
<path d="M156.383 17.112L153.311 25.728L150.539 17.112H145.895L143.111 25.716L140.051 17.112H135.107L140.111 30.312H145.487L148.223 22.056L150.947 30.312H156.323L161.327 17.112H156.383Z" fill="#161839"/>
<path d="M173.104 20.328V16.896C170.764 16.896 169.144 17.772 168.136 19.164V17.112H163.216V30.312H168.136V23.484C168.124 21.852 169.732 20.328 173.104 20.328Z" fill="#161839"/>
<path d="M187.488 17.112V19.092C186.24 17.64 184.5 16.896 182.112 16.896C177.552 16.896 174.192 19.332 174.192 23.712C174.192 28.092 177.552 30.528 182.112 30.528C184.596 30.528 186.24 29.784 187.488 28.332V30.312H192.408V17.112H187.488ZM179.112 23.712C179.112 21.48 180.936 20.244 183.336 20.244C185.628 20.244 187.488 21.6 187.5 23.712C187.488 25.824 185.628 27.168 183.336 27.168C180.936 27.168 179.112 25.956 179.112 23.712Z" fill="#161839"/>
<path d="M200.584 34.668V28.332C201.892 29.844 203.572 30.528 205.96 30.528C210.52 30.528 213.868 28.092 213.868 23.712C213.868 19.332 210.52 16.896 205.96 16.896C203.572 16.896 201.892 17.58 200.584 19.092V17.112H195.664V34.668H200.584ZM200.56 23.712C200.572 21.6 202.444 20.244 204.736 20.244C207.124 20.244 208.96 21.48 208.96 23.712C208.96 25.956 207.124 27.168 204.736 27.168C202.444 27.168 200.572 25.824 200.56 23.712Z" fill="#161839"/>
<defs>
<radialGradient id="paint0_angular_1258_818" cx="0" cy="0" r="1" gradientUnits="userSpaceOnUse" gradientTransform="translate(24 24) rotate(90) scale(22.5)">
<stop stop-color="#05D3FB"/>
<stop offset="0.145833" stop-color="#5361F8"/>
<stop offset="0.411458" stop-color="#D362DF"/>
<stop offset="0.671875" stop-color="#F8BA26"/>
<stop offset="0.854167" stop-color="#49F128"/>
<stop offset="1" stop-color="#05D3FB"/>
</radialGradient>
</defs>
</svg>
