<svg width="681" height="233" viewBox="0 0 681 233" fill="none" xmlns="http://www.w3.org/2000/svg">
<path d="M501.292 225.488C501.595 227.33 501.349 228.681 500.555 229.54C499.755 230.339 498.71 230.922 497.425 231.29C496.134 231.598 494.752 231.751 493.278 231.751C491.867 231.69 490.674 231.69 489.691 231.751C488.526 231.812 487.144 231.904 485.544 232.027C483.951 232.088 482.386 232.119 480.849 232.119C479.381 232.119 478.028 231.996 476.8 231.751C475.572 231.505 474.743 231.075 474.315 230.462C474.007 230.032 473.795 229.049 473.67 227.514C473.607 225.979 473.578 224.106 473.578 221.896C473.578 219.624 473.607 217.107 473.67 214.343C473.795 211.58 473.915 208.787 474.041 205.962C474.161 203.076 474.252 200.283 474.315 197.581C474.441 194.879 474.498 192.423 474.498 190.212C474.561 186.958 474.589 183.735 474.589 180.542C474.589 177.349 474.715 174.126 474.96 170.871C474.96 170.441 474.96 169.888 474.96 169.213C474.96 168.476 475.023 167.77 475.143 167.095C475.326 166.419 475.634 165.836 476.063 165.345C476.497 164.854 477.171 164.608 478.09 164.608C479.867 164.608 481.192 165.007 482.049 165.806C482.968 166.604 483.305 168.323 483.06 170.963C482.94 172.252 482.814 173.327 482.694 174.187C482.631 175.046 482.569 175.814 482.511 176.49C482.511 177.103 482.477 177.687 482.414 178.239C482.357 178.792 482.323 179.467 482.323 180.266C482.203 185.976 482.14 191.655 482.14 197.304C482.14 202.954 481.986 208.633 481.678 214.343C481.558 217.414 482.112 219.532 483.34 220.699C484.568 221.804 486.618 222.234 489.508 221.988C490.428 221.927 491.559 221.804 492.913 221.62C494.261 221.435 495.551 221.404 496.78 221.527C498.008 221.65 499.047 221.988 499.91 222.54C500.766 223.093 501.229 224.076 501.292 225.488Z" fill="#236D66"/>
<path d="M460.921 186.989C461.166 191.164 461.103 195.37 460.738 199.607C460.429 203.782 460.03 207.958 459.538 212.133L459.173 215.264C458.99 216.984 458.682 218.826 458.253 220.791C457.819 222.755 457.237 224.291 456.5 225.396C455.763 226.87 454.969 228.036 454.106 228.896C453.25 229.755 452.296 230.431 451.256 230.922C450.211 231.413 449.109 231.751 447.938 231.935C446.772 232.058 445.516 232.119 444.168 232.119C443.368 232.119 442.506 232.027 441.586 231.843C439.993 231.475 438.702 230.891 437.719 230.093C436.737 229.234 435.943 228.251 435.326 227.146C434.715 225.979 434.252 224.72 433.949 223.37C433.641 221.958 433.424 220.545 433.304 219.133C433.058 217.168 432.904 215.234 432.841 213.33C432.779 211.427 432.721 209.523 432.659 207.62C432.596 206.76 432.567 205.962 432.567 205.226C432.567 204.427 432.533 203.629 432.476 202.831C432.533 201.603 432.567 200.436 432.567 199.331C432.624 198.226 432.659 197.12 432.659 196.015C432.779 193.068 432.904 190.243 433.024 187.542C433.15 184.779 433.304 182.015 433.487 179.252C433.607 177.84 433.852 176.428 434.224 175.016C434.589 173.603 435.08 172.283 435.697 171.055C436.737 168.906 438.091 167.34 439.747 166.358C441.466 165.314 443.305 164.731 445.27 164.608C447.052 164.486 448.92 164.67 450.885 165.161C452.85 165.652 454.415 166.819 455.58 168.66C457.545 171.915 458.864 175.139 459.538 178.331C460.275 181.524 460.738 184.41 460.921 186.989ZM445.179 224.291C446.036 224.291 446.715 224.199 447.201 224.014C447.692 223.83 448.063 223.615 448.309 223.37C448.555 223.063 448.737 222.755 448.863 222.448C448.983 222.08 449.109 221.742 449.229 221.435C450.211 218.366 450.976 215.08 451.53 211.58C452.142 208.08 452.541 204.611 452.73 201.173C452.976 197.673 453.033 194.327 452.913 191.134C452.787 187.879 452.484 184.994 451.993 182.476C451.559 179.959 450.948 177.932 450.148 176.397C449.411 174.801 448.526 173.911 447.481 173.726C447.298 173.603 446.715 173.603 445.733 173.726C444.808 173.849 444.042 174.064 443.431 174.371C443.123 174.494 442.814 174.739 442.506 175.108C442.203 175.476 441.923 175.906 441.678 176.397C441.495 176.827 441.312 177.288 441.129 177.779C441.004 178.27 440.941 178.7 440.941 179.068C440.758 182.752 440.512 186.406 440.21 190.028C439.964 193.59 439.81 197.151 439.747 200.712C439.684 201.94 439.718 203.199 439.838 204.488C440.021 205.716 440.113 206.944 440.113 208.172C440.113 208.848 440.147 209.493 440.21 210.107C440.267 210.721 440.33 211.366 440.392 212.041C440.392 213.515 440.512 214.958 440.758 216.37C441.004 217.72 441.283 219.071 441.586 220.422C441.712 221.036 442.112 221.773 442.786 222.633C443.522 223.431 444.316 223.983 445.179 224.291Z" fill="#236D66"/>
<path d="M391.295 179.161C391.357 177.38 391.694 175.691 392.308 174.095C392.983 172.498 393.842 171.055 394.886 169.766C395.991 168.477 397.249 167.433 398.66 166.635C400.072 165.775 401.576 165.192 403.171 164.885C406.485 164.332 409.401 164.639 411.917 165.806C414.495 166.911 416.58 168.937 418.179 171.885C418.853 173.113 419.253 174.525 419.373 176.121C419.556 177.718 419.499 179.222 419.19 180.634C419.127 181.003 418.916 181.402 418.545 181.831C418.179 182.261 417.717 182.661 417.162 183.029C416.671 183.336 416.152 183.612 415.6 183.858C415.047 184.042 414.526 184.165 414.035 184.226C413.421 184.349 412.746 184.318 412.009 184.134C411.334 183.95 410.659 183.49 409.984 182.753C409.616 182.323 409.462 181.678 409.524 180.818C409.646 179.898 409.677 179.007 409.616 178.147C409.616 177.288 409.37 176.551 408.879 175.937C408.388 175.323 407.376 175.077 405.841 175.2C403.816 175.446 402.373 176.213 401.514 177.503C400.716 178.731 400.225 180.113 400.041 181.647C399.857 183.121 399.857 184.533 400.041 185.884C400.225 187.235 400.317 188.125 400.317 188.555C400.317 190.889 400.256 193.099 400.133 195.186C400.01 197.213 399.857 199.239 399.673 201.265C399.55 203.23 399.458 205.257 399.397 207.344C399.335 209.37 399.335 211.519 399.397 213.791C399.397 214.958 399.642 216.217 400.133 217.567C400.625 218.918 401.3 219.839 402.159 220.33C402.711 220.638 403.355 220.975 404.092 221.343C404.828 221.651 405.595 221.896 406.393 222.081C407.191 222.203 407.958 222.203 408.695 222.081C409.432 221.958 410.076 221.62 410.628 221.067C411.181 220.515 411.457 219.502 411.457 218.028C411.457 216.554 411.426 215.05 411.365 213.515C411.365 211.98 411.457 210.659 411.641 209.554C411.886 208.388 412.501 207.866 413.482 207.989C415.447 208.234 416.86 208.818 417.717 209.739C418.579 210.659 419.007 211.458 419.007 212.133C419.007 213.423 419.007 214.774 419.007 216.186C419.07 217.598 419.036 218.979 418.916 220.33C418.79 221.681 418.545 222.971 418.179 224.199C417.871 225.427 417.38 226.501 416.706 227.422C415.539 228.896 414.157 230.001 412.562 230.738C410.966 231.475 409.248 231.935 407.406 232.119C405.626 232.242 403.816 232.15 401.975 231.843C400.194 231.536 398.507 231.106 396.911 230.554C395.499 230.063 394.364 229.357 393.505 228.435C392.646 227.453 391.971 226.378 391.479 225.212C391.05 223.984 390.773 222.664 390.651 221.251C390.589 219.778 390.62 218.304 390.743 216.831C390.804 215.848 390.835 214.405 390.835 212.502C390.896 210.537 390.927 208.357 390.927 205.962C390.989 203.506 391.019 200.958 391.019 198.318C391.081 195.617 391.111 193.037 391.111 190.581C391.111 188.125 391.111 185.884 391.111 183.858C391.173 181.831 391.234 180.266 391.295 179.161Z" fill="#236D66"/>
<path d="M377.993 186.989C378.238 191.164 378.177 195.37 377.809 199.607C377.502 203.782 377.103 207.958 376.612 212.133L376.244 215.264C376.059 216.984 375.752 218.826 375.323 220.791C374.893 222.755 374.31 224.291 373.574 225.396C372.837 226.87 372.039 228.036 371.18 228.896C370.321 229.755 369.369 230.431 368.326 230.922C367.283 231.413 366.178 231.751 365.012 231.935C363.846 232.058 362.588 232.119 361.238 232.119C360.44 232.119 359.58 232.027 358.66 231.843C357.064 231.475 355.775 230.891 354.793 230.093C353.811 229.234 353.013 228.251 352.399 227.146C351.786 225.979 351.325 224.72 351.018 223.37C350.711 221.958 350.496 220.545 350.374 219.133C350.129 217.168 349.975 215.234 349.913 213.33C349.852 211.427 349.791 209.523 349.729 207.62C349.668 206.76 349.637 205.962 349.637 205.226C349.637 204.427 349.607 203.629 349.545 202.831C349.607 201.603 349.637 200.436 349.637 199.331C349.698 198.226 349.729 197.12 349.729 196.015C349.852 193.068 349.975 190.243 350.098 187.542C350.221 184.779 350.374 182.015 350.558 179.252C350.681 177.84 350.926 176.428 351.294 175.016C351.663 173.603 352.153 172.283 352.767 171.055C353.811 168.906 355.161 167.34 356.818 166.358C358.537 165.314 360.378 164.731 362.342 164.608C364.122 164.486 365.994 164.67 367.958 165.161C369.922 165.652 371.487 166.819 372.653 168.66C374.617 171.915 375.937 175.139 376.612 178.331C377.348 181.524 377.809 184.41 377.993 186.989ZM362.25 224.291C363.109 224.291 363.784 224.199 364.275 224.014C364.766 223.83 365.135 223.615 365.38 223.37C365.625 223.063 365.81 222.755 365.933 222.448C366.055 222.08 366.178 221.742 366.3 221.435C367.283 218.366 368.05 215.08 368.602 211.58C369.216 208.08 369.615 204.611 369.799 201.173C370.045 197.673 370.106 194.327 369.983 191.134C369.861 187.879 369.553 184.994 369.063 182.476C368.633 179.959 368.019 177.932 367.221 176.397C366.485 174.801 365.595 173.911 364.552 173.726C364.368 173.603 363.784 173.603 362.803 173.726C361.882 173.849 361.115 174.064 360.501 174.371C360.194 174.494 359.887 174.739 359.58 175.108C359.273 175.476 358.997 175.906 358.752 176.397C358.567 176.827 358.383 177.288 358.199 177.779C358.077 178.27 358.015 178.7 358.015 179.068C357.831 182.752 357.585 186.406 357.279 190.028C357.033 193.59 356.879 197.151 356.818 200.712C356.757 201.94 356.787 203.199 356.91 204.488C357.094 205.716 357.187 206.944 357.187 208.172C357.187 208.848 357.217 209.493 357.279 210.107C357.34 210.721 357.401 211.366 357.463 212.041C357.463 213.515 357.585 214.958 357.831 216.37C358.077 217.72 358.352 219.071 358.66 220.422C358.782 221.036 359.181 221.773 359.856 222.633C360.593 223.431 361.391 223.983 362.25 224.291Z" fill="#236D66"/>
<path d="M333.839 164.884C334.269 164.946 334.852 165.038 335.588 165.161C336.325 165.283 337.061 165.591 337.798 166.082C338.534 166.511 339.178 167.187 339.731 168.108C340.283 168.968 340.56 170.134 340.56 171.608C340.56 172.652 340.406 173.48 340.099 174.095C339.793 174.647 339.393 175.077 338.903 175.384C338.473 175.691 338.013 175.906 337.521 176.029C337.092 176.09 336.754 176.152 336.509 176.213H336.048L335.865 176.305H330.249C327.364 176.244 325.615 176.52 325.001 177.134C324.633 177.503 324.418 178.178 324.356 179.16C324.295 180.082 324.295 181.248 324.356 182.66V186.897V187.266C324.234 191.686 324.111 196.076 323.988 200.436C323.866 204.795 323.743 209.124 323.62 213.423L323.344 222.54V223.186C323.344 223.554 323.344 223.922 323.344 224.291C323.344 224.598 323.313 224.904 323.252 225.212V226.593V226.87C323.313 227.422 323.344 228.098 323.344 228.896C323.344 229.632 323.037 230.308 322.423 230.922C321.809 231.72 320.797 232.119 319.385 232.119C317.667 232.119 316.347 231.628 315.426 230.646C314.629 229.847 314.168 228.988 314.045 228.067C313.923 227.084 313.861 226.347 313.861 225.856C313.984 220.269 314.107 214.743 314.23 209.278C314.353 203.752 314.475 198.287 314.598 192.884L314.782 185.976V183.95C314.782 183.09 314.782 182.23 314.782 181.371C314.782 180.511 314.843 179.713 314.966 178.976C315.089 177.994 315.12 177.38 315.058 177.134C315.058 176.827 314.935 176.52 314.69 176.213L314.506 175.937C314.383 175.814 314.199 175.722 313.953 175.66C313.769 175.599 313.247 175.568 312.388 175.568H311.836C311.345 175.568 310.67 175.538 309.811 175.476C309.013 175.415 308.154 175.292 307.233 175.108C306.312 174.924 305.391 174.647 304.471 174.279C303.612 173.911 302.906 173.419 302.353 172.805C301.494 171.884 301.126 170.779 301.249 169.49C301.371 168.139 301.832 167.126 302.63 166.45C303.489 165.775 304.44 165.314 305.484 165.068C306.589 164.762 307.662 164.608 308.706 164.608C309.811 164.608 310.67 164.639 311.284 164.7H311.928C312.542 164.7 313.432 164.7 314.598 164.7C315.825 164.7 317.022 164.731 318.188 164.792C319.354 164.792 320.367 164.823 321.226 164.884C322.147 164.884 322.607 164.884 322.607 164.884C322.791 164.884 323.221 164.884 323.896 164.884C324.571 164.884 325.369 164.884 326.29 164.884C327.272 164.884 328.346 164.884 329.512 164.884C330.678 164.823 331.845 164.792 333.01 164.792H333.102H333.287H333.747L333.839 164.884Z" fill="#236D66"/>
<path d="M292.278 186.989C292.523 191.164 292.462 195.37 292.093 199.607C291.786 203.782 291.388 207.958 290.897 212.133L290.528 215.264C290.344 216.984 290.038 218.826 289.608 220.791C289.178 222.755 288.595 224.291 287.858 225.396C287.122 226.87 286.324 228.036 285.465 228.896C284.606 229.755 283.655 230.431 282.611 230.922C281.567 231.413 280.463 231.751 279.296 231.935C278.131 232.058 276.872 232.119 275.522 232.119C274.724 232.119 273.865 232.027 272.944 231.843C271.348 231.475 270.06 230.891 269.078 230.093C268.096 229.234 267.298 228.251 266.684 227.146C266.07 225.979 265.61 224.72 265.303 223.37C264.996 221.958 264.782 220.545 264.659 219.133C264.413 217.168 264.26 215.234 264.198 213.33C264.137 211.427 264.076 209.523 264.014 207.62C263.953 206.76 263.923 205.962 263.923 205.226C263.923 204.427 263.892 203.629 263.83 202.831C263.892 201.603 263.923 200.436 263.923 199.331C263.984 198.226 264.014 197.12 264.014 196.015C264.137 193.068 264.26 190.243 264.382 187.542C264.505 184.779 264.659 182.015 264.843 179.252C264.965 177.84 265.211 176.428 265.58 175.016C265.947 173.603 266.439 172.283 267.053 171.055C268.096 168.906 269.446 167.34 271.103 166.358C272.822 165.314 274.663 164.731 276.627 164.608C278.407 164.486 280.279 164.67 282.243 165.161C284.207 165.652 285.772 166.819 286.938 168.66C288.902 171.915 290.221 175.139 290.897 178.331C291.633 181.524 292.093 184.41 292.278 186.989ZM276.535 224.291C277.394 224.291 278.069 224.199 278.56 224.014C279.051 223.83 279.419 223.615 279.665 223.37C279.91 223.063 280.094 222.755 280.217 222.448C280.34 222.08 280.463 221.742 280.586 221.435C281.567 218.366 282.335 215.08 282.887 211.58C283.501 208.08 283.9 204.611 284.084 201.173C284.33 197.673 284.391 194.327 284.268 191.134C284.145 187.879 283.838 184.994 283.347 182.476C282.918 179.959 282.304 177.932 281.506 176.397C280.769 174.801 279.88 173.911 278.837 173.726C278.652 173.603 278.069 173.603 277.087 173.726C276.166 173.849 275.399 174.064 274.786 174.371C274.479 174.494 274.172 174.739 273.865 175.108C273.558 175.476 273.282 175.906 273.036 176.397C272.852 176.827 272.668 177.288 272.484 177.779C272.361 178.27 272.3 178.7 272.3 179.068C272.116 182.752 271.87 186.406 271.563 190.028C271.318 193.59 271.165 197.151 271.103 200.712C271.042 201.94 271.073 203.199 271.195 204.488C271.379 205.716 271.471 206.944 271.471 208.172C271.471 208.848 271.502 209.493 271.563 210.107C271.625 210.721 271.686 211.366 271.748 212.041C271.748 213.515 271.871 214.958 272.116 216.37C272.361 217.72 272.638 219.071 272.944 220.422C273.067 221.036 273.466 221.773 274.141 222.633C274.878 223.431 275.676 223.983 276.535 224.291Z" fill="#236D66"/>
<path d="M253.335 228.435C253.396 228.926 253.396 229.418 253.335 229.909C253.335 230.339 253.151 230.707 252.782 231.014C252.23 231.751 250.604 232.119 247.903 232.119C247.228 232.119 246.706 231.935 246.338 231.567C245.97 231.137 245.693 230.646 245.509 230.093C245.325 229.479 245.203 228.865 245.141 228.251C245.08 227.575 245.018 226.962 244.957 226.409C244.957 225.918 244.926 225.58 244.865 225.396C244.619 223.676 244.159 222.019 243.484 220.422C242.809 218.826 242.011 217.352 241.09 216.002C240.17 214.651 239.157 213.484 238.052 212.502C237.009 211.458 235.965 210.628 234.922 210.015C232.835 208.91 231.117 208.633 229.766 209.186L229.674 209.278C229.552 209.4 229.46 209.738 229.399 210.291C229.399 210.782 229.399 211.396 229.399 212.133C229.399 212.87 229.429 213.668 229.491 214.528C229.552 215.326 229.613 216.094 229.674 216.83C229.797 218.304 229.92 219.778 230.043 221.251C230.166 222.725 230.166 224.014 230.043 225.119C229.981 225.365 229.951 225.611 229.951 225.856C230.012 226.04 230.043 226.255 230.043 226.501C230.104 227.176 230.074 227.913 229.951 228.711C229.889 229.51 229.613 230.185 229.122 230.738C228.324 231.536 227.22 231.935 225.808 231.935C224.335 232.058 223.169 231.69 222.31 230.83C221.573 230.155 221.143 229.295 221.021 228.251C220.959 227.207 220.929 226.317 220.929 225.58V224.935C220.867 217.874 220.898 210.844 221.021 203.844C221.143 196.783 221.266 189.783 221.389 182.844C221.45 180.941 221.481 179.068 221.481 177.226C221.543 175.323 221.573 173.419 221.573 171.516C221.635 169.981 221.91 168.783 222.402 167.924C222.954 167.003 223.629 166.296 224.427 165.806C225.225 165.314 226.084 165.007 227.005 164.884C227.926 164.7 228.815 164.608 229.674 164.608C231.884 164.608 234.063 164.976 236.211 165.714C238.359 166.45 240.354 167.494 242.195 168.845C244.098 170.196 245.755 171.762 247.166 173.542C248.639 175.323 249.713 177.257 250.388 179.344C251.186 181.739 251.524 184.103 251.401 186.436C251.34 188.708 250.941 190.888 250.204 192.976C249.529 195.002 248.578 196.906 247.351 198.686C246.185 200.467 244.865 202.002 243.392 203.291C243.392 203.844 243.545 204.55 243.852 205.41C244.22 206.208 244.65 207.129 245.141 208.172C245.693 209.155 246.276 210.199 246.89 211.304C247.566 212.41 248.21 213.515 248.823 214.62C249.376 215.541 249.898 216.431 250.388 217.291C250.88 218.15 251.34 218.979 251.77 219.778C252.015 220.207 252.23 220.791 252.414 221.527C252.598 222.203 252.751 222.94 252.874 223.738C253.059 224.536 253.181 225.334 253.243 226.132C253.304 226.931 253.335 227.637 253.335 228.251V228.435ZM230.964 174.095C230.779 174.402 230.595 175.139 230.411 176.305C230.289 177.472 230.196 178.854 230.135 180.45C230.074 181.985 230.043 183.643 230.043 185.423C230.043 187.204 230.074 188.892 230.135 190.489C230.196 192.086 230.289 193.467 230.411 194.634C230.534 195.8 230.687 196.568 230.871 196.936C232.467 197.059 233.94 196.906 235.29 196.476C236.702 195.984 237.96 195.217 239.065 194.173C240.292 193.129 241.213 191.871 241.827 190.397C242.502 188.862 242.84 187.296 242.84 185.7C242.84 184.779 242.625 183.858 242.195 182.936C241.827 181.954 241.305 181.033 240.63 180.174C240.016 179.252 239.279 178.393 238.42 177.595C237.561 176.796 236.702 176.121 235.843 175.568C233.694 174.218 232.068 173.726 230.964 174.095Z" fill="#236D66"/>
<path d="M205.059 174.832C207.085 177.963 208.312 181.279 208.742 184.779C209.172 188.279 208.742 191.717 207.453 195.094C204.753 202.033 200.211 205.655 193.828 205.962C191.618 206.085 190.022 206.699 189.041 207.805C188.059 208.849 187.598 210.567 187.659 212.962C187.659 213.638 187.659 214.374 187.659 215.173C187.721 215.91 187.782 216.646 187.844 217.383C187.967 218.55 188.059 219.747 188.12 220.975C188.181 222.142 188.151 223.339 188.028 224.567C187.967 224.997 187.936 225.642 187.936 226.501C187.997 227.299 187.936 228.129 187.752 228.988C187.629 229.786 187.292 230.523 186.739 231.198C186.248 231.813 185.45 232.119 184.345 232.119C183.241 232.119 182.381 231.874 181.768 231.383C181.215 230.83 180.786 230.216 180.479 229.541C180.233 228.804 180.111 228.067 180.111 227.33C180.111 226.532 180.111 225.857 180.111 225.304C180.049 224.076 180.019 223.247 180.019 222.817C180.019 222.326 180.049 221.988 180.111 221.804L179.834 206.883C179.711 200.866 179.619 195.033 179.558 189.384C179.497 183.674 179.436 177.963 179.374 172.253C179.313 170.779 179.374 169.521 179.558 168.477C179.742 167.433 180.172 166.573 180.847 165.898C181.461 165.284 182.289 164.915 183.333 164.793C184.437 164.609 185.788 164.547 187.384 164.609C190.882 164.731 194.196 165.714 197.326 167.555C200.456 169.337 203.034 171.762 205.059 174.832ZM187.567 190.121C187.445 191.594 187.445 192.915 187.567 194.081C187.69 195.125 187.875 196.138 188.12 197.121C188.427 198.042 188.979 198.655 189.777 198.963C190.575 199.27 191.281 199.423 191.895 199.423C192.508 199.423 193.091 199.331 193.644 199.147C194.196 198.901 194.687 198.625 195.117 198.318C195.608 197.95 196.068 197.612 196.498 197.305C197.786 196.445 198.738 195.494 199.352 194.45C199.966 193.345 200.364 192.209 200.549 191.042C200.794 189.875 200.855 188.678 200.733 187.45C200.671 186.222 200.518 184.994 200.272 183.766C199.658 180.818 198.646 178.516 197.234 176.858C195.823 175.139 193.95 173.942 191.618 173.266C190.022 172.898 188.918 172.959 188.304 173.45C187.752 173.942 187.476 174.893 187.476 176.306C187.537 177.902 187.567 179.498 187.567 181.095C187.567 182.691 187.567 184.287 187.567 185.884V190.121Z" fill="#236D66"/>
<path fill-rule="evenodd" clip-rule="evenodd" d="M315.91 1.38812C314.975 2.09898 312.614 6.03383 310.596 10.1024C308.612 14.1715 304.483 21.9407 301.409 27.3836L295.847 37.2573L281.966 37.9275C228.029 40.5481 226.617 40.9858 218.593 43.4767C216.169 44.2293 213.14 45.1698 207.876 46.4138C196.18 49.1893 194.586 50.255 196.685 53.5596C198.783 56.8641 201.91 57.2264 211.441 55.2624C211.936 55.1601 212.422 55.0595 212.902 54.9607L212.906 54.9601C225.054 52.4493 232.647 50.8795 262.596 50.0607L290.171 49.3098L286.808 58.2321C284.952 63.1321 282.806 69.7681 282.039 72.979L280.647 78.811L269.099 79.555C262.75 79.9704 250.873 80.3121 242.708 80.3121C225.894 80.319 222.403 79.3138 215.806 72.5435C212.241 68.9035 211.091 68.307 206.86 67.9915C202.468 67.6567 201.998 68.079 201.998 72.2281C201.924 75.4898 201.571 78.7396 200.942 81.9413L199.879 87.0555C198.366 86.5961 197.565 86.1167 197.064 85.6613C195.708 82.3538 189.074 79.5378 186.367 80.6407C178.601 83.7544 174.643 84.6796 169.957 85.7761C166.53 86.5773 162.714 87.4698 156.735 89.3756C150.184 91.4133 143.586 93.3036 136.786 95.0527C135.312 95.4401 133.753 95.9298 132.138 96.4384C127.092 98.0253 121.493 99.787 116.159 99.1218C118.389 97.2813 120.079 94.5727 121.775 91.855C123.026 89.8504 124.281 87.8413 125.756 86.171C126.424 85.4796 127.539 84.6441 128.792 83.707C132.274 81.1018 136.813 77.7041 135.73 74.387C134.815 71.6184 129.435 68.2733 126.745 67.5493C121.49 66.1138 118.628 69.4813 116.056 72.5064C115.494 73.1675 114.946 73.8121 114.39 74.387C113.649 75.1024 112.767 75.8864 111.814 76.7333C105.982 81.9184 97.4916 89.467 102.284 98.1093C106.985 106.401 119.616 108.875 127.276 109.311C145.371 110.133 152.126 107.33 165.58 101.746C166.377 101.415 167.199 101.074 168.047 100.724C169.379 100.172 170.715 99.6156 172.052 99.055C177.347 96.9356 180.898 95.5555 181.774 95.5555C182.124 95.5555 185.789 97.7276 187.067 100.315C189.986 106.247 195.978 110.142 202.166 110.142C207.768 110.135 210.701 107.112 214.945 96.9836C218.516 88.4636 218.543 88.4498 223.372 90.2064C231.597 93.203 242.493 94.4024 261.533 94.4024H279.806L280.533 97.5064C281.312 100.044 282.429 102.465 283.855 104.705C287.32 110.18 292.133 112.402 301.033 112.56C301.749 112.644 302.478 112.689 303.218 112.689C320.443 111.349 338.366 107.012 352.208 100.027C352.789 99.719 353.429 99.395 354.111 99.0555C358.307 104.546 368.035 107.413 373.521 107.286C390.82 107.145 406.577 103.217 420.955 97.3921C427.118 112.528 450.154 110.175 459.927 108.164C468.055 106.456 475.297 103.504 482.152 100.017C485.476 103.39 490.948 105.675 494.9 106.126C508.671 107.441 522.78 99.4933 533.335 93.5464L533.347 93.5424C534.472 92.9076 535.557 92.2961 536.596 91.7213C539.818 101.855 550.293 103.863 559.781 103.23C560.106 103.217 560.438 103.2 560.775 103.18C563.265 103.058 565.464 102.753 567.332 102.318C568.903 101.999 570.519 101.587 572.158 101.062C582.931 97.6047 588.506 94.7624 589.419 94.2744C594.617 92.3704 606.092 85.5853 610.416 73.6784C615.791 52.2247 624.576 33.327 635.394 19.9355C638.787 15.7367 639.107 14.2293 637.239 11.2836C634.251 6.56755 627.637 3.46126 624.107 5.11555C617.881 8.02926 596.93 50.035 591.35 70.7801C590.328 74.583 586.786 80.4058 583.536 82.4304C582.691 82.9584 581.743 83.4881 580.726 84.0133C572.947 87.4618 562.922 91.2853 554.743 92.3538C553.818 92.3647 552.864 92.3881 551.876 92.4247C552.407 89.9613 553.566 87.919 554.663 85.9836C555.703 84.1464 556.691 82.4053 557.039 80.4915C557.53 77.2904 555.605 74.671 551.773 72.3424C547.249 69.551 545.524 69.9681 542.491 70.6995C542.046 70.807 541.577 70.9207 541.063 71.0327C537.482 71.8618 533.032 71.5573 528.543 71.2493C525.15 71.0167 521.734 70.7824 518.644 71.0327C509.003 71.8681 500.446 74.5767 493.17 78.8898C490.611 80.3876 488.2 82.083 485.961 83.9636L485.613 84.1876C484.311 85.0213 483.094 85.8018 481.98 86.3521C468.409 92.7533 452.581 99.3024 435.235 99.3024C436.069 98.1573 436.377 96.4241 436.668 94.7504C436.863 93.6607 437.045 92.5961 437.377 91.7344C437.599 91.1207 437.885 90.5704 438.165 90.0401C439.01 88.4321 439.753 87.0133 438.273 84.6093C434.092 77.9127 425.479 78.7841 421.583 80.9693C405.341 89.4447 387.598 94.6818 369.344 96.3864C371.853 92.3316 375.249 88.8944 379.278 86.3316C379.961 85.8824 380.765 85.5298 381.549 85.1858C383.805 84.1956 385.887 83.2818 384.39 80.3658C380.401 72.3624 370.279 73.8167 366.177 76.2904C363.858 77.6938 360.729 79.7321 358.004 82.2441C348.859 88.343 337.163 91.8356 325.797 95.2293L325.784 95.2333C325.319 95.3721 324.854 95.511 324.391 95.6493C323.378 95.9424 322.353 96.2436 321.315 96.5487C305.896 100.716 297.694 96.9104 297.03 96.5138C294.092 94.771 296.97 80.4864 303.285 65.5115L310.085 49.3367L324.881 50.1275C364.374 52.2327 380.906 54.2167 384.807 57.327C392.077 63.1115 400.955 61.6841 397.659 55.2555C392.064 44.2961 374.308 38.9933 338.931 37.6933L316.737 36.8755L324.592 23.6367C330.961 12.8641 332.058 9.76755 330.41 7.17326C328.257 3.77497 322.366 -0.0593047 319.393 0.000695317C318.125 0.131552 316.918 0.61212 315.91 1.38812ZM503.371 90.8453C503.062 91.0773 502.76 91.3127 502.463 91.5516C509.357 89.1218 515.731 85.9898 522.003 82.5698C515.269 83.9733 508.917 86.7973 503.371 90.8453Z" fill="url(#paint0_linear_5996_1812)"/>
<path fill-rule="evenodd" clip-rule="evenodd" d="M105.897 67.8792C118.198 63.5855 129.789 56.2587 138.649 48.3038L138.656 48.3175C139.001 47.9947 139.214 47.5558 139.254 47.0861C139.294 46.6158 139.158 46.1478 138.873 45.7718C138.587 45.3952 138.172 45.1381 137.707 45.0484C137.242 44.9592 136.762 45.0444 136.356 45.2872C127.468 50.6032 117.66 54.8118 107.606 57.3804C107.905 53.5552 107.843 49.7055 107.348 45.8775C106.211 37.3775 103.326 28.8849 97.3271 22.4158C90.682 15.0627 79.773 12.3141 70.3571 15.2569C59.0448 18.6221 49.6158 28.8175 49.2525 40.9838C48.795 57.0049 63.7125 70.0627 78.8923 71.5307C80.6629 71.7244 82.449 71.8187 84.2454 71.821C81.446 77.9404 77.8139 83.7872 73.9275 89.1998C61.9933 69.505 44.1016 53.3735 22.8342 44.5501C17.8809 42.4541 12.746 40.8135 7.49286 39.6501C5.70392 39.2815 4.00236 38.9529 2.11232 38.7449C1.65366 38.7015 1.19443 38.8232 0.817453 39.0884C0.441044 39.3529 0.172016 39.7438 0.058922 40.1889C-0.0541719 40.6347 -0.00333676 41.1055 0.201717 41.5169C0.407343 41.9284 0.753487 42.2529 1.17788 42.4318C13.051 48.3055 23.9412 55.9758 33.4605 65.1695C45.7969 77.0427 55.5155 91.3472 61.9973 107.172C64.856 113.989 73.8207 116.483 79.8204 112.099C80.7412 111.419 81.5825 110.639 82.3291 109.772C87.7073 103.94 92.4424 97.5484 96.4527 90.7089C100.55 83.7187 103.924 75.9547 105.897 67.8792ZM79.2801 99.1038L79.2824 99.1078L79.4372 99.4227C79.3875 99.3152 79.3349 99.2084 79.2801 99.1038ZM88.4373 59.8038C89.3763 55.7901 89.843 51.7089 89.6933 47.6004C89.2969 40.2267 86.4587 29.8095 77.6951 29.6489C70.1486 29.5615 63.2082 36.6941 65.3667 44.2684C68.5624 55.3232 78.1057 59.3552 88.4373 59.8038Z" fill="url(#paint1_linear_5996_1812)"/>
<path d="M144.48 40.7828C145.254 44.3896 146.444 46.6754 149.921 46.2125C152.908 45.8171 155.369 42.8211 155.369 39.8245C155.369 36.8279 152.894 34.8908 149.921 35.3599C146.148 35.9565 143.848 37.8536 144.48 40.7828Z" fill="url(#paint2_linear_5996_1812)"/>
<path d="M608.731 97.2888C604.344 95.6162 600.112 94.0048 604.658 91.3511C607.868 89.4751 613.169 87.8431 618.927 86.0716C624.513 84.3528 630.522 82.5025 635.468 80.1699C656.739 70.1385 666.906 68.0556 674.348 72.1973C683.721 77.4111 682.242 83.5379 671.053 85.8659C667.151 86.6774 658.332 90.0854 651.455 93.4391C629.648 104.069 623.125 105.085 613.455 99.3528C612.204 98.6105 610.456 97.9448 608.731 97.2888Z" fill="url(#paint3_linear_5996_1812)"/>
<defs>
<linearGradient id="paint0_linear_5996_1812" x1="-6.4036e-06" y1="0.000125945" x2="37.3335" y2="222.302" gradientUnits="userSpaceOnUse">
<stop stop-color="#44BCC3"/>
<stop offset="1" stop-color="#236D66"/>
</linearGradient>
<linearGradient id="paint1_linear_5996_1812" x1="9.64447e-05" y1="-0.000195717" x2="37.3336" y2="222.301" gradientUnits="userSpaceOnUse">
<stop stop-color="#44BCC3"/>
<stop offset="1" stop-color="#236D66"/>
</linearGradient>
<linearGradient id="paint2_linear_5996_1812" x1="8.1267e-05" y1="-3.67571e-05" x2="37.3336" y2="222.301" gradientUnits="userSpaceOnUse">
<stop stop-color="#44BCC3"/>
<stop offset="1" stop-color="#236D66"/>
</linearGradient>
<linearGradient id="paint3_linear_5996_1812" x1="-7.69912e-05" y1="0.000192738" x2="37.3335" y2="222.302" gradientUnits="userSpaceOnUse">
<stop stop-color="#44BCC3"/>
<stop offset="1" stop-color="#236D66"/>
</linearGradient>
</defs>
</svg>
