<svg preserveAspectRatio="none" overflow="visible" style="display: block;" width="20" height="20" viewBox="0 0 20 20" fill="none" xmlns="http://www.w3.org/2000/svg">
<g id="lucide:chevrons-up-down">
<g id="Vector">
<path d="M13.5774 11.9106C13.9028 11.5852 14.4303 11.5852 14.7558 11.9106C15.0811 12.2361 15.0812 12.7636 14.7558 13.089L10.5891 17.2557C10.2637 17.581 9.73614 17.581 9.41071 17.2557L5.24404 13.089C4.91863 12.7636 4.91867 12.2361 5.24404 11.9106C5.56948 11.5852 6.09699 11.5852 6.42243 11.9106L9.9999 15.4881L13.5774 11.9106Z" fill="#BD89EB"/>
<path d="M9.47419 2.68698C9.8015 2.42002 10.284 2.43885 10.5891 2.74395L14.7558 6.91061C15.0811 7.23606 15.0812 7.7636 14.7558 8.089C14.4304 8.41433 13.9028 8.41428 13.5774 8.089L9.9999 4.51152L6.42243 8.089C6.09703 8.41433 5.56947 8.41428 5.24404 8.089C4.91863 7.76358 4.91867 7.23605 5.24404 6.91061L9.41071 2.74395L9.47419 2.68698Z" fill="#BD89EB"/>
</g>
</g>
</svg>
