<svg width="143" height="45" viewBox="0 0 143 45" fill="none" xmlns="http://www.w3.org/2000/svg">
<path d="M14.4908 39.665C12.3333 39.665 10.4122 39.2291 8.72748 38.3572C7.05759 37.4705 5.74236 36.2587 4.7818 34.7218C3.83602 33.1701 3.36313 31.4042 3.36313 29.424C3.36313 27.7393 3.73997 26.1507 4.49364 24.6581C5.26208 23.1656 6.36303 21.9464 7.79648 21.0006L7.66348 22.8626C6.5847 21.8134 5.73497 20.7051 5.1143 19.5376C4.50841 18.3702 4.20547 17.0549 4.20547 15.5919C4.20547 13.7447 4.64141 12.1339 5.51331 10.7596C6.39998 9.38525 7.61176 8.32124 9.14865 7.56757C10.7003 6.79913 12.481 6.4149 14.4908 6.4149C16.5006 6.4149 18.274 6.79913 19.8108 7.56757C21.3625 8.32124 22.5743 9.38525 23.4462 10.7596C24.3329 12.1339 24.7762 13.7447 24.7762 15.5919C24.7762 17.0549 24.488 18.3702 23.9117 19.5376C23.3354 20.6903 22.4561 21.8134 21.2739 22.907V21.0449C22.6777 21.9316 23.7565 23.1286 24.5102 24.636C25.2786 26.1433 25.6629 27.7393 25.6629 29.424C25.6629 31.4042 25.1826 33.1701 24.222 34.7218C23.2615 36.2587 21.9389 37.4705 20.2542 38.3572C18.5695 39.2291 16.6484 39.665 14.4908 39.665ZM14.4908 33.9903C15.9095 33.9903 17.0622 33.6061 17.9488 32.8376C18.8355 32.0692 19.2788 30.9313 19.2788 29.424C19.2788 27.9314 18.8355 26.7935 17.9488 26.0103C17.0622 25.2123 15.9095 24.8133 14.4908 24.8133C13.0722 24.8133 11.9269 25.2123 11.055 26.0103C10.1831 26.7935 9.74715 27.9314 9.74715 29.424C9.74715 30.9313 10.1831 32.0692 11.055 32.8376C11.9269 33.6061 13.0722 33.9903 14.4908 33.9903ZM14.4908 19.0943C15.6435 19.0943 16.5819 18.8135 17.306 18.2519C18.0301 17.6756 18.3922 16.7889 18.3922 15.5919C18.3922 14.3949 18.0301 13.5083 17.306 12.9319C16.5819 12.3408 15.6435 12.0453 14.4908 12.0453C13.3382 12.0453 12.3998 12.3408 11.6757 12.9319C10.9515 13.5083 10.5895 14.3949 10.5895 15.5919C10.5895 16.7889 10.9515 17.6756 11.6757 18.2519C12.3998 18.8135 13.3382 19.0943 14.4908 19.0943ZM41.4033 39.665C39.0241 39.665 37.0365 39.1108 35.4405 38.0025C33.8445 36.8942 32.6401 35.3868 31.8273 33.4805C31.0293 31.5741 30.6303 29.424 30.6303 27.03C30.6303 24.636 31.0293 22.4858 31.8273 20.5794C32.6253 18.6731 33.8001 17.1658 35.3518 16.0574C36.9035 14.9491 38.8172 14.3949 41.093 14.3949C43.3835 14.3949 45.3786 14.9417 47.078 16.0353C48.7775 17.1288 50.0927 18.6288 51.0237 20.5351C51.9695 22.4267 52.4424 24.5916 52.4424 27.03C52.4424 29.424 51.9769 31.5741 51.0458 33.4805C50.1296 35.3868 48.844 36.8942 47.1888 38.0025C45.5337 39.1108 43.6052 39.665 41.4033 39.665ZM29.6106 39V7.07991H35.6843V22.5966H34.9306V39H29.6106ZM40.428 34.3007C41.7284 34.3007 42.7924 33.9755 43.62 33.3253C44.4476 32.6751 45.0608 31.8032 45.4598 30.7096C45.8588 29.6013 46.0583 28.3747 46.0583 27.03C46.0583 25.7 45.8514 24.4882 45.4377 23.3946C45.0239 22.2863 44.3811 21.407 43.5092 20.7568C42.652 20.0918 41.5511 19.7593 40.2063 19.7593C38.9502 19.7593 37.9305 20.0622 37.1473 20.6681C36.3789 21.274 35.8173 22.1237 35.4626 23.2173C35.108 24.3108 34.9306 25.5817 34.9306 27.03C34.9306 28.4782 35.108 29.7491 35.4626 30.8426C35.8173 31.9362 36.3936 32.7859 37.1916 33.3918C38.0044 33.9977 39.0832 34.3007 40.428 34.3007ZM62.1968 39.665C60.4825 39.665 59.0269 39.3399 57.8299 38.6897C56.6477 38.0247 55.7462 37.1454 55.1256 36.0518C54.5197 34.9435 54.2167 33.7243 54.2167 32.3943C54.2167 31.286 54.3867 30.2737 54.7266 29.3575C55.0665 28.4412 55.6132 27.6359 56.3669 26.9413C57.1353 26.232 58.1624 25.6408 59.4481 25.168C60.3347 24.8428 61.3914 24.5547 62.6179 24.3035C63.8445 24.0522 65.2336 23.8158 66.7853 23.5941C68.3369 23.3577 70.0438 23.0991 71.9058 22.8183L69.7334 24.0153C69.7334 22.5966 69.3936 21.5548 68.7138 20.8898C68.034 20.2248 66.8961 19.8923 65.3001 19.8923C64.4134 19.8923 63.4898 20.1066 62.5293 20.5351C61.5687 20.9637 60.8963 21.7247 60.5121 22.8183L55.0591 21.0893C55.665 19.1091 56.8028 17.4983 58.4727 16.2569C60.1426 15.0156 62.4184 14.3949 65.3001 14.3949C67.4133 14.3949 69.2901 14.72 70.9304 15.3703C72.5708 16.0205 73.8121 17.1436 74.6545 18.7396C75.1273 19.6263 75.4081 20.5129 75.4968 21.3996C75.5855 22.2863 75.6298 23.2764 75.6298 24.37V39H70.3541V34.079L71.1078 35.0987C69.9403 36.7094 68.6768 37.8769 67.3173 38.601C65.9725 39.3103 64.2656 39.665 62.1968 39.665ZM63.4824 34.9213C64.5908 34.9213 65.5218 34.7292 66.2754 34.345C67.0439 33.946 67.6498 33.4953 68.0931 32.9928C68.5512 32.4904 68.8615 32.0692 69.0241 31.7293C69.3344 31.0791 69.5118 30.3254 69.5561 29.4683C69.6152 28.5964 69.6448 27.8723 69.6448 27.296L71.4181 27.7393C69.63 28.0349 68.1818 28.2861 67.0734 28.493C65.9651 28.6851 65.071 28.8624 64.3913 29.025C63.7115 29.1875 63.113 29.3649 62.5958 29.557C62.0046 29.7934 61.5244 30.052 61.1549 30.3328C60.8002 30.5988 60.5342 30.8944 60.3569 31.2195C60.1944 31.5446 60.1131 31.9066 60.1131 32.3056C60.1131 32.8524 60.2461 33.3253 60.5121 33.7243C60.7929 34.1085 61.1845 34.4041 61.6869 34.611C62.1894 34.8179 62.7879 34.9213 63.4824 34.9213ZM80.0635 39V6.4149H86.0928V39H80.0635ZM91.4083 39V6.4149H97.4377V39H91.4083ZM113.438 39.665C110.984 39.665 108.82 39.1404 106.943 38.0912C105.081 37.0272 103.618 35.5715 102.554 33.7243C101.504 31.8623 100.98 29.7343 100.98 27.3403C100.98 24.7246 101.497 22.4488 102.532 20.5129C103.566 18.5771 104.992 17.0771 106.81 16.0131C108.627 14.9343 110.718 14.3949 113.083 14.3949C115.595 14.3949 117.731 14.986 119.489 16.1683C121.248 17.3505 122.548 19.013 123.39 21.1558C124.233 23.2986 124.528 25.8182 124.277 28.7146H118.314V26.498C118.314 24.0596 117.923 22.3085 117.139 21.2444C116.371 20.1657 115.107 19.6263 113.349 19.6263C111.295 19.6263 109.78 20.2543 108.805 21.5104C107.844 22.7518 107.364 24.5916 107.364 27.03C107.364 29.2614 107.844 30.9904 108.805 32.217C109.78 33.4288 111.206 34.0347 113.083 34.0347C114.265 34.0347 115.277 33.776 116.12 33.2588C116.962 32.7416 117.605 31.9953 118.048 31.02L124.078 32.749C123.176 34.9361 121.75 36.6355 119.799 37.8473C117.864 39.0591 115.743 39.665 113.438 39.665ZM105.502 28.7146V24.237H121.373V28.7146H105.502ZM127.509 39V15.0599H132.829V20.9119L132.253 20.1583C132.563 19.3307 132.977 18.5771 133.494 17.8973C134.011 17.2175 134.647 16.6559 135.4 16.2126C135.977 15.8579 136.605 15.5845 137.284 15.3924C137.964 15.1855 138.666 15.0599 139.39 15.0156C140.114 14.9565 140.839 14.9713 141.563 15.0599V20.6903C140.898 20.4834 140.122 20.4169 139.235 20.4908C138.363 20.5499 137.573 20.7494 136.863 21.0893C136.154 21.4144 135.555 21.8503 135.068 22.3971C134.58 22.9291 134.211 23.5646 133.959 24.3035C133.708 25.0276 133.583 25.8477 133.583 26.764V39H127.509Z" fill="black" fill-opacity="0.8"/>
</svg>
