<svg width="72" height="18" viewBox="0 0 72 18" fill="none" xmlns="http://www.w3.org/2000/svg">
<g clip-path="url(#clip0_19729_19464)">
<path fill-rule="evenodd" clip-rule="evenodd" d="M23.6019 17.8425H15.4028L14.7981 16.1863C13.9053 16.5561 12.9274 16.7609 11.9024 16.761C10.8097 16.761 9.77038 16.5285 8.83093 16.1111L8.19902 17.8427H0L6.49974 0.000488281H17.1022L23.6019 17.8425ZM11.9 2.7048C8.35862 2.7048 5.46402 5.52587 5.34611 9.03709C5.34513 9.08378 5.34429 9.13062 5.34429 9.17753C5.34431 12.7914 8.2864 15.7324 11.9024 15.7324C15.4495 15.7323 18.3477 12.9022 18.4567 9.38305C18.4574 9.34205 18.4579 9.30097 18.4579 9.25981C18.4579 5.64595 15.516 2.70484 11.9 2.7048Z" fill="black"/>
<path d="M8.16156 10.8551C8.3437 10.7179 8.60277 10.7543 8.74001 10.9364C9.46677 11.9009 10.6203 12.5232 11.9195 12.5232C13.2186 12.5232 14.3725 11.9009 15.0993 10.9364C15.2366 10.7544 15.4954 10.7179 15.6776 10.8551C15.8597 10.9923 15.896 11.2514 15.7588 11.4335C14.8827 12.5962 13.4889 13.349 11.9195 13.349C10.35 13.349 8.95627 12.5962 8.08019 11.4335C7.94298 11.2514 7.97943 10.9923 8.16156 10.8551Z" fill="black"/>
<path d="M9.9617 6.52588C10.3223 6.52588 10.6146 6.81818 10.6146 7.17881V8.6715C10.6146 9.03213 10.3223 9.32443 9.9617 9.32443C9.60107 9.32443 9.30863 9.03213 9.30859 8.6715V7.17881C9.30861 6.81818 9.60107 6.52588 9.9617 6.52588Z" fill="black"/>
<path d="M13.8785 6.52588C14.2392 6.52588 14.5314 6.81818 14.5314 7.17881V8.6715C14.5314 9.03213 14.2392 9.32443 13.8785 9.32443C13.5179 9.32443 13.2256 9.03213 13.2256 8.6715V7.17881C13.2256 6.81818 13.5179 6.52588 13.8785 6.52588Z" fill="black"/>
<path d="M29.8993 17.8422L21.6699 17.842H24.5154L21.6699 9.88198V0H29.8993V17.8422Z" fill="black"/>
<path d="M60.065 9.86586L63.6669 0.000181218H71.8656L65.3661 17.842H54.7637L51.063 7.68273H44.8658L44.8662 17.842H37.1545L37.1544 7.68273H30.9336L30.9338 0H56.463L60.065 9.86586Z" fill="black"/>
</g>
<defs>
<clipPath id="clip0_19729_19464">
<rect width="72" height="18" fill="white"/>
</clipPath>
</defs>
</svg>
