<svg width="693" height="100" viewBox="0 0 693 100" fill="none" xmlns="http://www.w3.org/2000/svg">
<g clip-path="url(#clip0_1199_1473)">
<path d="M23.5441 23.584C30.8031 16.4421 40.4205 12.5034 50.6225 12.5034H92.6947C96.1067 12.5034 98.8729 9.7058 98.8729 6.25516C98.8729 2.80451 96.1067 0 92.6947 0H50.6225C37.1785 0 24.5024 5.19659 14.9258 14.6274C5.3015 24.0995 0 36.6648 0 50C0 63.3352 5.3015 75.9005 14.9258 85.3726C24.5024 94.8034 37.1853 99.9931 50.6225 99.9931H92.6947C96.1067 99.9931 98.8729 97.1955 98.8729 93.7449C98.8729 90.2942 96.1067 87.4966 92.6947 87.4966H50.6225C40.4205 87.4966 30.8031 83.5648 23.5441 76.416C16.3327 69.3154 12.3566 59.9326 12.3566 50C12.3566 40.0674 16.3259 30.6846 23.5441 23.584Z" fill="black"/>
<path d="M314.746 0.0206451C311.463 0.233733 308.975 3.14135 308.975 6.46827C308.975 16.4696 308.975 47.4292 308.975 65.3905C308.975 70.2915 303.117 72.7385 299.691 69.2741L233.014 1.83533C230.901 -0.302423 227.502 -0.646113 224.96 1.23043C223.349 2.4196 222.459 4.37863 222.459 6.39953V93.5387C222.459 96.8656 224.94 99.7732 228.229 99.9863C231.832 100.22 234.822 97.3399 234.822 93.7517V34.6165C234.822 29.7154 240.681 27.2615 244.107 30.7259L310.79 98.1647C311.973 99.3608 313.55 99.9931 315.16 99.9931C316.221 99.9931 317.288 99.7182 318.26 99.1477C320.217 98.0066 321.339 95.8139 321.339 93.5318V6.25518C321.339 2.66706 318.348 -0.219938 314.746 0.0206451Z" fill="black"/>
<path d="M574.485 0.0206437C571.202 0.233731 568.715 3.14135 568.715 6.46827C568.715 16.4696 568.715 47.4292 568.715 65.3905C568.715 70.2915 562.856 72.7385 559.43 69.2741L492.849 1.93156C491.435 0.50181 489.444 -0.247434 487.466 0.0687603C484.353 0.5568 482.198 3.23071 482.198 6.25518V93.5318C482.198 96.8587 484.679 99.7663 487.969 99.9794C491.571 100.213 494.562 97.333 494.562 93.7449V34.6165C494.562 29.7154 500.42 27.2615 503.846 30.7259L570.529 98.1647C571.712 99.3608 573.289 99.9931 574.9 99.9931C575.96 99.9931 577.027 99.7182 577.999 99.1477C579.957 98.0066 581.078 95.8139 581.078 93.5318V6.25518C581.078 2.66706 578.087 -0.219939 574.485 0.0206437Z" fill="black"/>
<path d="M424.616 -2.38086H338.317C335.027 -2.38086 332.152 0.128076 331.941 3.45499C331.71 7.09811 334.558 10.1226 338.106 10.1226H371.784C373.66 10.1226 375.183 11.6623 375.183 13.5595V91.1509C375.183 94.4778 377.663 97.3854 380.953 97.5985C384.555 97.8322 387.546 94.9521 387.546 91.364V13.5595C387.546 11.6623 389.068 10.1226 390.944 10.1226H424.412C427.701 10.1226 430.576 7.61364 430.787 4.28672C431.018 0.643611 428.17 -2.38086 424.622 -2.38086L424.616 -2.38086Z" fill="black"/>
<path d="M451.035 0C447.623 0 444.857 2.79764 444.857 6.24828V93.7449C444.857 97.1955 447.623 99.9931 451.035 99.9931C454.447 99.9931 457.214 97.1955 457.214 93.7449V6.25516C457.214 2.80451 454.447 0.0068738 451.035 0.0068738V0Z" fill="black"/>
<path d="M160.669 0C147.484 0 135.059 5.36156 125.693 15.0949C116.368 24.78 111.236 37.5997 111.236 51.196V93.7449C111.236 97.1955 114.003 99.9931 117.415 99.9931C120.827 99.9931 123.593 97.1955 123.593 93.7449V51.196C123.593 40.8785 127.481 31.1521 134.549 23.8108C141.57 16.5177 150.848 12.4966 160.669 12.4966C170.491 12.4966 179.768 16.5109 186.789 23.8108C193.851 31.1521 197.746 40.8785 197.746 51.196V93.7449C197.746 97.1955 200.512 99.9931 203.924 99.9931C207.336 99.9931 210.102 97.1955 210.102 93.7449V51.196C210.102 37.5997 204.971 24.78 195.646 15.0949C186.28 5.36844 173.855 0 160.669 0Z" fill="black"/>
<path d="M160.669 50C157.258 50 154.491 52.7976 154.491 56.2483V93.7448C154.491 97.1955 157.258 99.9931 160.669 99.9931C164.081 99.9931 166.848 97.1955 166.848 93.7448V56.2483C166.848 52.7976 164.081 50 160.669 50Z" fill="#FA5E06"/>
<path d="M677.851 15.0949C668.485 5.36844 656.06 0 642.874 0C629.689 0 617.264 5.36156 607.898 15.0949C598.573 24.78 593.441 37.5997 593.441 51.196V93.7449C593.441 97.1955 596.208 99.9931 599.62 99.9931C603.032 99.9931 605.798 97.1955 605.798 93.7449V51.196C605.798 40.8785 609.686 31.1521 616.754 23.8108C623.775 16.5177 633.053 12.4966 642.874 12.4966C652.696 12.4966 661.973 16.5109 668.995 23.8108C676.056 31.1521 679.951 40.8785 679.951 51.196V93.7449C679.951 97.1955 682.717 99.9931 686.129 99.9931C689.541 99.9931 692.308 97.1955 692.308 93.7449V51.196C692.308 37.5997 687.176 24.78 677.851 15.0949Z" fill="black"/>
<path d="M642.875 50C639.463 50 636.696 52.7976 636.696 56.2483V93.7448C636.696 97.1955 639.463 99.9931 642.875 99.9931C646.287 99.9931 649.053 97.1955 649.053 93.7448V56.2483C649.053 52.7976 646.287 50 642.875 50Z" fill="#FA5E06"/>
</g>
<defs>
<clipPath id="clip0_1199_1473">
<rect width="692.308" height="100" fill="white"/>
</clipPath>
</defs>
</svg>
