<svg width="954" height="183" viewBox="0 0 954 183" fill="none" xmlns="http://www.w3.org/2000/svg">
<path d="M226.703 98.8643C226.703 121.639 240.885 136.72 262.592 136.72C281.26 136.72 295.152 125.266 297.324 108.58H279.521C277.64 116.416 271.414 120.766 262.592 120.766C251.306 120.766 244.356 112.356 244.356 98.8643C244.356 85.3722 251.88 76.8211 263.166 76.8211C271.556 76.8211 277.49 81.0301 279.521 89.1487H297.174C295.293 71.8884 281.976 61.0082 262.442 61.0082C241.31 61.0082 226.695 76.6714 226.695 98.8643H226.703Z" fill="#100B1F"/>
<path d="M309.592 98.8643C309.592 121.199 325.655 136.579 347.795 136.579C369.934 136.579 385.997 121.207 385.997 98.8643C385.997 76.5217 369.934 61.1497 347.795 61.1497C325.655 61.1497 309.592 76.5217 309.592 98.8643ZM327.245 98.8643C327.245 85.8131 335.635 76.9625 347.795 76.9625C359.954 76.9625 368.344 85.8131 368.344 98.8643C368.344 111.916 359.954 120.766 347.795 120.766C335.635 120.766 327.245 111.916 327.245 98.8643Z" fill="#100B1F"/>
<path d="M431.865 136.72C442.718 136.72 451.982 131.937 456.318 123.669L457.475 134.84H473.68V26.9203H456.168V72.321C451.682 65.2173 442.852 61.0083 432.872 61.0083C411.307 61.0083 398.282 76.9625 398.282 99.2969C398.282 121.631 411.158 136.72 431.857 136.72H431.865ZM435.769 120.475C423.467 120.475 415.943 111.483 415.943 98.7146C415.943 85.9462 423.467 76.8128 435.769 76.8128C448.07 76.8128 456.027 85.8048 456.027 98.7146C456.027 111.624 448.07 120.475 435.769 120.475Z" fill="#100B1F"/>
<path d="M524.068 136.72C542.736 136.72 555.762 127.296 558.8 111.624H542.445C540.422 118.445 534.047 122.213 524.359 122.213C512.64 122.213 505.982 115.833 504.675 103.215L558.508 103.073V97.7081C558.508 75.3737 544.908 61.0082 523.485 61.0082C502.062 61.0082 487.887 76.53 487.887 99.014C487.887 121.498 502.794 136.729 524.068 136.729V136.72ZM523.635 75.5068C534.197 75.5068 540.997 82.0366 540.997 91.8937H505.108C506.847 81.1632 513.214 75.5068 523.635 75.5068Z" fill="#100B1F"/>
<path d="M656.562 114.677V98.4317H643.686V28.8086H620.39L572.491 98.4317V114.677H626.183V134.84H643.694V114.677H656.57H656.562ZM592.166 98.4317L626.174 48.8221V98.4317H592.166Z" fill="#100B1F"/>
<path d="M714.382 62.8965C711.485 62.1728 709.03 61.8817 706.566 61.8817C697.011 61.8817 690.211 66.6646 687.174 73.7767L686.158 63.3373H669.52V134.849H687.174V100.037C687.174 86.1125 695.13 79.2916 707.865 79.2916H714.373V62.9048L714.382 62.8965Z" fill="#100B1F"/>
<path d="M759.243 136.72C777.911 136.72 790.937 127.296 793.974 111.624H777.62C775.597 118.445 769.23 122.213 759.534 122.213C747.815 122.213 741.157 115.833 739.85 103.215L793.683 103.073V97.7081C793.683 75.3737 780.083 61.0082 758.66 61.0082C737.237 61.0082 723.062 76.53 723.062 99.014C723.062 121.498 737.969 136.729 759.243 136.729V136.72ZM758.81 75.5068C769.372 75.5068 776.18 82.0366 776.18 91.8937H740.291C742.031 81.1632 748.398 75.5068 758.81 75.5068Z" fill="#100B1F"/>
<path d="M825.469 134.832V96.2524C825.469 84.6485 832.127 77.1039 842.98 77.1039C852.094 77.1039 858.028 82.9017 858.028 94.9464V134.832H875.681V90.7374C875.681 72.1713 866.426 60.9999 848.482 60.9999C838.786 60.9999 830.096 65.2089 825.61 72.4624L824.162 63.1793H807.807V134.832H825.46H825.469Z" fill="#100B1F"/>
<path d="M913.335 136.72C924.479 136.72 934.176 131.646 937.213 124.243L938.52 134.832H954.001V91.3197C954.001 71.4476 942.132 61.0082 922.89 61.0082C903.647 61.0082 890.763 71.1647 890.763 86.6782H905.811C905.811 79.1336 911.604 74.7832 922.016 74.7832C930.988 74.7832 936.781 78.701 936.781 88.4167V90.0137L915.366 91.6108C898.428 92.9168 888.882 101.185 888.882 114.386C888.882 127.587 898.145 136.72 913.335 136.72ZM919.128 123.378C911.162 123.378 906.826 120.184 906.826 113.662C906.826 107.865 911.021 104.238 922.016 103.223L936.922 102.058V105.827C936.922 116.848 929.981 123.378 919.128 123.378Z" fill="#100B1F"/>
<path d="M11.4451 54.7613C11.4451 54.7613 11.4451 54.753 11.4451 54.7447L11.4284 54.8445C11.4284 54.8445 11.4451 54.7863 11.4534 54.7613H11.4451Z" fill="#2C0E83"/>
<path d="M81.2668 114.602C81.2668 114.602 19.8846 69.4013 18.6528 68.4863C12.4521 63.6701 10.7542 59.303 11.212 55.8676L0.159026 109.886C0.0425038 110.485 -0.00743427 111.092 0.000888741 111.699C0.200641 119.36 6.78414 124.726 8.29061 125.848L74.8331 176.947C79.8102 180.665 85.8777 182.637 92.095 182.562V118.279C88.2914 118.237 84.6293 117.064 81.2668 114.611V114.602Z" fill="#2C0E83"/>
<path d="M171.613 50.0449C171.497 49.9617 171.388 49.8702 171.28 49.7787C169.191 48.0236 127.942 19.9081 103.539 3.30504C100.318 1.0924 96.4729 -0.0638259 92.5445 0.0027195C88.6243 0.069265 84.8207 1.35858 81.6663 3.67936L78.6783 5.91695C73.5014 9.77658 63.8883 16.9302 52.2861 25.1236C38.9859 34.5315 26.7594 42.7166 15.8729 49.2048C11.2536 51.9581 6.9756 59.4029 18.6445 68.478C19.8763 69.393 81.2585 114.594 81.2585 114.594C88.308 119.743 96.6477 119.285 104.921 114.519C112.977 110.102 141.492 88.9158 159.47 74.7749L164.039 71.1648C164.464 70.8237 164.855 70.491 165.221 70.1666C172.903 63.8614 179.345 55.3519 171.596 50.0366L171.613 50.0449Z" fill="#7549FF"/>
<path d="M186.262 109.012L174.984 54.6282C175.999 59.5442 170.964 65.4668 165.238 70.1666C164.871 70.4993 164.48 70.8237 164.056 71.1648L159.486 74.7748C141.5 88.9157 112.986 110.11 104.937 114.519C104.405 114.827 103.872 115.118 103.331 115.384C103.215 115.442 103.098 115.492 102.982 115.551C102.557 115.759 102.141 115.958 101.716 116.149C101.608 116.199 101.5 116.233 101.4 116.283C100.967 116.466 100.526 116.649 100.093 116.807C100.019 116.832 99.9353 116.857 99.8604 116.89C99.3943 117.056 98.9282 117.214 98.4621 117.347C98.4122 117.364 98.3622 117.372 98.3123 117.389C97.8129 117.53 97.3219 117.655 96.8308 117.763C96.8058 117.763 96.7809 117.772 96.7642 117.78C96.2482 117.896 95.7238 117.988 95.2161 118.063C95.2161 118.063 95.2078 118.063 95.1995 118.063C94.1341 118.212 93.0771 118.279 92.0367 118.262V182.994C98.4455 182.828 104.696 181.04 110.206 177.796C118.487 173.237 140.527 155.719 166.353 134.949L176.482 126.813C183.215 121.44 186.445 116.108 186.37 110.485C186.395 109.986 186.37 109.487 186.287 108.996L186.262 109.012Z" fill="#4D22C7"/>
</svg>
