<svg width="134" height="33" viewBox="0 0 134 33" fill="none" xmlns="http://www.w3.org/2000/svg">
<g clip-path="url(#clip0_4848_2825)">
<path d="M43.9572 24.465C42.0641 24.465 40.4929 24.041 39.2472 23.1965C37.9979 22.3485 37.2316 21.0695 36.9517 19.356L39.8526 18.6621C40.0135 19.4891 40.2865 20.1444 40.6679 20.628C41.0493 21.1116 41.5287 21.455 42.1026 21.6547C42.6765 21.8579 43.2959 21.9561 43.9607 21.9561C44.9475 21.9561 45.7069 21.7633 46.2422 21.3814C46.7741 20.9994 47.0436 20.5053 47.0436 19.8991C47.0436 19.2929 46.7916 18.8514 46.2877 18.5675C45.7838 18.2837 45.0385 18.0524 44.0517 17.8737L43.0264 17.6915C42.0186 17.5093 41.1018 17.2465 40.2795 16.9066C39.4536 16.5632 38.7993 16.0901 38.3164 15.4839C37.8335 14.8777 37.592 14.1032 37.592 13.1571C37.592 11.7449 38.1169 10.6516 39.1632 9.87725C40.2095 9.10283 41.5987 8.71387 43.3308 8.71387C45.063 8.71387 46.3752 9.09232 47.453 9.84922C48.5308 10.6061 49.2306 11.6293 49.5526 12.9188L46.6552 13.7353C46.4732 12.8277 46.0918 12.19 45.5074 11.815C44.923 11.4436 44.1987 11.2543 43.3343 11.2543C42.47 11.2543 41.8227 11.412 41.3398 11.7239C40.8569 12.0358 40.6154 12.4738 40.6154 13.038C40.6154 13.6442 40.8534 14.0857 41.3258 14.3695C41.7982 14.6534 42.4385 14.8636 43.2434 15.0038L44.3002 15.186C45.3674 15.3682 46.3437 15.6205 47.229 15.9429C48.1144 16.2653 48.8142 16.7278 49.3286 17.3341C49.843 17.9403 50.0985 18.7462 50.0985 19.7519C50.0985 21.2447 49.5456 22.4046 48.4363 23.2281C47.327 24.055 45.8398 24.4685 43.9677 24.4685L43.9572 24.465Z" fill="black"/>
<path d="M52.4293 24.0406V4.20361H55.5401V11.2504H56.023C56.2225 10.8685 56.5094 10.4936 56.8838 10.1327C57.2548 9.76821 57.7482 9.47386 58.364 9.23908C58.9764 9.00781 59.7567 8.89218 60.7051 8.89218C61.8318 8.89218 62.8326 9.14447 63.7109 9.64907C64.5858 10.1537 65.2751 10.865 65.779 11.7796C66.2829 12.6977 66.5349 13.8015 66.5349 15.091V24.0406H63.424V15.3328C63.424 14.0433 63.1021 13.0901 62.4582 12.4769C61.8143 11.8637 60.929 11.5553 59.8022 11.5553C58.5145 11.5553 57.4822 11.9793 56.7054 12.8238C55.9285 13.6718 55.5436 14.9018 55.5436 16.5137V24.0441H52.4328L52.4293 24.0406Z" fill="black"/>
<path d="M75.1915 24.3099C74.0648 24.3099 73.057 24.0576 72.1717 23.553C71.2863 23.0484 70.59 22.3336 70.0896 21.405C69.5857 20.4764 69.3337 19.369 69.3337 18.0795V9.12988H72.4446V17.8693C72.4446 19.1588 72.7665 20.1119 73.4104 20.7287C74.0543 21.3454 74.9501 21.6503 76.0978 21.6503C77.3646 21.6503 78.3864 21.2227 79.1632 20.3642C79.9366 19.5092 80.325 18.2722 80.325 16.6603V9.12988H83.4358V24.0401H80.3845V21.8009H79.9016C79.6181 22.4072 79.1177 22.9748 78.3899 23.511C77.6655 24.0436 76.5982 24.3134 75.188 24.3134L75.1915 24.3099Z" fill="black"/>
<path d="M91.1798 24.0406C90.2735 24.0406 89.5527 23.7673 89.0208 23.2242C88.4889 22.681 88.2194 21.9557 88.2194 21.0481V11.7656H85.42V9.13396H88.2194V4.20361H91.3303V9.13396H94.8331V11.7656H91.3303V20.5049C91.3303 21.1112 91.6137 21.4125 92.1771 21.4125H95.288V24.0441H91.1798V24.0406ZM100.964 24.0406C100.058 24.0406 99.3331 23.7673 98.7908 23.2242C98.2484 22.681 97.9754 21.9557 97.9754 21.0481V11.7656H94.8331V9.13396H97.9754V4.20361H101.086V9.13396H105.555V11.7656H101.086V20.5049C101.086 21.1112 101.377 21.4125 101.961 21.4125H105.041V24.0441H100.964V24.0406Z" fill="black"/>
<path d="M114.489 24.4648C112.977 24.4648 111.661 24.1459 110.531 23.5116C109.404 22.8774 108.523 21.9803 107.889 20.8204C107.256 19.6606 106.937 18.315 106.937 16.7836V16.4192C106.937 14.8669 107.249 13.5108 107.875 12.3509C108.498 11.191 109.369 10.2939 110.486 9.65967C111.602 9.02542 112.897 8.70654 114.366 8.70654C115.836 8.70654 117.05 9.02542 118.128 9.65967C119.206 10.2939 120.046 11.177 120.651 12.3053C121.256 13.4337 121.557 14.7547 121.557 16.2685V17.4494H110.111C110.15 18.76 110.591 19.8042 111.424 20.5786C112.26 21.3566 113.299 21.742 114.548 21.742C115.717 21.742 116.595 21.4792 117.19 20.9571C117.785 20.4315 118.244 19.8288 118.566 19.1419L121.134 20.4735C120.851 21.0377 120.445 21.6334 119.913 22.2571C119.377 22.8809 118.678 23.4065 117.813 23.8305C116.945 24.2545 115.84 24.4648 114.492 24.4648H114.489ZM110.139 15.0596H118.384C118.303 13.9313 117.901 13.0482 117.176 12.414C116.452 11.7797 115.504 11.4608 114.338 11.4608C113.173 11.4608 112.218 11.7797 111.483 12.414C110.748 13.0482 110.3 13.9313 110.139 15.0596Z" fill="black"/>
<path d="M124.203 24.0406V9.13037H127.254V10.886H127.737C127.979 10.2622 128.367 9.80317 128.899 9.50882C129.431 9.21797 130.092 9.0708 130.876 9.0708H132.657V11.8846H130.754C129.746 11.8846 128.92 12.1615 128.276 12.7151C127.632 13.2688 127.31 14.1203 127.31 15.2697V24.0406H124.199H124.203Z" fill="black"/>
<path d="M16.498 1.41699L1.90955 3.98554C1.90955 25.9041 6.81204 26.9448 16.498 31.4897C26.1841 26.9448 31.0865 25.9041 31.0865 3.98554L16.498 1.41699Z" fill="white"/>
<path d="M16.4983 32.4961L16.1134 32.3139C15.6025 32.0721 15.1021 31.8443 14.6157 31.6201C5.836 27.5622 1 25.3266 1 3.98624V3.22233L16.4983 0.496094L31.9966 3.22233V3.98624C31.9966 25.3266 27.1606 27.5622 18.3809 31.6201C17.8945 31.8443 17.3976 32.0756 16.8832 32.3139L16.4983 32.4961ZM2.81613 4.75014C2.91411 24.2088 6.8613 26.0344 15.375 29.9696C15.7425 30.1378 16.1134 30.313 16.4948 30.4882C16.8762 30.3095 17.2507 30.1378 17.6146 29.9696C26.1283 26.0344 30.0755 24.2088 30.1735 4.75014L16.4913 2.34278L2.80913 4.75014H2.81613Z" fill="black"/>
<mask id="mask0_4848_2825" style="mask-type:luminance" maskUnits="userSpaceOnUse" x="1" y="1" width="31" height="31">
<path d="M16.4983 1.41748L1.90979 3.98603C1.90979 25.9046 6.81228 26.9453 16.4983 31.4902C26.1843 26.9453 31.0868 25.9046 31.0868 3.98603L16.4983 1.41748Z" fill="white"/>
</mask>
<g mask="url(#mask0_4848_2825)">
<path fill-rule="evenodd" clip-rule="evenodd" d="M32.1926 5.9799H0.804138V1.41748H32.1926V5.9799Z" fill="black"/>
<path fill-rule="evenodd" clip-rule="evenodd" d="M32.1927 11.0615H0.804199V7.41016H32.1927V11.0615Z" fill="black"/>
<path fill-rule="evenodd" clip-rule="evenodd" d="M32.1927 15.7531H0.804199V12.687H32.1927V15.7531Z" fill="black"/>
<path fill-rule="evenodd" clip-rule="evenodd" d="M32.1927 20.6061H0.804199V18.2197H32.1927V20.6061Z" fill="black"/>
<path fill-rule="evenodd" clip-rule="evenodd" d="M32.1927 25.7461H0.804199V23.9204H32.1927V25.7461Z" fill="black"/>
</g>
</g>
<defs>
<clipPath id="clip0_4848_2825">
<rect width="133.744" height="32" fill="white" transform="translate(0.128174 0.496094)"/>
</clipPath>
</defs>
</svg>
