<svg width="21" height="21" viewBox="0 0 21 21" fill="none" xmlns="http://www.w3.org/2000/svg">
<path d="M2.65112 6.4843V14.3279C2.65112 14.8255 2.91653 15.29 3.35254 15.5364L10.1393 19.4559C10.5706 19.707 11.1061 19.707 11.5374 19.4559L18.3288 15.5364C18.7601 15.2852 19.0303 14.8255 19.0303 14.3279V6.4843C19.0303 5.98667 18.7649 5.52221 18.3288 5.27103L11.5374 1.3516C11.1061 1.10041 10.5706 1.10041 10.1393 1.3516L3.34781 5.27103C2.92127 5.52221 2.65112 5.98193 2.65112 6.4843Z" fill="#213147"/>
<path d="M12.3242 11.9251L11.3526 14.5791C11.3242 14.6502 11.3242 14.7355 11.3526 14.8066L13.0161 19.3753L14.945 18.2616L12.6322 11.9203C12.5801 11.7781 12.3763 11.7781 12.3242 11.9251Z" fill="#12AAFF"/>
<path d="M14.2627 7.45589C14.2106 7.30897 14.0068 7.30897 13.9499 7.45589L12.9784 10.1099C12.9499 10.1858 12.9499 10.2663 12.9784 10.3374L15.7082 17.8208L17.6371 16.7071L14.2627 7.45589Z" fill="#12AAFF"/>
<path d="M10.8408 1.64071C10.8882 1.64071 10.9356 1.65493 10.9783 1.67863L18.3242 5.92034C18.4096 5.96773 18.4617 6.05778 18.4617 6.1573V14.6407C18.4617 14.7402 18.4096 14.8303 18.3242 14.8777L10.9783 19.1241C10.9356 19.1478 10.8882 19.162 10.8408 19.162C10.7934 19.162 10.746 19.1478 10.7034 19.1241L3.35742 14.8824C3.27211 14.835 3.21998 14.745 3.21998 14.6455V6.1573C3.21998 6.05778 3.27211 5.96773 3.35742 5.92034L10.7034 1.67863C10.746 1.65493 10.7934 1.64071 10.8408 1.64071ZM10.8408 0.403748C10.5802 0.403748 10.3148 0.474838 10.0825 0.607539L2.73657 4.84925C2.27211 5.11939 1.97827 5.61702 1.97827 6.1573V14.6407C1.97827 15.181 2.26737 15.6834 2.73657 15.9535L10.0825 20.1952C10.3148 20.3327 10.5754 20.399 10.8408 20.399C11.1062 20.399 11.3669 20.3279 11.5991 20.1952L18.9451 15.9535C19.4143 15.6834 19.7034 15.1857 19.7034 14.6407V6.1573C19.7034 5.61702 19.4143 5.11465 18.9451 4.84451L11.5991 0.607539C11.3622 0.474838 11.1015 0.403748 10.8408 0.403748Z" fill="#9DCCED"/>
<path d="M5.98291 17.8303L6.66064 15.9819L8.01609 17.1099L6.75068 18.271L5.98291 17.8303Z" fill="#213147"/>
<path d="M10.2198 5.55542H8.35727C8.21983 5.55542 8.09187 5.64073 8.04448 5.77343L4.05396 16.7213L5.98287 17.835L10.381 5.77817C10.4189 5.66916 10.3383 5.55542 10.2198 5.55542Z" fill="white"/>
<path d="M13.4806 5.55542H11.618C11.4806 5.55542 11.3526 5.64073 11.3052 5.77343L6.75073 18.2711L8.67964 19.3848L13.637 5.77817C13.6796 5.66916 13.5943 5.55542 13.4806 5.55542Z" fill="white"/>
</svg>
