<svg width="21" height="20" viewBox="0 0 21 20" fill="none" xmlns="http://www.w3.org/2000/svg">
<path d="M11.9446 11.5236L10.973 14.1777C10.9446 14.2487 10.9446 14.3341 10.973 14.4051L12.6365 18.9739L14.5654 17.8601L12.2526 11.5189C12.2005 11.3767 11.9967 11.3767 11.9446 11.5236Z" fill="black"/>
<path d="M13.8828 7.05453C13.8307 6.90761 13.6269 6.90761 13.57 7.05453L12.5985 9.70855C12.57 9.78438 12.57 9.86495 12.5985 9.93604L15.3283 17.4195L17.2572 16.3057L13.8828 7.05453Z" fill="black"/>
<path d="M10.4612 1.23941C10.5086 1.23941 10.556 1.25363 10.5986 1.27732L17.9446 5.51903C18.0299 5.56642 18.082 5.65647 18.082 5.756V14.2394C18.082 14.3389 18.0299 14.429 17.9446 14.4764L10.5986 18.7228C10.556 18.7465 10.5086 18.7607 10.4612 18.7607C10.4138 18.7607 10.3664 18.7465 10.3238 18.7228L2.97778 14.4811C2.89247 14.4337 2.84034 14.3437 2.84034 14.2441V5.756C2.84034 5.65647 2.89247 5.56642 2.97778 5.51903L10.3238 1.27732C10.3664 1.25363 10.4138 1.23941 10.4612 1.23941ZM10.4612 0.00244141C10.2005 0.00244141 9.93513 0.0735315 9.7029 0.206233L2.35693 4.44794C1.89247 4.71808 1.59863 5.21571 1.59863 5.756V14.2394C1.59863 14.7797 1.88773 15.2821 2.35693 15.5522L9.7029 19.7939C9.93513 19.9314 10.1958 19.9977 10.4612 19.9977C10.7266 19.9977 10.9873 19.9266 11.2195 19.7939L18.5655 15.5522C19.0347 15.2821 19.3238 14.7844 19.3238 14.2394V5.756C19.3238 5.21571 19.0347 4.71334 18.5655 4.4432L11.2195 0.206233C10.9825 0.0735315 10.7219 0.00244141 10.4612 0.00244141Z" fill="black"/>
<path d="M9.84019 5.15405H7.97763C7.84019 5.15405 7.71223 5.23936 7.66484 5.37206L3.67432 16.3199L5.60323 17.4337L10.0013 5.3768C10.0392 5.2678 9.95868 5.15405 9.84019 5.15405Z" fill="black"/>
<path d="M13.101 5.15405H11.2384C11.101 5.15405 10.973 5.23936 10.9256 5.37206L6.37109 17.8697L8.3 18.9834L13.2573 5.3768C13.3 5.2678 13.2147 5.15405 13.101 5.15405Z" fill="black"/>
</svg>
