<svg width="21" height="21" viewBox="0 0 21 21" fill="none" xmlns="http://www.w3.org/2000/svg">
<g clip-path="url(#clip0_12775_229059)">
<path d="M10.2656 20.2C15.7885 20.2 20.2656 15.7228 20.2656 10.2C20.2656 4.6771 15.7885 0.199951 10.2656 0.199951C4.74278 0.199951 0.265625 4.6771 0.265625 10.2C0.265625 15.7228 4.74278 20.2 10.2656 20.2Z" fill="#0052FF"/>
<path d="M10.31 17.1491C14.1858 17.1491 17.3278 14.0125 17.3278 10.1434C17.3278 6.27429 14.1858 3.13776 10.31 3.13776C6.63276 3.13776 3.61613 5.96097 3.31653 9.55452H12.5925V10.7323H3.31653C3.61613 14.3258 6.63276 17.1491 10.31 17.1491Z" fill="white"/>
</g>
<defs>
<clipPath id="clip0_12775_229059">
<rect width="20" height="20" fill="white" transform="translate(0.265625 0.199951)"/>
</clipPath>
</defs>
</svg>
