<svg width="21" height="20" viewBox="0 0 21 20" fill="none" xmlns="http://www.w3.org/2000/svg">
<g clip-path="url(#clip0_14983_133)">
<path d="M6.70381 11.3334C7.2211 11.3334 7.72577 11.161 8.13372 10.8456L4.85334 7.56519C4.06269 8.58715 4.25194 10.0591 5.2739 10.8498C5.68605 11.161 6.18652 11.3334 6.70381 11.3334Z" fill="#000000"/>
<path d="M16.4601 8.9907C16.4601 8.47341 16.2877 7.96873 15.9723 7.56079L12.6919 10.8412C13.7139 11.6318 15.1816 11.4426 15.9723 10.4206C16.2877 10.0127 16.4601 9.50799 16.4601 8.9907Z" fill="#000000"/>
<path d="M18.1136 5.42041L16.6626 6.87134C17.8318 8.27181 17.6467 10.3578 16.2463 11.527C15.0182 12.5531 13.235 12.5531 12.007 11.527L10.4131 13.1209L8.82337 11.5312C7.4229 12.7003 5.33692 12.5153 4.16776 11.1148C3.14159 9.88676 3.14159 8.10359 4.16776 6.87555L3.42337 6.13116L2.71682 5.42041C1.86309 6.82508 1.41309 8.44004 1.41309 10.0844C1.41309 15.0555 5.44206 19.0844 10.4131 19.0844C15.3841 19.0844 19.4131 15.0555 19.4131 10.0844C19.4173 8.44004 18.9631 6.82508 18.1136 5.42041Z" fill="#000000"/>
<path d="M16.9224 3.87268C13.4948 0.276883 7.80043 0.142304 4.20464 3.56987C4.0995 3.67081 3.99857 3.77174 3.90184 3.87268C3.67894 4.10819 3.46866 4.35212 3.271 4.60866L10.4121 11.754L17.5532 4.60866C17.3598 4.35212 17.1453 4.10819 16.9224 3.87268ZM10.4121 2.26193C12.5149 2.26193 14.4747 3.07361 15.9467 4.55399L10.4121 10.0886L4.87754 4.55399C6.3495 3.07361 8.30931 2.26193 10.4121 2.26193Z" fill="#000000"/>
</g>
<defs>
<clipPath id="clip0_14983_133">
<rect width="18" height="18" fill="white" transform="translate(1.41309 1.08472)"/>
</clipPath>
</defs>
</svg>
