<svg width="21" height="21" viewBox="0 0 21 21" fill="none" xmlns="http://www.w3.org/2000/svg">
<g clip-path="url(#clip0_12775_229054)">
<path d="M6.81294 11.7347C7.33023 11.7347 7.8349 11.5623 8.24285 11.2469L4.96247 7.96649C4.17182 8.98845 4.36107 10.4604 5.38304 11.2511C5.79519 11.5623 6.29565 11.7347 6.81294 11.7347Z" fill="#04795B"/>
<path d="M16.5695 9.392C16.5695 8.87471 16.3971 8.37004 16.0816 7.9621L12.8013 11.2425C13.8232 12.0331 15.291 11.8439 16.0816 10.8219C16.3971 10.414 16.5695 9.90929 16.5695 9.392Z" fill="#04795B"/>
<path d="M18.2227 5.8219L16.7718 7.27283C17.9409 8.6733 17.7559 10.7593 16.3554 11.9284C15.1274 12.9546 13.3442 12.9546 12.1161 11.9284L10.5222 13.5224L8.9325 11.9326C7.53203 13.1018 5.44605 12.9168 4.27689 11.5163C3.25072 10.2883 3.25072 8.50508 4.27689 7.27704L3.5325 6.53265L2.82596 5.8219C1.97222 7.22657 1.52222 8.84153 1.52222 10.4859C1.52222 15.4569 5.55119 19.4859 10.5222 19.4859C15.4932 19.4859 19.5222 15.4569 19.5222 10.4859C19.5264 8.84153 19.0722 7.22657 18.2227 5.8219Z" fill="#04795B"/>
<path d="M17.032 4.27411C13.6044 0.678312 7.91005 0.543732 4.31426 3.9713C4.20912 4.07224 4.10819 4.17317 4.01146 4.27411C3.78856 4.50962 3.57828 4.75355 3.38062 5.01009L10.5217 12.1554L17.6629 5.01009C17.4694 4.75355 17.2549 4.50962 17.032 4.27411ZM10.5217 2.66336C12.6245 2.66336 14.5844 3.47504 16.0563 4.95541L10.5217 10.49L4.98716 4.95541C6.45912 3.47504 8.41893 2.66336 10.5217 2.66336Z" fill="#04795B"/>
</g>
<defs>
<clipPath id="clip0_12775_229054">
<rect width="18" height="18" fill="white" transform="translate(1.52246 1.48608)"/>
</clipPath>
</defs>
</svg>
