<svg width="21" height="20" viewBox="0 0 21 20" fill="none" xmlns="http://www.w3.org/2000/svg">
<g style="mix-blend-mode:luminosity" clip-path="url(#clip0_14994_181)">
<path d="M11.0801 1.28467C16.0505 1.28479 20.0801 5.31418 20.0801 10.2847C20.08 15.2551 16.0505 19.2845 11.0801 19.2847C6.10953 19.2847 2.08011 15.2552 2.08008 10.2847C2.08008 5.31411 6.10952 1.28467 11.0801 1.28467ZM9.28418 7.81104C8.00985 7.81104 7.21815 8.43019 6.91211 9.66846C6.80413 10.1256 6.72069 10.5144 6.66309 10.8384C6.64149 10.9824 6.63086 11.1018 6.63086 11.2026C6.63097 11.674 6.80038 12.0409 7.13867 12.2964C7.48066 12.5484 7.91969 12.6743 8.45605 12.6743C9.10405 12.6743 9.62261 12.5265 10.0078 12.2241C10.3965 11.9181 10.6668 11.4538 10.8252 10.8384C10.9224 10.4605 11.001 10.068 11.0693 9.66846C11.0909 9.52448 11.1025 9.4056 11.1025 9.31201C11.1025 8.99891 11.0226 8.72919 10.8643 8.50244C10.7059 8.27216 10.4902 8.0994 10.2168 7.98779C9.94322 7.869 9.62974 7.81105 9.28418 7.81104ZM12.415 7.87939C12.3683 7.87943 12.3247 7.89391 12.2852 7.92627C12.2422 7.95855 12.2172 7.99823 12.21 8.04834L11.2773 12.4409C11.2702 12.4875 11.2774 12.5271 11.2988 12.563C11.3276 12.5953 11.3638 12.6098 11.4141 12.6099H12.332C12.3788 12.6099 12.4223 12.5954 12.4619 12.563C12.5051 12.5306 12.5273 12.4913 12.5381 12.4409L12.8477 10.9614H13.7578C14.3482 10.9614 14.813 10.8387 15.1514 10.5903C15.4969 10.3419 15.7234 9.96023 15.835 9.44189C15.8601 9.31957 15.875 9.20089 15.875 9.08936C15.875 8.69696 15.7201 8.39776 15.4141 8.18896C15.1117 7.98383 14.7121 7.87944 14.2119 7.87939H12.415ZM9.20508 8.77979C9.63335 8.77985 9.8457 8.98468 9.8457 9.39502C9.8457 9.4958 9.8344 9.59343 9.81641 9.68701C9.76241 10.0037 9.68345 10.3708 9.5791 10.7954C9.50354 11.1048 9.37415 11.3314 9.19434 11.479C9.01803 11.6265 8.80553 11.7026 8.55371 11.7026C8.12171 11.7026 7.90167 11.4972 7.90527 11.0796C7.90529 10.9789 7.91658 10.8854 7.93457 10.7954C8.01733 10.3565 8.09596 9.98931 8.17871 9.68701C8.2543 9.37746 8.38028 9.15004 8.55664 9.00244C8.73664 8.85484 8.95308 8.77979 9.20508 8.77979ZM14.0967 8.81885C14.2801 8.81888 14.4137 8.85528 14.4893 8.92725C14.5647 8.99564 14.6035 9.09663 14.6035 9.22607C14.6035 9.28359 14.5964 9.35179 14.582 9.42725C14.5352 9.62159 14.4418 9.76914 14.2979 9.87354C14.1575 9.97793 13.9955 10.0288 13.8047 10.0288H13.0312L13.2861 8.81885H14.0967Z" fill="black"/>
</g>
<defs>
<clipPath id="clip0_14994_181">
<rect width="18" height="18" fill="white" transform="translate(2.08008 1.28516)"/>
</clipPath>
</defs>
</svg>
