<svg width="21" height="21" viewBox="0 0 21 21" fill="none" xmlns="http://www.w3.org/2000/svg">
<g clip-path="url(#clip0_12775_229049)">
<path d="M10.0908 20.2C15.6137 20.2 20.0908 15.7228 20.0908 10.2C20.0908 4.6771 15.6137 0.199951 10.0908 0.199951C4.56797 0.199951 0.0908203 4.6771 0.0908203 10.2C0.0908203 15.7228 4.56797 20.2 10.0908 20.2Z" fill="#FF0420"/>
<path d="M7.17497 12.856C6.57897 12.856 6.09097 12.716 5.71097 12.436C5.33497 12.152 5.14697 11.744 5.14697 11.22C5.14697 11.108 5.15897 10.976 5.18297 10.816C5.24697 10.456 5.33897 10.024 5.45897 9.51597C5.79897 8.13996 6.67897 7.45197 8.09497 7.45197C8.47897 7.45197 8.82697 7.51597 9.13097 7.64797C9.43497 7.77197 9.67497 7.96397 9.85097 8.21997C10.027 8.47197 10.115 8.77197 10.115 9.11997C10.115 9.22397 10.103 9.35597 10.079 9.51597C10.003 9.95997 9.91497 10.396 9.80697 10.816C9.63097 11.5 9.33097 12.016 8.89897 12.356C8.47097 12.692 7.89497 12.856 7.17497 12.856ZM7.28297 11.776C7.56297 11.776 7.79897 11.692 7.99497 11.528C8.19497 11.364 8.33897 11.112 8.42297 10.768C8.53897 10.296 8.62697 9.88797 8.68697 9.53597C8.70697 9.43197 8.71897 9.32397 8.71897 9.21197C8.71897 8.75597 8.48297 8.52797 8.00697 8.52797C7.72697 8.52797 7.48697 8.61197 7.28697 8.77597C7.09097 8.93997 6.95097 9.19197 6.86697 9.53597C6.77497 9.87197 6.68697 10.28 6.59497 10.768C6.57497 10.868 6.56297 10.972 6.56297 11.084C6.55897 11.548 6.80297 11.776 7.28297 11.776Z" fill="white"/>
<path d="M10.4631 12.784C10.4071 12.784 10.3671 12.768 10.3351 12.732C10.3111 12.692 10.3031 12.648 10.3111 12.596L11.3471 7.71601C11.3551 7.66002 11.3831 7.61602 11.4311 7.58002C11.4751 7.54402 11.5231 7.52802 11.5751 7.52802H13.5711C14.1271 7.52802 14.5711 7.64402 14.9071 7.87202C15.2471 8.10402 15.4191 8.43602 15.4191 8.87202C15.4191 8.99602 15.4031 9.12802 15.3751 9.26402C15.2511 9.84002 14.9991 10.264 14.6151 10.54C14.2391 10.816 13.7231 10.952 13.0671 10.952H12.0551L11.7111 12.596C11.6991 12.652 11.6751 12.696 11.6271 12.732C11.5831 12.768 11.5351 12.784 11.4831 12.784H10.4631ZM13.1191 9.91601C13.3311 9.91601 13.5111 9.86002 13.6671 9.74402C13.8271 9.62802 13.9311 9.46401 13.9831 9.24801C13.9991 9.16401 14.0071 9.08802 14.0071 9.02402C14.0071 8.88002 13.9631 8.76802 13.8791 8.69202C13.7951 8.61202 13.6471 8.57202 13.4431 8.57202H12.5431L12.2591 9.91601H13.1191Z" fill="white"/>
</g>
<defs>
<clipPath id="clip0_12775_229049">
<rect width="20" height="20" fill="white" transform="translate(0.0908203 0.199951)"/>
</clipPath>
</defs>
</svg>
