<svg width="21" height="21" viewBox="0 0 21 21" fill="none" xmlns="http://www.w3.org/2000/svg">
<path d="M19.6358 14.9248L16.6644 18.0293C16.5998 18.0968 16.5216 18.1505 16.4348 18.1873C16.3479 18.224 16.2542 18.243 16.1596 18.2429H2.07348C2.00627 18.2429 1.94052 18.2238 1.88431 18.1879C1.82811 18.152 1.7839 18.1009 1.7571 18.0408C1.73031 17.9808 1.72211 17.9144 1.73351 17.8499C1.74491 17.7853 1.77541 17.7254 1.82126 17.6776L4.79495 14.5731C4.85937 14.5058 4.93727 14.4521 5.02383 14.4154C5.11041 14.3787 5.2038 14.3596 5.29824 14.3595H19.3836C19.4508 14.3595 19.5165 14.3786 19.5728 14.4145C19.6289 14.4504 19.6731 14.5015 19.7 14.5616C19.7267 14.6216 19.7349 14.688 19.7235 14.7525C19.7121 14.8171 19.6816 14.8769 19.6358 14.9248ZM16.6644 8.6732C16.5998 8.60576 16.5216 8.55199 16.4348 8.51524C16.3479 8.47851 16.2542 8.45957 16.1596 8.45962H2.07348C2.00627 8.45962 1.94052 8.47874 1.88431 8.51465C1.82811 8.55056 1.7839 8.60168 1.7571 8.66172C1.73031 8.72178 1.72211 8.78815 1.73351 8.85268C1.74491 8.91719 1.77541 8.97707 1.82126 9.02496L4.79495 12.1295C4.85937 12.1967 4.93727 12.2504 5.02383 12.2871C5.11041 12.3239 5.2038 12.3429 5.29824 12.3431H19.3836C19.4508 12.3431 19.5165 12.3239 19.5728 12.288C19.6289 12.2521 19.6731 12.201 19.7 12.141C19.7267 12.0809 19.7349 12.0145 19.7235 11.95C19.7121 11.8855 19.6816 11.8256 19.6358 11.7777L16.6644 8.6732ZM2.07348 6.44321H16.1596C16.2542 6.44324 16.3479 6.42432 16.4348 6.38757C16.5216 6.35082 16.5998 6.29705 16.6644 6.22961L19.6358 3.12509C19.6816 3.07722 19.7121 3.01734 19.7235 2.95281C19.7349 2.88828 19.7267 2.82192 19.7 2.76187C19.6731 2.70182 19.6289 2.6507 19.5728 2.61479C19.5165 2.57888 19.4508 2.55976 19.3836 2.55975H5.29824C5.2038 2.55991 5.11041 2.57895 5.02383 2.61569C4.93727 2.65243 4.85937 2.70609 4.79495 2.77334L1.82203 5.87787C1.77622 5.92568 1.74573 5.98551 1.73431 6.04995C1.72289 6.11442 1.73102 6.18073 1.75772 6.24075C1.78441 6.30078 1.82851 6.35189 1.8846 6.38785C1.94069 6.42382 2.00633 6.44305 2.07348 6.44321Z" fill="url(#paint0_linear_14979_78989)"/>
<defs>
<linearGradient id="paint0_linear_14979_78989" x1="3.24793" y1="18.6167" x2="17.5887" y2="2.02221" gradientUnits="userSpaceOnUse">
<stop offset="0.08" stop-color="#9945FF"/>
<stop offset="0.3" stop-color="#8752F3"/>
<stop offset="0.5" stop-color="#5497D5"/>
<stop offset="0.6" stop-color="#43B4CA"/>
<stop offset="0.72" stop-color="#28E0B9"/>
<stop offset="0.97" stop-color="#19FB9B"/>
</linearGradient>
</defs>
</svg>
