<svg width="21" height="20" viewBox="0 0 21 20" fill="none" xmlns="http://www.w3.org/2000/svg">
<g clip-path="url(#clip0_14994_699)">
<path d="M19.0353 14.5235L16.0638 17.628C15.9992 17.6955 15.921 17.7492 15.8342 17.786C15.7474 17.8227 15.6537 17.8417 15.559 17.8416H1.47289C1.40568 17.8416 1.33993 17.8225 1.28373 17.7866C1.22752 17.7507 1.18331 17.6996 1.15652 17.6395C1.12973 17.5795 1.12153 17.5131 1.13293 17.4486C1.14432 17.384 1.17482 17.3241 1.22068 17.2763L4.19436 14.1718C4.25879 14.1045 4.33669 14.0508 4.42325 14.0141C4.50983 13.9774 4.60321 13.9583 4.69765 13.9582H18.783C18.8502 13.9582 18.9159 13.9773 18.9722 14.0132C19.0283 14.0491 19.0725 14.1002 19.0994 14.1603C19.1261 14.2203 19.1343 14.2867 19.1229 14.3512C19.1115 14.4158 19.0811 14.4756 19.0353 14.5235ZM16.0638 8.27189C15.9992 8.20445 15.921 8.15068 15.8342 8.11393C15.7474 8.0772 15.6537 8.05826 15.559 8.05831H1.47289C1.40568 8.05831 1.33993 8.07744 1.28373 8.11335C1.22752 8.14926 1.18331 8.20037 1.15652 8.26041C1.12973 8.32047 1.12153 8.38684 1.13293 8.45137C1.14432 8.51589 1.17482 8.57577 1.22068 8.62366L4.19436 11.7282C4.25879 11.7954 4.33669 11.8491 4.42325 11.8858C4.50983 11.9226 4.60321 11.9416 4.69765 11.9418H18.783C18.8502 11.9418 18.9159 11.9226 18.9722 11.8867C19.0283 11.8508 19.0725 11.7997 19.0994 11.7397C19.1261 11.6796 19.1343 11.6132 19.1229 11.5487C19.1115 11.4842 19.0811 11.4243 19.0353 11.3764L16.0638 8.27189ZM1.47289 6.0419H15.559C15.6537 6.04194 15.7474 6.02301 15.8342 5.98626C15.921 5.94951 15.9992 5.89575 16.0638 5.82831L19.0353 2.72379C19.0811 2.67592 19.1115 2.61604 19.1229 2.55151C19.1343 2.48698 19.1261 2.42061 19.0994 2.36056C19.0725 2.30051 19.0283 2.24939 18.9722 2.21349C18.9159 2.17758 18.8502 2.15845 18.783 2.15845H4.69765C4.60321 2.1586 4.50983 2.17764 4.42325 2.21438C4.33669 2.25112 4.25879 2.30478 4.19436 2.37204L1.22144 5.47656C1.17564 5.52438 1.14515 5.5842 1.13373 5.64865C1.1223 5.71311 1.13044 5.77942 1.15713 5.83945C1.18383 5.89947 1.22792 5.95058 1.28401 5.98655C1.3401 6.02251 1.40575 6.04174 1.47289 6.0419Z" fill="black"/>
</g>
<defs>
<clipPath id="clip0_14994_699">
<rect width="18" height="15.6832" fill="white" transform="translate(1.12793 2.15845)"/>
</clipPath>
</defs>
</svg>
