<?xml version="1.0" encoding="UTF-8"?><svg id="whitepaper" xmlns="http://www.w3.org/2000/svg" viewBox="0 0 150 150"><defs><style>.cls-1{fill:#00ffb1;}.cls-2{fill:#7200d5;}.cls-3{fill:#fff;stroke:#000;stroke-miterlimit:10;stroke-width:.75px;}.cls-4{fill:#4d4d4d;}.cls-5{fill:#b3b5ff;}.cls-6{fill:#1a1a1a;}.cls-7{fill:#6900f2;}</style></defs><rect class="cls-3" x="30.68" y="23.13" width="90.02" height="113.99"/><rect class="cls-3" x="20.37" y="11.21" width="90.02" height="113.99"/><g><polygon class="cls-7" points="43.98 24.68 44.29 24.68 44.91 25.92 44.91 32.4 44.29 33.64 43.98 33.64 43.98 31.48 44.29 31.17 44.29 28.39 43.98 28.08 43.98 24.68"/><polygon class="cls-7" points="27.94 33.64 27.63 33.64 27.01 32.4 27.01 25.92 27.63 24.68 27.94 24.68 27.94 26.85 27.63 27.15 27.63 29.93 27.94 30.24 27.94 33.64"/><polygon class="cls-7" points="28.1 24.43 27.94 24.17 28.66 22.99 34.15 19.55 35.52 19.41 35.69 19.68 33.86 20.82 33.43 20.73 31.08 22.2 30.98 22.63 28.1 24.43"/><polygon class="cls-7" points="43.82 24.43 43.98 24.17 43.26 22.99 37.77 19.55 36.39 19.41 36.23 19.68 38.06 20.82 38.49 20.73 40.84 22.2 40.94 22.63 43.82 24.43"/><polygon class="cls-7" points="43.82 34.02 43.98 34.28 43.26 35.46 37.77 38.9 36.39 39.04 36.23 38.77 38.06 37.63 38.49 37.73 40.84 36.25 40.94 35.82 43.82 34.02"/><polygon class="cls-7" points="28.1 34.02 27.94 34.28 28.66 35.46 34.15 38.9 35.52 39.04 35.69 38.77 33.86 37.63 33.43 37.73 31.08 36.25 30.98 35.82 28.1 34.02"/><g><polygon class="cls-7" points="31.61 27.14 34.49 27.14 35.07 26.57 37.56 26.57 37.95 26.95 39.86 26.95 40.44 27.52 38.33 27.52 37.95 27.91 35.64 27.91 35.45 27.72 32.38 27.72 32.19 27.91 31.61 27.91 31.23 27.52 31.61 27.14"/><path class="cls-7" d="M31.61,29.16h2.3s.07-.01,.09-.04l.39-.4s.06-.04,.09-.04h3.32s.07,.01,.09,.04l.53,.55s.06,.04,.09,.04h1.81c.07,0,.13,.06,.13,.13v.37c0,.07-.06,.12-.12,.12h-2.23s-.07,.01-.09,.04l-.11,.12s-.06,.04-.09,.04h-2.51s-.04,0-.06-.01l-.32-.16s-.04-.01-.06-.01h-3.25s-.07-.01-.09-.04l-.25-.26s-.05-.12,0-.17l.25-.26s.06-.04,.09-.04Z"/><polygon class="cls-7" points="36.45 31.17 40.44 31.17 40.44 31.94 39.3 31.94 39.11 32.13 38.16 32.13 37.97 31.94 36.64 31.94 36.45 31.75 36.45 31.17"/><path class="cls-7" d="M35.08,31.14h-1.36s-.04,0-.05-.02l-.13-.12s-.03-.02-.05-.02h-1.17s-.04,0-.05,.02l-.13,.12s-.03,.02-.05,.02h-.76s-.08,.04-.08,.09v.62c0,.05,.04,.09,.08,.09h4.05s.08-.04,.08-.09v-.49s-.02-.07-.05-.08l-.28-.13s-.02,0-.03,0Z"/></g></g><rect class="cls-1" x="26.94" y="70.6" width="35.89" height="4.47"/><rect class="cls-4" x="26.94" y="83.66" width="35.89" height="4.47"/><rect class="cls-6" x="26.94" y="96.72" width="35.89" height="4.47"/><rect class="cls-2" x="26.94" y="109.79" width="35.89" height="4.47"/><rect class="cls-5" x="74.84" y="70.6" width="28.98" height="43.65"/></svg>