<?xml version="1.0" encoding="UTF-8"?><svg id="whitepaper" xmlns="http://www.w3.org/2000/svg" viewBox="0 0 150 150"><defs><style>.cls-1,.cls-2{fill:#fff;}.cls-3{fill:#00ffb1;}.cls-4{fill:#7200d5;}.cls-2{stroke:#000;stroke-miterlimit:10;stroke-width:.75px;}.cls-5{fill:#4d4d4d;}.cls-6{fill:#00fb81;}.cls-7{fill:#1a1a1a;}.cls-8{fill:#6900f2;}</style></defs><rect class="cls-2" x="40.61" y="28.15" width="90.02" height="113.99"/><rect class="cls-8" x="29.68" y="17.13" width="90.02" height="113.99"/><rect class="cls-2" x="19.37" y="5.21" width="90.02" height="113.99"/><g><polygon class="cls-8" points="101.56 13.75 101.72 13.75 102.05 14.4 102.05 17.83 101.72 18.48 101.56 18.48 101.56 17.34 101.72 17.17 101.72 15.71 101.56 15.54 101.56 13.75"/><polygon class="cls-8" points="93.07 18.48 92.91 18.48 92.58 17.83 92.58 14.4 92.91 13.75 93.07 13.75 93.07 14.89 92.91 15.05 92.91 16.52 93.07 16.68 93.07 18.48"/><polygon class="cls-8" points="93.16 13.61 93.07 13.47 93.45 12.85 96.36 11.03 97.08 10.96 97.17 11.1 96.2 11.7 95.98 11.65 94.73 12.43 94.68 12.66 93.16 13.61"/><polygon class="cls-8" points="101.47 13.61 101.56 13.47 101.18 12.85 98.27 11.03 97.54 10.96 97.46 11.1 98.43 11.7 98.65 11.65 99.9 12.43 99.95 12.66 101.47 13.61"/><polygon class="cls-8" points="101.47 18.68 101.56 18.82 101.18 19.45 98.27 21.27 97.54 21.34 97.46 21.2 98.43 20.59 98.65 20.64 99.9 19.86 99.95 19.64 101.47 18.68"/><polygon class="cls-8" points="93.16 18.68 93.07 18.82 93.45 19.45 96.36 21.27 97.08 21.34 97.17 21.2 96.2 20.59 95.98 20.64 94.73 19.86 94.68 19.64 93.16 18.68"/><g><polygon class="cls-8" points="95.02 15.04 96.54 15.04 96.84 14.74 98.16 14.74 98.36 14.94 99.38 14.94 99.68 15.25 98.57 15.25 98.36 15.45 97.15 15.45 97.05 15.35 95.42 15.35 95.32 15.45 95.02 15.45 94.81 15.25 95.02 15.04"/><path class="cls-8" d="M95.01,16.11h1.22s.04,0,.05-.02l.21-.21s.03-.02,.05-.02h1.76s.04,0,.05,.02l.28,.29s.03,.02,.05,.02h.96s.07,.03,.07,.07v.2s-.03,.07-.07,.07h-1.18s-.04,0-.05,.02l-.06,.06s-.03,.02-.05,.02h-1.33s-.02,0-.03,0l-.17-.09s-.02,0-.03,0h-1.72s-.04,0-.05-.02l-.13-.14s-.02-.07,0-.09l.13-.14s.03-.02,.05-.02Z"/><polygon class="cls-8" points="97.58 17.18 99.68 17.18 99.68 17.58 99.08 17.58 98.98 17.68 98.48 17.68 98.38 17.58 97.68 17.58 97.58 17.48 97.58 17.18"/><path class="cls-8" d="M96.85,17.16h-.72s-.02,0-.03-.01l-.07-.06s-.02-.01-.03-.01h-.62s-.02,0-.03,.01l-.07,.06s-.02,.01-.03,.01h-.4s-.04,.02-.04,.05v.33s.02,.05,.04,.05h2.14s.04-.02,.04-.05v-.26s-.01-.04-.03-.04l-.15-.07s-.01,0-.02,0Z"/></g></g><g><path class="cls-4" d="M65.61,52.35l-33.31-17.55v-2.61l9.73-7.03,.05,.03,32.96,17.61v2.82l-9.43,6.73Zm-33.12-17.66l33.1,17.44,9.25-6.6v-2.61L42.04,25.38l-9.55,6.9v2.4Z"/><polygon class="cls-4" points="74.94 42.85 65.49 49.77 65.49 52.18 74.94 45.57 74.94 42.85"/><rect class="cls-4" x="48.85" y="22.27" width=".19" height="37.46" transform="translate(-10.2 65.06) rotate(-62.08)"/><g><ellipse class="cls-4" cx="42.48" cy="27.7" rx="2.29" ry="1.25"/><path class="cls-4" d="M42.49,30.42c-1.28,0-2.29-.59-2.29-1.34h.19c0,.63,.94,1.15,2.1,1.15s2.1-.52,2.1-1.15h.19c0,.75-1.01,1.34-2.29,1.34Z"/><rect class="cls-4" x="44.59" y="27.64" width=".19" height="1.43"/><rect class="cls-4" x="40.2" y="27.64" width=".19" height="1.43"/></g><g><ellipse class="cls-4" cx="38" cy="30.9" rx="2.29" ry="1.25"/><path class="cls-4" d="M38,33.61c-1.28,0-2.29-.59-2.29-1.34h.19c0,.63,.94,1.15,2.1,1.15s2.1-.52,2.1-1.15h.19c0,.75-1.01,1.34-2.29,1.34Z"/><rect class="cls-4" x="40.1" y="30.83" width=".19" height="1.43"/><rect class="cls-4" x="35.71" y="30.83" width=".19" height="1.43"/></g><g><ellipse class="cls-4" cx="47.79" cy="30.61" rx="2.29" ry="1.25"/><path class="cls-4" d="M47.79,33.32c-1.28,0-2.29-.59-2.29-1.34h.19c0,.63,.94,1.15,2.1,1.15s2.1-.52,2.1-1.15h.19c0,.75-1.01,1.34-2.29,1.34Z"/><rect class="cls-4" x="49.89" y="30.54" width=".19" height="1.43"/><rect class="cls-4" x="45.51" y="30.54" width=".19" height="1.43"/></g><g><ellipse class="cls-4" cx="43.3" cy="33.8" rx="2.29" ry="1.25"/><path class="cls-4" d="M43.31,36.51c-1.28,0-2.29-.59-2.29-1.34h.19c0,.63,.94,1.15,2.1,1.15s2.1-.52,2.1-1.15h.19c0,.75-1.01,1.34-2.29,1.34Z"/><rect class="cls-4" x="45.41" y="33.74" width=".19" height="1.43"/><rect class="cls-4" x="41.02" y="33.74" width=".19" height="1.43"/></g><g><ellipse class="cls-4" cx="53.25" cy="33.64" rx="2.29" ry="1.25"/><path class="cls-4" d="M53.26,36.36c-1.28,0-2.29-.59-2.29-1.34h.19c0,.63,.94,1.15,2.1,1.15s2.1-.52,2.1-1.15h.19c0,.75-1.01,1.34-2.29,1.34Z"/><rect class="cls-4" x="55.36" y="33.58" width=".19" height="1.43"/><rect class="cls-4" x="50.97" y="33.58" width=".19" height="1.43"/></g><g><ellipse class="cls-4" cx="48.77" cy="36.84" rx="2.29" ry="1.25"/><path class="cls-4" d="M48.78,39.55c-1.28,0-2.29-.59-2.29-1.34h.19c0,.63,.94,1.15,2.1,1.15s2.1-.52,2.1-1.15h.19c0,.75-1.01,1.34-2.29,1.34Z"/><rect class="cls-4" x="50.88" y="36.77" width=".19" height="1.43"/><rect class="cls-4" x="46.49" y="36.77" width=".19" height="1.43"/></g><g><ellipse class="cls-4" cx="58.56" cy="36.55" rx="2.29" ry="1.25"/><path class="cls-4" d="M58.57,39.26c-1.28,0-2.29-.59-2.29-1.34h.19c0,.63,.94,1.15,2.1,1.15s2.1-.52,2.1-1.15h.19c0,.75-1.01,1.34-2.29,1.34Z"/><rect class="cls-4" x="60.67" y="36.48" width=".19" height="1.43"/><rect class="cls-4" x="56.28" y="36.48" width=".19" height="1.43"/></g><g><ellipse class="cls-4" cx="54.08" cy="39.74" rx="2.29" ry="1.25"/><path class="cls-4" d="M54.09,42.45c-1.28,0-2.29-.59-2.29-1.34h.19c0,.63,.94,1.15,2.1,1.15s2.1-.52,2.1-1.15h.19c0,.75-1.01,1.34-2.29,1.34Z"/><rect class="cls-4" x="56.18" y="39.67" width=".19" height="1.43"/><rect class="cls-4" x="51.8" y="39.67" width=".19" height="1.43"/></g><g><ellipse class="cls-4" cx="64.26" cy="39.21" rx="2.29" ry="1.25"/><path class="cls-4" d="M64.27,41.92c-1.28,0-2.29-.59-2.29-1.34h.19c0,.63,.94,1.15,2.1,1.15s2.1-.52,2.1-1.15h.19c0,.75-1.01,1.34-2.29,1.34Z"/><rect class="cls-4" x="66.36" y="39.15" width=".19" height="1.43"/><rect class="cls-4" x="61.98" y="39.15" width=".19" height="1.43"/></g><g><ellipse class="cls-4" cx="59.77" cy="42.4" rx="2.29" ry="1.25"/><path class="cls-4" d="M59.78,45.11c-1.28,0-2.29-.59-2.29-1.34h.19c0,.63,.94,1.15,2.1,1.15s2.1-.52,2.1-1.15h.19c0,.75-1.01,1.34-2.29,1.34Z"/><rect class="cls-4" x="61.88" y="42.34" width=".19" height="1.43"/><rect class="cls-4" x="57.49" y="42.34" width=".19" height="1.43"/></g><g><ellipse class="cls-4" cx="69.57" cy="42.11" rx="2.29" ry="1.25"/><path class="cls-4" d="M69.57,44.82c-1.28,0-2.29-.59-2.29-1.34h.19c0,.63,.94,1.15,2.1,1.15s2.1-.52,2.1-1.15h.19c0,.75-1.01,1.34-2.29,1.34Z"/><rect class="cls-4" x="71.67" y="42.05" width=".19" height="1.43"/><rect class="cls-4" x="67.28" y="42.05" width=".19" height="1.43"/></g><g><ellipse class="cls-4" cx="65.08" cy="45.31" rx="2.29" ry="1.25"/><path class="cls-4" d="M65.09,48.02c-1.28,0-2.29-.59-2.29-1.34h.19c0,.63,.94,1.15,2.1,1.15s2.1-.52,2.1-1.15h.19c0,.75-1.01,1.34-2.29,1.34Z"/><rect class="cls-4" x="67.19" y="45.24" width=".19" height="1.43"/><rect class="cls-4" x="62.8" y="45.24" width=".19" height="1.43"/></g></g><polygon class="cls-1" points="36.06 19.69 26.37 26.63 26.37 29.11 59.51 46.49 68.96 39.88 69.05 37.1 36.06 19.69"/><g><path class="cls-6" d="M59.98,46.91L26.14,29.08v-2.65l9.88-7.14,.05,.03,33.49,17.89v2.87l-9.58,6.84ZM26.34,28.97l33.63,17.72,9.4-6.71v-2.65L36.04,19.52l-9.7,7.01v2.44Z"/><polygon class="cls-6" points="69.47 37.27 59.87 44.3 59.87 46.74 69.47 40.03 69.47 37.27"/><rect class="cls-6" x="42.96" y="16.36" width=".19" height="38.06" transform="translate(-8.37 56.87) rotate(-62.08)"/><g><ellipse class="cls-6" cx="36.49" cy="21.88" rx="2.33" ry="1.27"/><path class="cls-6" d="M36.49,24.63c-1.3,0-2.33-.6-2.33-1.36h.19c0,.64,.96,1.17,2.13,1.17s2.13-.52,2.13-1.17h.19c0,.76-1.02,1.36-2.33,1.36Z"/><rect class="cls-6" x="38.63" y="21.81" width=".19" height="1.46"/><rect class="cls-6" x="34.17" y="21.81" width=".19" height="1.46"/></g><g><ellipse class="cls-6" cx="31.93" cy="25.12" rx="2.33" ry="1.27"/><path class="cls-6" d="M31.94,27.88c-1.3,0-2.33-.6-2.33-1.36h.19c0,.64,.96,1.17,2.13,1.17s2.13-.52,2.13-1.17h.19c0,.76-1.02,1.36-2.33,1.36Z"/><rect class="cls-6" x="34.07" y="25.06" width=".19" height="1.46"/><rect class="cls-6" x="29.61" y="25.06" width=".19" height="1.46"/></g><g><ellipse class="cls-6" cx="41.88" cy="24.83" rx="2.33" ry="1.27"/><path class="cls-6" d="M41.89,27.58c-1.3,0-2.33-.6-2.33-1.36h.19c0,.64,.96,1.17,2.13,1.17s2.13-.52,2.13-1.17h.19c0,.76-1.02,1.36-2.33,1.36Z"/><rect class="cls-6" x="44.02" y="24.76" width=".19" height="1.46"/><rect class="cls-6" x="39.56" y="24.76" width=".19" height="1.46"/></g><g><ellipse class="cls-6" cx="37.32" cy="28.07" rx="2.33" ry="1.27"/><path class="cls-6" d="M37.33,30.83c-1.3,0-2.33-.6-2.33-1.36h.19c0,.64,.96,1.17,2.13,1.17s2.13-.52,2.13-1.17h.19c0,.76-1.02,1.36-2.33,1.36Z"/><rect class="cls-6" x="39.46" y="28.01" width=".19" height="1.46"/><rect class="cls-6" x="35.01" y="28.01" width=".19" height="1.46"/></g><g><ellipse class="cls-6" cx="47.43" cy="27.91" rx="2.33" ry="1.27"/><path class="cls-6" d="M47.44,30.67c-1.3,0-2.33-.6-2.33-1.36h.19c0,.64,.96,1.17,2.13,1.17s2.13-.52,2.13-1.17h.19c0,.76-1.02,1.36-2.33,1.36Z"/><rect class="cls-6" x="49.57" y="27.85" width=".19" height="1.46"/><rect class="cls-6" x="45.12" y="27.85" width=".19" height="1.46"/></g><g><ellipse class="cls-6" cx="42.88" cy="31.16" rx="2.33" ry="1.27"/><path class="cls-6" d="M42.89,33.91c-1.3,0-2.33-.6-2.33-1.36h.19c0,.64,.96,1.17,2.13,1.17s2.13-.52,2.13-1.17h.19c0,.76-1.02,1.36-2.33,1.36Z"/><rect class="cls-6" x="45.02" y="31.09" width=".19" height="1.46"/><rect class="cls-6" x="40.56" y="31.09" width=".19" height="1.46"/></g><g><ellipse class="cls-6" cx="52.83" cy="30.86" rx="2.33" ry="1.27"/><path class="cls-6" d="M52.83,33.62c-1.3,0-2.33-.6-2.33-1.36h.19c0,.64,.96,1.17,2.13,1.17s2.13-.52,2.13-1.17h.19c0,.76-1.02,1.36-2.33,1.36Z"/><rect class="cls-6" x="54.97" y="30.8" width=".19" height="1.46"/><rect class="cls-6" x="50.51" y="30.8" width=".19" height="1.46"/></g><g><ellipse class="cls-6" cx="48.27" cy="34.11" rx="2.33" ry="1.27"/><path class="cls-6" d="M48.28,36.86c-1.3,0-2.33-.6-2.33-1.36h.19c0,.64,.96,1.17,2.13,1.17s2.13-.52,2.13-1.17h.19c0,.76-1.02,1.36-2.33,1.36Z"/><rect class="cls-6" x="50.41" y="34.04" width=".19" height="1.46"/><rect class="cls-6" x="45.95" y="34.04" width=".19" height="1.46"/></g><g><ellipse class="cls-6" cx="58.61" cy="33.57" rx="2.33" ry="1.27"/><path class="cls-6" d="M58.62,36.32c-1.3,0-2.33-.6-2.33-1.36h.19c0,.64,.96,1.17,2.13,1.17s2.13-.52,2.13-1.17h.19c0,.76-1.02,1.36-2.33,1.36Z"/><rect class="cls-6" x="60.75" y="33.5" width=".19" height="1.46"/><rect class="cls-6" x="56.3" y="33.5" width=".19" height="1.46"/></g><g><ellipse class="cls-6" cx="54.06" cy="36.81" rx="2.33" ry="1.27"/><path class="cls-6" d="M54.07,39.57c-1.3,0-2.33-.6-2.33-1.36h.19c0,.64,.96,1.17,2.13,1.17s2.13-.52,2.13-1.17h.19c0,.76-1.02,1.36-2.33,1.36Z"/><rect class="cls-6" x="56.2" y="36.75" width=".19" height="1.46"/><rect class="cls-6" x="51.74" y="36.75" width=".19" height="1.46"/></g><g><ellipse class="cls-6" cx="64.01" cy="36.52" rx="2.33" ry="1.27"/><path class="cls-6" d="M64.01,39.27c-1.3,0-2.33-.6-2.33-1.36h.19c0,.64,.96,1.17,2.13,1.17s2.13-.52,2.13-1.17h.19c0,.76-1.02,1.36-2.33,1.36Z"/><rect class="cls-6" x="66.15" y="36.45" width=".19" height="1.46"/><rect class="cls-6" x="61.69" y="36.45" width=".19" height="1.46"/></g><g><ellipse class="cls-6" cx="59.45" cy="39.76" rx="2.33" ry="1.27"/><path class="cls-6" d="M59.46,42.52c-1.3,0-2.33-.6-2.33-1.36h.19c0,.64,.96,1.17,2.13,1.17s2.13-.52,2.13-1.17h.19c0,.76-1.02,1.36-2.33,1.36Z"/><rect class="cls-6" x="61.59" y="39.7" width=".19" height="1.46"/><rect class="cls-6" x="57.13" y="39.7" width=".19" height="1.46"/></g></g><polygon class="cls-1" points="40.64 13.58 30.95 20.52 30.95 23 64.09 40.38 73.54 33.77 73.64 30.99 40.64 13.58"/><g><path class="cls-4" d="M64.57,40.8L30.73,22.97v-2.65l9.88-7.14,.05,.03,33.49,17.89v2.87l-9.58,6.84ZM30.92,22.86l33.63,17.72,9.4-6.71v-2.65L40.63,13.41l-9.7,7.01v2.44Z"/><polygon class="cls-4" points="74.05 31.15 64.46 38.19 64.46 40.63 74.05 33.92 74.05 31.15"/><rect class="cls-4" x="47.54" y="10.25" width=".19" height="38.06" transform="translate(-.53 57.67) rotate(-62.08)"/><g><ellipse class="cls-4" cx="41.07" cy="15.77" rx="2.33" ry="1.27"/><path class="cls-4" d="M41.08,18.52c-1.3,0-2.33-.6-2.33-1.36h.19c0,.64,.96,1.17,2.13,1.17s2.13-.52,2.13-1.17h.19c0,.76-1.02,1.36-2.33,1.36Z"/><rect class="cls-4" x="43.21" y="15.7" width=".19" height="1.46"/><rect class="cls-4" x="38.75" y="15.7" width=".19" height="1.46"/></g><g><ellipse class="cls-4" cx="36.52" cy="19.01" rx="2.33" ry="1.27"/><path class="cls-4" d="M36.53,21.76c-1.3,0-2.33-.6-2.33-1.36h.19c0,.64,.96,1.17,2.13,1.17s2.13-.52,2.13-1.17h.19c0,.76-1.02,1.36-2.33,1.36Z"/><rect class="cls-4" x="38.66" y="18.94" width=".19" height="1.46"/><rect class="cls-4" x="34.2" y="18.94" width=".19" height="1.46"/></g><g><ellipse class="cls-4" cx="46.46" cy="18.72" rx="2.33" ry="1.27"/><path class="cls-4" d="M46.47,21.47c-1.3,0-2.33-.6-2.33-1.36h.19c0,.64,.96,1.17,2.13,1.17s2.13-.52,2.13-1.17h.19c0,.76-1.02,1.36-2.33,1.36Z"/><rect class="cls-4" x="48.6" y="18.65" width=".19" height="1.46"/><rect class="cls-4" x="44.15" y="18.65" width=".19" height="1.46"/></g><g><ellipse class="cls-4" cx="41.91" cy="21.96" rx="2.33" ry="1.27"/><path class="cls-4" d="M41.92,24.71c-1.3,0-2.33-.6-2.33-1.36h.19c0,.64,.96,1.17,2.13,1.17s2.13-.52,2.13-1.17h.19c0,.76-1.02,1.36-2.33,1.36Z"/><rect class="cls-4" x="44.05" y="21.89" width=".19" height="1.46"/><rect class="cls-4" x="39.59" y="21.89" width=".19" height="1.46"/></g><g><ellipse class="cls-4" cx="52.02" cy="21.8" rx="2.33" ry="1.27"/><path class="cls-4" d="M52.03,24.56c-1.3,0-2.33-.6-2.33-1.36h.19c0,.64,.96,1.17,2.13,1.17s2.13-.52,2.13-1.17h.19c0,.76-1.02,1.36-2.33,1.36Z"/><rect class="cls-4" x="54.16" y="21.74" width=".19" height="1.46"/><rect class="cls-4" x="49.7" y="21.74" width=".19" height="1.46"/></g><g><ellipse class="cls-4" cx="47.46" cy="25.05" rx="2.33" ry="1.27"/><path class="cls-4" d="M47.47,27.8c-1.3,0-2.33-.6-2.33-1.36h.19c0,.64,.96,1.17,2.13,1.17s2.13-.52,2.13-1.17h.19c0,.76-1.02,1.36-2.33,1.36Z"/><rect class="cls-4" x="49.6" y="24.98" width=".19" height="1.46"/><rect class="cls-4" x="45.15" y="24.98" width=".19" height="1.46"/></g><g><ellipse class="cls-4" cx="57.41" cy="24.75" rx="2.33" ry="1.27"/><path class="cls-4" d="M57.42,27.51c-1.3,0-2.33-.6-2.33-1.36h.19c0,.64,.96,1.17,2.13,1.17s2.13-.52,2.13-1.17h.19c0,.76-1.02,1.36-2.33,1.36Z"/><rect class="cls-4" x="59.55" y="24.69" width=".19" height="1.46"/><rect class="cls-4" x="55.09" y="24.69" width=".19" height="1.46"/></g><g><ellipse class="cls-4" cx="52.86" cy="27.99" rx="2.33" ry="1.27"/><path class="cls-4" d="M52.86,30.75c-1.3,0-2.33-.6-2.33-1.36h.19c0,.64,.96,1.17,2.13,1.17s2.13-.52,2.13-1.17h.19c0,.76-1.02,1.36-2.33,1.36Z"/><rect class="cls-4" x="55" y="27.93" width=".19" height="1.46"/><rect class="cls-4" x="50.54" y="27.93" width=".19" height="1.46"/></g><g><ellipse class="cls-4" cx="63.2" cy="27.46" rx="2.33" ry="1.27"/><path class="cls-4" d="M63.21,30.21c-1.3,0-2.33-.6-2.33-1.36h.19c0,.64,.96,1.17,2.13,1.17s2.13-.52,2.13-1.17h.19c0,.76-1.02,1.36-2.33,1.36Z"/><rect class="cls-4" x="65.34" y="27.39" width=".19" height="1.46"/><rect class="cls-4" x="60.88" y="27.39" width=".19" height="1.46"/></g><g><ellipse class="cls-4" cx="58.64" cy="30.7" rx="2.33" ry="1.27"/><path class="cls-4" d="M58.65,33.45c-1.3,0-2.33-.6-2.33-1.36h.19c0,.64,.96,1.17,2.13,1.17s2.13-.52,2.13-1.17h.19c0,.76-1.02,1.36-2.33,1.36Z"/><rect class="cls-4" x="60.78" y="30.63" width=".19" height="1.46"/><rect class="cls-4" x="56.33" y="30.63" width=".19" height="1.46"/></g><g><ellipse class="cls-4" cx="68.59" cy="30.41" rx="2.33" ry="1.27"/><path class="cls-4" d="M68.6,33.16c-1.3,0-2.33-.6-2.33-1.36h.19c0,.64,.96,1.17,2.13,1.17s2.13-.52,2.13-1.17h.19c0,.76-1.02,1.36-2.33,1.36Z"/><rect class="cls-4" x="70.73" y="30.34" width=".19" height="1.46"/><rect class="cls-4" x="66.27" y="30.34" width=".19" height="1.46"/></g><g><ellipse class="cls-4" cx="64.04" cy="33.65" rx="2.33" ry="1.27"/><path class="cls-4" d="M64.05,36.4c-1.3,0-2.33-.6-2.33-1.36h.19c0,.64,.96,1.17,2.13,1.17s2.13-.52,2.13-1.17h.19c0,.76-1.02,1.36-2.33,1.36Z"/><rect class="cls-4" x="66.18" y="33.58" width=".19" height="1.46"/><rect class="cls-4" x="61.72" y="33.58" width=".19" height="1.46"/></g></g><rect class="cls-7" x="25.68" y="57.29" width="64.01" height="2.31"/><rect class="cls-5" x="25.68" y="64.05" width="64.01" height="2.31"/><rect class="cls-4" x="25.68" y="70.9" width="37.12" height="2.31"/><rect class="cls-4" x="57.4" y="77.06" width="32.01" height="2.31"/><rect class="cls-3" x="25.68" y="84.51" width="18.56" height="2.31"/><rect class="cls-5" x="25.68" y="91.27" width="18.56" height="2.31"/><rect class="cls-3" x="68.66" y="91.27" width="20.75" height="2.31"/><rect class="cls-7" x="46.88" y="84.51" width="18.56" height="2.31"/><rect class="cls-4" x="46.88" y="91.27" width="18.56" height="2.31"/><g><rect class="cls-5" x="34.15" y="108.55" width="7.01" height="2.31" transform="translate(141.86 160.65) rotate(135)"/><rect class="cls-5" x="34.15" y="105.25" width="7.01" height="2.31" transform="translate(86.27 4.54) rotate(45)"/></g><path class="cls-4" d="M47.48,113h-.61v-1.01h.53c.09,0,.16-.03,.22-.09,.06-.06,.09-.13,.09-.22v-2.6c0-.27,.08-.52,.24-.76l.19-.26-.19-.26c-.16-.23-.24-.48-.24-.76v-2.6c0-.09-.03-.16-.09-.22-.06-.06-.13-.09-.22-.09h-.53v-1.01h.61c.38,0,.69,.11,.91,.34,.22,.22,.34,.53,.34,.91v2.67c0,.05,.02,.11,.05,.17l.4,.56c.06,.09,.09,.18,.09,.28s-.03,.2-.09,.28l-.4,.56s-.05,.1-.05,.17v2.67c0,.39-.11,.69-.34,.91s-.53,.33-.91,.33Z"/><path class="cls-7" d="M26.55,112.67c-.22-.22-.34-.53-.34-.91v-2.67c0-.07-.02-.12-.05-.17l-.4-.56c-.06-.09-.09-.18-.09-.28,0-.1,.03-.2,.09-.28l.4-.56c.04-.06,.05-.12,.05-.17v-2.67c0-.38,.11-.69,.34-.91,.22-.22,.53-.34,.91-.34h.61v1.01h-.53c-.09,0-.16,.03-.22,.09-.06,.06-.09,.13-.09,.22v2.6c0,.28-.08,.53-.24,.76l-.19,.26,.19,.26c.16,.23,.24,.48,.24,.76v2.6c0,.09,.03,.16,.09,.22,.06,.06,.13,.09,.22,.09h.53v1.01h-.61c-.38,0-.69-.11-.91-.33Z"/></svg>