<svg width="400" height="200" viewBox="0 0 400 200" fill="none" xmlns="http://www.w3.org/2000/svg">
<rect width="400" height="200" fill="white"/>
<rect x="151.059" y="17.0019" width="171.877" height="46.5401" rx="23.2701" fill="white" stroke="#6900F2" stroke-width="0.460795"/>
<path d="M148.984 43.0376C148.984 30.0586 159.506 19.5371 172.485 19.5371H295.979C308.958 19.5371 319.479 30.0586 319.479 43.0376C319.479 56.0165 308.958 66.538 295.979 66.538H172.485C159.506 66.538 148.984 56.0165 148.984 43.0376Z" fill="#7200D5"/>
<path d="M293.214 89.1169L261.88 66.0772H293.214V89.1169Z" fill="#7200D5"/>
<ellipse cx="212.113" cy="43.0363" rx="8.75514" ry="8.75507" fill="white"/>
<ellipse cx="239.763" cy="43.0363" rx="8.75514" ry="8.75507" fill="white"/>
<ellipse cx="267.409" cy="43.0363" rx="8.75514" ry="8.75507" fill="white"/>
<rect x="-0.230398" y="0.230398" width="171.877" height="46.5401" rx="23.2701" transform="matrix(-1 0 0 1 242.863 79.1699)" fill="white" stroke="black" stroke-width="0.460795"/>
<path d="M245.166 105.436C245.166 92.4571 234.644 81.9355 221.665 81.9355H98.1718C85.1927 81.9355 74.6711 92.4571 74.6711 105.436C74.6711 118.415 85.1927 128.936 98.1718 128.936H221.665C234.644 128.936 245.166 118.415 245.166 105.436Z" fill="#03FF81"/>
<path d="M100.937 151.515L132.271 128.476H100.937V151.515Z" fill="#03FF81"/>
<ellipse cx="8.75514" cy="8.75507" rx="8.75514" ry="8.75507" transform="matrix(-1 0 0 1 199.086 96.6797)" fill="black"/>
<ellipse cx="8.75514" cy="8.75507" rx="8.75514" ry="8.75507" transform="matrix(-1 0 0 1 171.439 96.6797)" fill="black"/>
<ellipse cx="8.75514" cy="8.75507" rx="8.75514" ry="8.75507" transform="matrix(-1 0 0 1 143.791 96.6797)" fill="black"/>
</svg>
