<svg width="400" height="200" viewBox="0 0 400 200" fill="none" xmlns="http://www.w3.org/2000/svg">
<g clip-path="url(#clip0_205_295)">
<rect width="400" height="200" fill="white"/>
<path d="M107.61 117.4H54.8496C51.6518 117.4 49.0596 119.993 49.0596 123.19V175.95C49.0596 179.148 51.6518 181.74 54.8496 181.74H107.61C110.807 181.74 113.4 179.148 113.4 175.95V123.19C113.4 119.993 110.807 117.4 107.61 117.4Z" fill="#03FF81"/>
<path d="M107.8 112.949H55.04C51.8423 112.949 49.25 115.541 49.25 118.739V171.499C49.25 174.697 51.8423 177.289 55.04 177.289H107.8C110.998 177.289 113.59 174.697 113.59 171.499V118.739C113.59 115.541 110.998 112.949 107.8 112.949Z" fill="#FCFCFC" stroke="#03FF81" stroke-width="0.5" stroke-miterlimit="10"/>
<path d="M90.9 139.3L87.54 137.99L86.94 134.52L89.53 132.06C89.579 132.012 89.6138 131.951 89.6304 131.885C89.647 131.818 89.6448 131.748 89.6241 131.683C89.6034 131.618 89.5649 131.559 89.5129 131.515C89.461 131.47 89.3977 131.44 89.33 131.43C88.999 131.379 88.6648 131.352 88.33 131.35C87.3123 131.348 86.3097 131.596 85.4098 132.071C84.51 132.546 83.7403 133.235 83.168 134.077C82.5958 134.918 82.2384 135.887 82.1272 136.899C82.016 137.91 82.1543 138.934 82.53 139.88L76.75 145.66L80.5 149.41L86.39 143.53C87.2016 143.796 88.0597 143.891 88.91 143.81C90.1529 143.679 91.3296 143.184 92.2921 142.387C93.2547 141.59 93.9602 140.526 94.32 139.33C94.5695 138.518 94.6412 137.662 94.53 136.82C94.5259 136.759 94.5046 136.701 94.4686 136.652C94.4326 136.603 94.3834 136.565 94.3267 136.543C94.2701 136.521 94.2083 136.516 94.1487 136.527C94.0891 136.539 94.034 136.568 93.99 136.61L90.9 139.3Z" fill="#7200D5"/>
<path d="M81.495 145.984L80.1586 144.648C79.4869 143.976 78.3979 143.976 77.7262 144.648L66.1579 156.216C65.4862 156.888 65.4862 157.977 66.1579 158.649L67.4943 159.985C68.166 160.657 69.2551 160.657 69.9268 159.985L81.495 148.417C82.1667 147.745 82.1667 146.656 81.495 145.984Z" fill="#7200D5"/>
<path d="M95.9896 154.95L88.9896 147.95C88.8706 147.829 88.7088 147.761 88.5396 147.76H87.3096C87.2769 147.769 87.2423 147.769 87.2096 147.76L85.8396 146.39C85.8266 146.354 85.8266 146.315 85.8396 146.28V145.01C85.8408 144.926 85.8255 144.844 85.7946 144.767C85.7637 144.689 85.7178 144.619 85.6596 144.56L84.4496 143.35C84.3918 143.29 84.3226 143.243 84.2462 143.21C84.1698 143.178 84.0876 143.161 84.0046 143.161C83.9216 143.161 83.8394 143.178 83.763 143.21C83.6866 143.243 83.6174 143.29 83.5596 143.35L82.5596 144.4C82.5297 144.423 82.4927 144.436 82.4546 144.436C82.4165 144.436 82.3796 144.423 82.3496 144.4L73.1496 135.2C73.1366 135.164 73.1366 135.125 73.1496 135.09V133.87C73.1512 133.738 73.1101 133.609 73.0326 133.503C72.9551 133.397 72.8453 133.318 72.7196 133.28L68.1896 131.77V131.84V131.79L67.3496 132.62L68.8596 137.15C68.9003 137.276 68.9806 137.386 69.0886 137.464C69.1967 137.541 69.3267 137.582 69.4596 137.58H70.3896C70.4256 137.57 70.4636 137.57 70.4996 137.58L79.6996 146.79C79.7068 146.805 79.7105 146.822 79.7105 146.84C79.7105 146.857 79.7068 146.874 79.6996 146.89C79.7135 146.925 79.7135 146.964 79.6996 147L78.6996 148C78.5835 148.121 78.5187 148.282 78.5187 148.45C78.5187 148.617 78.5835 148.779 78.6996 148.9L79.9096 150.1C80.0286 150.22 80.1904 150.288 80.3596 150.29H81.6296C81.665 150.276 81.7043 150.276 81.7396 150.29L83.0596 151.87C83.0735 151.905 83.0735 151.944 83.0596 151.98V153.25C83.061 153.419 83.1293 153.581 83.2496 153.7L90.2496 160.7C90.7437 161.187 91.4102 161.461 92.1046 161.461C92.799 161.461 93.4655 161.187 93.9596 160.7L94.6496 160L95.9996 158.65C96.2436 158.406 96.4372 158.117 96.5693 157.799C96.7014 157.48 96.7694 157.139 96.7694 156.795C96.7694 156.45 96.7014 156.109 96.5693 155.79C96.4372 155.472 96.2436 155.183 95.9996 154.94L95.9896 154.95ZM95.6496 158.32L94.3196 159.64L93.6096 160.36C93.2082 160.75 92.67 160.969 92.1096 160.969C91.5493 160.969 91.0111 160.75 90.6096 160.36L83.6096 153.36C83.5966 153.324 83.5966 153.285 83.6096 153.25V151.98C83.6108 151.896 83.5955 151.814 83.5646 151.737C83.5337 151.659 83.4878 151.589 83.4296 151.53L81.9896 150.16C81.9302 150.101 81.8598 150.055 81.7826 150.025C81.7054 149.994 81.6228 149.978 81.5396 149.98H80.3096C80.2678 149.978 80.2283 149.96 80.1996 149.93L78.9896 148.73C78.9635 148.699 78.9492 148.66 78.9492 148.62C78.9492 148.579 78.9635 148.54 78.9896 148.51L79.9896 147.51C80.1057 147.389 80.1706 147.227 80.1706 147.06C80.1706 146.892 80.1057 146.731 79.9896 146.61L70.7896 137.41C70.7302 137.351 70.6598 137.305 70.5826 137.275C70.5054 137.244 70.4228 137.228 70.3396 137.23H69.2396C69.2071 137.231 69.175 137.223 69.1479 137.205C69.1209 137.187 69.1004 137.16 69.0896 137.13L67.6596 132.84L68.1296 132.37L72.4196 133.8C72.4486 133.81 72.4738 133.829 72.4917 133.854C72.5096 133.879 72.5193 133.909 72.5196 133.94V135.1C72.521 135.269 72.5893 135.431 72.7096 135.55L81.9096 144.75C82.029 144.865 82.1885 144.93 82.3546 144.93C82.5207 144.93 82.6802 144.865 82.7996 144.75L83.7996 143.7C83.8127 143.685 83.8289 143.673 83.847 143.665C83.8651 143.656 83.8847 143.652 83.9046 143.652C83.9245 143.652 83.9441 143.656 83.9622 143.665C83.9803 143.673 83.9965 143.685 84.0096 143.7L85.2696 144.87C85.277 144.887 85.2809 144.906 85.2809 144.925C85.2809 144.943 85.277 144.962 85.2696 144.98V146.25C85.271 146.419 85.3393 146.581 85.4596 146.7L86.8296 148.07C86.8875 148.127 86.9562 148.172 87.0317 148.203C87.1072 148.234 87.188 148.25 87.2696 148.25H88.5896C88.6314 148.251 88.6709 148.269 88.6996 148.3L95.6996 155.3C95.899 155.497 96.0573 155.732 96.1654 155.992C96.2735 156.251 96.3293 156.529 96.3296 156.81C96.321 157.377 96.0914 157.919 95.6896 158.32H95.6496Z" fill="#7200D6"/>
<path d="M111.39 128.969C118.575 128.969 124.4 123.144 124.4 115.959C124.4 108.774 118.575 102.949 111.39 102.949C104.205 102.949 98.3799 108.774 98.3799 115.959C98.3799 123.144 104.205 128.969 111.39 128.969Z" fill="#7200D5"/>
<path d="M111.39 127.76C118.575 127.76 124.4 121.935 124.4 114.75C124.4 107.565 118.575 101.74 111.39 101.74C104.205 101.74 98.3799 107.565 98.3799 114.75C98.3799 121.935 104.205 127.76 111.39 127.76Z" fill="#B3B5FF"/>
<path d="M109.7 120.029L103.85 115.029C103.749 114.943 103.687 114.82 103.676 114.688C103.666 114.556 103.709 114.425 103.795 114.324C103.881 114.223 104.004 114.161 104.136 114.151C104.268 114.14 104.399 114.183 104.5 114.269L109.64 118.689L118.24 109.839C118.334 109.755 118.456 109.709 118.582 109.711C118.708 109.713 118.829 109.763 118.92 109.85C119.011 109.937 119.066 110.056 119.073 110.182C119.081 110.308 119.04 110.432 118.96 110.529L109.7 120.029Z" fill="#7200D6"/>
<path d="M221.04 117.4H168.28C165.083 117.4 162.49 119.993 162.49 123.19V175.95C162.49 179.148 165.083 181.74 168.28 181.74H221.04C224.238 181.74 226.83 179.148 226.83 175.95V123.19C226.83 119.993 224.238 117.4 221.04 117.4Z" fill="black"/>
<path d="M221.23 112.949H168.47C165.272 112.949 162.68 115.541 162.68 118.739V171.499C162.68 174.697 165.272 177.289 168.47 177.289H221.23C224.427 177.289 227.02 174.697 227.02 171.499V118.739C227.02 115.541 224.427 112.949 221.23 112.949Z" fill="#FCFCFC" stroke="black" stroke-width="0.5" stroke-miterlimit="10"/>
<path d="M224.82 128.969C232.005 128.969 237.83 123.144 237.83 115.959C237.83 108.774 232.005 102.949 224.82 102.949C217.634 102.949 211.81 108.774 211.81 115.959C211.81 123.144 217.634 128.969 224.82 128.969Z" fill="#7200D5"/>
<path d="M224.82 127.76C232.005 127.76 237.83 121.935 237.83 114.75C237.83 107.565 232.005 101.74 224.82 101.74C217.634 101.74 211.81 107.565 211.81 114.75C211.81 121.935 217.634 127.76 224.82 127.76Z" fill="#B3B5FF"/>
<path d="M223.13 120.029L217.28 115.029C217.18 114.943 217.117 114.82 217.107 114.688C217.097 114.556 217.139 114.425 217.225 114.324C217.312 114.223 217.434 114.161 217.567 114.151C217.699 114.14 217.83 114.183 217.931 114.269L223.071 118.689L231.67 109.839C231.764 109.755 231.887 109.709 232.013 109.711C232.139 109.713 232.26 109.763 232.351 109.85C232.442 109.937 232.497 110.056 232.504 110.182C232.511 110.308 232.471 110.432 232.39 110.529L223.13 120.029Z" fill="#7200D6"/>
<path d="M195.6 141.199H174.43V145.309H195.6V141.199Z" fill="black"/>
<path d="M219.37 141.199H198.2V145.309H219.37V141.199Z" fill="#00FFB1"/>
<path d="M195.6 149.699H174.43V153.809H195.6V149.699Z" fill="#7200D5"/>
<path d="M219.37 149.699H198.2V153.809H219.37V149.699Z" fill="#B3B5FF"/>
<path d="M334.47 117.4H281.71C278.512 117.4 275.92 119.993 275.92 123.19V175.95C275.92 179.148 278.512 181.74 281.71 181.74H334.47C337.668 181.74 340.26 179.148 340.26 175.95V123.19C340.26 119.993 337.668 117.4 334.47 117.4Z" fill="#7200D5"/>
<path d="M334.66 112.949H281.9C278.703 112.949 276.11 115.541 276.11 118.739V171.499C276.11 174.697 278.703 177.289 281.9 177.289H334.66C337.858 177.289 340.45 174.697 340.45 171.499V118.739C340.45 115.541 337.858 112.949 334.66 112.949Z" fill="#FCFCFC" stroke="#7200D5" stroke-width="0.5" stroke-miterlimit="10"/>
<path d="M338.25 128.969C345.435 128.969 351.26 123.144 351.26 115.959C351.26 108.774 345.435 102.949 338.25 102.949C331.065 102.949 325.24 108.774 325.24 115.959C325.24 123.144 331.065 128.969 338.25 128.969Z" fill="#7200D5"/>
<path d="M338.25 127.76C345.435 127.76 351.26 121.935 351.26 114.75C351.26 107.565 345.435 101.74 338.25 101.74C331.065 101.74 325.24 107.565 325.24 114.75C325.24 121.935 331.065 127.76 338.25 127.76Z" fill="#B3B5FF"/>
<path d="M336.56 120.029L330.71 115.029C330.609 114.943 330.547 114.82 330.537 114.688C330.526 114.556 330.569 114.425 330.655 114.324C330.741 114.223 330.864 114.161 330.996 114.151C331.129 114.14 331.259 114.183 331.36 114.269L336.5 118.689L345.1 109.839C345.194 109.755 345.316 109.709 345.442 109.711C345.569 109.713 345.689 109.763 345.78 109.85C345.872 109.937 345.926 110.056 345.934 110.182C345.941 110.308 345.9 110.432 345.82 110.529L336.56 120.029Z" fill="#7200D6"/>
<path d="M316.48 138.359H281.58V173.259H316.48V138.359Z" fill="#B3B5FF"/>
<path d="M314.54 135.84H279.64V170.74H314.54V135.84Z" fill="#FCFCFC" stroke="black" stroke-width="0.5" stroke-miterlimit="10"/>
<path d="M326.1 140.449H320.44V129.029H326.2C327.702 129.029 329.141 129.626 330.203 130.687C331.264 131.748 331.86 133.188 331.86 134.689C331.86 136.217 331.254 137.682 330.173 138.762C329.093 139.842 327.628 140.449 326.1 140.449Z" fill="#7200D5"/>
<path d="M320.59 131.619H317.08C316.749 131.619 316.48 131.886 316.48 132.214C316.48 132.543 316.749 132.809 317.08 132.809H320.59C320.922 132.809 321.19 132.543 321.19 132.214C321.19 131.886 320.922 131.619 320.59 131.619Z" fill="#7200D5"/>
<path d="M320.59 136.24H317.08C316.749 136.24 316.48 136.507 316.48 136.835C316.48 137.164 316.749 137.43 317.08 137.43H320.59C320.922 137.43 321.19 137.164 321.19 136.835C321.19 136.507 320.922 136.24 320.59 136.24Z" fill="#7200D5"/>
<path d="M336.38 133.98H331.67V136.07H336.38V133.98Z" fill="#7200D5"/>
<path d="M310.39 137.471C310.312 137.472 310.234 137.458 310.161 137.429C310.089 137.4 310.022 137.356 309.967 137.302C309.911 137.247 309.866 137.181 309.836 137.109C309.806 137.037 309.79 136.959 309.79 136.881C309.79 136.802 309.806 136.724 309.836 136.651C309.866 136.578 309.91 136.512 309.966 136.457C310.022 136.401 310.088 136.357 310.161 136.326C310.234 136.296 310.312 136.281 310.39 136.281H312.99V132.871H310.39C310.231 132.871 310.079 132.808 309.966 132.695C309.854 132.583 309.79 132.43 309.79 132.271C309.79 132.112 309.854 131.959 309.966 131.847C310.079 131.734 310.231 131.671 310.39 131.671H312.99V129.051H307.33C306.574 129.049 305.826 129.197 305.127 129.486C304.428 129.774 303.793 130.197 303.258 130.731C302.723 131.265 302.299 131.9 302.009 132.598C301.719 133.296 301.57 134.045 301.57 134.801C301.57 136.303 302.166 137.744 303.228 138.807C304.289 139.87 305.728 140.468 307.23 140.471H312.99V137.471H310.39Z" fill="#7200D5"/>
<path d="M312.1 150.869H300.48V167.779H312.1V150.869Z" fill="#B3B5FF"/>
<path d="M293.65 141.301H283.31V143.261H293.65V141.301Z" fill="#40FFC4"/>
<path d="M293.65 144.551H283.31V146.511H293.65V144.551Z" fill="#7200D5"/>
<path d="M293.65 147.67H283.31V149.63H293.65V147.67Z" fill="black"/>
<path d="M215.68 48.4004H179.27C172.262 48.4004 166.58 54.0819 166.58 61.0904V64.3104C166.58 71.3189 172.262 77.0004 179.27 77.0004H215.68C222.689 77.0004 228.37 71.3189 228.37 64.3104V61.0904C228.37 54.0819 222.689 48.4004 215.68 48.4004Z" fill="#7200D5"/>
<path d="M213.81 19.25H182.25C176.302 19.25 171.48 24.0719 171.48 30.02V33.86C171.48 39.8081 176.302 44.63 182.25 44.63H213.81C219.759 44.63 224.58 39.8081 224.58 33.86V30.02C224.58 24.0719 219.759 19.25 213.81 19.25Z" fill="#FCFCFC" stroke="#7200D5" stroke-width="0.5" stroke-miterlimit="10"/>
<path d="M190.6 32.8297C192.506 32.8297 194.05 31.2851 194.05 29.3797C194.05 27.4743 192.506 25.9297 190.6 25.9297C188.695 25.9297 187.15 27.4743 187.15 29.3797C187.15 31.2851 188.695 32.8297 190.6 32.8297Z" fill="#7200D5"/>
<path d="M206.99 32.8297C208.895 32.8297 210.44 31.2851 210.44 29.3797C210.44 27.4743 208.895 25.9297 206.99 25.9297C205.085 25.9297 203.54 27.4743 203.54 29.3797C203.54 31.2851 205.085 32.8297 206.99 32.8297Z" fill="#7200D5"/>
<path d="M166.09 28.7402H171.47V33.9302H166.09C165.401 33.9302 164.739 33.6563 164.252 33.1687C163.764 32.6811 163.49 32.0198 163.49 31.3302C163.493 30.6424 163.768 29.9837 164.255 29.4982C164.743 29.0128 165.402 28.7402 166.09 28.7402Z" fill="#7200D5"/>
<path d="M229.75 33.5896H224.37V28.3996H229.75C230.439 28.3996 231.1 28.6735 231.588 29.1611C232.076 29.6487 232.35 30.31 232.35 30.9996C232.35 31.6892 232.076 32.3505 231.588 32.8381C231.1 33.3257 230.439 33.5996 229.75 33.5996V33.5896Z" fill="#7200D5"/>
<path d="M312.59 106.7H311.59V90.5195H80.2998V106.7H79.2998V89.5195H312.59V106.7Z" fill="#7200D5"/>
<path d="M198.53 76.9902H197.53V104.99H198.53V76.9902Z" fill="#7200D5"/>
<path d="M79.7002 107.87L76.5102 104.68C76.4633 104.634 76.4261 104.578 76.4008 104.517C76.3754 104.456 76.3623 104.391 76.3623 104.325C76.3623 104.259 76.3754 104.194 76.4008 104.133C76.4261 104.072 76.4633 104.016 76.5102 103.97C76.6054 103.878 76.7327 103.826 76.8652 103.826C76.9977 103.826 77.1251 103.878 77.2202 103.97L79.7202 106.48L82.2602 104.07C82.3067 104.023 82.362 103.986 82.4229 103.961C82.4838 103.935 82.5492 103.922 82.6152 103.922C82.6812 103.922 82.7466 103.935 82.8075 103.961C82.8684 103.986 82.9237 104.023 82.9702 104.07C83.0168 104.116 83.0538 104.17 83.079 104.23C83.1043 104.29 83.1173 104.355 83.1173 104.42C83.1173 104.485 83.1043 104.55 83.079 104.61C83.0538 104.67 83.0168 104.724 82.9702 104.77L79.7002 107.87Z" fill="#7200D5"/>
<path d="M197.99 106.501L194.8 103.311C194.753 103.264 194.716 103.209 194.691 103.148C194.665 103.087 194.652 103.022 194.652 102.956C194.652 102.89 194.665 102.824 194.691 102.763C194.716 102.703 194.753 102.647 194.8 102.601C194.845 102.553 194.899 102.515 194.96 102.489C195.02 102.463 195.085 102.449 195.15 102.449C195.216 102.449 195.281 102.463 195.341 102.489C195.401 102.515 195.455 102.553 195.5 102.601L198.01 105.101L200.55 102.701C200.596 102.65 200.652 102.608 200.715 102.58C200.778 102.552 200.845 102.536 200.914 102.535C200.983 102.534 201.051 102.547 201.115 102.574C201.178 102.6 201.235 102.639 201.283 102.689C201.331 102.739 201.367 102.798 201.391 102.862C201.415 102.927 201.425 102.996 201.421 103.064C201.417 103.133 201.399 103.2 201.368 103.261C201.337 103.323 201.293 103.377 201.24 103.421L197.99 106.501Z" fill="#7200D5"/>
<path d="M312.06 107.93L308.86 104.73C308.766 104.636 308.713 104.508 308.713 104.375C308.713 104.242 308.766 104.114 308.86 104.02C308.954 103.926 309.082 103.873 309.215 103.873C309.348 103.873 309.476 103.926 309.57 104.02L312.08 106.53L314.62 104.12C314.718 104.04 314.843 104.001 314.97 104.01C315.096 104.019 315.214 104.075 315.301 104.168C315.387 104.26 315.435 104.382 315.435 104.509C315.435 104.636 315.386 104.758 315.3 104.85L312.06 107.93Z" fill="#7200D5"/>
</g>
<defs>
<clipPath id="clip0_205_295">
<rect width="400" height="200" fill="white"/>
</clipPath>
</defs>
</svg>
