<svg width="174" height="179" viewBox="0 0 174 179" fill="none" xmlns="http://www.w3.org/2000/svg">
<g clip-path="url(#clip0_505_131)">
<rect y="4.32835" width="174" height="174" rx="25.9701" fill="#7200D6"/>
<rect x="0.5" y="0.5" width="173" height="173" rx="25.4701" fill="white" stroke="#D6D6D6"/>
<path d="M87.4432 140C119.72 140 145.886 132.538 145.886 123.333C145.886 114.128 119.72 106.666 87.4432 106.666C55.1659 106.666 29 114.128 29 123.333C29 132.538 55.1659 140 87.4432 140Z" fill="#7200D5"/>
<path d="M87.4434 134.513C110.746 134.513 129.636 129.508 129.636 123.333C129.636 117.158 110.746 112.152 87.4434 112.152C64.141 112.152 45.2506 117.158 45.2506 123.333C45.2506 129.508 64.141 134.513 87.4434 134.513Z" stroke="white" stroke-width="0.667922" stroke-miterlimit="10"/>
<path d="M87.4431 128.865C100.899 128.865 111.807 126.388 111.807 123.333C111.807 120.277 100.899 117.8 87.4431 117.8C73.9872 117.8 63.079 120.277 63.079 123.333C63.079 126.388 73.9872 128.865 87.4431 128.865Z" stroke="white" stroke-width="0.667922" stroke-miterlimit="10"/>
<path d="M105.494 56.0292C105.494 53.5629 104.987 51.1229 104.005 48.86C103.023 46.5971 101.587 44.5595 99.7854 42.8732C97.9836 41.1868 95.8545 39.8877 93.53 39.056C91.2054 38.2244 88.7347 37.8779 86.2707 38.0381C82.0093 38.3279 77.9876 40.1127 74.916 43.077C71.8443 46.0414 69.9204 49.9947 69.484 54.2385C69.0966 58.1208 69.9805 62.0239 72.003 65.3617C74.0255 68.6996 77.0774 71.2921 80.7007 72.75C80.9405 72.8502 81.145 73.0194 81.2883 73.2361C81.4316 73.4528 81.507 73.7071 81.5051 73.9667V84.3436C81.5051 84.6337 81.5625 84.9209 81.6738 85.1888C81.7852 85.4567 81.9484 85.7 82.1541 85.9047C82.3598 86.1095 82.604 86.2717 82.8726 86.382C83.1412 86.4923 83.4289 86.5485 83.7194 86.5475H90.9596C91.5428 86.5475 92.1021 86.3161 92.5145 85.9043C92.9269 85.4924 93.1585 84.9337 93.1585 84.3513V73.7601C93.1595 73.5766 93.2165 73.3977 93.3219 73.2473C93.4273 73.0969 93.5761 72.9821 93.7485 72.9184C97.1957 71.6336 100.168 69.3277 102.267 66.3093C104.366 63.291 105.492 59.7042 105.494 56.0292Z" fill="white" stroke="#1D1D1B" stroke-width="0.333961" stroke-miterlimit="10"/>
<path d="M88.2554 64.7523H86.5469L85.819 63.2678L85.4053 63.1529L83.9802 64.0406L82.5015 63.1912L82.6164 61.5383L82.31 61.2322L80.6397 61.2934L79.7816 59.8164L80.7087 58.4466C80.6623 58.3087 80.6239 58.1681 80.5937 58.0258L79.1151 57.2605V55.554L80.6014 54.827C80.6014 54.6893 80.6704 54.5515 80.7163 54.4061L79.8276 52.9904L80.678 51.5134L82.3329 51.6282L82.6394 51.3221L82.5781 49.6539L84.0568 48.7968L85.4283 49.7227C85.5664 49.6764 85.7071 49.6381 85.8497 49.608L86.6158 48.131H88.3091L89.0752 49.6156C89.2175 49.6467 89.3582 49.685 89.4966 49.7304L90.914 48.8427L92.3927 49.6921L92.2778 51.3451C92.3851 51.4446 92.4847 51.544 92.5843 51.6512L94.2545 51.59L95.1126 53.0669L94.1932 54.4367C94.2315 54.5745 94.2698 54.7122 94.3005 54.8576L95.7792 55.6228V57.3294L94.2928 58.0563C94.2617 58.1985 94.2233 58.339 94.1779 58.4773L95.0666 59.893L94.2162 61.3699L92.5613 61.2551C92.465 61.3629 92.3627 61.4651 92.2548 61.5612L92.3161 63.2295L90.8374 64.0866L89.466 63.1606C89.3278 63.2069 89.1871 63.2453 89.0446 63.2754L88.2554 64.7523Z" fill="#7200D5"/>
<path d="M92.3775 90.8862H82.0803C81.9532 90.8872 81.8272 90.863 81.7096 90.8149C81.592 90.7668 81.4852 90.6958 81.3954 90.6061C81.3055 90.5163 81.2345 90.4096 81.1863 90.2922C81.1382 90.1747 81.1139 90.0489 81.1149 89.922C81.1149 89.3863 81.5439 88.9578 82.2948 88.9578H92.5921C92.813 89.0027 93.0109 89.1241 93.1511 89.3004C93.2912 89.4768 93.3646 89.6969 93.3582 89.922C93.3583 90.0499 93.3328 90.1766 93.2833 90.2945C93.2339 90.4125 93.1614 90.5195 93.0701 90.6093C92.9788 90.699 92.8706 90.7697 92.7517 90.8173C92.6328 90.8648 92.5056 90.8882 92.3775 90.8862Z" fill="#7200D5"/>
<path d="M91.0745 92.6692H83.3822C82.849 92.6692 82.4168 93.1009 82.4168 93.6334V93.641C82.4168 94.1736 82.849 94.6053 83.3822 94.6053H91.0745C91.6076 94.6053 92.0399 94.1736 92.0399 93.641V93.6334C92.0399 93.1009 91.6076 92.6692 91.0745 92.6692Z" fill="#7200D5"/>
<path d="M90.1093 96.3806H84.3554C83.8222 96.3806 83.39 96.8123 83.39 97.3448V97.3524C83.39 97.885 83.8222 98.3167 84.3554 98.3167H90.1093C90.6425 98.3167 91.0747 97.885 91.0747 97.3524V97.3448C91.0747 96.8123 90.6425 96.3806 90.1093 96.3806Z" fill="#7200D5"/>
</g>
<defs>
<clipPath id="clip0_505_131">
<rect width="174" height="179" fill="white"/>
</clipPath>
</defs>
</svg>
