<svg width="400" height="200" viewBox="0 0 400 200" fill="none" xmlns="http://www.w3.org/2000/svg">
<g clip-path="url(#clip0_440_475)">
<rect x="113" y="14.3532" width="175" height="175" rx="26.1194" fill="#7200D6"/>
<rect x="113.5" y="10.5" width="174" height="174" rx="25.6194" fill="url(#paint0_linear_440_475)" stroke="#DCDCDC"/>
<path d="M178.457 107.262H145.363C143.357 107.262 141.731 108.888 141.731 110.894V143.988C141.731 145.994 143.357 147.62 145.363 147.62H178.457C180.463 147.62 182.089 145.994 182.089 143.988V110.894C182.089 108.888 180.463 107.262 178.457 107.262Z" fill="#03FF81"/>
<path d="M178.577 104.47H145.483C143.477 104.47 141.851 106.096 141.851 108.102V141.196C141.851 143.202 143.477 144.828 145.483 144.828H178.577C180.583 144.828 182.209 143.202 182.209 141.196V108.102C182.209 106.096 180.583 104.47 178.577 104.47Z" fill="#FCFCFC" stroke="#03FF81" stroke-width="0.31363" stroke-miterlimit="10"/>
<path d="M167.976 120.999L165.869 120.177L165.492 118.001L167.117 116.458C167.148 116.427 167.169 116.39 167.18 116.348C167.19 116.306 167.189 116.262 167.176 116.221C167.163 116.18 167.139 116.144 167.106 116.116C167.074 116.088 167.034 116.069 166.991 116.062C166.784 116.031 166.574 116.014 166.364 116.012C165.726 116.011 165.097 116.167 164.532 116.465C163.968 116.763 163.485 117.195 163.126 117.723C162.767 118.251 162.543 118.858 162.473 119.493C162.404 120.127 162.49 120.769 162.726 121.363L159.1 124.988L161.453 127.341L165.147 123.652C165.656 123.819 166.195 123.879 166.728 123.828C167.508 123.746 168.246 123.436 168.849 122.936C169.453 122.436 169.896 121.768 170.121 121.018C170.278 120.508 170.323 119.971 170.253 119.443C170.251 119.405 170.237 119.369 170.215 119.338C170.192 119.307 170.161 119.284 170.126 119.27C170.09 119.256 170.051 119.253 170.014 119.26C169.977 119.267 169.942 119.285 169.914 119.312L167.976 120.999Z" fill="#7200D5"/>
<path d="M162.077 125.192L161.239 124.354C160.817 123.932 160.134 123.932 159.713 124.354L152.456 131.61C152.035 132.031 152.035 132.714 152.456 133.136L153.295 133.974C153.716 134.395 154.399 134.395 154.821 133.974L162.077 126.718C162.498 126.296 162.498 125.613 162.077 125.192Z" fill="#7200D5"/>
<path d="M171.169 130.815L166.778 126.425C166.703 126.349 166.602 126.306 166.496 126.305H165.724C165.704 126.311 165.682 126.311 165.661 126.305L164.802 125.446C164.794 125.424 164.794 125.399 164.802 125.377V124.581C164.803 124.528 164.793 124.477 164.774 124.428C164.754 124.38 164.726 124.336 164.689 124.298L163.93 123.539C163.894 123.502 163.85 123.472 163.803 123.452C163.755 123.432 163.703 123.421 163.651 123.421C163.599 123.421 163.547 123.432 163.499 123.452C163.451 123.472 163.408 123.502 163.372 123.539L162.745 124.198C162.726 124.213 162.703 124.221 162.679 124.221C162.655 124.221 162.632 124.213 162.613 124.198L156.842 118.427C156.834 118.405 156.834 118.38 156.842 118.358V117.593C156.843 117.51 156.817 117.43 156.769 117.363C156.72 117.296 156.651 117.247 156.572 117.223L153.731 116.276V116.319V116.288L153.204 116.809L154.151 119.65C154.177 119.73 154.227 119.799 154.295 119.847C154.363 119.896 154.444 119.921 154.527 119.92H155.111C155.133 119.914 155.157 119.914 155.18 119.92L160.951 125.697C160.955 125.707 160.957 125.718 160.957 125.728C160.957 125.739 160.955 125.75 160.951 125.76C160.959 125.782 160.959 125.807 160.951 125.829L160.323 126.456C160.251 126.532 160.21 126.633 160.21 126.738C160.21 126.843 160.251 126.945 160.323 127.021L161.082 127.773C161.157 127.849 161.258 127.892 161.365 127.892H162.161C162.183 127.884 162.208 127.884 162.23 127.892L163.058 128.884C163.067 128.906 163.067 128.93 163.058 128.953V129.749C163.059 129.855 163.102 129.957 163.177 130.031L167.568 134.422C167.878 134.728 168.296 134.9 168.732 134.9C169.167 134.9 169.585 134.728 169.895 134.422L170.328 133.983L171.175 133.136C171.328 132.984 171.449 132.802 171.532 132.603C171.615 132.403 171.658 132.189 171.658 131.973C171.658 131.757 171.615 131.543 171.532 131.343C171.449 131.143 171.328 130.962 171.175 130.809L171.169 130.815ZM170.955 132.929L170.121 133.757L169.676 134.209C169.424 134.454 169.086 134.591 168.735 134.591C168.383 134.591 168.046 134.454 167.794 134.209L163.403 129.818C163.395 129.796 163.395 129.771 163.403 129.749V128.953C163.404 128.9 163.394 128.849 163.375 128.8C163.356 128.752 163.327 128.708 163.29 128.67L162.387 127.811C162.35 127.774 162.306 127.746 162.257 127.726C162.209 127.707 162.157 127.697 162.105 127.698H161.333C161.307 127.697 161.282 127.686 161.264 127.667L160.505 126.914C160.489 126.895 160.48 126.87 160.48 126.845C160.48 126.82 160.489 126.795 160.505 126.776L161.133 126.149C161.205 126.073 161.246 125.972 161.246 125.866C161.246 125.761 161.205 125.66 161.133 125.584L155.362 119.813C155.324 119.777 155.28 119.748 155.232 119.729C155.183 119.709 155.132 119.7 155.079 119.7H154.389C154.369 119.702 154.349 119.696 154.332 119.685C154.315 119.673 154.302 119.657 154.295 119.638L153.398 116.947L153.693 116.652L156.384 117.549C156.402 117.555 156.418 117.567 156.429 117.583C156.441 117.599 156.447 117.617 156.447 117.637V118.364C156.448 118.47 156.491 118.572 156.566 118.647L162.337 124.417C162.412 124.49 162.512 124.53 162.616 124.53C162.72 124.53 162.82 124.49 162.895 124.417L163.522 123.759C163.531 123.749 163.541 123.742 163.552 123.737C163.563 123.732 163.576 123.729 163.588 123.729C163.601 123.729 163.613 123.732 163.624 123.737C163.636 123.742 163.646 123.749 163.654 123.759L164.444 124.493C164.449 124.504 164.452 124.515 164.452 124.527C164.452 124.539 164.449 124.551 164.444 124.562V125.358C164.445 125.464 164.488 125.566 164.564 125.641L165.423 126.5C165.459 126.536 165.502 126.565 165.55 126.584C165.597 126.603 165.648 126.613 165.699 126.613H166.527C166.553 126.614 166.578 126.625 166.596 126.644L170.987 131.035C171.112 131.159 171.211 131.307 171.279 131.469C171.347 131.632 171.382 131.806 171.382 131.982C171.377 132.338 171.233 132.678 170.981 132.929H170.955Z" fill="#7200D6"/>
<path d="M180.829 114.519C185.336 114.519 188.989 110.865 188.989 106.358C188.989 101.851 185.336 98.1978 180.829 98.1978C176.322 98.1978 172.668 101.851 172.668 106.358C172.668 110.865 176.322 114.519 180.829 114.519Z" fill="#7200D5"/>
<path d="M180.829 113.761C185.336 113.761 188.989 110.107 188.989 105.6C188.989 101.093 185.336 97.4394 180.829 97.4394C176.322 97.4394 172.668 101.093 172.668 105.6C172.668 110.107 176.322 113.761 180.829 113.761Z" fill="#B3B5FF"/>
<path d="M179.769 108.911L176.099 105.775C176.036 105.721 175.997 105.644 175.99 105.561C175.984 105.478 176.011 105.396 176.065 105.333C176.119 105.27 176.196 105.23 176.279 105.224C176.362 105.218 176.444 105.244 176.507 105.298L179.731 108.071L185.125 102.52C185.184 102.467 185.261 102.438 185.34 102.439C185.419 102.44 185.495 102.472 185.552 102.526C185.609 102.581 185.644 102.655 185.648 102.734C185.653 102.813 185.627 102.891 185.577 102.952L179.769 108.911Z" fill="#7200D6"/>
<path d="M249.608 107.262H216.514C214.508 107.262 212.882 108.888 212.882 110.894V143.988C212.882 145.994 214.508 147.62 216.514 147.62H249.608C251.614 147.62 253.24 145.994 253.24 143.988V110.894C253.24 108.888 251.614 107.262 249.608 107.262Z" fill="black"/>
<path d="M249.727 104.47H216.633C214.627 104.47 213.001 106.096 213.001 108.102V141.196C213.001 143.202 214.627 144.828 216.633 144.828H249.727C251.733 144.828 253.359 143.202 253.359 141.196V108.102C253.359 106.096 251.733 104.47 249.727 104.47Z" fill="#FCFCFC" stroke="black" stroke-width="0.31363" stroke-miterlimit="10"/>
<path d="M251.979 114.519C256.486 114.519 260.139 110.865 260.139 106.358C260.139 101.851 256.486 98.1978 251.979 98.1978C247.472 98.1978 243.818 101.851 243.818 106.358C243.818 110.865 247.472 114.519 251.979 114.519Z" fill="#7200D5"/>
<path d="M251.979 113.761C256.486 113.761 260.139 110.107 260.139 105.6C260.139 101.093 256.486 97.4394 251.979 97.4394C247.472 97.4394 243.818 101.093 243.818 105.6C243.818 110.107 247.472 113.761 251.979 113.761Z" fill="#B3B5FF"/>
<path d="M250.919 108.911L247.25 105.775C247.186 105.721 247.147 105.644 247.141 105.561C247.134 105.478 247.161 105.396 247.215 105.333C247.269 105.27 247.346 105.23 247.429 105.224C247.512 105.218 247.594 105.244 247.657 105.298L250.882 108.071L256.276 102.52C256.335 102.467 256.411 102.438 256.491 102.439C256.57 102.44 256.646 102.472 256.703 102.526C256.76 102.581 256.794 102.655 256.799 102.734C256.803 102.813 256.778 102.891 256.728 102.952L250.919 108.911Z" fill="#7200D6"/>
<path d="M233.65 122.19H220.371V124.769H233.65V122.19Z" fill="black"/>
<path d="M248.56 122.19H235.281V124.769H248.56V122.19Z" fill="#00FFB1"/>
<path d="M233.65 127.522H220.371V130.1H233.65V127.522Z" fill="#7200D5"/>
<path d="M248.56 127.522H235.281V130.1H248.56V127.522Z" fill="#B3B5FF"/>
<path d="M235.193 100.268H234.873V90.2255H160.869V100.268H160.549V89.6048H235.193V100.268Z" fill="#7200D5"/>
<path d="M208.967 63.9814H186.129C181.733 63.9814 178.169 67.5452 178.169 71.9413V73.9611C178.169 78.3573 181.733 81.9211 186.129 81.9211H208.967C213.363 81.9211 216.927 78.3573 216.927 73.9611V71.9413C216.927 67.5452 213.363 63.9814 208.967 63.9814Z" fill="#7200D5"/>
<path d="M207.794 45.6965H187.998C184.267 45.6965 181.243 48.7211 181.243 52.4521V54.8608C181.243 58.5918 184.267 61.6164 187.998 61.6164H207.794C211.525 61.6164 214.55 58.5918 214.55 54.8608V52.4521C214.55 48.7211 211.525 45.6965 207.794 45.6965Z" fill="#FCFCFC" stroke="#7200D5" stroke-width="0.31363" stroke-miterlimit="10"/>
<path d="M193.236 54.2145C194.431 54.2145 195.4 53.2457 195.4 52.0505C195.4 50.8553 194.431 49.8864 193.236 49.8864C192.041 49.8864 191.072 50.8553 191.072 52.0505C191.072 53.2457 192.041 54.2145 193.236 54.2145Z" fill="#7200D5"/>
<path d="M203.516 54.2145C204.711 54.2145 205.68 53.2457 205.68 52.0505C205.68 50.8553 204.711 49.8864 203.516 49.8864C202.321 49.8864 201.352 50.8553 201.352 52.0505C201.352 53.2457 202.321 54.2145 203.516 54.2145Z" fill="#7200D5"/>
<path d="M177.861 51.6494H181.236V54.9049H177.861C177.429 54.9049 177.014 54.733 176.708 54.4272C176.402 54.1213 176.231 53.7065 176.231 53.274C176.232 52.8425 176.405 52.4293 176.71 52.1248C177.016 51.8203 177.43 51.6494 177.861 51.6494Z" fill="#7200D5"/>
<path d="M217.792 54.6912H214.418V51.4357H217.792C218.225 51.4357 218.64 51.6075 218.946 51.9134C219.252 52.2192 219.423 52.6341 219.423 53.0666C219.423 53.4991 219.252 53.914 218.946 54.2198C218.64 54.5257 218.225 54.6975 217.792 54.6975V54.6912Z" fill="#7200D5"/>
<path d="M198.21 81.9147H197.583V90.0691H198.21V81.9147Z" fill="#7200D5"/>
<path d="M160.951 101.284L158.95 99.2834C158.921 99.2543 158.897 99.2196 158.881 99.1813C158.865 99.1431 158.857 99.1021 158.857 99.0607C158.857 99.0193 158.865 98.9783 158.881 98.9401C158.897 98.9019 158.921 98.8672 158.95 98.8381C159.01 98.7802 159.09 98.7478 159.173 98.7478C159.256 98.7478 159.336 98.7802 159.395 98.8381L160.964 100.412L162.557 98.9008C162.586 98.8714 162.621 98.8481 162.659 98.8321C162.697 98.8162 162.738 98.808 162.779 98.808C162.821 98.808 162.862 98.8162 162.9 98.8321C162.938 98.8481 162.973 98.8714 163.002 98.9008C163.031 98.9294 163.055 98.9636 163.07 99.0013C163.086 99.039 163.094 99.0794 163.094 99.1203C163.094 99.1612 163.086 99.2017 163.07 99.2394C163.055 99.2771 163.031 99.3112 163.002 99.3399L160.951 101.284Z" fill="#7200D5"/>
<path d="M235.15 100.425L233.149 98.4245C233.119 98.3953 233.096 98.3606 233.08 98.3224C233.064 98.2842 233.056 98.2432 233.056 98.2018C233.056 98.1604 233.064 98.1194 233.08 98.0812C233.096 98.043 233.119 98.0083 233.149 97.9791C233.177 97.9491 233.211 97.9252 233.249 97.9089C233.286 97.8925 233.327 97.8841 233.368 97.8841C233.409 97.8841 233.45 97.8925 233.488 97.9089C233.526 97.9252 233.56 97.9491 233.588 97.9791L235.162 99.5473L236.755 98.0419C236.784 98.0098 236.819 97.984 236.859 97.9661C236.898 97.9483 236.941 97.9387 236.984 97.938C237.027 97.9373 237.07 97.9455 237.109 97.9622C237.149 97.9788 237.185 98.0034 237.215 98.0346C237.245 98.0657 237.268 98.1027 237.283 98.1432C237.298 98.1837 237.304 98.2268 237.302 98.2699C237.299 98.313 237.288 98.355 237.268 98.3935C237.249 98.432 237.222 98.466 237.188 98.4935L235.15 100.425Z" fill="#7200D5"/>
</g>
<defs>
<linearGradient id="paint0_linear_440_475" x1="90.1771" y1="-0.888882" x2="216.739" y2="107.61" gradientUnits="userSpaceOnUse">
<stop stop-color="#D8B4FE"/>
<stop offset="1" stop-color="white"/>
</linearGradient>
<clipPath id="clip0_440_475">
<rect width="400" height="200" fill="white"/>
</clipPath>
</defs>
</svg>
