<svg width="340" height="340" viewBox="0 0 340 340" fill="none" xmlns="http://www.w3.org/2000/svg">
<g clip-path="url(#clip0_4426_22552)">
<path fill-rule="evenodd" clip-rule="evenodd" d="M109.45 12.5706C112.662 12.5706 115.742 13.8464 118.013 16.1175C120.284 18.3885 121.56 21.4688 121.56 24.6805V36.7905H157.89V24.6805C157.89 21.4688 159.166 18.3885 161.437 16.1175C163.708 13.8464 166.788 12.5706 170 12.5706C173.212 12.5706 176.292 13.8464 178.563 16.1175C180.834 18.3885 182.11 21.4688 182.11 24.6805V36.7905H218.44V24.6805C218.44 21.4688 219.716 18.3885 221.987 16.1175C224.258 13.8464 227.338 12.5706 230.55 12.5706C233.762 12.5706 236.842 13.8464 239.113 16.1175C241.384 18.3885 242.66 21.4688 242.66 24.6805V36.7905H254.77C267.617 36.7905 279.938 41.8939 289.022 50.9782C298.106 60.0624 303.21 72.3832 303.21 85.2303V97.3402H315.32C318.531 97.3402 321.612 98.6161 323.883 100.887C326.154 103.158 327.43 106.238 327.43 109.45C327.43 112.662 326.154 115.742 323.883 118.013C321.612 120.284 318.531 121.56 315.32 121.56H303.21V157.89H315.32C318.531 157.89 321.612 159.166 323.883 161.437C326.154 163.708 327.43 166.788 327.43 170C327.43 173.212 326.154 176.292 323.883 178.563C321.612 180.834 318.531 182.11 315.32 182.11H303.21V218.44H315.32C318.531 218.44 321.612 219.716 323.883 221.987C326.154 224.258 327.43 227.338 327.43 230.55C327.43 233.761 326.154 236.842 323.883 239.113C321.612 241.384 318.531 242.66 315.32 242.66H303.21V254.77C303.21 267.617 298.106 279.937 289.022 289.022C279.938 298.106 267.617 303.209 254.77 303.209H242.66V315.319C242.66 318.531 241.384 321.611 239.113 323.882C236.842 326.153 233.762 327.429 230.55 327.429C227.338 327.429 224.258 326.153 221.987 323.882C219.716 321.611 218.44 318.531 218.44 315.319V303.209H182.11V315.319C182.11 318.531 180.834 321.611 178.563 323.882C176.292 326.153 173.212 327.429 170 327.429C166.788 327.429 163.708 326.153 161.437 323.882C159.166 321.611 157.89 318.531 157.89 315.319V303.209H121.56V315.319C121.56 318.531 120.284 321.611 118.013 323.882C115.742 326.153 112.662 327.429 109.45 327.429C106.239 327.429 103.158 326.153 100.887 323.882C98.6163 321.611 97.3405 318.531 97.3405 315.319V303.209H85.2305C72.3835 303.209 60.0626 298.106 50.9784 289.022C41.8942 279.937 36.7907 267.617 36.7907 254.77V242.66H24.6808C21.469 242.66 18.3888 241.384 16.1177 239.113C13.8467 236.842 12.5708 233.761 12.5708 230.55C12.5708 227.338 13.8467 224.258 16.1177 221.987C18.3888 219.716 21.469 218.44 24.6808 218.44H36.7907V182.11H24.6808C21.469 182.11 18.3888 180.834 16.1177 178.563C13.8467 176.292 12.5708 173.212 12.5708 170C12.5708 166.788 13.8467 163.708 16.1177 161.437C18.3888 159.166 21.469 157.89 24.6808 157.89H36.7907V121.56H24.6808C21.469 121.56 18.3888 120.284 16.1177 118.013C13.8467 115.742 12.5708 112.662 12.5708 109.45C12.5708 106.238 13.8467 103.158 16.1177 100.887C18.3888 98.6161 21.469 97.3402 24.6808 97.3402H36.7907V85.2303C36.7907 72.3832 41.8942 60.0624 50.9784 50.9782C60.0626 41.8939 72.3835 36.7905 85.2305 36.7905H97.3405V24.6805C97.3405 21.4688 98.6163 18.3885 100.887 16.1175C103.158 13.8464 106.239 12.5706 109.45 12.5706Z" fill="black"/>
<path fill-rule="evenodd" clip-rule="evenodd" d="M109.45 12.5706C112.662 12.5706 115.742 13.8464 118.013 16.1175C120.284 18.3885 121.56 21.4688 121.56 24.6805V36.7905H157.89V24.6805C157.89 21.4688 159.166 18.3885 161.437 16.1175C163.708 13.8464 166.788 12.5706 170 12.5706C173.212 12.5706 176.292 13.8464 178.563 16.1175C180.834 18.3885 182.11 21.4688 182.11 24.6805V36.7905H218.44V24.6805C218.44 21.4688 219.716 18.3885 221.987 16.1175C224.258 13.8464 227.338 12.5706 230.55 12.5706C233.762 12.5706 236.842 13.8464 239.113 16.1175C241.384 18.3885 242.66 21.4688 242.66 24.6805V36.7905H254.77C267.617 36.7905 279.938 41.8939 289.022 50.9782C298.106 60.0624 303.21 72.3832 303.21 85.2303V97.3402H315.32C318.531 97.3402 321.612 98.6161 323.883 100.887C326.154 103.158 327.43 106.238 327.43 109.45C327.43 112.662 326.154 115.742 323.883 118.013C321.612 120.284 318.531 121.56 315.32 121.56H303.21V157.89H315.32C318.531 157.89 321.612 159.166 323.883 161.437C326.154 163.708 327.43 166.788 327.43 170C327.43 173.212 326.154 176.292 323.883 178.563C321.612 180.834 318.531 182.11 315.32 182.11H303.21V218.44H315.32C318.531 218.44 321.612 219.716 323.883 221.987C326.154 224.258 327.43 227.338 327.43 230.55C327.43 233.761 326.154 236.842 323.883 239.113C321.612 241.384 318.531 242.66 315.32 242.66H303.21V254.77C303.21 267.617 298.106 279.937 289.022 289.022C279.938 298.106 267.617 303.209 254.77 303.209H242.66V315.319C242.66 318.531 241.384 321.611 239.113 323.882C236.842 326.153 233.762 327.429 230.55 327.429C227.338 327.429 224.258 326.153 221.987 323.882C219.716 321.611 218.44 318.531 218.44 315.319V303.209H182.11V315.319C182.11 318.531 180.834 321.611 178.563 323.882C176.292 326.153 173.212 327.429 170 327.429C166.788 327.429 163.708 326.153 161.437 323.882C159.166 321.611 157.89 318.531 157.89 315.319V303.209H121.56V315.319C121.56 318.531 120.284 321.611 118.013 323.882C115.742 326.153 112.662 327.429 109.45 327.429C106.239 327.429 103.158 326.153 100.887 323.882C98.6163 321.611 97.3405 318.531 97.3405 315.319V303.209H85.2305C72.3835 303.209 60.0626 298.106 50.9784 289.022C41.8942 279.937 36.7907 267.617 36.7907 254.77V242.66H24.6808C21.469 242.66 18.3888 241.384 16.1177 239.113C13.8467 236.842 12.5708 233.761 12.5708 230.55C12.5708 227.338 13.8467 224.258 16.1177 221.987C18.3888 219.716 21.469 218.44 24.6808 218.44H36.7907V182.11H24.6808C21.469 182.11 18.3888 180.834 16.1177 178.563C13.8467 176.292 12.5708 173.212 12.5708 170C12.5708 166.788 13.8467 163.708 16.1177 161.437C18.3888 159.166 21.469 157.89 24.6808 157.89H36.7907V121.56H24.6808C21.469 121.56 18.3888 120.284 16.1177 118.013C13.8467 115.742 12.5708 112.662 12.5708 109.45C12.5708 106.238 13.8467 103.158 16.1177 100.887C18.3888 98.6161 21.469 97.3402 24.6808 97.3402H36.7907V85.2303C36.7907 72.3832 41.8942 60.0624 50.9784 50.9782C60.0626 41.8939 72.3835 36.7905 85.2305 36.7905H97.3405V24.6805C97.3405 21.4688 98.6163 18.3885 100.887 16.1175C103.158 13.8464 106.239 12.5706 109.45 12.5706Z" fill="url(#paint0_linear_4426_22552)"/>
<g style="mix-blend-mode:overlay">
<circle cx="170" cy="170" r="177.613" fill="url(#paint1_radial_4426_22552)" fill-opacity="0.4"/>
</g>
<g filter="url(#filter0_d_4426_22552)">
<path fill-rule="evenodd" clip-rule="evenodd" d="M210.138 149.887C211.461 149.887 212.749 150.318 213.805 151.116C214.862 151.913 215.63 153.032 215.994 154.305L222.597 177.42C224.019 182.398 226.686 186.932 230.347 190.593C234.007 194.253 238.541 196.921 243.519 198.342L266.634 204.945C267.906 205.31 269.025 206.078 269.821 207.135C270.617 208.191 271.048 209.478 271.048 210.801C271.048 212.124 270.617 213.411 269.821 214.468C269.025 215.524 267.906 216.293 266.634 216.657L243.519 223.26C238.541 224.682 234.007 227.349 230.347 231.01C226.686 234.671 224.019 239.204 222.597 244.183L215.994 267.298C215.629 268.569 214.861 269.688 213.804 270.484C212.748 271.281 211.461 271.712 210.138 271.712C208.815 271.712 207.528 271.281 206.471 270.484C205.415 269.688 204.646 268.569 204.282 267.298L197.679 244.183C196.257 239.204 193.59 234.671 189.929 231.01C186.268 227.349 181.735 224.682 176.757 223.26L153.641 216.657C152.37 216.293 151.251 215.524 150.455 214.468C149.658 213.411 149.228 212.124 149.228 210.801C149.228 209.478 149.658 208.191 150.455 207.135C151.251 206.078 152.37 205.31 153.641 204.945L176.757 198.342C181.735 196.921 186.268 194.253 189.929 190.593C193.59 186.932 196.257 182.398 197.679 177.42L204.282 154.305C204.645 153.032 205.414 151.913 206.47 151.116C207.527 150.318 208.814 149.887 210.138 149.887Z" fill="white"/>
</g>
<g filter="url(#filter1_d_4426_22552)">
<path d="M115.311 111.418V94.4301C120.851 95.7861 126.266 98.3687 130.697 102.432L130.716 102.406C131.047 102.67 131.448 102.852 131.905 102.852C132.507 102.852 133.023 102.561 133.379 102.133L133.404 102.138L140.566 92.0424L140.549 92.034C140.843 91.6946 141.038 91.2644 141.038 90.7805C141.038 90.2092 140.781 89.7084 140.388 89.3539C133.745 83.2191 125.265 79.5359 115.311 78.4286V68.6727C115.311 67.6024 114.442 66.7354 113.372 66.7354H105.679C104.609 66.7354 103.742 67.6024 103.742 68.6727V78.1816C87.1237 79.9039 77.2772 90.4915 77.2772 102.924C77.2772 119.665 91.064 124.465 103.742 127.544V146.622C95.6009 145.163 88.9099 140.944 84.358 136.221C84.3266 136.187 84.293 136.155 84.2571 136.123L84.1698 136.038L84.1563 136.056C83.8196 135.767 83.3921 135.604 82.9482 135.598C82.6025 135.601 82.2641 135.697 81.9688 135.877C81.6736 136.057 81.4326 136.313 81.2712 136.619L81.2477 136.616L74.3165 146.906L74.3249 146.923C74.013 147.267 73.8384 147.715 73.8342 148.18C73.8342 148.796 74.14 149.321 74.587 149.675L74.5685 149.702C81.3385 156.472 90.817 161.395 103.742 162.504V171.645C103.742 172.715 104.609 173.582 105.679 173.582H113.372C114.442 173.582 115.309 172.714 115.309 171.645L115.311 162.502C133.406 160.654 142.392 150.072 142.392 136.406C142.392 119.544 128.113 114.617 115.311 111.418ZM103.74 108.585C98.6943 106.987 95.2463 105.139 95.2463 101.568C95.2463 97.3841 98.3246 94.4301 103.74 93.6908V108.585ZM115.311 146.869V130.375C120.728 132.097 124.544 134.07 124.544 138.13C124.544 142.07 121.588 145.637 115.311 146.869Z" fill="white"/>
</g>
</g>
<defs>
<filter id="filter0_d_4426_22552" x="141.154" y="145.85" width="137.967" height="137.971" filterUnits="userSpaceOnUse" color-interpolation-filters="sRGB">
<feFlood flood-opacity="0" result="BackgroundImageFix"/>
<feColorMatrix in="SourceAlpha" type="matrix" values="0 0 0 0 0 0 0 0 0 0 0 0 0 0 0 0 0 0 127 0" result="hardAlpha"/>
<feOffset dy="4.03665"/>
<feGaussianBlur stdDeviation="4.03665"/>
<feComposite in2="hardAlpha" operator="out"/>
<feColorMatrix type="matrix" values="0 0 0 0 0 0 0 0 0 0 0 0 0 0 0 0 0 0 0.1 0"/>
<feBlend mode="normal" in2="BackgroundImageFix" result="effect1_dropShadow_4426_22552"/>
<feBlend mode="normal" in="SourceGraphic" in2="effect1_dropShadow_4426_22552" result="shape"/>
</filter>
<filter id="filter1_d_4426_22552" x="65.7609" y="62.6987" width="84.7047" height="122.994" filterUnits="userSpaceOnUse" color-interpolation-filters="sRGB">
<feFlood flood-opacity="0" result="BackgroundImageFix"/>
<feColorMatrix in="SourceAlpha" type="matrix" values="0 0 0 0 0 0 0 0 0 0 0 0 0 0 0 0 0 0 127 0" result="hardAlpha"/>
<feOffset dy="4.03665"/>
<feGaussianBlur stdDeviation="4.03665"/>
<feComposite in2="hardAlpha" operator="out"/>
<feColorMatrix type="matrix" values="0 0 0 0 0 0 0 0 0 0 0 0 0 0 0 0 0 0 0.1 0"/>
<feBlend mode="normal" in2="BackgroundImageFix" result="effect1_dropShadow_4426_22552"/>
<feBlend mode="normal" in="SourceGraphic" in2="effect1_dropShadow_4426_22552" result="shape"/>
</filter>
<linearGradient id="paint0_linear_4426_22552" x1="170" y1="12.5706" x2="170" y2="327.429" gradientUnits="userSpaceOnUse">
<stop stop-color="#30CFA7"/>
<stop offset="1" stop-color="#00998C"/>
</linearGradient>
<radialGradient id="paint1_radial_4426_22552" cx="0" cy="0" r="1" gradientUnits="userSpaceOnUse" gradientTransform="translate(170 170) rotate(90) scale(177.613)">
<stop offset="0.304255" stop-color="white" stop-opacity="0.8"/>
<stop offset="1" stop-color="white" stop-opacity="0"/>
</radialGradient>
<clipPath id="clip0_4426_22552">
<rect width="339.079" height="339.079" fill="white" transform="translate(0.460938 0.460693)"/>
</clipPath>
</defs>
</svg>
