<svg width="400" height="200" viewBox="0 0 400 200" fill="none" xmlns="http://www.w3.org/2000/svg">
<rect width="400" height="200" fill="white"/>
<path d="M265.971 85.0988C266.184 87.1856 266.302 89.3003 266.322 91.4386L265.693 91.4444C265.695 91.6551 265.696 91.8659 265.696 92.077C265.696 92.2882 265.695 92.499 265.693 92.7097L266.322 92.7155C266.302 94.8538 266.184 96.9685 265.971 99.0553L265.345 98.9914C265.302 99.4108 265.256 99.8291 265.205 100.246L265.83 100.322C265.574 102.441 265.22 104.53 264.773 106.584L264.158 106.45C264.069 106.861 263.976 107.271 263.879 107.679L264.491 107.824C263.999 109.897 263.412 111.933 262.735 113.928L262.14 113.726C262.005 114.123 261.866 114.519 261.724 114.913L262.316 115.126C261.595 117.128 260.782 119.085 259.883 120.994L259.314 120.726C259.135 121.106 258.952 121.484 258.767 121.86L259.331 122.139C258.39 124.043 257.362 125.897 256.253 127.695L255.718 127.365C255.497 127.723 255.274 128.078 255.047 128.431L255.576 128.771C254.429 130.556 253.201 132.283 251.896 133.948L251.401 133.56C251.142 133.891 250.88 134.219 250.615 134.544L251.103 134.941C249.765 136.585 248.352 138.165 246.869 139.676L246.42 139.236C246.126 139.535 245.829 139.832 245.53 140.126L245.971 140.575C244.459 142.058 242.879 143.471 241.236 144.809L240.838 144.321C240.513 144.586 240.185 144.848 239.855 145.107L240.243 145.602C238.578 146.906 236.85 148.135 235.065 149.282L234.725 148.753C234.372 148.98 234.017 149.203 233.659 149.424L233.99 149.959C232.191 151.068 230.337 152.096 228.433 153.037L228.154 152.473C227.778 152.658 227.4 152.841 227.02 153.02L227.289 153.589C225.38 154.488 223.422 155.301 221.421 156.022L221.207 155.43C220.813 155.572 220.418 155.711 220.02 155.846L220.222 156.442C218.228 157.118 216.191 157.705 214.118 158.197L213.973 157.585C213.565 157.682 213.156 157.775 212.745 157.864L212.878 158.479C210.824 158.926 208.735 159.28 206.616 159.536L206.541 158.911C206.124 158.962 205.705 159.008 205.286 159.051L205.35 159.677C203.263 159.89 201.148 160.008 199.01 160.028L199.004 159.399C198.793 159.401 198.583 159.402 198.371 159.402C198.16 159.402 197.949 159.401 197.739 159.399L197.733 160.028C195.595 160.008 193.48 159.89 191.393 159.677L191.457 159.051C191.038 159.008 190.619 158.962 190.202 158.911L190.127 159.536C188.008 159.28 185.919 158.926 183.864 158.479L183.998 157.864C183.587 157.775 183.178 157.682 182.77 157.585L182.625 158.197C180.551 157.705 178.515 157.118 176.52 156.442L176.723 155.846C176.325 155.711 175.93 155.572 175.536 155.43L175.322 156.022C173.321 155.301 171.363 154.488 169.454 153.589L169.722 153.02C169.342 152.841 168.964 152.658 168.588 152.473L168.31 153.037C166.405 152.096 164.552 151.068 162.753 149.959L163.084 149.424C162.726 149.203 162.371 148.98 162.018 148.753L161.677 149.282C159.893 148.135 158.165 146.906 156.5 145.602L156.888 145.107C156.558 144.848 156.23 144.586 155.904 144.321L155.507 144.809C153.863 143.471 152.283 142.058 150.772 140.575L151.213 140.126C150.914 139.832 150.617 139.535 150.323 139.236L149.874 139.676C148.391 138.165 146.977 136.585 145.64 134.941L146.128 134.544C145.863 134.219 145.601 133.891 145.342 133.56L144.847 133.948C143.542 132.283 142.314 130.556 141.167 128.771L141.696 128.431C141.469 128.078 141.245 127.723 141.025 127.365L140.489 127.695C139.38 125.897 138.353 124.043 137.412 122.139L137.976 121.86C137.79 121.484 137.608 121.106 137.429 120.726L136.86 120.994C135.961 119.085 135.148 117.128 134.427 115.126L135.019 114.913C134.877 114.519 134.738 114.123 134.603 113.726L134.007 113.928C133.33 111.933 132.744 109.897 132.252 107.824L132.864 107.679C132.767 107.271 132.674 106.861 132.585 106.45L131.97 106.584C131.523 104.53 131.169 102.441 130.913 100.322L131.538 100.246C131.487 99.8291 131.441 99.4109 131.398 98.9914L130.772 99.0553C130.559 96.9685 130.441 94.8538 130.421 92.7155L131.05 92.7097C131.048 92.499 131.047 92.2882 131.047 92.077C131.047 91.8659 131.048 91.6551 131.05 91.4444L130.421 91.4386C130.441 89.3003 130.559 87.1856 130.772 85.0988L131.398 85.1627C131.441 84.7433 131.487 84.325 131.538 83.9078L130.913 83.8323C131.169 81.7133 131.523 79.6243 131.97 77.57L132.585 77.7037C132.674 77.2929 132.767 76.8835 132.864 76.4755L132.252 76.3302C132.744 74.2571 133.33 72.2208 134.007 70.226L134.603 70.4282C134.738 70.0309 134.877 69.6352 135.019 69.2412L134.427 69.0278C135.148 67.0265 135.961 65.0689 136.86 63.1599L137.429 63.428C137.608 63.048 137.79 62.6701 137.976 62.294L137.412 62.0153C138.353 60.111 139.38 58.2571 140.489 56.4588L141.025 56.7891C141.245 56.4315 141.469 56.0762 141.696 55.7232L141.167 55.383C142.314 53.5983 143.542 51.8708 144.847 50.2057L145.342 50.5937C145.601 50.2633 145.863 49.9354 146.128 49.6099L145.64 49.2128C146.977 47.5689 148.391 45.9889 149.874 44.4778L150.323 44.9186C150.617 44.619 150.914 44.3222 151.213 44.0282L150.772 43.5792C152.283 42.096 153.863 40.6828 155.507 39.3449L155.904 39.8329C156.23 39.5681 156.558 39.3062 156.888 39.0474L156.5 38.5521C158.165 37.2476 159.893 36.0193 161.677 34.8721L162.018 35.4014C162.371 35.1745 162.726 34.9507 163.084 34.7303L162.753 34.1947C164.552 33.0857 166.405 32.0582 168.31 31.1173L168.588 31.6814C168.964 31.4956 169.342 31.3133 169.722 31.1344L169.454 30.5651C171.363 29.6661 173.321 28.8534 175.322 28.1319L175.536 28.7238C175.93 28.5817 176.325 28.4433 176.723 28.3084L176.52 27.7126C178.515 27.0356 180.551 26.4487 182.625 25.9569L182.77 26.5691C183.178 26.4723 183.587 26.3792 183.998 26.2898L183.864 25.675C185.919 25.2283 188.008 24.8744 190.127 24.6182L190.202 25.2428C190.619 25.1924 191.038 25.1457 191.457 25.1029L191.393 24.477C193.48 24.2641 195.595 24.1457 197.733 24.126L197.739 24.7552C197.949 24.7532 198.16 24.7522 198.371 24.7522C198.583 24.7522 198.793 24.7532 199.004 24.7552L199.01 24.126C201.148 24.1457 203.263 24.2641 205.35 24.477L205.286 25.1029C205.705 25.1457 206.124 25.1924 206.541 25.2428L206.616 24.6182C208.735 24.8744 210.824 25.2283 212.878 25.675L212.745 26.2898C213.156 26.3792 213.565 26.4723 213.973 26.5691L214.118 25.9569C216.191 26.4487 218.228 27.0356 220.222 27.7126L220.02 28.3084C220.418 28.4433 220.813 28.5817 221.207 28.7238L221.421 28.1319C223.422 28.8533 225.38 29.6661 227.289 30.5651L227.02 31.1343C227.4 31.3133 227.778 31.4956 228.154 31.6814L228.433 31.1173C230.337 32.0582 232.191 33.0857 233.99 34.1947L233.659 34.7303C234.017 34.9507 234.372 35.1744 234.725 35.4014L235.065 34.8721C236.85 36.0192 238.578 37.2476 240.243 38.552L239.855 39.0474C240.185 39.3062 240.513 39.5681 240.838 39.8329L241.236 39.3449C242.879 40.6828 244.459 42.0959 245.971 43.5792L245.53 44.0282C245.829 44.3222 246.126 44.619 246.42 44.9185L246.869 44.4778C248.352 45.9889 249.765 47.5689 251.103 49.2128L250.615 49.6099C250.88 49.9354 251.142 50.2633 251.401 50.5937L251.896 50.2057C253.201 51.8708 254.429 53.5983 255.576 55.383L255.047 55.7232C255.274 56.0762 255.497 56.4315 255.718 56.7891L256.253 56.4588C257.362 58.2571 258.39 60.111 259.331 62.0153L258.767 62.294C258.952 62.67 259.135 63.048 259.314 63.428L259.883 63.1599C260.782 65.0689 261.595 67.0265 262.316 69.0278L261.724 69.2412C261.866 69.6352 262.005 70.0309 262.14 70.4282L262.735 70.226C263.412 72.2208 263.999 74.2571 264.491 76.3302L263.879 76.4755C263.976 76.8835 264.069 77.2929 264.158 77.7037L264.773 77.57C265.22 79.6243 265.574 81.7133 265.83 83.8323L265.205 83.9078C265.256 84.325 265.302 84.7433 265.345 85.1627L265.971 85.0988Z" stroke="black" stroke-width="1.2584" stroke-linejoin="round" stroke-dasharray="1.26 6.29"/>
<path d="M188.224 13L207.62 13C210.05 13 212.02 14.9699 212.02 17.3998L212.02 26.3596C212.02 28.7896 210.05 30.7595 207.62 30.7595L188.224 30.7595C185.794 30.7595 183.825 28.7896 183.825 26.3596L183.825 17.3998C183.825 14.9699 185.794 13 188.224 13Z" fill="white" stroke="black" stroke-width="0.915199" stroke-miterlimit="10"/>
<path d="M202.595 23.1241C201.731 23.1241 201.03 22.4235 201.03 21.5591C201.03 20.6948 201.731 19.9941 202.595 19.9941C203.459 19.9941 204.16 20.6948 204.16 21.5591C204.16 22.4235 203.459 23.1241 202.595 23.1241Z" fill="black"/>
<path d="M192.228 22.921C191.364 22.921 190.663 22.2203 190.663 21.356C190.663 20.4917 191.364 19.791 192.228 19.791C193.092 19.791 193.793 20.4917 193.793 21.356C193.793 22.2203 193.092 22.921 192.228 22.921Z" fill="black"/>
<path d="M215.781 19.9805L212.209 19.9805L212.209 22.7124L215.781 22.7124C216.145 22.7124 216.494 22.5678 216.751 22.3103C217.009 22.0529 217.153 21.7037 217.153 21.3396C217.153 20.9755 217.009 20.6263 216.751 20.3689C216.494 20.1114 216.145 19.9668 215.781 19.9668L215.781 19.9805Z" fill="black"/>
<path d="M180.251 22.6172L183.822 22.6172L183.822 19.8853L180.251 19.8853C179.887 19.8853 179.537 20.0299 179.28 20.2874C179.023 20.5448 178.878 20.894 178.878 21.2581C178.882 21.6198 179.028 21.9655 179.285 22.22C179.542 22.4745 179.889 22.6172 180.251 22.6172Z" fill="black"/>
<path d="M212.589 34.7363L182.504 34.7363C181.472 34.7363 180.483 35.1461 179.754 35.8756C179.024 36.605 178.614 37.5943 178.614 38.6259C178.614 41.8421 179.892 44.9264 182.166 47.2006C184.44 49.4747 187.525 50.7523 190.741 50.7523L206.924 50.7523C208.348 50.7523 209.759 50.4715 211.074 49.926C212.39 49.3804 213.585 48.5808 214.592 47.5729C215.598 46.565 216.396 45.3685 216.94 44.052C217.483 42.7355 217.762 41.3247 217.76 39.9003C217.758 38.5301 217.212 37.2167 216.243 36.2484C215.273 35.2802 213.959 34.7363 212.589 34.7363Z" fill="black"/>
<path d="M119.61 77.0059L139.005 77.0059C141.435 77.0059 143.405 78.9757 143.405 81.4057L143.405 90.3655C143.405 92.7954 141.435 94.7653 139.005 94.7653L119.61 94.7653C117.18 94.7653 115.21 92.7954 115.21 90.3655L115.21 81.4057C115.21 78.9757 117.18 77.0059 119.61 77.0059Z" fill="white" stroke="#00FFB1" stroke-width="0.915199" stroke-miterlimit="10"/>
<path d="M133.981 87.13C133.117 87.13 132.416 86.4293 132.416 85.565C132.416 84.7007 133.117 84 133.981 84C134.845 84 135.546 84.7007 135.546 85.565C135.546 86.4293 134.845 87.13 133.981 87.13Z" fill="#00FFB1"/>
<path d="M123.614 86.9269C122.749 86.9269 122.049 86.2262 122.049 85.3619C122.049 84.4975 122.749 83.7969 123.614 83.7969C124.478 83.7969 125.179 84.4975 125.179 85.3619C125.179 86.2262 124.478 86.9269 123.614 86.9269Z" fill="#00FFB1"/>
<path d="M147.166 83.9864L143.595 83.9864L143.595 86.7183L147.166 86.7183C147.53 86.7183 147.88 86.5736 148.137 86.3162C148.394 86.0587 148.539 85.7095 148.539 85.3455C148.539 84.9814 148.394 84.6322 148.137 84.3747C147.88 84.1173 147.53 83.9727 147.166 83.9727L147.166 83.9864Z" fill="#00FFB1"/>
<path d="M111.636 86.623L115.208 86.623L115.208 83.8912L111.636 83.8912C111.272 83.8912 110.923 84.0358 110.666 84.2933C110.408 84.5507 110.264 84.8999 110.264 85.264C110.267 85.6257 110.414 85.9713 110.671 86.2258C110.928 86.4803 111.275 86.6231 111.636 86.623Z" fill="#00FFB1"/>
<path d="M143.975 98.7422L113.89 98.7422C112.858 98.7422 111.869 99.152 111.139 99.8814C110.41 100.611 110 101.6 110 102.632C110 105.848 111.278 108.932 113.552 111.206C115.826 113.481 118.91 114.758 122.127 114.758L138.31 114.758C139.734 114.758 141.144 114.477 142.46 113.932C143.776 113.386 144.971 112.587 145.977 111.579C146.984 110.571 147.782 109.374 148.325 108.058C148.869 106.741 149.148 105.331 149.145 103.906C149.144 102.536 148.598 101.223 147.629 100.254C146.659 99.286 145.345 98.7422 143.975 98.7422Z" fill="#00FFB1"/>
<path d="M187.766 147L207.162 147C209.592 147 211.562 148.97 211.562 151.4L211.562 160.36C211.562 162.79 209.592 164.759 207.162 164.759L187.766 164.759C185.336 164.759 183.367 162.79 183.367 160.36L183.367 151.4C183.367 148.97 185.336 147 187.766 147Z" fill="white" stroke="#03FF0F" stroke-width="0.915199" stroke-miterlimit="10"/>
<path d="M202.137 157.124C201.273 157.124 200.572 156.423 200.572 155.559C200.572 154.695 201.273 153.994 202.137 153.994C203.001 153.994 203.702 154.695 203.702 155.559C203.702 156.423 203.001 157.124 202.137 157.124Z" fill="#03FF81"/>
<path d="M191.77 156.921C190.906 156.921 190.205 156.22 190.205 155.356C190.205 154.492 190.906 153.791 191.77 153.791C192.634 153.791 193.335 154.492 193.335 155.356C193.335 156.22 192.634 156.921 191.77 156.921Z" fill="#03FF81"/>
<path d="M215.323 153.981L211.751 153.981L211.751 156.712L215.323 156.712C215.687 156.712 216.036 156.568 216.293 156.31C216.551 156.053 216.695 155.704 216.695 155.34C216.695 154.976 216.551 154.626 216.293 154.369C216.036 154.111 215.687 153.967 215.323 153.967L215.323 153.981Z" fill="#03FF81"/>
<path d="M179.793 156.617L183.364 156.617L183.364 153.885L179.793 153.885C179.429 153.885 179.079 154.03 178.822 154.287C178.565 154.545 178.42 154.894 178.42 155.258C178.424 155.62 178.57 155.965 178.827 156.22C179.084 156.474 179.431 156.617 179.793 156.617Z" fill="#03FF81"/>
<path d="M212.131 168.736L182.046 168.736C181.014 168.736 180.025 169.146 179.296 169.876C178.566 170.605 178.156 171.594 178.156 172.626C178.156 175.842 179.434 178.926 181.708 181.201C183.982 183.475 187.067 184.752 190.283 184.752L206.466 184.752C207.89 184.752 209.301 184.472 210.616 183.926C211.932 183.38 213.127 182.581 214.134 181.573C215.14 180.565 215.938 179.369 216.482 178.052C217.025 176.735 217.304 175.325 217.302 173.9C217.3 172.53 216.754 171.217 215.785 170.248C214.815 169.28 213.501 168.736 212.131 168.736Z" fill="#03FF81"/>
<path d="M255.61 77.0059L275.005 77.0059C277.435 77.0059 279.405 78.9757 279.405 81.4057L279.405 90.3655C279.405 92.7954 277.435 94.7653 275.005 94.7653L255.61 94.7653C253.18 94.7653 251.21 92.7954 251.21 90.3655L251.21 81.4057C251.21 78.9757 253.18 77.0059 255.61 77.0059Z" fill="white" stroke="#7200D6" stroke-width="0.915199" stroke-miterlimit="10"/>
<path d="M269.981 87.13C269.117 87.13 268.416 86.4293 268.416 85.565C268.416 84.7007 269.117 84 269.981 84C270.845 84 271.546 84.7007 271.546 85.565C271.546 86.4293 270.845 87.13 269.981 87.13Z" fill="#7200D6"/>
<path d="M259.614 86.9269C258.749 86.9269 258.049 86.2262 258.049 85.3619C258.049 84.4975 258.749 83.7969 259.614 83.7969C260.478 83.7969 261.179 84.4975 261.179 85.3619C261.179 86.2262 260.478 86.9269 259.614 86.9269Z" fill="#7200D6"/>
<path d="M283.166 83.9864L279.595 83.9864L279.595 86.7183L283.166 86.7183C283.53 86.7183 283.88 86.5736 284.137 86.3162C284.394 86.0587 284.539 85.7095 284.539 85.3455C284.539 84.9814 284.394 84.6322 284.137 84.3747C283.88 84.1173 283.53 83.9727 283.166 83.9727L283.166 83.9864Z" fill="#7200D6"/>
<path d="M247.636 86.623L251.208 86.623L251.208 83.8912L247.636 83.8912C247.272 83.8912 246.923 84.0358 246.666 84.2933C246.408 84.5507 246.264 84.8999 246.264 85.264C246.267 85.6257 246.414 85.9713 246.671 86.2258C246.928 86.4803 247.275 86.6231 247.636 86.623Z" fill="#7200D6"/>
<path d="M279.975 98.7422L249.89 98.7422C248.858 98.7422 247.869 99.152 247.139 99.8814C246.41 100.611 246 101.6 246 102.632C246 105.848 247.278 108.932 249.552 111.206C251.826 113.481 254.91 114.758 258.127 114.758L274.31 114.758C275.734 114.758 277.144 114.477 278.46 113.932C279.776 113.386 280.971 112.587 281.977 111.579C282.984 110.571 283.782 109.374 284.325 108.058C284.869 106.741 285.148 105.331 285.145 103.906C285.144 102.536 284.598 101.223 283.629 100.254C282.659 99.286 281.345 98.7422 279.975 98.7422Z" fill="#7200D6"/>
<mask id="mask0_220_2051" style="mask-type:luminance" maskUnits="userSpaceOnUse" x="168" y="88" width="53" height="40">
<path d="M220.836 88.0703H168V127.013H220.836V88.0703Z" fill="white"/>
</mask>
<g mask="url(#mask0_220_2051)">
<path d="M190.305 122.367H212.381C211.581 118.571 210.417 114.655 209.981 111.847C209.545 109.039 210.053 106.067 212.333 102.987C214.881 99.5196 217.557 93.3878 218.085 88.0519C218.553 83.3361 217.921 79.1802 214.633 74.0524C211.961 69.9005 205.077 66.5566 198.753 66.5566C188.909 66.5566 181.893 71.3245 179.481 77.5563C177.925 81.5562 178.025 83.6921 178.053 84.8881C178.101 86.728 178.929 87.66 178.929 88.9719C178.929 89.4639 178.553 90.5519 177.785 91.5718C176.727 92.9401 175.748 94.3677 174.853 95.8477C174.766 96.0178 174.716 96.2047 174.708 96.3956C174.7 96.5866 174.733 96.777 174.805 96.954C174.877 97.1309 174.987 97.2902 175.126 97.421C175.266 97.5517 175.432 97.6509 175.613 97.7116C176.293 98.0156 177.545 98.1956 177.545 98.6756C177.567 99.2489 177.429 99.817 177.145 100.316C176.861 100.716 176.813 101.164 177.113 101.436C177.437 101.725 177.819 101.943 178.233 102.075C178.045 102.138 177.876 102.246 177.739 102.388C177.602 102.53 177.501 102.704 177.445 102.893C177.389 103.083 177.38 103.283 177.418 103.477C177.457 103.671 177.541 103.853 177.665 104.007C178.125 104.467 178.865 105.007 178.801 105.887C178.761 106.623 178.341 108.227 178.321 109.011C178.285 110.211 179.337 111.131 180.509 111.339C181.681 111.547 184.437 111.419 185.445 111.303C186.645 111.167 188.525 111.763 189.069 113.235C189.613 114.707 190.305 119.791 190.305 122.367Z" fill="#7200D6"/>
</g>
<path d="M190.335 122.367H212.411C211.611 118.571 210.447 114.655 210.011 111.847C209.575 109.039 210.087 106.079 212.351 102.987C214.899 99.5196 217.575 93.3878 218.103 88.0519C218.571 83.3361 217.939 79.1802 214.651 74.0524C211.979 69.9005 205.095 66.5566 198.771 66.5566C188.927 66.5566 181.911 71.3245 179.499 77.5563C177.943 81.5562 178.043 83.6921 178.071 84.8881C178.119 86.728 178.947 87.66 178.947 88.9719C178.947 89.4639 178.571 90.5519 177.803 91.5718C176.746 92.9353 175.768 94.359 174.875 95.8357C174.788 96.0058 174.739 96.1927 174.731 96.3836C174.723 96.5746 174.756 96.765 174.828 96.942C174.9 97.1189 175.009 97.2782 175.149 97.409C175.288 97.5397 175.454 97.6389 175.635 97.6996C176.315 98.0036 177.567 98.1836 177.567 98.6636C177.59 99.2369 177.451 99.805 177.167 100.304C176.883 100.704 176.835 101.152 177.135 101.424C177.46 101.713 177.841 101.931 178.255 102.063C178.068 102.126 177.898 102.234 177.761 102.376C177.624 102.518 177.523 102.692 177.468 102.881C177.412 103.071 177.403 103.271 177.441 103.465C177.479 103.659 177.564 103.841 177.687 103.995C178.147 104.455 178.887 104.995 178.823 105.875C178.783 106.611 178.363 108.215 178.343 108.999C178.307 110.199 179.359 111.119 180.531 111.327C181.703 111.535 184.459 111.407 185.467 111.291C186.667 111.155 188.547 111.751 189.091 113.223C189.635 114.695 190.335 119.791 190.335 122.367Z" stroke="#7200D6" stroke-width="0.299995" stroke-miterlimit="10"/>
<path d="M201.295 99.727H199.163V98.0671H201.295C201.36 98.0731 201.426 98.0655 201.487 98.0448C201.549 98.0241 201.606 97.9908 201.654 97.947C201.702 97.9031 201.74 97.8497 201.767 97.7901C201.793 97.7306 201.807 97.6662 201.807 97.6011C201.807 97.536 201.793 97.4716 201.767 97.4121C201.74 97.3525 201.702 97.2991 201.654 97.2552C201.606 97.2114 201.549 97.178 201.487 97.1574C201.426 97.1367 201.36 97.1291 201.295 97.1351H199.163V95.7552C199.163 95.631 199.114 95.512 199.026 95.4242C198.939 95.3365 198.82 95.2872 198.695 95.2872H197.327V93.1552C197.317 93.0391 197.263 92.9312 197.177 92.8526C197.09 92.774 196.978 92.7305 196.861 92.7305C196.745 92.7305 196.632 92.774 196.546 92.8526C196.46 92.9312 196.406 93.0391 196.395 93.1552V95.2912H194.739V93.1552C194.729 93.0391 194.675 92.9312 194.589 92.8526C194.502 92.774 194.39 92.7305 194.273 92.7305C194.157 92.7305 194.044 92.774 193.958 92.8526C193.872 92.9312 193.818 93.0391 193.807 93.1552V95.2912H192.551C192.49 95.2906 192.428 95.3024 192.371 95.3256C192.314 95.3489 192.262 95.3833 192.218 95.4268C192.174 95.4703 192.139 95.5221 192.115 95.5791C192.092 95.6362 192.079 95.6974 192.079 95.7592V97.1391H189.947C189.831 97.1499 189.723 97.2036 189.645 97.2898C189.566 97.376 189.523 97.4885 189.523 97.6051C189.523 97.7217 189.566 97.8342 189.645 97.9204C189.723 98.0066 189.831 98.0603 189.947 98.0711H192.079V99.727H189.947C189.824 99.727 189.706 99.7759 189.619 99.8629C189.532 99.9499 189.483 100.068 189.483 100.191C189.483 100.314 189.532 100.432 189.619 100.519C189.706 100.606 189.824 100.655 189.947 100.655H192.079V101.903C192.079 101.965 192.092 102.026 192.115 102.083C192.139 102.14 192.174 102.192 192.218 102.235C192.262 102.279 192.314 102.313 192.371 102.336C192.428 102.36 192.49 102.371 192.551 102.371H193.807V104.507C193.818 104.623 193.872 104.731 193.958 104.81C194.044 104.888 194.157 104.932 194.273 104.932C194.39 104.932 194.502 104.888 194.589 104.81C194.675 104.731 194.729 104.623 194.739 104.507V102.371H196.395V104.507C196.406 104.623 196.46 104.731 196.546 104.81C196.632 104.888 196.745 104.932 196.861 104.932C196.978 104.932 197.09 104.888 197.177 104.81C197.263 104.731 197.317 104.623 197.327 104.507V102.371H198.695C198.82 102.371 198.939 102.322 199.026 102.234C199.114 102.146 199.163 102.027 199.163 101.903V100.655H201.295C201.418 100.655 201.536 100.606 201.623 100.519C201.71 100.432 201.759 100.314 201.759 100.191C201.759 100.068 201.71 99.9499 201.623 99.8629C201.536 99.7759 201.418 99.727 201.295 99.727Z" fill="white"/>
<path d="M193.587 122.699H192.659V119.099C192.66 118.922 192.696 118.747 192.764 118.583C192.833 118.42 192.933 118.272 193.059 118.147L196.259 114.947L196.919 115.603L193.719 118.803C193.68 118.841 193.65 118.887 193.629 118.937C193.609 118.987 193.598 119.041 193.599 119.095L193.587 122.699Z" fill="white"/>
<path d="M208.451 125.195H207.523V118.839C207.524 118.708 207.498 118.578 207.448 118.458C207.398 118.337 207.324 118.227 207.231 118.135L204.919 115.823C204.74 115.644 204.598 115.431 204.501 115.197C204.404 114.963 204.355 114.712 204.355 114.459V110.791H205.287V114.467C205.287 114.598 205.313 114.729 205.363 114.85C205.413 114.972 205.486 115.082 205.579 115.175L207.887 117.483C208.067 117.662 208.209 117.874 208.306 118.108C208.403 118.343 208.452 118.593 208.451 118.847V125.195Z" fill="white"/>
<path d="M197.976 116.755C199.275 116.755 200.328 115.702 200.328 114.403C200.328 113.104 199.275 112.051 197.976 112.051C196.677 112.051 195.624 113.104 195.624 114.403C195.624 115.702 196.677 116.755 197.976 116.755Z" fill="white"/>
<path d="M204.648 111.135C206.03 111.135 207.152 110.014 207.152 108.631C207.152 107.248 206.03 106.127 204.648 106.127C203.265 106.127 202.144 107.248 202.144 108.631C202.144 110.014 203.265 111.135 204.648 111.135Z" fill="white"/>
<path d="M195.44 77.2329C194.93 77.234 194.429 77.0957 193.992 76.833C193.561 76.5811 193.201 76.2231 192.948 75.793C192.683 75.3554 192.544 74.8527 192.548 74.341C192.545 73.8345 192.684 73.3373 192.948 72.9051C193.209 72.4736 193.571 72.1124 194.004 71.8531C194.433 71.5916 194.926 71.4532 195.428 71.4531C195.937 71.4528 196.436 71.5911 196.872 71.8531C197.301 72.1072 197.66 72.4647 197.916 72.8931C198.173 73.3339 198.308 73.8349 198.308 74.345C198.308 74.8552 198.173 75.3562 197.916 75.797C197.662 76.2271 197.303 76.5851 196.872 76.837C196.44 77.0974 195.944 77.2343 195.44 77.2329ZM194.48 83.2327L193.04 81.7928L203.12 71.7171L204.56 73.1691L194.48 83.2327ZM195.44 75.393C195.622 75.3947 195.801 75.3448 195.956 75.249C196.122 75.1536 196.26 75.0155 196.356 74.849C196.452 74.6941 196.502 74.5152 196.5 74.333C196.501 74.151 196.451 73.9724 196.356 73.817C196.259 73.6516 196.121 73.5138 195.956 73.4171C195.799 73.3253 195.621 73.2769 195.44 73.2769C195.259 73.2769 195.08 73.3253 194.924 73.4171C194.759 73.5151 194.622 73.6525 194.524 73.817C194.429 73.9724 194.379 74.151 194.38 74.333C194.378 74.5152 194.428 74.6941 194.524 74.849C194.621 75.0145 194.758 75.1522 194.924 75.249C195.079 75.3448 195.258 75.3947 195.44 75.393ZM202.16 83.4727C201.651 83.4751 201.151 83.3367 200.716 83.0728C200.285 82.8209 199.925 82.4629 199.672 82.0328C199.412 81.5951 199.276 81.0956 199.276 80.5868C199.276 80.078 199.412 79.5786 199.672 79.1409C199.934 78.7113 200.296 78.3517 200.728 78.0929C201.157 77.8318 201.65 77.6934 202.152 77.6929C202.662 77.6919 203.163 77.8302 203.6 78.0929C204.031 78.3448 204.39 78.7028 204.644 79.1329C204.898 79.5746 205.032 80.0753 205.032 80.5848C205.032 81.0944 204.898 81.5951 204.644 82.0368C204.393 82.4687 204.033 82.8272 203.6 83.0768C203.165 83.3378 202.667 83.4748 202.16 83.4727ZM202.16 81.6328C202.342 81.6345 202.521 81.5846 202.676 81.4888C202.834 81.3894 202.965 81.2518 203.056 81.0888C203.152 80.9339 203.202 80.755 203.2 80.5728C203.201 80.3908 203.151 80.2122 203.056 80.0568C202.961 79.902 202.831 79.7718 202.676 79.6769C202.521 79.5811 202.342 79.5311 202.16 79.5329C201.978 79.5318 201.799 79.5817 201.644 79.6769C201.483 79.7737 201.349 79.9082 201.252 80.0688C201.157 80.2242 201.107 80.4028 201.108 80.5848C201.105 80.7697 201.155 80.9516 201.252 81.1088C201.343 81.2718 201.474 81.4094 201.632 81.5088C201.793 81.5992 201.976 81.6422 202.16 81.6328Z" fill="#7200D6"/>
</svg>
