<svg width="400" height="200" viewBox="0 0 400 200" fill="none" xmlns="http://www.w3.org/2000/svg">
<g clip-path="url(#clip0_440_676)">
<path d="M153.039 89.4323C152.487 89.4323 152.039 88.9847 152.039 88.4327C152.039 87.8806 152.487 87.4331 153.039 87.4331C153.591 87.4331 154.039 87.8806 154.039 88.4327C154.039 88.9847 153.591 89.4323 153.039 89.4323Z" fill="#00FFB1"/>
<path d="M145.389 89.2385L147.67 89.2385L147.67 87.4936L145.389 87.4936C145.156 87.4936 144.933 87.5859 144.769 87.7504C144.604 87.9148 144.512 88.1378 144.512 88.3704C144.514 88.6014 144.607 88.8222 144.772 88.9848C144.936 89.1473 145.158 89.2385 145.389 89.2385Z" fill="#00FFB1"/>
<rect x="113" y="14.3532" width="175" height="175" rx="26.1194" fill="#7200D6"/>
<rect x="113.5" y="10.5" width="174" height="174" rx="25.6194" fill="url(#paint0_linear_440_676)" stroke="#DCDCDC"/>
<path d="M243.965 88.2649C244.101 89.5978 244.177 90.9485 244.189 92.3143L243.788 92.318C243.789 92.4525 243.789 92.5872 243.789 92.7221C243.789 92.8569 243.789 92.9916 243.788 93.1261L244.189 93.1298C244.177 94.4956 244.101 95.8463 243.965 97.1792L243.565 97.1384C243.538 97.4063 243.508 97.6735 243.476 97.9399L243.875 97.9882C243.711 99.3416 243.485 100.676 243.2 101.988L242.807 101.903C242.75 102.165 242.691 102.427 242.629 102.687L243.02 102.78C242.706 104.104 242.331 105.405 241.899 106.679L241.518 106.55C241.432 106.803 241.344 107.056 241.253 107.308L241.631 107.444C241.17 108.722 240.651 109.973 240.077 111.192L239.713 111.021C239.599 111.263 239.482 111.505 239.364 111.745L239.724 111.923C239.123 113.139 238.467 114.324 237.758 115.472L237.416 115.261C237.276 115.49 237.133 115.717 236.988 115.942L237.326 116.159C236.593 117.299 235.809 118.403 234.975 119.466L234.659 119.218C234.494 119.429 234.326 119.639 234.157 119.847L234.469 120.1C233.614 121.15 232.712 122.16 231.764 123.125L231.478 122.843C231.29 123.034 231.1 123.224 230.909 123.412L231.191 123.699C230.225 124.646 229.216 125.549 228.166 126.403L227.913 126.091C227.705 126.261 227.495 126.428 227.284 126.593L227.532 126.91C226.469 127.743 225.365 128.527 224.225 129.26L224.008 128.922C223.782 129.067 223.556 129.21 223.327 129.351L223.538 129.693C222.389 130.401 221.205 131.057 219.989 131.658L219.811 131.298C219.571 131.417 219.329 131.533 219.087 131.647L219.258 132.011C218.039 132.585 216.788 133.104 215.51 133.565L215.374 133.187C215.122 133.278 214.869 133.366 214.616 133.452L214.745 133.833C213.471 134.265 212.17 134.64 210.846 134.954L210.753 134.563C210.493 134.625 210.231 134.685 209.969 134.742L210.054 135.134C208.742 135.42 207.408 135.646 206.054 135.809L206.006 135.41C205.739 135.443 205.472 135.472 205.204 135.5L205.245 135.9C203.912 136.036 202.562 136.111 201.196 136.124L201.192 135.722C201.058 135.723 200.923 135.724 200.788 135.724C200.653 135.724 200.519 135.723 200.384 135.722L200.38 136.124C199.014 136.111 197.664 136.036 196.331 135.9L196.372 135.5C196.104 135.472 195.837 135.443 195.57 135.41L195.522 135.809C194.168 135.646 192.834 135.42 191.522 135.134L191.608 134.742C191.345 134.685 191.084 134.625 190.823 134.563L190.73 134.954C189.406 134.64 188.105 134.265 186.831 133.833L186.961 133.452C186.707 133.366 186.454 133.278 186.202 133.187L186.066 133.565C184.788 133.104 183.537 132.585 182.318 132.011L182.489 131.647C182.247 131.533 182.005 131.417 181.765 131.298L181.587 131.658C180.371 131.057 179.187 130.401 178.038 129.693L178.249 129.351C178.021 129.21 177.794 129.067 177.568 128.922L177.351 129.26C176.211 128.527 175.108 127.743 174.044 126.91L174.292 126.593C174.081 126.428 173.871 126.261 173.664 126.091L173.41 126.403C172.36 125.549 171.351 124.646 170.386 123.699L170.667 123.412C170.476 123.224 170.286 123.034 170.098 122.843L169.812 123.125C168.864 122.16 167.962 121.15 167.107 120.1L167.419 119.847C167.25 119.639 167.082 119.429 166.917 119.218L166.601 119.466C165.768 118.403 164.983 117.299 164.25 116.159L164.588 115.942C164.443 115.717 164.3 115.49 164.16 115.261L163.818 115.472C163.109 114.324 162.453 113.139 161.852 111.923L162.212 111.745C162.094 111.505 161.977 111.263 161.863 111.021L161.499 111.192C160.925 109.973 160.406 108.722 159.945 107.444L160.323 107.308C160.233 107.056 160.144 106.803 160.058 106.55L159.677 106.679C159.245 105.405 158.87 104.104 158.556 102.78L158.947 102.687C158.885 102.427 158.826 102.165 158.769 101.903L158.376 101.988C158.091 100.676 157.865 99.3416 157.701 97.9882L158.1 97.9399C158.068 97.6735 158.038 97.4063 158.011 97.1384L157.611 97.1792C157.475 95.8463 157.399 94.4956 157.387 93.1298L157.789 93.1261C157.787 92.9916 157.787 92.8569 157.787 92.7221C157.787 92.5872 157.787 92.4525 157.789 92.318L157.387 92.3143C157.399 90.9485 157.475 89.5978 157.611 88.2649L158.011 88.3057C158.038 88.0378 158.068 87.7706 158.1 87.5042L157.701 87.456C157.865 86.1025 158.091 84.7682 158.376 83.4561L158.769 83.5415C158.826 83.2791 158.885 83.0176 158.947 82.757L158.556 82.6642C158.87 81.3401 159.245 80.0394 159.677 78.7654L160.058 78.8945C160.144 78.6407 160.233 78.388 160.323 78.1363L159.945 78C160.406 76.7218 160.925 75.4714 161.499 74.2521L161.863 74.4233C161.977 74.1806 162.094 73.9392 162.212 73.699L161.852 73.521C162.453 72.3047 163.109 71.1206 163.818 69.972L164.16 70.1829C164.301 69.9546 164.443 69.7276 164.588 69.5021L164.25 69.2848C164.983 68.1449 165.768 67.0415 166.601 65.978L166.917 66.2258C167.082 66.0148 167.25 65.8053 167.419 65.5975L167.107 65.3438C167.962 64.2938 168.864 63.2846 169.812 62.3194L170.098 62.601C170.286 62.4096 170.476 62.2201 170.667 62.0323L170.386 61.7455C171.351 60.7981 172.36 59.8955 173.41 59.041L173.664 59.3527C173.871 59.1835 174.081 59.0162 174.292 58.8509L174.044 58.5346C175.108 57.7014 176.211 56.9168 177.351 56.1841L177.568 56.5222C177.794 56.3772 178.021 56.2343 178.249 56.0935L178.038 55.7514C179.187 55.0431 180.371 54.3868 181.587 53.7858L181.765 54.1461C182.005 54.0275 182.247 53.911 182.489 53.7967L182.318 53.4331C183.537 52.8589 184.788 52.3398 186.066 51.879L186.202 52.257C186.454 52.1663 186.707 52.0779 186.961 51.9917L186.831 51.6112C188.105 51.1788 189.406 50.8039 190.73 50.4897L190.823 50.8808C191.084 50.8189 191.345 50.7595 191.608 50.7024L191.522 50.3097C192.834 50.0244 194.168 49.7984 195.522 49.6347L195.57 50.0337C195.837 50.0014 196.104 49.9717 196.372 49.9443L196.331 49.5445C197.664 49.4085 199.014 49.3329 200.38 49.3203L200.384 49.7222C200.519 49.721 200.653 49.7203 200.788 49.7203C200.923 49.7203 201.058 49.721 201.192 49.7222L201.196 49.3203C202.562 49.3329 203.912 49.4085 205.245 49.5445L205.204 49.9443C205.472 49.9717 205.739 50.0014 206.006 50.0337L206.054 49.6347C207.408 49.7984 208.742 50.0244 210.054 50.3097L209.969 50.7024C210.231 50.7595 210.493 50.8189 210.753 50.8808L210.846 50.4897C212.17 50.8039 213.471 51.1788 214.745 51.6112L214.616 51.9917C214.869 52.0779 215.122 52.1663 215.374 52.257L215.51 51.879C216.788 52.3398 218.039 52.8589 219.258 53.4331L219.087 53.7967C219.329 53.911 219.571 54.0275 219.811 54.1461L219.989 53.7858C221.205 54.3868 222.389 55.0431 223.538 55.7514L223.327 56.0935C223.556 56.2343 223.782 56.3772 224.008 56.5222L224.225 56.1841C225.365 56.9168 226.469 57.7014 227.532 58.5346L227.284 58.8509C227.495 59.0163 227.705 59.1835 227.913 59.3527L228.166 59.041C229.216 59.8955 230.225 60.7981 231.191 61.7455L230.909 62.0323C231.1 62.2201 231.29 62.4097 231.478 62.601L231.764 62.3194C232.712 63.2846 233.614 64.2938 234.469 65.3438L234.157 65.5975C234.326 65.8053 234.494 66.0148 234.659 66.2258L234.975 65.978C235.809 67.0415 236.593 68.1449 237.326 69.2848L236.988 69.5021C237.133 69.7276 237.276 69.9546 237.416 70.1829L237.758 69.972C238.467 71.1206 239.123 72.3047 239.724 73.521L239.364 73.6991C239.482 73.9392 239.599 74.1806 239.713 74.4233L240.077 74.2521C240.651 75.4714 241.17 76.7218 241.631 78L241.253 78.1363C241.344 78.388 241.432 78.6407 241.518 78.8945L241.899 78.7654C242.331 80.0394 242.706 81.3401 243.02 82.6642L242.629 82.757C242.691 83.0176 242.75 83.2791 242.807 83.5415L243.2 83.4561C243.485 84.7682 243.711 86.1025 243.875 87.456L243.476 87.5042C243.508 87.7706 243.538 88.0378 243.565 88.3057L243.965 88.2649Z" stroke="black" stroke-width="0.803768" stroke-linejoin="round" stroke-dasharray="0.8 4.02"/>
<path d="M194.307 42.2139L206.695 42.2139C208.247 42.2139 209.505 43.4721 209.505 45.0242L209.505 50.747C209.505 52.2991 208.247 53.5573 206.695 53.5573L194.307 53.5573C192.755 53.5573 191.496 52.2991 191.496 50.747L191.496 45.0242C191.496 43.4721 192.755 42.2139 194.307 42.2139Z" fill="white" stroke="black" stroke-width="0.584557" stroke-miterlimit="10"/>
<path d="M203.486 48.6802C202.934 48.6802 202.486 48.2326 202.486 47.6806C202.486 47.1285 202.934 46.681 203.486 46.681C204.038 46.681 204.485 47.1285 204.485 47.6806C204.485 48.2326 204.038 48.6802 203.486 48.6802Z" fill="black"/>
<path d="M196.864 48.5504C196.312 48.5504 195.865 48.1029 195.865 47.5508C195.865 46.9987 196.312 46.5512 196.864 46.5512C197.416 46.5512 197.864 46.9987 197.864 47.5508C197.864 48.1029 197.416 48.5504 196.864 48.5504Z" fill="black"/>
<path d="M211.908 46.6728L209.626 46.6728L209.626 48.4177L211.908 48.4177C212.14 48.4177 212.363 48.3253 212.528 48.1609C212.692 47.9964 212.785 47.7734 212.785 47.5408C212.785 47.3083 212.692 47.0853 212.528 46.9208C212.363 46.7564 212.14 46.664 211.908 46.664L211.908 46.6728Z" fill="black"/>
<path d="M189.214 48.3566L191.495 48.3566L191.495 46.6117L189.214 46.6117C188.982 46.6117 188.759 46.7041 188.594 46.8685C188.43 47.033 188.337 47.256 188.337 47.4885C188.34 47.7196 188.433 47.9403 188.597 48.1029C188.761 48.2654 188.983 48.3566 189.214 48.3566Z" fill="black"/>
<path d="M209.869 56.097L190.653 56.097C189.994 56.097 189.363 56.3588 188.897 56.8247C188.431 57.2906 188.169 57.9225 188.169 58.5814C188.169 60.6356 188.985 62.6057 190.438 64.0582C191.89 65.5108 193.86 66.3268 195.914 66.3268L206.251 66.3268C207.16 66.3268 208.061 66.1474 208.902 65.799C209.742 65.4505 210.506 64.9398 211.148 64.296C211.791 63.6522 212.301 62.8881 212.648 62.0472C212.995 61.2063 213.173 60.3052 213.172 59.3954C213.171 58.5202 212.822 57.6813 212.203 57.0628C211.584 56.4444 210.744 56.097 209.869 56.097Z" fill="black"/>
<path d="M150.481 83.0958L162.869 83.0958C164.421 83.0958 165.68 84.354 165.68 85.906L165.68 91.6288C165.68 93.1809 164.421 94.4391 162.869 94.4391L150.481 94.4391C148.929 94.4391 147.671 93.1809 147.671 91.6288L147.671 85.906C147.671 84.354 148.929 83.0958 150.481 83.0958Z" fill="white" stroke="#00FFB1" stroke-width="0.584557" stroke-miterlimit="10"/>
<path d="M159.66 89.562C159.108 89.562 158.661 89.1145 158.661 88.5624C158.661 88.0103 159.108 87.5628 159.66 87.5628C160.212 87.5628 160.66 88.0103 160.66 88.5624C160.66 89.1145 160.212 89.562 159.66 89.562Z" fill="#00FFB1"/>
<path d="M168.082 87.5546L165.801 87.5546L165.801 89.2995L168.082 89.2995C168.315 89.2995 168.538 89.2072 168.702 89.0427C168.867 88.8783 168.959 88.6553 168.959 88.4227C168.959 88.1902 168.867 87.9671 168.702 87.8027C168.538 87.6382 168.315 87.5459 168.082 87.5459L168.082 87.5546Z" fill="#00FFB1"/>
<path d="M166.044 96.9789L146.828 96.9789C146.169 96.9789 145.537 97.2407 145.071 97.7066C144.605 98.1725 144.343 98.8044 144.343 99.4633C144.343 101.517 145.159 103.488 146.612 104.94C148.064 106.393 150.035 107.209 152.089 107.209L162.425 107.209C163.335 107.209 164.236 107.029 165.076 106.681C165.917 106.332 166.68 105.822 167.323 105.178C167.966 104.534 168.475 103.77 168.822 102.929C169.17 102.088 169.348 101.187 169.346 100.277C169.345 99.4021 168.997 98.5632 168.377 97.9447C167.758 97.3263 166.919 96.9789 166.044 96.9789Z" fill="#00FFB1"/>
<path d="M194.014 127.802L206.402 127.802C207.954 127.802 209.213 129.061 209.213 130.613L209.213 136.335C209.213 137.888 207.954 139.146 206.402 139.146L194.014 139.146C192.462 139.146 191.204 137.888 191.204 136.336L191.204 130.613C191.204 129.061 192.462 127.802 194.014 127.802Z" fill="white" stroke="#03FF0F" stroke-width="0.584557" stroke-miterlimit="10"/>
<path d="M203.193 134.269C202.641 134.269 202.193 133.821 202.193 133.269C202.193 132.717 202.641 132.269 203.193 132.269C203.745 132.269 204.193 132.717 204.193 133.269C204.193 133.821 203.745 134.269 203.193 134.269Z" fill="#03FF81"/>
<path d="M196.572 134.139C196.02 134.139 195.572 133.691 195.572 133.139C195.572 132.587 196.02 132.14 196.572 132.14C197.124 132.14 197.571 132.587 197.571 133.139C197.571 133.691 197.124 134.139 196.572 134.139Z" fill="#03FF81"/>
<path d="M211.615 132.261L209.334 132.261L209.334 134.006L211.615 134.006C211.848 134.006 212.071 133.914 212.235 133.749C212.399 133.585 212.492 133.362 212.492 133.129C212.492 132.897 212.399 132.674 212.235 132.509C212.071 132.345 211.848 132.253 211.615 132.253L211.615 132.261Z" fill="#03FF81"/>
<path d="M188.921 133.945L191.203 133.945L191.203 132.2L188.921 132.2C188.689 132.2 188.466 132.293 188.301 132.457C188.137 132.621 188.045 132.844 188.045 133.077C188.047 133.308 188.14 133.529 188.304 133.691C188.469 133.854 188.69 133.945 188.921 133.945Z" fill="#03FF81"/>
<path d="M209.576 141.686L190.361 141.686C189.702 141.686 189.07 141.947 188.604 142.413C188.138 142.879 187.876 143.511 187.876 144.17C187.876 146.224 188.692 148.194 190.145 149.647C191.597 151.099 193.567 151.915 195.622 151.915L205.958 151.915C206.868 151.915 207.769 151.736 208.609 151.387C209.449 151.039 210.213 150.528 210.856 149.885C211.498 149.241 212.008 148.477 212.355 147.636C212.702 146.795 212.88 145.894 212.879 144.984C212.878 144.109 212.53 143.27 211.91 142.651C211.291 142.033 210.452 141.686 209.576 141.686Z" fill="#03FF81"/>
<path d="M237.347 83.0958L249.735 83.0958C251.287 83.0958 252.546 84.354 252.546 85.9061L252.546 91.6289C252.546 93.1809 251.287 94.4391 249.735 94.4391L237.347 94.4391C235.795 94.4391 234.537 93.1809 234.537 91.6289L234.537 85.9061C234.537 84.354 235.795 83.0958 237.347 83.0958Z" fill="white" stroke="#7200D6" stroke-width="0.584557" stroke-miterlimit="10"/>
<path d="M246.526 89.562C245.974 89.562 245.526 89.1145 245.526 88.5624C245.526 88.0104 245.974 87.5628 246.526 87.5628C247.078 87.5628 247.526 88.0104 247.526 88.5624C247.526 89.1145 247.078 89.562 246.526 89.562Z" fill="#7200D6"/>
<path d="M239.905 89.4323C239.353 89.4323 238.905 88.9848 238.905 88.4327C238.905 87.8806 239.353 87.4331 239.905 87.4331C240.457 87.4331 240.905 87.8806 240.905 88.4327C240.905 88.9848 240.457 89.4323 239.905 89.4323Z" fill="#7200D6"/>
<path d="M254.948 87.5546L252.667 87.5546L252.667 89.2995L254.948 89.2995C255.181 89.2995 255.404 89.2072 255.568 89.0427C255.733 88.8783 255.825 88.6553 255.825 88.4227C255.825 88.1902 255.733 87.9671 255.568 87.8027C255.404 87.6382 255.181 87.5459 254.948 87.5459L254.948 87.5546Z" fill="#7200D6"/>
<path d="M232.255 89.2385L234.536 89.2385L234.536 87.4936L232.255 87.4936C232.022 87.4936 231.799 87.586 231.635 87.7504C231.47 87.9148 231.378 88.1379 231.378 88.3704C231.38 88.6015 231.473 88.8222 231.638 88.9848C231.802 89.1473 232.023 89.2385 232.255 89.2385Z" fill="#7200D6"/>
<path d="M252.91 96.9789L233.694 96.9789C233.035 96.9789 232.403 97.2407 231.937 97.7066C231.471 98.1725 231.209 98.8044 231.209 99.4633C231.209 101.518 232.025 103.488 233.478 104.94C234.93 106.393 236.901 107.209 238.955 107.209L249.291 107.209C250.201 107.209 251.102 107.029 251.942 106.681C252.782 106.332 253.546 105.822 254.189 105.178C254.832 104.534 255.341 103.77 255.688 102.929C256.036 102.088 256.214 101.187 256.212 100.277C256.211 99.4021 255.863 98.5632 255.243 97.9447C254.624 97.3263 253.785 96.9789 252.91 96.9789Z" fill="#7200D6"/>
<mask id="mask0_440_676" style="mask-type:luminance" maskUnits="userSpaceOnUse" x="181" y="90" width="35" height="26">
<path d="M215.137 90.1628H181.389V115.036H215.137V90.1628Z" fill="white"/>
</mask>
<g mask="url(#mask0_440_676)">
<path d="M195.636 112.069H209.736C209.225 109.644 208.482 107.143 208.203 105.35C207.925 103.556 208.249 101.658 209.705 99.6907C211.333 97.4757 213.042 93.5592 213.379 90.1511C213.678 87.139 213.274 84.4845 211.174 81.2093C209.468 78.5574 205.071 76.4216 201.031 76.4216C194.744 76.4216 190.263 79.4669 188.722 83.4473C187.728 86.0021 187.792 87.3663 187.81 88.1302C187.841 89.3054 188.37 89.9007 188.37 90.7387C188.37 91.0529 188.129 91.7478 187.639 92.3993C186.963 93.2732 186.338 94.1851 185.766 95.1304C185.71 95.239 185.679 95.3584 185.674 95.4804C185.669 95.6023 185.69 95.7239 185.736 95.837C185.782 95.95 185.852 96.0517 185.941 96.1353C186.03 96.2188 186.136 96.2821 186.252 96.3209C186.686 96.5151 187.486 96.63 187.486 96.9366C187.5 97.3028 187.411 97.6656 187.23 97.9841C187.049 98.2396 187.018 98.5257 187.21 98.6994C187.417 98.8844 187.66 99.0237 187.925 99.1082C187.805 99.1483 187.697 99.2168 187.609 99.3077C187.522 99.3987 187.457 99.5095 187.422 99.6306C187.386 99.7517 187.38 99.8797 187.405 100.004C187.429 100.127 187.483 100.244 187.562 100.342C187.856 100.636 188.329 100.981 188.288 101.543C188.262 102.013 187.994 103.037 187.981 103.538C187.958 104.305 188.63 104.892 189.379 105.025C190.127 105.158 191.888 105.076 192.531 105.002C193.298 104.915 194.499 105.296 194.846 106.236C195.194 107.176 195.636 110.423 195.636 112.069Z" fill="#7200D6"/>
</g>
<path d="M195.655 112.069H209.755C209.244 109.644 208.501 107.143 208.222 105.349C207.944 103.556 208.271 101.665 209.717 99.6906C211.344 97.4756 213.053 93.5591 213.391 90.151C213.69 87.1389 213.286 84.4844 211.186 81.2092C209.479 78.5573 205.082 76.4215 201.043 76.4215C194.755 76.4215 190.274 79.4668 188.734 83.4472C187.74 86.002 187.804 87.3662 187.821 88.1301C187.852 89.3053 188.381 89.9006 188.381 90.7386C188.381 91.0528 188.141 91.7477 187.65 92.3992C186.975 93.2701 186.35 94.1794 185.78 95.1226C185.725 95.2313 185.693 95.3507 185.688 95.4726C185.683 95.5945 185.704 95.7162 185.75 95.8292C185.796 95.9422 185.866 96.044 185.955 96.1275C186.044 96.211 186.15 96.2743 186.266 96.3132C186.7 96.5073 187.5 96.6223 187.5 96.9289C187.514 97.295 187.425 97.6579 187.244 97.9763C187.063 98.2318 187.032 98.5179 187.224 98.6917C187.431 98.8766 187.674 99.0159 187.939 99.1004C187.819 99.1406 187.711 99.209 187.623 99.3C187.536 99.3909 187.471 99.5017 187.436 99.6228C187.4 99.744 187.394 99.8719 187.419 99.9958C187.443 100.12 187.497 100.236 187.576 100.334C187.87 100.628 188.343 100.973 188.302 101.535C188.276 102.005 188.008 103.03 187.995 103.53C187.972 104.297 188.644 104.885 189.393 105.017C190.141 105.15 191.902 105.068 192.545 104.994C193.312 104.907 194.513 105.288 194.86 106.228C195.208 107.168 195.655 110.423 195.655 112.069Z" stroke="#7200D6" stroke-width="0.191613" stroke-miterlimit="10"/>
<path d="M202.655 97.6083H201.294V96.548H202.655C202.697 96.5519 202.738 96.547 202.778 96.5338C202.817 96.5206 202.854 96.4993 202.884 96.4713C202.915 96.4433 202.94 96.4092 202.956 96.3711C202.973 96.3331 202.982 96.292 202.982 96.2504C202.982 96.2088 202.973 96.1677 202.956 96.1297C202.94 96.0916 202.915 96.0575 202.884 96.0295C202.854 96.0015 202.817 95.9802 202.778 95.967C202.738 95.9538 202.697 95.9489 202.655 95.9528H201.294V95.0714C201.294 94.9921 201.262 94.9161 201.206 94.86C201.15 94.8039 201.074 94.7725 200.995 94.7725H200.121V93.4107C200.114 93.3366 200.08 93.2676 200.025 93.2174C199.97 93.1673 199.898 93.1394 199.823 93.1394C199.749 93.1394 199.677 93.1673 199.622 93.2174C199.567 93.2676 199.532 93.3366 199.526 93.4107V94.775H198.468V93.4107C198.461 93.3366 198.427 93.2676 198.372 93.2174C198.316 93.1673 198.245 93.1394 198.17 93.1394C198.096 93.1394 198.024 93.1673 197.969 93.2174C197.914 93.2676 197.879 93.3366 197.873 93.4107V94.775H197.07C197.031 94.7747 196.992 94.7821 196.955 94.797C196.919 94.8119 196.885 94.8339 196.857 94.8616C196.829 94.8894 196.807 94.9225 196.792 94.9589C196.777 94.9954 196.769 95.0344 196.769 95.0739V95.9553H195.407C195.333 95.9622 195.264 95.9965 195.214 96.0516C195.164 96.1066 195.136 96.1785 195.136 96.253C195.136 96.3275 195.164 96.3993 195.214 96.4543C195.264 96.5094 195.333 96.5437 195.407 96.5506H196.769V97.6083H195.407C195.328 97.6083 195.253 97.6395 195.198 97.6951C195.142 97.7507 195.111 97.826 195.111 97.9046C195.111 97.9832 195.142 98.0586 195.198 98.1142C195.253 98.1698 195.328 98.201 195.407 98.201H196.769V98.9981C196.769 99.0376 196.777 99.0766 196.792 99.1131C196.807 99.1495 196.829 99.1826 196.857 99.2104C196.885 99.2382 196.919 99.2601 196.955 99.275C196.992 99.2899 197.031 99.2973 197.07 99.297H197.873V100.661C197.879 100.735 197.914 100.804 197.969 100.855C198.024 100.905 198.096 100.933 198.17 100.933C198.245 100.933 198.316 100.905 198.372 100.855C198.427 100.804 198.461 100.735 198.468 100.661V99.297H199.526V100.661C199.532 100.735 199.567 100.804 199.622 100.855C199.677 100.905 199.749 100.933 199.823 100.933C199.898 100.933 199.97 100.905 200.025 100.855C200.08 100.804 200.114 100.735 200.121 100.661V99.297H200.995C201.074 99.297 201.15 99.2655 201.206 99.2095C201.262 99.1534 201.294 99.0774 201.294 98.9981V98.201H202.655C202.734 98.201 202.809 98.1698 202.865 98.1142C202.92 98.0586 202.952 97.9832 202.952 97.9046C202.952 97.826 202.92 97.7507 202.865 97.6951C202.809 97.6395 202.734 97.6083 202.655 97.6083Z" fill="white"/>
<path d="M197.732 112.28H197.139V109.981C197.14 109.868 197.163 109.756 197.206 109.652C197.25 109.547 197.314 109.453 197.395 109.373L199.439 107.329L199.86 107.748L197.816 109.792C197.791 109.816 197.772 109.845 197.759 109.877C197.746 109.909 197.739 109.944 197.74 109.978L197.732 112.28Z" fill="white"/>
<path d="M207.226 113.874H206.634V109.815C206.634 109.731 206.617 109.648 206.585 109.571C206.553 109.494 206.506 109.424 206.447 109.365L204.97 107.888C204.856 107.774 204.765 107.638 204.703 107.489C204.641 107.339 204.61 107.179 204.61 107.017V104.674H205.205V107.022C205.205 107.106 205.221 107.189 205.253 107.267C205.285 107.345 205.333 107.415 205.392 107.475L206.866 108.949C206.981 109.063 207.071 109.199 207.133 109.348C207.195 109.498 207.227 109.658 207.226 109.82V113.874Z" fill="white"/>
<path d="M200.535 108.484C201.365 108.484 202.037 107.811 202.037 106.982C202.037 106.152 201.365 105.48 200.535 105.48C199.705 105.48 199.033 106.152 199.033 106.982C199.033 107.811 199.705 108.484 200.535 108.484Z" fill="white"/>
<path d="M204.796 104.894C205.68 104.894 206.396 104.178 206.396 103.295C206.396 102.412 205.68 101.695 204.796 101.695C203.913 101.695 203.197 102.412 203.197 103.295C203.197 104.178 203.913 104.894 204.796 104.894Z" fill="white"/>
<path d="M198.916 83.2402C198.59 83.2409 198.27 83.1525 197.991 82.9847C197.716 82.8239 197.486 82.5952 197.324 82.3205C197.155 82.041 197.066 81.7199 197.069 81.3931C197.067 81.0696 197.155 80.752 197.324 80.4759C197.491 80.2003 197.722 79.9696 197.999 79.804C198.273 79.637 198.587 79.5486 198.908 79.5485C199.233 79.5483 199.552 79.6366 199.83 79.804C200.105 79.9663 200.334 80.1946 200.497 80.4683C200.661 80.7498 200.748 81.0698 200.748 81.3956C200.748 81.7215 200.661 82.0415 200.497 82.323C200.335 82.5977 200.106 82.8264 199.83 82.9873C199.554 83.1536 199.238 83.2411 198.916 83.2402ZM198.303 87.0724L197.383 86.1527L203.821 79.7171L204.741 80.6445L198.303 87.0724ZM198.916 82.065C199.032 82.0661 199.146 82.0342 199.245 81.973C199.352 81.9121 199.44 81.8239 199.501 81.7175C199.562 81.6186 199.594 81.5043 199.593 81.388C199.593 81.2717 199.561 81.1576 199.501 81.0584C199.439 80.9527 199.351 80.8647 199.245 80.8029C199.145 80.7443 199.032 80.7134 198.916 80.7134C198.8 80.7134 198.686 80.7443 198.586 80.8029C198.481 80.8655 198.393 80.9533 198.331 81.0584C198.27 81.1576 198.238 81.2717 198.239 81.388C198.238 81.5043 198.27 81.6186 198.331 81.7175C198.393 81.8232 198.481 81.9112 198.586 81.973C198.685 82.0342 198.799 82.0661 198.916 82.065ZM203.208 87.2257C202.883 87.2272 202.564 87.1388 202.286 86.9702C202.01 86.8094 201.781 86.5807 201.619 86.306C201.453 86.0264 201.366 85.7074 201.366 85.3824C201.366 85.0574 201.453 84.7384 201.619 84.4588C201.786 84.1845 202.018 83.9548 202.293 83.7895C202.567 83.6227 202.882 83.5343 203.203 83.534C203.529 83.5333 203.849 83.6217 204.128 83.7895C204.403 83.9504 204.633 84.179 204.795 84.4537C204.957 84.7359 205.042 85.0557 205.042 85.3811C205.042 85.7066 204.957 86.0264 204.795 86.3085C204.634 86.5844 204.404 86.8134 204.128 86.9728C203.85 87.1395 203.532 87.227 203.208 87.2257ZM203.208 86.0505C203.324 86.0516 203.439 86.0197 203.538 85.9585C203.639 85.895 203.722 85.8072 203.78 85.703C203.841 85.6041 203.873 85.4898 203.872 85.3735C203.873 85.2572 203.841 85.1431 203.78 85.0439C203.72 84.945 203.637 84.8618 203.538 84.8012C203.439 84.74 203.324 84.7081 203.208 84.7092C203.092 84.7085 202.978 84.7404 202.878 84.8012C202.776 84.863 202.69 84.949 202.628 85.0516C202.568 85.1508 202.536 85.2649 202.536 85.3811C202.534 85.4992 202.566 85.6154 202.628 85.7158C202.686 85.8199 202.77 85.9078 202.871 85.9713C202.973 86.029 203.09 86.0565 203.208 86.0505Z" fill="#7200D6"/>
</g>
<defs>
<linearGradient id="paint0_linear_440_676" x1="90.1771" y1="-0.888882" x2="216.739" y2="107.61" gradientUnits="userSpaceOnUse">
<stop stop-color="#D8B4FE"/>
<stop offset="1" stop-color="white"/>
</linearGradient>
<clipPath id="clip0_440_676">
<rect width="400" height="200" fill="white"/>
</clipPath>
</defs>
</svg>
