<svg width="175" height="180" viewBox="0 0 175 180" fill="none" xmlns="http://www.w3.org/2000/svg">
<g clip-path="url(#clip0_440_676)">
<path d="M40.039 79.4323C39.4869 79.4323 39.0394 78.9847 39.0394 78.4327C39.0394 77.8806 39.4869 77.4331 40.039 77.4331C40.591 77.4331 41.0386 77.8806 41.0386 78.4327C41.0386 78.9847 40.591 79.4323 40.039 79.4323Z" fill="#00FFB1"/>
<path d="M32.3886 79.2385L34.6698 79.2385L34.6698 77.4936L32.3886 77.4936C32.156 77.4936 31.933 77.5859 31.7685 77.7504C31.6041 77.9148 31.5117 78.1378 31.5117 78.3704C31.514 78.6014 31.6074 78.8222 31.7716 78.9848C31.9358 79.1473 32.1575 79.2385 32.3886 79.2385Z" fill="#00FFB1"/>
<rect y="4.35324" width="175" height="175" rx="26.1194" fill="#7200D6"/>
<rect x="0.5" y="0.5" width="174" height="174" rx="25.6194" fill="white" stroke="#DCDCDC"/>
<path d="M130.965 78.2649C131.101 79.5978 131.177 80.9485 131.189 82.3143L130.788 82.318C130.789 82.4525 130.789 82.5872 130.789 82.7221C130.789 82.8569 130.789 82.9916 130.788 83.1261L131.189 83.1298C131.177 84.4956 131.101 85.8463 130.965 87.1792L130.565 87.1384C130.538 87.4063 130.508 87.6735 130.476 87.9399L130.875 87.9882C130.711 89.3416 130.485 90.6759 130.2 91.988L129.807 91.9026C129.75 92.165 129.691 92.4265 129.629 92.6871L130.02 92.7799C129.706 94.104 129.331 95.4047 128.899 96.6788L128.518 96.5496C128.432 96.8034 128.344 97.0562 128.253 97.3078L128.631 97.4441C128.17 98.7223 127.651 99.9727 127.077 101.192L126.713 101.021C126.599 101.263 126.482 101.505 126.364 101.745L126.724 101.923C126.123 103.139 125.467 104.324 124.758 105.472L124.416 105.261C124.276 105.49 124.133 105.717 123.988 105.942L124.326 106.159C123.593 107.299 122.809 108.403 121.975 109.466L121.659 109.218C121.494 109.429 121.326 109.639 121.157 109.847L121.469 110.1C120.614 111.15 119.712 112.16 118.764 113.125L118.478 112.843C118.29 113.034 118.1 113.224 117.909 113.412L118.191 113.699C117.225 114.646 116.216 115.549 115.166 116.403L114.913 116.091C114.705 116.261 114.495 116.428 114.284 116.593L114.532 116.91C113.469 117.743 112.365 118.527 111.225 119.26L111.008 118.922C110.782 119.067 110.556 119.21 110.327 119.351L110.538 119.693C109.389 120.401 108.205 121.057 106.989 121.658L106.811 121.298C106.571 121.417 106.329 121.533 106.087 121.647L106.258 122.011C105.039 122.585 103.788 123.104 102.51 123.565L102.374 123.187C102.122 123.278 101.869 123.366 101.616 123.452L101.745 123.833C100.471 124.265 99.17 124.64 97.8459 124.954L97.7531 124.563C97.4925 124.625 97.231 124.685 96.9686 124.742L97.054 125.134C95.7419 125.42 94.4076 125.646 93.0541 125.809L93.0059 125.41C92.7395 125.443 92.4723 125.472 92.2044 125.5L92.2452 125.9C90.9123 126.036 89.5616 126.111 88.1958 126.124L88.1921 125.722C88.0576 125.723 87.9229 125.724 87.788 125.724C87.6532 125.724 87.5185 125.723 87.384 125.722L87.3803 126.124C86.0145 126.111 84.6638 126.036 83.3309 125.9L83.3717 125.5C83.1038 125.472 82.8366 125.443 82.5702 125.41L82.5219 125.809C81.1685 125.646 79.8342 125.42 78.5221 125.134L78.6075 124.742C78.3451 124.685 78.0836 124.625 77.823 124.563L77.7302 124.954C76.4061 124.64 75.1054 124.265 73.8314 123.833L73.9605 123.452C73.7067 123.366 73.454 123.278 73.2023 123.187L73.066 123.565C71.7878 123.104 70.5374 122.585 69.3181 122.011L69.4893 121.647C69.2466 121.533 69.0052 121.417 68.765 121.298L68.587 121.658C67.3707 121.057 66.1866 120.401 65.038 119.693L65.2489 119.351C65.0206 119.21 64.7936 119.067 64.5681 118.922L64.3508 119.26C63.2109 118.527 62.1076 117.743 61.044 116.91L61.2919 116.593C61.0808 116.428 60.8714 116.261 60.6635 116.091L60.4098 116.403C59.3599 115.549 58.3507 114.646 57.3855 113.699L57.6671 113.412C57.4757 113.224 57.2862 113.034 57.0984 112.843L56.8116 113.125C55.8642 112.16 54.9616 111.15 54.1071 110.1L54.4188 109.847C54.2496 109.639 54.0824 109.429 53.9171 109.218L53.6007 109.466C52.7676 108.403 51.983 107.299 51.2503 106.159L51.5883 105.942C51.4434 105.717 51.3005 105.49 51.1597 105.261L50.8176 105.472C50.1093 104.324 49.453 103.139 48.8521 101.923L49.2124 101.745C49.0937 101.505 48.9772 101.263 48.8629 101.021L48.4994 101.192C47.9252 99.9727 47.406 98.7223 46.9452 97.4441L47.3233 97.3078C47.2326 97.0562 47.1441 96.8034 47.058 96.5496L46.6774 96.6788C46.245 95.4047 45.8702 94.104 45.556 92.7799L45.9471 92.6871C45.8852 92.4265 45.8258 92.165 45.7687 91.9026L45.376 91.988C45.0907 90.6759 44.8647 89.3416 44.701 87.9882L45.1 87.9399C45.0677 87.6735 45.038 87.4063 45.0106 87.1384L44.6108 87.1792C44.4749 85.8463 44.3992 84.4956 44.3866 83.1298L44.7885 83.1261C44.7873 82.9916 44.7866 82.8569 44.7866 82.7221C44.7866 82.5872 44.7873 82.4525 44.7885 82.318L44.3866 82.3143C44.3992 80.9485 44.4749 79.5978 44.6108 78.2649L45.0106 78.3057C45.038 78.0378 45.0677 77.7706 45.1 77.5042L44.701 77.456C44.8647 76.1025 45.0907 74.7682 45.376 73.4561L45.7687 73.5415C45.8258 73.2791 45.8852 73.0176 45.9471 72.757L45.556 72.6642C45.8702 71.3401 46.245 70.0394 46.6774 68.7654L47.058 68.8945C47.1441 68.6407 47.2326 68.388 47.3233 68.1363L46.9452 68C47.406 66.7218 47.9252 65.4714 48.4994 64.2521L48.8629 64.4233C48.9772 64.1806 49.0937 63.9392 49.2124 63.699L48.8521 63.521C49.453 62.3047 50.1093 61.1206 50.8176 59.972L51.1597 60.1829C51.3005 59.9546 51.4434 59.7276 51.5883 59.5021L51.2503 59.2848C51.983 58.1449 52.7676 57.0415 53.6007 55.978L53.9171 56.2258C54.0824 56.0148 54.2497 55.8053 54.4188 55.5975L54.1071 55.3438C54.9616 54.2938 55.8642 53.2846 56.8116 52.3194L57.0984 52.601C57.2862 52.4096 57.4758 52.2201 57.6671 52.0323L57.3855 51.7455C58.3507 50.7981 59.3599 49.8955 60.4098 49.041L60.6635 49.3527C60.8714 49.1835 61.0808 49.0162 61.2919 48.8509L61.044 48.5346C62.1076 47.7014 63.2109 46.9168 64.3508 46.1841L64.5682 46.5222C64.7936 46.3772 65.0206 46.2343 65.2489 46.0935L65.038 45.7514C66.1866 45.0431 67.3707 44.3868 68.587 43.7858L68.7651 44.1461C69.0052 44.0275 69.2467 43.911 69.4893 43.7967L69.3181 43.4331C70.5374 42.8589 71.7878 42.3398 73.066 41.879L73.2023 42.257C73.454 42.1663 73.7067 42.0779 73.9605 41.9917L73.8314 41.6112C75.1054 41.1788 76.4061 40.8039 77.7302 40.4897L77.823 40.8808C78.0836 40.8189 78.3451 40.7595 78.6075 40.7024L78.5221 40.3097C79.8342 40.0244 81.1685 39.7984 82.5219 39.6347L82.5702 40.0337C82.8366 40.0014 83.1038 39.9717 83.3717 39.9443L83.3309 39.5445C84.6638 39.4085 86.0145 39.3329 87.3803 39.3203L87.384 39.7222C87.5185 39.721 87.6532 39.7203 87.788 39.7203C87.9229 39.7203 88.0576 39.721 88.1921 39.7222L88.1958 39.3203C89.5616 39.3329 90.9123 39.4085 92.2452 39.5445L92.2044 39.9443C92.4723 39.9717 92.7395 40.0014 93.0059 40.0337L93.0541 39.6347C94.4076 39.7984 95.7419 40.0244 97.054 40.3097L96.9686 40.7024C97.231 40.7595 97.4925 40.8189 97.7531 40.8808L97.8459 40.4897C99.17 40.8039 100.471 41.1788 101.745 41.6112L101.616 41.9917C101.869 42.0779 102.122 42.1663 102.374 42.257L102.51 41.879C103.788 42.3398 105.039 42.8589 106.258 43.4331L106.087 43.7967C106.329 43.911 106.571 44.0275 106.811 44.1461L106.989 43.7858C108.205 44.3868 109.389 45.0431 110.538 45.7514L110.327 46.0935C110.556 46.2343 110.782 46.3772 111.008 46.5222L111.225 46.1841C112.365 46.9168 113.469 47.7014 114.532 48.5346L114.284 48.8509C114.495 49.0163 114.705 49.1835 114.913 49.3527L115.166 49.041C116.216 49.8955 117.225 50.7981 118.191 51.7455L117.909 52.0323C118.1 52.2201 118.29 52.4097 118.478 52.601L118.764 52.3194C119.712 53.2846 120.614 54.2938 121.469 55.3438L121.157 55.5975C121.326 55.8053 121.494 56.0148 121.659 56.2258L121.975 55.978C122.809 57.0415 123.593 58.1449 124.326 59.2848L123.988 59.5021C124.133 59.7276 124.276 59.9546 124.416 60.1829L124.758 59.972C125.467 61.1206 126.123 62.3047 126.724 63.521L126.364 63.6991C126.482 63.9392 126.599 64.1806 126.713 64.4233L127.077 64.2521C127.651 65.4714 128.17 66.7218 128.631 68L128.253 68.1363C128.344 68.388 128.432 68.6407 128.518 68.8945L128.899 68.7654C129.331 70.0394 129.706 71.3401 130.02 72.6642L129.629 72.757C129.691 73.0176 129.75 73.2791 129.807 73.5415L130.2 73.4561C130.485 74.7682 130.711 76.1025 130.875 77.456L130.476 77.5042C130.508 77.7706 130.538 78.0378 130.565 78.3057L130.965 78.2649Z" stroke="black" stroke-width="0.803768" stroke-linejoin="round" stroke-dasharray="0.8 4.02"/>
<path d="M81.3067 32.2139L93.6949 32.2139C95.2469 32.2139 96.5051 33.4721 96.5051 35.0242L96.5051 40.747C96.5051 42.2991 95.2469 43.5573 93.6949 43.5573L81.3067 43.5573C79.7546 43.5573 78.4964 42.2991 78.4964 40.747L78.4964 35.0242C78.4964 33.4721 79.7546 32.2139 81.3067 32.2139Z" fill="white" stroke="black" stroke-width="0.584557" stroke-miterlimit="10"/>
<path d="M90.4856 38.6802C89.9336 38.6802 89.486 38.2326 89.486 37.6806C89.486 37.1285 89.9336 36.681 90.4856 36.681C91.0377 36.681 91.4852 37.1285 91.4852 37.6806C91.4852 38.2326 91.0377 38.6802 90.4856 38.6802Z" fill="black"/>
<path d="M83.8644 38.5504C83.3124 38.5504 82.8648 38.1029 82.8648 37.5508C82.8648 36.9987 83.3124 36.5512 83.8644 36.5512C84.4165 36.5512 84.864 36.9987 84.864 37.5508C84.864 38.1029 84.4165 38.5504 83.8644 38.5504Z" fill="black"/>
<path d="M98.9077 36.6728L96.6265 36.6728L96.6265 38.4177L98.9077 38.4177C99.1403 38.4177 99.3633 38.3253 99.5277 38.1609C99.6922 37.9964 99.7845 37.7734 99.7845 37.5408C99.7845 37.3083 99.6922 37.0853 99.5277 36.9208C99.3633 36.7564 99.1403 36.664 98.9077 36.664L98.9077 36.6728Z" fill="black"/>
<path d="M76.2141 38.3566L78.4953 38.3566L78.4953 36.6117L76.2141 36.6117C75.9816 36.6117 75.7585 36.7041 75.5941 36.8685C75.4297 37.033 75.3373 37.256 75.3373 37.4885C75.3396 37.7196 75.433 37.9403 75.5972 38.1029C75.7614 38.2654 75.9831 38.3566 76.2141 38.3566Z" fill="black"/>
<path d="M96.8691 46.097L77.6533 46.097C76.9944 46.097 76.3625 46.3588 75.8966 46.8247C75.4307 47.2906 75.1689 47.9225 75.1689 48.5814C75.1689 50.6356 75.985 52.6057 77.4375 54.0582C78.89 55.5108 80.8601 56.3268 82.9143 56.3268L93.2507 56.3268C94.1605 56.3268 95.0613 56.1474 95.9017 55.799C96.7421 55.4505 97.5055 54.9398 98.1483 54.296C98.7912 53.6522 99.3007 52.8881 99.648 52.0472C99.9952 51.2063 100.173 50.3052 100.172 49.3954C100.171 48.5202 99.8222 47.6813 99.203 47.0628C98.5837 46.4444 97.7443 46.097 96.8691 46.097Z" fill="black"/>
<path d="M37.4812 73.0958L49.8694 73.0958C51.4215 73.0958 52.6797 74.354 52.6797 75.906L52.6797 81.6288C52.6797 83.1809 51.4215 84.4391 49.8694 84.4391L37.4812 84.4391C35.9292 84.4391 34.671 83.1809 34.671 81.6288L34.671 75.906C34.671 74.354 35.9292 73.0958 37.4812 73.0958Z" fill="white" stroke="#00FFB1" stroke-width="0.584557" stroke-miterlimit="10"/>
<path d="M46.6602 79.562C46.1081 79.562 45.6606 79.1145 45.6606 78.5624C45.6606 78.0103 46.1081 77.5628 46.6602 77.5628C47.2123 77.5628 47.6598 78.0103 47.6598 78.5624C47.6598 79.1145 47.2123 79.562 46.6602 79.562Z" fill="#00FFB1"/>
<path d="M55.0822 77.5546L52.8009 77.5546L52.8009 79.2995L55.0822 79.2995C55.3147 79.2995 55.5377 79.2072 55.7022 79.0427C55.8666 78.8783 55.959 78.6553 55.959 78.4227C55.959 78.1902 55.8666 77.9671 55.7022 77.8027C55.5377 77.6382 55.3147 77.5459 55.0822 77.5459L55.0822 77.5546Z" fill="#00FFB1"/>
<path d="M53.0436 86.9789L33.8277 86.9789C33.1688 86.9789 32.5369 87.2407 32.071 87.7066C31.6051 88.1725 31.3434 88.8044 31.3434 89.4633C31.3434 91.5175 32.1594 93.4876 33.6119 94.9401C35.0645 96.3926 37.0345 97.2087 39.0887 97.2087L49.4252 97.2087C50.3349 97.2087 51.2358 97.0293 52.0761 96.6808C52.9165 96.3324 53.6799 95.8217 54.3228 95.1779C54.9656 94.5341 55.4752 93.7699 55.8224 92.929C56.1696 92.0881 56.3477 91.187 56.3463 90.2773C56.3451 89.4021 55.9967 88.5632 55.3774 87.9447C54.7581 87.3263 53.9187 86.9789 53.0436 86.9789Z" fill="#00FFB1"/>
<path d="M81.0141 117.802L93.4023 117.802C94.9543 117.802 96.2125 119.061 96.2125 120.613L96.2125 126.335C96.2125 127.888 94.9543 129.146 93.4023 129.146L81.0141 129.146C79.462 129.146 78.2038 127.888 78.2038 126.336L78.2038 120.613C78.2038 119.061 79.462 117.802 81.0141 117.802Z" fill="white" stroke="#03FF0F" stroke-width="0.584557" stroke-miterlimit="10"/>
<path d="M90.1929 124.269C89.6409 124.269 89.1933 123.821 89.1933 123.269C89.1933 122.717 89.6409 122.269 90.1929 122.269C90.745 122.269 91.1925 122.717 91.1925 123.269C91.1925 123.821 90.745 124.269 90.1929 124.269Z" fill="#03FF81"/>
<path d="M83.5718 124.139C83.0198 124.139 82.5722 123.691 82.5722 123.139C82.5722 122.587 83.0198 122.14 83.5718 122.14C84.1239 122.14 84.5714 122.587 84.5714 123.139C84.5714 123.691 84.1239 124.139 83.5718 124.139Z" fill="#03FF81"/>
<path d="M98.615 122.261L96.3338 122.261L96.3338 124.006L98.615 124.006C98.8475 124.006 99.0706 123.914 99.235 123.749C99.3994 123.585 99.4918 123.362 99.4918 123.129C99.4918 122.897 99.3994 122.674 99.235 122.509C99.0706 122.345 98.8475 122.253 98.615 122.253L98.615 122.261Z" fill="#03FF81"/>
<path d="M75.9214 123.945L78.2026 123.945L78.2026 122.2L75.9214 122.2C75.6888 122.2 75.4658 122.293 75.3014 122.457C75.1369 122.621 75.0446 122.844 75.0446 123.077C75.0469 123.308 75.1403 123.529 75.3045 123.691C75.4686 123.854 75.6904 123.945 75.9214 123.945Z" fill="#03FF81"/>
<path d="M96.5764 131.686L77.3606 131.686C76.7017 131.686 76.0698 131.947 75.6039 132.413C75.138 132.879 74.8762 133.511 74.8762 134.17C74.8762 136.224 75.6922 138.194 77.1448 139.647C78.5973 141.099 80.5674 141.915 82.6216 141.915L92.958 141.915C93.8678 141.915 94.7686 141.736 95.609 141.387C96.4494 141.039 97.2128 140.528 97.8556 139.885C98.4984 139.241 99.008 138.477 99.3552 137.636C99.7025 136.795 99.8805 135.894 99.8791 134.984C99.878 134.109 99.5295 133.27 98.9102 132.651C98.291 132.033 97.4516 131.686 96.5764 131.686Z" fill="#03FF81"/>
<path d="M124.347 73.0958L136.735 73.0958C138.287 73.0958 139.546 74.354 139.546 75.9061L139.546 81.6289C139.546 83.1809 138.287 84.4391 136.735 84.4391L124.347 84.4391C122.795 84.4391 121.537 83.1809 121.537 81.6289L121.537 75.9061C121.537 74.354 122.795 73.0958 124.347 73.0958Z" fill="white" stroke="#7200D6" stroke-width="0.584557" stroke-miterlimit="10"/>
<path d="M133.526 79.562C132.974 79.562 132.526 79.1145 132.526 78.5624C132.526 78.0104 132.974 77.5628 133.526 77.5628C134.078 77.5628 134.526 78.0104 134.526 78.5624C134.526 79.1145 134.078 79.562 133.526 79.562Z" fill="#7200D6"/>
<path d="M126.905 79.4323C126.353 79.4323 125.905 78.9848 125.905 78.4327C125.905 77.8806 126.353 77.4331 126.905 77.4331C127.457 77.4331 127.905 77.8806 127.905 78.4327C127.905 78.9848 127.457 79.4323 126.905 79.4323Z" fill="#7200D6"/>
<path d="M141.948 77.5546L139.667 77.5546L139.667 79.2995L141.948 79.2995C142.181 79.2995 142.404 79.2072 142.568 79.0427C142.733 78.8783 142.825 78.6553 142.825 78.4227C142.825 78.1902 142.733 77.9671 142.568 77.8027C142.404 77.6382 142.181 77.5459 141.948 77.5459L141.948 77.5546Z" fill="#7200D6"/>
<path d="M119.255 79.2385L121.536 79.2385L121.536 77.4936L119.255 77.4936C119.022 77.4936 118.799 77.586 118.635 77.7504C118.47 77.9148 118.378 78.1379 118.378 78.3704C118.38 78.6015 118.473 78.8222 118.638 78.9848C118.802 79.1473 119.023 79.2385 119.255 79.2385Z" fill="#7200D6"/>
<path d="M139.91 86.9789L120.694 86.9789C120.035 86.9789 119.403 87.2407 118.937 87.7066C118.471 88.1725 118.209 88.8044 118.209 89.4633C118.209 91.5175 119.025 93.4876 120.478 94.9401C121.93 96.3927 123.901 97.2087 125.955 97.2087L136.291 97.2087C137.201 97.2087 138.102 97.0293 138.942 96.6809C139.782 96.3324 140.546 95.8217 141.189 95.1779C141.832 94.5341 142.341 93.77 142.688 92.9291C143.036 92.0882 143.214 91.1871 143.212 90.2773C143.211 89.4021 142.863 88.5632 142.243 87.9447C141.624 87.3263 140.785 86.9789 139.91 86.9789Z" fill="#7200D6"/>
<mask id="mask0_440_676" style="mask-type:luminance" maskUnits="userSpaceOnUse" x="68" y="80" width="35" height="26">
<path d="M102.137 80.1628H68.3892V105.036H102.137V80.1628Z" fill="white"/>
</mask>
<g mask="url(#mask0_440_676)">
<path d="M82.6356 102.069H96.736C96.225 99.6442 95.4815 97.143 95.203 95.3496C94.9246 93.5561 95.249 91.6579 96.7053 89.6907C98.3328 87.4757 100.042 83.5592 100.379 80.1511C100.678 77.139 100.274 74.4845 98.1744 71.2093C96.4677 68.5574 92.0708 66.4216 88.0315 66.4216C81.7439 66.4216 77.2627 69.4669 75.7221 73.4473C74.7282 76.0021 74.7921 77.3663 74.81 78.1302C74.8406 79.3054 75.3695 79.9007 75.3695 80.7387C75.3695 81.0529 75.1293 81.7478 74.6388 82.3993C73.9631 83.2732 73.3378 84.1851 72.7661 85.1304C72.7105 85.239 72.679 85.3584 72.6738 85.4804C72.6685 85.6023 72.6897 85.7239 72.7358 85.837C72.7818 85.95 72.8518 86.0517 72.9408 86.1353C73.0298 86.2188 73.1358 86.2821 73.2515 86.3209C73.6858 86.5151 74.4855 86.63 74.4855 86.9366C74.4998 87.3028 74.4113 87.6656 74.23 87.9841C74.0486 88.2396 74.018 88.5257 74.2096 88.6994C74.4167 88.8844 74.6604 89.0237 74.925 89.1082C74.8052 89.1483 74.697 89.2168 74.6094 89.3077C74.5218 89.3987 74.4574 89.5095 74.4218 89.6306C74.3862 89.7517 74.3804 89.8797 74.4048 90.0036C74.4292 90.1275 74.4832 90.2436 74.5622 90.3422C74.856 90.636 75.3286 90.9809 75.2877 91.5429C75.2622 92.013 74.9939 93.0375 74.9812 93.5382C74.9582 94.3047 75.6301 94.8923 76.3787 95.0251C77.1273 95.158 78.8876 95.0762 79.5314 95.0021C80.2979 94.9153 81.4987 95.2959 81.8461 96.2361C82.1936 97.1763 82.6356 100.423 82.6356 102.069Z" fill="#7200D6"/>
</g>
<path d="M82.6547 102.069H96.7551C96.2441 99.6441 95.5007 97.1429 95.2222 95.3495C94.9437 93.556 95.2707 91.6655 96.7168 89.6906C98.3442 87.4756 100.053 83.5591 100.391 80.151C100.69 77.1389 100.286 74.4844 98.1858 71.2092C96.4792 68.5573 92.0822 66.4215 88.043 66.4215C81.7554 66.4215 77.2742 69.4668 75.7336 73.4472C74.7397 76.002 74.8036 77.3662 74.8215 78.1301C74.8521 79.3053 75.381 79.9006 75.381 80.7386C75.381 81.0528 75.1408 81.7477 74.6503 82.3992C73.9748 83.2701 73.3503 84.1794 72.7801 85.1226C72.7245 85.2313 72.693 85.3507 72.6878 85.4726C72.6826 85.5945 72.7037 85.7162 72.7498 85.8292C72.7959 85.9422 72.8658 86.044 72.9548 86.1275C73.0438 86.211 73.1498 86.2743 73.2655 86.3132C73.6999 86.5073 74.4996 86.6223 74.4996 86.9289C74.5139 87.295 74.4254 87.6579 74.2441 87.9763C74.0627 88.2318 74.032 88.5179 74.2236 88.6917C74.4307 88.8766 74.6745 89.0159 74.939 89.1004C74.8193 89.1406 74.711 89.209 74.6234 89.3C74.5358 89.3909 74.4715 89.5017 74.4359 89.6228C74.4002 89.744 74.3944 89.8719 74.4188 89.9958C74.4433 90.1197 74.4973 90.2359 74.5762 90.3344C74.87 90.6282 75.3427 90.9731 75.3018 91.5352C75.2762 92.0052 75.008 93.0297 74.9952 93.5305C74.9722 94.2969 75.6441 94.8845 76.3927 95.0174C77.1413 95.1502 78.9016 95.0685 79.5454 94.9944C80.3119 94.9075 81.5127 95.2882 81.8602 96.2283C82.2076 97.1685 82.6547 100.423 82.6547 102.069Z" stroke="#7200D6" stroke-width="0.191613" stroke-miterlimit="10"/>
<path d="M89.6553 87.6083H88.2935V86.548H89.6553C89.6967 86.5519 89.7384 86.547 89.7779 86.5338C89.8173 86.5206 89.8535 86.4993 89.8843 86.4713C89.915 86.4433 89.9395 86.4092 89.9563 86.3711C89.9731 86.3331 89.9818 86.292 89.9818 86.2504C89.9818 86.2088 89.9731 86.1677 89.9563 86.1297C89.9395 86.0916 89.915 86.0575 89.8843 86.0295C89.8535 86.0015 89.8173 85.9802 89.7779 85.967C89.7384 85.9538 89.6967 85.9489 89.6553 85.9528H88.2935V85.0714C88.2935 84.9921 88.262 84.9161 88.206 84.86C88.1499 84.8039 88.0739 84.7725 87.9946 84.7725H87.1208V83.4107C87.114 83.3366 87.0796 83.2676 87.0246 83.2174C86.9695 83.1673 86.8977 83.1394 86.8232 83.1394C86.7487 83.1394 86.6769 83.1673 86.6218 83.2174C86.5668 83.2676 86.5324 83.3366 86.5255 83.4107V84.775H85.4678V83.4107C85.4609 83.3366 85.4266 83.2676 85.3716 83.2174C85.3165 83.1673 85.2447 83.1394 85.1702 83.1394C85.0957 83.1394 85.0239 83.1673 84.9688 83.2174C84.9138 83.2676 84.8794 83.3366 84.8725 83.4107V84.775H84.0703C84.0308 84.7747 83.9917 84.7821 83.9551 84.797C83.9186 84.8119 83.8853 84.8339 83.8573 84.8616C83.8293 84.8894 83.807 84.9225 83.7918 84.9589C83.7766 84.9954 83.7688 85.0344 83.7688 85.0739V85.9553H82.4071C82.3329 85.9622 82.264 85.9965 82.2138 86.0516C82.1636 86.1066 82.1358 86.1785 82.1358 86.253C82.1358 86.3275 82.1636 86.3993 82.2138 86.4543C82.264 86.5094 82.3329 86.5437 82.4071 86.5506H83.7688V87.6083H82.4071C82.3285 87.6083 82.2531 87.6395 82.1975 87.6951C82.1419 87.7507 82.1107 87.826 82.1107 87.9046C82.1107 87.9832 82.1419 88.0586 82.1975 88.1142C82.2531 88.1698 82.3285 88.201 82.4071 88.201H83.7688V88.9981C83.7688 89.0376 83.7766 89.0766 83.7918 89.1131C83.807 89.1495 83.8293 89.1826 83.8573 89.2104C83.8853 89.2382 83.9186 89.2601 83.9551 89.275C83.9917 89.2899 84.0308 89.2973 84.0703 89.297H84.8725V90.6613C84.8794 90.7354 84.9138 90.8044 84.9688 90.8546C85.0239 90.9048 85.0957 90.9326 85.1702 90.9326C85.2447 90.9326 85.3165 90.9048 85.3716 90.8546C85.4266 90.8044 85.4609 90.7354 85.4678 90.6613V89.297H86.5255V90.6613C86.5324 90.7354 86.5668 90.8044 86.6218 90.8546C86.6769 90.9048 86.7487 90.9326 86.8232 90.9326C86.8977 90.9326 86.9695 90.9048 87.0246 90.8546C87.0796 90.8044 87.114 90.7354 87.1208 90.6613V89.297H87.9946C88.0739 89.297 88.1499 89.2655 88.206 89.2095C88.262 89.1534 88.2935 89.0774 88.2935 88.9981V88.201H89.6553C89.7339 88.201 89.8093 88.1698 89.8648 88.1142C89.9204 88.0586 89.9516 87.9832 89.9516 87.9046C89.9516 87.826 89.9204 87.7507 89.8648 87.6951C89.8093 87.6395 89.7339 87.6083 89.6553 87.6083Z" fill="white"/>
<path d="M84.7319 102.28H84.1392V99.981C84.1397 99.8678 84.1625 99.7559 84.2064 99.6516C84.2502 99.5472 84.3142 99.4526 84.3946 99.373L86.4386 97.3291L86.8601 97.7481L84.8162 99.792C84.7914 99.8162 84.7719 99.8453 84.7587 99.8773C84.7455 99.9094 84.739 99.9438 84.7396 99.9785L84.7319 102.28Z" fill="white"/>
<path d="M94.2263 103.874H93.6336V99.8148C93.6337 99.7312 93.6172 99.6485 93.5852 99.5713C93.5532 99.4941 93.5063 99.4241 93.4471 99.3651L91.9704 97.8884C91.8557 97.7743 91.7648 97.6385 91.703 97.4889C91.6411 97.3394 91.6096 97.1791 91.6101 97.0173V94.6745H92.2054V97.0224C92.2051 97.1063 92.2214 97.1895 92.2534 97.2671C92.2855 97.3447 92.3325 97.4152 92.3919 97.4746L93.8661 98.9487C93.9806 99.0629 94.0714 99.1988 94.1333 99.3483C94.1951 99.4978 94.2267 99.6581 94.2263 99.8199V103.874Z" fill="white"/>
<path d="M87.5351 98.484C88.3648 98.484 89.0374 97.8114 89.0374 96.9818C89.0374 96.1521 88.3648 95.4796 87.5351 95.4796C86.7054 95.4796 86.0328 96.1521 86.0328 96.9818C86.0328 97.8114 86.7054 98.484 87.5351 98.484Z" fill="white"/>
<path d="M91.7964 94.8941C92.6797 94.8941 93.3957 94.1781 93.3957 93.2948C93.3957 92.4115 92.6797 91.6955 91.7964 91.6955C90.9131 91.6955 90.197 92.4115 90.197 93.2948C90.197 94.1781 90.9131 94.8941 91.7964 94.8941Z" fill="white"/>
<path d="M85.9158 73.2402C85.59 73.2409 85.2702 73.1525 84.991 72.9847C84.7156 72.8239 84.4861 72.5952 84.3241 72.3205C84.1546 72.041 84.0662 71.7199 84.0687 71.3931C84.067 71.0696 84.1555 70.752 84.3241 70.4759C84.4908 70.2003 84.7224 69.9696 84.9986 69.804C85.2726 69.637 85.5873 69.5486 85.9082 69.5485C86.2331 69.5483 86.552 69.6366 86.8305 69.804C87.1047 69.9663 87.334 70.1946 87.4973 70.4683C87.6614 70.7498 87.7478 71.0698 87.7478 71.3956C87.7478 71.7215 87.6614 72.0415 87.4973 72.323C87.3354 72.5977 87.1058 72.8264 86.8305 72.9873C86.5544 73.1536 86.2381 73.2411 85.9158 73.2402ZM85.3027 77.0724L84.3829 76.1527L90.8212 69.7171L91.741 70.6445L85.3027 77.0724ZM85.9158 72.065C86.0322 72.0661 86.1464 72.0342 86.2454 71.973C86.3518 71.9121 86.4399 71.8239 86.5009 71.7175C86.5621 71.6186 86.594 71.5043 86.5929 71.388C86.5933 71.2717 86.5614 71.1576 86.5009 71.0584C86.4391 70.9527 86.3511 70.8647 86.2454 70.8029C86.1455 70.7443 86.0317 70.7134 85.9158 70.7134C85.8 70.7134 85.6862 70.7443 85.5862 70.8029C85.4812 70.8655 85.3934 70.9533 85.3308 71.0584C85.2702 71.1576 85.2384 71.2717 85.2388 71.388C85.2377 71.5043 85.2696 71.6186 85.3308 71.7175C85.3926 71.8232 85.4806 71.9112 85.5862 71.973C85.6852 72.0342 85.7995 72.0661 85.9158 72.065ZM90.208 77.2257C89.8829 77.2272 89.5637 77.1388 89.2857 76.9702C89.0104 76.8094 88.7808 76.5807 88.6189 76.306C88.4532 76.0264 88.3657 75.7074 88.3657 75.3824C88.3657 75.0574 88.4532 74.7384 88.6189 74.4588C88.7863 74.1845 89.0177 73.9548 89.2934 73.7895C89.5675 73.6227 89.8821 73.5343 90.2029 73.534C90.5287 73.5333 90.8485 73.6217 91.1278 73.7895C91.4031 73.9504 91.6327 74.179 91.7946 74.4537C91.9569 74.7359 92.0423 75.0557 92.0423 75.3811C92.0423 75.7066 91.9569 76.0264 91.7946 76.3085C91.6342 76.5844 91.4043 76.8134 91.1278 76.9728C90.8501 77.1395 90.532 77.227 90.208 77.2257ZM90.208 76.0505C90.3244 76.0516 90.4386 76.0197 90.5376 75.9585C90.6386 75.895 90.7221 75.8072 90.7803 75.703C90.8415 75.6041 90.8734 75.4898 90.8723 75.3735C90.8727 75.2572 90.8409 75.1431 90.7803 75.0439C90.7197 74.945 90.6365 74.8618 90.5376 74.8012C90.4386 74.74 90.3244 74.7081 90.208 74.7092C90.0917 74.7085 89.9776 74.7404 89.8784 74.8012C89.7758 74.863 89.6899 74.949 89.6281 75.0516C89.5675 75.1508 89.5357 75.2649 89.5361 75.3811C89.534 75.4992 89.5659 75.6154 89.6281 75.7158C89.6863 75.8199 89.7698 75.9078 89.8708 75.9713C89.9735 76.029 90.0904 76.0565 90.208 76.0505Z" fill="#7200D6"/>
</g>
<defs>
<clipPath id="clip0_440_676">
<rect width="175" height="180" fill="white"/>
</clipPath>
</defs>
</svg>
