<svg width="80" height="80" viewBox="0 0 80 80" fill="none" xmlns="http://www.w3.org/2000/svg">
<g clip-path="url(#clip0_4504_4805)">
<path d="M31.3965 7.73619L37.4329 0L44.3993 6.85539L52.9497 2.01425L56.7402 11.027L66.4771 9.81358L66.5281 19.6138L75.9774 22.2052L72.2657 31.2994L80 37.3084L73.1047 44.3056L77.9308 52.8185L68.8953 56.6657L70.0918 66.3777L60.2812 66.4863L57.6555 75.9277L48.5827 72.2644L42.5462 80L35.5799 73.1449L27.05 77.9807L23.2391 68.9731L13.5224 70.1814L13.4715 60.381L4.02256 57.7895L7.71318 48.7009L0 42.6864L6.89515 35.6891L2.06858 27.1763L11.0838 23.3346L9.90768 13.6171L19.698 13.5141L22.324 4.07291L31.3965 7.73619Z" fill="#FF0420"/>
<path d="M21.4635 26.0161H58.5367V34.3785H21.4635V26.0161Z" fill="white"/>
<path d="M21.4635 36.7943H58.5367V45.1566H21.4635V36.7943Z" fill="white"/>
<path d="M21.4635 47.5724H38.0204V55.9348H21.4635V47.5724Z" fill="white"/>
<path d="M41.9797 47.5724H58.5367V55.9348H41.9797V47.5724Z" fill="white"/>
</g>
<defs>
<clipPath id="clip0_4504_4805">
<rect width="80" height="80" fill="white"/>
</clipPath>
</defs>
</svg>
