<svg width="400" height="200" viewBox="0 0 400 200" fill="none" xmlns="http://www.w3.org/2000/svg">
<g clip-path="url(#clip0_440_541)">
<rect x="113" y="14.3532" width="175" height="175" rx="26.1194" fill="#7200D6"/>
<rect x="113.5" y="10.5" width="174" height="174" rx="25.6194" fill="url(#paint0_linear_440_541)" stroke="#DCDCDC"/>
<path d="M226.17 70.5952C226.246 71.3436 226.289 72.102 226.296 72.8689L226.07 72.871C226.071 72.9465 226.071 73.0222 226.071 73.0979C226.071 73.1736 226.071 73.2492 226.07 73.3248L226.296 73.3268C226.289 74.0937 226.246 74.8522 226.17 75.6006L225.945 75.5777C225.93 75.7281 225.913 75.8781 225.895 76.0277L226.119 76.0548C226.027 76.8148 225.9 77.564 225.74 78.3008L225.52 78.2528C225.488 78.4002 225.454 78.547 225.419 78.6933L225.639 78.7454C225.463 79.4889 225.252 80.2193 225.009 80.9347L224.796 80.8621C224.747 81.0047 224.698 81.1466 224.647 81.2879L224.859 81.3644C224.6 82.0821 224.309 82.7842 223.986 83.4689L223.782 83.3728C223.718 83.509 223.653 83.6446 223.586 83.7794L223.788 83.8794C223.451 84.5624 223.082 85.2273 222.685 85.8722L222.493 85.7538C222.413 85.882 222.333 86.0094 222.252 86.1361L222.442 86.2581C222.03 86.8981 221.59 87.5177 221.122 88.1149L220.944 87.9757C220.851 88.0942 220.757 88.2118 220.663 88.3285L220.838 88.471C220.358 89.0605 219.851 89.6272 219.319 90.1692L219.158 90.0111C219.052 90.1185 218.946 90.225 218.839 90.3304L218.997 90.4914C218.455 91.0234 217.888 91.5302 217.298 92.0101L217.156 91.835C217.039 91.93 216.922 92.0239 216.803 92.1168L216.942 92.2944C216.345 92.7622 215.726 93.2028 215.086 93.6142L214.964 93.4244C214.837 93.5058 214.709 93.586 214.581 93.6651L214.7 93.8572C214.055 94.2549 213.39 94.6234 212.707 94.9608L212.607 94.7585C212.472 94.8251 212.337 94.8906 212.2 94.9547L212.296 95.1589C211.612 95.4813 210.91 95.7728 210.192 96.0316L210.115 95.8193C209.974 95.8702 209.832 95.9199 209.69 95.9682L209.762 96.1819C209.047 96.4247 208.316 96.6352 207.573 96.8116L207.521 96.592C207.375 96.6268 207.228 96.6601 207.08 96.6922L207.128 96.9127C206.392 97.0729 205.642 97.1998 204.882 97.2917L204.855 97.0677C204.706 97.0858 204.556 97.1025 204.405 97.1179L204.428 97.3424C203.68 97.4187 202.921 97.4612 202.154 97.4682L202.152 97.2426C202.077 97.2433 202.001 97.2436 201.925 97.2436C201.85 97.2436 201.774 97.2433 201.698 97.2426L201.696 97.4682C200.93 97.4612 200.171 97.4187 199.423 97.3424L199.446 97.1179C199.295 97.1025 199.145 97.0858 198.995 97.0677L198.968 97.2917C198.208 97.1998 197.459 97.0729 196.722 96.9127L196.77 96.6922C196.623 96.6601 196.476 96.6268 196.33 96.592L196.278 96.8116C195.534 96.6352 194.804 96.4247 194.089 96.1819L194.161 95.9682C194.019 95.9199 193.877 95.8702 193.735 95.8193L193.659 96.0316C192.941 95.7728 192.239 95.4813 191.554 95.1589L191.65 94.9547C191.514 94.8906 191.379 94.8251 191.244 94.7585L191.144 94.9608C190.461 94.6234 189.796 94.2549 189.151 93.8572L189.269 93.6651C189.141 93.586 189.014 93.5058 188.887 93.4244L188.765 93.6142C188.125 93.2028 187.506 92.7622 186.908 92.2944L187.048 92.1168C186.929 92.0239 186.811 91.93 186.695 91.835L186.552 92.0101C185.963 91.5302 185.396 91.0234 184.854 90.4915L185.012 90.3304C184.905 90.225 184.798 90.1185 184.693 90.0111L184.532 90.1692C184 89.6272 183.493 89.0605 183.013 88.471L183.188 88.3285C183.093 88.2118 182.999 88.0942 182.906 87.9757L182.729 88.1149C182.261 87.5177 181.82 86.8981 181.409 86.2581L181.599 86.1361C181.517 86.0094 181.437 85.882 181.358 85.7538L181.166 85.8722C180.768 85.2273 180.4 84.5624 180.062 83.8794L180.265 83.7794C180.198 83.6446 180.133 83.509 180.069 83.3728L179.864 83.4689C179.542 82.7842 179.25 82.0821 178.992 81.3644L179.204 81.2879C179.153 81.1466 179.103 81.0047 179.055 80.8621L178.841 80.9347C178.599 80.2193 178.388 79.4889 178.212 78.7454L178.431 78.6933C178.397 78.547 178.363 78.4002 178.331 78.2528L178.111 78.3008C177.95 77.564 177.823 76.8148 177.732 76.0548L177.956 76.0277C177.937 75.8781 177.921 75.7281 177.905 75.5777L177.681 75.6006C177.605 74.8522 177.562 74.0937 177.555 73.3268L177.781 73.3248C177.78 73.2492 177.78 73.1736 177.78 73.0979C177.78 73.0222 177.78 72.9465 177.781 72.871L177.555 72.8689C177.562 72.102 177.605 71.3436 177.681 70.5952L177.905 70.6181C177.921 70.4676 177.937 70.3176 177.956 70.168L177.732 70.1409C177.823 69.3809 177.95 68.6317 178.111 67.895L178.331 67.9429C178.363 67.7956 178.397 67.6487 178.431 67.5024L178.212 67.4503C178.388 66.7068 178.599 65.9765 178.841 65.2611L179.055 65.3336C179.103 65.1911 179.153 65.0492 179.204 64.9078L178.992 64.8313C179.25 64.1136 179.542 63.4115 179.864 62.7268L180.069 62.823C180.133 62.6867 180.198 62.5511 180.265 62.4163L180.062 62.3163C180.4 61.6333 180.768 60.9685 181.166 60.3235L181.358 60.4419C181.437 60.3137 181.517 60.1863 181.599 60.0597L181.409 59.9377C181.82 59.2976 182.261 58.678 182.729 58.0809L182.906 58.22C182.999 58.1015 183.093 57.9839 183.188 57.8672L183.013 57.7247C183.493 57.1352 184 56.5685 184.532 56.0266L184.693 56.1846C184.798 56.0772 184.905 55.9708 185.012 55.8653L184.854 55.7043C185.396 55.1723 185.963 54.6655 186.552 54.1857L186.695 54.3607C186.811 54.2657 186.929 54.1718 187.048 54.079L186.908 53.9013C187.506 53.4335 188.125 52.9929 188.765 52.5815L188.887 52.7714C189.014 52.69 189.141 52.6097 189.269 52.5307L189.151 52.3386C189.796 51.9409 190.461 51.5723 191.144 51.2349L191.244 51.4372C191.379 51.3706 191.514 51.3052 191.65 51.241L191.554 51.0368C192.239 50.7144 192.941 50.4229 193.659 50.1642L193.735 50.3765C193.877 50.3255 194.019 50.2759 194.161 50.2275L194.089 50.0138C194.804 49.771 195.534 49.5605 196.278 49.3841L196.33 49.6037C196.476 49.569 196.623 49.5356 196.77 49.5035L196.722 49.283C197.459 49.1228 198.208 48.9959 198.968 48.904L198.996 49.128C199.145 49.1099 199.295 49.0932 199.446 49.0779L199.423 48.8534C200.171 48.777 200.93 48.7346 201.696 48.7275L201.698 48.9531C201.774 48.9524 201.85 48.9521 201.925 48.9521C202.001 48.9521 202.077 48.9525 202.152 48.9531L202.154 48.7275C202.921 48.7346 203.68 48.777 204.428 48.8534L204.405 49.0779C204.556 49.0932 204.706 49.1099 204.855 49.128L204.882 48.904C205.642 48.9959 206.392 49.1228 207.128 49.283L207.08 49.5035C207.228 49.5356 207.375 49.569 207.521 49.6037L207.573 49.3841C208.316 49.5605 209.047 49.771 209.762 50.0138L209.69 50.2275C209.832 50.2759 209.974 50.3255 210.115 50.3765L210.192 50.1642C210.91 50.4229 211.612 50.7144 212.296 51.0368L212.2 51.241C212.337 51.3052 212.472 51.3706 212.607 51.4372L212.707 51.2349C213.39 51.5723 214.055 51.9409 214.7 52.3386L214.581 52.5307C214.709 52.6097 214.837 52.69 214.964 52.7714L215.086 52.5815C215.726 52.9929 216.345 53.4335 216.942 53.9013L216.803 54.079C216.922 54.1718 217.039 54.2657 217.156 54.3607L217.298 54.1857C217.888 54.6655 218.455 55.1723 218.997 55.7043L218.839 55.8653C218.946 55.9708 219.052 56.0772 219.158 56.1846L219.319 56.0266C219.851 56.5685 220.358 57.1352 220.838 57.7247L220.663 57.8672C220.757 57.9839 220.851 58.1015 220.944 58.22L221.122 58.0809C221.59 58.678 222.03 59.2976 222.442 59.9377L222.252 60.0597C222.333 60.1863 222.413 60.3137 222.493 60.4419L222.685 60.3235C223.082 60.9685 223.451 61.6333 223.788 62.3163L223.586 62.4163C223.653 62.5511 223.718 62.6867 223.782 62.823L223.986 62.7268C224.309 63.4115 224.6 64.1136 224.859 64.8313L224.647 64.9079C224.698 65.0492 224.747 65.1911 224.796 65.3336L225.009 65.2611C225.252 65.9765 225.463 66.7068 225.639 67.4503L225.419 67.5024C225.454 67.6487 225.488 67.7956 225.52 67.9429L225.74 67.895C225.9 68.6317 226.027 69.3809 226.119 70.1409L225.895 70.168C225.913 70.3176 225.93 70.4676 225.945 70.6181L226.17 70.5952Z" stroke="black" stroke-width="0.451322" stroke-linejoin="round" stroke-dasharray="0.45 2.26"/>
<path d="M196.961 43.0846L206.526 43.0846C207.724 43.0846 208.696 44.056 208.696 45.2543L208.696 49.6728C208.696 50.8711 207.724 51.8425 206.526 51.8425L196.961 51.8425C195.763 51.8425 194.791 50.8711 194.791 49.6728L194.791 45.2543C194.791 44.056 195.763 43.0846 196.961 43.0846Z" fill="white" stroke="black" stroke-width="0.451322" stroke-miterlimit="10"/>
<path d="M204.048 48.0771C203.622 48.0771 203.277 47.7316 203.277 47.3054C203.277 46.8791 203.622 46.5336 204.048 46.5336C204.475 46.5336 204.82 46.8791 204.82 47.3054C204.82 47.7316 204.475 48.0771 204.048 48.0771Z" fill="black"/>
<path d="M198.936 47.9769C198.509 47.9769 198.164 47.6313 198.164 47.2051C198.164 46.7789 198.509 46.4333 198.936 46.4333C199.362 46.4333 199.707 46.7789 199.707 47.2051C199.707 47.6313 199.362 47.9769 198.936 47.9769Z" fill="black"/>
<path d="M210.551 46.5272L208.789 46.5272L208.789 47.8744L210.551 47.8744C210.73 47.8744 210.902 47.8031 211.029 47.6761C211.156 47.5491 211.228 47.3769 211.228 47.1974C211.228 47.0179 211.156 46.8457 211.029 46.7187C210.902 46.5917 210.73 46.5204 210.551 46.5204L210.551 46.5272Z" fill="black"/>
<path d="M193.029 47.827L194.791 47.827L194.791 46.4798L193.029 46.4798C192.85 46.4798 192.678 46.5511 192.551 46.6781C192.424 46.805 192.352 46.9772 192.352 47.1568C192.354 47.3352 192.426 47.5056 192.553 47.6311C192.68 47.7566 192.851 47.827 193.029 47.827Z" fill="black"/>
<path d="M208.976 53.8035L194.14 53.8035C193.632 53.8035 193.144 54.0056 192.784 54.3653C192.424 54.725 192.222 55.2129 192.222 55.7216C192.222 57.3076 192.852 58.8286 193.974 59.9501C195.095 61.0716 196.616 61.7016 198.202 61.7016L206.183 61.7016C206.885 61.7016 207.581 61.5631 208.229 61.2941C208.878 61.0251 209.468 60.6308 209.964 60.1337C210.46 59.6367 210.854 59.0467 211.122 58.3974C211.39 57.7482 211.527 57.0525 211.526 56.3501C211.525 55.6743 211.256 55.0266 210.778 54.5491C210.3 54.0717 209.652 53.8035 208.976 53.8035Z" fill="black"/>
<path d="M172.589 64.9738L182.154 64.9738C183.352 64.9738 184.324 65.9453 184.324 67.1436L184.324 71.562C184.324 72.7604 183.352 73.7318 182.154 73.7318L172.589 73.7318C171.391 73.7318 170.42 72.7604 170.42 71.562L170.42 67.1436C170.42 65.9453 171.391 64.9738 172.589 64.9738Z" fill="white" stroke="#00FFB1" stroke-width="0.451322" stroke-miterlimit="10"/>
<path d="M179.676 69.9664C179.25 69.9664 178.905 69.6208 178.905 69.1946C178.905 68.7684 179.25 68.4229 179.676 68.4229C180.103 68.4229 180.448 68.7684 180.448 69.1946C180.448 69.6208 180.103 69.9664 179.676 69.9664Z" fill="#00FFB1"/>
<path d="M174.564 69.8661C174.138 69.8661 173.792 69.5206 173.792 69.0944C173.792 68.6681 174.138 68.3226 174.564 68.3226C174.99 68.3226 175.336 68.6681 175.336 69.0944C175.336 69.5206 174.99 69.8661 174.564 69.8661Z" fill="#00FFB1"/>
<path d="M186.179 68.4164L184.418 68.4164L184.418 69.7636L186.179 69.7636C186.358 69.7636 186.531 69.6923 186.658 69.5653C186.785 69.4384 186.856 69.2662 186.856 69.0866C186.856 68.9071 186.785 68.7349 186.658 68.6079C186.531 68.481 186.358 68.4096 186.179 68.4096L186.179 68.4164Z" fill="#00FFB1"/>
<path d="M168.657 69.7162L170.419 69.7162L170.419 68.369L168.657 68.369C168.478 68.369 168.306 68.4404 168.179 68.5673C168.052 68.6943 167.98 68.8665 167.98 69.046C167.982 69.2244 168.054 69.3949 168.181 69.5204C168.308 69.6459 168.479 69.7163 168.657 69.7162Z" fill="#00FFB1"/>
<path d="M184.605 75.6927L169.769 75.6927C169.26 75.6927 168.772 75.8948 168.412 76.2545C168.053 76.6142 167.851 77.1021 167.851 77.6108C167.851 79.1968 168.481 80.7179 169.602 81.8393C170.723 82.9608 172.245 83.5908 173.831 83.5908L181.811 83.5908C182.513 83.5908 183.209 83.4524 183.858 83.1833C184.507 82.9143 185.096 82.52 185.592 82.0229C186.089 81.5259 186.482 80.9359 186.75 80.2866C187.018 79.6374 187.156 78.9417 187.155 78.2393C187.154 77.5636 186.885 76.9158 186.407 76.4384C185.928 75.9609 185.28 75.6927 184.605 75.6927Z" fill="#00FFB1"/>
<path d="M196.735 82.8009L206.3 82.8009C207.498 82.8009 208.47 83.7723 208.47 84.9706L208.47 89.3891C208.47 90.5874 207.498 91.5588 206.3 91.5588L196.735 91.5588C195.537 91.5588 194.566 90.5874 194.566 89.3891L194.566 84.9706C194.566 83.7723 195.537 82.8009 196.735 82.8009Z" fill="white" stroke="#03FF0F" stroke-width="0.451322" stroke-miterlimit="10"/>
<path d="M203.822 87.7933C203.396 87.7933 203.051 87.4478 203.051 87.0216C203.051 86.5953 203.396 86.2498 203.822 86.2498C204.249 86.2498 204.594 86.5953 204.594 87.0216C204.594 87.4478 204.249 87.7933 203.822 87.7933Z" fill="#03FF81"/>
<path d="M198.71 87.6932C198.283 87.6932 197.938 87.3477 197.938 86.9214C197.938 86.4952 198.283 86.1497 198.71 86.1497C199.136 86.1497 199.481 86.4952 199.481 86.9214C199.481 87.3477 199.136 87.6932 198.71 87.6932Z" fill="#03FF81"/>
<path d="M210.325 86.2433L208.563 86.2433L208.563 87.5905L210.325 87.5905C210.504 87.5905 210.676 87.5192 210.803 87.3922C210.93 87.2653 211.002 87.0931 211.002 86.9135C211.002 86.734 210.93 86.5618 210.803 86.4348C210.676 86.3079 210.504 86.2365 210.325 86.2365L210.325 86.2433Z" fill="#03FF81"/>
<path d="M192.804 87.5431L194.565 87.5431L194.565 86.1959L192.804 86.1959C192.624 86.1959 192.452 86.2672 192.325 86.3942C192.198 86.5212 192.127 86.6934 192.127 86.8729C192.128 87.0513 192.2 87.2217 192.327 87.3472C192.454 87.4727 192.625 87.5431 192.804 87.5431Z" fill="#03FF81"/>
<path d="M208.75 93.5197L193.914 93.5197C193.406 93.5197 192.918 93.7218 192.558 94.0816C192.198 94.4413 191.996 94.9292 191.996 95.4379C191.996 97.0239 192.626 98.5449 193.748 99.6664C194.869 100.788 196.39 101.418 197.976 101.418L205.957 101.418C206.659 101.418 207.355 101.279 208.004 101.01C208.652 100.741 209.242 100.347 209.738 99.85C210.234 99.3529 210.628 98.7629 210.896 98.1137C211.164 97.4645 211.301 96.7687 211.3 96.0663C211.3 95.3906 211.03 94.7429 210.552 94.2654C210.074 93.7879 209.426 93.5197 208.75 93.5197Z" fill="#03FF81"/>
<path d="M219.302 64.9738L228.866 64.9738C230.065 64.9738 231.036 65.9453 231.036 67.1436L231.036 71.562C231.036 72.7604 230.065 73.7318 228.866 73.7318L219.302 73.7318C218.103 73.7318 217.132 72.7604 217.132 71.562L217.132 67.1436C217.132 65.9453 218.103 64.9738 219.302 64.9738Z" fill="white" stroke="#7200D6" stroke-width="0.451322" stroke-miterlimit="10"/>
<path d="M226.389 69.9664C225.962 69.9664 225.617 69.6208 225.617 69.1946C225.617 68.7684 225.962 68.4229 226.389 68.4229C226.815 68.4229 227.16 68.7684 227.16 69.1946C227.16 69.6208 226.815 69.9664 226.389 69.9664Z" fill="#7200D6"/>
<path d="M221.276 69.8661C220.85 69.8661 220.504 69.5206 220.504 69.0944C220.504 68.6681 220.85 68.3226 221.276 68.3226C221.702 68.3226 222.048 68.6681 222.048 69.0944C222.048 69.5206 221.702 69.8661 221.276 69.8661Z" fill="#7200D6"/>
<path d="M232.891 68.4164L231.13 68.4164L231.13 69.7636L232.891 69.7636C233.071 69.7636 233.243 69.6923 233.37 69.5653C233.497 69.4384 233.568 69.2662 233.568 69.0866C233.568 68.9071 233.497 68.7349 233.37 68.6079C233.243 68.481 233.071 68.4096 232.891 68.4096L232.891 68.4164Z" fill="#7200D6"/>
<path d="M215.37 69.7162L217.131 69.7162L217.131 68.369L215.37 68.369C215.19 68.369 215.018 68.4404 214.891 68.5673C214.764 68.6943 214.693 68.8665 214.693 69.046C214.694 69.2244 214.767 69.3949 214.893 69.5204C215.02 69.6459 215.191 69.7163 215.37 69.7162Z" fill="#7200D6"/>
<path d="M231.317 75.6927L216.481 75.6927C215.972 75.6927 215.484 75.8948 215.125 76.2545C214.765 76.6142 214.563 77.1021 214.563 77.6108C214.563 79.1968 215.193 80.7179 216.314 81.8393C217.436 82.9608 218.957 83.5908 220.543 83.5908L228.523 83.5908C229.226 83.5908 229.921 83.4524 230.57 83.1833C231.219 82.9143 231.808 82.52 232.305 82.0229C232.801 81.5259 233.194 80.9359 233.462 80.2866C233.73 79.6374 233.868 78.9417 233.867 78.2393C233.866 77.5636 233.597 76.9158 233.119 76.4384C232.641 75.9609 231.993 75.6927 231.317 75.6927Z" fill="#7200D6"/>
<path d="M173.945 100.547V111.57C173.945 113.237 175.297 114.589 176.965 114.589H228C229.667 114.589 231.019 113.237 231.019 111.57V100.547" stroke="#6900F2" stroke-width="0.30198"/>
<line x1="202.662" y1="114.802" x2="202.662" y2="146.478" stroke="#6900F2" stroke-width="0.30198"/>
<rect x="193.97" y="150.389" width="20.8955" height="20.8956" rx="2.17097" fill="#6900F2"/>
<rect x="194.038" y="149.371" width="20.7598" height="20.7599" rx="2.10312" fill="white" stroke="#6900F2" stroke-width="0.135685"/>
<path d="M199.177 160.126C198.71 160.139 198.247 160.046 197.82 159.855C197.436 159.677 197.104 159.404 196.854 159.062C196.634 158.751 196.484 158.395 196.415 158.02C196.411 157.997 196.412 157.974 196.417 157.951C196.422 157.928 196.432 157.907 196.445 157.888C196.459 157.869 196.476 157.853 196.496 157.841C196.516 157.828 196.538 157.82 196.561 157.817L197.544 157.665C197.586 157.658 197.629 157.668 197.665 157.691C197.701 157.713 197.727 157.749 197.739 157.79C197.834 158.115 198.034 158.4 198.308 158.6C198.582 158.8 198.914 158.903 199.253 158.894C199.578 158.902 199.897 158.807 200.165 158.623C200.275 158.556 200.365 158.462 200.429 158.351C200.493 158.239 200.527 158.113 200.529 157.985C200.533 157.829 200.477 157.677 200.371 157.562C200.231 157.432 200.062 157.339 199.877 157.29L198.146 156.748C197.147 156.44 196.648 155.83 196.648 154.918C196.638 154.526 196.744 154.139 196.952 153.806C197.161 153.485 197.461 153.232 197.812 153.079C198.63 152.745 199.545 152.745 200.363 153.079C200.715 153.234 201.025 153.472 201.264 153.773C201.478 154.048 201.639 154.36 201.739 154.693C201.746 154.717 201.748 154.742 201.745 154.766C201.742 154.791 201.734 154.814 201.721 154.835C201.709 154.856 201.691 154.874 201.671 154.888C201.651 154.902 201.628 154.911 201.603 154.916L200.586 155.098C200.544 155.103 200.501 155.094 200.465 155.071C200.429 155.048 200.403 155.013 200.39 154.973C200.343 154.83 200.271 154.696 200.179 154.577C200.055 154.42 199.897 154.294 199.717 154.207C199.342 154.034 198.914 154.016 198.526 154.156C198.367 154.215 198.225 154.313 198.113 154.441C198.015 154.555 197.962 154.7 197.961 154.851C197.961 154.935 197.98 155.019 198.017 155.094C198.054 155.17 198.109 155.236 198.176 155.288C198.378 155.438 198.609 155.544 198.854 155.6L200.092 155.95C200.595 156.065 201.058 156.315 201.43 156.674C201.716 157.012 201.863 157.445 201.842 157.887C201.854 158.303 201.738 158.713 201.511 159.062C201.278 159.405 200.954 159.676 200.575 159.844C200.136 160.041 199.658 160.138 199.177 160.126ZM198.504 153.008V152.194C198.504 152.147 198.523 152.102 198.556 152.069C198.589 152.036 198.634 152.018 198.681 152.018H199.652C199.699 152.018 199.744 152.036 199.777 152.069C199.81 152.102 199.829 152.147 199.829 152.194V153.008C199.829 153.031 199.824 153.054 199.815 153.075C199.806 153.096 199.793 153.116 199.777 153.132C199.76 153.148 199.741 153.161 199.719 153.169C199.698 153.178 199.675 153.182 199.652 153.182H198.681C198.658 153.182 198.635 153.178 198.613 153.169C198.592 153.161 198.572 153.148 198.556 153.132C198.54 153.116 198.527 153.096 198.518 153.075C198.509 153.054 198.504 153.031 198.504 153.008ZM198.504 160.78V159.966C198.505 159.92 198.524 159.875 198.557 159.843C198.59 159.81 198.634 159.792 198.681 159.792H199.652C199.698 159.792 199.743 159.81 199.776 159.843C199.809 159.875 199.828 159.92 199.829 159.966V160.78C199.828 160.826 199.809 160.871 199.776 160.903C199.743 160.936 199.698 160.954 199.652 160.954H198.681C198.634 160.954 198.59 160.936 198.557 160.903C198.524 160.871 198.505 160.826 198.504 160.78Z" fill="#7200D5"/>
<path d="M207.325 162.398C209.827 159.896 211.338 157.35 210.7 156.712C210.061 156.073 207.515 157.584 205.013 160.086C202.511 162.588 201 165.134 201.639 165.773C202.277 166.411 204.823 164.9 207.325 162.398Z" fill="#7200D5"/>
<path d="M208.821 163.88C206.593 166.107 203.832 167.954 203.067 167.19L203.2 167.057C203.726 167.583 206.057 166.378 208.689 163.746C211.321 161.114 212.527 158.783 212.001 158.256L212.133 158.124C212.897 158.889 211.051 161.649 208.823 163.877L208.821 163.88Z" fill="#7200D5"/>
<path d="M201.776 165.635L201.643 165.768L203.102 167.226L203.234 167.094L201.776 165.635Z" fill="#7200D5"/>
<path d="M210.671 156.667L210.538 156.799L211.997 158.258L212.13 158.126L210.671 156.667Z" fill="#7200D5"/>
<path d="M203.348 165.366L203.216 165.499L204.675 166.957L204.807 166.825L203.348 165.366Z" fill="#7200D5"/>
<path d="M204.847 164.47L204.715 164.603L206.174 166.062L206.306 165.929L204.847 164.47Z" fill="#7200D5"/>
</g>
<defs>
<linearGradient id="paint0_linear_440_541" x1="90.1771" y1="-0.888882" x2="216.739" y2="107.61" gradientUnits="userSpaceOnUse">
<stop stop-color="#D8B4FE"/>
<stop offset="1" stop-color="white"/>
</linearGradient>
<clipPath id="clip0_440_541">
<rect width="400" height="200" fill="white"/>
</clipPath>
</defs>
</svg>
