<svg width="400" height="200" viewBox="0 0 400 200" fill="none" xmlns="http://www.w3.org/2000/svg">
<rect width="400" height="200" fill="white"/>
<path d="M182.826 91.7331C183.019 93.6301 183.127 95.5526 183.145 97.4965L182.573 97.5018C182.575 97.6933 182.576 97.885 182.576 98.0769C182.576 98.2688 182.575 98.4605 182.573 98.652L183.145 98.6573C183.127 100.601 183.019 102.524 182.826 104.421L182.257 104.363C182.218 104.744 182.176 105.124 182.13 105.503L182.698 105.572C182.465 107.499 182.143 109.398 181.737 111.265L181.178 111.144C181.097 111.517 181.012 111.889 180.924 112.26L181.481 112.392C181.033 114.277 180.5 116.128 179.885 117.941L179.343 117.758C179.22 118.119 179.094 118.479 178.965 118.837L179.503 119.031C178.848 120.85 178.109 122.63 177.291 124.365L176.774 124.121C176.611 124.467 176.445 124.81 176.277 125.152L176.789 125.406C175.934 127.137 175 128.822 173.992 130.457L173.505 130.157C173.304 130.482 173.101 130.805 172.895 131.126L173.376 131.435C172.333 133.058 171.216 134.628 170.031 136.142L169.58 135.789C169.345 136.089 169.107 136.387 168.866 136.683L169.31 137.044C168.094 138.539 166.809 139.975 165.461 141.349L165.052 140.948C164.785 141.22 164.515 141.49 164.243 141.758L164.644 142.166C163.27 143.514 161.834 144.799 160.339 146.015L159.978 145.571C159.682 145.812 159.384 146.05 159.084 146.286L159.436 146.736C157.923 147.922 156.352 149.038 154.73 150.081L154.421 149.6C154.1 149.806 153.777 150.01 153.452 150.21L153.752 150.697C152.117 151.705 150.432 152.639 148.701 153.495L148.447 152.982C148.105 153.151 147.762 153.316 147.416 153.479L147.66 153.997C145.925 154.814 144.145 155.553 142.326 156.209L142.132 155.671C141.773 155.8 141.414 155.926 141.052 156.048L141.236 156.59C139.423 157.205 137.572 157.739 135.687 158.186L135.555 157.629C135.184 157.717 134.812 157.802 134.438 157.883L134.56 158.442C132.692 158.848 130.793 159.17 128.867 159.403L128.798 158.835C128.419 158.881 128.039 158.923 127.657 158.962L127.716 159.531C125.818 159.725 123.896 159.832 121.952 159.85L121.947 159.278C121.755 159.28 121.564 159.281 121.372 159.281C121.18 159.281 120.988 159.28 120.797 159.278L120.791 159.85C118.847 159.832 116.925 159.725 115.028 159.531L115.086 158.962C114.705 158.923 114.324 158.881 113.945 158.835L113.876 159.403C111.95 159.17 110.051 158.848 108.184 158.442L108.305 157.883C107.932 157.802 107.559 157.717 107.188 157.629L107.056 158.186C105.172 157.739 103.321 157.205 101.507 156.59L101.691 156.048C101.33 155.926 100.97 155.8 100.612 155.671L100.418 156.209C98.5986 155.553 96.8189 154.814 95.0835 153.997L95.3272 153.479C94.9818 153.317 94.6381 153.151 94.2963 152.982L94.0429 153.495C92.3117 152.639 90.6264 151.705 88.9916 150.697L89.2918 150.21C88.9668 150.01 88.6438 149.806 88.3228 149.6L88.0135 150.081C86.3911 149.038 84.8207 147.922 83.307 146.736L83.6597 146.286C83.3593 146.05 83.0612 145.812 82.7654 145.571L82.4043 146.015C80.9099 144.799 79.4735 143.514 78.0998 142.166L78.5005 141.758C78.2282 141.49 77.9584 141.22 77.6911 140.948L77.2829 141.349C75.9345 139.975 74.6498 138.539 73.4336 137.044L73.8772 136.683C73.6365 136.387 73.3984 136.089 73.1631 135.789L72.7128 136.142C71.527 134.628 70.4103 133.058 69.3674 131.435L69.8486 131.126C69.6423 130.805 69.4389 130.482 69.2385 130.157L68.7516 130.457C67.7435 128.822 66.8094 127.137 65.9541 125.406L66.4669 125.152C66.298 124.81 66.1322 124.467 65.9695 124.121L65.452 124.365C64.6348 122.63 63.8959 120.85 63.24 119.031L63.7781 118.837C63.649 118.479 63.5231 118.119 63.4005 117.758L62.8589 117.941C62.2434 116.128 61.7099 114.277 61.2628 112.392L61.8193 112.26C61.7313 111.889 61.6467 111.517 61.5655 111.144L61.0065 111.265C60.6004 109.398 60.2788 107.499 60.0458 105.572L60.6137 105.503C60.5678 105.124 60.5254 104.744 60.4865 104.363L59.9175 104.421C59.7239 102.524 59.6163 100.601 59.5984 98.6573L60.1703 98.652C60.1686 98.4605 60.1677 98.2688 60.1677 98.0769C60.1677 97.885 60.1686 97.6933 60.1703 97.5018L59.5984 97.4965C59.6163 95.5526 59.7239 93.6301 59.9175 91.7331L60.4865 91.7911C60.5254 91.4098 60.5678 91.0295 60.6137 90.6503L60.0458 90.5817C60.2788 88.6553 60.6004 86.7562 61.0066 84.8887L61.5655 85.0102C61.6467 84.6368 61.7313 84.2645 61.8193 83.8937L61.2628 83.7616C61.7099 81.877 62.2434 80.0257 62.8589 78.2124L63.4005 78.3962C63.5231 78.0349 63.649 77.6752 63.7781 77.317L63.24 77.123C63.8959 75.3037 64.6348 73.5241 65.452 71.7886L65.9695 72.0323C66.1322 71.6869 66.298 71.3433 66.4669 71.0015L65.9541 70.7481C66.8094 69.0169 67.7435 67.3316 68.7516 65.6967L69.2385 65.997C69.4389 65.672 69.6423 65.349 69.8486 65.028L69.3674 64.7187C70.4103 63.0963 71.527 61.5259 72.7128 60.0121L73.1631 60.3649C73.3984 60.0645 73.6365 59.7664 73.8772 59.4705L73.4336 59.1095C74.6498 57.6151 75.9345 56.1786 77.2829 54.805L77.6911 55.2056C77.9584 54.9333 78.2282 54.6635 78.5005 54.3963L78.0998 53.9881C79.4735 52.6397 80.9099 51.355 82.4043 50.1387L82.7654 50.5824C83.0612 50.3416 83.3593 50.1035 83.6597 49.8682L83.307 49.418C84.8207 48.2321 86.3911 47.1154 88.0135 46.0726L88.3228 46.5537C88.6438 46.3474 88.9668 46.1441 89.2918 45.9436L88.9916 45.4568C90.6264 44.4486 92.3117 43.5145 94.0429 42.6592L94.2963 43.172C94.6381 43.0031 94.9818 42.8373 95.3272 42.6746L95.0835 42.1572C96.8189 41.3399 98.5986 40.601 100.418 39.9451L100.612 40.4832C100.97 40.3541 101.33 40.2282 101.691 40.1056L101.507 39.564C103.321 38.9485 105.172 38.415 107.056 37.9679L107.188 38.5244C107.559 38.4364 107.932 38.3518 108.305 38.2706L108.184 37.7116C110.051 37.3055 111.95 36.9839 113.876 36.7509L113.945 37.3187C114.324 37.2729 114.705 37.2305 115.086 37.1916L115.028 36.6225C116.925 36.429 118.847 36.3213 120.791 36.3035L120.797 36.8754C120.988 36.8737 121.18 36.8728 121.372 36.8728C121.564 36.8728 121.755 36.8737 121.947 36.8754L121.952 36.3035C123.896 36.3213 125.818 36.429 127.716 36.6225L127.657 37.1916C128.039 37.2305 128.419 37.2729 128.798 37.3187L128.867 36.7509C130.793 36.9839 132.692 37.3055 134.56 37.7116L134.438 38.2706C134.812 38.3518 135.184 38.4364 135.555 38.5244L135.687 37.9679C137.572 38.415 139.423 38.9485 141.236 39.564L141.052 40.1056C141.414 40.2282 141.773 40.3541 142.132 40.4832L142.326 39.9451C144.145 40.601 145.925 41.3399 147.66 42.1572L147.416 42.6746C147.762 42.8373 148.105 43.0031 148.447 43.172L148.7 42.6592C150.432 43.5145 152.117 44.4486 153.752 45.4568L153.452 45.9436C153.777 46.1441 154.1 46.3474 154.421 46.5537L154.73 46.0726C156.352 47.1154 157.923 48.2321 159.436 49.418L159.084 49.8682C159.384 50.1035 159.682 50.3416 159.978 50.5824L160.339 50.1387C161.834 51.355 163.27 52.6397 164.644 53.9881L164.243 54.3963C164.515 54.6635 164.785 54.9333 165.052 55.2056L165.461 54.805C166.809 56.1786 168.094 57.6151 169.31 59.1095L168.866 59.4705C169.107 59.7664 169.345 60.0645 169.58 60.3649L170.031 60.0121C171.216 61.5259 172.333 63.0963 173.376 64.7187L172.895 65.028C173.101 65.349 173.304 65.672 173.505 65.997L173.992 65.6967C175 67.3316 175.934 69.0169 176.789 70.7481L176.277 71.0015C176.445 71.3433 176.611 71.6869 176.774 72.0323L177.291 71.7886C178.109 73.5241 178.848 75.3037 179.503 77.123L178.965 77.317C179.094 77.6752 179.22 78.0349 179.343 78.3962L179.885 78.2124C180.5 80.0257 181.033 81.877 181.481 83.7616L180.924 83.8937C181.012 84.2646 181.097 84.6368 181.178 85.0103L181.737 84.8887C182.143 86.7562 182.465 88.6553 182.698 90.5817L182.13 90.6503C182.176 91.0295 182.218 91.4098 182.257 91.7911L182.826 91.7331Z" stroke="black" stroke-width="1.144" stroke-linejoin="round" stroke-dasharray="1.14 5.72"/>
<path d="M215 152.107L235.878 152.107C239.037 152.107 241.598 149.546 241.598 146.387L241.598 49.7194C241.598 46.5604 239.037 43.9994 235.878 43.9994L215 43.9994" stroke="#6900F2" stroke-width="0.572001"/>
<path d="M108.788 22L133.032 22C136.07 22 138.532 24.4623 138.532 27.4998L138.532 38.6996C138.532 41.737 136.07 44.1994 133.032 44.1994L108.788 44.1994C105.751 44.1994 103.288 41.7371 103.288 38.6996L103.288 27.4998C103.288 24.4623 105.751 22 108.788 22Z" fill="white" stroke="black" stroke-width="1.144" stroke-miterlimit="10"/>
<path d="M126.752 34.6547C125.671 34.6547 124.796 33.7788 124.796 32.6984C124.796 31.618 125.671 30.7422 126.752 30.7422C127.832 30.7422 128.708 31.618 128.708 32.6984C128.708 33.7788 127.832 34.6547 126.752 34.6547Z" fill="black"/>
<path d="M113.794 34.4008C112.713 34.4008 111.838 33.5249 111.838 32.4445C111.838 31.3641 112.713 30.4883 113.794 30.4883C114.874 30.4883 115.75 31.3641 115.75 32.4445C115.75 33.5249 114.874 34.4008 113.794 34.4008Z" fill="black"/>
<path d="M143.234 30.7261L138.77 30.7261L138.77 34.141L143.234 34.141C143.689 34.141 144.126 33.9602 144.448 33.6384C144.769 33.3166 144.95 32.8801 144.95 32.425C144.95 31.9699 144.769 31.5334 144.448 31.2116C144.126 30.8898 143.689 30.709 143.234 30.709L143.234 30.7261Z" fill="black"/>
<path d="M98.8215 34.0215L103.286 34.0215L103.286 30.6066L98.8215 30.6066C98.3664 30.6066 97.9299 30.7874 97.6081 31.1092C97.2863 31.4311 97.1055 31.8675 97.1055 32.3226C97.11 32.7748 97.2928 33.2068 97.6141 33.525C97.9354 33.8431 98.3693 34.0215 98.8215 34.0215Z" fill="black"/>
<path d="M139.244 49.1699L101.638 49.1699C100.349 49.1699 99.1122 49.6822 98.2004 50.594C97.2886 51.5058 96.7763 52.7425 96.7763 54.0319C96.7763 58.0521 98.3733 61.9076 101.216 64.7503C104.059 67.593 107.914 69.19 111.934 69.19L132.163 69.19C133.943 69.19 135.706 68.839 137.351 68.157C138.996 67.4751 140.49 66.4756 141.748 65.2157C143.006 63.9558 144.003 62.4602 144.683 60.8146C145.362 59.1689 145.711 57.4054 145.708 55.625C145.706 53.9122 145.024 52.2703 143.812 51.06C142.6 49.8497 140.957 49.1699 139.244 49.1699Z" fill="black"/>
<path d="M47.0119 77.4844L71.2561 77.4844C74.2935 77.4844 76.7559 79.9467 76.7559 82.9842L76.7559 94.184C76.7559 97.2214 74.2935 99.6838 71.2561 99.6838L47.0119 99.6838C43.9745 99.6838 41.5121 97.2214 41.5121 94.184L41.5121 82.9842C41.5121 79.9467 43.9744 77.4844 47.0119 77.4844Z" fill="white" stroke="#00FFB1" stroke-width="1.144" stroke-miterlimit="10"/>
<path d="M64.9754 90.1391C63.895 90.1391 63.0192 89.2632 63.0192 88.1828C63.0192 87.1024 63.895 86.2266 64.9754 86.2266C66.0558 86.2266 66.9316 87.1024 66.9316 88.1828C66.9316 89.2632 66.0558 90.1391 64.9754 90.1391Z" fill="#00FFB1"/>
<path d="M52.0174 89.8851C50.937 89.8851 50.0612 89.0093 50.0612 87.9289C50.0612 86.8485 50.937 85.9727 52.0174 85.9727C53.0978 85.9727 53.9736 86.8485 53.9736 87.9289C53.9736 89.0093 53.0978 89.8851 52.0174 89.8851Z" fill="#00FFB1"/>
<path d="M81.4578 86.2105L76.9934 86.2105L76.9934 89.6254L81.4578 89.6254C81.9129 89.6254 82.3494 89.4446 82.6712 89.1228C82.993 88.801 83.1738 88.3645 83.1738 87.9094C83.1738 87.4543 82.993 87.0178 82.6712 86.696C82.3494 86.3742 81.9129 86.1934 81.4578 86.1934L81.4578 86.2105Z" fill="#00FFB1"/>
<path d="M37.0451 89.5059L41.5095 89.5059L41.5095 86.091L37.0451 86.091C36.59 86.091 36.1535 86.2718 35.8317 86.5936C35.5099 86.9154 35.3291 87.3519 35.3291 87.807C35.3336 88.2591 35.5164 88.6912 35.8377 89.0093C36.159 89.3274 36.5929 89.5059 37.0451 89.5059Z" fill="#00FFB1"/>
<path d="M77.468 104.654L39.8619 104.654C38.5725 104.654 37.3358 105.167 36.424 106.078C35.5122 106.99 34.9999 108.227 34.9999 109.516C34.9999 113.536 36.5969 117.392 39.4396 120.235C42.2823 123.077 46.1378 124.674 50.1579 124.674L70.3867 124.674C72.1671 124.674 73.9301 124.323 75.5747 123.641C77.2194 122.959 78.7135 121.96 79.9715 120.7C81.2295 119.44 82.2268 117.945 82.9063 116.299C83.5858 114.653 83.9343 112.89 83.9316 111.109C83.9294 109.397 83.2474 107.755 82.0355 106.544C80.8235 105.334 79.1808 104.654 77.468 104.654Z" fill="#00FFB1"/>
<path d="M108.216 122.672L132.46 122.672C135.498 122.672 137.96 125.134 137.96 128.172L137.96 139.371C137.96 142.409 135.498 144.871 132.46 144.871L108.216 144.871C105.179 144.871 102.716 142.409 102.716 139.371L102.716 128.172C102.716 125.134 105.179 122.672 108.216 122.672Z" fill="white" stroke="#03FF0F" stroke-width="1.144" stroke-miterlimit="10"/>
<path d="M126.18 135.327C125.099 135.327 124.223 134.451 124.223 133.37C124.223 132.29 125.099 131.414 126.18 131.414C127.26 131.414 128.136 132.29 128.136 133.37C128.136 134.451 127.26 135.327 126.18 135.327Z" fill="#03FF81"/>
<path d="M113.221 135.073C112.141 135.073 111.265 134.197 111.265 133.116C111.265 132.036 112.141 131.16 113.221 131.16C114.302 131.16 115.178 132.036 115.178 133.116C115.178 134.197 114.302 135.073 113.221 135.073Z" fill="#03FF81"/>
<path d="M142.662 131.398L138.197 131.398L138.197 134.813L142.662 134.813C143.117 134.813 143.554 134.632 143.875 134.31C144.197 133.988 144.378 133.552 144.378 133.097C144.378 132.642 144.197 132.205 143.875 131.883C143.554 131.562 143.117 131.381 142.662 131.381L142.662 131.398Z" fill="#03FF81"/>
<path d="M98.2492 134.693L102.714 134.693L102.714 131.279L98.2492 131.279C97.7941 131.279 97.3576 131.459 97.0358 131.781C96.714 132.103 96.5332 132.539 96.5332 132.995C96.5377 133.447 96.7205 133.879 97.0418 134.197C97.3632 134.515 97.797 134.693 98.2492 134.693Z" fill="#03FF81"/>
<path d="M138.672 149.842L101.066 149.842C99.7766 149.842 98.5399 150.354 97.6281 151.266C96.7163 152.178 96.204 153.414 96.204 154.704C96.204 158.724 97.801 162.579 100.644 165.422C103.486 168.265 107.342 169.862 111.362 169.862L131.591 169.862C133.371 169.862 135.134 169.511 136.779 168.829C138.423 168.147 139.918 167.147 141.176 165.888C142.434 164.628 143.431 163.132 144.11 161.486C144.79 159.841 145.138 158.077 145.136 156.297C145.133 154.584 144.451 152.942 143.24 151.732C142.028 150.522 140.385 149.842 138.672 149.842Z" fill="#03FF81"/>
<path d="M165.416 77.4844L189.66 77.4844C192.698 77.4844 195.16 79.9467 195.16 82.9842L195.16 94.184C195.16 97.2214 192.698 99.6838 189.66 99.6838L165.416 99.6838C162.379 99.6838 159.916 97.2214 159.916 94.184L159.916 82.9842C159.916 79.9467 162.379 77.4844 165.416 77.4844Z" fill="white" stroke="#7200D6" stroke-width="1.144" stroke-miterlimit="10"/>
<path d="M183.38 90.1391C182.299 90.1391 181.423 89.2632 181.423 88.1828C181.423 87.1024 182.299 86.2266 183.38 86.2266C184.46 86.2266 185.336 87.1024 185.336 88.1828C185.336 89.2632 184.46 90.1391 183.38 90.1391Z" fill="#7200D6"/>
<path d="M170.422 89.8851C169.341 89.8851 168.465 89.0093 168.465 87.9289C168.465 86.8485 169.341 85.9727 170.422 85.9727C171.502 85.9727 172.378 86.8485 172.378 87.9289C172.378 89.0093 171.502 89.8851 170.422 89.8851Z" fill="#7200D6"/>
<path d="M199.862 86.2105L195.398 86.2105L195.398 89.6254L199.862 89.6254C200.317 89.6254 200.754 89.4446 201.076 89.1228C201.397 88.801 201.578 88.3645 201.578 87.9094C201.578 87.4543 201.397 87.0178 201.076 86.696C200.754 86.3742 200.317 86.1934 199.862 86.1934L199.862 86.2105Z" fill="#7200D6"/>
<path d="M155.449 89.5059L159.914 89.5059L159.914 86.091L155.449 86.091C154.994 86.091 154.558 86.2718 154.236 86.5936C153.914 86.9154 153.733 87.3519 153.733 87.807C153.738 88.2591 153.921 88.6912 154.242 89.0093C154.563 89.3274 154.997 89.5059 155.449 89.5059Z" fill="#7200D6"/>
<path d="M195.872 104.654L158.266 104.654C156.977 104.654 155.74 105.167 154.828 106.078C153.916 106.99 153.404 108.227 153.404 109.516C153.404 113.536 155.001 117.392 157.844 120.235C160.687 123.077 164.542 124.674 168.562 124.674L188.791 124.674C190.571 124.674 192.334 124.323 193.979 123.641C195.624 122.959 197.118 121.96 198.376 120.7C199.634 119.44 200.631 117.945 201.311 116.299C201.99 114.653 202.339 112.89 202.336 111.109C202.334 109.397 201.652 107.755 200.44 106.544C199.228 105.334 197.585 104.654 195.872 104.654Z" fill="#7200D6"/>
<line x1="242" y1="97.714" x2="302" y2="97.714" stroke="#6900F2" stroke-width="0.572001"/>
<rect x="302" y="75.2891" width="44.044" height="44.0441" rx="4.576" fill="#6900F2"/>
<rect x="302.143" y="73.143" width="43.758" height="43.7581" rx="4.433" fill="white" stroke="#6900F2" stroke-width="0.286"/>
<path d="M312.976 95.8121C311.991 95.8384 311.014 95.6429 310.116 95.2401C309.306 94.866 308.605 94.2911 308.079 93.5698C307.616 92.9129 307.3 92.1637 307.153 91.3734C307.144 91.3249 307.146 91.2753 307.157 91.2274C307.168 91.1795 307.189 91.1343 307.218 91.0944C307.246 91.0545 307.283 91.0207 307.324 90.995C307.366 90.9692 307.413 90.952 307.461 90.9444L309.532 90.624C309.621 90.6107 309.712 90.6301 309.787 90.6784C309.863 90.7268 309.919 90.8009 309.944 90.8872C310.144 91.5736 310.565 92.1744 311.143 92.5957C311.72 93.0169 312.421 93.2348 313.136 93.2152C313.821 93.232 314.493 93.0317 315.058 92.6432C315.289 92.5021 315.48 92.3049 315.614 92.0698C315.748 91.8347 315.82 91.5696 315.824 91.299C315.834 90.9697 315.715 90.6495 315.492 90.4067C315.198 90.1333 314.84 89.9368 314.451 89.8347L310.802 88.6907C308.697 88.0424 307.645 86.7573 307.645 84.8354C307.624 84.0078 307.847 83.1923 308.285 82.4902C308.727 81.8129 309.357 81.28 310.098 80.9572C311.822 80.2546 313.752 80.2546 315.475 80.9572C316.218 81.284 316.869 81.7866 317.374 82.4216C317.826 82.9998 318.166 83.6575 318.375 84.3606C318.391 84.4103 318.395 84.4626 318.389 84.5142C318.383 84.5658 318.365 84.6154 318.338 84.6597C318.311 84.7041 318.275 84.7422 318.232 84.7715C318.189 84.8008 318.14 84.8206 318.089 84.8297L315.944 85.2129C315.856 85.225 315.765 85.2052 315.69 85.157C315.615 85.1088 315.559 85.0354 315.532 84.9498C315.432 84.6481 315.281 84.3657 315.086 84.1147C314.826 83.7845 314.493 83.5183 314.114 83.3367C313.324 82.972 312.422 82.9329 311.603 83.2281C311.268 83.3528 310.969 83.5593 310.733 83.8287C310.527 84.0691 310.413 84.3755 310.413 84.6924C310.411 84.8705 310.452 85.0465 310.53 85.2063C310.608 85.3662 310.723 85.5056 310.865 85.6133C311.29 85.93 311.778 86.1541 312.295 86.2711L314.903 87.009C315.965 87.2512 316.94 87.7793 317.723 88.5362C318.326 89.2477 318.637 90.1615 318.593 91.0931C318.617 91.9704 318.374 92.8343 317.895 93.5698C317.403 94.2922 316.72 94.8628 315.921 95.2172C314.996 95.6336 313.99 95.8369 312.976 95.8121ZM311.557 80.8085V79.0925C311.557 78.9939 311.596 78.8993 311.666 78.8296C311.736 78.7599 311.83 78.7207 311.929 78.7207H313.977C314.075 78.7207 314.17 78.7599 314.239 78.8296C314.309 78.8993 314.348 78.9939 314.348 79.0925V80.8085C314.348 80.8571 314.339 80.9051 314.32 80.9499C314.301 80.9947 314.274 81.0353 314.239 81.0694C314.205 81.1035 314.164 81.1303 314.118 81.1484C314.073 81.1664 314.025 81.1753 313.977 81.1746H311.929C311.88 81.1753 311.832 81.1664 311.787 81.1484C311.742 81.1303 311.701 81.1035 311.666 81.0694C311.632 81.0353 311.604 80.9947 311.585 80.9499C311.567 80.9051 311.557 80.8571 311.557 80.8085ZM311.557 97.1906V95.4746C311.559 95.377 311.598 95.2839 311.668 95.2154C311.737 95.1469 311.831 95.1085 311.929 95.1085H313.977C314.074 95.1085 314.168 95.1469 314.237 95.2154C314.307 95.2839 314.347 95.377 314.348 95.4746V97.1906C314.347 97.2882 314.307 97.3813 314.237 97.4498C314.168 97.5183 314.074 97.5567 313.977 97.5567H311.929C311.831 97.5567 311.737 97.5183 311.668 97.4498C311.598 97.3813 311.559 97.2882 311.557 97.1906Z" fill="#7200D5"/>
<path d="M330.15 100.601C335.424 95.3269 338.609 89.9606 337.263 88.615C335.917 87.2693 330.551 90.4539 325.277 95.7279C320.003 101.002 316.818 106.368 318.164 107.714C319.51 109.059 324.876 105.875 330.15 100.601Z" fill="#7200D5"/>
<path d="M333.302 103.724C328.607 108.42 322.787 112.313 321.176 110.701L321.455 110.422C322.564 111.531 327.478 108.99 333.026 103.443C338.573 97.895 341.114 92.9807 340.005 91.8717L340.284 91.5926C341.896 93.204 338.003 99.0234 333.307 103.719L333.302 103.724Z" fill="#7200D5"/>
<path d="M318.453 107.424L318.174 107.703L321.249 110.778L321.528 110.499L318.453 107.424Z" fill="#7200D5"/>
<path d="M337.202 88.5217L336.923 88.8008L339.998 91.8755L340.277 91.5964L337.202 88.5217Z" fill="#7200D5"/>
<path d="M321.767 106.858L321.488 107.137L324.563 110.211L324.842 109.932L321.767 106.858Z" fill="#7200D5"/>
<path d="M324.928 104.969L324.648 105.248L327.723 108.323L328.002 108.044L324.928 104.969Z" fill="#7200D5"/>
</svg>
