<svg width="175" height="180" viewBox="0 0 175 180" fill="none" xmlns="http://www.w3.org/2000/svg">
<g clip-path="url(#clip0_440_541)">
<rect y="4.35324" width="175" height="175" rx="26.1194" fill="#7200D6"/>
<rect x="0.5" y="0.5" width="174" height="174" rx="25.6194" fill="white" stroke="#DCDCDC"/>
<path d="M113.17 60.5952C113.246 61.3436 113.289 62.102 113.296 62.8689L113.07 62.871C113.071 62.9465 113.071 63.0222 113.071 63.0979C113.071 63.1736 113.071 63.2492 113.07 63.3248L113.296 63.3268C113.289 64.0937 113.246 64.8522 113.17 65.6006L112.945 65.5777C112.93 65.7281 112.913 65.8781 112.895 66.0277L113.119 66.0548C113.027 66.8148 112.9 67.564 112.74 68.3008L112.52 68.2528C112.488 68.4002 112.454 68.547 112.419 68.6933L112.639 68.7454C112.463 69.4889 112.252 70.2193 112.009 70.9347L111.796 70.8621C111.747 71.0047 111.698 71.1466 111.647 71.2879L111.859 71.3644C111.6 72.0821 111.309 72.7842 110.986 73.4689L110.782 73.3728C110.718 73.509 110.653 73.6446 110.586 73.7794L110.788 73.8794C110.451 74.5624 110.082 75.2273 109.685 75.8722L109.493 75.7538C109.413 75.882 109.333 76.0094 109.252 76.1361L109.442 76.2581C109.03 76.8981 108.59 77.5177 108.122 78.1149L107.944 77.9757C107.851 78.0942 107.757 78.2118 107.663 78.3285L107.838 78.471C107.358 79.0605 106.851 79.6272 106.319 80.1692L106.158 80.0111C106.052 80.1185 105.946 80.225 105.839 80.3304L105.997 80.4914C105.455 81.0234 104.888 81.5302 104.298 82.0101L104.156 81.835C104.039 81.93 103.922 82.0239 103.803 82.1168L103.942 82.2944C103.345 82.7622 102.726 83.2028 102.086 83.6142L101.964 83.4244C101.837 83.5058 101.709 83.586 101.581 83.6651L101.7 83.8572C101.055 84.2549 100.39 84.6234 99.7069 84.9608L99.6069 84.7585C99.4721 84.8251 99.3365 84.8906 99.2003 84.9547L99.2964 85.1589C98.6117 85.4813 97.9096 85.7728 97.1919 86.0316L97.1154 85.8193C96.9741 85.8702 96.8322 85.9199 96.6896 85.9682L96.7622 86.1819C96.0468 86.4247 95.3164 86.6352 94.5729 86.8116L94.5208 86.592C94.3745 86.6268 94.2277 86.6601 94.0803 86.6922L94.1283 86.9127C93.3915 87.0729 92.6423 87.1998 91.8823 87.2917L91.8552 87.0677C91.7056 87.0858 91.5556 87.1025 91.4052 87.1179L91.4281 87.3424C90.6797 87.4187 89.9212 87.4612 89.1543 87.4682L89.1523 87.2426C89.0767 87.2433 89.0011 87.2436 88.9254 87.2436C88.8497 87.2436 88.774 87.2433 88.6985 87.2426L88.6964 87.4682C87.9295 87.4612 87.1711 87.4187 86.4226 87.3424L86.4455 87.1179C86.2951 87.1025 86.1451 87.0858 85.9955 87.0677L85.9684 87.2917C85.2084 87.1998 84.4592 87.0729 83.7225 86.9127L83.7704 86.6922C83.6231 86.6601 83.4762 86.6268 83.3299 86.592L83.2778 86.8116C82.5343 86.6352 81.804 86.4247 81.0886 86.1819L81.1611 85.9682C81.0186 85.9199 80.8767 85.8702 80.7353 85.8193L80.6588 86.0316C79.9411 85.7728 79.239 85.4813 78.5543 85.1589L78.6505 84.9547C78.5142 84.8906 78.3786 84.8251 78.2438 84.7585L78.1438 84.9608C77.4609 84.6234 76.796 84.2549 76.151 83.8572L76.2695 83.6651C76.1412 83.586 76.0138 83.5058 75.8872 83.4244L75.7652 83.6142C75.1251 83.2028 74.5055 82.7622 73.9084 82.2944L74.0475 82.1168C73.929 82.0239 73.8114 81.93 73.6947 81.835L73.5523 82.0101C72.9627 81.5302 72.396 81.0234 71.8541 80.4914L72.0122 80.3304C71.9047 80.225 71.7983 80.1185 71.6928 80.0111L71.5318 80.1692C70.9998 79.6272 70.493 79.0605 70.0132 78.471L70.1882 78.3285C70.0932 78.2118 69.9993 78.0942 69.9065 77.9757L69.7288 78.1149C69.261 77.5177 68.8205 76.8981 68.4091 76.2581L68.5989 76.1361C68.5175 76.0094 68.4373 75.882 68.3582 75.7538L68.1661 75.8722C67.7684 75.2273 67.3999 74.5624 67.0624 73.8794L67.2647 73.7794C67.1981 73.6446 67.1327 73.509 67.0685 73.3728L66.8644 73.4689C66.542 72.7842 66.2505 72.0821 65.9917 71.3644L66.204 71.2879C66.1531 71.1466 66.1034 71.0047 66.055 70.8621L65.8413 70.9347C65.5985 70.2193 65.3881 69.4889 65.2117 68.7454L65.4312 68.6933C65.3965 68.547 65.3631 68.4002 65.3311 68.2528L65.1106 68.3008C64.9504 67.564 64.8235 66.8148 64.7316 66.0548L64.9556 66.0277C64.9375 65.8781 64.9208 65.7281 64.9054 65.5777L64.6809 65.6006C64.6046 64.8522 64.5621 64.0937 64.555 63.3268L64.7807 63.3248C64.78 63.2492 64.7796 63.1736 64.7796 63.0979C64.7796 63.0222 64.78 62.9465 64.7807 62.871L64.555 62.8689C64.5621 62.102 64.6046 61.3436 64.6809 60.5952L64.9054 60.6181C64.9208 60.4676 64.9375 60.3176 64.9556 60.168L64.7316 60.1409C64.8235 59.3809 64.9504 58.6317 65.1106 57.895L65.3311 57.9429C65.3631 57.7956 65.3965 57.6487 65.4312 57.5024L65.2117 57.4503C65.3881 56.7068 65.5985 55.9765 65.8413 55.2611L66.055 55.3336C66.1034 55.1911 66.1531 55.0492 66.204 54.9078L65.9917 54.8313C66.2505 54.1136 66.542 53.4115 66.8644 52.7268L67.0685 52.823C67.1327 52.6867 67.1981 52.5511 67.2647 52.4163L67.0624 52.3163C67.3999 51.6333 67.7684 50.9685 68.1661 50.3235L68.3582 50.4419C68.4373 50.3137 68.5175 50.1863 68.5989 50.0597L68.4091 49.9377C68.8205 49.2976 69.261 48.678 69.7288 48.0809L69.9065 48.22C69.9993 48.1015 70.0932 47.9839 70.1882 47.8672L70.0132 47.7247C70.493 47.1352 70.9998 46.5685 71.5318 46.0266L71.6928 46.1846C71.7983 46.0772 71.9047 45.9708 72.0122 45.8653L71.8541 45.7043C72.396 45.1723 72.9627 44.6655 73.5523 44.1857L73.6947 44.3607C73.8114 44.2657 73.929 44.1718 74.0475 44.079L73.9084 43.9013C74.5055 43.4335 75.1251 42.9929 75.7652 42.5815L75.8872 42.7714C76.0138 42.69 76.1412 42.6097 76.2695 42.5307L76.151 42.3386C76.796 41.9409 77.4609 41.5723 78.1438 41.2349L78.2438 41.4372C78.3786 41.3706 78.5142 41.3052 78.6505 41.241L78.5543 41.0368C79.239 40.7144 79.9411 40.4229 80.6588 40.1642L80.7354 40.3765C80.8767 40.3255 81.0186 40.2759 81.1611 40.2275L81.0886 40.0138C81.804 39.771 82.5343 39.5605 83.2778 39.3841L83.3299 39.6037C83.4762 39.569 83.6231 39.5356 83.7704 39.5035L83.7225 39.283C84.4592 39.1228 85.2084 38.9959 85.9684 38.904L85.9955 39.128C86.1451 39.1099 86.2951 39.0932 86.4456 39.0779L86.4227 38.8534C87.1711 38.777 87.9295 38.7346 88.6964 38.7275L88.6985 38.9531C88.774 38.9524 88.8497 38.9521 88.9254 38.9521C89.0011 38.9521 89.0767 38.9525 89.1523 38.9531L89.1543 38.7275C89.9212 38.7346 90.6797 38.777 91.4281 38.8534L91.4052 39.0779C91.5556 39.0932 91.7056 39.1099 91.8552 39.128L91.8823 38.904C92.6423 38.9959 93.3915 39.1228 94.1283 39.283L94.0803 39.5035C94.2277 39.5356 94.3745 39.569 94.5208 39.6037L94.5729 39.3841C95.3164 39.5605 96.0468 39.771 96.7622 40.0138L96.6896 40.2275C96.8322 40.2759 96.9741 40.3255 97.1154 40.3765L97.1919 40.1642C97.9096 40.4229 98.6117 40.7144 99.2964 41.0368L99.2003 41.241C99.3365 41.3052 99.4721 41.3706 99.6069 41.4372L99.7069 41.2349C100.39 41.5723 101.055 41.9409 101.7 42.3386L101.581 42.5307C101.709 42.6097 101.837 42.69 101.964 42.7714L102.086 42.5815C102.726 42.9929 103.345 43.4335 103.942 43.9013L103.803 44.079C103.922 44.1718 104.039 44.2657 104.156 44.3607L104.298 44.1857C104.888 44.6655 105.455 45.1723 105.997 45.7043L105.839 45.8653C105.946 45.9708 106.052 46.0772 106.158 46.1846L106.319 46.0266C106.851 46.5685 107.358 47.1352 107.838 47.7247L107.663 47.8672C107.757 47.9839 107.851 48.1015 107.944 48.22L108.122 48.0809C108.59 48.678 109.03 49.2976 109.442 49.9377L109.252 50.0597C109.333 50.1863 109.413 50.3137 109.493 50.4419L109.685 50.3235C110.082 50.9685 110.451 51.6333 110.788 52.3163L110.586 52.4163C110.653 52.5511 110.718 52.6867 110.782 52.823L110.986 52.7268C111.309 53.4115 111.6 54.1136 111.859 54.8313L111.647 54.9078C111.698 55.0492 111.747 55.1911 111.796 55.3336L112.009 55.2611C112.252 55.9765 112.463 56.7068 112.639 57.4503L112.419 57.5024C112.454 57.6487 112.488 57.7956 112.52 57.9429L112.74 57.895C112.9 58.6317 113.027 59.3809 113.119 60.1409L112.895 60.168C112.913 60.3176 112.93 60.4676 112.945 60.6181L113.17 60.5952Z" stroke="black" stroke-width="0.451322" stroke-linejoin="round" stroke-dasharray="0.45 2.26"/>
<path d="M83.9612 33.0846L93.5258 33.0846C94.7241 33.0846 95.6955 34.056 95.6955 35.2543L95.6955 39.6728C95.6955 40.8711 94.7241 41.8425 93.5258 41.8425L83.9612 41.8425C82.7629 41.8425 81.7914 40.8711 81.7914 39.6728L81.7914 35.2543C81.7914 34.056 82.7629 33.0846 83.9612 33.0846Z" fill="white" stroke="black" stroke-width="0.451322" stroke-miterlimit="10"/>
<path d="M91.0483 38.0771C90.622 38.0771 90.2765 37.7316 90.2765 37.3054C90.2765 36.8791 90.622 36.5336 91.0483 36.5336C91.4745 36.5336 91.82 36.8791 91.82 37.3054C91.82 37.7316 91.4745 38.0771 91.0483 38.0771Z" fill="black"/>
<path d="M85.9356 37.9769C85.5093 37.9769 85.1638 37.6313 85.1638 37.2051C85.1638 36.7789 85.5093 36.4333 85.9356 36.4333C86.3618 36.4333 86.7073 36.7789 86.7073 37.2051C86.7073 37.6313 86.3618 37.9769 85.9356 37.9769Z" fill="black"/>
<path d="M97.5506 36.5272L95.7893 36.5272L95.7893 37.8744L97.5506 37.8744C97.7301 37.8744 97.9023 37.8031 98.0293 37.6761C98.1562 37.5491 98.2275 37.3769 98.2275 37.1974C98.2275 37.0179 98.1562 36.8457 98.0293 36.7187C97.9023 36.5917 97.7301 36.5204 97.5506 36.5204L97.5506 36.5272Z" fill="black"/>
<path d="M80.0295 37.827L81.7907 37.827L81.7907 36.4798L80.0295 36.4798C79.8499 36.4798 79.6777 36.5511 79.5508 36.6781C79.4238 36.805 79.3525 36.9772 79.3525 37.1568C79.3543 37.3352 79.4264 37.5056 79.5531 37.6311C79.6799 37.7566 79.8511 37.827 80.0295 37.827Z" fill="black"/>
<path d="M95.9764 43.8035L81.1403 43.8035C80.6316 43.8035 80.1437 44.0056 79.784 44.3653C79.4243 44.725 79.2222 45.2129 79.2222 45.7216C79.2222 47.3076 79.8522 48.8286 80.9737 49.9501C82.0952 51.0716 83.6162 51.7016 85.2022 51.7016L93.1827 51.7016C93.8851 51.7016 94.5806 51.5631 95.2294 51.2941C95.8783 51.0251 96.4677 50.6308 96.964 50.1337C97.4603 49.6367 97.8538 49.0467 98.1218 48.3974C98.3899 47.7482 98.5274 47.0525 98.5263 46.3501C98.5254 45.6743 98.2564 45.0266 97.7783 44.5491C97.3002 44.0717 96.6521 43.8035 95.9764 43.8035Z" fill="black"/>
<path d="M59.5895 54.9738L69.1541 54.9738C70.3524 54.9738 71.3239 55.9453 71.3239 57.1436L71.3239 61.562C71.3239 62.7604 70.3524 63.7318 69.1541 63.7318L59.5895 63.7318C58.3912 63.7318 57.4198 62.7604 57.4198 61.562L57.4198 57.1436C57.4198 55.9453 58.3912 54.9738 59.5895 54.9738Z" fill="white" stroke="#00FFB1" stroke-width="0.451322" stroke-miterlimit="10"/>
<path d="M66.6763 59.9664C66.2501 59.9664 65.9046 59.6208 65.9046 59.1946C65.9046 58.7684 66.2501 58.4229 66.6763 58.4229C67.1026 58.4229 67.4481 58.7684 67.4481 59.1946C67.4481 59.6208 67.1026 59.9664 66.6763 59.9664Z" fill="#00FFB1"/>
<path d="M61.5639 59.8661C61.1377 59.8661 60.7921 59.5206 60.7921 59.0944C60.7921 58.6681 61.1377 58.3226 61.5639 58.3226C61.9901 58.3226 62.3357 58.6681 62.3357 59.0944C62.3357 59.5206 61.9901 59.8661 61.5639 59.8661Z" fill="#00FFB1"/>
<path d="M73.1789 58.4164L71.4176 58.4164L71.4176 59.7636L73.1789 59.7636C73.3584 59.7636 73.5306 59.6923 73.6576 59.5653C73.7845 59.4384 73.8559 59.2662 73.8559 59.0866C73.8559 58.9071 73.7845 58.7349 73.6576 58.6079C73.5306 58.481 73.3584 58.4096 73.1789 58.4096L73.1789 58.4164Z" fill="#00FFB1"/>
<path d="M55.6575 59.7162L57.4188 59.7162L57.4188 58.369L55.6575 58.369C55.4779 58.369 55.3057 58.4404 55.1788 58.5673C55.0518 58.6943 54.9805 58.8665 54.9805 59.046C54.9823 59.2244 55.0544 59.3949 55.1812 59.5204C55.3079 59.6459 55.4791 59.7163 55.6575 59.7162Z" fill="#00FFB1"/>
<path d="M71.6047 65.6927L56.7686 65.6927C56.2599 65.6927 55.772 65.8948 55.4123 66.2545C55.0526 66.6142 54.8505 67.1021 54.8505 67.6108C54.8505 69.1968 55.4806 70.7179 56.602 71.8393C57.7235 72.9608 59.2445 73.5908 60.8305 73.5908L68.811 73.5908C69.5134 73.5908 70.2089 73.4524 70.8578 73.1833C71.5066 72.9143 72.096 72.52 72.5923 72.0229C73.0886 71.5259 73.4821 70.9359 73.7502 70.2866C74.0182 69.6374 74.1557 68.9417 74.1547 68.2393C74.1538 67.5636 73.8847 66.9158 73.4066 66.4384C72.9285 65.9609 72.2804 65.6927 71.6047 65.6927Z" fill="#00FFB1"/>
<path d="M83.7353 72.8009L93.2999 72.8009C94.4982 72.8009 95.4696 73.7723 95.4696 74.9706L95.4696 79.3891C95.4696 80.5874 94.4982 81.5588 93.2999 81.5588L83.7353 81.5588C82.5369 81.5588 81.5655 80.5874 81.5655 79.3891L81.5655 74.9706C81.5655 73.7723 82.5369 72.8009 83.7353 72.8009Z" fill="white" stroke="#03FF0F" stroke-width="0.451322" stroke-miterlimit="10"/>
<path d="M90.8224 77.7933C90.3962 77.7933 90.0506 77.4478 90.0506 77.0216C90.0506 76.5953 90.3962 76.2498 90.8224 76.2498C91.2486 76.2498 91.5941 76.5953 91.5941 77.0216C91.5941 77.4478 91.2486 77.7933 90.8224 77.7933Z" fill="#03FF81"/>
<path d="M85.7097 77.6932C85.2834 77.6932 84.9379 77.3477 84.9379 76.9214C84.9379 76.4952 85.2834 76.1497 85.7097 76.1497C86.1359 76.1497 86.4814 76.4952 86.4814 76.9214C86.4814 77.3477 86.1359 77.6932 85.7097 77.6932Z" fill="#03FF81"/>
<path d="M97.3247 76.2433L95.5634 76.2433L95.5634 77.5905L97.3247 77.5905C97.5042 77.5905 97.6764 77.5192 97.8034 77.3922C97.9303 77.2653 98.0016 77.0931 98.0016 76.9135C98.0016 76.734 97.9303 76.5618 97.8034 76.4348C97.6764 76.3079 97.5042 76.2365 97.3247 76.2365L97.3247 76.2433Z" fill="#03FF81"/>
<path d="M79.8035 77.5431L81.5648 77.5431L81.5648 76.1959L79.8035 76.1959C79.624 76.1959 79.4518 76.2672 79.3248 76.3942C79.1979 76.5212 79.1266 76.6934 79.1266 76.8729C79.1283 77.0513 79.2004 77.2217 79.3272 77.3472C79.454 77.4727 79.6252 77.5431 79.8035 77.5431Z" fill="#03FF81"/>
<path d="M95.7504 83.5197L80.9144 83.5197C80.4057 83.5197 79.9178 83.7218 79.5581 84.0816C79.1984 84.4413 78.9963 84.9292 78.9963 85.4379C78.9963 87.0239 79.6263 88.5449 80.7478 89.6664C81.8692 90.7879 83.3903 91.4179 84.9763 91.4179L92.9568 91.4179C93.6592 91.4179 94.3547 91.2794 95.0035 91.0104C95.6524 90.7413 96.2418 90.347 96.7381 89.85C97.2344 89.3529 97.6278 88.7629 97.8959 88.1137C98.164 87.4645 98.3014 86.7687 98.3004 86.0663C98.2995 85.3906 98.0305 84.7429 97.5523 84.2654C97.0742 83.7879 96.4262 83.5197 95.7504 83.5197Z" fill="#03FF81"/>
<path d="M106.302 54.9738L115.866 54.9738C117.065 54.9738 118.036 55.9453 118.036 57.1436L118.036 61.562C118.036 62.7604 117.065 63.7318 115.866 63.7318L106.302 63.7318C105.103 63.7318 104.132 62.7604 104.132 61.562L104.132 57.1436C104.132 55.9453 105.103 54.9738 106.302 54.9738Z" fill="white" stroke="#7200D6" stroke-width="0.451322" stroke-miterlimit="10"/>
<path d="M113.389 59.9664C112.962 59.9664 112.617 59.6208 112.617 59.1946C112.617 58.7684 112.962 58.4229 113.389 58.4229C113.815 58.4229 114.16 58.7684 114.16 59.1946C114.16 59.6208 113.815 59.9664 113.389 59.9664Z" fill="#7200D6"/>
<path d="M108.276 59.8661C107.85 59.8661 107.504 59.5206 107.504 59.0944C107.504 58.6681 107.85 58.3226 108.276 58.3226C108.702 58.3226 109.048 58.6681 109.048 59.0944C109.048 59.5206 108.702 59.8661 108.276 59.8661Z" fill="#7200D6"/>
<path d="M119.891 58.4164L118.13 58.4164L118.13 59.7636L119.891 59.7636C120.071 59.7636 120.243 59.6923 120.37 59.5653C120.497 59.4384 120.568 59.2662 120.568 59.0866C120.568 58.9071 120.497 58.7349 120.37 58.6079C120.243 58.481 120.071 58.4096 119.891 58.4096L119.891 58.4164Z" fill="#7200D6"/>
<path d="M102.37 59.7162L104.131 59.7162L104.131 58.369L102.37 58.369C102.19 58.369 102.018 58.4404 101.891 58.5673C101.764 58.6943 101.693 58.8665 101.693 59.046C101.694 59.2244 101.767 59.3949 101.893 59.5204C102.02 59.6459 102.191 59.7163 102.37 59.7162Z" fill="#7200D6"/>
<path d="M118.317 65.6927L103.481 65.6927C102.972 65.6927 102.484 65.8948 102.125 66.2545C101.765 66.6142 101.563 67.1021 101.563 67.6108C101.563 69.1968 102.193 70.7179 103.314 71.8393C104.436 72.9608 105.957 73.5908 107.543 73.5908L115.523 73.5908C116.226 73.5908 116.921 73.4524 117.57 73.1833C118.219 72.9143 118.808 72.52 119.305 72.0229C119.801 71.5259 120.194 70.9359 120.462 70.2866C120.73 69.6374 120.868 68.9417 120.867 68.2393C120.866 67.5636 120.597 66.9158 120.119 66.4384C119.641 65.9609 118.993 65.6927 118.317 65.6927Z" fill="#7200D6"/>
<path d="M60.9453 90.5473V101.57C60.9453 103.237 62.2973 104.589 63.9651 104.589H115C116.667 104.589 118.019 103.237 118.019 101.57V90.5473" stroke="#6900F2" stroke-width="0.30198"/>
<line x1="89.6615" y1="104.802" x2="89.6615" y2="136.478" stroke="#6900F2" stroke-width="0.30198"/>
<rect x="80.9702" y="140.389" width="20.8955" height="20.8956" rx="2.17097" fill="#6900F2"/>
<rect x="81.038" y="139.371" width="20.7598" height="20.7599" rx="2.10312" fill="white" stroke="#6900F2" stroke-width="0.135685"/>
<path d="M86.1772 150.126C85.7103 150.139 85.2466 150.046 84.8204 149.855C84.4361 149.677 84.1035 149.404 83.8543 149.062C83.6344 148.751 83.4845 148.395 83.4147 148.02C83.4108 147.997 83.4115 147.974 83.4168 147.951C83.4221 147.928 83.4318 147.907 83.4455 147.888C83.4591 147.869 83.4763 147.853 83.4962 147.841C83.5161 147.828 83.5382 147.82 83.5612 147.817L84.5436 147.665C84.5857 147.658 84.6287 147.668 84.6647 147.691C84.7006 147.713 84.727 147.749 84.739 147.79C84.8337 148.115 85.0337 148.4 85.3077 148.6C85.5817 148.8 85.9142 148.903 86.2532 148.894C86.5782 148.902 86.8973 148.807 87.165 148.623C87.2746 148.556 87.3654 148.462 87.429 148.351C87.4925 148.239 87.5268 148.113 87.5287 147.985C87.5334 147.829 87.4769 147.677 87.3713 147.562C87.2315 147.432 87.0618 147.339 86.8774 147.29L85.146 146.748C84.1474 146.44 83.6481 145.83 83.6481 144.918C83.6382 144.526 83.7439 144.139 83.952 143.806C84.1615 143.485 84.4606 143.232 84.8122 143.079C85.6299 142.745 86.5455 142.745 87.3631 143.079C87.7153 143.234 88.0246 143.472 88.2641 143.773C88.4784 144.048 88.6395 144.36 88.739 144.693C88.7463 144.717 88.7485 144.742 88.7455 144.766C88.7424 144.791 88.7342 144.814 88.7214 144.835C88.7085 144.856 88.6914 144.874 88.671 144.888C88.6507 144.902 88.6276 144.911 88.6033 144.916L87.5856 145.098C87.5436 145.103 87.5008 145.094 87.465 145.071C87.4292 145.048 87.4027 145.013 87.3903 144.973C87.3427 144.83 87.2711 144.696 87.1786 144.577C87.055 144.42 86.8972 144.294 86.7173 144.207C86.3424 144.034 85.9144 144.016 85.5259 144.156C85.3669 144.215 85.2251 144.313 85.1135 144.441C85.0155 144.555 84.9616 144.7 84.9615 144.851C84.9608 144.935 84.9797 145.019 85.017 145.094C85.0542 145.17 85.1086 145.236 85.1759 145.288C85.3777 145.438 85.6088 145.544 85.8543 145.6L87.0917 145.95C87.5955 146.065 88.0581 146.315 88.4296 146.674C88.7157 147.012 88.8631 147.445 88.8421 147.887C88.8537 148.303 88.7382 148.713 88.511 149.062C88.2779 149.405 87.9536 149.676 87.5748 149.844C87.1359 150.041 86.6583 150.138 86.1772 150.126ZM85.5042 143.008V142.194C85.5042 142.147 85.5228 142.102 85.5559 142.069C85.589 142.036 85.6338 142.018 85.6806 142.018H86.6521C86.6989 142.018 86.7438 142.036 86.7769 142.069C86.8099 142.102 86.8285 142.147 86.8285 142.194V143.008C86.8285 143.031 86.8239 143.054 86.815 143.075C86.8061 143.096 86.7931 143.116 86.7767 143.132C86.7603 143.148 86.7408 143.161 86.7194 143.169C86.698 143.178 86.6752 143.182 86.6521 143.182H85.6806C85.6576 143.182 85.6347 143.178 85.6133 143.169C85.5919 143.161 85.5725 143.148 85.5561 143.132C85.5396 143.116 85.5266 143.096 85.5177 143.075C85.5088 143.054 85.5042 143.031 85.5042 143.008ZM85.5042 150.78V149.966C85.5049 149.92 85.5238 149.875 85.5568 149.843C85.5898 149.81 85.6343 149.792 85.6806 149.792H86.6521C86.6984 149.792 86.7429 149.81 86.7759 149.843C86.8089 149.875 86.8278 149.92 86.8285 149.966V150.78C86.8278 150.826 86.8089 150.871 86.7759 150.903C86.7429 150.936 86.6984 150.954 86.6521 150.954H85.6806C85.6343 150.954 85.5898 150.936 85.5568 150.903C85.5238 150.871 85.5049 150.826 85.5042 150.78Z" fill="#7200D5"/>
<path d="M94.3252 152.398C96.8273 149.896 98.3381 147.35 97.6997 146.712C97.0613 146.073 94.5154 147.584 92.0133 150.086C89.5112 152.588 88.0003 155.134 88.6388 155.773C89.2772 156.411 91.8231 154.9 94.3252 152.398Z" fill="#7200D5"/>
<path d="M95.8206 153.88C93.5928 156.107 90.8319 157.954 90.0674 157.19L90.1998 157.057C90.726 157.583 93.0574 156.378 95.6894 153.746C98.3213 151.114 99.5267 148.783 99.0006 148.256L99.133 148.124C99.8975 148.889 98.0507 151.649 95.8229 153.877L95.8206 153.88Z" fill="#7200D5"/>
<path d="M88.7756 155.635L88.6432 155.768L90.102 157.226L90.2344 157.094L88.7756 155.635Z" fill="#7200D5"/>
<path d="M97.6708 146.667L97.5384 146.799L98.9972 148.258L99.1296 148.126L97.6708 146.667Z" fill="#7200D5"/>
<path d="M90.3483 155.366L90.2159 155.499L91.6746 156.957L91.807 156.825L90.3483 155.366Z" fill="#7200D5"/>
<path d="M91.8473 154.47L91.7149 154.603L93.1737 156.062L93.3061 155.929L91.8473 154.47Z" fill="#7200D5"/>
</g>
<defs>
<clipPath id="clip0_440_541">
<rect width="175" height="180" fill="white"/>
</clipPath>
</defs>
</svg>
