<svg width="143" height="36" viewBox="0 0 143 36" fill="none" xmlns="http://www.w3.org/2000/svg">
<g clip-path="url(#clip0_3558_1308)">
<path d="M19.5008 20.7357L17.7714 25.4886C17.6979 25.6299 17.6979 25.7768 17.7714 25.9181L20.795 34.1241L24.248 32.1065L20.0716 20.7357C20.0038 20.4475 19.6421 20.4475 19.5008 20.7357Z" fill="black"/>
<path d="M22.9537 12.6766C22.8802 12.3884 22.5242 12.3884 22.3772 12.6766L20.6479 17.4295C20.5744 17.5708 20.5744 17.7177 20.6479 17.859L25.5421 31.3209L28.9951 29.3033L22.9537 12.6766Z" fill="black"/>
<path d="M16.7653 2.2382C16.8388 2.2382 16.9066 2.2382 16.9801 2.31167L30.2215 9.94118C30.3628 10.0147 30.4363 10.1559 30.4363 10.3707V25.6297C30.4363 25.771 30.3628 25.9914 30.2215 26.0592L16.9801 33.6887C16.9066 33.7622 16.8388 33.7622 16.7653 33.7622C16.6919 33.7622 16.6241 33.7622 16.5506 33.6887L3.30914 26.0592C3.16785 25.9858 3.09438 25.8445 3.09438 25.6297V10.3707C3.09438 10.2294 3.16785 10.009 3.30914 9.94118L16.5506 2.31167C16.6184 2.2382 16.6919 2.2382 16.7653 2.2382ZM16.7653 0.00585938C16.2624 0.00585938 15.8272 0.147147 15.3977 0.367555L2.15624 7.99707C1.29156 8.50005 0.788574 9.36473 0.788574 10.3707V25.6297C0.788574 26.5679 1.29156 27.5004 2.15624 28.0033L15.3977 35.6329C15.8272 35.8476 16.2624 35.9946 16.7653 35.9946C17.2683 35.9946 17.7035 35.8533 18.133 35.6329L31.3745 28.0033C32.2391 27.5004 32.7421 26.6357 32.7421 25.6297V10.3707C32.7421 9.43255 32.2391 8.50005 31.3745 7.99707L18.2008 0.367555C17.7713 0.152798 17.3361 0.00585938 16.8332 0.00585938H16.7653Z" fill="black"/>
<path d="M15.6858 9.2915H12.3006C12.0858 9.2915 11.7976 9.43279 11.7241 9.6532L4.52979 29.3713L7.98285 31.3888L15.9006 9.72102C15.9741 9.50626 15.8271 9.2915 15.6124 9.2915H15.6858Z" fill="black"/>
<path d="M21.5126 9.29145H18.1274C17.9126 9.29145 17.6244 9.43274 17.5509 9.65315L9.35059 32.1065L12.8036 34.1241L21.7274 9.65315C21.8008 9.43839 21.6539 9.22363 21.4391 9.22363L21.5126 9.29145Z" fill="black"/>
<path d="M46.9952 13.394C47.3569 13.394 47.6451 13.4675 47.8599 13.6088C48.0746 13.7501 48.2894 14.0383 48.5098 14.4L52.901 22.3177C52.9745 22.3912 52.9745 22.459 52.901 22.5325C52.901 22.606 52.8275 22.606 52.6862 22.606H51.0303C50.8891 22.606 50.8156 22.5325 50.7421 22.4647L49.7983 20.7353H43.6099L42.6718 22.4647C42.5983 22.606 42.5305 22.606 42.3836 22.606H40.6542C40.5129 22.606 40.4395 22.606 40.4395 22.5325C40.4395 22.459 40.4395 22.3912 40.4395 22.3177L44.7572 14.4C44.9719 13.9705 45.1867 13.7501 45.4071 13.6088C45.6275 13.4675 45.8366 13.394 46.1249 13.394H46.9161H46.9952ZM44.4011 19.2264H48.9336L46.8482 15.3382C46.7748 15.2647 46.7748 15.2647 46.707 15.2647H46.6335C46.56 15.2647 46.4922 15.2647 46.4922 15.3382L44.4011 19.2264Z" fill="black"/>
<path d="M62.4688 13.394C63.4748 13.394 64.1982 13.6088 64.6277 14.1118C65.0572 14.5413 65.2776 15.2647 65.2776 16.1294V16.8471C65.2776 17.6383 65.1363 18.2148 64.8481 18.6443C64.5599 19.0738 64.0569 19.362 63.3392 19.509L65.5715 22.3177C65.645 22.3912 65.645 22.459 65.645 22.5325C65.645 22.606 65.5715 22.6738 65.4302 22.6738H63.7009C63.5596 22.6738 63.4861 22.6738 63.4861 22.6003C63.4126 22.6003 63.4126 22.5269 63.3448 22.459L61.2594 19.7237H57.0151V22.3856C57.0151 22.6003 56.9417 22.6738 56.7269 22.6738H55.2858C55.071 22.6738 54.9976 22.6003 54.9976 22.3856V13.8236C54.9976 13.5353 55.1388 13.394 55.4271 13.394H62.5536H62.4688ZM56.9982 18.1413H62.0337C62.4632 18.1413 62.8249 18.0678 62.9718 17.8531C63.1866 17.6383 63.26 17.3501 63.26 16.9884V16.4119C63.26 15.9824 63.1866 15.6942 62.9718 15.5473C62.7571 15.3325 62.4688 15.259 62.0337 15.259H57.1395C56.9982 15.259 56.9982 15.3325 56.9982 15.4003V18.1413Z" fill="black"/>
<path d="M76.3603 13.394C77.2984 13.394 77.9427 13.6088 78.3044 13.9705C78.6661 14.3322 78.8808 14.9086 78.8808 15.6264V16.2763C78.8808 16.994 78.5926 17.5705 78.0162 17.9322C78.5926 18.2939 78.9543 18.8703 78.9543 19.6615V20.4528C78.9543 20.8145 78.8808 21.1027 78.813 21.3909C78.7452 21.6791 78.5983 21.8939 78.4513 22.1086C78.2366 22.3234 78.0218 22.4703 77.7336 22.5382C77.4454 22.6116 77.0837 22.6794 76.6542 22.6794H68.8099C68.5217 22.6794 68.3804 22.5382 68.3804 22.2499V13.8292C68.3804 13.541 68.5217 13.3997 68.8099 13.3997H76.4394H76.3603V13.394ZM70.3867 17.2088H75.7838C76.2133 17.2088 76.5016 17.1353 76.6485 16.994C76.7954 16.8528 76.8633 16.7058 76.8633 16.4176V15.9881C76.8633 15.6999 76.7898 15.4851 76.6485 15.4116C76.5072 15.2703 76.219 15.1969 75.9308 15.1969H70.5336C70.3923 15.1969 70.3923 15.2703 70.3923 15.3382V17.2088H70.3867ZM70.3867 18.6499V20.594C70.3867 20.7353 70.4601 20.7353 70.5279 20.7353H75.9251C76.2868 20.7353 76.5016 20.6619 76.6429 20.5206C76.7841 20.3793 76.8576 20.1589 76.8576 19.9441V19.4411C76.8576 19.1529 76.7841 18.9382 76.6429 18.7912C76.5016 18.6443 76.2133 18.5765 75.7047 18.5765H70.3132L70.3867 18.6499Z" fill="black"/>
<path d="M83.8431 13.394C84.0579 13.394 84.1313 13.4675 84.1313 13.6823V22.3177C84.1313 22.5325 84.0579 22.606 83.8431 22.606H82.402C82.1872 22.606 82.1138 22.5325 82.1138 22.3177V13.6823C82.1138 13.4675 82.1872 13.394 82.402 13.394H83.8431Z" fill="black"/>
<path d="M97.7344 13.394C97.9492 13.394 98.0226 13.4675 98.0226 13.6823V14.9765C98.0226 15.1912 97.9492 15.2647 97.7344 15.2647H93.5579V22.3177C93.5579 22.5325 93.4845 22.606 93.2697 22.606H91.8286C91.6138 22.606 91.5404 22.5325 91.5404 22.3177V15.2647H87.3639C87.1492 15.2647 87.0757 15.1912 87.0757 14.9765V13.6823C87.0757 13.4675 87.1492 13.394 87.3639 13.394H97.6553H97.7344Z" fill="black"/>
<path d="M108.172 13.394C109.178 13.394 109.902 13.6088 110.331 14.1118C110.761 14.5413 110.981 15.2647 110.981 16.1294V16.8471C110.981 17.6383 110.84 18.2148 110.552 18.6443C110.264 19.0738 109.761 19.362 109.043 19.509L111.275 22.3177C111.349 22.3912 111.349 22.459 111.349 22.5325C111.349 22.606 111.275 22.6738 111.134 22.6738H109.404C109.263 22.6738 109.19 22.6738 109.19 22.6003C109.116 22.6003 109.116 22.5269 109.048 22.459L106.963 19.7237H102.719V22.3856C102.719 22.6003 102.645 22.6738 102.431 22.6738H100.989C100.775 22.6738 100.701 22.6003 100.701 22.3856V13.8236C100.701 13.5353 100.842 13.394 101.131 13.394H108.257H108.172ZM102.702 18.1413H107.737C108.167 18.1413 108.528 18.0678 108.675 17.8531C108.89 17.6383 108.964 17.3501 108.964 16.9884V16.4119C108.964 15.9824 108.89 15.6942 108.675 15.5473C108.461 15.3325 108.172 15.259 107.737 15.259H102.843C102.702 15.259 102.702 15.3325 102.702 15.4003V18.1413Z" fill="black"/>
<path d="M115.587 13.394C115.802 13.394 115.876 13.4675 115.876 13.6823V18.9382C115.876 19.2999 115.876 19.5881 115.949 19.8028C116.023 20.0176 116.09 20.2323 116.237 20.3793C116.384 20.5262 116.526 20.594 116.74 20.6675C116.955 20.741 117.243 20.741 117.605 20.741H121.278C121.64 20.741 121.928 20.741 122.143 20.6675C122.358 20.594 122.573 20.5262 122.646 20.3793C122.787 20.238 122.861 20.0176 122.934 19.8028C123.008 19.5881 123.008 19.2999 123.008 18.9382V13.6823C123.008 13.4675 123.081 13.394 123.296 13.394H124.737C124.952 13.394 125.025 13.4675 125.025 13.6823V19.1529C125.025 19.8028 124.952 20.3058 124.811 20.7353C124.669 21.1648 124.449 21.5265 124.161 21.8148C123.873 22.103 123.511 22.3177 123.008 22.3912C122.505 22.5325 122.002 22.606 121.278 22.606H117.464C116.814 22.606 116.237 22.5325 115.734 22.3912C115.305 22.2499 114.87 22.0295 114.581 21.8148C114.293 21.5265 114.078 21.1648 113.932 20.7353C113.79 20.3058 113.717 19.7294 113.717 19.1529V13.6823C113.717 13.4675 113.79 13.394 114.005 13.394H115.446H115.587Z" fill="black"/>
<path d="M130.699 13.394C130.914 13.394 131.061 13.394 131.202 13.4675C131.344 13.4675 131.49 13.541 131.564 13.6088C131.637 13.6823 131.779 13.7501 131.852 13.897C131.926 14.0383 131.993 14.1853 132.14 14.4L134.876 20.7353C134.949 20.8088 134.949 20.8766 135.09 20.8766H135.232C135.305 20.8766 135.373 20.8031 135.447 20.7353L138.182 14.4C138.255 14.1853 138.323 14.0383 138.47 13.897C138.544 13.7557 138.611 13.6823 138.758 13.6088C138.832 13.5353 138.973 13.4675 139.12 13.4675C139.267 13.4675 139.408 13.394 139.623 13.394H141.064C141.494 13.394 141.855 13.4675 142.002 13.6823C142.144 13.897 142.217 14.2587 142.217 14.7617V22.3177C142.217 22.5325 142.144 22.606 141.929 22.606H140.561C140.346 22.606 140.273 22.5325 140.273 22.3177V15.4116C140.273 15.3382 140.199 15.2703 140.199 15.2703H140.058C139.985 15.2703 139.917 15.3438 139.917 15.3438L137.255 21.244C137.182 21.4587 137.04 21.6735 136.893 21.8204C136.746 21.9674 136.679 22.1086 136.532 22.2499C136.39 22.3234 136.243 22.4647 136.102 22.4647C135.961 22.5382 135.74 22.5382 135.526 22.5382H134.876C134.661 22.5382 134.446 22.5382 134.299 22.4647C134.152 22.3912 134.011 22.3234 133.87 22.2499C133.728 22.1765 133.655 22.0352 133.508 21.8204C133.367 21.6791 133.293 21.4587 133.146 21.244L130.485 15.3438C130.485 15.2703 130.411 15.2703 130.343 15.2703H130.202C130.128 15.2703 130.128 15.3438 130.128 15.4116V22.3234C130.128 22.5382 130.055 22.6116 129.84 22.6116H128.467C128.252 22.6116 128.179 22.5382 128.179 22.3234V14.7617C128.179 14.2587 128.252 13.897 128.393 13.6823C128.535 13.4675 128.896 13.394 129.332 13.394H130.773H130.699Z" fill="black"/>
</g>
<defs>
<clipPath id="clip0_3558_1308">
<rect width="141.287" height="36" fill="white" transform="translate(0.856445)"/>
</clipPath>
</defs>
</svg>
