<svg width="400" height="200" fill="none" xmlns="http://www.w3.org/2000/svg"><g clip-path="url(#a)"><g clip-path="url(#b)"><path d="M136.923 69.816v60.368c0 3.881 2.033 7.392 5.421 9.363l52.298 30.184a10.857 10.857 0 0 0 10.78 0l52.298-30.184a10.814 10.814 0 0 0 5.421-9.363V69.816c0-3.88-2.033-7.392-5.421-9.363l-52.298-30.184a10.859 10.859 0 0 0-10.78 0l-52.298 30.184c-3.327 1.91-5.36 5.482-5.36 9.363h-.061Z" fill="#343434"/><path d="m211.403 111.703-7.454 20.451c-.185.555-.185 1.171 0 1.787l12.813 35.173 14.846-8.562-17.803-48.849a1.283 1.283 0 0 0-2.402 0ZM226.371 77.33a1.283 1.283 0 0 0-2.402 0l-7.454 20.451c-.185.555-.185 1.17 0 1.787l21.006 57.596 14.845-8.563-25.995-71.21v-.06Z" fill="#898989"/><path d="M200.001 32.548c.37 0 .74.123 1.048.308l56.548 32.648c.678.37 1.048 1.109 1.048 1.848v65.296a2.23 2.23 0 0 1-1.048 1.848l-56.548 32.648a2.076 2.076 0 0 1-1.048.308c-.369 0-.739-.123-1.047-.308l-56.549-32.648c-.677-.37-1.047-1.109-1.047-1.848V67.29c0-.739.431-1.478 1.047-1.848l56.549-32.648a2.078 2.078 0 0 1 1.047-.308v.062Zm0-9.548c-2.032 0-4.004.493-5.852 1.54l-56.548 32.648a11.617 11.617 0 0 0-5.852 10.102v65.296c0 4.189 2.217 8.008 5.852 10.103l56.548 32.648c1.787 1.047 3.82 1.54 5.852 1.54 2.033 0 4.004-.493 5.852-1.54l56.549-32.648c3.635-2.095 5.852-5.914 5.852-10.103V67.29c0-4.188-2.217-8.008-5.852-10.102l-56.61-32.648c-1.787-1.047-3.819-1.54-5.852-1.54h.061Z" fill="#C5C5C5"/><path d="m162.548 157.226 5.236-14.291 10.472 8.686-9.794 8.993-5.914-3.388Z" fill="#213147"/><path d="M195.198 62.67h-14.353a2.605 2.605 0 0 0-2.403 1.663l-30.738 84.269 14.846 8.562 33.88-92.83c.308-.863-.308-1.726-1.171-1.726l-.061.062ZM220.33 62.67h-14.352a2.604 2.604 0 0 0-2.403 1.663l-35.112 96.219 14.846 8.563 38.192-104.782c.308-.862-.308-1.724-1.171-1.724v.061Z" fill="#fff"/></g></g><defs><clipPath id="a"><path fill="#fff" d="M0 0h400v200H0z"/></clipPath><clipPath id="b"><path fill="#fff" transform="translate(123 23)" d="M0 0h154v154H0z"/></clipPath></defs></svg>