<svg width="105" height="28" viewBox="0 0 105 28" fill="none" xmlns="http://www.w3.org/2000/svg">
<g clip-path="url(#clip0_3558_1381)">
<path fill-rule="evenodd" clip-rule="evenodd" d="M27.7881 13.8782C27.7881 21.5428 21.5637 27.7563 13.8857 27.7563C6.6012 27.7563 0.62524 22.1635 0.0317383 15.0447H18.4075V12.7116H0.0317383C0.62524 5.59278 6.6012 0 13.8857 0C21.5637 0 27.7881 6.21345 27.7881 13.8782ZM79.3293 25.2419C84.1465 25.2419 87.306 22.6457 87.306 18.7356C87.306 15.107 84.9285 13.3865 81.3314 12.7922L78.1406 12.2604C75.7009 11.8538 74.0741 10.7902 74.0741 8.44412C74.0741 6.06679 75.8885 4.25249 79.3293 4.25249C82.6764 4.25249 84.3968 5.94165 84.5844 8.35028H86.9932C86.8055 5.15964 84.3655 2.31307 79.3605 2.31307C74.4182 2.31307 71.6969 5.09706 71.6969 8.53798C71.6969 12.1978 74.1679 13.887 77.5463 14.4501L80.7684 14.9506C83.4584 15.4198 84.9598 16.5146 84.9598 18.8294C84.9598 21.5508 82.739 23.3026 79.3605 23.3026C75.8573 23.3026 73.6675 21.6134 73.4798 18.7356H71.1026C71.2902 22.4893 74.1679 25.2419 79.3293 25.2419ZM43.8162 24.804H35.0575V2.78229H43.5034C47.2259 2.78229 49.822 4.97194 49.822 8.47542C49.822 11.0092 48.3832 12.6983 46.0685 13.2614V13.3552C48.8211 13.887 50.5102 15.7639 50.5102 18.7043C50.5102 22.4893 47.7263 24.804 43.8162 24.804ZM43.1906 12.4481C45.8496 12.4481 47.4761 11.0092 47.4761 8.75694V8.44412C47.4761 6.19191 45.8496 4.78427 43.1906 4.78427H37.4037V12.4481H43.1906ZM43.4721 22.8021C46.3813 22.8021 48.1642 21.2067 48.1642 18.7668V18.454C48.1642 15.9203 46.35 14.3875 43.4408 14.3875H37.4037V22.8021H43.4721ZM69.4556 24.804H66.953L65.0763 18.8294H56.3175L54.4408 24.804H52.0633L59.2893 2.78229H62.1357L69.4556 24.804ZM60.822 5.19092H60.6343L56.9431 16.8587H64.4819L60.822 5.19092ZM90.8297 24.804V2.78229H104.969V4.81555H93.1759V12.3855H104.03V14.3875H93.1759V22.7708H104.969V24.804H90.8297Z" fill="#0A0B0D"/>
</g>
<defs>
<clipPath id="clip0_3558_1381">
<rect width="104.937" height="28" fill="white" transform="translate(0.0317383)"/>
</clipPath>
</defs>
</svg>
