<svg width="178" height="178" viewBox="0 0 178 178" fill="none" xmlns="http://www.w3.org/2000/svg">
<g clip-path="url(#clip0_1035_24)">
<path d="M70.2632 159.263C98.7244 159.263 121.789 136.198 121.789 107.737C121.789 79.2755 98.7244 56.2105 70.2632 56.2105C41.8019 56.2105 18.7368 79.2755 18.7368 107.737C18.7368 136.198 41.8019 159.263 70.2632 159.263ZM70.2632 178C31.4592 178 0 146.541 0 107.737C0 68.9328 31.4592 37.4736 70.2632 37.4736C109.067 37.4736 140.526 68.9328 140.526 107.737C140.526 146.541 109.067 178 70.2632 178Z" fill="#FBCC5C"/>
<path d="M107.737 121.789C136.198 121.789 159.263 98.7244 159.263 70.2632C159.263 41.8019 136.198 18.7368 107.737 18.7368C79.2755 18.7368 56.2105 41.8019 56.2105 70.2632C56.2105 98.7244 79.2755 121.789 107.737 121.789ZM107.737 140.526C68.9328 140.526 37.4736 109.067 37.4736 70.2632C37.4736 31.4592 68.9328 0 107.737 0C146.541 0 178 31.4592 178 70.2632C178 109.067 146.541 140.526 107.737 140.526Z" fill="#35D07F"/>
<path d="M110.06 140.526C114.932 134.624 118.417 127.71 120.272 120.272C127.692 118.417 134.605 114.932 140.526 110.06C140.264 118.66 138.409 127.129 135.055 135.074C127.129 138.409 118.66 140.264 110.06 140.526ZM57.7282 57.7282C50.3084 59.5831 43.3945 63.0682 37.4736 67.9397C37.7359 59.3395 39.5909 50.8705 42.9448 42.9448C50.8705 39.6096 59.3583 37.7547 67.9397 37.4736C63.0682 43.3757 59.5831 50.2896 57.7282 57.7282Z" fill="#5EA33B"/>
</g>
<defs>
<clipPath id="clip0_1035_24">
<rect width="178" height="178" fill="white"/>
</clipPath>
</defs>
</svg>
