<svg width="99" height="22" viewBox="0 0 99 22" fill="none" xmlns="http://www.w3.org/2000/svg">
<g clip-path="url(#clip0_3558_1340)">
<path d="M87.0806 19.0665C91.5409 19.0665 95.1172 15.4601 95.1172 10.9999C95.1172 6.53958 91.5409 2.96333 87.0806 2.96333C82.6204 2.96333 79.0441 6.56972 79.0441 10.9999C79.0541 15.4199 82.6605 19.0665 87.0806 19.0665ZM76.1309 0.0400391H98.0706V21.9798H76.1309V0.0400391Z" fill="black"/>
<path fill-rule="evenodd" clip-rule="evenodd" d="M44.1052 14.325C42.8193 17.1177 40.0266 19.0665 36.7618 19.0665C32.4321 19.0665 28.886 15.6108 28.7253 11.3113H47.7417V0.0400391H25.812V21.9798H47.7517V14.325H44.1052ZM29.0769 8.60899H44.3965C43.2714 4.872 40.2577 2.96333 36.7718 2.96333C33.286 2.96333 30.0412 5.0026 29.0769 8.60899Z" fill="black"/>
<path d="M22.8587 0.0400391H0.918945V21.9798H22.8587V14.325H19.2221C17.9664 17.1177 15.1436 19.0665 11.9089 19.0665C7.44863 19.0665 3.84223 15.43 3.84223 10.9999C3.84223 6.56972 7.44863 2.96333 11.9089 2.96333C15.2039 2.96333 18.0267 4.97246 19.2824 7.82543H22.8587V0.0400391Z" fill="black"/>
<path d="M73.3883 14.325H69.7518C68.6568 17.2081 65.7034 19.0364 62.3481 19.0364C58.0185 19.0364 54.3719 15.9021 54.3719 10.9999V0.0400391H50.665V21.9798H73.3883V14.325Z" fill="black"/>
</g>
<defs>
<clipPath id="clip0_3558_1340">
<rect width="97.242" height="22" fill="white" transform="translate(0.878906)"/>
</clipPath>
</defs>
</svg>
