<svg width="161" height="40" viewBox="0 0 161 40" fill="none" xmlns="http://www.w3.org/2000/svg">
<g clip-path="url(#clip0_3558_1257)">
<path d="M45.9395 23.0153C45.9371 23.1544 45.8798 23.2869 45.7801 23.3838C45.6804 23.4807 45.5464 23.5343 45.4073 23.5327H35.6069C35.8582 25.9569 37.6763 28.1742 40.2484 28.1742C42.0075 28.1742 43.3083 27.509 44.2839 26.1048C44.3293 26.031 44.3922 25.9695 44.4669 25.9257C44.5416 25.8819 44.626 25.8571 44.7126 25.8535C44.7771 25.8516 44.8414 25.863 44.9014 25.8869C44.9614 25.9107 45.0159 25.9466 45.0616 25.9923C45.1072 26.0379 45.1431 26.0924 45.167 26.1524C45.1908 26.2125 45.2022 26.2767 45.2004 26.3413C45.2007 26.4304 45.175 26.5178 45.1265 26.5926C44.1361 28.3073 42.1701 29.1498 40.2484 29.1498C36.952 29.1498 34.5869 26.1935 34.5869 23.0449C34.5869 19.8963 36.9372 16.9399 40.2484 16.9399C43.5596 16.9399 45.9247 19.8668 45.9395 23.0153ZM44.8899 22.5571C44.683 20.1328 42.8205 17.9156 40.2484 17.9156C37.6763 17.9156 35.8582 20.1328 35.6069 22.5571H44.8899Z" fill="#3B3B3B"/>
<path d="M57.854 17.1767C57.9822 17.1804 58.1041 17.233 58.1948 17.3237C58.2855 17.4144 58.338 17.5363 58.3418 17.6645C58.3436 17.7291 58.3322 17.7933 58.3084 17.8534C58.2845 17.9134 58.2486 17.9679 58.203 18.0135C58.1573 18.0592 58.1028 18.0951 58.0428 18.1189C57.9828 18.1428 57.9185 18.1542 57.854 18.1523H55.2228V28.4849C55.2216 28.6139 55.1698 28.7373 55.0786 28.8286C54.9874 28.9198 54.864 28.9716 54.735 28.9727C54.6068 28.969 54.4848 28.9164 54.3942 28.8257C54.3035 28.735 54.2509 28.6131 54.2472 28.4849V18.1523H51.7194C51.6549 18.1542 51.5906 18.1428 51.5306 18.1189C51.4706 18.0951 51.4161 18.0592 51.3704 18.0135C51.3248 17.9679 51.2889 17.9134 51.265 17.8534C51.2412 17.7933 51.2298 17.7291 51.2316 17.6645C51.2328 17.5355 51.2846 17.4121 51.3758 17.3209C51.467 17.2296 51.5904 17.1779 51.7194 17.1767H54.2472V13.4073C54.2474 13.2824 54.2922 13.1617 54.3735 13.0669C54.4548 12.972 54.5672 12.9093 54.6906 12.8899C54.7596 12.8808 54.8297 12.8866 54.8962 12.9071C54.9628 12.9275 55.0241 12.9621 55.076 13.0084C55.1279 13.0547 55.1692 13.1117 55.1971 13.1754C55.225 13.2392 55.2388 13.3082 55.2376 13.3778V17.1767H57.854Z" fill="#3B3B3B"/>
<path d="M73.8922 22.1731V28.4259C73.8885 28.5541 73.8359 28.676 73.7452 28.7667C73.6545 28.8574 73.5326 28.9099 73.4044 28.9137C73.3398 28.9155 73.2756 28.9041 73.2155 28.8803C73.1555 28.8564 73.101 28.8205 73.0554 28.7749C73.0097 28.7292 72.9738 28.6747 72.95 28.6147C72.9261 28.5547 72.9147 28.4904 72.9166 28.4259V22.1731C72.9166 20.0593 71.7192 17.9602 69.3689 17.9602C66.3534 17.9602 65.0526 20.5914 65.2299 23.2965C65.2299 23.3704 65.2595 23.6808 65.2595 23.7252V28.4111C65.2593 28.536 65.2145 28.6567 65.1332 28.7515C65.0519 28.8464 64.9394 28.9091 64.8161 28.9284C64.7471 28.9376 64.6769 28.9318 64.6104 28.9113C64.5439 28.8909 64.4826 28.8563 64.4307 28.81C64.3787 28.7637 64.3374 28.7067 64.3095 28.643C64.2817 28.5792 64.2679 28.5102 64.2691 28.4406V7.87892C64.2703 7.7499 64.322 7.6265 64.4133 7.53527C64.5045 7.44404 64.6279 7.39227 64.7569 7.39111C64.8851 7.39483 65.007 7.44742 65.0977 7.53811C65.1884 7.62879 65.241 7.75072 65.2447 7.87892V19.4975C66.0873 17.9898 67.5951 16.9698 69.3541 16.9698C72.2514 16.9698 73.8922 19.4975 73.8922 22.1731Z" fill="#3B3B3B"/>
<path d="M91.4976 23.0153C91.4952 23.1544 91.438 23.2869 91.3382 23.3838C91.2385 23.4807 91.1045 23.5343 90.9654 23.5327H81.165C81.4163 25.9569 83.2345 28.1742 85.8065 28.1742C87.5656 28.1742 88.8664 27.509 89.842 26.1048C89.8874 26.031 89.9503 25.9695 90.025 25.9257C90.0997 25.8819 90.1841 25.8571 90.2707 25.8535C90.3352 25.8516 90.3995 25.863 90.4595 25.8869C90.5195 25.9107 90.574 25.9466 90.6197 25.9923C90.6654 26.0379 90.7012 26.0924 90.7251 26.1524C90.749 26.2125 90.7603 26.2767 90.7585 26.3413C90.7588 26.4304 90.7331 26.5178 90.6846 26.5926C89.6942 28.3073 87.7282 29.1498 85.8065 29.1498C82.5101 29.1498 80.145 26.1935 80.145 23.0449C80.145 19.8963 82.4954 16.9399 85.8065 16.9399C89.0881 16.9399 91.4828 19.8668 91.4976 23.0153ZM90.4333 22.5571C90.2263 20.1328 88.3638 17.9156 85.7917 17.9156C83.2197 17.9156 81.4015 20.1328 81.1502 22.5571H90.4333Z" fill="#3B3B3B"/>
<path d="M103.545 17.635C103.554 17.7662 103.512 17.8959 103.426 17.9956C103.34 18.0953 103.218 18.1569 103.087 18.1672C100.204 18.5958 98.9036 20.9462 98.9036 23.6808V28.3667C98.9033 28.4916 98.8585 28.6123 98.7772 28.7072C98.6959 28.802 98.5835 28.8647 98.4601 28.8841C98.3911 28.8932 98.321 28.8874 98.2545 28.867C98.188 28.8465 98.1267 28.812 98.0747 28.7656C98.0228 28.7193 97.9815 28.6624 97.9536 28.5986C97.9257 28.5349 97.9119 28.4658 97.9132 28.3963V17.7089C97.9134 17.584 97.9582 17.4633 98.0395 17.3685C98.1208 17.2736 98.2332 17.2109 98.3566 17.1915C98.4256 17.1824 98.4957 17.1882 98.5622 17.2087C98.6288 17.2291 98.6901 17.2637 98.742 17.31C98.7939 17.3563 98.8352 17.4133 98.8631 17.477C98.891 17.5408 98.9048 17.6098 98.9036 17.6793V19.8523C99.7166 18.4776 101.328 17.1768 103.013 17.1768C103.264 17.1768 103.545 17.3541 103.545 17.635Z" fill="#3B3B3B"/>
<path d="M119.657 23.0153C119.655 23.1544 119.598 23.2869 119.498 23.3838C119.398 23.4807 119.264 23.5343 119.125 23.5327H109.325C109.576 25.9569 111.394 28.1742 113.966 28.1742C115.725 28.1742 117.026 27.509 118.002 26.1048C118.047 26.031 118.11 25.9695 118.185 25.9257C118.259 25.8819 118.344 25.8571 118.43 25.8535C118.495 25.8516 118.559 25.863 118.619 25.8869C118.679 25.9107 118.734 25.9466 118.779 25.9923C118.825 26.0379 118.861 26.0924 118.885 26.1524C118.909 26.2125 118.92 26.2767 118.918 26.3413C118.918 26.4304 118.893 26.5178 118.844 26.5926C117.854 28.3073 115.888 29.1498 113.966 29.1498C110.67 29.1498 108.305 26.1935 108.305 23.0449C108.305 19.8963 110.655 16.9399 113.966 16.9399C117.277 16.9399 119.642 19.8668 119.657 23.0153ZM118.608 22.5571C118.401 20.1328 116.538 17.9156 113.966 17.9156C111.394 17.9156 109.576 20.1328 109.325 22.5571H118.608Z" fill="#3B3B3B"/>
<path d="M135.504 17.7533V28.485C135.5 28.6132 135.447 28.7351 135.357 28.8258C135.266 28.9165 135.144 28.9691 135.016 28.9728C134.951 28.9746 134.887 28.9633 134.827 28.9394C134.767 28.9155 134.712 28.8797 134.667 28.834C134.621 28.7883 134.585 28.7338 134.561 28.6738C134.537 28.6138 134.526 28.5495 134.528 28.485V26.4451C133.715 28.0563 132.281 29.2241 130.448 29.2241C127.536 29.2241 125.925 26.6964 125.925 24.0208V17.7385C125.926 17.6095 125.978 17.4861 126.069 17.3948C126.16 17.3036 126.284 17.2518 126.413 17.2507C126.541 17.2544 126.663 17.307 126.753 17.3977C126.844 17.4884 126.897 17.6103 126.9 17.7385V24.0208C126.9 26.1346 128.098 28.2337 130.448 28.2337C133.744 28.2337 134.528 25.1442 134.528 21.7296V17.7237C134.529 17.6446 134.549 17.5669 134.586 17.4972C134.624 17.4274 134.677 17.3676 134.742 17.3228C134.807 17.2779 134.882 17.2493 134.961 17.2393C135.039 17.2293 135.119 17.2383 135.193 17.2655C135.286 17.3086 135.365 17.3775 135.42 17.464C135.475 17.5504 135.504 17.6508 135.504 17.7533Z" fill="#3B3B3B"/>
<path d="M160.322 22.1286V28.411C160.319 28.5392 160.266 28.6611 160.175 28.7518C160.085 28.8425 159.963 28.8951 159.835 28.8988C159.77 28.9006 159.706 28.8892 159.646 28.8654C159.586 28.8415 159.531 28.8057 159.486 28.76C159.44 28.7143 159.404 28.6598 159.38 28.5998C159.356 28.5398 159.345 28.4755 159.347 28.411V22.1286C159.347 20.0148 158.149 17.9453 155.799 17.9453C152.843 17.9453 151.719 21.1087 151.719 23.5625V28.411C151.716 28.5392 151.663 28.6611 151.572 28.7518C151.482 28.8425 151.36 28.8951 151.232 28.8988C151.167 28.9006 151.103 28.8892 151.043 28.8654C150.983 28.8415 150.928 28.8057 150.883 28.76C150.837 28.7143 150.801 28.6598 150.777 28.5998C150.753 28.5398 150.742 28.4755 150.744 28.411V22.1286C150.744 20.0148 149.546 17.9453 147.196 17.9453C144.21 17.9453 142.983 20.2957 143.087 23.4294C143.087 23.5034 143.116 23.6364 143.087 23.6807V28.3962C143.086 28.5211 143.042 28.6418 142.96 28.7366C142.879 28.8315 142.767 28.8942 142.643 28.9136C142.574 28.9227 142.504 28.9169 142.438 28.8964C142.371 28.876 142.31 28.8414 142.258 28.7951C142.206 28.7488 142.165 28.6918 142.137 28.6281C142.109 28.5643 142.095 28.4953 142.096 28.4257V17.7088C142.097 17.5839 142.141 17.4632 142.223 17.3684C142.304 17.2735 142.416 17.2108 142.54 17.1915C142.609 17.1823 142.679 17.1881 142.745 17.2086C142.812 17.229 142.873 17.2636 142.925 17.3099C142.977 17.3562 143.018 17.4132 143.046 17.4769C143.074 17.5407 143.088 17.6097 143.087 17.6793V19.4679C143.929 17.9601 145.437 16.9697 147.196 16.9697C149.192 16.9697 150.744 18.241 151.379 20.0887C152.192 18.2558 153.774 16.9697 155.799 16.9697C158.682 16.9697 160.322 19.4679 160.322 22.1286Z" fill="#3B3B3B"/>
<path opacity="0.6" d="M12.9463 14.7969L0.677246 20.3697L12.9463 27.6276L25.2301 20.3697L12.9463 14.7969Z" fill="black"/>
<path opacity="0.45" d="M0.677246 20.3695L12.9463 27.6275V0L0.677246 20.3695Z" fill="black"/>
<path opacity="0.8" d="M12.9463 0V27.6275L25.2301 20.3695L12.9463 0Z" fill="black"/>
<path opacity="0.45" d="M0.677246 22.7051L12.9463 40V29.9482L0.677246 22.7051Z" fill="black"/>
<path opacity="0.8" d="M12.9463 29.9482V40L25.2301 22.7051L12.9463 29.9482Z" fill="black"/>
</g>
<defs>
<clipPath id="clip0_3558_1257">
<rect width="159.645" height="40" fill="white" transform="translate(0.677246)"/>
</clipPath>
</defs>
</svg>
