<svg width="400" height="200" viewBox="0 0 400 200" fill="none" xmlns="http://www.w3.org/2000/svg">
<g clip-path="url(#clip0_439_142)">
<g clip-path="url(#clip1_439_142)">
<path d="M55.2318 96.483C55.2318 94.7282 55.8094 93.1324 56.808 91.8671L67.3786 102.433C66.0912 103.431 64.493 104.009 62.7602 104.009C58.5848 104.006 55.2098 100.634 55.2318 96.483ZM86.6744 103.984C90.8277 104.006 94.2028 100.631 94.2028 96.4585C94.2028 94.7282 93.6252 93.13 92.6266 91.8426L82.056 102.408C83.3214 103.407 84.9196 103.984 86.6744 103.984ZM94.8465 89.6668C96.4006 91.5318 97.3331 93.8838 97.3331 96.5026C97.3331 102.384 92.5581 107.156 86.6744 107.156C84.0776 107.156 81.7011 106.224 79.8362 104.67L74.7063 109.797L69.5764 104.67C67.7114 106.224 65.357 107.156 62.7382 107.156C56.8545 107.156 52.0795 102.384 52.0795 96.5026C52.0795 93.9058 53.012 91.5293 54.5661 89.6668L52.1676 87.2707L49.8817 84.9848C47.2164 89.378 45.6843 94.5054 45.6843 100.012C45.6843 116.038 58.673 129.002 74.6843 129.002C90.6931 129.002 103.684 116.016 103.684 100.012C103.728 94.4859 102.196 89.3584 99.5309 84.9848L94.8465 89.6668ZM74.6843 105.36L51.6781 82.3636C52.3218 81.5412 53.0095 80.7434 53.7217 79.9895C59.0058 74.4632 66.4461 71 74.7063 71C82.9665 71 90.4264 74.4632 95.6908 79.9895C96.4226 80.7213 97.1128 81.5437 97.6904 82.3415L74.6843 105.36ZM56.8741 82.1653L74.7038 99.9902L92.5336 82.1653C87.8051 77.3928 81.498 74.774 74.7038 74.774C67.9097 74.774 61.627 77.3928 56.8741 82.1653ZM110.111 100.022V100.088C110.111 116.055 123.066 128.998 139.045 128.998H151.273V121.499H139.241C127.234 121.499 117.53 111.645 117.787 99.5888C118.039 87.8679 127.899 78.619 139.635 78.619H151.273V71.1933H138.964C123.031 71.1933 110.111 84.1013 110.111 100.022ZM263.878 71.1933H294.949V129H263.878V71.1933ZM269.378 88.6071C269.378 94.1506 273.871 98.6441 279.415 98.6441C284.958 98.6441 289.452 94.1506 289.452 88.6071C289.452 83.0635 284.958 78.57 279.415 78.57C273.871 78.57 269.378 83.0635 269.378 88.6071ZM193.421 90.5724C193.421 92.1706 192.855 93.5191 191.727 94.618C190.596 95.7194 189.26 96.2701 187.718 96.2701H170.527C168.929 96.2701 167.578 95.7218 166.476 94.618C165.373 93.5167 164.824 92.1681 164.824 90.5724V71.1933H157.387V129H164.824V109.237C164.824 107.641 165.375 106.292 166.476 105.191C167.578 104.09 168.929 103.539 170.527 103.539H187.718C189.26 103.539 190.596 104.09 191.727 105.191C192.855 106.292 193.421 107.641 193.421 109.237V129H200.778V71.1933H193.421V90.5724ZM328.029 71.1933H301.06V129H308.498V98.0983C308.498 87.3417 317.226 78.6214 327.989 78.6214C338.756 78.6214 347.481 87.3417 347.481 98.0983V129H354.855V98.0004C354.858 83.1957 342.846 71.1933 328.029 71.1933ZM236.65 74.2674L261.179 129H203.538L228.312 74.2674C229.293 72.0891 230.683 71 232.48 71C234.279 71 235.669 72.0891 236.65 74.2674ZM232.48 99.4322C226.936 99.4322 222.443 103.926 222.443 109.469C222.443 115.013 226.936 119.506 232.48 119.506C238.023 119.506 242.517 115.013 242.517 109.469C242.517 103.926 238.023 99.4322 232.48 99.4322Z" fill="#343434"/>
</g>
</g>
<defs>
<clipPath id="clip0_439_142">
<rect width="400" height="200" fill="white"/>
</clipPath>
<clipPath id="clip1_439_142">
<rect width="308.858" height="58" fill="white" transform="translate(46 71)"/>
</clipPath>
</defs>
</svg>
