<svg width="90" height="23" viewBox="0 0 90 23" fill="none" xmlns="http://www.w3.org/2000/svg">
<g clip-path="url(#clip0_4848_2938)">
<path d="M18.2908 1.51123L14.199 12.9398V16.2918H12.8571V12.9398L8.76531 1.51123H2.16837V21.4755H6.59694V11.5265L4.83164 5.85307L6.09184 5.40919L11.8469 21.4806H15.2143L20.9694 5.40919L22.2296 5.85307L20.4592 11.5265V21.4755H24.8878V1.51123H18.2908ZM66.9592 3.78164C65.8776 2.98062 64.6174 2.40409 63.1684 2.04694C61.7194 1.6898 60.1939 1.51123 58.5816 1.51123H51.9388V21.4755H59.1786C60.6735 21.4755 62.102 21.2612 63.4643 20.8276C64.8265 20.3939 66.0306 19.7612 67.0714 18.9245C68.1123 18.0878 68.9388 17.052 69.5561 15.8225C70.1735 14.5929 70.4796 13.1694 70.4796 11.552C70.4796 9.73062 70.1633 8.1796 69.5306 6.89899C68.898 5.61837 68.0408 4.58266 66.9592 3.78164ZM65.3265 14.1898C64.9592 14.9704 64.449 15.598 63.8061 16.0776C63.1633 16.5571 62.4031 16.899 61.5204 17.1082C60.6378 17.3174 59.6888 17.4194 58.6684 17.4194H56.3674V5.57245H58.9796C59.9082 5.57245 60.7908 5.6898 61.6327 5.9245C62.4745 6.15919 63.2092 6.51123 63.8316 6.98062C64.4541 7.45001 64.9541 8.04694 65.3214 8.77143C65.6888 9.49592 65.8776 10.348 65.8776 11.3225C65.8827 12.4551 65.699 13.4092 65.3265 14.1898ZM78.0918 17.4194V13.3582H86.8112V9.29694H78.0918V5.57245H87.8316V1.51123H73.6633V21.4755H87.8316V17.4143H78.0918V17.4194Z" fill="black"/>
<path d="M38.1174 22.4961C44.2348 22.4961 49.1939 17.5712 49.1939 11.4961C49.1939 5.42096 44.2348 0.496094 38.1174 0.496094C32 0.496094 27.0408 5.42096 27.0408 11.4961C27.0408 17.5712 32 22.4961 38.1174 22.4961Z" fill="black"/>
</g>
<defs>
<clipPath id="clip0_4848_2938">
<rect width="89.8163" height="22" fill="white" transform="translate(0.0918427 0.496094)"/>
</clipPath>
</defs>
</svg>
