<svg width="143" height="20" viewBox="0 0 143 20" fill="none" xmlns="http://www.w3.org/2000/svg">
<g clip-path="url(#clip0_3558_1361)">
<path d="M7.2847 19.2357C5.1652 19.2357 3.42864 18.737 2.07501 17.7396C0.739197 16.7244 0.0712891 15.2817 0.0712891 13.4116C0.0712891 13.0197 0.115816 12.5389 0.204871 11.969C0.436412 10.6866 0.765913 9.14589 1.19337 7.34699C2.40452 2.449 5.53033 0 10.5708 0C11.9422 0 13.1712 0.231542 14.2577 0.694625C15.3441 1.1399 16.199 1.81671 16.8224 2.72507C17.4458 3.61561 17.7575 4.68427 17.7575 5.93102C17.7575 6.30506 17.713 6.77704 17.624 7.34699C17.3567 8.93216 17.0361 10.4728 16.6621 11.969C16.0387 14.409 14.9612 16.2347 13.4295 17.4457C11.8977 18.639 9.84948 19.2357 7.2847 19.2357ZM7.65873 15.3886C8.65614 15.3886 9.50215 15.0948 10.1968 14.507C10.9092 13.9192 11.4168 13.0197 11.7196 11.8086C12.1293 10.1344 12.4409 8.67389 12.6547 7.42713C12.726 7.05311 12.7616 6.67017 12.7616 6.27833C12.7616 4.65754 11.9155 3.84715 10.2235 3.84715C9.22608 3.84715 8.37116 4.14103 7.65873 4.72879C6.9641 5.31655 6.46539 6.216 6.16261 7.42713C5.84201 8.62047 5.52142 10.081 5.20082 11.8086C5.12957 12.1649 5.09396 12.5389 5.09396 12.9307C5.09396 14.5693 5.94888 15.3886 7.65873 15.3886Z" fill="#222222"/>
<path d="M20.4686 18.9685C20.2726 18.9685 20.1212 18.9062 20.0144 18.7815C19.9253 18.639 19.8986 18.4787 19.9342 18.3006L23.6211 0.934998C23.6567 0.739078 23.7547 0.578781 23.915 0.454105C24.0752 0.329429 24.2445 0.26709 24.4226 0.26709H31.5291C33.5061 0.26709 35.0912 0.67674 36.2846 1.49604C37.4957 2.31535 38.1013 3.49976 38.1013 5.04931C38.1013 5.49458 38.0479 5.95767 37.9411 6.43857C37.4957 8.48681 36.5963 10.0007 35.2427 10.9803C33.9069 11.9599 32.0723 12.4497 29.7391 12.4497H26.1324L24.9034 18.3006C24.8678 18.4965 24.7698 18.6568 24.6095 18.7815C24.4492 18.9062 24.2801 18.9685 24.1019 18.9685H20.4686ZM29.9261 8.76288C30.6742 8.76288 31.3243 8.55805 31.8764 8.1484C32.4464 7.73875 32.8204 7.15099 32.9985 6.38513C33.0519 6.08235 33.0787 5.81518 33.0787 5.58364C33.0787 5.06713 32.9272 4.67528 32.6245 4.40812C32.3217 4.12315 31.8052 3.98066 31.075 3.98066H27.869L26.8537 8.76288H29.9261Z" fill="#222222"/>
<path d="M44.1208 18.9685C43.9249 18.9685 43.7735 18.9062 43.6666 18.7815C43.5598 18.639 43.5242 18.4787 43.5598 18.3006L46.5253 4.46156H41.7698C41.5739 4.46156 41.4224 4.39921 41.3156 4.27454C41.2265 4.13205 41.1999 3.97176 41.2355 3.79364L41.85 0.934998C41.8856 0.739078 41.9835 0.578781 42.1438 0.454105C42.3041 0.329429 42.4733 0.26709 42.6514 0.26709H57.0248C57.2207 0.26709 57.3721 0.329429 57.479 0.454105C57.5503 0.56097 57.5859 0.667835 57.5859 0.7747C57.5859 0.828133 57.5769 0.881566 57.5591 0.934998L56.9446 3.79364C56.909 3.98957 56.8111 4.14986 56.6507 4.27454C56.5082 4.39921 56.3391 4.46156 56.1432 4.46156H51.4143L48.4488 18.3006C48.4132 18.4965 48.3153 18.6568 48.155 18.7815C47.9946 18.9062 47.8255 18.9685 47.6474 18.9685H44.1208Z" fill="#222222"/>
<path d="M58.2673 18.9685C58.0714 18.9685 57.92 18.9062 57.8132 18.7815C57.7062 18.639 57.6706 18.4787 57.7062 18.3006L61.4198 0.934998C61.4555 0.739078 61.5535 0.578781 61.7138 0.454105C61.874 0.329429 62.0432 0.26709 62.2214 0.26709H65.828C66.0239 0.26709 66.1754 0.329429 66.2822 0.454105C66.3535 0.56097 66.3891 0.667835 66.3891 0.7747C66.3891 0.828133 66.3801 0.881566 66.3623 0.934998L62.6755 18.3006C62.6398 18.4965 62.5419 18.6568 62.3817 18.7815C62.2214 18.9062 62.0521 18.9685 61.874 18.9685H58.2673Z" fill="#222222"/>
<path d="M68.4401 18.9685C68.2442 18.9685 68.0928 18.9062 67.9859 18.7815C67.8791 18.6568 67.8435 18.4965 67.8791 18.3006L71.5659 0.934998C71.6016 0.739078 71.6995 0.578781 71.8597 0.454105C72.0201 0.329429 72.1982 0.26709 72.3941 0.26709H75.2795C75.707 0.26709 75.983 0.46301 76.1077 0.85485L79.0197 9.27049L85.5118 0.85485C85.6009 0.712362 85.7256 0.578781 85.8858 0.454105C86.0639 0.329429 86.2777 0.26709 86.5271 0.26709H89.4392C89.6351 0.26709 89.7864 0.329429 89.8933 0.454105C89.9645 0.56097 90.0002 0.667835 90.0002 0.7747C90.0002 0.828133 89.9913 0.881566 89.9735 0.934998L86.2866 18.3006C86.251 18.4965 86.153 18.6568 85.9927 18.7815C85.8324 18.9062 85.6633 18.9685 85.4851 18.9685H82.2524C82.0565 18.9685 81.9052 18.9062 81.7982 18.7815C81.7092 18.639 81.6825 18.4787 81.7181 18.3006L83.802 8.44229L79.7144 13.8657C79.5363 14.0616 79.3671 14.213 79.2068 14.3198C79.0465 14.4268 78.8595 14.4802 78.6457 14.4802H77.2565C76.8825 14.4802 76.6242 14.2754 76.4818 13.8657L74.5849 8.20184L72.4476 18.3006C72.4119 18.4965 72.3139 18.6568 72.1537 18.7815C71.9934 18.9062 71.8241 18.9685 71.646 18.9685H68.4401Z" fill="#222222"/>
<path d="M92.0222 18.9685C91.8262 18.9685 91.6748 18.9062 91.568 18.7815C91.4611 18.639 91.4255 18.4787 91.4611 18.3006L95.1746 0.934998C95.2103 0.739078 95.3083 0.578781 95.4684 0.454105C95.6284 0.329429 95.798 0.26709 95.9761 0.26709H99.5827C99.7789 0.26709 99.9303 0.329429 100.037 0.454105C100.108 0.56097 100.144 0.667835 100.144 0.7747C100.144 0.828133 100.135 0.881566 100.117 0.934998L96.4304 18.3006C96.3951 18.4965 96.297 18.6568 96.1361 18.7815C95.9761 18.9062 95.8065 18.9685 95.6284 18.9685H92.0222Z" fill="#222222"/>
<path d="M108.794 19.2357C107.227 19.2357 105.882 19.022 104.76 18.5946C103.655 18.1671 102.818 17.5971 102.248 16.8848C101.696 16.1723 101.42 15.3797 101.42 14.507C101.42 14.3645 101.438 14.1508 101.473 13.8658C101.509 13.7054 101.581 13.5719 101.688 13.465C101.812 13.3582 101.954 13.3048 102.115 13.3048H105.534C105.748 13.3048 105.908 13.3404 106.015 13.4116C106.14 13.4829 106.265 13.6075 106.389 13.7856C106.514 14.2487 106.799 14.6316 107.245 14.9344C107.708 15.2372 108.34 15.3886 109.141 15.3886C110.156 15.3886 110.976 15.2283 111.599 14.9077C112.223 14.5871 112.597 14.1508 112.721 13.5986C112.739 13.5273 112.748 13.4205 112.748 13.278C112.748 12.8328 112.472 12.4854 111.92 12.2361C111.368 11.969 110.352 11.6572 108.874 11.301C107.147 10.927 105.837 10.3659 104.947 9.6179C104.056 8.85201 103.611 7.8546 103.611 6.62565C103.611 6.19819 103.665 5.76182 103.771 5.31655C104.128 3.66013 105.009 2.35994 106.416 1.41596C107.841 0.471989 109.675 0 111.92 0C113.273 0 114.476 0.240447 115.527 0.721341C116.577 1.20224 117.388 1.81671 117.958 2.56477C118.546 3.29501 118.839 4.02526 118.839 4.7555C118.839 4.96924 118.83 5.12063 118.812 5.20969C118.777 5.36998 118.697 5.50356 118.572 5.61043C118.466 5.7173 118.331 5.77072 118.171 5.77072H114.591C114.2 5.77072 113.932 5.61933 113.79 5.31655C113.772 4.90689 113.558 4.55959 113.148 4.27461C112.739 3.98964 112.205 3.84715 111.546 3.84715C110.762 3.84715 110.112 3.98964 109.595 4.27461C109.097 4.55959 108.785 4.97814 108.661 5.53028C108.643 5.61933 108.633 5.7351 108.633 5.87759C108.633 6.30505 108.883 6.66127 109.382 6.94625C109.898 7.21341 110.798 7.48948 112.08 7.77445C114.075 8.16629 115.527 8.72733 116.435 9.45758C117.361 10.1878 117.824 11.1585 117.824 12.3696C117.824 12.7793 117.77 13.2246 117.664 13.7054C117.272 15.5222 116.319 16.9026 114.805 17.8465C113.309 18.7727 111.306 19.2357 108.794 19.2357Z" fill="#222222"/>
<path d="M121.368 18.9685C121.172 18.9685 121.021 18.9062 120.914 18.7815C120.808 18.6568 120.771 18.4965 120.808 18.3006L124.494 0.934998C124.529 0.739078 124.628 0.578781 124.788 0.454105C124.948 0.329429 125.127 0.26709 125.323 0.26709H128.208C128.635 0.26709 128.911 0.46301 129.036 0.85485L131.948 9.27049L138.44 0.85485C138.529 0.712362 138.654 0.578781 138.814 0.454105C138.992 0.329429 139.206 0.26709 139.455 0.26709H142.368C142.564 0.26709 142.715 0.329429 142.822 0.454105C142.893 0.56097 142.928 0.667835 142.928 0.7747C142.928 0.828133 142.92 0.881566 142.902 0.934998L139.215 18.3006C139.179 18.4965 139.081 18.6568 138.921 18.7815C138.761 18.9062 138.591 18.9685 138.413 18.9685H135.181C134.985 18.9685 134.833 18.9062 134.727 18.7815C134.637 18.639 134.61 18.4787 134.647 18.3006L136.73 8.44229L132.643 13.8657C132.465 14.0616 132.295 14.213 132.135 14.3198C131.975 14.4268 131.788 14.4802 131.574 14.4802H130.185C129.81 14.4802 129.552 14.2754 129.41 13.8657L127.513 8.20184L125.376 18.3006C125.34 18.4965 125.242 18.6568 125.082 18.7815C124.922 18.9062 124.752 18.9685 124.574 18.9685H121.368Z" fill="#222222"/>
</g>
<defs>
<clipPath id="clip0_3558_1361">
<rect width="142.857" height="20" fill="white" transform="translate(0.0712891)"/>
</clipPath>
</defs>
</svg>
