<svg width="400" height="200" viewBox="0 0 400 200" fill="none" xmlns="http://www.w3.org/2000/svg">
  <rect width="100%" height="100%" fill="#FFF"/>
  <svg x="123" y="23" width="154" height="154" viewBox="0 0 331 317" fill="none" xmlns="http://www.w3.org/2000/svg">
    <g clip-path="url(#clip0_1035_28)">
      <path d="M165.5 317C256.903 317 331 246.037 331 158.5C331 70.9629 256.903 0 165.5 0C74.0969 0 0 70.9629 0 158.5C0 246.037 74.0969 317 165.5 317Z" fill="#525252"/>
      <path d="M117.24 200.598C107.376 200.598 99.3 198.379 93.011 193.941C86.7882 189.439 83.6768 182.973 83.6768 174.667C83.6768 172.892 83.8754 170.8 84.2726 168.264C85.3318 162.558 86.8544 155.711 88.8404 147.659C94.4674 125.849 109.031 114.944 132.466 114.944C138.821 114.944 144.581 115.959 149.612 118.051C154.643 120.016 158.615 123.06 161.528 127.117C164.441 131.111 165.897 135.866 165.897 141.382C165.897 143.031 165.699 145.123 165.301 147.659C164.044 154.696 162.587 161.607 160.8 168.264C157.887 179.105 152.922 187.284 145.772 192.673C138.689 197.998 129.156 200.598 117.24 200.598ZM119.028 183.48C123.662 183.48 127.567 182.148 130.811 179.549C134.121 176.95 136.504 172.955 137.895 167.503C139.814 160.022 141.271 153.555 142.264 147.976C142.595 146.327 142.793 144.616 142.793 142.84C142.793 135.613 138.888 131.999 131.01 131.999C126.376 131.999 122.404 133.33 119.094 135.93C115.85 138.529 113.533 142.523 112.143 147.976C110.62 153.301 109.164 159.768 107.641 167.503C107.31 169.088 107.112 170.736 107.112 172.512C107.045 179.866 111.084 183.48 119.028 183.48Z" fill="white"/>
      <path d="M171.657 199.456C170.73 199.456 170.068 199.202 169.538 198.632C169.141 197.998 169.009 197.3 169.141 196.476L186.287 119.128C186.419 118.241 186.883 117.543 187.677 116.973C188.405 116.402 189.2 116.148 190.06 116.148H223.094C232.296 116.148 239.644 117.987 245.205 121.601C250.832 125.278 253.678 130.54 253.678 137.451C253.678 139.416 253.414 141.508 252.95 143.664C250.898 152.794 246.727 159.514 240.372 163.889C234.149 168.263 225.61 170.419 214.753 170.419H198.004L192.311 196.476C192.112 197.364 191.715 198.061 190.921 198.632C190.193 199.202 189.398 199.456 188.538 199.456H171.657ZM215.613 153.998C219.122 153.998 222.101 153.111 224.683 151.272C227.331 149.433 229.052 146.834 229.913 143.41C230.177 142.079 230.31 140.874 230.31 139.86C230.31 137.578 229.582 135.802 228.191 134.598C226.801 133.33 224.352 132.696 220.976 132.696H206.081L201.38 153.998H215.613Z" fill="white"/>
    </g>
    <defs>
      <clipPath id="clip0_1035_28">
        <rect width="331" height="317" fill="white"/>
      </clipPath>
    </defs>
  </svg>
</svg>
