<svg width="123" height="24" viewBox="0 0 123 24" fill="none" xmlns="http://www.w3.org/2000/svg">
<g clip-path="url(#clip0_3558_1276)">
<path d="M19.2424 0L11.7543 4.30056V17.7229L7.62276 20.1178L3.46594 17.7209V12.9289L7.62276 10.5552L10.2956 12.1053V8.22818L7.59946 6.69753L0.113281 11.0467V19.6497L7.62471 23.9755L15.1109 19.6497V6.22942L19.2678 3.83244L23.4226 6.22942V11L19.2678 13.4184L16.5716 11.8547V15.7124L19.2424 17.2527L26.8024 12.9522V4.30056L19.2424 0Z" fill="black"/>
<path fill-rule="evenodd" clip-rule="evenodd" d="M63.1749 18.6337H66.5314V0.234863H63.1749V18.6337ZM41.5963 5.55521C43.1872 5.55521 44.506 6.19428 45.5492 7.47047C46.5941 8.74664 47.1147 10.3297 47.1147 12.2197C47.1147 14.1097 46.5922 15.6929 45.5492 16.969C44.504 18.2452 43.1872 18.8843 41.5963 18.8843C40.4697 18.8843 39.4906 18.5366 38.6631 17.8393C37.8513 17.1263 37.2549 16.1648 36.8722 14.9547V23.6063H33.5156V5.80385H36.8722V9.48283C37.2529 8.27269 37.8513 7.31895 38.6631 6.62357C39.4925 5.91068 40.4697 5.55521 41.5963 5.55521ZM40.3763 15.8249C41.2874 15.8249 42.0586 15.4851 42.6879 14.8051C43.3173 14.1097 43.632 13.2473 43.632 12.2197C43.632 11.1922 43.3173 10.3628 42.6879 9.68291C42.0586 8.9875 41.2874 8.63787 40.3763 8.63787C39.3643 8.63787 38.5291 8.9778 37.8648 9.65766C37.2024 10.3375 36.8703 11.1902 36.8703 12.2178C36.8703 13.2453 37.2024 14.1078 37.8648 14.8032C38.5272 15.4831 39.3643 15.823 40.3763 15.823V15.8249ZM48.0063 12.2197C48.0063 14.1097 48.661 15.6929 49.9701 16.969C51.2794 18.2452 52.913 18.8843 54.8689 18.8843C56.825 18.8843 58.4586 18.2452 59.7677 16.969C61.077 15.6929 61.7316 14.1097 61.7316 12.2197C61.7316 10.3297 61.077 8.74664 59.7677 7.47047C58.4586 6.19428 56.825 5.55521 54.8689 5.55521C52.913 5.55521 51.2794 6.19428 49.9701 7.47047C48.661 8.74664 48.0063 10.3297 48.0063 12.2197ZM52.4564 14.8051C51.8096 14.1097 51.4872 13.2473 51.4872 12.2197C51.4872 11.1922 51.8096 10.3628 52.4564 9.68291C53.1034 8.9875 53.9074 8.63787 54.8689 8.63787C55.8304 8.63787 56.6346 8.9778 57.2814 9.65766C57.9282 10.3375 58.2508 11.1902 58.2508 12.2178C58.2508 13.2453 57.9282 14.1078 57.2814 14.8032C56.6346 15.4831 55.8304 15.823 54.8689 15.823C53.9074 15.823 53.1034 15.4831 52.4564 14.8032V14.8051ZM97.5406 16.969C96.2314 15.6929 95.5768 14.1097 95.5768 12.2197C95.5768 10.3297 96.2314 8.74664 97.5406 7.47047C98.8497 6.19428 100.483 5.55521 102.439 5.55521C104.395 5.55521 106.029 6.19428 107.338 7.47047C108.647 8.74664 109.302 10.3297 109.302 12.2197C109.302 14.1097 108.647 15.6929 107.338 16.969C106.029 18.2452 104.395 18.8843 102.439 18.8843C100.483 18.8843 98.8517 18.2452 97.5406 16.969ZM99.0556 12.2197C99.0556 13.2473 99.378 14.1097 100.025 14.8051C100.672 15.4851 101.476 15.8249 102.438 15.8249C103.399 15.8249 104.203 15.4851 104.85 14.8051C105.497 14.1097 105.819 13.2473 105.819 12.2197C105.819 11.1922 105.497 10.3375 104.85 9.6596C104.203 8.97974 103.399 8.63982 102.438 8.63982C101.476 8.63982 100.672 8.9875 100.025 9.68485C99.378 10.3647 99.0556 11.2097 99.0556 12.2217V12.2197ZM118.235 5.55521C119.661 5.55521 120.805 6.05248 121.666 7.04701C122.544 8.04155 122.983 9.30995 122.983 10.8503V18.6317H119.626V11.4466C119.626 10.6172 119.362 9.93737 118.83 9.40707C118.299 8.87679 117.637 8.61068 116.841 8.61068C115.945 8.61068 115.217 8.87679 114.654 9.40707C114.09 9.93737 113.808 10.6172 113.808 11.4466V18.6317H110.452V5.80385H113.808V9.08658C114.141 7.99298 114.696 7.13053 115.475 6.50118C116.272 5.87183 117.19 5.55716 118.235 5.55716V5.55521ZM74.5945 15.213L78.0249 5.8155H81.4319L74.3711 23.6179H70.9641L72.755 19.0921L67.5084 5.8155H71.1388L74.5945 15.213ZM90.977 5.80385V9.01859C90.2777 6.92075 88.5509 5.80385 86.253 5.80385C82.7837 5.80385 80.7326 8.83405 80.7326 12.0197C80.7326 15.2052 82.7682 18.4842 86.253 18.4842C88.5509 18.4842 90.2777 16.8273 90.977 14.7294V17.1904C90.977 18.2355 90.6371 19.0959 89.9572 19.7758C89.2775 20.4557 88.45 20.7956 87.4709 20.7956C86.1442 20.7956 85.1595 20.1333 84.5126 18.8066L81.5037 20.3974C82.067 21.4424 82.8713 22.2776 83.9162 22.909C84.9613 23.5383 86.1461 23.853 87.4709 23.853C89.427 23.853 91.0606 23.2159 92.3697 21.9378C93.679 20.6616 94.3336 19.0785 94.3336 17.1885V5.80385H90.977ZM90.0077 14.4574C89.3609 15.1043 88.549 15.4268 87.572 15.4268C86.5948 15.4268 85.8315 15.1043 85.1846 14.4574C84.5378 13.7951 84.2154 12.9831 84.2154 12.0216C84.2154 11.0601 84.5378 10.2559 85.1846 9.60909C85.8315 8.96225 86.626 8.63982 87.572 8.63982C88.518 8.63982 89.3629 8.96225 90.0077 9.60909C90.6546 10.2384 90.977 11.0426 90.977 12.0216C90.977 13.0006 90.6546 13.8125 90.0077 14.4574Z" fill="black"/>
</g>
<defs>
<clipPath id="clip0_3558_1276">
<rect width="122.981" height="24" fill="white" transform="translate(0.00927734)"/>
</clipPath>
</defs>
</svg>
