<svg width="400" height="200" viewBox="0 0 400 200" fill="none" xmlns="http://www.w3.org/2000/svg">
<g clip-path="url(#clip0_439_73)">
<g clip-path="url(#clip1_439_73)">
<path d="M233.177 77.5313C230.807 76.1771 227.76 76.1771 225.052 77.5313L206.094 88.7031L193.229 95.8125L174.609 106.984C172.24 108.339 169.193 108.339 166.484 106.984L151.927 98.1823C149.557 96.8281 147.865 94.1198 147.865 91.0729V74.1458C147.865 71.4375 149.219 68.7292 151.927 67.0365L166.484 58.5729C168.854 57.2188 171.901 57.2188 174.609 58.5729L189.167 67.375C191.536 68.7292 193.229 71.4375 193.229 74.4844V85.6563L206.094 78.2083V66.6979C206.094 63.9896 204.74 61.2813 202.031 59.5885L174.948 43.6771C172.578 42.3229 169.531 42.3229 166.823 43.6771L139.062 59.9271C136.354 61.2813 135 63.9896 135 66.6979V98.5208C135 101.229 136.354 103.938 139.062 105.63L166.484 121.542C168.854 122.896 171.901 122.896 174.609 121.542L193.229 110.708L206.094 103.26L224.714 92.4271C227.083 91.0729 230.13 91.0729 232.839 92.4271L247.396 100.891C249.766 102.245 251.458 104.953 251.458 108V124.927C251.458 127.635 250.104 130.344 247.396 132.036L233.177 140.5C230.807 141.854 227.76 141.854 225.052 140.5L210.495 132.036C208.125 130.682 206.432 127.974 206.432 124.927V114.094L193.568 121.542V132.714C193.568 135.422 194.922 138.13 197.63 139.823L225.052 155.734C227.422 157.089 230.469 157.089 233.177 155.734L260.599 139.823C262.969 138.469 264.661 135.76 264.661 132.714V100.552C264.661 97.8438 263.307 95.1354 260.599 93.4427L233.177 77.5313Z" fill="#343434"/>
</g>
</g>
<defs>
<clipPath id="clip0_439_73">
<rect width="400" height="200" fill="white"/>
</clipPath>
<clipPath id="clip1_439_73">
<rect width="130" height="113.411" fill="white" transform="translate(135 43)"/>
</clipPath>
</defs>
</svg>
