<svg width="400" height="200" viewBox="0 0 400 200" fill="none" xmlns="http://www.w3.org/2000/svg">
<g clip-path="url(#clip0_439_211)">
<g clip-path="url(#clip1_439_211)">
<path d="M148.852 131.523C149.776 130.6 151.045 130.061 152.392 130.061H274.499C276.731 130.061 277.846 132.754 276.269 134.331L252.148 158.453C251.224 159.376 249.955 159.915 248.608 159.915H126.501C124.269 159.915 123.154 157.222 124.731 155.644L148.852 131.523Z" fill="#343434"/>
<path d="M148.852 41.4619C149.814 40.5386 151.084 40 152.392 40H274.499C276.731 40 277.846 42.693 276.269 44.2703L252.148 68.3918C251.224 69.3151 249.955 69.8537 248.608 69.8537H126.501C124.269 69.8537 123.154 67.1607 124.731 65.5834L148.852 41.4619Z" fill="#343434"/>
<path d="M252.148 86.2039C251.224 85.2806 249.955 84.742 248.608 84.742H126.501C124.269 84.742 123.154 87.435 124.731 89.0123L148.852 113.134C149.776 114.057 151.045 114.596 152.392 114.596H274.499C276.731 114.596 277.846 111.903 276.269 110.325L252.148 86.2039Z" fill="#343434"/>
</g>
</g>
<defs>
<clipPath id="clip0_439_211">
<rect width="400" height="200" fill="white"/>
</clipPath>
<clipPath id="clip1_439_211">
<rect width="153" height="119.915" fill="white" transform="translate(124 40)"/>
</clipPath>
</defs>
</svg>
