<svg width="16" height="16" viewBox="0 0 16 16" fill="none" xmlns="http://www.w3.org/2000/svg">
<path d="M15.9994 5.00505C15.9994 4.81367 15.9994 4.62293 15.9981 4.43155C15.9968 4.27069 15.9955 4.10983 15.9911 3.94898C15.9816 3.59865 15.9612 3.24514 15.8989 2.89799C15.836 2.54576 15.7323 2.21832 15.5696 1.89851C15.4093 1.58442 15.2008 1.29704 14.9516 1.0478C14.7023 0.798569 14.4149 0.58939 14.1009 0.429803C13.781 0.267037 13.4536 0.164037 13.102 0.100457C12.7555 0.0381482 12.4014 0.0171667 12.051 0.00826546C11.8902 0.00381483 11.7293 0.00190732 11.5684 0.00127152C11.3771 -9.22255e-08 11.1863 0 10.995 0H5.00505C4.81367 0 4.62293 -9.22255e-08 4.43155 0.00127152C4.27069 0.00254312 4.10983 0.00381483 3.94898 0.00826546C3.59865 0.0178025 3.24451 0.0381482 2.89799 0.100457C2.54639 0.163402 2.21895 0.267037 1.89915 0.429803C1.58506 0.590026 1.29768 0.798569 1.04844 1.0478C0.798569 1.29704 0.590026 1.58442 0.429803 1.89851C0.267038 2.21832 0.164037 2.54576 0.100457 2.89799C0.0381482 3.24451 0.0178025 3.59801 0.00826545 3.94898C0.00381483 4.10983 0.00190762 4.27069 0.00127182 4.43155C2.10949e-07 4.62293 0 4.81367 0 5.00505V10.995C0 11.1863 2.10949e-07 11.3771 0.00127182 11.5684C0.00254343 11.7293 0.00381483 11.8902 0.00826545 12.051C0.0178025 12.4014 0.0381482 12.7549 0.100457 13.102C0.163402 13.4542 0.267038 13.7817 0.429803 14.1015C0.590026 14.4156 0.79857 14.703 1.0478 14.9522C1.29704 15.2014 1.58442 15.4106 1.89851 15.5702C2.21832 15.733 2.54576 15.836 2.89736 15.8995C3.24387 15.9619 3.59801 15.9828 3.94834 15.9917C4.1092 15.9962 4.27006 15.9981 4.43092 15.9987C4.62229 16 4.81303 16 5.00441 16H10.9943C11.1857 16 11.3764 16 11.5678 15.9987C11.7287 15.9975 11.8895 15.9962 12.0504 15.9917C12.4007 15.9822 12.7549 15.9619 13.1014 15.8995C13.453 15.8366 13.7804 15.733 14.1002 15.5702C14.4143 15.41 14.7017 15.2014 14.9509 14.9522C15.2002 14.703 15.4093 14.4156 15.5689 14.1015C15.7317 13.7817 15.8347 13.4542 15.8983 13.102C15.9606 12.7555 15.9809 12.402 15.9905 12.051C15.9949 11.8902 15.9968 11.7293 15.9975 11.5684C15.9987 11.3771 15.9987 11.1863 15.9987 10.995V5.00505H15.9994Z" fill="url(#paint0_linear_9501_88410)"/>
<path d="M7.99464 5.81818C8.65587 5.81818 9.19185 6.35416 9.19185 7.01476C9.19185 7.676 8.65587 8.21135 7.99464 8.21135C7.3334 8.21135 6.79742 7.67536 6.79742 7.01476C6.79742 6.35416 7.3334 5.81818 7.99464 5.81818ZM11.4407 7.43503C11.4407 8.61635 10.843 9.66034 9.93384 10.2809C9.88742 10.3127 9.82448 10.2764 9.82829 10.2205C9.84101 10.0107 9.84482 9.82438 9.83402 9.633C9.8302 9.57006 9.855 9.50902 9.90141 9.46579C10.4438 8.95714 10.7826 8.23487 10.7826 7.43439C10.7826 5.86078 9.47161 4.5879 7.88464 4.64957C6.4242 4.70616 5.24606 5.89893 5.20791 7.36001C5.18629 8.18973 5.52899 8.94188 6.08786 9.46642C6.13364 9.50966 6.15844 9.57069 6.15462 9.63364C6.14381 9.82502 6.14763 10.0107 6.16034 10.2211C6.16352 10.2771 6.10121 10.3127 6.0548 10.2815C5.13416 9.65271 4.53269 8.59029 4.54794 7.39052C4.57147 5.5664 6.03445 4.06336 7.8573 3.99279C9.82003 3.91649 11.4407 5.49011 11.4407 7.43503ZM7.98001 2.29201C10.8233 2.28375 13.1389 4.59426 13.1389 7.43439C13.1389 9.6737 11.6995 11.583 9.69732 12.2868C9.64836 12.304 9.59813 12.2633 9.6064 12.2118C9.6331 12.0357 9.6579 11.859 9.68079 11.6854C9.68905 11.6237 9.72784 11.5709 9.78442 11.5461C11.3701 10.8537 12.4809 9.27123 12.4809 7.43439C12.4809 4.94904 10.4482 2.92973 7.95776 2.95007C5.52136 2.96978 3.53257 4.9554 3.50904 7.39052C3.49124 9.24643 4.60707 10.848 6.20485 11.5461C6.26144 11.5709 6.30086 11.6237 6.30912 11.6854C6.33201 11.8596 6.35681 12.0363 6.38351 12.2125C6.39114 12.264 6.34155 12.3047 6.29259 12.2875C4.27073 11.5767 2.82301 9.63745 2.85098 7.36954C2.88532 4.57137 5.17993 2.30028 7.98001 2.29201ZM7.99464 8.69583C8.44987 8.69583 8.83517 8.84397 9.05516 9.07604C9.1696 9.19684 9.23 9.32082 9.24908 9.49694C9.28595 9.83837 9.26497 10.1327 9.22492 10.6032C9.18677 11.0515 9.11429 11.6491 9.01955 12.2576C8.95216 12.6906 8.89748 12.9246 8.84789 13.0918C8.76714 13.3633 8.46577 13.6004 7.994 13.6004C7.52223 13.6004 7.22086 13.3633 7.14012 13.0918C7.09052 12.9246 7.03584 12.6906 6.96845 12.2576C6.87371 11.6491 6.80123 11.0515 6.76308 10.6032C6.72303 10.1327 6.70205 9.83837 6.73892 9.49694C6.758 9.32082 6.8184 9.19684 6.93284 9.07604C7.1541 8.84397 7.5394 8.69583 7.99464 8.69583Z" fill="white"/>
<defs>
<linearGradient id="paint0_linear_9501_88410" x1="7.99962" y1="6.35804e-05" x2="7.99962" y2="15.9994" gradientUnits="userSpaceOnUse">
<stop stop-color="#D56EFC"/>
<stop offset="1" stop-color="#832BC1"/>
</linearGradient>
</defs>
</svg>
