<svg width="16" height="16" viewBox="0 0 16 16" fill="none" xmlns="http://www.w3.org/2000/svg">
<path d="M10.6666 16H7.33332C7.33491 15.0367 7.14608 14.0825 6.77769 13.1924C6.4093 12.3023 5.8686 11.4938 5.18669 10.8134C4.5055 10.1325 3.69685 9.59251 2.80693 9.22418C1.91701 8.85586 0.963251 8.66645 0.00012207 8.66677V5.3335C1.40114 5.332 2.78866 5.60713 4.0831 6.1431C5.37755 6.67906 6.55343 7.46532 7.54331 8.45678C8.53521 9.44633 9.32176 10.6222 9.85776 11.9167C10.3938 13.2112 10.6686 14.5989 10.6666 16Z" fill="url(#paint0_linear_9501_88423)"/>
<path d="M4.66664 13.6836C4.66222 14.3024 4.41215 14.8941 3.97145 15.3286C3.53075 15.763 2.93551 16.0046 2.31668 16.0002C1.69786 15.9958 1.10613 15.7457 0.671679 15.305C0.237228 14.8643 -0.00436059 14.269 5.96038e-05 13.6502C0.010345 13.0354 0.262949 12.4494 0.702946 12.0198C1.14294 11.5902 1.73475 11.3516 2.34969 11.356C2.96463 11.3604 3.55297 11.6074 3.98678 12.0432C4.4206 12.4791 4.66514 13.0686 4.66664 13.6836Z" fill="url(#paint1_linear_9501_88423)"/>
<path d="M15.9998 15.9997H12.6769C12.6795 14.337 12.3543 12.6901 11.7197 11.1532C11.0852 9.61638 10.1538 8.21973 8.97895 7.04321C7.80901 5.86653 6.41783 4.93294 4.88553 4.29622C3.35324 3.6595 1.71011 3.33224 0.0507878 3.33328H0.00012207V7.62315e-06H0.0507878C2.14683 -0.00204648 4.22252 0.411038 6.15807 1.21542C8.09363 2.0198 9.85071 3.19955 11.3279 4.68659C12.8126 6.17222 13.9895 7.93625 14.7912 9.87758C15.5929 11.8189 16.0036 13.8994 15.9998 15.9997Z" fill="url(#paint2_linear_9501_88423)"/>
<defs>
<linearGradient id="paint0_linear_9501_88423" x1="0.750108" y1="10.6667" x2="11.4166" y2="10.6667" gradientUnits="userSpaceOnUse">
<stop stop-color="#F8B700"/>
<stop offset="0.51" stop-color="#F87900"/>
<stop offset="1" stop-color="#AE35DD"/>
</linearGradient>
<linearGradient id="paint1_linear_9501_88423" x1="0.000392931" y1="13.6836" x2="6.07161" y2="13.6836" gradientUnits="userSpaceOnUse">
<stop stop-color="#FE4F45"/>
<stop offset="0.52" stop-color="#F87900"/>
<stop offset="1" stop-color="#F8B700"/>
</linearGradient>
<linearGradient id="paint2_linear_9501_88423" x1="0.00012207" y1="7.99986" x2="15.9998" y2="7.99986" gradientUnits="userSpaceOnUse">
<stop stop-color="#FE4F45"/>
<stop offset="0.52" stop-color="#F87900"/>
<stop offset="1" stop-color="#F8B700"/>
</linearGradient>
</defs>
</svg>
