<svg width="21" height="21" viewBox="0 0 21 21" fill="none" xmlns="http://www.w3.org/2000/svg">
<path d="M18.9167 10.2319C18.9167 10.189 18.9167 10.1401 18.9147 10.0835C18.9128 9.92529 18.9089 9.74756 18.905 9.5581C18.8893 9.01318 18.862 8.47021 18.819 7.9585C18.7604 7.25342 18.6745 6.66553 18.5573 6.22412C18.4336 5.76348 18.1912 5.34336 17.8543 5.00575C17.5174 4.66815 17.0978 4.42489 16.6374 4.30029C16.0847 4.15186 15.0026 4.06006 13.4792 4.00342C12.7546 3.97607 11.9792 3.9585 11.2038 3.94873C10.9323 3.94482 10.6804 3.94287 10.4538 3.94092H9.87958C9.65302 3.94287 9.40106 3.94482 9.12958 3.94873C8.35419 3.9585 7.5788 3.97607 6.85419 4.00342C5.33075 4.06201 4.24677 4.15381 3.69598 4.30029C3.23544 4.42459 2.81565 4.66774 2.47869 5.00539C2.14172 5.34304 1.89942 5.76332 1.77606 6.22412C1.65692 6.66553 1.57294 7.25342 1.51434 7.9585C1.47137 8.47021 1.44403 9.01318 1.42841 9.5581C1.42255 9.74756 1.42059 9.92529 1.41864 10.0835C1.41864 10.1401 1.41669 10.189 1.41669 10.2319V10.3413C1.41669 10.3843 1.41669 10.4331 1.41864 10.4897C1.42059 10.6479 1.4245 10.8257 1.42841 11.0151C1.44403 11.5601 1.47137 12.103 1.51434 12.6147C1.57294 13.3198 1.65887 13.9077 1.77606 14.3491C2.02606 15.2847 2.76044 16.0229 3.69598 16.2729C4.24677 16.4214 5.33075 16.5132 6.85419 16.5698C7.5788 16.5972 8.35419 16.6147 9.12958 16.6245C9.40106 16.6284 9.65302 16.6304 9.87958 16.6323H10.4538C10.6804 16.6304 10.9323 16.6284 11.2038 16.6245C11.9792 16.6147 12.7546 16.5972 13.4792 16.5698C15.0026 16.5112 16.0866 16.4194 16.6374 16.2729C17.5729 16.0229 18.3073 15.2866 18.5573 14.3491C18.6765 13.9077 18.7604 13.3198 18.819 12.6147C18.862 12.103 18.8893 11.5601 18.905 11.0151C18.9108 10.8257 18.9128 10.6479 18.9147 10.4897C18.9147 10.4331 18.9167 10.3843 18.9167 10.3413V10.2319ZM17.5104 10.3335C17.5104 10.3745 17.5104 10.4194 17.5085 10.4722C17.5065 10.6245 17.5026 10.7925 17.4987 10.9741C17.485 11.4937 17.4577 12.0132 17.4167 12.4956C17.364 13.1245 17.2897 13.6401 17.1979 13.9858C17.0768 14.437 16.7214 14.7944 16.2722 14.9136C15.862 15.0229 14.8288 15.1108 13.4245 15.1636C12.7136 15.1909 11.9479 15.2085 11.1843 15.2183C10.9167 15.2222 10.6686 15.2241 10.446 15.2241H9.88739L9.14911 15.2183C8.38544 15.2085 7.62177 15.1909 6.90887 15.1636C5.50458 15.1089 4.46942 15.0229 4.06122 14.9136C3.612 14.7925 3.25653 14.437 3.13544 13.9858C3.04364 13.6401 2.96942 13.1245 2.91669 12.4956C2.87567 12.0132 2.85028 11.4937 2.83466 10.9741C2.8288 10.7925 2.82684 10.6226 2.82489 10.4722C2.82489 10.4194 2.82294 10.3726 2.82294 10.3335V10.2397C2.82294 10.1987 2.82294 10.1538 2.82489 10.1011C2.82684 9.94873 2.83075 9.78076 2.83466 9.59912C2.84833 9.07959 2.87567 8.56006 2.91669 8.07764C2.96942 7.44873 3.04364 6.93311 3.13544 6.5874C3.25653 6.13623 3.612 5.77881 4.06122 5.65967C4.47137 5.55029 5.50458 5.4624 6.90887 5.40967C7.61981 5.38232 8.38544 5.36475 9.14911 5.35498C9.41669 5.35107 9.66473 5.34912 9.88739 5.34912H10.446L11.1843 5.35498C11.9479 5.36475 12.7116 5.38232 13.4245 5.40967C14.8288 5.46435 15.864 5.55029 16.2722 5.65967C16.7214 5.78076 17.0768 6.13623 17.1979 6.5874C17.2897 6.93311 17.364 7.44873 17.4167 8.07764C17.4577 8.56006 17.4831 9.07959 17.4987 9.59912C17.5046 9.78076 17.5065 9.95068 17.5085 10.1011C17.5085 10.1538 17.5104 10.2007 17.5104 10.2397V10.3335ZM8.42841 12.9038L12.9597 10.2671L8.42841 7.66943V12.9038Z" fill="#1F2229"/>
</svg>
