<svg width="162" height="30" viewBox="0 0 162 30" fill="none" xmlns="http://www.w3.org/2000/svg">
<path d="M12.7842 4.02852L11.3928 4.83184C11.3525 4.85511 11.3198 4.91173 11.3198 4.95828V14.1467C11.3198 14.1933 11.3525 14.2122 11.3928 14.1889L12.7842 13.3856C12.8245 13.3623 12.8572 13.3057 12.8572 13.2591V4.07069C12.8572 4.02411 12.8245 4.00525 12.7842 4.02852Z" fill="black"/>
<path d="M19.3766 0.218467L14.2546 3.17561C14.2143 3.19888 14.1816 3.2555 14.1816 3.30205V4.90866C14.1816 4.95523 14.2143 4.9741 14.2546 4.95082L19.3766 1.99368C19.4169 1.9704 19.4496 1.91379 19.4496 1.86723V0.260618C19.4496 0.21406 19.4169 0.195188 19.3766 0.218467Z" fill="black"/>
<path d="M19.377 4.01095L14.2551 6.96808C14.2148 6.99136 14.1821 7.04797 14.1821 7.09454V8.70115C14.1821 8.7477 14.2148 8.76657 14.2551 8.7433L19.377 5.78616C19.4174 5.76289 19.45 5.70627 19.45 5.6597V4.05309C19.45 4.00654 19.4174 3.98767 19.377 4.01095Z" fill="black"/>
<path d="M19.377 7.80392L14.2551 10.761C14.2148 10.7843 14.1821 10.8409 14.1821 10.8875V12.4941C14.1821 12.5407 14.2148 12.5595 14.2551 12.5363L19.377 9.57913C19.4174 9.55585 19.45 9.49924 19.45 9.45267V7.84606C19.45 7.79951 19.4174 7.78064 19.377 7.80392Z" fill="black"/>
<path d="M26.6829 17.9554V16.3488C26.6829 16.3023 26.6503 16.2456 26.61 16.2224L18.6526 11.6281C18.6123 11.6049 18.5796 11.6237 18.5796 11.6703V13.2769C18.5796 13.3235 18.6123 13.3801 18.6526 13.4033L26.61 17.9976C26.6503 18.0208 26.6829 18.002 26.6829 17.9554Z" fill="black"/>
<path d="M26.6864 25.5698V19.6555C26.6864 19.609 26.6536 19.5524 26.6133 19.5291L25.222 18.7258C25.1815 18.7025 25.1489 18.7214 25.1489 18.768V24.6823C25.1489 24.7288 25.1815 24.7854 25.222 24.8087L26.6133 25.6121C26.6536 25.6352 26.6864 25.6163 26.6864 25.5698Z" fill="black"/>
<path d="M23.402 23.6733V17.7591C23.402 17.7125 23.3694 17.6559 23.3291 17.6326L21.9376 16.8293C21.8974 16.806 21.8647 16.8249 21.8647 16.8715V22.7858C21.8647 22.8323 21.8974 22.8889 21.9376 22.9122L23.3291 23.7154C23.3694 23.7388 23.402 23.7198 23.402 23.6733Z" fill="black"/>
<path d="M20.1174 21.7768V15.8626C20.1174 15.816 20.0848 15.7594 20.0444 15.7361L18.6531 14.9328C18.6128 14.9095 18.5801 14.9284 18.5801 14.975V20.8893C18.5801 20.9358 18.6128 20.9924 18.6531 21.0157L20.0444 21.8191C20.0848 21.8422 20.1174 21.8235 20.1174 21.7768Z" fill="black"/>
<path d="M23.7502 6.98776L22.3587 6.18445C22.3184 6.16117 22.253 6.16117 22.2127 6.18445L14.2553 10.7787C14.215 10.802 14.215 10.8397 14.2553 10.863L15.6467 11.6663C15.687 11.6895 15.7524 11.6895 15.7927 11.6663L23.7502 7.07207C23.7905 7.04877 23.7905 7.01104 23.7502 6.98776Z" fill="black"/>
<path d="M30.3466 10.7925L25.2249 7.83533C25.1844 7.81205 25.1192 7.81205 25.0787 7.83533L23.6874 8.63864C23.6472 8.66192 23.6472 8.69965 23.6874 8.72295L28.8094 11.6801C28.8496 11.7034 28.9151 11.7034 28.9553 11.6801L30.3466 10.8768C30.3871 10.8535 30.3871 10.8157 30.3466 10.7925Z" fill="black"/>
<path d="M27.0621 12.6889L21.9402 9.73181C21.8999 9.70854 21.8345 9.70854 21.7942 9.73181L20.4028 10.5351C20.3625 10.5584 20.3625 10.5962 20.4028 10.6194L25.5247 13.5766C25.5649 13.5998 25.6304 13.5998 25.6706 13.5766L27.0621 12.7732C27.1024 12.75 27.1024 12.7122 27.0621 12.6889Z" fill="black"/>
<path d="M23.7774 14.5849L18.6555 11.6278C18.6152 11.6045 18.5498 11.6045 18.5095 11.6278L17.1181 12.4311C17.0778 12.4544 17.0778 12.4921 17.1181 12.5154L22.2401 15.4726C22.2804 15.4958 22.3458 15.4958 22.3861 15.4726L23.7774 14.6692C23.8178 14.646 23.8178 14.6082 23.7774 14.5849Z" fill="black"/>
<path d="M18.637 25.9715L20.0283 25.1682C20.0687 25.145 20.1013 25.0884 20.1013 25.0417V15.8534C20.1013 15.8068 20.0687 15.788 20.0283 15.8112L18.637 16.6145C18.5966 16.6378 18.564 16.6944 18.564 16.741V25.9295C18.564 25.976 18.5966 25.9949 18.637 25.9715Z" fill="black"/>
<path d="M12.0442 29.7823L17.1661 26.8252C17.2064 26.8018 17.2391 26.7453 17.2391 26.6988V25.092C17.2391 25.0455 17.2064 25.0268 17.1661 25.05L12.0442 28.0071C12.0039 28.0304 11.9712 28.087 11.9712 28.1335V29.7402C11.9712 29.7867 12.0039 29.8057 12.0442 29.7823Z" fill="black"/>
<path d="M12.0442 25.9894L17.1661 23.0323C17.2064 23.009 17.2391 22.9524 17.2391 22.9059V21.2992C17.2391 21.2527 17.2064 21.2337 17.1661 21.2571L12.0442 24.2142C12.0039 24.2375 11.9712 24.2941 11.9712 24.3406V25.9473C11.9712 25.9939 12.0039 26.0128 12.0442 25.9894Z" fill="black"/>
<path d="M12.0442 22.1964L17.1661 19.2393C17.2064 19.216 17.2391 19.1594 17.2391 19.1128V17.5062C17.2391 17.4597 17.2064 17.4408 17.1661 17.4641L12.0442 20.4212C12.0039 20.4445 11.9712 20.5011 11.9712 20.5476V22.1543C11.9712 22.2008 12.0039 22.2198 12.0442 22.1964Z" fill="black"/>
<path d="M7.67038 23.0398L9.06174 23.8431C9.10207 23.8663 9.16744 23.8663 9.20775 23.8431L17.1652 19.2488C17.2055 19.2255 17.2055 19.1878 17.1652 19.1645L15.7738 18.3612C15.7335 18.3379 15.6681 18.3379 15.6278 18.3612L7.67038 22.9554C7.63005 22.9788 7.63005 23.0164 7.67038 23.0398Z" fill="black"/>
<path d="M1.07419 19.2356L6.1961 22.1928C6.23643 22.2161 6.30178 22.2161 6.34211 22.1928L7.73349 21.3894C7.7738 21.3662 7.7738 21.3284 7.73349 21.3052L2.61156 18.348C2.57124 18.3247 2.50587 18.3247 2.46555 18.348L1.07419 19.1513C1.03387 19.1746 1.03387 19.2123 1.07419 19.2356Z" fill="black"/>
<path d="M4.35884 17.3391L9.48077 20.2962C9.52108 20.3196 9.58646 20.3196 9.62678 20.2962L11.0181 19.493C11.0585 19.4697 11.0585 19.4319 11.0181 19.4087L5.89623 16.4515C5.8559 16.4283 5.79055 16.4283 5.75022 16.4515L4.35884 17.2548C4.31854 17.2781 4.31854 17.3159 4.35884 17.3391Z" fill="black"/>
<path d="M7.644 15.4427L12.7659 18.3998C12.8062 18.4231 12.8716 18.4231 12.9119 18.3998L14.3033 17.5965C14.3436 17.5732 14.3436 17.5355 14.3033 17.5122L9.18139 14.5551C9.14106 14.5318 9.07569 14.5318 9.03538 14.5551L7.644 15.3583C7.60369 15.3816 7.60369 15.4194 7.644 15.4427Z" fill="black"/>
<path d="M4.75342 12.0726V13.6792C4.75342 13.7258 4.7861 13.7824 4.82642 13.8057L12.7838 18.3999C12.8242 18.4232 12.8568 18.4043 12.8568 18.3578V16.7511C12.8568 16.7046 12.8242 16.648 12.7838 16.6247L4.82642 12.0305C4.7861 12.0072 4.75342 12.0261 4.75342 12.0726Z" fill="black"/>
<path d="M4.75049 4.45788V10.3721C4.75049 10.4187 4.78319 10.4753 4.8235 10.4986L6.21487 11.3019C6.25518 11.3252 6.28788 11.3063 6.28788 11.2598V5.3455C6.28788 5.29893 6.25518 5.24231 6.21487 5.21904L4.8235 4.41574C4.78319 4.39245 4.75049 4.41133 4.75049 4.45788Z" fill="black"/>
<path d="M8.03564 6.35437V12.2686C8.03564 12.3152 8.06832 12.3718 8.10865 12.3951L9.50003 13.1984C9.54034 13.2217 9.57303 13.2028 9.57303 13.1563V7.24198C9.57303 7.19541 9.54034 7.1388 9.50003 7.11552L8.10865 6.31222C8.06832 6.28893 8.03564 6.30782 8.03564 6.35437Z" fill="black"/>
<path d="M11.3198 8.25084V14.1651C11.3198 14.2117 11.3525 14.2683 11.3928 14.2916L12.7842 15.0949C12.8245 15.1182 12.8572 15.0993 12.8572 15.0527V9.13846C12.8572 9.09189 12.8245 9.03527 12.7842 9.012L11.3928 8.2087C11.3525 8.18543 11.3198 8.20429 11.3198 8.25084Z" fill="black"/>
<mask id="mask0_16157_95857" style="mask-type:luminance" maskUnits="userSpaceOnUse" x="49" y="4" width="112" height="21">
<path d="M160.998 4.72461H49.5244V24.885H160.998V4.72461Z" fill="white"/>
</mask>
<g mask="url(#mask0_16157_95857)">
<path d="M52.1074 15.7689H60.6403V13.5298H52.1074V7.16462H62.1164V4.73682H49.5244V24.7295H62.1164V22.3352H52.1074V15.7689Z" fill="black"/>
<path d="M73.203 10.5825C72.6789 12.1633 72.1506 13.7357 71.6223 15.2998C71.0728 16.9225 70.5278 18.5536 69.9828 20.1932L69.5718 21.43L65.9406 10.5825H63.4331L68.5528 24.575H70.5824L75.7148 10.5825H73.1946H73.203Z" fill="black"/>
<path d="M99.5149 13.4335L101.285 11.316C100.437 10.7248 99.5486 10.4229 98.6345 10.4229C97.2215 10.4229 96.127 10.8673 95.2884 11.7856L94.5335 12.6117V10.5822H92.1519V24.5746H94.5335V16.1171C94.5335 14.9849 94.8607 14.1379 95.5064 13.5928C96.1354 13.0687 96.8524 12.8045 97.6282 12.8045C98.2487 12.8045 98.8819 13.0142 99.5107 13.4335H99.5149Z" fill="black"/>
<path d="M111.679 23.3041C111.98 23.0609 112.266 22.7967 112.517 22.5241L110.769 20.9601C109.951 21.8951 108.949 22.3648 107.775 22.3648C105.93 22.3648 103.733 21.5387 103.733 17.5931C103.733 13.6473 105.93 12.8045 107.775 12.8045C108.907 12.8045 109.909 13.2742 110.756 14.205L112.517 12.6452C112.257 12.3643 111.976 12.1043 111.679 11.8653C111.314 11.576 110.92 11.316 110.5 11.1063C110.081 10.8925 109.632 10.7248 109.159 10.6032C108.689 10.4858 108.186 10.4229 107.662 10.4229C106.047 10.4229 104.571 10.9847 103.271 12.0959C101.988 13.1693 101.338 15.0185 101.338 17.5889C101.338 20.1593 101.988 22.0084 103.271 23.0945C104.596 24.1888 106.077 24.7423 107.662 24.7423C108.186 24.7423 108.689 24.6837 109.159 24.5621C109.632 24.4405 110.081 24.2727 110.5 24.0589C110.924 23.8449 111.318 23.5892 111.679 23.2999V23.3041Z" fill="black"/>
<path d="M117.758 21.086V4.72461H115.376V21.3292C115.376 22.5411 115.699 23.3924 116.324 23.8535C116.999 24.3315 117.837 24.5747 118.823 24.5747H119.85V22.365H119.125C118.269 22.365 117.762 21.887 117.762 21.086H117.758Z" fill="black"/>
<path d="M127.209 10.5576C125.896 10.5576 124.588 11.0818 123.321 12.1175C122.106 13.1322 121.489 15.0359 121.489 17.7698C121.489 19.7279 121.69 22.0802 123.351 23.3928C124.357 24.1895 125.615 24.6842 126.89 24.8352C128.068 24.9735 129.28 24.7973 130.379 24.3612C131.167 24.0469 131.896 23.5269 132.538 22.835L130.81 21.3632C129.871 22.2312 128.798 22.6716 127.611 22.6716C126.542 22.6716 125.636 22.3444 124.919 21.6944C124.261 21.0697 123.913 20.164 123.883 19.0025L123.871 18.5581H132.915V16.4154C132.915 14.6165 132.358 13.2202 131.209 12.151C130.06 11.0818 128.752 10.5618 127.209 10.5618V10.5576ZM123.854 16.6879L123.883 16.2267C123.913 15.7109 124.009 15.2329 124.169 14.8094C124.332 14.3691 124.563 14.0001 124.856 13.7108C125.473 13.0944 126.265 12.78 127.209 12.78C128.152 12.78 128.894 13.0819 129.502 13.6773C130.102 14.2685 130.446 15.1239 130.517 16.2183L130.546 16.6837H123.85L123.854 16.6879Z" fill="black"/>
<path d="M83.199 10.5576C81.8865 10.5576 80.5783 11.0818 79.3119 12.1175C78.096 13.1322 77.4795 15.0359 77.4795 17.7698C77.4795 19.7279 77.6808 22.0802 79.3413 23.3928C80.3476 24.1895 81.6056 24.6842 82.8803 24.8352C84.0586 24.9735 85.2704 24.7973 86.369 24.3612C87.1572 24.0469 87.8869 23.5269 88.5284 22.835L86.8008 21.3632C85.8616 22.2312 84.7882 22.6716 83.6015 22.6716C82.5324 22.6716 81.6265 22.3444 80.9096 21.6944C80.2512 21.0697 79.9033 20.164 79.8739 19.0025L79.8614 18.5581H88.9059V16.4154C88.9059 14.6165 88.3481 13.2202 87.1993 12.151C86.0502 11.0818 84.7421 10.5618 83.199 10.5618V10.5576ZM79.8487 16.6879L79.8781 16.2267C79.9075 15.7109 80.0039 15.2329 80.1632 14.8094C80.3267 14.3691 80.5574 14.0001 80.8508 13.7108C81.4673 13.0944 82.2598 12.78 83.2032 12.78C84.1465 12.78 84.8889 13.0819 85.4967 13.6773C86.0963 14.2685 86.4402 15.1239 86.5115 16.2183L86.5409 16.6837H79.8445L79.8487 16.6879Z" fill="black"/>
<path d="M144.246 11.4163C143.726 11.0725 143.127 10.8209 142.464 10.6616C141.823 10.5064 141.085 10.4268 140.271 10.4268H140.124H139.936C138.099 10.4268 136.724 11.0138 135.734 12.2172L137.583 13.5841L138.498 12.8629C138.745 12.7749 139.026 12.7162 139.324 12.6826C139.605 12.6533 139.923 12.6365 140.254 12.6365C140.254 12.6365 140.409 12.6365 140.481 12.6365C141.626 12.6365 142.418 12.8797 142.909 13.3745C143.261 13.7309 143.437 14.2047 143.424 14.775V16.5697H139.231C137.814 16.5864 136.724 16.9848 135.994 17.7479C135.265 18.532 134.908 19.4671 134.908 20.6159C134.908 21.6307 135.193 22.4693 135.776 23.1653L136.183 23.572C136.954 24.3436 138.116 24.7545 139.634 24.7924C140.074 24.7924 140.481 24.7587 140.854 24.7002C141.324 24.6204 141.802 24.4904 142.204 24.2262C142.435 24.0754 142.607 23.8825 142.774 23.6644C142.963 23.4212 143.152 23.178 143.341 22.9348L143.433 22.8174V24.6204H145.731V14.9343C145.722 13.2655 145.232 12.1082 144.25 11.4121L144.246 11.4163ZM143.433 19.7899C143.433 20.0415 143.42 20.2763 143.399 20.4903C143.349 20.9556 143.156 21.3959 142.884 21.7732C142.691 22.0416 142.422 22.2472 142.108 22.3477C141.609 22.5071 140.942 22.5867 140.087 22.5867H139.978C138.98 22.5867 138.259 22.3771 137.776 21.9536C137.286 21.5342 137.038 21.0395 137.038 20.4818C137.03 19.5971 137.491 18.5236 139.751 18.4523H143.433V19.7899Z" fill="black"/>
<path d="M157.129 13.6556L158.899 11.5381C158.052 10.9469 157.163 10.645 156.249 10.645C154.836 10.645 153.741 11.0895 152.902 12.0078L152.148 12.8338V10.8043H149.766V24.7967H152.148V16.3392C152.148 15.2071 152.475 14.3601 153.12 13.815C153.749 13.2909 154.466 13.0267 155.242 13.0267C155.863 13.0267 156.496 13.2364 157.125 13.6556H157.129Z" fill="black"/>
</g>
</svg>
