<svg width="47" height="50" viewBox="0 0 47 50" fill="none" xmlns="http://www.w3.org/2000/svg">
<path d="M1.3 23.7C0.900003 25.5 1.20001 27.3 1.90001 28.9H3.10001C3.00001 28.3 3 27.7 3.3 27.2C3.5 26.6 4.00001 26 4.60001 25.7C4.90001 25.6 5.30001 25.5 5.60001 25.4C5.90001 25.4 6.30001 25.4 6.60001 25.4C7.20001 25.4 7.7 25.4 8.3 25.4C8.3 27.1 8.3 28.8 8.3 30.5C8.3 31.7 8.30001 32.9 8.10001 34C7.90001 35.2 7.40001 36.3 6.60001 37.2C6.00001 37.9 5.3 38.5 4.5 38.9H6.5C8.2 38.3 10 37.4 11.5 36.3C13 35.3 14.4 34 15.3 32.3C15.7 31.5 16 30.6 16.1 29.7C16.3 28.8 16.3 27.9 16.3 26.9V22.1V15.3C16.3 13.1 16.5 10.9 17.3 8.8C18 6.9 19.2 5.20001 20.5 3.70001C21.1 3.00001 21.7 2.40001 22.4 1.90001C22.5 1.80001 22.6 1.80001 22.7 1.70001L22.8 0.800003C21.8 1.5 20.8 2.00001 19.6 2.10001C18.7 2.30001 17.8 2.30001 16.9 2.20001C15.8 2.00001 14.7 1.6 13.6 1.3C12.6 1 11.4 0.600006 10.3 0.600006C9.3 0.600006 8.2 0.800012 7.3 1.20001C6.4 1.60001 5.5 2.20001 4.8 2.90001C2.8 4.70001 1.3 7.10001 0 9.40001H1.40001C1.60001 8.50001 2.2 7.7 3 7.3C3.7 6.9 4.50001 6.7 5.40001 6.8C6.80001 6.9 8.10001 7.40001 9.40001 7.70001C10.8 8.00001 12.1 8.1 13.5 7.8C14.1 7.7 14.7 7.40001 15.2 7.20001L12.7 9.3C11.9 10 11.1 10.7 10.4 11.5C9.70001 12.3 9.20001 13.2 8.90001 14.3C8.40001 15.6 8.3 17.1 8.2 18.6C7 18.6 5.8 18.7 4.7 19.2C3.8 19.6 3.00001 20.2 2.40001 21C1.80001 21.8 1.4 22.8 1.3 23.7ZM27.2 8.60001C28.9 9.70001 31 10.4 33 10.4L20.4 24.9L20.6 14.4C20.7 12.6 20.8 10.9 21.3 9.3C21.8 7.6 22.7 6.20001 23.8 4.90001C25 3.60001 26.3 2.30001 27.8 1.40001L27.3 0.700012L26.8 0C25.3 1.1 23.8 2.4 22.5 3.8C21.3 5.3 20.2 6.9 19.6 8.8C19 10.6 18.9 12.6 18.8 14.4L18.5 28.9C18.5 29.8 18.5 30.5 18.3 31.2C18.2 31.9 18 32.7 17.6 33.3C17 34.6 15.9 35.7 14.6 36.8C13.5 37.7 12.3 38.5 11.1 39.3C8.00001 40.6 5.10001 42.7 2.90001 45.4C2.00001 46.6 1.1 47.8 0.5 49.2H2.40001C3.20001 47.9 4.30001 46.9 5.60001 46.1C7.00001 45.2 8.70001 44.7 10.4 44.5C12.1 44.3 13.8 44.4 15.5 44.7C18.2 45.3 20.7 46.6 23 48.2L31.6 41.5C32.1 42.9 32.8 44.3 33.8 45.4C34.7 46.6 35.9 47.5 37.2 48.1L46.6 40.7V38.8L42.3 42C41.4 41.3 40.7 40.4 40.1 39.4C39.2 38.1 38.7 36.5 38.3 34.9C37.9 33.4 37.6 31.8 37.2 30.3C36.7 28.6 36 26.9 35 25.3C34 23.8 32.7 22.5 31.2 21.4C29.8 20.5 28.4 19.7 26.8 19.3L34.8 10.1C36 10 37.1 9.60001 38.2 9.10001C39.7 8.30001 41.1 7.00001 41.9 5.40001C42.8 3.80001 43 2.00001 42.7 0.200012H41.8C41.5 1.40001 40.6 2.4 39.6 3C38.2 3.7 36.6 3.80001 35.2 3.40001C33.8 3.00001 32.5 2.20001 31.6 1.10001L24 10.1L24.9 11L27.2 8.60001ZM15.8 38.2C17.2 37.1 18.4 35.8 19.2 34.2C19.6 33.4 19.9 32.5 20.1 31.6C20.3 30.7 20.3 29.8 20.3 29L20.4 26.6H20.6L21.4 25.7C22.6 25.9 23.9 26.5 25 27.2C26.5 28.3 27.7 29.9 28.5 31.6C29.4 33.3 29.9 35.1 30.3 36.9C30.5 38.1 30.8 39.3 31.2 40.6L29.4 41.9C26 39.1 21.4 37.7 17.1 38C16.6 38.1 16.2 38.1 15.8 38.2Z" fill="#000000"/>
</svg>
