<svg width="16" height="16" viewBox="0 0 16 16" fill="none" xmlns="http://www.w3.org/2000/svg">
<g clip-path="url(#clip0_18793_375179)">
<path d="M16 8C16 3.58172 12.4183 0 8 0C3.58172 0 0 3.58172 0 8C0 12.4183 3.58172 16 8 16C12.4183 16 16 12.4183 16 8Z" fill="#6C00F6"/>
<path d="M9.7248 4.42578L7.49226 5.70801V9.70983L6.26044 10.4239L5.02106 9.70925V8.2805L6.26044 7.57281L7.05733 8.03494V6.87899L6.25346 6.42263L4.02148 7.71934V10.2843L6.26102 11.5741L8.49297 10.2843V6.28307L9.73235 5.56841L10.9711 6.28307V7.70543L9.73235 8.42645L8.92848 7.96023V9.11041L9.7248 9.56965L11.9788 8.28747V5.70801L9.7248 4.42578Z" fill="white"/>
</g>
<defs>
<clipPath id="clip0_18793_375179">
<rect width="16" height="16" fill="white"/>
</clipPath>
</defs>
</svg>
