<svg width="36" height="35" viewBox="0 0 36 35" fill="none" xmlns="http://www.w3.org/2000/svg">
<path d="M31.7074 29.3281L19.073 34.3231C18.476 34.5592 18.1774 34.6772 17.8644 34.6763C17.5514 34.6755 17.2535 34.5559 16.6577 34.3166L4.22761 29.325L4.2276 29.325C2.68199 28.7043 1.90918 28.394 1.90189 27.8506C1.8946 27.3071 2.65881 26.9762 4.18723 26.3143L16.5775 20.9484C17.2117 20.6737 17.5288 20.5364 17.8645 20.5355C18.2001 20.5345 18.518 20.67 19.1537 20.9411L31.7474 26.3105C33.3004 26.9726 34.0769 27.3037 34.0697 27.8504C34.0624 28.3971 33.2774 28.7074 31.7074 29.3281Z" stroke="black" stroke-width="0.271884"/>
<path d="M34.2044 27.8174L34.2056 27.8169V26.7246L18.982 20.85C18.3947 20.6233 18.101 20.51 17.7938 20.5112C17.4865 20.5125 17.1938 20.6282 16.6083 20.8595L1.76656 26.7246V27.8169L1.77689 27.8214C1.77652 27.831 1.7764 27.8407 1.77653 27.8505C1.7838 28.3957 2.5631 28.706 4.12169 29.3267L16.6702 34.3241C17.2619 34.5597 17.5577 34.6775 17.8683 34.6784C18.1789 34.6792 18.4754 34.563 19.0682 34.3305L31.8229 29.3298C33.4061 28.7091 34.1976 28.3987 34.2049 27.8503C34.205 27.8393 34.2048 27.8283 34.2044 27.8174Z" fill="#7E22ED"/>
<path d="M34.2044 26.7299L34.2045 26.7294L34.1378 25.6371L18.982 19.7624C18.3947 19.5358 18.101 19.4225 17.7938 19.4237C17.4865 19.425 17.1938 19.5406 16.6083 19.772L1.83282 25.6371L1.76656 26.7294L1.77689 26.7339C1.77652 26.7435 1.7764 26.7532 1.77653 26.763C1.7838 27.3081 2.5631 27.6185 4.12169 28.2392L16.6702 33.2366C17.2619 33.4722 17.5577 33.59 17.8683 33.5908C18.1789 33.5917 18.4754 33.4754 19.0682 33.243L31.8229 28.2423C33.4061 27.6216 34.1977 27.3112 34.2049 26.7628C34.205 26.7517 34.2049 26.7408 34.2044 26.7299Z" fill="#2DFF9F"/>
<path d="M31.7074 27.1531L19.073 32.1481C18.476 32.3841 18.1774 32.5021 17.8644 32.5013C17.5514 32.5005 17.2535 32.3808 16.6577 32.1416L4.22761 27.15L4.2276 27.15C2.68199 26.5293 1.90918 26.219 1.90189 25.6755C1.8946 25.1321 2.65881 24.8011 4.18723 24.1392L16.5775 18.7733C17.2117 18.4987 17.5288 18.3614 17.8645 18.3604C18.2001 18.3595 18.518 18.495 19.1537 18.766L31.7474 24.1354C33.3004 24.7976 34.0769 25.1286 34.0697 25.6753C34.0624 26.222 33.2774 26.5324 31.7074 27.1531Z" fill="white" stroke="black" stroke-width="0.135942"/>
<circle cx="17.864" cy="14.4099" r="10.6035" fill="#A463F2"/>
<ellipse cx="18.3799" cy="14.612" rx="10.0876" ry="10.4014" fill="#7E22ED"/>
<path d="M25.251 12.3599C25.2232 12.3031 25.1964 12.2451 25.1708 12.1861C25.1606 12.1617 25.1437 12.141 25.1221 12.1264C25.1005 12.1118 25.0751 12.104 25.0492 12.104C25.0233 12.104 24.9979 12.1118 24.9763 12.1264C24.9547 12.141 24.9378 12.1617 24.9277 12.1861C24.6884 12.7476 24.295 13.2265 23.7948 13.5652L23.6012 13.6852C23.581 13.6967 23.5643 13.7135 23.5526 13.7338C23.5409 13.7541 23.5347 13.7772 23.5347 13.8007C23.5347 13.8242 23.5409 13.8474 23.5526 13.8677C23.5643 13.888 23.581 13.9047 23.6012 13.9162L23.7948 14.0362C24.2398 14.3413 24.6022 14.7558 24.8485 15.2415L24.9288 15.4153C24.9389 15.4397 24.9558 15.4604 24.9774 15.475C24.999 15.4896 25.0244 15.4974 25.0503 15.4974C25.0762 15.4974 25.1016 15.4896 25.1232 15.475C25.1448 15.4604 25.1617 15.4397 25.1719 15.4153C25.4111 14.8538 25.8045 14.3749 26.3048 14.0362L26.4983 13.9162C26.5863 13.8646 26.5863 13.7357 26.4983 13.6852L26.3048 13.5652C26.1038 13.4284 25.9213 13.2707 25.757 13.0921C25.5546 12.8723 25.386 12.6282 25.251 12.3599Z" fill="white"/>
<path d="M21.6297 7.64893C21.5938 7.67253 21.5653 7.70617 21.5477 7.74583C21.3086 8.30129 20.9791 8.81268 20.5732 9.25618C20.2122 9.64832 19.7946 9.98184 19.3347 10.2451C19.301 10.2642 19.2729 10.292 19.2533 10.3258C19.2338 10.3596 19.2235 10.3982 19.2235 10.4374C19.2235 10.4767 19.2338 10.5152 19.2533 10.5491C19.2729 10.5829 19.301 10.6107 19.3347 10.6297C19.794 10.8925 20.2113 11.2252 20.5721 11.6165C20.9785 12.0602 21.3084 12.5709 21.5477 13.1268C21.565 13.1669 21.5933 13.2009 21.6292 13.2248C21.6652 13.2488 21.7071 13.2615 21.7501 13.2615C21.793 13.2615 21.835 13.2488 21.8709 13.2248C21.9068 13.2009 21.9352 13.1669 21.9524 13.1268C22.1915 12.5714 22.521 12.0611 22.927 11.6176C23.2875 11.2255 23.7048 10.892 24.1643 10.6286C24.198 10.6096 24.2261 10.5818 24.2457 10.5479C24.2652 10.5141 24.2756 10.4756 24.2756 10.4363C24.2756 10.3971 24.2652 10.3585 24.2457 10.3247C24.2261 10.2909 24.198 10.263 24.1643 10.244C23.2723 9.73362 22.5488 8.96488 22.0855 8.03512C22.0386 7.94093 21.9942 7.8445 21.9524 7.74583C21.9348 7.70617 21.9064 7.67253 21.8705 7.64893C21.8346 7.62534 21.7928 7.61279 21.7501 7.61279C21.7074 7.61279 21.6656 7.62534 21.6297 7.64893Z" fill="white"/>
<mask id="path-8-inside-1_4375_7290" fill="white">
<path d="M24.933 26.1828C27.5246 24.6865 29.5501 22.3769 30.6953 19.6121C31.8405 16.8474 32.0414 13.782 31.2669 10.8914C30.4924 8.00085 28.7857 5.44662 26.4115 3.62487C24.0374 1.80312 21.1285 0.815674 18.1359 0.815674C15.1434 0.815674 12.2345 1.80312 9.8603 3.62487C7.48616 5.44662 5.77947 8.00085 5.00494 10.8914C4.23042 13.782 4.43133 16.8474 5.57653 19.6121C6.72173 22.3769 8.74721 24.6865 11.3388 26.1828L11.3914 26.0917C8.81988 24.607 6.81008 22.3152 5.67374 19.5719C4.53741 16.8285 4.33805 13.7869 5.10658 10.9187C5.87511 8.05046 7.56859 5.51599 9.92436 3.70835C12.2801 1.9007 15.1665 0.920896 18.1359 0.920896C21.1053 0.920895 23.9917 1.9007 26.3475 3.70835C28.7033 5.51599 30.3967 8.05046 31.1653 10.9187C31.9338 13.7869 31.7344 16.8285 30.5981 19.5719C29.4618 22.3152 27.452 24.607 24.8804 26.0917L24.933 26.1828Z"/>
</mask>
<path d="M24.933 26.1828C27.5246 24.6865 29.5501 22.3769 30.6953 19.6121C31.8405 16.8474 32.0414 13.782 31.2669 10.8914C30.4924 8.00085 28.7857 5.44662 26.4115 3.62487C24.0374 1.80312 21.1285 0.815674 18.1359 0.815674C15.1434 0.815674 12.2345 1.80312 9.8603 3.62487C7.48616 5.44662 5.77947 8.00085 5.00494 10.8914C4.23042 13.782 4.43133 16.8474 5.57653 19.6121C6.72173 22.3769 8.74721 24.6865 11.3388 26.1828L11.3914 26.0917C8.81988 24.607 6.81008 22.3152 5.67374 19.5719C4.53741 16.8285 4.33805 13.7869 5.10658 10.9187C5.87511 8.05046 7.56859 5.51599 9.92436 3.70835C12.2801 1.9007 15.1665 0.920896 18.1359 0.920896C21.1053 0.920895 23.9917 1.9007 26.3475 3.70835C28.7033 5.51599 30.3967 8.05046 31.1653 10.9187C31.9338 13.7869 31.7344 16.8285 30.5981 19.5719C29.4618 22.3152 27.452 24.607 24.8804 26.0917L24.933 26.1828Z" stroke="black" stroke-width="7.88463" stroke-dasharray="0.11 0.41" mask="url(#path-8-inside-1_4375_7290)"/>
<circle cx="17.8641" cy="0.815652" r="0.815652" fill="#0C1547"/>
<circle cx="4.81362" cy="15.4974" r="0.815652" fill="#0C1547"/>
<circle cx="31.7301" cy="15.4974" r="0.815652" fill="#0C1547"/>
<g filter="url(#filter0_f_4375_7290)">
<ellipse cx="17.8641" cy="27.5949" rx="4.52781" ry="1.58473" fill="#8001FF"/>
</g>
<defs>
<filter id="filter0_f_4375_7290" x="10.6174" y="23.2913" width="14.4933" height="8.60711" filterUnits="userSpaceOnUse" color-interpolation-filters="sRGB">
<feFlood flood-opacity="0" result="BackgroundImageFix"/>
<feBlend mode="normal" in="SourceGraphic" in2="BackgroundImageFix" result="shape"/>
<feGaussianBlur stdDeviation="1.35942" result="effect1_foregroundBlur_4375_7290"/>
</filter>
</defs>
</svg>
