<svg width="400" height="200" viewBox="0 0 400 200" fill="none" xmlns="http://www.w3.org/2000/svg">
<g clip-path="url(#clip0_211_268)">
<rect width="400" height="200" fill="white"/>
<path d="M220.5 173C268.825 173 308 161.827 308 148.046C308 134.264 268.825 123.092 220.5 123.092C172.175 123.092 133 134.264 133 148.046C133 161.827 172.175 173 220.5 173Z" fill="#7200D5"/>
<path d="M220.5 164.785C255.388 164.785 283.671 157.29 283.671 148.046C283.671 138.801 255.388 131.307 220.5 131.307C185.612 131.307 157.33 138.801 157.33 148.046C157.33 157.29 185.612 164.785 220.5 164.785Z" stroke="white" stroke-miterlimit="10"/>
<path d="M220.5 156.329C240.646 156.329 256.977 152.62 256.977 148.045C256.977 143.47 240.646 139.762 220.5 139.762C200.354 139.762 184.022 143.47 184.022 148.045C184.022 152.62 200.354 156.329 220.5 156.329Z" stroke="white" stroke-miterlimit="10"/>
<path d="M247.525 47.28C247.525 43.5876 246.766 39.9345 245.296 36.5465C243.826 33.1585 241.676 30.1079 238.978 27.5831C236.281 25.0584 233.093 23.1133 229.613 21.8682C226.133 20.623 222.434 20.1043 218.745 20.3441C212.365 20.7781 206.343 23.4502 201.744 27.8884C197.146 32.3266 194.265 38.2453 193.612 44.5991C193.032 50.4116 194.355 56.2552 197.383 61.2525C200.411 66.2499 204.981 70.1314 210.405 72.3141C210.764 72.4642 211.071 72.7175 211.285 73.0419C211.499 73.3663 211.612 73.7471 211.61 74.1358V89.6718C211.61 90.1061 211.695 90.5362 211.862 90.9372C212.029 91.3383 212.273 91.7026 212.581 92.0091C212.889 92.3157 213.255 92.5585 213.657 92.7237C214.059 92.8888 214.49 92.973 214.925 92.9715H225.765C226.638 92.9715 227.475 92.6251 228.093 92.0084C228.71 91.3918 229.057 90.5554 229.057 89.6833V73.8265C229.058 73.5516 229.144 73.2838 229.302 73.0586C229.459 72.8335 229.682 72.6617 229.94 72.5662C235.101 70.6426 239.551 67.1903 242.694 62.6713C245.836 58.1523 247.522 52.7823 247.525 47.28Z" fill="white" stroke="#1D1D1B" stroke-width="0.5" stroke-miterlimit="10"/>
<path d="M221.716 60.3402H219.158L218.068 58.1175L217.449 57.9456L215.315 59.2747L213.101 58.0029L213.273 55.5282L212.815 55.0699L210.314 55.1615L209.029 52.9503L210.417 50.8994C210.348 50.6929 210.29 50.4825 210.245 50.2693L208.031 49.1236V46.5686L210.257 45.4802C210.257 45.2739 210.36 45.0677 210.429 44.85L209.098 42.7304L210.371 40.5192L212.849 40.691L213.308 40.2327L213.216 37.7351L215.43 36.4519L217.483 37.8382C217.69 37.7688 217.901 37.7114 218.114 37.6663L219.261 35.4551H221.796L222.943 37.6778C223.156 37.7243 223.367 37.7817 223.574 37.8496L225.696 36.5206L227.91 37.7923L227.738 40.2671C227.899 40.416 228.048 40.565 228.197 40.7254L230.698 40.6337L231.982 42.845L230.606 44.8958C230.663 45.1021 230.721 45.3083 230.767 45.526L232.98 46.6717V49.2267L230.755 50.3151C230.708 50.5279 230.651 50.7382 230.583 50.9453L231.914 53.0649L230.64 55.2761L228.163 55.1042C228.019 55.2655 227.865 55.4185 227.704 55.5625L227.796 58.0602L225.582 59.3434L223.528 57.9571C223.322 58.0265 223.111 58.0838 222.898 58.1289L221.716 60.3402Z" fill="#7200D5"/>
<path d="M227.888 99.4673H212.471C212.281 99.4689 212.092 99.4326 211.916 99.3605C211.74 99.2885 211.58 99.1822 211.445 99.0479C211.311 98.9135 211.204 98.7538 211.132 98.578C211.06 98.4021 211.024 98.2137 211.025 98.0237C211.025 97.2217 211.668 96.5801 212.792 96.5801H228.209C228.54 96.6474 228.836 96.8291 229.046 97.0931C229.256 97.3572 229.365 97.6867 229.356 98.0237C229.356 98.2152 229.318 98.4048 229.244 98.5815C229.17 98.7582 229.061 98.9183 228.925 99.0527C228.788 99.187 228.626 99.2929 228.448 99.3641C228.27 99.4353 228.079 99.4704 227.888 99.4673Z" fill="#7200D5"/>
<path d="M225.937 102.137H214.42C213.622 102.137 212.975 102.783 212.975 103.58V103.592C212.975 104.389 213.622 105.035 214.42 105.035H225.937C226.735 105.035 227.382 104.389 227.382 103.592V103.58C227.382 102.783 226.735 102.137 225.937 102.137Z" fill="#7200D5"/>
<path d="M224.492 107.693H215.877C215.079 107.693 214.432 108.34 214.432 109.137V109.148C214.432 109.946 215.079 110.592 215.877 110.592H224.492C225.29 110.592 225.937 109.946 225.937 109.148V109.137C225.937 108.34 225.29 107.693 224.492 107.693Z" fill="#7200D5"/>
<rect x="41.25" y="61.25" width="111.5" height="111.5" rx="9.75" fill="white" stroke="black" stroke-width="0.5"/>
<path d="M96.9119 118.539H67.6619C67.3744 118.539 67.0988 118.653 66.8955 118.856C66.6923 119.06 66.5781 119.335 66.5781 119.623V146.945C66.5781 147.233 66.6923 147.508 66.8955 147.711C67.0988 147.915 67.3744 148.029 67.6619 148.029H72.1244C72.3447 148.03 72.5601 147.964 72.7423 147.841C72.9244 147.717 73.0646 147.54 73.1444 147.335L73.9619 145.115C74.0388 144.908 74.1776 144.73 74.3594 144.604C74.5412 144.479 74.7572 144.412 74.9781 144.414H118.519C118.742 144.413 118.959 144.481 119.141 144.608C119.323 144.734 119.463 144.914 119.539 145.123L120.357 147.343C120.433 147.551 120.571 147.73 120.753 147.857C120.935 147.984 121.152 148.052 121.373 148.051H125.851C125.993 148.052 126.135 148.024 126.267 147.97C126.398 147.916 126.518 147.836 126.619 147.735C126.72 147.635 126.801 147.515 126.855 147.383C126.91 147.251 126.938 147.11 126.938 146.968V119.638C126.937 119.35 126.822 119.074 126.618 118.871C126.414 118.668 126.138 118.554 125.851 118.554L96.9119 118.539Z" fill="#7200D5"/>
<path d="M96.8513 139.765C101.36 139.765 105.015 136.11 105.015 131.601C105.015 127.093 101.36 123.438 96.8513 123.438C92.3425 123.438 88.6875 127.093 88.6875 131.601C88.6875 136.11 92.3425 139.765 96.8513 139.765Z" fill="white"/>
<path d="M99.6748 129.996C99.6748 129.504 99.5466 129.021 99.3029 128.595C99.0592 128.168 98.7084 127.813 98.2851 127.563C97.8619 127.314 97.3809 127.179 96.8896 127.172C96.3983 127.165 95.9138 127.287 95.4839 127.525C95.0541 127.763 94.6937 128.109 94.4384 128.528C94.1831 128.948 94.0418 129.427 94.0284 129.918C94.015 130.41 94.1299 130.896 94.3619 131.329C94.5939 131.762 94.9348 132.127 95.3511 132.388C95.4331 132.44 95.5006 132.512 95.5471 132.597C95.5937 132.683 95.6179 132.778 95.6173 132.875V136.389H98.0811V132.894C98.0804 132.793 98.1051 132.692 98.1529 132.603C98.2007 132.513 98.2701 132.437 98.3548 132.38C98.7588 132.127 99.0918 131.775 99.3226 131.358C99.5535 130.941 99.6747 130.472 99.6748 129.996Z" fill="#7200D5"/>
<path d="M96.8324 107.087C113.939 107.087 127.807 101.471 127.807 94.5437C127.807 87.616 113.939 82 96.8324 82C79.7254 82 65.8574 87.616 65.8574 94.5437C65.8574 101.471 79.7254 107.087 96.8324 107.087Z" fill="white" stroke="#7200D5" stroke-width="0.374999" stroke-miterlimit="10"/>
<path d="M122.861 113.003L127.65 95.9629H65.8613L70.6501 113.003H122.861Z" fill="#7200D5"/>
<path d="M127.935 113.002H66.0191C64.4866 113.002 63.2441 114.244 63.2441 115.777V115.781C63.2441 117.313 64.4866 118.556 66.0191 118.556H127.935C129.468 118.556 130.71 117.313 130.71 115.781V115.777C130.71 114.244 129.468 113.002 127.935 113.002Z" fill="white" stroke="#7200D5" stroke-width="0.374999" stroke-miterlimit="10"/>
<mask id="mask0_211_268" style="mask-type:luminance" maskUnits="userSpaceOnUse" x="67" y="93" width="57" height="20">
<path d="M123.676 112.928H67.9023L70.6811 93.9492L123.864 94.2342L123.676 112.928Z" fill="white"/>
</mask>
<g mask="url(#mask0_211_268)">
<path d="M87.1614 97.8711C87.1614 97.8711 86.7001 101.246 87.0526 101.704C88.0914 103.005 93.4501 105.904 101.303 105.772C109.155 105.641 112.463 104.647 112.958 104.047C113.453 103.447 113.43 102.109 113.43 102.109L113.46 99.3073L87.1614 97.8711Z" fill="white"/>
<path d="M97.5801 118.257C97.5801 118.257 98.7463 121.475 99.2601 121.7C100.786 122.371 106.91 122.075 113.821 118.302C120.733 114.53 123.148 112.509 123.313 111.759C123.478 111.009 122.833 109.824 122.833 109.824L121.561 107.326L97.5801 118.257Z" fill="white"/>
<path d="M71.4374 109.93C71.4374 109.93 71.1674 113.338 71.5349 113.758C72.6336 115.003 78.0712 117.61 85.8149 117.055C93.5587 116.5 96.7499 115.315 97.2037 114.703C97.6574 114.092 97.5787 112.742 97.5787 112.742L97.4587 109.945L71.4374 109.93Z" fill="white"/>
<path d="M84.4544 112.927C91.8419 112.927 97.8307 111.399 97.8307 109.514C97.8307 107.629 91.8419 106.102 84.4544 106.102C77.0669 106.102 71.0781 107.629 71.0781 109.514C71.0781 111.399 77.0669 112.927 84.4544 112.927Z" fill="#B3B5FF"/>
<path d="M71.4798 109.514H71.0898V113.822H71.4798V109.514Z" fill="#B3B5FF"/>
<path d="M97.8529 109.408H97.4629V113.717H97.8529V109.408Z" fill="#B3B5FF"/>
<path d="M74.1986 111.441H73.8086V115.75H74.1986V111.441Z" fill="#B3B5FF"/>
<path d="M77.7347 112.33H77.3447V116.639H77.7347V112.33Z" fill="#B3B5FF"/>
<path d="M110.711 115.28C117.53 112.439 122.47 108.725 121.745 106.986C121.021 105.246 114.905 106.139 108.086 108.98C101.266 111.822 96.3259 115.535 97.0508 117.275C97.7757 119.015 103.891 118.122 110.711 115.28Z" fill="black"/>
<path d="M112.419 119.336C106.347 121.867 99.545 123.236 98.6787 121.155L99.0537 121.005C99.65 122.437 105.11 121.965 112.284 118.976C119.457 115.988 123.62 112.444 123.02 111.011L123.395 110.861C124.254 112.946 118.49 116.809 112.419 119.336Z" fill="black"/>
<path d="M121.726 106.873L121.366 107.023L123.023 111.001L123.383 110.851L121.726 106.873Z" fill="black"/>
<path d="M113.824 99.1686C113.974 97.2899 108.125 95.2908 100.761 94.7035C93.3972 94.1161 87.3059 95.163 87.1561 97.0417C87.0062 98.9204 92.8546 100.919 100.219 101.507C107.583 102.094 113.674 101.047 113.824 99.1686Z" fill="#03FF80"/>
<path d="M99.8522 105.888C106.407 106.413 113.296 105.607 113.476 103.357L113.101 103.327C112.977 104.875 107.641 106.117 99.8934 105.498C92.1459 104.879 87.0759 102.809 87.1959 101.26L86.8209 101.227C86.6184 103.48 93.2934 105.367 99.8522 105.888Z" fill="#03FF80"/>
<path d="M113.419 99.1405L113.076 103.436L113.465 103.467L113.807 99.1715L113.419 99.1405Z" fill="#03FF80"/>
<path d="M87.1433 96.9315L86.8008 101.227L87.1895 101.258L87.5321 96.9625L87.1433 96.9315Z" fill="#03FF80"/>
<path d="M110.561 100.84L110.219 105.135L110.608 105.166L110.95 100.871L110.561 100.84Z" fill="#03FF80"/>
<path d="M106.962 101.445L106.619 105.74L107.008 105.771L107.35 101.476L106.962 101.445Z" fill="#03FF80"/>
</g>
</g>
<defs>
<clipPath id="clip0_211_268">
<rect width="400" height="200" fill="white"/>
</clipPath>
</defs>
</svg>
