<svg width="400" height="200" viewBox="0 0 400 200" fill="none" xmlns="http://www.w3.org/2000/svg">
<g clip-path="url(#clip0_440_3040)">
<rect x="113" y="15.3284" width="174" height="174" rx="25.9701" fill="#7200D6"/>
<rect x="113.5" y="11.5" width="173" height="173" rx="25.4701" fill="url(#paint0_linear_440_3040)" stroke="#D6D6D6"/>
<path d="M200.443 151C232.72 151 258.886 143.538 258.886 134.333C258.886 125.128 232.72 117.666 200.443 117.666C168.166 117.666 142 125.128 142 134.333C142 143.538 168.166 151 200.443 151Z" fill="#7200D5"/>
<path d="M200.443 145.513C223.746 145.513 242.636 140.508 242.636 134.333C242.636 128.158 223.746 123.152 200.443 123.152C177.141 123.152 158.251 128.158 158.251 134.333C158.251 140.508 177.141 145.513 200.443 145.513Z" stroke="white" stroke-width="0.667922" stroke-miterlimit="10"/>
<path d="M200.443 139.865C213.899 139.865 224.807 137.388 224.807 134.333C224.807 131.277 213.899 128.8 200.443 128.8C186.987 128.8 176.079 131.277 176.079 134.333C176.079 137.388 186.987 139.865 200.443 139.865Z" stroke="white" stroke-width="0.667922" stroke-miterlimit="10"/>
<path d="M218.494 67.0292C218.494 64.5629 217.987 62.1229 217.005 59.86C216.023 57.5971 214.587 55.5595 212.785 53.8732C210.984 52.1868 208.855 50.8877 206.53 50.056C204.205 49.2244 201.735 48.8779 199.271 49.0381C195.009 49.3279 190.988 51.1127 187.916 54.077C184.844 57.0414 182.92 60.9947 182.484 65.2385C182.097 69.1208 182.98 73.0239 185.003 76.3617C187.025 79.6996 190.077 82.2921 193.701 83.75C193.94 83.8502 194.145 84.0194 194.288 84.2361C194.432 84.4528 194.507 84.7071 194.505 84.9667V95.3436C194.505 95.6337 194.562 95.9209 194.674 96.1888C194.785 96.4567 194.948 96.7 195.154 96.9047C195.36 97.1095 195.604 97.2717 195.873 97.382C196.141 97.4923 196.429 97.5485 196.719 97.5475H203.96C204.543 97.5475 205.102 97.3161 205.514 96.9043C205.927 96.4924 206.159 95.9337 206.159 95.3513V84.7601C206.16 84.5766 206.217 84.3977 206.322 84.2473C206.427 84.0969 206.576 83.9821 206.748 83.9184C210.196 82.6336 213.168 80.3277 215.267 77.3093C217.366 74.291 218.492 70.7042 218.494 67.0292Z" fill="white" stroke="#1D1D1B" stroke-width="0.333961" stroke-miterlimit="10"/>
<path d="M201.255 75.7523H199.547L198.819 74.2678L198.405 74.153L196.98 75.0407L195.502 74.1912L195.616 72.5383L195.31 72.2322L193.64 72.2934L192.782 70.8165L193.709 69.4467C193.662 69.3087 193.624 69.1682 193.594 69.0258L192.115 68.2605V66.554L193.601 65.827C193.601 65.6893 193.67 65.5515 193.716 65.4061L192.828 63.9904L193.678 62.5135L195.333 62.6282L195.639 62.3221L195.578 60.6539L197.057 59.7968L198.428 60.7228C198.566 60.6764 198.707 60.6381 198.85 60.608L199.616 59.131H201.309L202.075 60.6156C202.218 60.6467 202.358 60.6851 202.497 60.7304L203.914 59.8427L205.393 60.6921L205.278 62.3451C205.385 62.4446 205.485 62.5441 205.584 62.6512L207.254 62.59L208.113 64.0669L207.193 65.4367C207.232 65.5745 207.27 65.7122 207.3 65.8576L208.779 66.6229V68.3294L207.293 69.0564C207.262 69.1985 207.223 69.339 207.178 69.4773L208.067 70.893L207.216 72.3699L205.561 72.2552C205.465 72.3629 205.363 72.4651 205.255 72.5612L205.316 74.2295L203.837 75.0866L202.466 74.1606C202.328 74.207 202.187 74.2453 202.045 74.2754L201.255 75.7523Z" fill="#7200D5"/>
<path d="M205.378 101.886H195.08C194.953 101.887 194.827 101.863 194.71 101.815C194.592 101.767 194.485 101.696 194.395 101.606C194.306 101.516 194.234 101.41 194.186 101.292C194.138 101.175 194.114 101.049 194.115 100.922C194.115 100.386 194.544 99.9578 195.295 99.9578H205.592C205.813 100.003 206.011 100.124 206.151 100.3C206.291 100.477 206.365 100.697 206.358 100.922C206.358 101.05 206.333 101.177 206.283 101.295C206.234 101.413 206.161 101.52 206.07 101.609C205.979 101.699 205.871 101.77 205.752 101.817C205.633 101.865 205.506 101.888 205.378 101.886Z" fill="#7200D5"/>
<path d="M204.074 103.669H196.382C195.849 103.669 195.417 104.101 195.417 104.633V104.641C195.417 105.174 195.849 105.605 196.382 105.605H204.074C204.608 105.605 205.04 105.174 205.04 104.641V104.633C205.04 104.101 204.608 103.669 204.074 103.669Z" fill="#7200D5"/>
<path d="M203.109 107.381H197.355C196.822 107.381 196.39 107.812 196.39 108.345V108.352C196.39 108.885 196.822 109.317 197.355 109.317H203.109C203.642 109.317 204.075 108.885 204.075 108.352V108.345C204.075 107.812 203.642 107.381 203.109 107.381Z" fill="#7200D5"/>
</g>
<defs>
<linearGradient id="paint0_linear_440_3040" x1="90.3075" y1="0.17334" x2="216.146" y2="108.052" gradientUnits="userSpaceOnUse">
<stop stop-color="#D8B4FE"/>
<stop offset="1" stop-color="white"/>
</linearGradient>
<clipPath id="clip0_440_3040">
<rect width="400" height="200" fill="white"/>
</clipPath>
</defs>
</svg>
