<svg width="75" height="29" viewBox="0 0 75 29" fill="none" xmlns="http://www.w3.org/2000/svg">
<path d="M46.7824 4.41301C45.2896 4.41301 43.8966 4.84077 42.7212 5.58135C42.7188 5.58254 42.7164 5.58491 42.7141 5.58609C42.411 4.95215 41.7739 4.50544 41.0228 4.50544C39.9817 4.50544 39.1378 5.34674 39.1378 6.38355C39.1378 6.38829 39.1402 6.39066 39.1402 6.3954H39.1378V23.4324C39.1378 24.4704 39.9817 25.3105 41.0228 25.3105C42.0639 25.3105 42.9066 24.4692 42.9066 23.4324V18.5504C44.0416 19.2199 45.3668 19.605 46.7824 19.605C50.9897 19.605 54.402 16.2043 54.402 12.0084C54.402 7.81258 50.9909 4.41183 46.7824 4.41183V4.41301ZM46.7824 15.8725C44.6418 15.8725 42.9066 14.1425 42.9066 12.0084C42.9066 9.87437 44.6418 8.14436 46.7824 8.14436C48.9229 8.14436 50.6581 9.87437 50.6581 12.0084C50.6581 14.1425 48.9229 15.8725 46.7824 15.8725Z" fill="black"/>
<path d="M14.6613 9.12073C14.987 9.40512 15.4077 9.58641 15.8748 9.58641C15.8748 9.58641 15.876 9.58641 15.8772 9.58641C15.8772 9.58641 15.8784 9.58641 15.8795 9.58641C16.885 9.58641 17.7016 8.77355 17.7016 7.76991C17.7016 7.76517 17.7016 7.76043 17.7016 7.75451C17.7016 7.74858 17.7016 7.74266 17.7016 7.73792C17.7016 7.19759 17.4698 6.75679 17.0978 6.41909C17.08 6.4025 17.0609 6.38591 17.0419 6.37051C12.0822 2.00522 4.0276 5.39531 4.02879 12.0309C4.02879 13.0843 4.24986 14.0963 4.6492 15.0122C5.24822 16.3867 6.24063 17.542 7.48383 18.3573C8.10542 18.7649 8.79001 19.0872 9.52095 19.3076C10.2507 19.528 11.0268 19.6465 11.8243 19.6465C12.8084 19.6465 13.7568 19.4676 14.6304 19.1382C15.3043 18.8846 15.9318 18.5409 16.5011 18.125C16.5011 18.125 16.6497 18.0231 16.7947 17.9082C16.8268 17.8833 16.8577 17.8572 16.8898 17.83C16.9171 17.8063 16.9421 17.7838 16.9647 17.7624C16.973 17.7541 16.9825 17.7459 16.9908 17.7376C17.2226 17.5148 17.4092 17.2458 17.515 16.9496C17.5815 16.7659 17.6195 16.568 17.6195 16.3607C17.6195 15.8879 17.4389 15.4577 17.1418 15.1343C17.1204 15.1106 17.0978 15.0869 17.074 15.0632C16.9884 14.979 16.8934 14.9032 16.7911 14.838C16.5059 14.652 16.1636 14.5442 15.7975 14.5442C15.7904 14.5442 15.7833 14.5442 15.7761 14.5442C15.775 14.5442 15.7738 14.5442 15.7726 14.5442C15.3257 14.5442 14.9228 14.7231 14.6043 14.9921C14.2382 15.3084 13.8115 15.5644 13.3432 15.741C12.875 15.9175 12.3663 16.0147 11.8255 16.0147C11.2407 16.0147 10.6916 15.9009 10.1925 15.6959C9.4437 15.389 8.80903 14.8748 8.3669 14.2385C8.14583 13.9209 7.97231 13.5725 7.85346 13.2028C7.73461 12.8331 7.67161 12.4421 7.67161 12.0309C7.67399 8.53182 12.0299 6.76153 14.6613 9.12073Z" fill="black"/>
<path d="M34.1032 4.55756C33.2082 4.53387 32.488 5.15595 32.2871 5.98066C32.2848 5.99133 32.2788 6.0174 32.2776 6.02688C32.2776 6.02688 32.2539 6.00674 32.2432 5.99844C30.931 4.96992 29.3277 4.413 27.6614 4.413C27.6614 4.413 27.6614 4.413 27.6602 4.413C27.6602 4.413 27.659 4.413 27.6578 4.413C22.2703 4.413 18.6738 10.0047 20.7383 14.9885C21.8888 17.7648 24.5796 19.6583 27.659 19.6583C27.659 19.6583 27.659 19.6583 27.6602 19.6583C27.6602 19.6583 27.6614 19.6583 27.6626 19.6583C29.2766 19.6583 30.8954 19.1322 32.2515 18.067C32.2515 18.067 32.2788 18.0456 32.2895 18.0385L32.2955 18.0682C32.2978 18.0824 32.3014 18.0954 32.305 18.1084C32.5296 18.9059 33.2439 19.4972 34.1246 19.464C35.1241 19.4273 35.9098 18.5943 35.9098 17.5966V6.42501C35.9098 5.42019 35.1134 4.58245 34.1056 4.55638L34.1032 4.55756ZM27.6602 15.9637C25.5613 15.9625 23.8605 14.2088 23.8605 12.0357C23.8605 9.8708 25.5542 8.1088 27.6602 8.10762C28.9533 8.10762 30.1074 8.77474 30.8003 9.8234C32.5213 12.4267 30.704 15.9625 27.6602 15.9625V15.9637Z" fill="black"/>
<path d="M65.2331 12.038L68.9817 7.55307C69.6579 6.74376 69.5486 5.53987 68.7368 4.86565C67.9251 4.19142 66.7175 4.30044 66.0413 5.10974L62.7467 9.05083L59.4592 5.10382C58.7841 4.29332 57.5778 4.18194 56.7636 4.85498C55.9507 5.52802 55.839 6.73192 56.5141 7.54241L60.2543 12.0333L56.5057 16.5183C55.8295 17.3276 55.9388 18.5315 56.7506 19.2057C57.5623 19.8799 58.7699 19.7709 59.4461 18.9616L62.7407 15.0205L66.0282 18.9675C66.7033 19.778 67.9096 19.8894 68.7238 19.2164C69.5367 18.5433 69.6484 17.3394 68.9733 16.5289L65.2331 12.038Z" fill="#171717"/>
</svg>
