<svg width="119" height="47" viewBox="0 0 119 47" fill="none" xmlns="http://www.w3.org/2000/svg">
<g clip-path="url(#clip0_2854_2735)">
<mask id="mask0_2854_2735" style="mask-type:luminance" maskUnits="userSpaceOnUse" x="0" y="0" width="119" height="47">
<path d="M118.047 0H0V47H118.047V0Z" fill="white"/>
</mask>
<g mask="url(#mask0_2854_2735)">
<path d="M74.8848 4.48355H80.4317V0.995658C80.4317 0.445263 79.8802 0 79.1991 0H76.1175C75.4364 0 74.8848 0.445263 74.8848 0.995658V4.48355Z" fill="black"/>
<path d="M80.4317 1.2373H74.8848V4.6046C74.8848 5.13645 75.4364 5.56625 76.1175 5.56625H79.1991C79.8802 5.56625 80.4317 5.13645 80.4317 4.6046V1.2373Z" fill="black"/>
<path d="M59.4771 0H40.6789C39.9978 0 39.4461 0.553487 39.4461 1.23684V4.32895C39.4461 5.0123 39.9978 5.56578 40.6789 5.56578H63.7914C64.4724 5.56578 65.0241 6.11928 65.0241 6.80263V9.89474C65.0241 10.5781 64.4724 11.1316 63.7914 11.1316H44.3676C43.3877 11.1316 42.4477 11.5212 41.7513 12.2169L38.3707 15.6089C37.6773 16.3046 37.2891 17.2478 37.2891 18.2341V26.2921C37.2891 27.2754 37.6773 28.2186 38.3707 28.9174L41.7513 32.3094C42.4446 33.0052 43.3845 33.3947 44.3676 33.3947H63.4924C64.4724 33.3947 65.4123 33.0052 66.1088 32.3094L69.4894 28.9174C70.1828 28.2216 70.5711 27.2786 70.5711 26.2921V7.10256C70.5711 6.11928 70.1828 5.17619 69.4894 4.47737L66.1088 1.08533C65.4154 0.389605 64.4755 0 63.4924 0H59.4771ZM65.0241 22.2631V26.5921C65.0241 27.2754 64.4724 27.8289 63.7914 27.8289H44.0686C43.3877 27.8289 42.836 27.2754 42.836 26.5921V17.9342C42.836 17.2509 43.3877 16.6974 44.0686 16.6974H63.7914C64.4724 16.6974 65.0241 17.2509 65.0241 17.9342V22.2631Z" fill="black"/>
<path d="M106.954 0H88.1554C87.4744 0 86.9228 0.553487 86.9228 1.23684V4.32895C86.9228 5.0123 87.4744 5.56578 88.1554 5.56578H111.268C111.949 5.56578 112.5 6.11928 112.5 6.80263V9.89474C112.5 10.5781 111.949 11.1316 111.268 11.1316H91.8442C90.8643 11.1316 89.9244 11.5212 89.2279 12.2169L85.8473 15.6089C85.1539 16.3046 84.7656 17.2478 84.7656 18.2341V26.2921C84.7656 27.2754 85.1539 28.2186 85.8473 28.9174L89.2279 32.3094C89.9212 33.0052 90.8612 33.3947 91.8442 33.3947H110.969C111.949 33.3947 112.889 33.0052 113.586 32.3094L116.966 28.9174C117.659 28.2216 118.047 27.2786 118.047 26.2921V7.10256C118.047 6.11928 117.659 5.17619 116.966 4.47737L113.586 1.08533C112.892 0.389605 111.953 0 110.969 0H106.954ZM112.5 22.2631V26.5921C112.5 27.2754 111.949 27.8289 111.268 27.8289H91.5453C90.8643 27.8289 90.3126 27.2754 90.3126 26.5921V17.9342C90.3126 17.2509 90.8643 16.6974 91.5453 16.6974H111.268C111.949 16.6974 112.5 17.2509 112.5 17.9342V22.2631Z" fill="black"/>
<path d="M22.188 0H7.0786C6.09863 0 5.15872 0.389605 4.46226 1.08533L1.08167 4.48046C0.388291 5.17619 0 6.11928 0 7.10566V26.2953C0 27.2786 0.388291 28.2216 1.08167 28.9204L4.46226 32.3125C5.15564 33.0082 6.09555 33.3979 7.0786 33.3979H26.2035C27.1834 33.3979 28.1234 33.0082 28.8197 32.3125L32.2004 28.9204C32.8938 28.2247 33.282 27.2816 33.282 26.2953V1.23684C33.282 0.553487 32.7305 0 32.0494 0H22.188ZM27.735 11.1316V26.5921C27.735 27.2754 27.1834 27.8289 26.5024 27.8289H6.77967C6.09863 27.8289 5.54701 27.2754 5.54701 26.5921V6.80263C5.54701 6.11928 6.09863 5.56578 6.77967 5.56578H26.5024C27.1834 5.56578 27.735 6.11928 27.735 6.80263V11.1316Z" fill="black"/>
<path d="M27.735 40.1971C27.735 40.8804 27.1834 41.434 26.5024 41.434H6.77967C6.09863 41.434 5.54701 40.8804 5.54701 40.1971V37.105C5.54701 36.4217 4.99539 35.8682 4.31434 35.8682H1.23267C0.551619 35.8682 0 36.4217 0 37.105V39.8972C0 40.8804 0.388291 41.8236 1.08167 42.5224L4.46226 45.9145C5.15564 46.6102 6.09555 46.9997 7.0786 46.9997H26.2035C27.1834 46.9997 28.1234 46.6102 28.8197 45.9145L32.2004 42.5224C32.8938 41.8267 33.282 40.8836 33.282 39.8972V37.105C33.282 36.4217 32.7305 35.8682 32.0494 35.8682H28.9677C28.2867 35.8682 27.735 36.4217 27.735 37.105V40.1971Z" fill="black"/>
<path d="M74.8848 12.9096V32.4841C74.8848 32.9866 75.4364 33.3947 76.1175 33.3947H79.1991C79.8802 33.3947 80.4317 32.9866 80.4317 32.4841V9.72312C80.4317 9.22066 79.8802 8.8125 79.1991 8.8125H76.1175C75.4364 8.8125 74.8848 9.22066 74.8848 9.72312V12.9096Z" fill="black"/>
</g>
</g>
<defs>
<clipPath id="clip0_2854_2735">
<rect width="118.047" height="47" fill="white"/>
</clipPath>
</defs>
</svg>
