<svg width="90" height="33" viewBox="0 0 90 33" fill="none" xmlns="http://www.w3.org/2000/svg">
<path d="M19.6519 19.6859V18.6648H18.6466V17.6437H17.6477V14.5836H18.6466V13.5624H19.6519V12.5413H27.6936V13.5624H25.6832V14.5836H26.6884V17.6437H25.6832V18.6648H24.678V19.6859H19.655H19.6519ZM26.6884 27.8485V25.8063H25.6832V24.7851H19.6519V23.7704H18.6466V22.7557H17.6477V20.7135H18.6466V19.6923H19.6519V21.7346H20.6571V22.7557H26.6884V23.7704H27.6936V24.7851H28.6989V26.8274H27.6936V27.8485H26.6884ZM19.6519 29.8907V28.8696H18.6466V27.8485H17.6477V25.8063H18.6466V24.7851H19.6519V27.8517H20.6571V28.8728H25.68V29.8939H19.6487L19.6519 29.8907ZM23.6759 18.6616V17.6405H24.6748V14.5804H23.6759V13.5592H20.6571V14.5804H19.6519V17.6405H20.6571V18.6616H23.6759ZM25.6832 28.8696V27.8485H26.6884V28.8696H25.6832Z" fill="#171717"/>
<path d="M31.7178 23.7672V22.7525H30.7126V21.7314H29.7074V19.6891H28.7085V16.629H29.7074V14.5836H30.7126V15.6047H36.7439V14.5836H35.7387V13.5624H31.721V12.5413H36.7439V13.5624H37.7492V14.5836H38.7544V16.629H30.7126V19.6891H31.7178V21.7314H32.7231V22.7525H36.7408V23.7672H31.7178ZM30.7126 14.5836V13.5624H31.7178V14.5836H30.7126ZM36.7439 22.7525V21.7314H37.7492V22.7525H36.7439ZM37.7492 21.7314V20.7103H38.7544V21.7314H37.7492Z" fill="#171717"/>
<path d="M40.2669 23.7672V22.7525H41.2658V14.5835H40.2669V13.5624H41.2658V12.5413H42.271V11.5202H43.2762V13.5624H44.2815V14.5835H43.2762V22.7525H44.2815V23.7672H40.2637H40.2669ZM47.7982 23.7672V22.7525H48.8034V14.5835H47.7982V13.5624H44.2846V12.5413H48.8065V13.5624H49.8118V14.5835H50.817V22.7525H51.8222V23.7672H47.7982Z" fill="#171717"/>
<path d="M54.3368 23.7672V22.7525H53.3378V20.1981H54.3368V21.7314H55.342V22.7525H58.3608V21.7314H59.366V19.6891H58.3608V18.668H56.3503V17.6469H54.3399V16.6322H53.341V14.5868H54.3399V13.5656H55.3451V15.6079H56.3503V16.629H58.3608V17.6437H60.3681V18.6648H61.3733V21.7314H60.3681V22.7525H59.3692V23.7672H54.3399H54.3368ZM59.8639 15.6047V14.5836H58.865V13.5624H55.3451V12.5413H59.867V13.5624H60.8723V15.6047H59.867H59.8639Z" fill="#171717"/>
<path d="M66.393 25.8063V21.2192H65.3877V18.6648H64.3825V16.1168H63.3836V13.5624H61.8805V12.5413H66.8972V13.5624H65.3877V16.1168H66.393V18.6648H67.3982V21.2192H68.4034V23.7672H67.3982V25.8063H66.393ZM62.3815 29.8939V27.8517H65.3877V28.8728H64.3825V29.8939H62.3815ZM65.3877 27.8517V25.8095H66.393V27.8517H65.3877ZM68.4066 21.2224V18.668H69.4118V21.2224H68.4066ZM70.4139 16.12V13.5656H68.9108V12.5445H72.9285V13.5656H71.4191V16.12H70.4139ZM69.4149 18.668V16.12H70.4139V18.668H69.4149Z" fill="#171717"/>
<path d="M73.9367 23.7672V22.7525H74.9356V14.5835H73.9367V13.5624H74.9356V12.5413H75.9409V11.5202H76.9461V13.5624H77.9513V14.5835H76.9461V22.7525H77.9513V23.7672H73.9336H73.9367ZM81.468 23.7672V22.7525H82.4732V14.5835H81.468V13.5624H77.9545V12.5413H82.4764V13.5624H83.4816V14.5835H84.4868V22.7525H85.492V23.7672H81.468Z" fill="#171717"/>
<path d="M15.7601 13.1047V11.1201H13.5416V13.1047H15.7601Z" fill="#171717"/>
<path d="M14.0142 14.5387V12.5541H11.7958V14.5387H14.0142Z" fill="#171717"/>
<path d="M7.85081 13.1015V11.1169H5.63239V13.1015H7.85081Z" fill="#171717"/>
<path d="M9.7948 14.5355V12.5509H7.57638V14.5355H9.7948Z" fill="#171717"/>
<path d="M11.9285 15.8639V13.8793H9.71011V15.8639H11.9285Z" fill="#171717"/>
<path d="M5.63229 4.4844V6.46902H7.85072V4.4844H5.63229Z" fill="#171717"/>
<path d="M7.37523 3.05354V5.03816H9.59365V3.05354H7.37523Z" fill="#171717"/>
<path d="M13.5415 4.4844V6.46902H15.7599V4.4844H13.5415Z" fill="#171717"/>
<path d="M11.5946 3.05034V5.03496H13.813V3.05034H11.5946Z" fill="#171717"/>
<path d="M9.46393 1.72513V3.70975H11.6824V1.72513L9.46393 1.72513Z" fill="#171717"/>
<path d="M6.29408 6.23854H4.29939V11.7026H6.29408V6.23854Z" fill="#171717"/>
<path d="M17.0646 6.23854H15.0699V11.7026H17.0646V6.23854Z" fill="#171717"/>
</svg>
