<svg width="93" height="36" viewBox="0 0 93 36" fill="none" xmlns="http://www.w3.org/2000/svg">
<g clip-path="url(#clip0_18096_5057)">
<mask id="mask0_18096_5057" style="mask-type:luminance" maskUnits="userSpaceOnUse" x="4" y="4" width="86" height="28">
<path d="M4 4H89.366V32H4V4Z" fill="white"/>
</mask>
<g mask="url(#mask0_18096_5057)">
<path fill-rule="evenodd" clip-rule="evenodd" d="M15.903 4.34201L4 24.783L15.903 31.659L27.817 24.783L15.903 4.34201ZM13.906 16.092C15.176 14.83 15.863 12.994 15.911 10.739C16.006 15.186 18.586 18.004 23.217 18.004C20.935 18.004 19.15 18.689 17.916 19.916C16.646 21.177 15.959 23.014 15.911 25.269C15.817 20.822 13.237 18.004 8.605 18.004C10.887 18.004 12.672 17.32 13.905 16.093L13.906 16.092Z" fill="black"/>
<path d="M49.772 25.193C49.778 25.042 49.782 24.89 49.782 24.737V18H42.547V20.35H46.815C46.882 20.352 46.9487 20.3403 47.0109 20.3155C47.0732 20.2908 47.1297 20.2535 47.177 20.206C47.2802 20.0981 47.3548 19.9661 47.394 19.822C47.4601 19.6533 47.5006 19.4757 47.514 19.295C47.547 19.103 47.562 18.919 47.562 18.743V24.856C47.562 24.968 47.56 25.08 47.554 25.192H49.772V25.193Z" fill="black"/>
<path d="M36.662 18.091C36.663 19.201 36.842 20.151 37.198 20.939C37.556 21.73 38.027 22.376 38.612 22.877C39.194 23.377 39.875 23.747 40.61 23.967C41.341 24.209 42.08 24.331 42.828 24.331H49.042C48.8543 24.3299 48.667 24.3135 48.482 24.282C48.2983 24.2685 48.1177 24.2277 47.946 24.161C47.9197 24.1532 47.8937 24.1445 47.868 24.135H49.798V26.559H42.95C41.8094 26.5662 40.6746 26.3948 39.587 26.051C38.5653 25.7321 37.6252 25.1946 36.832 24.476C36.036 23.781 35.41 22.902 34.956 21.836C34.501 20.77 34.273 19.518 34.273 18.08C34.275 16.615 34.485 15.343 34.907 14.263C35.329 13.165 35.915 12.261 36.662 11.55C37.4136 10.8207 38.3226 10.2736 39.319 9.95101C40.342 9.59601 41.447 9.42601 42.633 9.44201C43.58 9.45201 44.522 9.58201 45.436 9.83001C46.2837 10.0586 47.0841 10.4358 47.8 10.944C48.5997 11.4879 49.2746 12.1955 49.78 13.02L47.65 14.243L47.63 14.216C47.2207 13.6789 46.7265 13.2121 46.167 12.834C45.6366 12.4653 45.0533 12.1794 44.437 11.986C43.8571 11.7824 43.2476 11.676 42.633 11.671C41.867 11.671 41.107 11.811 40.391 12.083C39.6775 12.3568 39.0298 12.778 38.49 13.319C37.937 13.851 37.49 14.522 37.15 15.329C36.824 16.121 36.662 17.041 36.662 18.091ZM52.256 26.56V9.77701H54.62V26.56H52.256ZM71.966 26.56H56.916V24.426L68.036 12.654C68.422 12.247 69 11.864 69.507 11.648L69.483 11.6C69 11.816 68.301 11.983 67.746 11.983H57.11V9.77701H71.75V11.911L60.725 23.683C60.363 24.091 59.761 24.474 59.254 24.689L59.278 24.737C59.784 24.522 60.459 24.354 61.014 24.354H71.964L71.965 26.56H71.966ZM75.736 26.56H73.178L79.546 9.77701H82.995L89.362 26.56H86.83L85.262 22.556H77.255L75.736 26.56ZM81.258 11.887L78.003 20.47C80.028 20.47 81.427 20.447 82.464 20.566C83.478 20.662 84.49 21.094 85.19 22.316L81.258 11.887Z" fill="black"/>
</g>
</g>
<defs>
<clipPath id="clip0_18096_5057">
<rect width="93" height="36" fill="white"/>
</clipPath>
</defs>
</svg>
