<svg width="101" height="23" viewBox="0 0 101 23" fill="none" xmlns="http://www.w3.org/2000/svg">
<path fill-rule="evenodd" clip-rule="evenodd" d="M9.00148 15.3869L2.38191 11.4673C1.76336 11.1038 1.2518 10.5883 0.897557 9.97146C0.543373 9.35465 0.358724 8.65784 0.361849 7.94965C0.358667 7.24061 0.543657 6.54297 0.898523 5.9256C1.25345 5.30823 1.76597 4.79246 2.38566 4.4291L7.66638 1.30245C8.72098 0.676096 9.92983 0.344997 11.1621 0.344997C12.3944 0.344997 13.6032 0.676096 14.6579 1.30245L19.9386 4.4291C20.5571 4.79263 21.0686 5.30818 21.4228 5.92499C21.7771 6.54174 21.9617 7.23849 21.9587 7.94669C21.9619 8.65578 21.777 9.35342 21.4221 9.97079C21.0672 10.5882 20.5546 11.104 19.9349 11.4673L13.3153 15.3861C12.6646 15.7726 11.9188 15.9771 11.1584 15.9774C10.3981 15.9771 9.65235 15.773 9.00148 15.3869ZM15.5965 11.7106L17.5615 10.5471L18.7917 9.81627L12.2718 5.95658C11.9364 5.75734 11.5518 5.65195 11.1599 5.65183C10.7681 5.65206 10.3839 5.7574 10.0487 5.95658L3.52957 9.81627L4.75899 10.5471L6.72405 11.7106L10.0487 13.6789C10.3841 13.8779 10.7684 13.9831 11.1603 13.9831C11.5521 13.9831 11.9364 13.8779 12.2718 13.6789L15.5965 11.7106ZM8.71064 3.00685L3.42986 6.13344H3.42912C3.11033 6.32067 2.84665 6.58629 2.66405 6.9041C2.4815 7.22197 2.38628 7.58103 2.38787 7.94602C2.38884 8.01731 2.39355 8.08854 2.40202 8.15938L9.00295 4.25152C9.65377 3.86532 10.3996 3.66117 11.1599 3.66117C11.9202 3.66117 12.666 3.86532 13.3168 4.25152L19.9178 8.15938C19.9185 8.15218 19.9192 8.14498 19.9198 8.13778C19.9259 8.0743 19.9319 8.01161 19.9319 7.94602C19.9337 7.58098 19.8386 7.2218 19.656 6.90399C19.4734 6.58612 19.2096 6.32056 18.8906 6.13344L13.6099 3.00685C12.8706 2.56817 12.0235 2.33622 11.1599 2.33594C10.2965 2.33633 9.44969 2.56828 8.71064 3.00685ZM1.30197 14.7079L2.38191 15.3474L7.63445 18.4572C8.69831 19.0882 9.91722 19.422 11.1599 19.4227C12.4021 19.4216 13.6205 19.0875 14.6839 18.4565L20.0189 15.2984L20.0294 15.2911L20.9926 14.7211C21.2874 14.5465 21.5315 14.3 21.7009 14.0055C21.8703 13.711 21.9593 13.3784 21.9594 13.0401V11.8224L18.8914 13.6379L13.6426 16.7492C12.8946 17.1933 12.0372 17.4281 11.1632 17.4281C10.2892 17.4281 9.43191 17.1933 8.68388 16.7492L3.42918 13.6379L0.358099 11.8195V13.062C0.357247 13.3931 0.443776 13.7188 0.609222 14.0073C0.77461 14.2957 1.01329 14.5371 1.30197 14.7079ZM18.8914 17.2878L14.8646 19.6712C13.7471 20.3349 12.4661 20.6858 11.1603 20.6858C9.85444 20.6858 8.57343 20.3349 7.45594 19.6712L3.42912 17.2878L0.361849 15.4717H0.358099V16.7075C0.358156 17.0389 0.445367 17.3646 0.611267 17.6531C0.777166 17.9417 1.01613 18.1832 1.30492 18.3541L2.38191 18.9922L4.00335 19.9518L4.42878 20.204L6.40867 21.3734C7.84217 22.2245 9.48503 22.6746 11.1599 22.675C12.835 22.6743 14.478 22.2243 15.9118 21.3734L19.3682 19.3269L20.9828 18.3812C21.2813 18.2063 21.5284 17.9583 21.7001 17.6615C21.8718 17.3647 21.9622 17.0292 21.9624 16.6878V15.4636L18.8914 17.2878Z" fill="#1C1A1E"/>
<path fill-rule="evenodd" clip-rule="evenodd" d="M31.9761 4.58475H28.7808V18.4368H40.3665V15.6661H31.9761V4.58475ZM48.121 4.58475L41.5238 18.4368H44.9258L46.2646 15.5185H54.0741L55.4127 18.4368H58.8148L52.2186 4.58475H48.121ZM47.4338 12.9699L50.1692 7.0061L52.9049 12.9699H47.4338ZM63.0157 10.3696L67.6768 4.5848H71.2288L64.6321 12.7814V18.4368H61.4368V12.8237L54.8019 4.5848H58.3546L63.0157 10.3696ZM75.4928 12.7112H84.1389V10.3103H75.5354L75.4974 7.18882H84.6281V4.5848H72.481V11.5104V18.4368H84.7224V15.8327H75.4974L75.4928 12.7112ZM100.829 18.4368H97.0859L92.8464 13.1745H89.6534V18.4368H86.4553V4.58475H95.2218C96.249 4.58475 97.1513 4.76651 97.9285 5.12999C98.6665 5.45852 99.2989 5.97881 99.7579 6.63481C100.197 7.27507 100.416 8.02614 100.416 8.88807C100.416 9.73784 100.197 10.4828 99.7579 11.123C99.3011 11.7785 98.6711 12.299 97.9353 12.6286C97.4586 12.8476 96.9535 12.9996 96.4342 13.0803L100.829 18.4368ZM94.8485 7.06019H89.65V10.735H94.8485C95.5627 10.7354 96.1297 10.5725 96.5496 10.246C96.9694 9.91955 97.1797 9.46692 97.1797 8.88807C97.1785 8.30973 96.9683 7.8605 96.5496 7.5404C96.1303 7.22025 95.5633 7.06019 94.8485 7.06019Z" fill="#1C1A1E"/>
</svg>
