<?xml version="1.0" encoding="UTF-8"?>
<svg id="Layer_2" data-name="Layer 2" xmlns="http://www.w3.org/2000/svg" viewBox="0 0 670.67 246.93">
  <g id="Layer_1-2" data-name="Layer 1">
    <g>
      <path d="M211.59,37.1c-10.37-10.58-22.63-19.26-36.21-25.59-.55-.28-1.11-.54-1.69-.79-2.67-1.19-5.37-2.33-8.13-3.33-7.73-2.81-15.83-4.86-24.19-6.08-5.85-.85-11.82-1.31-17.9-1.31C55.39,0,0,55.39,0,123.47c0,53.04,33.62,98.37,80.67,115.81,5.53,2.05,11.25,3.71,17.13,4.96,8.29,1.76,16.87,2.7,25.67,2.7,46.9,0,87.76-26.29,108.66-64.89,9.44-17.44,14.81-37.39,14.81-58.57,0-33.59-13.5-64.08-35.34-86.36ZM36.83,189.52c-14.59-19.24-22.3-42.2-22.3-66.39,0-41.31,22.9-77.36,56.67-96.14,.89-.5,1.78,.69,1.03,1.39-3.08,2.9-6.05,6.01-8.87,9.32-19.57,22.89-30.85,54.02-30.95,85.43,0,40.78,27.28,84.8,71.35,84.8,39.33,0,71.33-38.04,71.33-84.8,0-21.97-7.37-43.07-19.94-58.72-.44-.55,.08-1.34,.76-1.13,21.26,6.29,37.16,30.74,37.16,59.85,0,25.71-9.33,51.3-25.59,70.22-16.86,19.61-39.49,30.41-63.72,30.42-25.51,0-49.93-12.51-66.94-34.25ZM212.06,56.8c14.58,19.2,22.27,42.12,22.25,66.3,0,41.31-22.9,77.36-56.67,96.14-.89,.5-1.78-.69-1.03-1.39,3.09-2.91,6.05-6.01,8.87-9.32,19.57-22.89,30.85-54.02,30.95-85.43,0-40.78-27.28-84.8-71.35-84.8-39.33,0-71.33,38.04-71.33,84.8,0,21.97,7.37,43.07,19.94,58.72,.44,.55-.08,1.34-.76,1.13-21.26-6.29-37.16-30.73-37.16-59.83,0-25.7,9.33-51.29,25.59-70.21,16.86-19.61,39.5-30.41,63.74-30.41,25.5,0,49.9,12.5,66.97,34.29Zm-49.88,66.33c0,29.12-14.15,54.26-34.43,65.54-2.51,1.4-5.61,1.22-7.93-.47l-4.34-3.17c-17.78-12.98-28.83-36.71-28.83-61.93,0-29.12,14.15-54.26,34.43-65.54,2.51-1.4,5.61-1.22,7.93,.47l4.34,3.16c17.79,12.98,28.84,36.71,28.84,61.93Z"/>
      <g>
        <path d="M349.37,86.07c-5.51-3.53-11.95-5.29-19.32-5.29s-13.84,1.76-19.39,5.29c-5.55,3.52-9.84,8.57-12.88,15.13-3.04,6.56-4.56,14.38-4.56,23.46s1.52,16.77,4.56,23.34c3.04,6.56,7.33,11.63,12.88,15.19,5.55,3.57,12.01,5.35,19.39,5.35s13.81-1.78,19.32-5.35c5.51-3.56,9.8-8.63,12.88-15.19,3.08-6.56,4.62-14.34,4.62-23.34s-1.54-16.99-4.62-23.52c-3.08-6.52-7.37-11.55-12.88-15.07Zm-3.22,54.39c-1.58,4.38-3.77,7.72-6.56,10.03-2.79,2.31-5.98,3.46-9.54,3.46s-6.77-1.15-9.6-3.46c-2.84-2.31-5.04-5.65-6.62-10.03-1.58-4.38-2.37-9.64-2.37-15.8s.79-11.43,2.37-15.8c1.58-4.38,3.79-7.72,6.62-10.03,2.83-2.31,6.04-3.46,9.6-3.46s6.75,1.16,9.54,3.46c2.8,2.31,4.98,5.63,6.56,9.97,1.58,4.34,2.37,9.62,2.37,15.86s-.79,11.43-2.37,15.8Z"/>
        <path d="M398.37,85.16l-20.83,76.94c-.68,2.51,1.21,4.98,3.81,4.98h9.3c1.79,0,3.36-1.21,3.82-2.94l3.18-12.1c.46-1.73,2.02-2.94,3.82-2.94h21.23c1.8,0,3.37,1.22,3.82,2.96l3.12,12.07c.45,1.74,2.02,2.96,3.82,2.96h9.77c2.6,0,4.49-2.47,3.81-4.98l-20.94-76.94c-.47-1.72-2.03-2.91-3.81-2.91h-20.1c-1.78,0-3.34,1.19-3.81,2.91Zm9.01,49.35c-2.59,0-4.47-2.45-3.82-4.95l3.49-13.28,1.27-5.29c.97-4.03,6.71-4.03,7.67,0l1.27,5.29,3.44,13.3c.65,2.5-1.24,4.93-3.82,4.93h-9.51Z"/>
        <path d="M542.23,86.19v6.69c0,2.18,1.77,3.95,3.95,3.95h6.33c2.18,0,3.95,1.77,3.95,3.95v47.77c0,2.18-1.77,3.95-3.95,3.95h-6.33c-2.18,0-3.95,1.77-3.95,3.95v6.69c0,2.18,1.77,3.95,3.95,3.95h38.17c2.18,0,3.95-1.77,3.95-3.95v-6.69c0-2.18-1.77-3.95-3.95-3.95h-6.33c-2.18,0-3.95-1.77-3.95-3.95v-47.77c0-2.18,1.77-3.95,3.95-3.95h6.33c2.18,0,3.95-1.77,3.95-3.95v-6.69c0-2.18-1.77-3.95-3.95-3.95h-38.17c-2.18,0-3.95,1.77-3.95,3.95Z"/>
        <path d="M668.18,131.29c-1.66-3.12-3.85-5.63-6.56-7.54-2.72-1.9-5.67-3.4-8.87-4.5-3.2-1.09-6.42-2.03-9.66-2.79-3.24-.77-6.22-1.58-8.93-2.43-2.71-.85-4.88-1.96-6.5-3.34-1.62-1.38-2.43-3.2-2.43-5.47,0-3.16,1.19-5.59,3.59-7.29,2.39-1.7,5.41-2.55,9.06-2.55,2.51,0,4.89,.41,6.99,1.52,2.79,1.47,4.69,3.71,5.76,5.32,.72,1.1,1.96,1.74,3.27,1.74h10.65c2.76,0,4.72-2.78,3.7-5.34-.72-1.82-1.64-3.51-2.77-5.07-3-4.13-6.91-7.29-11.73-9.48-4.82-2.19-10.11-3.28-15.86-3.28-6.24,0-11.67,1.09-16.29,3.28-4.62,2.19-8.2,5.16-10.76,8.93-2.55,3.77-3.83,8-3.83,12.7s.81,8.28,2.43,11.24c1.62,2.96,3.79,5.33,6.5,7.11,2.71,1.78,5.69,3.24,8.93,4.38,3.24,1.13,6.46,2.11,9.66,2.92,3.2,.81,6.16,1.68,8.87,2.61,2.71,.93,4.88,2.13,6.5,3.59,1.62,1.46,2.43,3.4,2.43,5.83,0,3.32-1.23,5.92-3.71,7.78-2.47,1.86-5.77,2.79-9.91,2.79-5.1,0-8.99-1.5-11.67-4.5-1.11-1.25-1.97-2.76-2.6-4.49s-2.2-2.85-4.01-2.85h-9.57c-2.63,0-4.5,2.51-3.8,5.05,.64,2.3,1.5,4.45,2.61,6.43,2.67,4.78,6.48,8.47,11.42,11.06,4.94,2.59,10.82,3.89,17.62,3.89,6.16,0,11.65-1.07,16.47-3.22,4.82-2.15,8.61-5.1,11.36-8.87,2.75-3.77,4.13-8.16,4.13-13.19s-.83-8.85-2.49-11.97Z"/>
        <path d="M522.78,131.29c-1.66-3.12-3.85-5.63-6.56-7.54-2.72-1.9-5.67-3.4-8.87-4.5-3.2-1.09-6.42-2.03-9.66-2.79-3.24-.77-6.22-1.58-8.93-2.43-2.71-.85-4.88-1.96-6.5-3.34-1.62-1.38-2.43-3.2-2.43-5.47,0-3.16,1.19-5.59,3.59-7.29,2.39-1.7,5.41-2.55,9.06-2.55,2.51,0,4.89,.41,6.99,1.52,2.79,1.47,4.69,3.71,5.76,5.32,.72,1.1,1.96,1.74,3.27,1.74h10.65c2.76,0,4.72-2.78,3.7-5.34-.72-1.82-1.64-3.51-2.77-5.07-3-4.13-6.91-7.29-11.73-9.48-4.82-2.19-10.11-3.28-15.86-3.28-6.24,0-11.67,1.09-16.29,3.28-4.62,2.19-8.2,5.16-10.76,8.93-2.55,3.77-3.83,8-3.83,12.7s.81,8.28,2.43,11.24c1.62,2.96,3.79,5.33,6.5,7.11,2.71,1.78,5.69,3.24,8.93,4.38,3.24,1.13,6.46,2.11,9.66,2.92,3.2,.81,6.16,1.68,8.87,2.61,2.71,.93,4.88,2.13,6.5,3.59,1.62,1.46,2.43,3.4,2.43,5.83,0,3.32-1.23,5.92-3.71,7.78s-5.77,2.79-9.91,2.79c-5.1,0-8.99-1.5-11.67-4.5-1.11-1.25-1.97-2.76-2.6-4.49s-2.2-2.85-4.01-2.85h-9.57c-2.63,0-4.5,2.51-3.8,5.05,.64,2.3,1.5,4.45,2.61,6.43,2.67,4.78,6.48,8.47,11.42,11.06,4.94,2.59,10.82,3.89,17.62,3.89,6.16,0,11.65-1.07,16.47-3.22,4.82-2.15,8.61-5.1,11.36-8.87,2.75-3.77,4.13-8.16,4.13-13.19s-.83-8.85-2.49-11.97Z"/>
      </g>
    </g>
  </g>
</svg>