<svg width="391" height="96" viewBox="0 0 391 96" fill="none" xmlns="http://www.w3.org/2000/svg">
<g clip-path="url(#clip0_18092_4683)">
<path d="M61.852 0.814026H0V9.99803L8.57046 18.5685H55.9266C57.55 18.5685 59.1322 19.4259 60.3553 20.8743C61.5801 22.3247 62.3183 24.2301 62.3183 26.0254C62.3183 27.8298 61.5731 29.8363 60.3301 31.3846C59.0848 32.9357 57.5052 33.8374 55.9266 33.8374H8.57046L0 42.4079V51.4143H62.5361L62.7508 51.3532C73.2635 48.3578 80.7828 37.2762 80.7828 26.0254C80.7828 14.4929 72.8945 3.60972 62.045 0.8629L61.852 0.814026Z" fill="black"/>
<path d="M144.167 1.40472H84.0531V93.4919H144.167V75.4846H104.171V55.366H142.026V55.3201H144.078V37.6544H142.026V37.6299H104.171V19.7675H144.167V1.40472Z" fill="black"/>
<path fill-rule="evenodd" clip-rule="evenodd" d="M277.729 1.40472H255.728L226.903 77.1389V93.847H241.417L248.311 74.168H285.16L292.179 93.847H306.797V76.3937L277.729 1.40472ZM254.494 56.5573L264.485 24.7824H268.791L278.958 56.5573H254.494Z" fill="black"/>
<path d="M330.635 43.0701H310.517V93.4925H347.988V75.4852H330.635V43.0701Z" fill="black"/>
<path d="M372.18 43.0701H352.062V93.4925H390.244V75.4852H372.18V43.0701Z" fill="black"/>
<path d="M147.527 68.6623V26.3911C149.477 21.3196 152.245 16.8151 155.866 12.8726C163.687 4.34093 174.259 0 187.173 0C197.491 0 206.393 2.93665 213.807 8.60297L213.819 8.61226L213.832 8.62186C219.64 13.2402 223.756 19.4637 226.15 27.1569V35.5645H208.372L208.058 34.3313C206.688 28.9508 204.094 24.8473 200.571 22.1394C197.018 19.4088 192.538 17.8929 187.173 17.8929C179.883 17.8929 174.331 20.5511 170.326 25.6818C166.286 30.8566 164.169 38.1051 164.169 47.6263C164.169 57.2858 166.292 64.6423 170.315 69.6803L170.32 69.6873L170.326 69.6943C174.32 74.8103 179.862 77.3597 187.173 77.3597C192.751 77.3597 197.445 75.7379 201.471 72.3002L201.474 72.2973C205.334 69.0205 207.71 64.3535 208.627 58.2467L208.837 56.8458H226.15V68.5255C223.973 75.5451 220.176 81.3088 214.693 85.7521C206.905 92.1856 197.742 95.2522 187.173 95.2522C174.384 95.2522 163.93 91.0375 155.987 82.2563C152.324 78.325 149.509 73.7912 147.527 68.6623Z" fill="black"/>
<path d="M38.7048 85.2866V93.4926H18.2874L0.532623 75.7383V55.1433H8.56147L38.7048 85.2866Z" fill="black"/>
<path d="M80.2506 85.2862V93.4923H59.8329L42.0785 75.7377V55.1425H50.1071L80.2506 85.2862Z" fill="black"/>
<path d="M318.078 1.34756L348.222 31.4911V39.6972H327.804L310.05 21.9428V1.34756H318.078Z" fill="black"/>
<path d="M359.623 1.34756L389.766 31.4911V39.6972H369.349L351.594 21.9428V1.34756H359.623Z" fill="black"/>
</g>
<defs>
<clipPath id="clip0_18092_4683">
<rect width="390.244" height="96" fill="white"/>
</clipPath>
</defs>
</svg>
