<?xml version="1.0" encoding="UTF-8"?>
<svg id="SUB-BRAND_LOGO" data-name="SUB-BRAND LOGO" xmlns="http://www.w3.org/2000/svg" version="1.1" viewBox="0 0 1251.033 393.479">
  <defs>
    <style>
      .cls-1 {
        fill: #000000;
        stroke-width: 0px;
      }
    </style>
  </defs>
  <g>
    <g>
      <path class="cls-1" d="M360.247,209.61l.331-.658c11.194-.331,28.978-8.234,36.552-16.466h.658c3.954,28.979,25.358,46.763,53.35,46.763,25.027,0,39.517-15.479,39.517-34.578,0-18.772-13.502-27.333-36.552-32.932l-19.76-4.61c-40.506-9.221-63.559-30.297-63.559-64.546,0-37.542,32.604-66.521,75.415-66.521,41.164,0,71.791,22.723,79.693,58.947l-.327.658c-10.54-.987-27.992,4.941-35.897,12.515l-.658-.329c-4.609-24.371-22.392-36.884-43.799-36.884s-34.905,12.184-34.905,28.65,16.133,25.686,36.552,30.626l19.103,4.281c39.845,9.221,64.214,28.65,64.214,68.827s-31.943,72.778-80.35,72.778c-44.129,0-81.012-23.709-89.575-66.521Z"/>
      <path class="cls-1" d="M547.952,191.827c0-46.434,33.59-83.974,80.023-83.974,52.361,0,84.635,41.822,77.719,95.172h-122.506c4.281,25.358,23.053,41.164,47.753,41.164,21.403,0,37.213-12.184,43.141-28.65l.658-.329c5.928,7.903,20.418,14.819,29.966,14.489l.331.66c-14.16,31.614-42.483,45.774-74.753,45.774-48.08,0-82.331-37.542-82.331-84.305ZM670.786,173.057c-4.609-21.076-20.088-34.249-43.137-34.249-22.395,0-37.544,13.173-43.141,34.249h86.278Z"/>
      <path class="cls-1" d="M723.471,191.827c0-46.763,35.236-84.305,82.658-84.305,34.909,0,61.251,15.479,74.095,43.799l-.327.66c-10.54-.329-26.677,6.586-33.262,14.489l-.658-.329c-8.232-16.795-22.723-24.04-39.848-24.04-27.331,0-46.103,22.394-46.103,49.726s18.772,50.057,46.103,50.057c17.783,0,32.601-7.574,41.164-26.346l.661-.329c6.913,7.574,23.05,14.489,33.59,13.831l.327.658c-14.491,31.945-40.175,46.434-75.742,46.434-47.422,0-82.658-37.871-82.658-84.305Z"/>
      <path class="cls-1" d="M898.993,112.463h35.563v27.002c7.247-17.124,21.407-29.637,41.494-29.637,14.16,0,24.7,4.281,30.627,11.196l.331.66c-8.563,5.597-16.798,20.417-17.456,30.626h-.658c-3.623-2.964-10.536-4.939-18.441-4.939-26.673,0-34.909,25.686-34.909,53.348v70.474h-36.552V112.463Z"/>
      <path class="cls-1" d="M1000.092,191.827c0-46.434,33.59-83.974,80.023-83.974,52.361,0,84.635,41.822,77.719,95.172h-122.506c4.281,25.358,23.053,41.164,47.753,41.164,21.403,0,37.213-12.184,43.141-28.65l.658-.329c5.928,7.903,20.418,14.819,29.966,14.489l.331.66c-14.16,31.614-42.483,45.774-74.753,45.774-48.08,0-82.331-37.542-82.331-84.305ZM1122.926,173.057c-4.609-21.076-20.088-34.249-43.137-34.249-22.395,0-37.544,13.173-43.141,34.249h86.278Z"/>
      <path class="cls-1" d="M1169.363,112.463h21.403v-55.325h36.882v55.325h23.384v32.93h-23.384v125.799h-36.882v-125.799h-21.403v-32.93Z"/>
    </g>
    <path class="cls-1" d="M308.156,94.509c0-4.797-2.467-9.127-6.588-11.583L169.465,4.246C164.719,1.415,159.399,0,154.078,0c-5.321,0-10.642,1.415-15.388,4.246L6.588,82.927C2.514,85.355.067,89.613.001,94.345c.002,5.785.005,15.249.006,21.035-.165,4.982,2.326,9.514,6.58,12.049l46.44,27.669c.378.225.568.611.57.998.002.39-.188.781-.57,1.008l-46.44,27.659C2.474,187.216.008,191.535,0,196.323c0,5.872,0,15.479,0,21.351,0,4.808,2.467,9.137,6.588,11.583l132.102,78.691c4.746,2.831,10.064,4.246,15.393,4.246s10.636-1.415,15.382-4.246l132.102-78.691c4.121-2.446,6.588-6.775,6.588-11.583,0-5.872,0-15.479,0-21.351-.008-4.788-2.474-9.107-6.588-11.559l-46.44-27.659c-.38-.226-.57-.615-.57-1.003s.19-.777.57-1.003l46.44-27.669c4.121-2.456,6.588-6.785,6.588-11.583v-21.337ZM144.935,137.889c2.82-1.675,5.984-2.519,9.148-2.519s6.317.843,9.138,2.519l30.567,18.213-30.567,18.203c-5.641,3.362-12.645,3.362-18.286,0l-30.567-18.203,30.567-18.213ZM277.58,206.012c.76.453.76,1.554,0,2.007l-114.359,68.113c-2.82,1.681-5.982,2.521-9.143,2.521-3.161,0-6.323-.84-9.143-2.521L30.575,208.018c-.76-.453-.76-1.554,0-2.006l21.431-12.769c4.188-2.496,6.754-7.011,6.754-11.887v-20.078c0-1.182,1.287-1.914,2.303-1.31l77.627,46.151c4.746,2.82,10.064,4.236,15.393,4.236s10.636-1.416,15.382-4.236l22.651-13.495c4.214-2.511,6.784-7.065,6.755-11.97l-.113-18.898c-.007-1.186,1.284-1.926,2.304-1.318l76.518,45.573ZM249.145,150.749c0,1.182-1.287,1.914-2.303,1.31l-77.377-45.986c-9.492-5.651-21.283-5.651-30.775,0l-22.796,13.578c-4.215,2.511-6.785,7.065-6.756,11.971l.117,19.341c.005.909-.984,1.475-1.765,1.01L30.576,106.181c-.76-.453-.761-1.554,0-2.007l114.359-68.113c2.82-1.686,5.984-2.529,9.148-2.529s6.317.843,9.138,2.529l114.359,68.113c.76.453.76,1.554,0,2.007l-21.68,12.915c-4.189,2.495-6.755,7.011-6.755,11.887v19.765Z"/>
  </g>
  <g>
    <path class="cls-1" d="M360.167,328.887h14.037v10.008c3.899-7.668,11.697-11.567,20.145-11.567,13.387,0,23.522,9.487,23.522,22.744v41.458h-14.425v-36.13c0-8.838-5.198-14.556-14.036-14.556-8.448,0-14.816,5.978-14.816,15.076v35.61h-14.427v-62.643Z"/>
    <path class="cls-1" d="M426.321,360.208c0-18.324,13.257-33.141,31.582-33.141,20.663,0,33.4,16.505,30.671,37.559h-48.347c1.69,10.008,9.097,16.246,18.844,16.246,8.448,0,14.686-4.808,17.025-11.307l.261-.13c2.339,3.119,8.059,5.848,11.827,5.719l.13.259c-5.589,12.478-16.766,18.065-29.503,18.065-18.974,0-32.492-14.816-32.492-33.271ZM474.798,352.801c-1.819-8.318-7.928-13.517-17.025-13.517-8.838,0-14.816,5.199-17.027,13.517h34.052Z"/>
    <path class="cls-1" d="M493.126,328.887h8.446v-21.833h14.557v21.833h9.227v12.998h-9.227v49.646h-14.557v-49.646h-8.446v-12.998Z"/>
    <path class="cls-1" d="M531.203,328.887h15.855l11.956,46.138h.65l13.387-46.138h15.206l13.516,46.398h.52l12.088-46.398h15.335l-17.804,62.643h-18.715l-12.218-42.757h-.649l-12.606,42.757h-18.715l-17.804-62.643Z"/>
    <path class="cls-1" d="M631.148,360.208c0-18.585,14.425-33.271,33.141-33.271s33.141,14.686,33.141,33.271-14.427,33.271-33.141,33.271-33.141-14.686-33.141-33.271ZM664.289,379.833c10.657,0,18.714-8.838,18.714-19.625,0-10.917-7.926-19.624-18.714-19.624-10.916,0-18.715,8.707-18.715,19.624,0,10.787,8.057,19.625,18.715,19.625Z"/>
    <path class="cls-1" d="M706.01,328.887h14.036v10.658c2.859-6.759,8.446-11.697,16.376-11.697,5.587,0,9.745,1.689,12.086,4.419l.129.26c-3.377,2.209-6.627,8.058-6.886,12.086h-.261c-1.429-1.169-4.16-1.949-7.278-1.949-10.526,0-13.777,10.138-13.777,21.054v27.812h-14.425v-62.643Z"/>
    <path class="cls-1" d="M768.523,391.53h-14.425v-90.975h14.425v53.546h.52l22.743-25.214h17.547l-25.993,28.593,27.941,34.05h-18.194l-24.044-29.242h-.52v29.242Z"/>
  </g>
</svg>