<svg width="66" height="17" viewBox="0 0 66 17" fill="none" xmlns="http://www.w3.org/2000/svg">
<path d="M16.3711 0.626919L13.3815 16.5533C13.3607 16.6637 13.298 16.7638 13.2043 16.836C13.1106 16.9082 12.9919 16.9479 12.8692 16.9479H3.50881C3.38619 16.9479 3.26753 16.9082 3.17381 16.836C3.08008 16.7638 3.01731 16.6637 2.99658 16.5533L0.00747839 0.626919C-0.00531527 0.558768 -0.00165944 0.488882 0.0181811 0.422156C0.0380216 0.355429 0.073572 0.293461 0.122351 0.240585C0.17113 0.187709 0.231957 0.145197 0.300589 0.11602C0.369221 0.0868436 0.444006 0.0717194 0.51971 0.0716768H3.3372C3.4596 0.0716876 3.57807 0.111131 3.67176 0.183068C3.76546 0.255005 3.82837 0.354815 3.84942 0.464947L6.00339 11.7218C6.21138 12.7668 7.08866 13.4631 8.20307 13.4631C9.28837 13.4631 10.1677 12.7668 10.4028 11.7218L12.5276 0.464947C12.5484 0.35456 12.6113 0.254463 12.7052 0.182326C12.799 0.110189 12.9177 0.0706636 13.0404 0.0707259H15.8568C15.9328 0.070467 16.0079 0.0854014 16.0769 0.114513C16.1458 0.143624 16.207 0.186197 16.256 0.239217C16.3051 0.292236 16.3408 0.354432 16.3607 0.421413C16.3805 0.488396 16.3841 0.558543 16.3711 0.626919Z" fill="black"/>
<path d="M30.9787 16.9481H22.8825C19.7862 16.9481 17.261 14.6559 17.2745 11.8284C17.2891 8.79142 19.5143 6.76851 22.8466 6.76851H26.3438C26.5785 6.7692 26.8111 6.72739 27.028 6.64548C27.245 6.56353 27.442 6.44314 27.6077 6.29126C27.7733 6.13933 27.9044 5.95896 27.9932 5.76051C28.0821 5.56206 28.127 5.34945 28.1254 5.13507C28.1129 4.18509 27.4124 3.55435 26.3661 3.55435H20.1404C20.0025 3.55435 19.8702 3.5043 19.7727 3.41522C19.6751 3.32615 19.6204 3.20535 19.6204 3.07938V0.546827C19.6204 0.420855 19.6751 0.300033 19.7727 0.210958C19.8702 0.121883 20.0025 0.0718517 20.1404 0.0718517H30.9787C31.1167 0.0718517 31.2489 0.121883 31.3464 0.210958C31.444 0.300033 31.4988 0.420855 31.4988 0.546827V16.4731C31.4988 16.5355 31.4853 16.5973 31.4592 16.6549C31.4331 16.7126 31.3947 16.7649 31.3464 16.809C31.2982 16.8531 31.2408 16.8881 31.1778 16.912C31.1147 16.9358 31.047 16.9481 30.9787 16.9481ZM28.1238 11.8583C28.1238 10.8941 27.4197 10.251 26.3641 10.251H22.8445C21.7889 10.251 21.0847 10.8941 21.0847 11.8583C21.0847 12.8225 21.7889 13.4656 22.8445 13.4656H26.3641C27.4218 13.4656 28.1238 12.8225 28.1238 11.8583Z" fill="black"/>
<path d="M49.1729 6.63455V16.4731C49.1729 16.5991 49.1183 16.7199 49.0206 16.809C48.9233 16.8981 48.7909 16.9481 48.653 16.9481H45.88C45.7421 16.9481 45.6101 16.8981 45.5124 16.809C45.4148 16.7199 45.3601 16.5991 45.3601 16.4731V6.65687C45.3601 4.94696 43.8474 3.55008 41.9769 3.55435C39.9587 3.55862 38.6144 4.7893 38.6144 6.63455V16.4731C38.6144 16.5991 38.5596 16.7199 38.4621 16.809C38.3645 16.8981 38.2323 16.9481 38.0944 16.9481H35.3221C35.1842 16.9481 35.0519 16.8981 34.9544 16.809C34.8569 16.7199 34.8021 16.5991 34.8021 16.4731V0.546827C34.8021 0.420855 34.8569 0.300033 34.9544 0.210958C35.0519 0.121883 35.1842 0.0718517 35.3221 0.0718517H41.9874C46.2988 0.0718517 49.1729 2.69703 49.1729 6.63455Z" fill="black"/>
<path d="M65.1851 16.9481H57.087C53.991 16.9481 51.4657 14.6559 51.479 11.8284C51.4939 8.79142 53.7191 6.76851 57.0511 6.76851H60.5483C60.7831 6.7692 61.0159 6.72739 61.2328 6.64548C61.4496 6.56356 61.6469 6.44318 61.8125 6.29126C61.9782 6.13937 62.1094 5.95899 62.1981 5.76054C62.2872 5.56209 62.3321 5.34949 62.3305 5.13507C62.3176 4.18509 61.6172 3.55435 60.571 3.55435H54.3465C54.2086 3.55435 54.0766 3.5043 53.9789 3.41522C53.8812 3.32615 53.8265 3.20535 53.8265 3.07938V0.546827C53.8265 0.420855 53.8812 0.300033 53.9789 0.210958C54.0766 0.121883 54.2086 0.0718517 54.3465 0.0718517H65.1851C65.323 0.0718517 65.4551 0.121883 65.5527 0.210958C65.65 0.300033 65.7051 0.420855 65.7051 0.546827V16.4731C65.7051 16.5355 65.6914 16.5973 65.6652 16.6549C65.6395 16.7126 65.6008 16.7649 65.5527 16.809C65.5043 16.8531 65.4473 16.8881 65.384 16.912C65.3211 16.9358 65.2531 16.9481 65.1851 16.9481ZM62.3321 11.8583C62.3321 10.8941 61.6281 10.251 60.5725 10.251H57.0526C55.9971 10.251 55.2931 10.8941 55.2931 11.8583C55.2931 12.8225 55.9971 13.4656 57.0526 13.4656H60.5714C61.6281 13.4656 62.3321 12.8225 62.3321 11.8583Z" fill="black"/>
</svg>
